<?xml version="1.0" encoding="us-ascii" standalone="no"?><svg xmlns="http://www.w3.org/2000/svg" xmlns:xlink="http://www.w3.org/1999/xlink" contentStyleType="text/css" height="538px" preserveAspectRatio="none" style="width:549px;height:538px;background:#FFFFFF;" version="1.1" viewBox="0 0 549 538" width="549px" zoomAndPan="magnify"><defs/><g><ellipse cx="277" cy="16" fill="#222222" rx="10" ry="10" style="stroke:#222222;stroke-width:1.0;"/><g id="SinObjetivo"><rect fill="#F1F1F1" height="52.7031" rx="12.5" ry="12.5" style="stroke:#181818;stroke-width:0.5;" width="211" x="171.5" y="87"/><line style="stroke:#181818;stroke-width:0.5;" x1="171.5" x2="382.5" y1="114.6094" y2="114.6094"/><text fill="#000000" font-family="sans-serif" font-size="14" lengthAdjust="spacing" textLength="72" x="241" y="106.5332">SinObjetivo</text><text fill="#000000" font-family="sans-serif" font-size="12" lengthAdjust="spacing" textLength="191" x="176.5" y="132.0664">El equipo no tiene un objetivo claro</text></g><g id="ObjetivoAsignado"><rect fill="#F1F1F1" height="52.7031" rx="12.5" ry="12.5" style="stroke:#181818;stroke-width:0.5;" width="219" x="167.5" y="218"/><line style="stroke:#181818;stroke-width:0.5;" x1="167.5" x2="386.5" y1="245.6094" y2="245.6094"/><text fill="#000000" font-family="sans-serif" font-size="14" lengthAdjust="spacing" textLength="111" x="221.5" y="237.5332">ObjetivoAsignado</text><text fill="#000000" font-family="sans-serif" font-size="12" lengthAdjust="spacing" textLength="199" x="172.5" y="263.0664">El equipo tiene un objetivo asignado</text></g><g id="Motivado"><rect fill="#F1F1F1" height="52.7031" rx="12.5" ry="12.5" style="stroke:#181818;stroke-width:0.5;" width="314" x="7" y="349"/><line style="stroke:#181818;stroke-width:0.5;" x1="7" x2="321" y1="376.6094" y2="376.6094"/><text fill="#000000" font-family="sans-serif" font-size="14" lengthAdjust="spacing" textLength="57" x="135.5" y="368.5332">Motivado</text><text fill="#000000" font-family="sans-serif" font-size="12" lengthAdjust="spacing" textLength="294" x="12" y="394.0664">El equipo est&#225; motivado y trabajando con entusiasmo</text></g><g id="Desmotivado"><rect fill="#F1F1F1" height="52.7031" rx="12.5" ry="12.5" style="stroke:#181818;stroke-width:0.5;" width="274" x="88" y="480"/><line style="stroke:#181818;stroke-width:0.5;" x1="88" x2="362" y1="507.6094" y2="507.6094"/><text fill="#000000" font-family="sans-serif" font-size="14" lengthAdjust="spacing" textLength="82" x="184" y="499.5332">Desmotivado</text><text fill="#000000" font-family="sans-serif" font-size="12" lengthAdjust="spacing" textLength="254" x="93" y="525.0664">El equipo est&#225; desmotivado y pierde eficiencia</text></g><!--link *start* to SinObjetivo--><g id="link_*start*_SinObjetivo"><path d="M277,26.16 C277,39.98 277,60.67 277,80.74 " fill="none" id="*start*-to-SinObjetivo" style="stroke:#181818;stroke-width:1.0;"/><polygon fill="#181818" points="277,86.74,281,77.74,277,81.74,273,77.74,277,86.74" style="stroke:#181818;stroke-width:1.0;"/></g><!--link SinObjetivo to ObjetivoAsignado--><g id="link_SinObjetivo_ObjetivoAsignado"><path d="M277,140.3 C277,162.79 277,189.26 277,211.75 " fill="none" id="SinObjetivo-to-ObjetivoAsignado" style="stroke:#181818;stroke-width:1.0;"/><polygon fill="#181818" points="277,217.75,281,208.75,277,212.75,273,208.75,277,217.75" style="stroke:#181818;stroke-width:1.0;"/><text fill="#000000" font-family="sans-serif" font-size="13" lengthAdjust="spacing" textLength="86" x="278" y="184.4951">Definir Objetivo</text></g><!--link ObjetivoAsignado to Motivado--><g id="link_ObjetivoAsignado_Motivado"><path d="M245.38,271.26 C235.2,280.2 224.18,290.61 215,301 C201.84,315.9 192.3448,329.2295 182.8848,343.8795 " fill="none" id="ObjetivoAsignado-to-Motivado" style="stroke:#181818;stroke-width:1.0;"/><polygon fill="#181818" points="179.63,348.92,187.8725,343.5292,182.3423,344.7196,181.1519,339.1894,179.63,348.92" style="stroke:#181818;stroke-width:1.0;"/><text fill="#000000" font-family="sans-serif" font-size="13" lengthAdjust="spacing" textLength="148" x="216" y="315.4951">Motivaci&#243;n Proporcionada</text></g><!--link Motivado to Desmotivado--><g id="link_Motivado_Desmotivado"><path d="M79.82,402.06 C55.29,414.04 38.51,430.1 53,450 C62.14,462.56 68.9544,469.3816 82.4244,476.9816 " fill="none" id="Motivado-to-Desmotivado" style="stroke:#181818;stroke-width:1.0;"/><polygon fill="#181818" points="87.65,479.93,81.7772,472.0237,83.2953,477.473,77.846,478.9912,87.65,479.93" style="stroke:#181818;stroke-width:1.0;"/><text fill="#000000" font-family="sans-serif" font-size="13" lengthAdjust="spacing" textLength="127" x="54" y="446.4951">P&#233;rdida de Motivaci&#243;n</text></g><!--link Desmotivado to Motivado--><g id="link_Desmotivado_Motivado"><path d="M212.82,479.75 C202.19,457.26 189.4059,430.2137 178.7659,407.7237 " fill="none" id="Desmotivado-to-Motivado" style="stroke:#181818;stroke-width:1.0;"/><polygon fill="#181818" points="176.2,402.3,176.4331,412.1461,178.3383,406.8197,183.6647,408.7249,176.2,402.3" style="stroke:#181818;stroke-width:1.0;"/><text fill="#000000" font-family="sans-serif" font-size="13" lengthAdjust="spacing" textLength="141" x="200" y="446.4951">Reestablecer Motivaci&#243;n</text></g><!--link ObjetivoAsignado to Desmotivado--><g id="link_ObjetivoAsignado_Desmotivado"><path d="M339.62,271.23 C351.38,279.01 362.12,288.82 369,301 C389.3,336.96 472.84,287.91 350,450 C340.46,462.58 332.7274,469.5253 318.6774,477.1253 " fill="none" id="ObjetivoAsignado-to-Desmotivado" style="stroke:#181818;stroke-width:1.0;"/><polygon fill="#181818" points="313.4,479.98,323.2192,479.2162,317.7978,477.6011,319.413,472.1797,313.4,479.98" style="stroke:#181818;stroke-width:1.0;"/><text fill="#000000" font-family="sans-serif" font-size="13" lengthAdjust="spacing" textLength="127" x="414" y="380.9951">P&#233;rdida de Motivaci&#243;n</text></g><!--SRC=[ZP0zRiCm38LtdO9p0LyWGu42oHWaICSY0oqn1GERT2KvW8-JCNEFu8jLHkhuBqCsKNplVII_tewGPU_moRBBpnJvecRqXXLi2g2VcYi5KOXCGb0BQ2-m1Ner4q-NrnSVWRy5NHUqfXCB-qVBFD4Ci2K9_sLcQUo8MqrVzvJxqtBxAx3tMgcth4c8PYGQK1HYUuMoRpKGFUPuHac5LG6IM0V6K2Rq8w13hYcKG-2-lNd73i7HU08pLSsnRjHje6BooPukPTF-bj5CxBCz3vGoC2_8afyWdr_efN7_0000]--></g></svg>