<?xml version="1.0" encoding="us-ascii" standalone="no"?><svg xmlns="http://www.w3.org/2000/svg" xmlns:xlink="http://www.w3.org/1999/xlink" contentStyleType="text/css" height="627px" preserveAspectRatio="none" style="width:363px;height:627px;background:#FFFFFF;" version="1.1" viewBox="0 0 363 627" width="363px" zoomAndPan="magnify"><defs/><g><ellipse cx="175" cy="16" fill="#222222" rx="10" ry="10" style="stroke:#222222;stroke-width:1.0;"/><g id="IdeaGenerada"><rect fill="#F1F1F1" height="50" rx="12.5" ry="12.5" style="stroke:#181818;stroke-width:0.5;" width="111" x="119.5" y="104"/><line style="stroke:#181818;stroke-width:0.5;" x1="119.5" x2="230.5" y1="131.6094" y2="131.6094"/><text fill="#000000" font-family="sans-serif" font-size="14" lengthAdjust="spacing" textLength="91" x="129.5" y="123.5332">IdeaGenerada</text></g><g id="PrototipoDesarrollado"><rect fill="#F1F1F1" height="50" rx="12.5" ry="12.5" style="stroke:#181818;stroke-width:0.5;" width="158" x="96" y="232"/><line style="stroke:#181818;stroke-width:0.5;" x1="96" x2="254" y1="259.6094" y2="259.6094"/><text fill="#000000" font-family="sans-serif" font-size="14" lengthAdjust="spacing" textLength="138" x="106" y="251.5332">PrototipoDesarrollado</text></g><g id="PrototipoEvaluado"><rect fill="#F1F1F1" height="50" rx="12.5" ry="12.5" style="stroke:#181818;stroke-width:0.5;" width="136" x="107" y="360"/><line style="stroke:#181818;stroke-width:0.5;" x1="107" x2="243" y1="387.6094" y2="387.6094"/><text fill="#000000" font-family="sans-serif" font-size="14" lengthAdjust="spacing" textLength="116" x="117" y="379.5332">PrototipoEvaluado</text></g><g id="InnovacionAceptada"><rect fill="#F1F1F1" height="50" rx="12.5" ry="12.5" style="stroke:#181818;stroke-width:0.5;" width="148" x="7" y="488"/><line style="stroke:#181818;stroke-width:0.5;" x1="7" x2="155" y1="515.6094" y2="515.6094"/><text fill="#000000" font-family="sans-serif" font-size="14" lengthAdjust="spacing" textLength="128" x="17" y="507.5332">InnovacionAceptada</text></g><g id="InnovacionRechazada"><rect fill="#F1F1F1" height="50" rx="12.5" ry="12.5" style="stroke:#181818;stroke-width:0.5;" width="159" x="190.5" y="488"/><line style="stroke:#181818;stroke-width:0.5;" x1="190.5" x2="349.5" y1="515.6094" y2="515.6094"/><text fill="#000000" font-family="sans-serif" font-size="14" lengthAdjust="spacing" textLength="139" x="200.5" y="507.5332">InnovacionRechazada</text></g><ellipse cx="175" cy="610" fill="none" rx="11" ry="11" style="stroke:#222222;stroke-width:1.0;"/><ellipse cx="175" cy="610" fill="#222222" rx="6" ry="6" style="stroke:#222222;stroke-width:1.0;"/><!--link *start* to IdeaGenerada--><g id="link_*start*_IdeaGenerada"><path d="M175,26.08 C175,42.86 175,73.22 175,97.65 " fill="none" id="*start*-to-IdeaGenerada" style="stroke:#181818;stroke-width:1.0;"/><polygon fill="#181818" points="175,103.65,179,94.65,175,98.65,171,94.65,175,103.65" style="stroke:#181818;stroke-width:1.0;"/><text fill="#000000" font-family="sans-serif" font-size="13" lengthAdjust="spacing" textLength="63" x="176" y="70.4951">CrearIdea()</text></g><!--link IdeaGenerada to PrototipoDesarrollado--><g id="link_IdeaGenerada_PrototipoDesarrollado"><path d="M175,154.29 C175,176.61 175,203.49 175,225.78 " fill="none" id="IdeaGenerada-to-PrototipoDesarrollado" style="stroke:#181818;stroke-width:1.0;"/><polygon fill="#181818" points="175,231.78,179,222.78,175,226.78,171,222.78,175,231.78" style="stroke:#181818;stroke-width:1.0;"/><text fill="#000000" font-family="sans-serif" font-size="13" lengthAdjust="spacing" textLength="122" x="176" y="198.4951">DesarrollarPrototipo()</text></g><!--link PrototipoDesarrollado to PrototipoEvaluado--><g id="link_PrototipoDesarrollado_PrototipoEvaluado"><path d="M175,282.29 C175,304.61 175,331.49 175,353.78 " fill="none" id="PrototipoDesarrollado-to-PrototipoEvaluado" style="stroke:#181818;stroke-width:1.0;"/><polygon fill="#181818" points="175,359.78,179,350.78,175,354.78,171,350.78,175,359.78" style="stroke:#181818;stroke-width:1.0;"/><text fill="#000000" font-family="sans-serif" font-size="13" lengthAdjust="spacing" textLength="126" x="176" y="326.4951">PresentarAlMercado()</text></g><!--link PrototipoEvaluado to InnovacionAceptada--><g id="link_PrototipoEvaluado_InnovacionAceptada"><path d="M132.58,410.26 C121.29,418.46 110.02,428.49 102,440 C92.1,454.21 87.9126,467.1822 85.1326,482.0522 " fill="none" id="PrototipoEvaluado-to-InnovacionAceptada" style="stroke:#181818;stroke-width:1.0;"/><polygon fill="#181818" points="84.03,487.95,89.6158,479.8384,84.9488,483.0352,81.752,478.3682,84.03,487.95" style="stroke:#181818;stroke-width:1.0;"/><text fill="#000000" font-family="sans-serif" font-size="13" lengthAdjust="spacing" textLength="115" x="103" y="454.4951">EvaluacionPositiva()</text></g><!--link PrototipoEvaluado to InnovacionRechazada--><g id="link_PrototipoEvaluado_InnovacionRechazada"><path d="M197.78,410.08 C206.03,419.2 215.23,429.83 223,440 C234.69,455.3 243.3584,468.3668 252.2384,482.6268 " fill="none" id="PrototipoEvaluado-to-InnovacionRechazada" style="stroke:#181818;stroke-width:1.0;"/><polygon fill="#181818" points="255.41,487.72,254.048,477.9658,252.767,483.4757,247.2571,482.1946,255.41,487.72" style="stroke:#181818;stroke-width:1.0;"/><text fill="#000000" font-family="sans-serif" font-size="13" lengthAdjust="spacing" textLength="119" x="236" y="454.4951">EvaluacionNegativa()</text></g><!--link InnovacionAceptada to *end*--><g id="link_InnovacionAceptada_*end*"><path d="M105.21,538.46 C125.88,559.36 150.0896,583.8252 163.3796,597.2552 " fill="none" id="InnovacionAceptada-to-*end*" style="stroke:#181818;stroke-width:1.0;"/><polygon fill="#181818" points="167.6,601.52,164.1127,592.3092,164.083,597.966,158.4263,597.9364,167.6,601.52" style="stroke:#181818;stroke-width:1.0;"/></g><!--link InnovacionRechazada to *end*--><g id="link_InnovacionRechazada_*end*"><path d="M245.54,538.46 C224.64,559.36 200.1526,583.8474 186.7226,597.2774 " fill="none" id="InnovacionRechazada-to-*end*" style="stroke:#181818;stroke-width:1.0;"/><polygon fill="#181818" points="182.48,601.52,191.6724,597.9845,186.0155,597.9845,186.0155,592.3276,182.48,601.52" style="stroke:#181818;stroke-width:1.0;"/></g><!--SRC=[ZOwn2i8m48RtF4L6BVG578IY8WvAS2qTZkJGGCYLQypWqvlOKgraSBp_ll-xQwjErlLMdWp24Jqo690RkMC4pjbgBHQhp2gcGC7sjCS1cCavC9HAdv5d9FNB-49qYE0UeqGn3kW3SEFEo3g5tuePVF_iFKNGbdoZiG_ZvoEHGqM33JR27_qhwZiyVmKNlC4a48LRMT5MdIXffjqB]--></g></svg>