<?xml version="1.0" encoding="us-ascii" standalone="no"?><svg xmlns="http://www.w3.org/2000/svg" xmlns:xlink="http://www.w3.org/1999/xlink" contentStyleType="text/css" height="349px" preserveAspectRatio="none" style="width:2055px;height:349px;background:#FFFFFF;" version="1.1" viewBox="0 0 2055 349" width="2055px" zoomAndPan="magnify"><defs/><g><text fill="#000000" font-family="sans-serif" font-size="14" font-weight="bold" lengthAdjust="spacing" textLength="326" x="857.5" y="24.5332">Diagrama de Objetos: Ejemplo de una Eleccion</text><g id="elem_eleccion1"><rect fill="#F1F1F1" height="47.2188" style="stroke:#181818;stroke-width:0.5;" width="274" x="46" y="170.6094"/><text fill="#000000" font-family="sans-serif" font-size="14" lengthAdjust="spacing" textLength="60" x="153" y="187.1426">eleccion1</text><line style="stroke:#181818;stroke-width:0.5;" x1="47" x2="319" y1="192.2188" y2="192.2188"/><text fill="#000000" font-family="sans-serif" font-size="14" lengthAdjust="spacing" textLength="262" x="52" y="210.752">nombre = "Elecciones Estudiantiles 2023"</text></g><g id="elem_candidato1"><rect fill="#F1F1F1" height="47.2188" style="stroke:#181818;stroke-width:0.5;" width="156" x="7" y="295.6094"/><text fill="#000000" font-family="sans-serif" font-size="14" lengthAdjust="spacing" textLength="70" x="50" y="312.1426">candidato1</text><line style="stroke:#181818;stroke-width:0.5;" x1="8" x2="162" y1="317.2188" y2="317.2188"/><text fill="#000000" font-family="sans-serif" font-size="14" lengthAdjust="spacing" textLength="144" x="13" y="335.752">nombre = "Juan P&#233;rez"</text></g><g id="elem_candidato2"><rect fill="#F1F1F1" height="47.2188" style="stroke:#181818;stroke-width:0.5;" width="163" x="482.5" y="295.6094"/><text fill="#000000" font-family="sans-serif" font-size="14" lengthAdjust="spacing" textLength="70" x="529" y="312.1426">candidato2</text><line style="stroke:#181818;stroke-width:0.5;" x1="483.5" x2="644.5" y1="317.2188" y2="317.2188"/><text fill="#000000" font-family="sans-serif" font-size="14" lengthAdjust="spacing" textLength="151" x="488.5" y="335.752">nombre = "Mar&#237;a L&#243;pez"</text></g><g id="elem_candidato3"><rect fill="#F1F1F1" height="47.2188" style="stroke:#181818;stroke-width:0.5;" width="172" x="249" y="295.6094"/><text fill="#000000" font-family="sans-serif" font-size="14" lengthAdjust="spacing" textLength="70" x="300" y="312.1426">candidato3</text><line style="stroke:#181818;stroke-width:0.5;" x1="250" x2="420" y1="317.2188" y2="317.2188"/><text fill="#000000" font-family="sans-serif" font-size="14" lengthAdjust="spacing" textLength="160" x="255" y="335.752">nombre = "Pedro G&#243;mez"</text></g><g id="elem_candidato4"><rect fill="#F1F1F1" height="47.2188" style="stroke:#181818;stroke-width:0.5;" width="179" x="712.5" y="295.6094"/><text fill="#000000" font-family="sans-serif" font-size="14" lengthAdjust="spacing" textLength="70" x="767" y="312.1426">candidato4</text><line style="stroke:#181818;stroke-width:0.5;" x1="713.5" x2="890.5" y1="317.2188" y2="317.2188"/><text fill="#000000" font-family="sans-serif" font-size="14" lengthAdjust="spacing" textLength="167" x="718.5" y="335.752">nombre = "Ana Rodr&#237;guez"</text></g><g id="elem_candidato5"><rect fill="#F1F1F1" height="47.2188" style="stroke:#181818;stroke-width:0.5;" width="184" x="943" y="295.6094"/><text fill="#000000" font-family="sans-serif" font-size="14" lengthAdjust="spacing" textLength="70" x="1000" y="312.1426">candidato5</text><line style="stroke:#181818;stroke-width:0.5;" x1="944" x2="1126" y1="317.2188" y2="317.2188"/><text fill="#000000" font-family="sans-serif" font-size="14" lengthAdjust="spacing" textLength="172" x="949" y="335.752">nombre = "Carlos Mart&#237;nez"</text></g><g id="elem_sufragante1"><rect fill="#F1F1F1" height="47.2188" style="stroke:#181818;stroke-width:0.5;" width="153" x="546.5" y="45.6094"/><text fill="#000000" font-family="sans-serif" font-size="14" lengthAdjust="spacing" textLength="76" x="585" y="62.1426">sufragante1</text><line style="stroke:#181818;stroke-width:0.5;" x1="547.5" x2="698.5" y1="67.2188" y2="67.2188"/><text fill="#000000" font-family="sans-serif" font-size="14" lengthAdjust="spacing" textLength="141" x="552.5" y="85.752">nombre = "Ana L&#243;pez"</text></g><g id="elem_sufragante2"><rect fill="#F1F1F1" height="47.2188" style="stroke:#181818;stroke-width:0.5;" width="172" x="754" y="45.6094"/><text fill="#000000" font-family="sans-serif" font-size="14" lengthAdjust="spacing" textLength="76" x="802" y="62.1426">sufragante2</text><line style="stroke:#181818;stroke-width:0.5;" x1="755" x2="925" y1="67.2188" y2="67.2188"/><text fill="#000000" font-family="sans-serif" font-size="14" lengthAdjust="spacing" textLength="160" x="760" y="85.752">nombre = "Pedro G&#243;mez"</text></g><g id="elem_sufragante3"><rect fill="#F1F1F1" height="47.2188" style="stroke:#181818;stroke-width:0.5;" width="179" x="1193.5" y="45.6094"/><text fill="#000000" font-family="sans-serif" font-size="14" lengthAdjust="spacing" textLength="76" x="1245" y="62.1426">sufragante3</text><line style="stroke:#181818;stroke-width:0.5;" x1="1194.5" x2="1371.5" y1="67.2188" y2="67.2188"/><text fill="#000000" font-family="sans-serif" font-size="14" lengthAdjust="spacing" textLength="167" x="1199.5" y="85.752">nombre = "Mar&#237;a S&#225;nchez"</text></g><g id="elem_sufragante4"><rect fill="#F1F1F1" height="47.2188" style="stroke:#181818;stroke-width:0.5;" width="98" x="1559" y="45.6094"/><text fill="#000000" font-family="sans-serif" font-size="14" lengthAdjust="spacing" textLength="76" x="1570" y="62.1426">sufragante4</text><line style="stroke:#181818;stroke-width:0.5;" x1="1560" x2="1656" y1="67.2188" y2="67.2188"/><text fill="#000000" font-family="sans-serif" font-size="14" lengthAdjust="spacing" textLength="86" x="1565" y="85.752">"Juan Garc&#237;a"</text></g><g id="elem_sufragante5"><rect fill="#F1F1F1" height="47.2188" style="stroke:#181818;stroke-width:0.5;" width="116" x="1904" y="45.6094"/><text fill="#000000" font-family="sans-serif" font-size="14" lengthAdjust="spacing" textLength="76" x="1924" y="62.1426">sufragante5</text><line style="stroke:#181818;stroke-width:0.5;" x1="1905" x2="2019" y1="67.2188" y2="67.2188"/><text fill="#000000" font-family="sans-serif" font-size="14" lengthAdjust="spacing" textLength="104" x="1910" y="85.752">"Laura Mart&#237;nez"</text></g><g id="elem_voto1"><rect fill="#F1F1F1" height="47.2188" style="stroke:#181818;stroke-width:0.5;" width="207" x="355.5" y="170.6094"/><text fill="#000000" font-family="sans-serif" font-size="14" lengthAdjust="spacing" textLength="35" x="441.5" y="187.1426">voto1</text><line style="stroke:#181818;stroke-width:0.5;" x1="356.5" x2="561.5" y1="192.2188" y2="192.2188"/><text fill="#000000" font-family="sans-serif" font-size="14" lengthAdjust="spacing" textLength="195" x="361.5" y="210.752">candidatoElegido = candidato1</text></g><g id="elem_voto2"><rect fill="#F1F1F1" height="47.2188" style="stroke:#181818;stroke-width:0.5;" width="207" x="709.5" y="170.6094"/><text fill="#000000" font-family="sans-serif" font-size="14" lengthAdjust="spacing" textLength="35" x="795.5" y="187.1426">voto2</text><line style="stroke:#181818;stroke-width:0.5;" x1="710.5" x2="915.5" y1="192.2188" y2="192.2188"/><text fill="#000000" font-family="sans-serif" font-size="14" lengthAdjust="spacing" textLength="195" x="715.5" y="210.752">candidatoElegido = candidato3</text></g><g id="elem_voto3"><rect fill="#F1F1F1" height="47.2188" style="stroke:#181818;stroke-width:0.5;" width="207" x="1063.5" y="170.6094"/><text fill="#000000" font-family="sans-serif" font-size="14" lengthAdjust="spacing" textLength="35" x="1149.5" y="187.1426">voto3</text><line style="stroke:#181818;stroke-width:0.5;" x1="1064.5" x2="1269.5" y1="192.2188" y2="192.2188"/><text fill="#000000" font-family="sans-serif" font-size="14" lengthAdjust="spacing" textLength="195" x="1069.5" y="210.752">candidatoElegido = candidato2</text></g><g id="elem_voto4"><rect fill="#F1F1F1" height="47.2188" style="stroke:#181818;stroke-width:0.5;" width="207" x="1417.5" y="170.6094"/><text fill="#000000" font-family="sans-serif" font-size="14" lengthAdjust="spacing" textLength="35" x="1503.5" y="187.1426">voto4</text><line style="stroke:#181818;stroke-width:0.5;" x1="1418.5" x2="1623.5" y1="192.2188" y2="192.2188"/><text fill="#000000" font-family="sans-serif" font-size="14" lengthAdjust="spacing" textLength="195" x="1423.5" y="210.752">candidatoElegido = candidato4</text></g><g id="elem_voto5"><rect fill="#F1F1F1" height="47.2188" style="stroke:#181818;stroke-width:0.5;" width="207" x="1771.5" y="170.6094"/><text fill="#000000" font-family="sans-serif" font-size="14" lengthAdjust="spacing" textLength="35" x="1857.5" y="187.1426">voto5</text><line style="stroke:#181818;stroke-width:0.5;" x1="1772.5" x2="1977.5" y1="192.2188" y2="192.2188"/><text fill="#000000" font-family="sans-serif" font-size="14" lengthAdjust="spacing" textLength="195" x="1777.5" y="210.752">candidatoElegido = candidato5</text></g><g id="elem_mesaElectoral1"><rect fill="#F1F1F1" height="47.2188" style="stroke:#181818;stroke-width:0.5;" width="157" x="1170.5" y="295.6094"/><text fill="#000000" font-family="sans-serif" font-size="14" lengthAdjust="spacing" textLength="97" x="1200.5" y="312.1426">mesaElectoral1</text><line style="stroke:#181818;stroke-width:0.5;" x1="1171.5" x2="1326.5" y1="317.2188" y2="317.2188"/><text fill="#000000" font-family="sans-serif" font-size="14" lengthAdjust="spacing" textLength="145" x="1176.5" y="335.752">ubicacion = "Gimnasio"</text></g><!--link eleccion1 to candidato1--><g id="link_eleccion1_candidato1"><path codeLine="39" d="M85.5069,220.4749 C71.7569,227.8149 64.62,234.7194 56,247.6094 C46.14,262.3494 51.0706,276.0912 61.3206,290.4912 " fill="none" id="eleccion1-candidato1" style="stroke:#181818;stroke-width:1.0;"/><polygon fill="#181818" points="90.8,217.6494,80.9767,218.359,86.3891,220.004,84.7441,225.4164,90.8,217.6494" style="stroke:#181818;stroke-width:1.0;"/><polygon fill="#181818" points="64.8,295.3794,62.8397,285.7276,61.9005,291.3059,56.3222,290.3668,64.8,295.3794" style="stroke:#181818;stroke-width:1.0;"/><text fill="#000000" font-family="sans-serif" font-size="13" lengthAdjust="spacing" textLength="49" x="57" y="262.1045">participa</text></g><!--link eleccion1 to candidato2--><g id="link_eleccion1_candidato2"><path codeLine="40" d="M232.4262,220.5426 C271.8562,240.8126 318.5,264.7194 321,265.6094 C350.32,276.0694 417.8607,290.2621 476.3807,301.6621 " fill="none" id="eleccion1-candidato2" style="stroke:#181818;stroke-width:1.0;"/><polygon fill="#181818" points="227.09,217.7994,233.2655,225.4716,231.5368,220.0854,236.9231,218.3567,227.09,217.7994" style="stroke:#181818;stroke-width:1.0;"/><polygon fill="#181818" points="482.27,302.8094,474.2009,297.1623,477.3623,301.8533,472.6712,305.0147,482.27,302.8094" style="stroke:#181818;stroke-width:1.0;"/><text fill="#000000" font-family="sans-serif" font-size="13" lengthAdjust="spacing" textLength="49" x="322" y="262.1045">participa</text></g><!--link eleccion1 to candidato3--><g id="link_eleccion1_candidato3"><path codeLine="41" d="M154.7625,222.434 C142.3325,236.854 135.87,250.9394 147,265.6094 C159.91,282.6194 199.7711,294.3999 242.9011,303.1999 " fill="none" id="eleccion1-candidato3" style="stroke:#181818;stroke-width:1.0;"/><polygon fill="#181818" points="158.68,217.8894,149.7741,222.0947,155.4155,221.6766,155.8336,227.3179,158.68,217.8894" style="stroke:#181818;stroke-width:1.0;"/><polygon fill="#181818" points="248.78,304.3994,240.7613,298.6809,243.8809,303.3998,239.162,306.5194,248.78,304.3994" style="stroke:#181818;stroke-width:1.0;"/><text fill="#000000" font-family="sans-serif" font-size="13" lengthAdjust="spacing" textLength="49" x="148" y="262.1045">participa</text></g><!--link eleccion1 to candidato4--><g id="link_eleccion1_candidato4"><path codeLine="42" d="M326.1896,218.7326 C370.7096,226.9826 414.25,236.0794 459,247.6094 C483.91,254.0294 489.07,259.2894 514,265.6094 C550.7,274.9194 636.3256,290.1597 706.4456,302.1297 " fill="none" id="eleccion1-candidato4" style="stroke:#181818;stroke-width:1.0;"/><polygon fill="#181818" points="320.29,217.6394,328.4105,223.2123,325.2063,218.5504,329.8682,215.3462,320.29,217.6394" style="stroke:#181818;stroke-width:1.0;"/><polygon fill="#181818" points="712.36,303.1394,704.1614,297.682,707.4313,302.298,702.8152,305.5679,712.36,303.1394" style="stroke:#181818;stroke-width:1.0;"/><text fill="#000000" font-family="sans-serif" font-size="13" lengthAdjust="spacing" textLength="49" x="515" y="262.1045">participa</text></g><!--link eleccion1 to candidato5--><g id="link_eleccion1_candidato5"><path codeLine="43" d="M326.2496,216.1354 C332.2296,216.9154 332.2,216.8894 338,217.6094 C468.8,233.7494 507.37,207.7994 633,247.6094 C648.56,252.5394 649.5,260.5194 665,265.6094 C768.8,299.7094 800.96,279.3294 909,295.6094 C919.99,297.2694 925.5743,298.127 936.9643,300.057 " fill="none" id="eleccion1-candidato5" style="stroke:#181818;stroke-width:1.0;"/><polygon fill="#181818" points="320.3,215.3594,328.707,220.4898,325.258,216.0061,329.7418,212.557,320.3,215.3594" style="stroke:#181818;stroke-width:1.0;"/><polygon fill="#181818" points="942.88,301.0594,934.6747,295.612,937.9503,300.224,933.3382,303.4996,942.88,301.0594" style="stroke:#181818;stroke-width:1.0;"/><text fill="#000000" font-family="sans-serif" font-size="13" lengthAdjust="spacing" textLength="49" x="666" y="262.1045">participa</text></g><!--link sufragante1 to voto1--><g id="link_sufragante1_voto1"><path codeLine="44" d="M592.92,92.6694 C563.42,114.7894 523.49,144.7394 493.97,166.8794 " fill="none" id="sufragante1-to-voto1" style="stroke:#181818;stroke-width:1.0;"/><polygon fill="#181818" points="489.17,170.4794,498.77,168.2794,493.17,167.4794,493.97,161.8794,489.17,170.4794" style="stroke:#181818;stroke-width:1.0;"/><text fill="#000000" font-family="sans-serif" font-size="13" lengthAdjust="spacing" textLength="32" x="552" y="137.1045">emite</text></g><!--link sufragante2 to voto2--><g id="link_sufragante2_voto2"><path codeLine="45" d="M835.05,92.6694 C830.21,114.7194 824.1559,142.2688 819.2959,164.4188 " fill="none" id="sufragante2-to-voto2" style="stroke:#181818;stroke-width:1.0;"/><polygon fill="#181818" points="818.01,170.2794,823.8459,162.3458,819.0816,165.3956,816.0318,160.6312,818.01,170.2794" style="stroke:#181818;stroke-width:1.0;"/><text fill="#000000" font-family="sans-serif" font-size="13" lengthAdjust="spacing" textLength="32" x="830" y="137.1045">emite</text></g><!--link sufragante3 to voto3--><g id="link_sufragante3_voto3"><path codeLine="46" d="M1261.72,92.6694 C1240.92,114.7194 1213.5367,143.7644 1192.6467,165.9144 " fill="none" id="sufragante3-to-voto3" style="stroke:#181818;stroke-width:1.0;"/><polygon fill="#181818" points="1188.53,170.2794,1197.615,166.4764,1191.9606,166.6419,1191.795,160.9875,1188.53,170.2794" style="stroke:#181818;stroke-width:1.0;"/><text fill="#000000" font-family="sans-serif" font-size="13" lengthAdjust="spacing" textLength="32" x="1232" y="137.1045">emite</text></g><!--link sufragante4 to voto4--><g id="link_sufragante4_voto4"><path codeLine="47" d="M1592.04,92.6694 C1576.44,114.7194 1556.2852,143.2312 1540.6152,165.3812 " fill="none" id="sufragante4-to-voto4" style="stroke:#181818;stroke-width:1.0;"/><polygon fill="#181818" points="1537.15,170.2794,1545.6133,165.2422,1540.0377,166.1976,1539.0824,160.6219,1537.15,170.2794" style="stroke:#181818;stroke-width:1.0;"/><text fill="#000000" font-family="sans-serif" font-size="13" lengthAdjust="spacing" textLength="32" x="1570" y="137.1045">emite</text></g><!--link sufragante5 to voto5--><g id="link_sufragante5_voto5"><path codeLine="48" d="M1946.04,92.6694 C1930.44,114.7194 1910.2852,143.2312 1894.6152,165.3812 " fill="none" id="sufragante5-to-voto5" style="stroke:#181818;stroke-width:1.0;"/><polygon fill="#181818" points="1891.15,170.2794,1899.6133,165.2422,1894.0377,166.1976,1893.0824,160.6219,1891.15,170.2794" style="stroke:#181818;stroke-width:1.0;"/><text fill="#000000" font-family="sans-serif" font-size="13" lengthAdjust="spacing" textLength="32" x="1924" y="137.1045">emite</text></g><!--link voto1 to candidato1--><g id="link_voto1_candidato1"><path codeLine="49" d="M355.23,214.5894 C317.73,222.9694 275.44,234.0094 238,247.6094 C221.19,253.7194 218.16,257.9494 202,265.6094 C180.68,275.7194 162.4321,284.0208 141.9521,293.1308 " fill="none" id="voto1-to-candidato1" style="stroke:#181818;stroke-width:1.0;"/><polygon fill="#181818" points="136.47,295.5694,146.3189,295.5663,141.0384,293.5372,143.0674,288.2568,136.47,295.5694" style="stroke:#181818;stroke-width:1.0;"/><text fill="#000000" font-family="sans-serif" font-size="13" lengthAdjust="spacing" textLength="41" x="239" y="262.1045">elegido</text></g><!--link voto2 to candidato3--><g id="link_voto2_candidato3"><path codeLine="50" d="M709.4,213.4894 C700.15,214.9494 690.91,216.3494 682,217.6094 C562.45,234.4994 521.95,197.7194 412,247.6094 C388.4,258.3194 371.0861,274.5396 356.9161,290.7696 " fill="none" id="voto2-to-candidato3" style="stroke:#181818;stroke-width:1.0;"/><polygon fill="#181818" points="352.97,295.2894,361.9023,291.1405,356.2584,291.5229,355.876,285.879,352.97,295.2894" style="stroke:#181818;stroke-width:1.0;"/><text fill="#000000" font-family="sans-serif" font-size="13" lengthAdjust="spacing" textLength="41" x="413" y="262.1045">elegido</text></g><!--link voto3 to candidato2--><g id="link_voto3_candidato2"><path codeLine="51" d="M1063.46,213.9094 C1054.19,215.2894 1044.94,216.5494 1036,217.6094 C986.24,223.5294 625.36,216.5894 586,247.6094 C571.7,258.8794 567.1716,273.3771 565.3716,289.3571 " fill="none" id="voto3-to-candidato2" style="stroke:#181818;stroke-width:1.0;"/><polygon fill="#181818" points="564.7,295.3194,569.6823,286.8237,565.2597,290.3508,561.7325,285.9282,564.7,295.3194" style="stroke:#181818;stroke-width:1.0;"/><text fill="#000000" font-family="sans-serif" font-size="13" lengthAdjust="spacing" textLength="41" x="587" y="262.1045">elegido</text></g><!--link voto4 to candidato4--><g id="link_voto4_candidato4"><path codeLine="52" d="M1456.9,217.6694 C1408.82,233.6594 1341.07,254.2094 1280,265.6094 C1124.78,294.5894 1082.52,274.8194 926,295.6094 C914.83,297.0894 909.0589,297.9063 897.4989,299.8263 " fill="none" id="voto4-to-candidato4" style="stroke:#181818;stroke-width:1.0;"/><polygon fill="#181818" points="891.58,300.8094,901.1138,303.2807,896.5124,299.9901,899.803,295.3888,891.58,300.8094" style="stroke:#181818;stroke-width:1.0;"/><text fill="#000000" font-family="sans-serif" font-size="13" lengthAdjust="spacing" textLength="41" x="1354" y="262.1045">elegido</text></g><!--link voto5 to candidato5--><g id="link_voto5_candidato5"><path codeLine="53" d="M1771.4,213.4794 C1762.15,214.9494 1752.91,216.3494 1744,217.6094 C1624.89,234.4694 1593.36,226.1094 1475,247.6094 C1442.97,253.4294 1436.01,259.6694 1404,265.6094 C1293.54,286.1194 1264.03,278.4094 1153,295.6094 C1144.55,296.9194 1141.6896,297.3517 1132.9196,298.8917 " fill="none" id="voto5-to-candidato5" style="stroke:#181818;stroke-width:1.0;"/><polygon fill="#181818" points="1127.01,299.9294,1136.5662,302.3125,1131.9347,299.0646,1135.1826,294.4331,1127.01,299.9294" style="stroke:#181818;stroke-width:1.0;"/><text fill="#000000" font-family="sans-serif" font-size="13" lengthAdjust="spacing" textLength="41" x="1476" y="262.1045">elegido</text></g><!--link sufragante1 to mesaElectoral1--><g id="link_sufragante1_mesaElectoral1"><path codeLine="54" d="M620.1,92.6894 C617.3,125.1494 617.56,184.6994 651,217.6094 C706.62,272.3494 749,226.0394 824,247.6094 C844.31,253.4494 847.52,260.4194 868,265.6094 C988.04,296.0194 1022.76,275.8194 1145,295.6094 C1153.21,296.9394 1155.8526,297.3327 1164.3526,299.0027 " fill="none" id="sufragante1-to-mesaElectoral1" style="stroke:#181818;stroke-width:1.0;"/><polygon fill="#181818" points="1170.24,300.1594,1162.18,294.4993,1165.3338,299.1954,1160.6377,302.3493,1170.24,300.1594" style="stroke:#181818;stroke-width:1.0;"/><text fill="#000000" font-family="sans-serif" font-size="13" lengthAdjust="spacing" textLength="39" x="652" y="199.6045">votaEn</text></g><!--link sufragante2 to mesaElectoral1--><g id="link_sufragante2_mesaElectoral1"><path codeLine="55" d="M860.48,92.7294 C889.92,124.1594 947.06,181.2794 1005,217.6094 C1058.95,251.4394 1120.5789,276.2002 1170.8289,293.5602 " fill="none" id="sufragante2-to-mesaElectoral1" style="stroke:#181818;stroke-width:1.0;"/><polygon fill="#181818" points="1176.5,295.5194,1169.2995,288.7998,1171.7741,293.8867,1166.6872,296.3613,1176.5,295.5194" style="stroke:#181818;stroke-width:1.0;"/><text fill="#000000" font-family="sans-serif" font-size="13" lengthAdjust="spacing" textLength="39" x="1006" y="199.6045">votaEn</text></g><!--link sufragante3 to mesaElectoral1--><g id="link_sufragante3_mesaElectoral1"><path codeLine="56" d="M1287.3,92.6594 C1293.4,129.9594 1301.61,206.2794 1280,265.6094 C1276.23,275.9494 1273.591,281.472 1268.001,290.412 " fill="none" id="sufragante3-to-mesaElectoral1" style="stroke:#181818;stroke-width:1.0;"/><polygon fill="#181818" points="1264.82,295.4994,1272.9831,289.989,1267.4708,291.2599,1266.2,285.7477,1264.82,295.4994" style="stroke:#181818;stroke-width:1.0;"/><text fill="#000000" font-family="sans-serif" font-size="13" lengthAdjust="spacing" textLength="39" x="1295" y="199.6045">votaEn</text></g><!--link sufragante4 to mesaElectoral1--><g id="link_sufragante4_mesaElectoral1"><path codeLine="57" d="M1618.02,92.7094 C1626.32,112.7294 1637.45,142.9794 1642,170.6094 C1649.47,215.9894 1641.22,243.3194 1601,265.6094 C1555.33,290.9094 1422.5409,305.2112 1333.4909,312.3312 " fill="none" id="sufragante4-to-mesaElectoral1" style="stroke:#181818;stroke-width:1.0;"/><polygon fill="#181818" points="1327.51,312.8094,1336.8002,316.0793,1332.4941,312.4109,1336.1626,308.1048,1327.51,312.8094" style="stroke:#181818;stroke-width:1.0;"/><text fill="#000000" font-family="sans-serif" font-size="13" lengthAdjust="spacing" textLength="39" x="1645" y="199.6045">votaEn</text></g><!--link sufragante5 to mesaElectoral1--><g id="link_sufragante5_mesaElectoral1"><path codeLine="58" d="M1977.48,92.6494 C1996.71,123.7294 2023.81,180.1594 1996,217.6094 C1951.99,276.8694 1909.47,251.5894 1837,265.6094 C1656.88,300.4594 1447.1664,312.0312 1333.6964,315.9712 " fill="none" id="sufragante5-to-mesaElectoral1" style="stroke:#181818;stroke-width:1.0;"/><polygon fill="#181818" points="1327.7,316.1794,1336.8334,319.8646,1332.697,316.0059,1336.5558,311.8695,1327.7,316.1794" style="stroke:#181818;stroke-width:1.0;"/><text fill="#000000" font-family="sans-serif" font-size="13" lengthAdjust="spacing" textLength="39" x="2008" y="199.6045">votaEn</text></g><!--link voto1 to mesaElectoral1--><g id="link_voto1_mesaElectoral1"><path codeLine="59" d="M562.62,212.7094 C623.59,223.6394 694.38,237.4794 724,247.6094 C740.93,253.3994 742.76,260.8294 760,265.6094 C925.38,311.5094 975.18,270.7394 1145,295.6094 C1153.23,296.8094 1155.8761,297.1661 1164.3761,298.7861 " fill="none" id="voto1-to-mesaElectoral1" style="stroke:#181818;stroke-width:1.0;"/><polygon fill="#181818" points="1170.27,299.9094,1162.178,294.2951,1165.3584,298.9733,1160.6803,302.1537,1170.27,299.9094" style="stroke:#181818;stroke-width:1.0;"/><text fill="#000000" font-family="sans-serif" font-size="13" lengthAdjust="spacing" textLength="58" x="761" y="262.1045">emitidoEn</text></g><!--link voto2 to mesaElectoral1--><g id="link_voto2_mesaElectoral1"><path codeLine="60" d="M834.22,217.8394 C850.77,234.0094 875.2,254.7394 901,265.6094 C1001.68,308.0494 1037.27,277.3694 1145,295.6094 C1153.29,297.0094 1156.0255,297.4579 1164.6155,299.1679 " fill="none" id="voto2-to-mesaElectoral1" style="stroke:#181818;stroke-width:1.0;"/><polygon fill="#181818" points="1170.5,300.3394,1162.4541,294.6592,1165.5962,299.3632,1160.8922,302.5053,1170.5,300.3394" style="stroke:#181818;stroke-width:1.0;"/><text fill="#000000" font-family="sans-serif" font-size="13" lengthAdjust="spacing" textLength="58" x="902" y="262.1045">emitidoEn</text></g><!--link voto3 to mesaElectoral1--><g id="link_voto3_mesaElectoral1"><path codeLine="61" d="M1182.04,217.6694 C1196.74,239.7194 1215.6813,268.1374 1230.4513,290.2874 " fill="none" id="voto3-to-mesaElectoral1" style="stroke:#181818;stroke-width:1.0;"/><polygon fill="#181818" points="1233.78,295.2794,1232.1149,285.5723,1231.0061,291.1194,1225.4589,290.0106,1233.78,295.2794" style="stroke:#181818;stroke-width:1.0;"/><text fill="#000000" font-family="sans-serif" font-size="13" lengthAdjust="spacing" textLength="58" x="1213" y="262.1045">emitidoEn</text></g><!--link voto4 to mesaElectoral1--><g id="link_voto4_mesaElectoral1"><path codeLine="62" d="M1530.09,217.9294 C1534.5,233.0994 1536.8,252.5694 1526,265.6094 C1501.22,295.5294 1406.6326,308.0727 1333.8026,313.6327 " fill="none" id="voto4-to-mesaElectoral1" style="stroke:#181818;stroke-width:1.0;"/><polygon fill="#181818" points="1327.82,314.0894,1337.0984,317.3927,1332.8055,313.7088,1336.4894,309.4159,1327.82,314.0894" style="stroke:#181818;stroke-width:1.0;"/><text fill="#000000" font-family="sans-serif" font-size="13" lengthAdjust="spacing" textLength="58" x="1534" y="262.1045">emitidoEn</text></g><!--link voto5 to mesaElectoral1--><g id="link_voto5_mesaElectoral1"><path codeLine="63" d="M1835.16,217.6394 C1804.83,233.7094 1761.52,254.3894 1721,265.6094 C1586.11,302.9494 1428.5768,313.6528 1333.6968,316.7628 " fill="none" id="voto5-to-mesaElectoral1" style="stroke:#181818;stroke-width:1.0;"/><polygon fill="#181818" points="1327.7,316.9594,1336.8262,320.6624,1332.6973,316.7956,1336.5641,312.6667,1327.7,316.9594" style="stroke:#181818;stroke-width:1.0;"/><text fill="#000000" font-family="sans-serif" font-size="13" lengthAdjust="spacing" textLength="58" x="1770" y="262.1045">emitidoEn</text></g><!--SRC=[ZP9DRjim48NtEiN0-m0nVpP16o1e3GD5YWRf2SOIupAGI8EYikXjiimYgnn15oifMmgPSICj-TudQlZcUUrh1TyrxXqs29M2Nxj7vMrx1Pj7rHng6xNE86ngLPRQcgAmWIWzg9Em7eKIJQKhz9OgZ2YSA88eSbJQxi7X7erNQoenAd4g2IfDrp_PPEPuOEc1fmUH7gOB6jLYpCTRX_MwAAPeu0gCRNPEmLTOZGcg5ZQjxoeTXj1rEB5BnbV5UtpPLpywD73NlpZrDs5Onln4rxyYtFPlXupY6NMdAcTXsxyr6IGow2Qi-jvMuRvzbs4omxwXgsqBuSU-VpKHJ7P4BXm7IvRsoMJ97i-zydV_RCe_EHZVS4ngYwuCL6h6oLUts3bCvnsM7fpfWM4zUrtPyAUao4CRPYW-K7o6OWCbPYWnK7A6aaNUk81tErrYR5TCQgiRWwssgxIANoukhY4hsI6aeKjzmFzIR1755r5Y4IKpAYrLnCQbgKPxbTLfTDaPbqykF-EAoHLdN3cvSdAFKv0urN5HfywGX5AR0uavjGMGv59R0ebij3y6HdeIliUD8T7DStmX9nPoybFkFM92n1s4fvuWjWJYIo2n199pq3y0]--></g></svg>