<svg xmlns="http://www.w3.org/2000/svg" xmlns:xlink="http://www.w3.org/1999/xlink" contentStyleType="text/css" height="722px" preserveAspectRatio="none" style="width:525px;height:722px;background:#FFFFFF;" version="1.1" viewBox="0 0 525 722" width="525px" zoomAndPan="magnify"><defs/><g><!--class LuzSolar--><g id="elem_LuzSolar"><rect codeLine="1" fill="#F1F1F1" height="96.8906" id="LuzSolar" rx="2.5" ry="2.5" style="stroke:#181818;stroke-width:0.5;" width="172.2549" x="7" y="147.6"/><ellipse cx="59.0283" cy="163.6" fill="#ADD1B2" rx="11" ry="11" style="stroke:#181818;stroke-width:1.0;"/><path d="M61.9971,169.2406 Q61.4189,169.5375 60.7783,169.6781 Q60.1377,169.8344 59.4346,169.8344 Q56.9346,169.8344 55.6064,168.1938 Q54.2939,166.5375 54.2939,163.4125 Q54.2939,160.2875 55.6064,158.6313 Q56.9346,156.975 59.4346,156.975 Q60.1377,156.975 60.7783,157.1313 Q61.4346,157.2875 61.9971,157.5844 L61.9971,160.3031 Q61.3721,159.725 60.7783,159.4594 Q60.1846,159.1781 59.5596,159.1781 Q58.2158,159.1781 57.5283,160.2563 Q56.8408,161.3188 56.8408,163.4125 Q56.8408,165.5063 57.5283,166.5844 Q58.2158,167.6469 59.5596,167.6469 Q60.1846,167.6469 60.7783,167.3813 Q61.3721,167.1 61.9971,166.5219 L61.9971,169.2406 Z " fill="#000000"/><text fill="#000000" font-family="sans-serif" font-size="14" lengthAdjust="spacing" textLength="59.6982" x="79.5283" y="168.4467">LuzSolar</text><line style="stroke:#181818;stroke-width:0.5;" x1="8" x2="178.2549" y1="179.6" y2="179.6"/><rect fill="none" height="6" style="stroke:#C82930;stroke-width:1.0;" width="6" x="15" y="190.2484"/><text fill="#000000" font-family="sans-serif" font-size="14" lengthAdjust="spacing" textLength="113.8936" x="27" y="196.5951">intensidad: float</text><rect fill="none" height="6" style="stroke:#C82930;stroke-width:1.0;" width="6" x="15" y="206.5453"/><text fill="#000000" font-family="sans-serif" font-size="14" lengthAdjust="spacing" textLength="146.2549" x="27" y="212.892">longitudOnda: float[]</text><line style="stroke:#181818;stroke-width:0.5;" x1="8" x2="178.2549" y1="220.1938" y2="220.1938"/><ellipse cx="18" cy="233.8422" fill="#84BE84" rx="3" ry="3" style="stroke:#038048;stroke-width:1.0;"/><text fill="#000000" font-family="sans-serif" font-size="14" lengthAdjust="spacing" textLength="76.2207" x="27" y="237.1889">emitirLuz()</text></g><!--class GotaAgua--><g id="elem_GotaAgua"><rect codeLine="7" fill="#F1F1F1" height="129.4844" id="GotaAgua" rx="2.5" ry="2.5" style="stroke:#181818;stroke-width:0.5;" width="271.4648" x="93.4" y="304.49"/><ellipse cx="190.1832" cy="320.49" fill="#ADD1B2" rx="11" ry="11" style="stroke:#181818;stroke-width:1.0;"/><path d="M193.152,326.1306 Q192.5738,326.4275 191.9332,326.5681 Q191.2926,326.7244 190.5895,326.7244 Q188.0895,326.7244 186.7613,325.0837 Q185.4488,323.4275 185.4488,320.3025 Q185.4488,317.1775 186.7613,315.5212 Q188.0895,313.865 190.5895,313.865 Q191.2926,313.865 191.9332,314.0212 Q192.5895,314.1775 193.152,314.4744 L193.152,317.1931 Q192.527,316.615 191.9332,316.3494 Q191.3395,316.0681 190.7145,316.0681 Q189.3707,316.0681 188.6832,317.1462 Q187.9957,318.2087 187.9957,320.3025 Q187.9957,322.3962 188.6832,323.4744 Q189.3707,324.5369 190.7145,324.5369 Q191.3395,324.5369 191.9332,324.2712 Q192.527,323.99 193.152,323.4119 L193.152,326.1306 Z " fill="#000000"/><text fill="#000000" font-family="sans-serif" font-size="14" lengthAdjust="spacing" textLength="69.3984" x="210.6832" y="325.3367">GotaAgua</text><line style="stroke:#181818;stroke-width:0.5;" x1="94.4" x2="363.8648" y1="336.49" y2="336.49"/><rect fill="none" height="6" style="stroke:#C82930;stroke-width:1.0;" width="6" x="101.4" y="347.1384"/><text fill="#000000" font-family="sans-serif" font-size="14" lengthAdjust="spacing" textLength="76.2959" x="113.4" y="353.4851">radio: float</text><rect fill="none" height="6" style="stroke:#C82930;stroke-width:1.0;" width="6" x="101.4" y="363.4353"/><text fill="#000000" font-family="sans-serif" font-size="14" lengthAdjust="spacing" textLength="156.7959" x="113.4" y="369.782">&#237;ndiceRefracci&#243;n: float</text><line style="stroke:#181818;stroke-width:0.5;" x1="94.4" x2="363.8648" y1="377.0837" y2="377.0837"/><ellipse cx="104.4" cy="390.7322" fill="#84BE84" rx="3" ry="3" style="stroke:#038048;stroke-width:1.0;"/><text fill="#000000" font-family="sans-serif" font-size="14" lengthAdjust="spacing" textLength="161.0547" x="113.4" y="394.0789">refractar(luz: LuzSolar)</text><ellipse cx="104.4" cy="407.0291" fill="#84BE84" rx="3" ry="3" style="stroke:#038048;stroke-width:1.0;"/><text fill="#000000" font-family="sans-serif" font-size="14" lengthAdjust="spacing" textLength="245.4648" x="113.4" y="410.3757">reflejarInternamente(luz: LuzSolar)</text><ellipse cx="104.4" cy="423.3259" fill="#84BE84" rx="3" ry="3" style="stroke:#038048;stroke-width:1.0;"/><text fill="#000000" font-family="sans-serif" font-size="14" lengthAdjust="spacing" textLength="164.8555" x="113.4" y="426.6726">dispersar(luz: LuzSolar)</text></g><!--class Nube--><g id="elem_Nube"><rect codeLine="15" fill="#F1F1F1" height="80.5938" id="Nube" rx="2.5" ry="2.5" style="stroke:#181818;stroke-width:0.5;" width="226.04" x="253.11" y="7"/><ellipse cx="343.4572" cy="23" fill="#ADD1B2" rx="11" ry="11" style="stroke:#181818;stroke-width:1.0;"/><path d="M346.4259,28.6406 Q345.8478,28.9375 345.2072,29.0781 Q344.5665,29.2344 343.8634,29.2344 Q341.3634,29.2344 340.0353,27.5938 Q338.7228,25.9375 338.7228,22.8125 Q338.7228,19.6875 340.0353,18.0313 Q341.3634,16.375 343.8634,16.375 Q344.5665,16.375 345.2072,16.5313 Q345.8634,16.6875 346.4259,16.9844 L346.4259,19.7031 Q345.8009,19.125 345.2072,18.8594 Q344.6134,18.5781 343.9884,18.5781 Q342.6447,18.5781 341.9572,19.6563 Q341.2697,20.7188 341.2697,22.8125 Q341.2697,24.9063 341.9572,25.9844 Q342.6447,27.0469 343.9884,27.0469 Q344.6134,27.0469 345.2072,26.7813 Q345.8009,26.5 346.4259,25.9219 L346.4259,28.6406 Z " fill="#000000"/><text fill="#000000" font-family="sans-serif" font-size="14" lengthAdjust="spacing" textLength="36.8457" x="363.9572" y="27.8467">Nube</text><line style="stroke:#181818;stroke-width:0.5;" x1="254.11" x2="478.15" y1="39" y2="39"/><rect fill="none" height="6" style="stroke:#C82930;stroke-width:1.0;" width="6" x="261.11" y="49.6484"/><text fill="#000000" font-family="sans-serif" font-size="14" lengthAdjust="spacing" textLength="137.416" x="273.11" y="55.9951">cantidadAgua: float</text><line style="stroke:#181818;stroke-width:0.5;" x1="254.11" x2="478.15" y1="63.2969" y2="63.2969"/><ellipse cx="264.11" cy="76.9453" fill="#84BE84" rx="3" ry="3" style="stroke:#038048;stroke-width:1.0;"/><text fill="#000000" font-family="sans-serif" font-size="14" lengthAdjust="spacing" textLength="200.04" x="273.11" y="80.292">producirLluvia(): GotaAgua[]</text></g><!--class Lluvia--><g id="elem_Lluvia"><rect codeLine="20" fill="#F1F1F1" height="80.5938" id="Lluvia" rx="2.5" ry="2.5" style="stroke:#181818;stroke-width:0.5;" width="304.0654" x="214.09" y="155.75"/><ellipse cx="341.2145" cy="171.75" fill="#ADD1B2" rx="11" ry="11" style="stroke:#181818;stroke-width:1.0;"/><path d="M344.1833,177.3906 Q343.6051,177.6875 342.9645,177.8281 Q342.3239,177.9844 341.6208,177.9844 Q339.1208,177.9844 337.7926,176.3438 Q336.4801,174.6875 336.4801,171.5625 Q336.4801,168.4375 337.7926,166.7813 Q339.1208,165.125 341.6208,165.125 Q342.3239,165.125 342.9645,165.2813 Q343.6208,165.4375 344.1833,165.7344 L344.1833,168.4531 Q343.5583,167.875 342.9645,167.6094 Q342.3708,167.3281 341.7458,167.3281 Q340.402,167.3281 339.7145,168.4063 Q339.027,169.4688 339.027,171.5625 Q339.027,173.6563 339.7145,174.7344 Q340.402,175.7969 341.7458,175.7969 Q342.3708,175.7969 342.9645,175.5313 Q343.5583,175.25 344.1833,174.6719 L344.1833,177.3906 Z " fill="#000000"/><text fill="#000000" font-family="sans-serif" font-size="14" lengthAdjust="spacing" textLength="41.3164" x="361.7145" y="176.5967">Lluvia</text><line style="stroke:#181818;stroke-width:0.5;" x1="215.09" x2="517.1554" y1="187.75" y2="187.75"/><ellipse cx="225.09" cy="201.3984" fill="none" rx="3" ry="3" style="stroke:#038048;stroke-width:1.0;"/><text fill="#000000" font-family="sans-serif" font-size="14" lengthAdjust="spacing" textLength="128.3037" x="234.09" y="204.7451">gotas: GotaAgua[]</text><line style="stroke:#181818;stroke-width:0.5;" x1="215.09" x2="517.1554" y1="212.0469" y2="212.0469"/><ellipse cx="225.09" cy="225.6953" fill="#84BE84" rx="3" ry="3" style="stroke:#038048;stroke-width:1.0;"/><text fill="#000000" font-family="sans-serif" font-size="14" lengthAdjust="spacing" textLength="278.0654" x="234.09" y="229.042">generarLluvia(nube: Nube): GotaAgua[]</text></g><!--class ArcoIris--><g id="elem_ArcoIris"><rect codeLine="25" fill="#F1F1F1" height="80.5938" id="ArcoIris" rx="2.5" ry="2.5" style="stroke:#181818;stroke-width:0.5;" width="362.752" x="47.75" y="493.97"/><ellipse cx="198.5439" cy="509.97" fill="#ADD1B2" rx="11" ry="11" style="stroke:#181818;stroke-width:1.0;"/><path d="M201.5127,515.6106 Q200.9346,515.9075 200.2939,516.0481 Q199.6533,516.2044 198.9502,516.2044 Q196.4502,516.2044 195.1221,514.5638 Q193.8096,512.9075 193.8096,509.7825 Q193.8096,506.6575 195.1221,505.0013 Q196.4502,503.345 198.9502,503.345 Q199.6533,503.345 200.2939,503.5013 Q200.9502,503.6575 201.5127,503.9544 L201.5127,506.6731 Q200.8877,506.095 200.2939,505.8294 Q199.7002,505.5481 199.0752,505.5481 Q197.7314,505.5481 197.0439,506.6263 Q196.3564,507.6888 196.3564,509.7825 Q196.3564,511.8763 197.0439,512.9544 Q197.7314,514.0169 199.0752,514.0169 Q199.7002,514.0169 200.2939,513.7513 Q200.8877,513.47 201.5127,512.8919 L201.5127,515.6106 Z " fill="#000000"/><text fill="#000000" font-family="sans-serif" font-size="14" lengthAdjust="spacing" textLength="52.6641" x="219.0439" y="514.8167">ArcoIris</text><line style="stroke:#181818;stroke-width:0.5;" x1="48.75" x2="409.502" y1="525.97" y2="525.97"/><rect fill="none" height="6" style="stroke:#C82930;stroke-width:1.0;" width="6" x="55.75" y="536.6184"/><text fill="#000000" font-family="sans-serif" font-size="14" lengthAdjust="spacing" textLength="112.2529" x="67.75" y="542.9651">colores: String[]</text><line style="stroke:#181818;stroke-width:0.5;" x1="48.75" x2="409.502" y1="550.2669" y2="550.2669"/><ellipse cx="58.75" cy="563.9153" fill="#84BE84" rx="3" ry="3" style="stroke:#038048;stroke-width:1.0;"/><text fill="#000000" font-family="sans-serif" font-size="14" lengthAdjust="spacing" textLength="336.752" x="67.75" y="567.262">formarArcoiris(luz: LuzSolar, gotas: GotaAgua[])</text></g><!--class Observador--><g id="elem_Observador"><rect codeLine="30" fill="#F1F1F1" height="80.5938" id="Observador" rx="2.5" ry="2.5" style="stroke:#181818;stroke-width:0.5;" width="225.5" x="116.38" y="634.57"/><ellipse cx="184.0592" cy="650.57" fill="#ADD1B2" rx="11" ry="11" style="stroke:#181818;stroke-width:1.0;"/><path d="M187.0279,656.2106 Q186.4498,656.5075 185.8092,656.6481 Q185.1686,656.8044 184.4654,656.8044 Q181.9654,656.8044 180.6373,655.1637 Q179.3248,653.5075 179.3248,650.3825 Q179.3248,647.2575 180.6373,645.6012 Q181.9654,643.945 184.4654,643.945 Q185.1686,643.945 185.8092,644.1012 Q186.4654,644.2575 187.0279,644.5544 L187.0279,647.2731 Q186.4029,646.695 185.8092,646.4294 Q185.2154,646.1481 184.5904,646.1481 Q183.2467,646.1481 182.5592,647.2262 Q181.8717,648.2887 181.8717,650.3825 Q181.8717,652.4762 182.5592,653.5544 Q183.2467,654.6169 184.5904,654.6169 Q185.2154,654.6169 185.8092,654.3512 Q186.4029,654.07 187.0279,653.4919 L187.0279,656.2106 Z " fill="#000000"/><text fill="#000000" font-family="sans-serif" font-size="14" lengthAdjust="spacing" textLength="81.6416" x="204.5592" y="655.4167">Observador</text><line style="stroke:#181818;stroke-width:0.5;" x1="117.38" x2="340.88" y1="666.57" y2="666.57"/><rect fill="none" height="6" style="stroke:#C82930;stroke-width:1.0;" width="6" x="124.38" y="677.2184"/><text fill="#000000" font-family="sans-serif" font-size="14" lengthAdjust="spacing" textLength="151.9082" x="136.38" y="683.5651">posici&#243;n: Coordenada</text><line style="stroke:#181818;stroke-width:0.5;" x1="117.38" x2="340.88" y1="690.8669" y2="690.8669"/><ellipse cx="127.38" cy="704.5153" fill="#84BE84" rx="3" ry="3" style="stroke:#038048;stroke-width:1.0;"/><text fill="#000000" font-family="sans-serif" font-size="14" lengthAdjust="spacing" textLength="199.5" x="136.38" y="707.862">verArcoIris(arcoiris: ArcoIris)</text></g><!--link LuzSolar to GotaAgua--><g id="link_LuzSolar_GotaAgua"><path codeLine="36" d="M131.01,244.73 C145.63,263.13 162.58,284.46 178.23,304.16 " fill="none" id="LuzSolar-GotaAgua" style="stroke:#181818;stroke-width:1.0;"/></g><!--reverse link GotaAgua to ArcoIris--><g id="link_GotaAgua_ArcoIris"><path codeLine="37" d="M229.13,446.2 C229.13,466.36 229.13,476.03 229.13,493.94 " fill="none" id="GotaAgua-backto-ArcoIris" style="stroke:#181818;stroke-width:1.0;"/><polygon fill="#181818" points="229.13,434.2,225.13,440.2,229.13,446.2,233.13,440.2,229.13,434.2" style="stroke:#181818;stroke-width:1.0;"/></g><!--reverse link ArcoIris to Observador--><g id="link_ArcoIris_Observador"><path codeLine="38" d="M229.13,586.98 C229.13,605.54 229.13,615.58 229.13,634.14 " fill="none" id="ArcoIris-backto-Observador" style="stroke:#181818;stroke-width:1.0;"/><polygon fill="none" points="229.13,574.98,225.13,580.98,229.13,586.98,233.13,580.98,229.13,574.98" style="stroke:#181818;stroke-width:1.0;"/></g><!--link Nube to Lluvia--><g id="link_Nube_Lluvia"><path codeLine="39" d="M366.13,88.01 C366.13,108.89 366.13,134.42 366.13,155.3 " fill="none" id="Nube-Lluvia" style="stroke:#181818;stroke-width:1.0;"/></g><!--link Lluvia to GotaAgua--><g id="link_Lluvia_GotaAgua"><path codeLine="40" d="M334.35,236.75 C318.31,256.8 298.44,281.62 280.31,304.27 " fill="none" id="Lluvia-GotaAgua" style="stroke:#181818;stroke-width:1.0;"/></g><!--SRC=[TPAnRW8n343tV4N6evGVk0rrg92g8i5OTJ29ERaACN8I1gf-KgT-0Z_MS8GS9zfRJhAjvsV7na48-YKTr-n0zAVI-PjfyX5z80ksrLl744lSiUye9hlq5ahcxRtFJJNkA99aL3DHNqgPdlpC4UPTWaeMiCHZwEdRMpAumgs0CNJwyRVvgPO-4K4QbuvjbPqCQOSV88liB1vscFz_LreAUvHm3wgwhsc3LTM0Z-SLdFt7HdjXcqmUrgK3GJDfwvnv6nLsoHRSL7Uv98mgInmz2bnPFXkqlSS_rBaONWY5GPCT2sRoEWhvhdAtB3kGSpdbyl78Z_SsDrjORWBA0ImF1x7dGELfdfZ5eWSBfT41vIhLG6dNLi-Ug-g5pMQrfwh7yP2ZrtfL1-GS7LHK_pOvT5cKAjkzuVq2]--></g></svg>
