<svg xmlns="http://www.w3.org/2000/svg" xmlns:xlink="http://www.w3.org/1999/xlink" contentStyleType="text/css" height="692px" preserveAspectRatio="none" style="width:376px;height:692px;background:#FFFFFF;" version="1.1" viewBox="0 0 376 692" width="376px" zoomAndPan="magnify"><defs/><g><!--class Conflicto--><g id="elem_Conflicto"><rect codeLine="1" fill="#F1F1F1" height="64.2969" id="Conflicto" rx="2.5" ry="2.5" style="stroke:#181818;stroke-width:0.5;" width="143.7627" x="116.13" y="7"/><ellipse cx="153.67" cy="23" fill="#ADD1B2" rx="11" ry="11" style="stroke:#181818;stroke-width:1.0;"/><path d="M156.6387,28.6406 Q156.0606,28.9375 155.42,29.0781 Q154.7794,29.2344 154.0762,29.2344 Q151.5762,29.2344 150.2481,27.5938 Q148.9356,25.9375 148.9356,22.8125 Q148.9356,19.6875 150.2481,18.0313 Q151.5762,16.375 154.0762,16.375 Q154.7794,16.375 155.42,16.5313 Q156.0762,16.6875 156.6387,16.9844 L156.6387,19.7031 Q156.0137,19.125 155.42,18.8594 Q154.8262,18.5781 154.2012,18.5781 Q152.8575,18.5781 152.17,19.6563 Q151.4825,20.7188 151.4825,22.8125 Q151.4825,24.9063 152.17,25.9844 Q152.8575,27.0469 154.2012,27.0469 Q154.8262,27.0469 155.42,26.7813 Q156.0137,26.5 156.6387,25.9219 L156.6387,28.6406 Z " fill="#000000"/><text fill="#000000" font-family="sans-serif" font-size="14" lengthAdjust="spacing" textLength="61.6738" x="172.6789" y="27.8467">Conflicto</text><line style="stroke:#181818;stroke-width:0.5;" x1="117.13" x2="258.8927" y1="39" y2="39"/><ellipse cx="127.13" cy="52.6484" fill="none" rx="3" ry="3" style="stroke:#038048;stroke-width:1.0;"/><text fill="#000000" font-family="sans-serif" font-size="14" lengthAdjust="spacing" textLength="117.7627" x="136.13" y="55.9951">problema: String</text><line style="stroke:#181818;stroke-width:0.5;" x1="117.13" x2="258.8927" y1="63.2969" y2="63.2969"/></g><!--class LluviaDeIdeas--><g id="elem_LluviaDeIdeas"><rect codeLine="5" fill="#F1F1F1" height="80.5938" id="LluviaDeIdeas" rx="2.5" ry="2.5" style="stroke:#181818;stroke-width:0.5;" width="241.8994" x="67.06" y="148.3"/><ellipse cx="134.6538" cy="164.3" fill="#ADD1B2" rx="11" ry="11" style="stroke:#181818;stroke-width:1.0;"/><path d="M137.6225,169.9406 Q137.0444,170.2375 136.4038,170.3781 Q135.7631,170.5344 135.06,170.5344 Q132.56,170.5344 131.2319,168.8937 Q129.9194,167.2375 129.9194,164.1125 Q129.9194,160.9875 131.2319,159.3312 Q132.56,157.675 135.06,157.675 Q135.7631,157.675 136.4038,157.8312 Q137.06,157.9875 137.6225,158.2844 L137.6225,161.0031 Q136.9975,160.425 136.4038,160.1594 Q135.81,159.8781 135.185,159.8781 Q133.8413,159.8781 133.1538,160.9562 Q132.4663,162.0187 132.4663,164.1125 Q132.4663,166.2062 133.1538,167.2844 Q133.8413,168.3469 135.185,168.3469 Q135.81,168.3469 136.4038,168.0812 Q136.9975,167.8 137.6225,167.2219 L137.6225,169.9406 Z " fill="#000000"/><text fill="#000000" font-family="sans-serif" font-size="14" lengthAdjust="spacing" textLength="98.2119" x="155.1538" y="169.1467">LluviaDeIdeas</text><line style="stroke:#181818;stroke-width:0.5;" x1="68.06" x2="307.9594" y1="180.3" y2="180.3"/><ellipse cx="78.06" cy="193.9484" fill="none" rx="3" ry="3" style="stroke:#038048;stroke-width:1.0;"/><text fill="#000000" font-family="sans-serif" font-size="14" lengthAdjust="spacing" textLength="212.1875" x="87.06" y="197.2951">ideasGeneradas: List&lt;String&gt;</text><line style="stroke:#181818;stroke-width:0.5;" x1="68.06" x2="307.9594" y1="204.5969" y2="204.5969"/><ellipse cx="78.06" cy="218.2453" fill="#84BE84" rx="3" ry="3" style="stroke:#038048;stroke-width:1.0;"/><text fill="#000000" font-family="sans-serif" font-size="14" lengthAdjust="spacing" textLength="215.8994" x="87.06" y="221.592">agregarIdea(idea: String): void</text></g><!--class Analisis--><g id="elem_Analisis"><rect codeLine="10" fill="#F1F1F1" height="64.2969" id="Analisis" rx="2.5" ry="2.5" style="stroke:#181818;stroke-width:0.5;" width="362.0273" x="7" y="305.9"/><ellipse cx="157.1206" cy="321.9" fill="#ADD1B2" rx="11" ry="11" style="stroke:#181818;stroke-width:1.0;"/><path d="M160.0894,327.5406 Q159.5112,327.8375 158.8706,327.9781 Q158.23,328.1344 157.5269,328.1344 Q155.0269,328.1344 153.6987,326.4938 Q152.3862,324.8375 152.3862,321.7125 Q152.3862,318.5875 153.6987,316.9313 Q155.0269,315.275 157.5269,315.275 Q158.23,315.275 158.8706,315.4313 Q159.5269,315.5875 160.0894,315.8844 L160.0894,318.6031 Q159.4644,318.025 158.8706,317.7594 Q158.2769,317.4781 157.6519,317.4781 Q156.3081,317.4781 155.6206,318.5563 Q154.9331,319.6188 154.9331,321.7125 Q154.9331,323.8063 155.6206,324.8844 Q156.3081,325.9469 157.6519,325.9469 Q158.2769,325.9469 158.8706,325.6813 Q159.4644,325.4 160.0894,324.8219 L160.0894,327.5406 Z " fill="#000000"/><text fill="#000000" font-family="sans-serif" font-size="14" lengthAdjust="spacing" textLength="53.2861" x="177.6206" y="326.7467">Analisis</text><line style="stroke:#181818;stroke-width:0.5;" x1="8" x2="368.0273" y1="337.9" y2="337.9"/><line style="stroke:#181818;stroke-width:0.5;" x1="8" x2="368.0273" y1="345.9" y2="345.9"/><ellipse cx="18" cy="359.5484" fill="#84BE84" rx="3" ry="3" style="stroke:#038048;stroke-width:1.0;"/><text fill="#000000" font-family="sans-serif" font-size="14" lengthAdjust="spacing" textLength="336.0273" x="27" y="362.8951">evaluarIdeas(ideas: List&lt;String&gt;): List&lt;String&gt;</text></g><!--class DescarteDeIdeas--><g id="elem_DescarteDeIdeas"><rect codeLine="14" fill="#F1F1F1" height="80.5938" id="DescarteDeIdeas" rx="2.5" ry="2.5" style="stroke:#181818;stroke-width:0.5;" width="253.4932" x="61.27" y="447.19"/><ellipse cx="123.9077" cy="463.19" fill="#ADD1B2" rx="11" ry="11" style="stroke:#181818;stroke-width:1.0;"/><path d="M126.8764,468.8306 Q126.2983,469.1275 125.6577,469.2681 Q125.0171,469.4244 124.3139,469.4244 Q121.8139,469.4244 120.4858,467.7838 Q119.1733,466.1275 119.1733,463.0025 Q119.1733,459.8775 120.4858,458.2213 Q121.8139,456.565 124.3139,456.565 Q125.0171,456.565 125.6577,456.7213 Q126.3139,456.8775 126.8764,457.1744 L126.8764,459.8931 Q126.2514,459.315 125.6577,459.0494 Q125.0639,458.7681 124.4389,458.7681 Q123.0952,458.7681 122.4077,459.8463 Q121.7202,460.9088 121.7202,463.0025 Q121.7202,465.0963 122.4077,466.1744 Q123.0952,467.2369 124.4389,467.2369 Q125.0639,467.2369 125.6577,466.9713 Q126.2514,466.69 126.8764,466.1119 L126.8764,468.8306 Z " fill="#000000"/><text fill="#000000" font-family="sans-serif" font-size="14" lengthAdjust="spacing" textLength="119.7178" x="144.4077" y="468.0367">DescarteDeIdeas</text><line style="stroke:#181818;stroke-width:0.5;" x1="62.27" x2="313.7632" y1="479.19" y2="479.19"/><ellipse cx="72.27" cy="492.8384" fill="none" rx="3" ry="3" style="stroke:#038048;stroke-width:1.0;"/><text fill="#000000" font-family="sans-serif" font-size="14" lengthAdjust="spacing" textLength="223.6924" x="81.27" y="496.1851">ideasDescartadas: List&lt;String&gt;</text><line style="stroke:#181818;stroke-width:0.5;" x1="62.27" x2="313.7632" y1="503.4869" y2="503.4869"/><ellipse cx="72.27" cy="517.1353" fill="#84BE84" rx="3" ry="3" style="stroke:#038048;stroke-width:1.0;"/><text fill="#000000" font-family="sans-serif" font-size="14" lengthAdjust="spacing" textLength="227.4932" x="81.27" y="520.482">descartarIdea(idea: String): void</text></g><!--class Decision--><g id="elem_Decision"><rect codeLine="19" fill="#F1F1F1" height="80.5938" id="Decision" rx="2.5" ry="2.5" style="stroke:#181818;stroke-width:0.5;" width="351.0352" x="12.5" y="604.79"/><ellipse cx="153.9663" cy="620.79" fill="#ADD1B2" rx="11" ry="11" style="stroke:#181818;stroke-width:1.0;"/><path d="M156.9351,626.4306 Q156.3569,626.7275 155.7163,626.8681 Q155.0757,627.0244 154.3726,627.0244 Q151.8726,627.0244 150.5444,625.3838 Q149.2319,623.7275 149.2319,620.6025 Q149.2319,617.4775 150.5444,615.8213 Q151.8726,614.165 154.3726,614.165 Q155.0757,614.165 155.7163,614.3213 Q156.3726,614.4775 156.9351,614.7744 L156.9351,617.4931 Q156.3101,616.915 155.7163,616.6494 Q155.1226,616.3681 154.4976,616.3681 Q153.1538,616.3681 152.4663,617.4463 Q151.7788,618.5088 151.7788,620.6025 Q151.7788,622.6963 152.4663,623.7744 Q153.1538,624.8369 154.4976,624.8369 Q155.1226,624.8369 155.7163,624.5713 Q156.3101,624.29 156.9351,623.7119 L156.9351,626.4306 Z " fill="#000000"/><text fill="#000000" font-family="sans-serif" font-size="14" lengthAdjust="spacing" textLength="59.6025" x="174.4663" y="625.6367">Decision</text><line style="stroke:#181818;stroke-width:0.5;" x1="13.5" x2="362.5352" y1="636.79" y2="636.79"/><ellipse cx="23.5" cy="650.4384" fill="none" rx="3" ry="3" style="stroke:#038048;stroke-width:1.0;"/><text fill="#000000" font-family="sans-serif" font-size="14" lengthAdjust="spacing" textLength="180.3662" x="32.5" y="653.7851">decisionTomada: Boolean</text><line style="stroke:#181818;stroke-width:0.5;" x1="13.5" x2="362.5352" y1="661.0869" y2="661.0869"/><ellipse cx="23.5" cy="674.7353" fill="#84BE84" rx="3" ry="3" style="stroke:#038048;stroke-width:1.0;"/><text fill="#000000" font-family="sans-serif" font-size="14" lengthAdjust="spacing" textLength="325.0352" x="32.5" y="678.082">tomarDecision(ideaSeleccionada: String): void</text></g><!--link Conflicto to LluviaDeIdeas--><g id="link_Conflicto_LluviaDeIdeas"><path codeLine="24" d="M188.01,71.78 C188.01,94.04 188.01,117.99 188.01,141.86 " fill="none" id="Conflicto-to-LluviaDeIdeas" style="stroke:#181818;stroke-width:1.0;"/><polygon fill="#181818" points="188.01,147.86,192.01,138.86,188.01,142.86,184.01,138.86,188.01,147.86" style="stroke:#181818;stroke-width:1.0;"/><text fill="#000000" font-family="sans-serif" font-size="13" lengthAdjust="spacing" textLength="34.1885" x="189.01" y="114.3669">inicia</text></g><!--link LluviaDeIdeas to Analisis--><g id="link_LluviaDeIdeas_Analisis"><path codeLine="25" d="M188.01,229.11 C188.01,253.17 188.01,277.47 188.01,299.83 " fill="none" id="LluviaDeIdeas-to-Analisis" style="stroke:#181818;stroke-width:1.0;"/><polygon fill="#181818" points="188.01,305.83,192.01,296.83,188.01,300.83,184.01,296.83,188.01,305.83" style="stroke:#181818;stroke-width:1.0;"/><text fill="#000000" font-family="sans-serif" font-size="13" lengthAdjust="spacing" textLength="84.5317" x="189.01" y="271.9669">genera ideas</text></g><!--link Analisis to DescarteDeIdeas--><g id="link_Analisis_DescarteDeIdeas"><path codeLine="26" d="M188.01,370.67 C188.01,392.93 188.01,416.88 188.01,440.75 " fill="none" id="Analisis-to-DescarteDeIdeas" style="stroke:#181818;stroke-width:1.0;"/><polygon fill="#181818" points="188.01,446.75,192.01,437.75,188.01,441.75,184.01,437.75,188.01,446.75" style="stroke:#181818;stroke-width:1.0;"/><text fill="#000000" font-family="sans-serif" font-size="13" lengthAdjust="spacing" textLength="82.2085" x="189.01" y="413.2569">evalua ideas</text></g><!--link DescarteDeIdeas to Decision--><g id="link_DescarteDeIdeas_Decision"><path codeLine="27" d="M188.01,528.15 C188.01,551.56 188.01,575.09 188.01,598.49 " fill="none" id="DescarteDeIdeas-to-Decision" style="stroke:#181818;stroke-width:1.0;"/><polygon fill="#181818" points="188.01,604.49,192.01,595.49,188.01,599.49,184.01,595.49,188.01,604.49" style="stroke:#181818;stroke-width:1.0;"/><text fill="#000000" font-family="sans-serif" font-size="13" lengthAdjust="spacing" textLength="43.2593" x="189.01" y="570.8569">decide</text></g><!--SRC=[ZP5DQWCn38NtFeMOLKF91Km9j1qeXUpI2wYsEWWSkzZER4hlNl-C9yH9eDx9xtlFagmCXW2lpduPLj71Zu1q7h-z-pHqH0c7wDbEubS8LT2zESsC8xrhmj1mpiKRMVAeCKZOSuXFrRch14wU9lJPzP3f5hoHC3lMv_ndYuO3hz4qepbLOoZEBdxJlRO6ZHGK-aYtMbsqUytgHVv7koEfrAspBLulzOSxfdG9ByuPGbl5c2vzSvJS0nbIAbK5ldhZ_2_RxQvRlOI1BIl6GLmA6LstcAYf_0kKmGUnAXdhTvJekkz6zq0rBICdEe-hQVW3]--></g></svg>
