<?xml version="1.0" encoding="us-ascii" standalone="no"?><svg xmlns="http://www.w3.org/2000/svg" xmlns:xlink="http://www.w3.org/1999/xlink" contentStyleType="text/css" height="738px" preserveAspectRatio="none" style="width:369px;height:738px;background:#FFFFFF;" version="1.1" viewBox="0 0 369 738" width="369px" zoomAndPan="magnify"><defs/><g><ellipse cx="153.21" cy="16" fill="#222222" rx="10" ry="10" style="stroke:#222222;stroke-width:1.0;"/><g id="SinSonido"><rect fill="#F1F1F1" height="50" rx="12.5" ry="12.5" style="stroke:#181818;stroke-width:0.5;" width="84" x="111.21" y="87"/><line style="stroke:#181818;stroke-width:0.5;" x1="111.21" x2="195.21" y1="114.6094" y2="114.6094"/><text fill="#000000" font-family="sans-serif" font-size="14" lengthAdjust="spacing" textLength="64" x="121.21" y="106.5332">SinSonido</text></g><g id="SonidoGenerado"><rect fill="#F1F1F1" height="50" rx="12.5" ry="12.5" style="stroke:#181818;stroke-width:0.5;" width="128" x="89.21" y="215"/><line style="stroke:#181818;stroke-width:0.5;" x1="89.21" x2="217.21" y1="242.6094" y2="242.6094"/><text fill="#000000" font-family="sans-serif" font-size="14" lengthAdjust="spacing" textLength="108" x="99.21" y="234.5332">SonidoGenerado</text></g><g id="SonidoEnViaje"><rect fill="#F1F1F1" height="50" rx="12.5" ry="12.5" style="stroke:#181818;stroke-width:0.5;" width="112" x="97.21" y="343"/><line style="stroke:#181818;stroke-width:0.5;" x1="97.21" x2="209.21" y1="370.6094" y2="370.6094"/><text fill="#000000" font-family="sans-serif" font-size="14" lengthAdjust="spacing" textLength="92" x="107.21" y="362.5332">SonidoEnViaje</text></g><g id="SonidoReflejado"><rect fill="#F1F1F1" height="50" rx="12.5" ry="12.5" style="stroke:#181818;stroke-width:0.5;" width="124" x="11.21" y="471"/><line style="stroke:#181818;stroke-width:0.5;" x1="11.21" x2="135.21" y1="498.6094" y2="498.6094"/><text fill="#000000" font-family="sans-serif" font-size="14" lengthAdjust="spacing" textLength="104" x="21.21" y="490.5332">SonidoReflejado</text></g><g id="SonidoPercibido"><rect fill="#F1F1F1" height="50" rx="12.5" ry="12.5" style="stroke:#181818;stroke-width:0.5;" width="123" x="223.71" y="471"/><line style="stroke:#181818;stroke-width:0.5;" x1="223.71" x2="346.71" y1="498.6094" y2="498.6094"/><text fill="#000000" font-family="sans-serif" font-size="14" lengthAdjust="spacing" textLength="103" x="233.71" y="490.5332">SonidoPercibido</text></g><g id="EcoPercibido"><rect fill="#F1F1F1" height="50" rx="12.5" ry="12.5" style="stroke:#181818;stroke-width:0.5;" width="103" x="233.71" y="599"/><line style="stroke:#181818;stroke-width:0.5;" x1="233.71" x2="336.71" y1="626.6094" y2="626.6094"/><text fill="#000000" font-family="sans-serif" font-size="14" lengthAdjust="spacing" textLength="83" x="243.71" y="618.5332">EcoPercibido</text></g><ellipse cx="285.21" cy="721" fill="none" rx="11" ry="11" style="stroke:#222222;stroke-width:1.0;"/><ellipse cx="285.21" cy="721" fill="#222222" rx="6" ry="6" style="stroke:#222222;stroke-width:1.0;"/><!--link *start* to SinSonido--><g id="link_*start*_SinSonido"><path d="M153.21,26.01 C153.21,39.89 153.21,60.97 153.21,80.84 " fill="none" id="*start*-to-SinSonido" style="stroke:#181818;stroke-width:1.0;"/><polygon fill="#181818" points="153.21,86.84,157.21,77.84,153.21,81.84,149.21,77.84,153.21,86.84" style="stroke:#181818;stroke-width:1.0;"/></g><!--link SinSonido to SonidoGenerado--><g id="link_SinSonido_SonidoGenerado"><path d="M153.21,137.29 C153.21,159.61 153.21,186.49 153.21,208.78 " fill="none" id="SinSonido-to-SonidoGenerado" style="stroke:#181818;stroke-width:1.0;"/><polygon fill="#181818" points="153.21,214.78,157.21,205.78,153.21,209.78,149.21,205.78,153.21,214.78" style="stroke:#181818;stroke-width:1.0;"/><text fill="#000000" font-family="sans-serif" font-size="13" lengthAdjust="spacing" textLength="94" x="154.21" y="181.4951">GenerarSonido()</text></g><!--link SonidoGenerado to SonidoEnViaje--><g id="link_SonidoGenerado_SonidoEnViaje"><path d="M153.21,265.29 C153.21,287.61 153.21,314.49 153.21,336.78 " fill="none" id="SonidoGenerado-to-SonidoEnViaje" style="stroke:#181818;stroke-width:1.0;"/><polygon fill="#181818" points="153.21,342.78,157.21,333.78,153.21,337.78,149.21,333.78,153.21,342.78" style="stroke:#181818;stroke-width:1.0;"/><text fill="#000000" font-family="sans-serif" font-size="13" lengthAdjust="spacing" textLength="100" x="154.21" y="309.4951">PropagarSonido()</text></g><!--link SonidoEnViaje to SonidoReflejado--><g id="link_SonidoEnViaje_SonidoReflejado"><path d="M97.18,376.23 C68.15,383.13 35.12,396.62 17.21,423 C6,439.51 14.7777,453.3725 31.2677,467.0925 " fill="none" id="SonidoEnViaje-to-SonidoReflejado" style="stroke:#181818;stroke-width:1.0;"/><polygon fill="#181818" points="35.88,470.93,31.5199,462.0988,32.0364,467.7321,26.4032,468.2486,35.88,470.93" style="stroke:#181818;stroke-width:1.0;"/><text fill="#000000" font-family="sans-serif" font-size="13" lengthAdjust="spacing" textLength="91" x="18.21" y="437.4951">ReflejarSonido()</text></g><!--link SonidoReflejado to SonidoEnViaje--><g id="link_SonidoReflejado_SonidoEnViaje"><path d="M92.8,470.84 C99.87,461.71 107.7,451.09 114.21,441 C124.15,425.59 131.2413,412.7685 138.5413,398.5385 " fill="none" id="SonidoReflejado-to-SonidoEnViaje" style="stroke:#181818;stroke-width:1.0;"/><polygon fill="#181818" points="141.28,393.2,133.613,399.382,138.9978,397.6488,140.731,403.0335,141.28,393.2" style="stroke:#181818;stroke-width:1.0;"/><text fill="#000000" font-family="sans-serif" font-size="13" lengthAdjust="spacing" textLength="90" x="126.21" y="437.4951">ViajeDeVuelta()</text></g><!--link SonidoEnViaje to SonidoPercibido--><g id="link_SonidoEnViaje_SonidoPercibido"><path d="M188.95,393.27 C200.96,402.07 214.11,412.45 225.21,423 C240.66,437.68 252.3324,451.4492 263.6424,466.0292 " fill="none" id="SonidoEnViaje-to-SonidoPercibido" style="stroke:#181818;stroke-width:1.0;"/><polygon fill="#181818" points="267.32,470.77,264.9642,461.207,264.2554,466.8193,258.6431,466.1105,267.32,470.77" style="stroke:#181818;stroke-width:1.0;"/><text fill="#000000" font-family="sans-serif" font-size="13" lengthAdjust="spacing" textLength="88" x="243.21" y="437.4951">RecibirSonido()</text></g><!--link SonidoPercibido to EcoPercibido--><g id="link_SonidoPercibido_EcoPercibido"><path d="M285.21,521.29 C285.21,543.61 285.21,570.49 285.21,592.78 " fill="none" id="SonidoPercibido-to-EcoPercibido" style="stroke:#181818;stroke-width:1.0;"/><polygon fill="#181818" points="285.21,598.78,289.21,589.78,285.21,593.78,281.21,589.78,285.21,598.78" style="stroke:#181818;stroke-width:1.0;"/><text fill="#000000" font-family="sans-serif" font-size="13" lengthAdjust="spacing" textLength="75" x="286.21" y="565.4951">PercibirEco()</text></g><!--link EcoPercibido to *end*--><g id="link_EcoPercibido_*end*"><path d="M285.21,649.46 C285.21,669.04 285.21,689.49 285.21,703.8 " fill="none" id="EcoPercibido-to-*end*" style="stroke:#181818;stroke-width:1.0;"/><polygon fill="#181818" points="285.21,709.8,289.21,700.8,285.21,704.8,281.21,700.8,285.21,709.8" style="stroke:#181818;stroke-width:1.0;"/></g><!--SRC=[YzQALT3LjLC8pimBpi_BJCddWhCWuc2cUsfUQb4YKCXA0S8iWeXhQ7AXAK3eSSqBoqpCIWLg2IZABqXCnz03Ku3G4fIQbfEQ1R47oaRNX522pIOmxP8QLfgQKvA8nwA0rABapAHCg4KW9hez21KWNQx9A5gWx2AWC5035ueiI7cqLYm0]--></g></svg>