<svg xmlns="http://www.w3.org/2000/svg" xmlns:xlink="http://www.w3.org/1999/xlink" contentStyleType="text/css" height="1128px" preserveAspectRatio="none" style="width:484px;height:1128px;background:#FFFFFF;" version="1.1" viewBox="0 0 484 1128" width="484px" zoomAndPan="magnify"><defs/><g><ellipse cx="282.13" cy="16" fill="#222222" rx="10" ry="10" style="stroke:#222222;stroke-width:1.0;"/><path d="M38.09,103 L232.1547,103 A12.5,12.5 0 0 1 244.6547,115.5 L244.6547,129.2969 L25.59,129.2969 L25.59,115.5 A12.5,12.5 0 0 1 38.09,103 " fill="#F1F1F1" style="stroke:#F1F1F1;stroke-width:1.0;"/><rect fill="none" height="257.2969" rx="12.5" ry="12.5" style="stroke:#181818;stroke-width:0.5;" width="219.0647" x="25.59" y="103"/><line style="stroke:#181818;stroke-width:0.5;" x1="25.59" x2="244.6547" y1="129.2969" y2="129.2969"/><text fill="#000000" font-family="sans-serif" font-size="14" lengthAdjust="spacing" textLength="132.9521" x="68.6463" y="120.9951">Emisi&#243;n del Sonido</text><ellipse cx="112.37" cy="150.2969" fill="#222222" rx="10" ry="10" style="stroke:#222222;stroke-width:1.0;"/><g id="EmisionSonido.GenerandoSonido"><rect fill="#F1F1F1" height="50" rx="12.5" ry="12.5" style="stroke:#181818;stroke-width:0.5;" width="145.2754" x="39.73" y="197.2969"/><line style="stroke:#181818;stroke-width:0.5;" x1="39.73" x2="185.0054" y1="223.5938" y2="223.5938"/><text fill="#000000" font-family="sans-serif" font-size="14" lengthAdjust="spacing" textLength="125.2754" x="49.73" y="215.292">GenerandoSonido</text></g><g id="EmisionSonido.MovimientoSonido"><rect fill="#F1F1F1" height="50" rx="12.5" ry="12.5" style="stroke:#181818;stroke-width:0.5;" width="149.5547" x="37.59" y="300.2969"/><line style="stroke:#181818;stroke-width:0.5;" x1="37.59" x2="187.1447" y1="326.5938" y2="326.5938"/><text fill="#000000" font-family="sans-serif" font-size="14" lengthAdjust="spacing" textLength="129.5547" x="47.59" y="318.292">MovimientoSonido</text></g><!--link *start*EmisionSonido to GenerandoSonido--><g id="link_*start*EmisionSonido_GenerandoSonido"><path d="M112.37,160.7369 C112.37,169.9969 112.37,178.4869 112.37,190.9769 " fill="none" id="*start*EmisionSonido-to-GenerandoSonido" style="stroke:#181818;stroke-width:1.0;"/><polygon fill="#181818" points="112.37,196.9769,116.37,187.9769,112.37,191.9769,108.37,187.9769,112.37,196.9769" style="stroke:#181818;stroke-width:1.0;"/></g><!--link GenerandoSonido to MovimientoSonido--><g id="link_GenerandoSonido_MovimientoSonido"><path d="M112.37,247.7469 C112.37,263.6269 112.37,278.2369 112.37,294.0769 " fill="none" id="GenerandoSonido-to-MovimientoSonido" style="stroke:#181818;stroke-width:1.0;"/><polygon fill="#181818" points="112.37,300.0769,116.37,291.0769,112.37,295.0769,108.37,291.0769,112.37,300.0769" style="stroke:#181818;stroke-width:1.0;"/><text fill="#000000" font-family="sans-serif" font-size="13" lengthAdjust="spacing" textLength="121.2847" x="113.37" y="278.3638">Sonido se propaga</text></g><g id="VelocidadSonido"><rect fill="#F1F1F1" height="50" rx="12.5" ry="12.5" style="stroke:#181818;stroke-width:0.5;" width="136.252" x="7" y="437.3"/><line style="stroke:#181818;stroke-width:0.5;" x1="7" x2="143.252" y1="463.5969" y2="463.5969"/><text fill="#000000" font-family="sans-serif" font-size="14" lengthAdjust="spacing" textLength="116.252" x="17" y="455.2951">VelocidadSonido</text></g><g id="RebotandoSuperficie"><rect fill="#F1F1F1" height="50" rx="12.5" ry="12.5" style="stroke:#181818;stroke-width:0.5;" width="166.2207" x="25.02" y="564.3"/><line style="stroke:#181818;stroke-width:0.5;" x1="25.02" x2="191.2407" y1="590.5969" y2="590.5969"/><text fill="#000000" font-family="sans-serif" font-size="14" lengthAdjust="spacing" textLength="146.2207" x="35.02" y="582.2951">RebotandoSuperficie</text></g><g id="TiempoDeEspera"><rect fill="#F1F1F1" height="50" rx="12.5" ry="12.5" style="stroke:#181818;stroke-width:0.5;" width="139.5127" x="53.37" y="691.3"/><line style="stroke:#181818;stroke-width:0.5;" x1="53.37" x2="192.8827" y1="717.5969" y2="717.5969"/><text fill="#000000" font-family="sans-serif" font-size="14" lengthAdjust="spacing" textLength="119.5127" x="63.37" y="709.2951">TiempoDeEspera</text></g><g id="RetornoSonido"><rect fill="#F1F1F1" height="50" rx="12.5" ry="12.5" style="stroke:#181818;stroke-width:0.5;" width="123.2568" x="133.5" y="818.3"/><line style="stroke:#181818;stroke-width:0.5;" x1="133.5" x2="256.7568" y1="844.5969" y2="844.5969"/><text fill="#000000" font-family="sans-serif" font-size="14" lengthAdjust="spacing" textLength="103.2568" x="143.5" y="836.2951">RetornoSonido</text></g><g id="PercibiendoSonido"><rect fill="#F1F1F1" height="50" rx="12.5" ry="12.5" style="stroke:#181818;stroke-width:0.5;" width="149.7803" x="129.24" y="945.3"/><line style="stroke:#181818;stroke-width:0.5;" x1="129.24" x2="279.0203" y1="971.5969" y2="971.5969"/><text fill="#000000" font-family="sans-serif" font-size="14" lengthAdjust="spacing" textLength="129.7803" x="139.24" y="963.2951">PercibiendoSonido</text></g><g id="Fin"><rect fill="#F1F1F1" height="50" rx="12.5" ry="12.5" style="stroke:#181818;stroke-width:0.5;" width="50" x="259.13" y="1072.3"/><line style="stroke:#181818;stroke-width:0.5;" x1="259.13" x2="309.13" y1="1098.5969" y2="1098.5969"/><text fill="#000000" font-family="sans-serif" font-size="14" lengthAdjust="spacing" textLength="20.8154" x="273.7223" y="1090.2951">Fin</text></g><!--link *start* to EmisionSonido--><g id="link_*start*_EmisionSonido"><path d="M274.3,22.72 C264.94,29.81 249.16,42.61 238.13,56 C226.26,70.4 218.1786,81.295 207.6086,97.495 " fill="none" id="*start*-to-EmisionSonido" style="stroke:#181818;stroke-width:1.0;"/><polygon fill="#181818" points="204.33,102.52,212.598,97.1683,207.0622,98.3325,205.898,92.7968,204.33,102.52" style="stroke:#181818;stroke-width:1.0;"/><text fill="#000000" font-family="sans-serif" font-size="13" lengthAdjust="spacing" textLength="97.0684" x="239.13" y="69.0669">Inicia el sonido</text></g><!--link EmisionSonido to VelocidadSonido--><g id="link_EmisionSonido_VelocidadSonido"><path d="M74.89,360.75 C71.8,370.6 69.15,380.52 67.13,390.3 C63.97,405.61 64.6782,417.1655 67.4182,430.9255 " fill="none" id="EmisionSonido-to-VelocidadSonido" style="stroke:#181818;stroke-width:1.0;"/><polygon fill="#181818" points="68.59,436.81,70.7553,427.2021,67.6135,431.9063,62.9094,428.7645,68.59,436.81" style="stroke:#181818;stroke-width:1.0;"/><text fill="#000000" font-family="sans-serif" font-size="13" lengthAdjust="spacing" textLength="268.8169" x="68.13" y="403.3669">El sonido se desplaza seg&#250;n su velocidad</text></g><!--link VelocidadSonido to RebotandoSuperficie--><g id="link_VelocidadSonido_RebotandoSuperficie"><path d="M81.57,487.7 C87.38,509.72 94.358,536.1589 100.168,558.1589 " fill="none" id="VelocidadSonido-to-RebotandoSuperficie" style="stroke:#181818;stroke-width:1.0;"/><polygon fill="#181818" points="101.7,563.96,103.2694,554.237,100.4233,559.1257,95.5346,556.2797,101.7,563.96" style="stroke:#181818;stroke-width:1.0;"/><text fill="#000000" font-family="sans-serif" font-size="13" lengthAdjust="spacing" textLength="194.3779" x="95.13" y="530.3669">Sonido alcanza una superficie</text></g><!--link RebotandoSuperficie to TiempoDeEspera--><g id="link_RebotandoSuperficie_TiempoDeEspera"><path d="M108.1,614.71 C108.35,628.45 109.1,645.89 111.13,661.3 C112.41,671.11 113.2428,675.9278 115.4028,685.1578 " fill="none" id="RebotandoSuperficie-to-TiempoDeEspera" style="stroke:#181818;stroke-width:1.0;"/><polygon fill="#181818" points="116.77,691,118.614,681.3253,115.6307,686.1315,110.8245,683.1482,116.77,691" style="stroke:#181818;stroke-width:1.0;"/><text fill="#000000" font-family="sans-serif" font-size="13" lengthAdjust="spacing" textLength="207.708" x="112.13" y="657.3669">Esperando el retorno del sonido</text></g><!--link TiempoDeEspera to RetornoSonido--><g id="link_TiempoDeEspera_RetornoSonido"><path d="M137.18,741.7 C149.87,763.72 165.4338,790.7616 178.1138,812.7616 " fill="none" id="TiempoDeEspera-to-RetornoSonido" style="stroke:#181818;stroke-width:1.0;"/><polygon fill="#181818" points="181.11,817.96,180.0814,808.165,178.6132,813.628,173.1502,812.1599,181.11,817.96" style="stroke:#181818;stroke-width:1.0;"/><text fill="#000000" font-family="sans-serif" font-size="13" lengthAdjust="spacing" textLength="98.0713" x="165.13" y="784.3669">Sonido regresa</text></g><!--link RetornoSonido to PercibiendoSonido--><g id="link_RetornoSonido_PercibiendoSonido"><path d="M196.88,868.7 C198.47,890.72 200.3602,916.9754 201.9402,938.9754 " fill="none" id="RetornoSonido-to-PercibiendoSonido" style="stroke:#181818;stroke-width:1.0;"/><polygon fill="#181818" points="202.37,944.96,205.715,935.6966,202.0118,939.9728,197.7356,936.2697,202.37,944.96" style="stroke:#181818;stroke-width:1.0;"/><text fill="#000000" font-family="sans-serif" font-size="13" lengthAdjust="spacing" textLength="127.4482" x="202.13" y="911.3669">Sonido llega al o&#237;do</text></g><!--link PercibiendoSonido to Fin--><g id="link_PercibiendoSonido_Fin"><path d="M201.33,995.78 C200.82,1010.19 202.24,1028.28 210.13,1042.3 C220.96,1061.57 236.5623,1072.9944 253.3823,1082.0144 " fill="none" id="PercibiendoSonido-to-Fin" style="stroke:#181818;stroke-width:1.0;"/><polygon fill="#181818" points="258.67,1084.85,252.6289,1077.0715,254.2636,1082.487,248.8481,1084.1217,258.67,1084.85" style="stroke:#181818;stroke-width:1.0;"/><text fill="#000000" font-family="sans-serif" font-size="13" lengthAdjust="spacing" textLength="125.7598" x="211.13" y="1038.3669">O&#237;do percibe el eco</text></g><!--link *start* to Fin--><g id="link_*start*_Fin"><path d="M291.55,20.31 C305.03,25.58 329.46,37.23 341.13,56 C382.42,122.45 363.13,152.42 363.13,230.65 C363.13,230.65 363.13,230.65 363.13,971.3 C363.13,1004.34 358.57,1014.25 341.13,1042.3 C332.85,1055.61 325.0631,1063.9641 313.9831,1073.4241 " fill="none" id="*start*-to-Fin" style="stroke:#181818;stroke-width:1.0;"/><polygon fill="#181818" points="309.42,1077.32,318.8619,1074.5182,313.2226,1074.0734,313.6674,1068.4341,309.42,1077.32" style="stroke:#181818;stroke-width:1.0;"/><text fill="#000000" font-family="sans-serif" font-size="13" lengthAdjust="spacing" textLength="111.8901" x="364.13" y="657.3669">Sin eco percibido</text></g><!--SRC=[RP8zJiGm48LxdsAq9T9UW8AAW2WGY4KqAuhPU8WiEJEMdMm1uaXKTBIv66Fd1ssM9h9ctlVyyfBznIjijrTGjIuvuPsmimANSCUkTWZa8PMHCQd3Zc1JXCCtWzNTADy0ffN1Xm7OJzQtn1IHhOmxtQmcHNKlHzSwuawM3DCX4OGe0HiqdyQStfF95_9IEujs0QivTMOjfU3n7VNS33yCgOVZJ9Wrc_sUw21TITS7Yc_Q0_s5GLyZgrdFQhZipNzCzdfsr0QvfYhf67EqSb1XhZPI9v6bL3dLl0B6F4MrhYLI4ocXCQVxJ3nIhDr1oxHdbFVKeBu5oF2brvqhCt_ZM8c7h81G59JZKgs_mVnLHyrEdpgULCh_0W00]--></g></svg>