<?xml version="1.0" encoding="us-ascii" standalone="no"?><svg xmlns="http://www.w3.org/2000/svg" xmlns:xlink="http://www.w3.org/1999/xlink" contentStyleType="text/css" height="443px" preserveAspectRatio="none" style="width:348px;height:443px;background:#FFFFFF;" version="1.1" viewBox="0 0 348 443" width="348px" zoomAndPan="magnify"><defs/><g><!--class FuenteDeSonido--><g id="elem_FuenteDeSonido"><rect codeLine="1" fill="#F1F1F1" height="48" id="FuenteDeSonido" rx="2.5" ry="2.5" style="stroke:#181818;stroke-width:0.5;" width="139" x="136.5" y="7"/><ellipse cx="151.5" cy="23" fill="#ADD1B2" rx="11" ry="11" style="stroke:#181818;stroke-width:1.0;"/><path d="M154.2656,18.875 Q154.4219,18.6563 154.6094,18.5469 Q154.7969,18.4375 155.0156,18.4375 Q155.3906,18.4375 155.625,18.7031 Q155.8594,18.9531 155.8594,19.5625 L155.8594,21.0156 Q155.8594,21.625 155.625,21.8906 Q155.3906,22.1563 155.0156,22.1563 Q154.6719,22.1563 154.4688,21.9531 Q154.2656,21.7656 154.1563,21.25 Q154.1094,20.8906 153.9219,20.7031 Q153.5938,20.3281 152.9844,20.1094 Q152.375,19.8906 151.75,19.8906 Q150.9844,19.8906 150.3438,20.2188 Q149.7188,20.5469 149.2188,21.2969 Q148.7344,22.0469 148.7344,23.0781 L148.7344,24.1719 Q148.7344,25.4063 149.625,26.2344 Q150.5156,27.0469 152.1094,27.0469 Q153.0469,27.0469 153.7031,26.7969 Q154.0938,26.6406 154.5156,26.2031 Q154.7813,25.9375 154.9219,25.8594 Q155.0781,25.7813 155.2813,25.7813 Q155.6094,25.7813 155.8594,26.0469 Q156.125,26.2969 156.125,26.6406 Q156.125,26.9844 155.7813,27.3906 Q155.2813,27.9688 154.4844,28.2969 Q153.4063,28.75 152.1094,28.75 Q150.5938,28.75 149.3906,28.125 Q148.4063,27.625 147.7188,26.5625 Q147.0313,25.4844 147.0313,24.2031 L147.0313,23.0469 Q147.0313,21.7188 147.6406,20.5781 Q148.2656,19.4219 149.3594,18.8125 Q150.4531,18.1875 151.6875,18.1875 Q152.4219,18.1875 153.0625,18.3594 Q153.7188,18.5156 154.2656,18.875 Z " fill="#000000"/><text fill="#000000" font-family="sans-serif" font-size="14" lengthAdjust="spacing" textLength="107" x="165.5" y="28.7969">FuenteDeSonido</text><line style="stroke:#181818;stroke-width:0.5;" x1="137.5" x2="274.5" y1="39" y2="39"/><line style="stroke:#181818;stroke-width:0.5;" x1="137.5" x2="274.5" y1="47" y2="47"/></g><!--class SuperficieReflectante--><g id="elem_SuperficieReflectante"><rect codeLine="5" fill="#F1F1F1" height="48" id="SuperficieReflectante" rx="2.5" ry="2.5" style="stroke:#181818;stroke-width:0.5;" width="167" x="38.5" y="134"/><ellipse cx="53.5" cy="150" fill="#ADD1B2" rx="11" ry="11" style="stroke:#181818;stroke-width:1.0;"/><path d="M56.2656,145.875 Q56.4219,145.6563 56.6094,145.5469 Q56.7969,145.4375 57.0156,145.4375 Q57.3906,145.4375 57.625,145.7031 Q57.8594,145.9531 57.8594,146.5625 L57.8594,148.0156 Q57.8594,148.625 57.625,148.8906 Q57.3906,149.1563 57.0156,149.1563 Q56.6719,149.1563 56.4688,148.9531 Q56.2656,148.7656 56.1563,148.25 Q56.1094,147.8906 55.9219,147.7031 Q55.5938,147.3281 54.9844,147.1094 Q54.375,146.8906 53.75,146.8906 Q52.9844,146.8906 52.3438,147.2188 Q51.7188,147.5469 51.2188,148.2969 Q50.7344,149.0469 50.7344,150.0781 L50.7344,151.1719 Q50.7344,152.4063 51.625,153.2344 Q52.5156,154.0469 54.1094,154.0469 Q55.0469,154.0469 55.7031,153.7969 Q56.0938,153.6406 56.5156,153.2031 Q56.7813,152.9375 56.9219,152.8594 Q57.0781,152.7813 57.2813,152.7813 Q57.6094,152.7813 57.8594,153.0469 Q58.125,153.2969 58.125,153.6406 Q58.125,153.9844 57.7813,154.3906 Q57.2813,154.9688 56.4844,155.2969 Q55.4063,155.75 54.1094,155.75 Q52.5938,155.75 51.3906,155.125 Q50.4063,154.625 49.7188,153.5625 Q49.0313,152.4844 49.0313,151.2031 L49.0313,150.0469 Q49.0313,148.7188 49.6406,147.5781 Q50.2656,146.4219 51.3594,145.8125 Q52.4531,145.1875 53.6875,145.1875 Q54.4219,145.1875 55.0625,145.3594 Q55.7188,145.5156 56.2656,145.875 Z " fill="#000000"/><text fill="#000000" font-family="sans-serif" font-size="14" lengthAdjust="spacing" textLength="135" x="67.5" y="155.7969">SuperficieReflectante</text><line style="stroke:#181818;stroke-width:0.5;" x1="39.5" x2="204.5" y1="166" y2="166"/><line style="stroke:#181818;stroke-width:0.5;" x1="39.5" x2="204.5" y1="174" y2="174"/></g><!--class Eco--><g id="elem_Eco"><rect codeLine="9" fill="#F1F1F1" height="48" id="Eco" rx="2.5" ry="2.5" style="stroke:#181818;stroke-width:0.5;" width="56" x="7" y="261"/><ellipse cx="22" cy="277" fill="#ADD1B2" rx="11" ry="11" style="stroke:#181818;stroke-width:1.0;"/><path d="M24.7656,272.875 Q24.9219,272.6563 25.1094,272.5469 Q25.2969,272.4375 25.5156,272.4375 Q25.8906,272.4375 26.125,272.7031 Q26.3594,272.9531 26.3594,273.5625 L26.3594,275.0156 Q26.3594,275.625 26.125,275.8906 Q25.8906,276.1563 25.5156,276.1563 Q25.1719,276.1563 24.9688,275.9531 Q24.7656,275.7656 24.6563,275.25 Q24.6094,274.8906 24.4219,274.7031 Q24.0938,274.3281 23.4844,274.1094 Q22.875,273.8906 22.25,273.8906 Q21.4844,273.8906 20.8438,274.2188 Q20.2188,274.5469 19.7188,275.2969 Q19.2344,276.0469 19.2344,277.0781 L19.2344,278.1719 Q19.2344,279.4063 20.125,280.2344 Q21.0156,281.0469 22.6094,281.0469 Q23.5469,281.0469 24.2031,280.7969 Q24.5938,280.6406 25.0156,280.2031 Q25.2813,279.9375 25.4219,279.8594 Q25.5781,279.7813 25.7813,279.7813 Q26.1094,279.7813 26.3594,280.0469 Q26.625,280.2969 26.625,280.6406 Q26.625,280.9844 26.2813,281.3906 Q25.7813,281.9688 24.9844,282.2969 Q23.9063,282.75 22.6094,282.75 Q21.0938,282.75 19.8906,282.125 Q18.9063,281.625 18.2188,280.5625 Q17.5313,279.4844 17.5313,278.2031 L17.5313,277.0469 Q17.5313,275.7188 18.1406,274.5781 Q18.7656,273.4219 19.8594,272.8125 Q20.9531,272.1875 22.1875,272.1875 Q22.9219,272.1875 23.5625,272.3594 Q24.2188,272.5156 24.7656,272.875 Z " fill="#000000"/><text fill="#000000" font-family="sans-serif" font-size="14" lengthAdjust="spacing" textLength="24" x="36" y="282.7969">Eco</text><line style="stroke:#181818;stroke-width:0.5;" x1="8" x2="62" y1="293" y2="293"/><line style="stroke:#181818;stroke-width:0.5;" x1="8" x2="62" y1="301" y2="301"/></g><!--class Observador--><g id="elem_Observador"><rect codeLine="12" fill="#F1F1F1" height="48" id="Observador" rx="2.5" ry="2.5" style="stroke:#181818;stroke-width:0.5;" width="107" x="93.5" y="388"/><ellipse cx="108.5" cy="404" fill="#ADD1B2" rx="11" ry="11" style="stroke:#181818;stroke-width:1.0;"/><path d="M111.2656,399.875 Q111.4219,399.6563 111.6094,399.5469 Q111.7969,399.4375 112.0156,399.4375 Q112.3906,399.4375 112.625,399.7031 Q112.8594,399.9531 112.8594,400.5625 L112.8594,402.0156 Q112.8594,402.625 112.625,402.8906 Q112.3906,403.1563 112.0156,403.1563 Q111.6719,403.1563 111.4688,402.9531 Q111.2656,402.7656 111.1563,402.25 Q111.1094,401.8906 110.9219,401.7031 Q110.5938,401.3281 109.9844,401.1094 Q109.375,400.8906 108.75,400.8906 Q107.9844,400.8906 107.3438,401.2188 Q106.7188,401.5469 106.2188,402.2969 Q105.7344,403.0469 105.7344,404.0781 L105.7344,405.1719 Q105.7344,406.4063 106.625,407.2344 Q107.5156,408.0469 109.1094,408.0469 Q110.0469,408.0469 110.7031,407.7969 Q111.0938,407.6406 111.5156,407.2031 Q111.7813,406.9375 111.9219,406.8594 Q112.0781,406.7813 112.2813,406.7813 Q112.6094,406.7813 112.8594,407.0469 Q113.125,407.2969 113.125,407.6406 Q113.125,407.9844 112.7813,408.3906 Q112.2813,408.9688 111.4844,409.2969 Q110.4063,409.75 109.1094,409.75 Q107.5938,409.75 106.3906,409.125 Q105.4063,408.625 104.7188,407.5625 Q104.0313,406.4844 104.0313,405.2031 L104.0313,404.0469 Q104.0313,402.7188 104.6406,401.5781 Q105.2656,400.4219 106.3594,399.8125 Q107.4531,399.1875 108.6875,399.1875 Q109.4219,399.1875 110.0625,399.3594 Q110.7188,399.5156 111.2656,399.875 Z " fill="#000000"/><text fill="#000000" font-family="sans-serif" font-size="14" lengthAdjust="spacing" textLength="75" x="122.5" y="409.7969">Observador</text><line style="stroke:#181818;stroke-width:0.5;" x1="94.5" x2="199.5" y1="420" y2="420"/><line style="stroke:#181818;stroke-width:0.5;" x1="94.5" x2="199.5" y1="428" y2="428"/></g><!--link FuenteDeSonido to SuperficieReflectante--><g id="link_FuenteDeSonido_SuperficieReflectante"><path codeLine="16" d="M190.4,55.22 C175.31,77.67 155.9266,106.52 140.8666,128.93 " fill="none" id="FuenteDeSonido-to-SuperficieReflectante" style="stroke:#181818;stroke-width:1.0;"/><polygon fill="#181818" points="137.52,133.91,145.8599,128.6712,140.3089,129.76,139.22,124.209,137.52,133.91" style="stroke:#181818;stroke-width:1.0;"/><text fill="#000000" font-family="sans-serif" font-size="13" lengthAdjust="spacing" textLength="57" x="171" y="100.0283">interact&#250;a</text></g><!--link SuperficieReflectante to Eco--><g id="link_SuperficieReflectante_Eco"><path codeLine="17" d="M105.84,182.22 C90.21,204.67 70.0979,233.5756 54.4979,255.9856 " fill="none" id="SuperficieReflectante-to-Eco" style="stroke:#181818;stroke-width:1.0;"/><polygon fill="#181818" points="51.07,260.91,59.4948,255.8088,53.9266,256.8064,52.929,251.2382,51.07,260.91" style="stroke:#181818;stroke-width:1.0;"/><text fill="#000000" font-family="sans-serif" font-size="13" lengthAdjust="spacing" textLength="39" x="85" y="227.0283">genera</text></g><!--link Eco to Observador--><g id="link_Eco_Observador"><path codeLine="18" d="M20.4,309.04 C12.92,324.05 7.22,343.46 17,358 C34.06,383.39 59.8167,395.1747 87.5767,402.0647 " fill="none" id="Eco-to-Observador" style="stroke:#181818;stroke-width:1.0;"/><polygon fill="#181818" points="93.4,403.51,85.6286,397.4598,88.5472,402.3056,83.7015,405.2242,93.4,403.51" style="stroke:#181818;stroke-width:1.0;"/><text fill="#000000" font-family="sans-serif" font-size="13" lengthAdjust="spacing" textLength="229" x="18" y="354.0283">escucha o no dependiendo de distancia</text></g><!--link Observador to FuenteDeSonido--><g id="link_Observador_FuenteDeSonido"><path codeLine="19" d="M200.67,396.95 C220.33,388.92 240.55,376.61 252,358 C315.69,254.51 272.23,201.3 237,85 C233.85,74.59 231.4649,69.1612 225.9149,60.2612 " fill="none" id="Observador-to-FuenteDeSonido" style="stroke:#181818;stroke-width:1.0;"/><polygon fill="#181818" points="222.74,55.17,224.1081,64.9234,225.3857,59.4127,230.8964,60.6902,222.74,55.17" style="stroke:#181818;stroke-width:1.0;"/><text fill="#000000" font-family="sans-serif" font-size="13" lengthAdjust="spacing" textLength="57" x="283" y="227.0283">puede ser</text></g><!--SRC=[TOuz3i8m38Ltdy8Nw0KoC04h4Zs1SLomL2LLqh0WBiRAnR0HGWN1OFdlUy_caMh5RPCqorhwd3Hcl01S0VYvwjiaPL1MsSim2izav0UnOLUyszsXIZbJpEL5VPbttUgFQK2rL8Zd-utWD-DgFnZmACbOyCQ7YxC1fNBZ4s76b37A92cgXTSOjPeLAy52uWvVVmQScXXl3C03]--></g></svg>