<?xml version="1.0" encoding="us-ascii" standalone="no"?><svg xmlns="http://www.w3.org/2000/svg" xmlns:xlink="http://www.w3.org/1999/xlink" contentStyleType="text/css" height="460px" preserveAspectRatio="none" style="width:760px;height:460px;background:#FFFFFF;" version="1.1" viewBox="0 0 760 460" width="760px" zoomAndPan="magnify"><defs/><g><!--class Lider_original--><g id="elem_Lider_original"><rect codeLine="3" fill="#F1F1F1" height="48" id="Lider_original" rx="2.5" ry="2.5" style="stroke:#181818;stroke-width:0.5;" width="118" x="166.62" y="24.01"/><ellipse cx="181.62" cy="40.01" fill="#ADD1B2" rx="11" ry="11" style="stroke:#181818;stroke-width:1.0;"/><path d="M184.3856,35.885 Q184.5419,35.6662 184.7294,35.5569 Q184.9169,35.4475 185.1356,35.4475 Q185.5106,35.4475 185.745,35.7131 Q185.9794,35.9631 185.9794,36.5725 L185.9794,38.0256 Q185.9794,38.635 185.745,38.9006 Q185.5106,39.1662 185.1356,39.1662 Q184.7919,39.1662 184.5888,38.9631 Q184.3856,38.7756 184.2763,38.26 Q184.2294,37.9006 184.0419,37.7131 Q183.7138,37.3381 183.1044,37.1194 Q182.495,36.9006 181.87,36.9006 Q181.1044,36.9006 180.4638,37.2287 Q179.8388,37.5569 179.3388,38.3069 Q178.8544,39.0569 178.8544,40.0881 L178.8544,41.1819 Q178.8544,42.4162 179.745,43.2444 Q180.6356,44.0569 182.2294,44.0569 Q183.1669,44.0569 183.8231,43.8069 Q184.2138,43.6506 184.6356,43.2131 Q184.9013,42.9475 185.0419,42.8694 Q185.1981,42.7912 185.4013,42.7912 Q185.7294,42.7912 185.9794,43.0569 Q186.245,43.3069 186.245,43.6506 Q186.245,43.9944 185.9013,44.4006 Q185.4013,44.9787 184.6044,45.3069 Q183.5263,45.76 182.2294,45.76 Q180.7138,45.76 179.5106,45.135 Q178.5263,44.635 177.8388,43.5725 Q177.1513,42.4944 177.1513,41.2131 L177.1513,40.0569 Q177.1513,38.7287 177.7606,37.5881 Q178.3856,36.4319 179.4794,35.8225 Q180.5731,35.1975 181.8075,35.1975 Q182.5419,35.1975 183.1825,35.3694 Q183.8388,35.5256 184.3856,35.885 Z " fill="#000000"/><text fill="#000000" font-family="sans-serif" font-size="14" lengthAdjust="spacing" textLength="86" x="195.62" y="45.8069">Lider_original</text><line style="stroke:#181818;stroke-width:0.5;" x1="167.62" x2="283.62" y1="56.01" y2="56.01"/><line style="stroke:#181818;stroke-width:0.5;" x1="167.62" x2="283.62" y1="64.01" y2="64.01"/></g><!--class lider_Nuevo--><g id="elem_lider_Nuevo"><rect codeLine="4" fill="#F1F1F1" height="48" id="lider_Nuevo" rx="2.5" ry="2.5" style="stroke:#181818;stroke-width:0.5;" width="107" x="141.12" y="405.01"/><ellipse cx="156.12" cy="421.01" fill="#ADD1B2" rx="11" ry="11" style="stroke:#181818;stroke-width:1.0;"/><path d="M158.8856,416.885 Q159.0419,416.6663 159.2294,416.5569 Q159.4169,416.4475 159.6356,416.4475 Q160.0106,416.4475 160.245,416.7131 Q160.4794,416.9631 160.4794,417.5725 L160.4794,419.0256 Q160.4794,419.635 160.245,419.9006 Q160.0106,420.1663 159.6356,420.1663 Q159.2919,420.1663 159.0888,419.9631 Q158.8856,419.7756 158.7763,419.26 Q158.7294,418.9006 158.5419,418.7131 Q158.2138,418.3381 157.6044,418.1194 Q156.995,417.9006 156.37,417.9006 Q155.6044,417.9006 154.9638,418.2288 Q154.3388,418.5569 153.8388,419.3069 Q153.3544,420.0569 153.3544,421.0881 L153.3544,422.1819 Q153.3544,423.4163 154.245,424.2444 Q155.1356,425.0569 156.7294,425.0569 Q157.6669,425.0569 158.3231,424.8069 Q158.7138,424.6506 159.1356,424.2131 Q159.4013,423.9475 159.5419,423.8694 Q159.6981,423.7913 159.9013,423.7913 Q160.2294,423.7913 160.4794,424.0569 Q160.745,424.3069 160.745,424.6506 Q160.745,424.9944 160.4013,425.4006 Q159.9013,425.9788 159.1044,426.3069 Q158.0263,426.76 156.7294,426.76 Q155.2138,426.76 154.0106,426.135 Q153.0263,425.635 152.3388,424.5725 Q151.6513,423.4944 151.6513,422.2131 L151.6513,421.0569 Q151.6513,419.7288 152.2606,418.5881 Q152.8856,417.4319 153.9794,416.8225 Q155.0731,416.1975 156.3075,416.1975 Q157.0419,416.1975 157.6825,416.3694 Q158.3388,416.5256 158.8856,416.885 Z " fill="#000000"/><text fill="#000000" font-family="sans-serif" font-size="14" lengthAdjust="spacing" textLength="75" x="170.12" y="426.8069">lider_Nuevo</text><line style="stroke:#181818;stroke-width:0.5;" x1="142.12" x2="247.12" y1="437.01" y2="437.01"/><line style="stroke:#181818;stroke-width:0.5;" x1="142.12" x2="247.12" y1="445.01" y2="445.01"/></g><!--class Seguidores--><g id="elem_Seguidores"><rect codeLine="5" fill="#F1F1F1" height="48" id="Seguidores" rx="2.5" ry="2.5" style="stroke:#181818;stroke-width:0.5;" width="104" x="95.62" y="151.01"/><ellipse cx="110.62" cy="167.01" fill="#ADD1B2" rx="11" ry="11" style="stroke:#181818;stroke-width:1.0;"/><path d="M113.3856,162.885 Q113.5419,162.6663 113.7294,162.5569 Q113.9169,162.4475 114.1356,162.4475 Q114.5106,162.4475 114.745,162.7131 Q114.9794,162.9631 114.9794,163.5725 L114.9794,165.0256 Q114.9794,165.635 114.745,165.9006 Q114.5106,166.1663 114.1356,166.1663 Q113.7919,166.1663 113.5888,165.9631 Q113.3856,165.7756 113.2763,165.26 Q113.2294,164.9006 113.0419,164.7131 Q112.7138,164.3381 112.1044,164.1194 Q111.495,163.9006 110.87,163.9006 Q110.1044,163.9006 109.4638,164.2288 Q108.8388,164.5569 108.3388,165.3069 Q107.8544,166.0569 107.8544,167.0881 L107.8544,168.1819 Q107.8544,169.4163 108.745,170.2444 Q109.6356,171.0569 111.2294,171.0569 Q112.1669,171.0569 112.8231,170.8069 Q113.2138,170.6506 113.6356,170.2131 Q113.9013,169.9475 114.0419,169.8694 Q114.1981,169.7913 114.4013,169.7913 Q114.7294,169.7913 114.9794,170.0569 Q115.245,170.3069 115.245,170.6506 Q115.245,170.9944 114.9013,171.4006 Q114.4013,171.9788 113.6044,172.3069 Q112.5263,172.76 111.2294,172.76 Q109.7138,172.76 108.5106,172.135 Q107.5263,171.635 106.8388,170.5725 Q106.1513,169.4944 106.1513,168.2131 L106.1513,167.0569 Q106.1513,165.7288 106.7606,164.5881 Q107.3856,163.4319 108.4794,162.8225 Q109.5731,162.1975 110.8075,162.1975 Q111.5419,162.1975 112.1825,162.3694 Q112.8388,162.5256 113.3856,162.885 Z " fill="#000000"/><text fill="#000000" font-family="sans-serif" font-size="14" lengthAdjust="spacing" textLength="72" x="124.62" y="172.8069">Seguidores</text><line style="stroke:#181818;stroke-width:0.5;" x1="96.62" x2="198.62" y1="183.01" y2="183.01"/><line style="stroke:#181818;stroke-width:0.5;" x1="96.62" x2="198.62" y1="191.01" y2="191.01"/></g><!--class carisma--><g id="elem_carisma"><rect codeLine="6" fill="#F1F1F1" height="48" id="carisma" rx="2.5" ry="2.5" style="stroke:#181818;stroke-width:0.5;" width="81" x="263.12" y="278.01"/><ellipse cx="278.12" cy="294.01" fill="#ADD1B2" rx="11" ry="11" style="stroke:#181818;stroke-width:1.0;"/><path d="M280.8856,289.885 Q281.0419,289.6663 281.2294,289.5569 Q281.4169,289.4475 281.6356,289.4475 Q282.0106,289.4475 282.245,289.7131 Q282.4794,289.9631 282.4794,290.5725 L282.4794,292.0256 Q282.4794,292.635 282.245,292.9006 Q282.0106,293.1663 281.6356,293.1663 Q281.2919,293.1663 281.0888,292.9631 Q280.8856,292.7756 280.7763,292.26 Q280.7294,291.9006 280.5419,291.7131 Q280.2138,291.3381 279.6044,291.1194 Q278.995,290.9006 278.37,290.9006 Q277.6044,290.9006 276.9638,291.2288 Q276.3388,291.5569 275.8388,292.3069 Q275.3544,293.0569 275.3544,294.0881 L275.3544,295.1819 Q275.3544,296.4163 276.245,297.2444 Q277.1356,298.0569 278.7294,298.0569 Q279.6669,298.0569 280.3231,297.8069 Q280.7138,297.6506 281.1356,297.2131 Q281.4013,296.9475 281.5419,296.8694 Q281.6981,296.7913 281.9013,296.7913 Q282.2294,296.7913 282.4794,297.0569 Q282.745,297.3069 282.745,297.6506 Q282.745,297.9944 282.4013,298.4006 Q281.9013,298.9788 281.1044,299.3069 Q280.0263,299.76 278.7294,299.76 Q277.2138,299.76 276.0106,299.135 Q275.0263,298.635 274.3388,297.5725 Q273.6513,296.4944 273.6513,295.2131 L273.6513,294.0569 Q273.6513,292.7288 274.2606,291.5881 Q274.8856,290.4319 275.9794,289.8225 Q277.0731,289.1975 278.3075,289.1975 Q279.0419,289.1975 279.6825,289.3694 Q280.3388,289.5256 280.8856,289.885 Z " fill="#000000"/><text fill="#000000" font-family="sans-serif" font-size="14" lengthAdjust="spacing" textLength="49" x="292.12" y="299.8069">carisma</text><line style="stroke:#181818;stroke-width:0.5;" x1="264.12" x2="343.12" y1="310.01" y2="310.01"/><line style="stroke:#181818;stroke-width:0.5;" x1="264.12" x2="343.12" y1="318.01" y2="318.01"/></g><!--link Lider_original to Lider_original--><g id="link_Lider_original_Lider_original"><path codeLine="8" d="M284.83,36.39 C304.2,36.45 319.62,40.32 319.62,48.01 C319.62,55.7 310.2,59.5514 290.83,59.6114 " fill="none" id="Lider_original-to-Lider_original" style="stroke:#181818;stroke-width:1.0;"/><polygon fill="#181818" points="284.83,59.63,293.8423,63.6021,289.83,59.6145,293.8176,55.6021,284.83,59.63" style="stroke:#181818;stroke-width:1.0;"/><text fill="#000000" font-family="sans-serif" font-size="13" lengthAdjust="spacing" textLength="89" x="325.62" y="53.5383">se auto impone</text></g><!--link Lider_original to Seguidores--><g id="link_Lider_original_Seguidores"><path codeLine="9" d="M166.62,56.92 C114.9,65.2 45.43,80.08 28.62,102.01 C6,131.52 47.8601,150.0061 89.4301,161.3061 " fill="none" id="Lider_original-to-Seguidores" style="stroke:#181818;stroke-width:1.0;"/><polygon fill="#181818" points="95.22,162.88,87.5844,156.6593,90.3951,161.5684,85.4859,164.3791,95.22,162.88" style="stroke:#181818;stroke-width:1.0;"/><text fill="#000000" font-family="sans-serif" font-size="13" lengthAdjust="spacing" textLength="64" x="29.62" y="117.0383">da ordenes</text></g><!--link Seguidores to Lider_original--><g id="link_Seguidores_Lider_original"><path codeLine="10" d="M199.77,166.46 C227.26,159.54 258.71,146.31 275.62,121.01 C286.61,104.56 278.0008,90.2738 262.4708,76.2338 " fill="none" id="Seguidores-to-Lider_original" style="stroke:#181818;stroke-width:1.0;"/><polygon fill="#181818" points="258.02,72.21,262.0137,81.2128,261.729,75.5631,267.3787,75.2784,258.02,72.21" style="stroke:#181818;stroke-width:1.0;"/><text fill="#000000" font-family="sans-serif" font-size="13" lengthAdjust="spacing" textLength="163" x="280.62" y="117.0383">obedecen sistematicamente</text></g><!--link Lider_original to Seguidores--><g id="link_Lider_original_Seguidores"><path codeLine="16" d="M166.46,69.56 C152.26,77.43 138.84,88 130.62,102.01 C121.84,116.96 124.5221,130.7285 131.4021,145.5385 " fill="none" id="Lider_original-to-Seguidores-1" style="stroke:#181818;stroke-width:1.0;"/><polygon fill="#181818" points="133.93,150.98,133.7659,141.1325,131.8235,146.4454,126.5105,144.503,133.93,150.98" style="stroke:#181818;stroke-width:1.0;"/><text fill="#000000" font-family="sans-serif" font-size="13" lengthAdjust="spacing" textLength="135" x="131.62" y="117.0383">pasan a ser seguidores</text></g><!--link lider_Nuevo to Seguidores--><g id="link_lider_Nuevo_Seguidores"><path codeLine="11" d="M190.29,404.81 C181.35,356.85 162.0098,253.1683 153.0598,205.1683 " fill="none" id="lider_Nuevo-to-Seguidores" style="stroke:#181818;stroke-width:1.0;"/><polygon fill="#181818" points="151.96,199.27,149.6775,208.8507,152.8765,204.1853,157.5419,207.3843,151.96,199.27" style="stroke:#181818;stroke-width:1.0;"/><text fill="#000000" font-family="sans-serif" font-size="13" lengthAdjust="spacing" textLength="68" x="176.62" y="307.5383">pertenece a</text></g><!--link Seguidores to lider_Nuevo--><g id="link_Seguidores_lider_Nuevo"><path codeLine="14" d="M110.79,199.2 C70.52,227.68 14.89,278.1 40.62,326.01 C61.71,365.28 99.8431,389.4856 135.2831,405.6856 " fill="none" id="Seguidores-to-lider_Nuevo" style="stroke:#181818;stroke-width:1.0;"/><polygon fill="#181818" points="140.74,408.18,134.2176,400.8004,136.1926,406.1013,130.8917,408.0763,140.74,408.18" style="stroke:#181818;stroke-width:1.0;"/><text fill="#000000" font-family="sans-serif" font-size="13" lengthAdjust="spacing" textLength="117" x="41.62" y="307.5383">obedecen con gusto</text></g><!--link Seguidores to carisma--><g id="link_Seguidores_carisma"><path codeLine="12" d="M176.6,199.23 C204.62,221.68 242.1476,251.7584 270.1176,274.1684 " fill="none" id="Seguidores-to-carisma" style="stroke:#181818;stroke-width:1.0;"/><polygon fill="#181818" points="274.8,277.92,270.2774,269.1709,270.898,274.7936,265.2753,275.4142,274.8,277.92" style="stroke:#181818;stroke-width:1.0;"/><text fill="#000000" font-family="sans-serif" font-size="13" lengthAdjust="spacing" textLength="186" x="236.62" y="244.0383">admiran a miembro con carisma</text></g><!--link carisma to lider_Nuevo--><g id="link_carisma_lider_Nuevo"><path codeLine="13" d="M283.37,326.23 C263.79,348.68 238.2432,377.9877 218.7032,400.3977 " fill="none" id="carisma-to-lider_Nuevo" style="stroke:#181818;stroke-width:1.0;"/><polygon fill="#181818" points="214.76,404.92,223.6896,400.7653,218.046,401.1514,217.6599,395.5077,214.76,404.92" style="stroke:#181818;stroke-width:1.0;"/><text fill="#000000" font-family="sans-serif" font-size="13" lengthAdjust="spacing" textLength="186" x="256.62" y="371.0383">admiran a miembro con carisma</text></g><!--link lider_Nuevo to Lider_original--><g id="link_lider_Nuevo_Lider_original"><path codeLine="15" d="M248.23,424.69 C315.87,419.26 426.41,405.82 451.62,375.01 C753.51,6 475.25,130.54 452.62,102.01 C432.02,76.05 350.8593,62.3178 290.7393,55.2778 " fill="none" id="lider_Nuevo-to-Lider_original" style="stroke:#181818;stroke-width:1.0;"/><polygon fill="#181818" points="284.78,54.58,293.2537,59.5996,289.7461,55.1615,294.1841,51.6539,284.78,54.58" style="stroke:#181818;stroke-width:1.0;"/><text fill="#000000" font-family="sans-serif" font-size="13" lengthAdjust="spacing" textLength="60" x="556.62" y="244.0383">se impone</text></g><!--SRC=[ZL7B3S8m3Brd2Y_G1JWm0UB20CXDhCfI4rTsmloaLIdzIN3mvUbz_6pVendSE90-HRdZXBtp4zXFuBtGIsRaGLtX84es0nwLBQ9pMmDecklE4ovW15Yo0CT14fr9llwL7X140wKQji9FdQMbG9uI65kcY9azHagPtAh3CM4WpTNVrxts4NEnIi8GMJ41GcIAhGfuIKln3s_KhBD-wNPnM-bIPrHqnR8SUfmTzy-x3cZJMaPQPtceUmC0]--></g></svg>