<?xml version="1.0" encoding="us-ascii" standalone="no"?><svg xmlns="http://www.w3.org/2000/svg" xmlns:xlink="http://www.w3.org/1999/xlink" contentStyleType="text/css" height="440px" preserveAspectRatio="none" style="width:133px;height:440px;background:#FFFFFF;" version="1.1" viewBox="0 0 133 440" width="133px" zoomAndPan="magnify"><defs/><g><!--class Decision--><g id="elem_Decision"><rect codeLine="2" fill="#F1F1F1" height="48" id="Decision" rx="2.5" ry="2.5" style="stroke:#181818;stroke-width:0.5;" width="86" x="10" y="385"/><ellipse cx="25" cy="401" fill="#ADD1B2" rx="11" ry="11" style="stroke:#181818;stroke-width:1.0;"/><path d="M27.7656,396.875 Q27.9219,396.6563 28.1094,396.5469 Q28.2969,396.4375 28.5156,396.4375 Q28.8906,396.4375 29.125,396.7031 Q29.3594,396.9531 29.3594,397.5625 L29.3594,399.0156 Q29.3594,399.625 29.125,399.8906 Q28.8906,400.1563 28.5156,400.1563 Q28.1719,400.1563 27.9688,399.9531 Q27.7656,399.7656 27.6563,399.25 Q27.6094,398.8906 27.4219,398.7031 Q27.0938,398.3281 26.4844,398.1094 Q25.875,397.8906 25.25,397.8906 Q24.4844,397.8906 23.8438,398.2188 Q23.2188,398.5469 22.7188,399.2969 Q22.2344,400.0469 22.2344,401.0781 L22.2344,402.1719 Q22.2344,403.4063 23.125,404.2344 Q24.0156,405.0469 25.6094,405.0469 Q26.5469,405.0469 27.2031,404.7969 Q27.5938,404.6406 28.0156,404.2031 Q28.2813,403.9375 28.4219,403.8594 Q28.5781,403.7813 28.7813,403.7813 Q29.1094,403.7813 29.3594,404.0469 Q29.625,404.2969 29.625,404.6406 Q29.625,404.9844 29.2813,405.3906 Q28.7813,405.9688 27.9844,406.2969 Q26.9063,406.75 25.6094,406.75 Q24.0938,406.75 22.8906,406.125 Q21.9063,405.625 21.2188,404.5625 Q20.5313,403.4844 20.5313,402.2031 L20.5313,401.0469 Q20.5313,399.7188 21.1406,398.5781 Q21.7656,397.4219 22.8594,396.8125 Q23.9531,396.1875 25.1875,396.1875 Q25.9219,396.1875 26.5625,396.3594 Q27.2188,396.5156 27.7656,396.875 Z " fill="#000000"/><text fill="#000000" font-family="sans-serif" font-size="14" lengthAdjust="spacing" textLength="54" x="39" y="406.7285">Decision</text><line style="stroke:#181818;stroke-width:0.5;" x1="11" x2="95" y1="417" y2="417"/><line style="stroke:#181818;stroke-width:0.5;" x1="11" x2="95" y1="425" y2="425"/></g><!--class Decisor--><g id="elem_Decisor"><rect codeLine="3" fill="#F1F1F1" height="48" id="Decisor" rx="2.5" ry="2.5" style="stroke:#181818;stroke-width:0.5;" width="80" x="13" y="7"/><ellipse cx="28" cy="23" fill="#ADD1B2" rx="11" ry="11" style="stroke:#181818;stroke-width:1.0;"/><path d="M30.7656,18.875 Q30.9219,18.6563 31.1094,18.5469 Q31.2969,18.4375 31.5156,18.4375 Q31.8906,18.4375 32.125,18.7031 Q32.3594,18.9531 32.3594,19.5625 L32.3594,21.0156 Q32.3594,21.625 32.125,21.8906 Q31.8906,22.1563 31.5156,22.1563 Q31.1719,22.1563 30.9688,21.9531 Q30.7656,21.7656 30.6563,21.25 Q30.6094,20.8906 30.4219,20.7031 Q30.0938,20.3281 29.4844,20.1094 Q28.875,19.8906 28.25,19.8906 Q27.4844,19.8906 26.8438,20.2188 Q26.2188,20.5469 25.7188,21.2969 Q25.2344,22.0469 25.2344,23.0781 L25.2344,24.1719 Q25.2344,25.4063 26.125,26.2344 Q27.0156,27.0469 28.6094,27.0469 Q29.5469,27.0469 30.2031,26.7969 Q30.5938,26.6406 31.0156,26.2031 Q31.2813,25.9375 31.4219,25.8594 Q31.5781,25.7813 31.7813,25.7813 Q32.1094,25.7813 32.3594,26.0469 Q32.625,26.2969 32.625,26.6406 Q32.625,26.9844 32.2813,27.3906 Q31.7813,27.9688 30.9844,28.2969 Q29.9063,28.75 28.6094,28.75 Q27.0938,28.75 25.8906,28.125 Q24.9063,27.625 24.2188,26.5625 Q23.5313,25.4844 23.5313,24.2031 L23.5313,23.0469 Q23.5313,21.7188 24.1406,20.5781 Q24.7656,19.4219 25.8594,18.8125 Q26.9531,18.1875 28.1875,18.1875 Q28.9219,18.1875 29.5625,18.3594 Q30.2188,18.5156 30.7656,18.875 Z " fill="#000000"/><text fill="#000000" font-family="sans-serif" font-size="14" lengthAdjust="spacing" textLength="48" x="42" y="28.7285">Decisor</text><line style="stroke:#181818;stroke-width:0.5;" x1="14" x2="92" y1="39" y2="39"/><line style="stroke:#181818;stroke-width:0.5;" x1="14" x2="92" y1="47" y2="47"/></g><!--class Opciones--><g id="elem_Opciones"><rect codeLine="4" fill="#F1F1F1" height="48" id="Opciones" rx="2.5" ry="2.5" style="stroke:#181818;stroke-width:0.5;" width="92" x="7" y="133"/><ellipse cx="22" cy="149" fill="#ADD1B2" rx="11" ry="11" style="stroke:#181818;stroke-width:1.0;"/><path d="M24.7656,144.875 Q24.9219,144.6563 25.1094,144.5469 Q25.2969,144.4375 25.5156,144.4375 Q25.8906,144.4375 26.125,144.7031 Q26.3594,144.9531 26.3594,145.5625 L26.3594,147.0156 Q26.3594,147.625 26.125,147.8906 Q25.8906,148.1563 25.5156,148.1563 Q25.1719,148.1563 24.9688,147.9531 Q24.7656,147.7656 24.6563,147.25 Q24.6094,146.8906 24.4219,146.7031 Q24.0938,146.3281 23.4844,146.1094 Q22.875,145.8906 22.25,145.8906 Q21.4844,145.8906 20.8438,146.2188 Q20.2188,146.5469 19.7188,147.2969 Q19.2344,148.0469 19.2344,149.0781 L19.2344,150.1719 Q19.2344,151.4063 20.125,152.2344 Q21.0156,153.0469 22.6094,153.0469 Q23.5469,153.0469 24.2031,152.7969 Q24.5938,152.6406 25.0156,152.2031 Q25.2813,151.9375 25.4219,151.8594 Q25.5781,151.7813 25.7813,151.7813 Q26.1094,151.7813 26.3594,152.0469 Q26.625,152.2969 26.625,152.6406 Q26.625,152.9844 26.2813,153.3906 Q25.7813,153.9688 24.9844,154.2969 Q23.9063,154.75 22.6094,154.75 Q21.0938,154.75 19.8906,154.125 Q18.9063,153.625 18.2188,152.5625 Q17.5313,151.4844 17.5313,150.2031 L17.5313,149.0469 Q17.5313,147.7188 18.1406,146.5781 Q18.7656,145.4219 19.8594,144.8125 Q20.9531,144.1875 22.1875,144.1875 Q22.9219,144.1875 23.5625,144.3594 Q24.2188,144.5156 24.7656,144.875 Z " fill="#000000"/><text fill="#000000" font-family="sans-serif" font-size="14" lengthAdjust="spacing" textLength="60" x="36" y="154.7285">Opciones</text><line style="stroke:#181818;stroke-width:0.5;" x1="8" x2="98" y1="165" y2="165"/><line style="stroke:#181818;stroke-width:0.5;" x1="8" x2="98" y1="173" y2="173"/></g><!--class Criterios--><g id="elem_Criterios"><rect codeLine="5" fill="#F1F1F1" height="48" id="Criterios" rx="2.5" ry="2.5" style="stroke:#181818;stroke-width:0.5;" width="85" x="10.5" y="259"/><ellipse cx="25.5" cy="275" fill="#ADD1B2" rx="11" ry="11" style="stroke:#181818;stroke-width:1.0;"/><path d="M28.2656,270.875 Q28.4219,270.6563 28.6094,270.5469 Q28.7969,270.4375 29.0156,270.4375 Q29.3906,270.4375 29.625,270.7031 Q29.8594,270.9531 29.8594,271.5625 L29.8594,273.0156 Q29.8594,273.625 29.625,273.8906 Q29.3906,274.1563 29.0156,274.1563 Q28.6719,274.1563 28.4688,273.9531 Q28.2656,273.7656 28.1563,273.25 Q28.1094,272.8906 27.9219,272.7031 Q27.5938,272.3281 26.9844,272.1094 Q26.375,271.8906 25.75,271.8906 Q24.9844,271.8906 24.3438,272.2188 Q23.7188,272.5469 23.2188,273.2969 Q22.7344,274.0469 22.7344,275.0781 L22.7344,276.1719 Q22.7344,277.4063 23.625,278.2344 Q24.5156,279.0469 26.1094,279.0469 Q27.0469,279.0469 27.7031,278.7969 Q28.0938,278.6406 28.5156,278.2031 Q28.7813,277.9375 28.9219,277.8594 Q29.0781,277.7813 29.2813,277.7813 Q29.6094,277.7813 29.8594,278.0469 Q30.125,278.2969 30.125,278.6406 Q30.125,278.9844 29.7813,279.3906 Q29.2813,279.9688 28.4844,280.2969 Q27.4063,280.75 26.1094,280.75 Q24.5938,280.75 23.3906,280.125 Q22.4063,279.625 21.7188,278.5625 Q21.0313,277.4844 21.0313,276.2031 L21.0313,275.0469 Q21.0313,273.7188 21.6406,272.5781 Q22.2656,271.4219 23.3594,270.8125 Q24.4531,270.1875 25.6875,270.1875 Q26.4219,270.1875 27.0625,270.3594 Q27.7188,270.5156 28.2656,270.875 Z " fill="#000000"/><text fill="#000000" font-family="sans-serif" font-size="14" lengthAdjust="spacing" textLength="53" x="39.5" y="280.7285">Criterios</text><line style="stroke:#181818;stroke-width:0.5;" x1="11.5" x2="94.5" y1="291" y2="291"/><line style="stroke:#181818;stroke-width:0.5;" x1="11.5" x2="94.5" y1="299" y2="299"/></g><!--link Decisor to Opciones--><g id="link_Decisor_Opciones"><path codeLine="7" d="M53,55.03 C53,77.17 53,110.44 53,132.67 " fill="none" id="Decisor-Opciones" style="stroke:#181818;stroke-width:1.0;"/><text fill="#000000" font-family="sans-serif" font-size="13" lengthAdjust="spacing" textLength="36" x="54" y="99.4951">eval&#250;a</text></g><!--link Opciones to Criterios--><g id="link_Opciones_Criterios"><path codeLine="8" d="M53,181.03 C53,203.17 53,236.44 53,258.67 " fill="none" id="Opciones-Criterios" style="stroke:#181818;stroke-width:1.0;"/><text fill="#000000" font-family="sans-serif" font-size="13" lengthAdjust="spacing" textLength="71" x="54" y="225.4951">se filtran por</text></g><!--link Criterios to Decision--><g id="link_Criterios_Decision"><path codeLine="9" d="M53,307.03 C53,329.17 53,362.44 53,384.67 " fill="none" id="Criterios-Decision" style="stroke:#181818;stroke-width:1.0;"/><text fill="#000000" font-family="sans-serif" font-size="13" lengthAdjust="spacing" textLength="46" x="54" y="351.4951">produce</text></g><!--SRC=[HOun3e0m201tNi47-W5NtNr3WvYGD6q3rSUv-Z4PQZiUTmGeHJFScCIaPA29HJljbLonTLnL6giK0-WTXZ0YN93lcDudmXYv7alkZV6Kr3Hch7vaAk_-HpohMewB63u0]--></g></svg>