<?xml version="1.0" encoding="us-ascii" standalone="no"?><svg xmlns="http://www.w3.org/2000/svg" xmlns:xlink="http://www.w3.org/1999/xlink" contentStyleType="text/css" height="491px" preserveAspectRatio="none" style="width:233px;height:491px;background:#FFFFFF;" version="1.1" viewBox="0 0 233 491" width="233px" zoomAndPan="magnify"><defs/><g><!--cluster Sombra--><g id="cluster_Sombra"><path d="M8.5,6 L62.5,6 A3.75,3.75 0 0 1 65,8.5 L72,29.6094 L223.5,29.6094 A2.5,2.5 0 0 1 226,32.1094 L226,481.5 A2.5,2.5 0 0 1 223.5,484 L8.5,484 A2.5,2.5 0 0 1 6,481.5 L6,8.5 A2.5,2.5 0 0 1 8.5,6 " fill="none" style="stroke:#000000;stroke-width:1.5;"/><line style="stroke:#000000;stroke-width:1.5;" x1="6" x2="72" y1="29.6094" y2="29.6094"/><text fill="#000000" font-family="sans-serif" font-size="14" font-weight="bold" lengthAdjust="spacing" textLength="53" x="10" y="22.5332">Sombra</text></g><!--class FocoDeLuz--><g id="elem_FocoDeLuz"><rect fill="#F1F1F1" height="48" id="FocoDeLuz" rx="2.5" ry="2.5" style="stroke:#181818;stroke-width:0.5;" width="104" x="49" y="42"/><ellipse cx="64" cy="58" fill="#ADD1B2" rx="11" ry="11" style="stroke:#181818;stroke-width:1.0;"/><path d="M66.7656,53.875 Q66.9219,53.6563 67.1094,53.5469 Q67.2969,53.4375 67.5156,53.4375 Q67.8906,53.4375 68.125,53.7031 Q68.3594,53.9531 68.3594,54.5625 L68.3594,56.0156 Q68.3594,56.625 68.125,56.8906 Q67.8906,57.1563 67.5156,57.1563 Q67.1719,57.1563 66.9688,56.9531 Q66.7656,56.7656 66.6563,56.25 Q66.6094,55.8906 66.4219,55.7031 Q66.0938,55.3281 65.4844,55.1094 Q64.875,54.8906 64.25,54.8906 Q63.4844,54.8906 62.8438,55.2188 Q62.2188,55.5469 61.7188,56.2969 Q61.2344,57.0469 61.2344,58.0781 L61.2344,59.1719 Q61.2344,60.4063 62.125,61.2344 Q63.0156,62.0469 64.6094,62.0469 Q65.5469,62.0469 66.2031,61.7969 Q66.5938,61.6406 67.0156,61.2031 Q67.2813,60.9375 67.4219,60.8594 Q67.5781,60.7813 67.7813,60.7813 Q68.1094,60.7813 68.3594,61.0469 Q68.625,61.2969 68.625,61.6406 Q68.625,61.9844 68.2813,62.3906 Q67.7813,62.9688 66.9844,63.2969 Q65.9063,63.75 64.6094,63.75 Q63.0938,63.75 61.8906,63.125 Q60.9063,62.625 60.2188,61.5625 Q59.5313,60.4844 59.5313,59.2031 L59.5313,58.0469 Q59.5313,56.7188 60.1406,55.5781 Q60.7656,54.4219 61.8594,53.8125 Q62.9531,53.1875 64.1875,53.1875 Q64.9219,53.1875 65.5625,53.3594 Q66.2188,53.5156 66.7656,53.875 Z " fill="#000000"/><text fill="#000000" font-family="sans-serif" font-size="14" lengthAdjust="spacing" textLength="72" x="78" y="63.7285">FocoDeLuz</text><line style="stroke:#181818;stroke-width:0.5;" x1="50" x2="152" y1="74" y2="74"/><line style="stroke:#181818;stroke-width:0.5;" x1="50" x2="152" y1="82" y2="82"/></g><!--class Sombra--><g id="elem_Sombra"><rect fill="#F1F1F1" height="48" id="Sombra" rx="2.5" ry="2.5" style="stroke:#181818;stroke-width:0.5;" width="81" x="72.5" y="294"/><ellipse cx="87.5" cy="310" fill="#ADD1B2" rx="11" ry="11" style="stroke:#181818;stroke-width:1.0;"/><path d="M90.2656,305.875 Q90.4219,305.6563 90.6094,305.5469 Q90.7969,305.4375 91.0156,305.4375 Q91.3906,305.4375 91.625,305.7031 Q91.8594,305.9531 91.8594,306.5625 L91.8594,308.0156 Q91.8594,308.625 91.625,308.8906 Q91.3906,309.1563 91.0156,309.1563 Q90.6719,309.1563 90.4688,308.9531 Q90.2656,308.7656 90.1563,308.25 Q90.1094,307.8906 89.9219,307.7031 Q89.5938,307.3281 88.9844,307.1094 Q88.375,306.8906 87.75,306.8906 Q86.9844,306.8906 86.3438,307.2188 Q85.7188,307.5469 85.2188,308.2969 Q84.7344,309.0469 84.7344,310.0781 L84.7344,311.1719 Q84.7344,312.4063 85.625,313.2344 Q86.5156,314.0469 88.1094,314.0469 Q89.0469,314.0469 89.7031,313.7969 Q90.0938,313.6406 90.5156,313.2031 Q90.7813,312.9375 90.9219,312.8594 Q91.0781,312.7813 91.2813,312.7813 Q91.6094,312.7813 91.8594,313.0469 Q92.125,313.2969 92.125,313.6406 Q92.125,313.9844 91.7813,314.3906 Q91.2813,314.9688 90.4844,315.2969 Q89.4063,315.75 88.1094,315.75 Q86.5938,315.75 85.3906,315.125 Q84.4063,314.625 83.7188,313.5625 Q83.0313,312.4844 83.0313,311.2031 L83.0313,310.0469 Q83.0313,308.7188 83.6406,307.5781 Q84.2656,306.4219 85.3594,305.8125 Q86.4531,305.1875 87.6875,305.1875 Q88.4219,305.1875 89.0625,305.3594 Q89.7188,305.5156 90.2656,305.875 Z " fill="#000000"/><text fill="#000000" font-family="sans-serif" font-size="14" lengthAdjust="spacing" textLength="49" x="101.5" y="315.7285">Sombra</text><line style="stroke:#181818;stroke-width:0.5;" x1="73.5" x2="152.5" y1="326" y2="326"/><line style="stroke:#181818;stroke-width:0.5;" x1="73.5" x2="152.5" y1="334" y2="334"/></g><!--class Objeto--><g id="elem_Objeto"><rect fill="#F1F1F1" height="48" id="Objeto" rx="2.5" ry="2.5" style="stroke:#181818;stroke-width:0.5;" width="74" x="136" y="168"/><ellipse cx="151" cy="184" fill="#ADD1B2" rx="11" ry="11" style="stroke:#181818;stroke-width:1.0;"/><path d="M153.7656,179.875 Q153.9219,179.6563 154.1094,179.5469 Q154.2969,179.4375 154.5156,179.4375 Q154.8906,179.4375 155.125,179.7031 Q155.3594,179.9531 155.3594,180.5625 L155.3594,182.0156 Q155.3594,182.625 155.125,182.8906 Q154.8906,183.1563 154.5156,183.1563 Q154.1719,183.1563 153.9688,182.9531 Q153.7656,182.7656 153.6563,182.25 Q153.6094,181.8906 153.4219,181.7031 Q153.0938,181.3281 152.4844,181.1094 Q151.875,180.8906 151.25,180.8906 Q150.4844,180.8906 149.8438,181.2188 Q149.2188,181.5469 148.7188,182.2969 Q148.2344,183.0469 148.2344,184.0781 L148.2344,185.1719 Q148.2344,186.4063 149.125,187.2344 Q150.0156,188.0469 151.6094,188.0469 Q152.5469,188.0469 153.2031,187.7969 Q153.5938,187.6406 154.0156,187.2031 Q154.2813,186.9375 154.4219,186.8594 Q154.5781,186.7813 154.7813,186.7813 Q155.1094,186.7813 155.3594,187.0469 Q155.625,187.2969 155.625,187.6406 Q155.625,187.9844 155.2813,188.3906 Q154.7813,188.9688 153.9844,189.2969 Q152.9063,189.75 151.6094,189.75 Q150.0938,189.75 148.8906,189.125 Q147.9063,188.625 147.2188,187.5625 Q146.5313,186.4844 146.5313,185.2031 L146.5313,184.0469 Q146.5313,182.7188 147.1406,181.5781 Q147.7656,180.4219 148.8594,179.8125 Q149.9531,179.1875 151.1875,179.1875 Q151.9219,179.1875 152.5625,179.3594 Q153.2188,179.5156 153.7656,179.875 Z " fill="#000000"/><text fill="#000000" font-family="sans-serif" font-size="14" lengthAdjust="spacing" textLength="42" x="165" y="189.7285">Objeto</text><line style="stroke:#181818;stroke-width:0.5;" x1="137" x2="209" y1="200" y2="200"/><line style="stroke:#181818;stroke-width:0.5;" x1="137" x2="209" y1="208" y2="208"/></g><!--class Superficie--><g id="elem_Superficie"><rect fill="#F1F1F1" height="48" id="Superficie" rx="2.5" ry="2.5" style="stroke:#181818;stroke-width:0.5;" width="95" x="65.5" y="420"/><ellipse cx="80.5" cy="436" fill="#ADD1B2" rx="11" ry="11" style="stroke:#181818;stroke-width:1.0;"/><path d="M83.2656,431.875 Q83.4219,431.6563 83.6094,431.5469 Q83.7969,431.4375 84.0156,431.4375 Q84.3906,431.4375 84.625,431.7031 Q84.8594,431.9531 84.8594,432.5625 L84.8594,434.0156 Q84.8594,434.625 84.625,434.8906 Q84.3906,435.1563 84.0156,435.1563 Q83.6719,435.1563 83.4688,434.9531 Q83.2656,434.7656 83.1563,434.25 Q83.1094,433.8906 82.9219,433.7031 Q82.5938,433.3281 81.9844,433.1094 Q81.375,432.8906 80.75,432.8906 Q79.9844,432.8906 79.3438,433.2188 Q78.7188,433.5469 78.2188,434.2969 Q77.7344,435.0469 77.7344,436.0781 L77.7344,437.1719 Q77.7344,438.4063 78.625,439.2344 Q79.5156,440.0469 81.1094,440.0469 Q82.0469,440.0469 82.7031,439.7969 Q83.0938,439.6406 83.5156,439.2031 Q83.7813,438.9375 83.9219,438.8594 Q84.0781,438.7813 84.2813,438.7813 Q84.6094,438.7813 84.8594,439.0469 Q85.125,439.2969 85.125,439.6406 Q85.125,439.9844 84.7813,440.3906 Q84.2813,440.9688 83.4844,441.2969 Q82.4063,441.75 81.1094,441.75 Q79.5938,441.75 78.3906,441.125 Q77.4063,440.625 76.7188,439.5625 Q76.0313,438.4844 76.0313,437.2031 L76.0313,436.0469 Q76.0313,434.7188 76.6406,433.5781 Q77.2656,432.4219 78.3594,431.8125 Q79.4531,431.1875 80.6875,431.1875 Q81.4219,431.1875 82.0625,431.3594 Q82.7188,431.5156 83.2656,431.875 Z " fill="#000000"/><text fill="#000000" font-family="sans-serif" font-size="14" lengthAdjust="spacing" textLength="63" x="94.5" y="441.7285">Superficie</text><line style="stroke:#181818;stroke-width:0.5;" x1="66.5" x2="159.5" y1="452" y2="452"/><line style="stroke:#181818;stroke-width:0.5;" x1="66.5" x2="159.5" y1="460" y2="460"/></g><!--link FocoDeLuz to Sombra--><g id="link_FocoDeLuz_Sombra"><path codeLine="3" d="M91.83,90.25 C81.43,119.58 66.92,171.56 75,216 C80.03,243.65 89.7,268.1203 98.93,288.1603 " fill="none" id="FocoDeLuz-to-Sombra" style="stroke:#181818;stroke-width:1.0;stroke-dasharray:7.0,7.0;"/><polygon fill="#181818" points="101.44,293.61,101.3081,283.762,99.3483,289.0685,94.0418,287.1087,101.44,293.61" style="stroke:#181818;stroke-width:1.0;"/><text fill="#000000" font-family="sans-serif" font-size="13" lengthAdjust="spacing" textLength="42" x="76" y="197.4951">Genera</text></g><!--link FocoDeLuz to Objeto--><g id="link_FocoDeLuz_Objeto"><path codeLine="5" d="M114.37,90.03 C127.22,112.17 143.5268,140.2515 156.4368,162.4815 " fill="none" id="FocoDeLuz-to-Objeto" style="stroke:#181818;stroke-width:1.0;"/><polygon fill="#181818" points="159.45,167.67,158.3892,157.8784,156.939,163.3462,151.4712,161.896,159.45,167.67" style="stroke:#181818;stroke-width:1.0;"/><text fill="#000000" font-family="sans-serif" font-size="13" lengthAdjust="spacing" textLength="41" x="142" y="134.4951">Ilumina</text></g><!--link Objeto to Sombra--><g id="link_Objeto_Sombra"><path codeLine="7" d="M135.73,215.44 C125.46,223.66 115.61,233.95 110,246 C103.07,260.88 103.0834,273.5574 105.7134,287.9774 " fill="none" id="Objeto-to-Sombra" style="stroke:#181818;stroke-width:1.0;"/><polygon fill="#181818" points="106.79,293.88,109.1103,284.3084,105.8929,288.9611,101.2401,285.7438,106.79,293.88" style="stroke:#181818;stroke-width:1.0;"/><text fill="#000000" font-family="sans-serif" font-size="13" lengthAdjust="spacing" textLength="52" x="111" y="260.4951">Proyecta</text></g><!--reverse link Objeto to Sombra--><g id="link_Objeto_Sombra"><path codeLine="9" d="M175.697,222.1053 C176.267,236.5253 174.96,249.11 168,264 C162.72,275.29 153.91,285.44 144.86,293.76 " fill="none" id="Objeto-backto-Sombra" style="stroke:#181818;stroke-width:1.0;"/><polygon fill="#181818" points="175.46,216.11,171.8186,225.261,175.6575,221.1061,179.8124,224.945,175.46,216.11" style="stroke:#181818;stroke-width:1.0;"/></g><!--link Sombra to Superficie--><g id="link_Sombra_Superficie"><path codeLine="11" d="M113,342.03 C113,364.17 113,391.44 113,413.67 " fill="none" id="Sombra-to-Superficie" style="stroke:#181818;stroke-width:1.0;stroke-dasharray:7.0,7.0;"/><polygon fill="#181818" points="113,419.67,117,410.67,113,414.67,109,410.67,113,419.67" style="stroke:#181818;stroke-width:1.0;"/><text fill="#000000" font-family="sans-serif" font-size="13" lengthAdjust="spacing" textLength="70" x="114" y="386.4951">Se proyecta</text></g><!--SRC=[AqXCpavCJrLG2ixFJIfAL5Aevk9I00At_EHybrIVqYe5FJqx1OYaWfM2adjgNYfG6ReYNLqx1V-ahDIIV90YpvpItCmyc2geE4W9mfo0elpArEGID3KskhemDH1nA0ViXjA2rAAqpEJCLA3su5I50eG9jG00]--></g></svg>