<?xml version="1.0" encoding="us-ascii" standalone="no"?><svg xmlns="http://www.w3.org/2000/svg" xmlns:xlink="http://www.w3.org/1999/xlink" contentStyleType="text/css" height="440px" preserveAspectRatio="none" style="width:313px;height:440px;background:#FFFFFF;" version="1.1" viewBox="0 0 313 440" width="313px" zoomAndPan="magnify"><defs/><g><!--class FuenteDeSonido--><g id="elem_FuenteDeSonido"><rect codeLine="1" fill="#F1F1F1" height="48" id="FuenteDeSonido" rx="2.5" ry="2.5" style="stroke:#181818;stroke-width:0.5;" width="139" x="97.5" y="7"/><ellipse cx="112.5" cy="23" fill="#ADD1B2" rx="11" ry="11" style="stroke:#181818;stroke-width:1.0;"/><path d="M115.2656,18.875 Q115.4219,18.6563 115.6094,18.5469 Q115.7969,18.4375 116.0156,18.4375 Q116.3906,18.4375 116.625,18.7031 Q116.8594,18.9531 116.8594,19.5625 L116.8594,21.0156 Q116.8594,21.625 116.625,21.8906 Q116.3906,22.1563 116.0156,22.1563 Q115.6719,22.1563 115.4688,21.9531 Q115.2656,21.7656 115.1563,21.25 Q115.1094,20.8906 114.9219,20.7031 Q114.5938,20.3281 113.9844,20.1094 Q113.375,19.8906 112.75,19.8906 Q111.9844,19.8906 111.3438,20.2188 Q110.7188,20.5469 110.2188,21.2969 Q109.7344,22.0469 109.7344,23.0781 L109.7344,24.1719 Q109.7344,25.4063 110.625,26.2344 Q111.5156,27.0469 113.1094,27.0469 Q114.0469,27.0469 114.7031,26.7969 Q115.0938,26.6406 115.5156,26.2031 Q115.7813,25.9375 115.9219,25.8594 Q116.0781,25.7813 116.2813,25.7813 Q116.6094,25.7813 116.8594,26.0469 Q117.125,26.2969 117.125,26.6406 Q117.125,26.9844 116.7813,27.3906 Q116.2813,27.9688 115.4844,28.2969 Q114.4063,28.75 113.1094,28.75 Q111.5938,28.75 110.3906,28.125 Q109.4063,27.625 108.7188,26.5625 Q108.0313,25.4844 108.0313,24.2031 L108.0313,23.0469 Q108.0313,21.7188 108.6406,20.5781 Q109.2656,19.4219 110.3594,18.8125 Q111.4531,18.1875 112.6875,18.1875 Q113.4219,18.1875 114.0625,18.3594 Q114.7188,18.5156 115.2656,18.875 Z " fill="#000000"/><text fill="#000000" font-family="sans-serif" font-size="14" lengthAdjust="spacing" textLength="107" x="126.5" y="28.7285">FuenteDeSonido</text><line style="stroke:#181818;stroke-width:0.5;" x1="98.5" x2="235.5" y1="39" y2="39"/><line style="stroke:#181818;stroke-width:0.5;" x1="98.5" x2="235.5" y1="47" y2="47"/></g><!--class Medio--><g id="elem_Medio"><rect codeLine="2" fill="#F1F1F1" height="48" id="Medio" rx="2.5" ry="2.5" style="stroke:#181818;stroke-width:0.5;" width="70" x="132" y="133"/><ellipse cx="147" cy="149" fill="#ADD1B2" rx="11" ry="11" style="stroke:#181818;stroke-width:1.0;"/><path d="M149.7656,144.875 Q149.9219,144.6563 150.1094,144.5469 Q150.2969,144.4375 150.5156,144.4375 Q150.8906,144.4375 151.125,144.7031 Q151.3594,144.9531 151.3594,145.5625 L151.3594,147.0156 Q151.3594,147.625 151.125,147.8906 Q150.8906,148.1563 150.5156,148.1563 Q150.1719,148.1563 149.9688,147.9531 Q149.7656,147.7656 149.6563,147.25 Q149.6094,146.8906 149.4219,146.7031 Q149.0938,146.3281 148.4844,146.1094 Q147.875,145.8906 147.25,145.8906 Q146.4844,145.8906 145.8438,146.2188 Q145.2188,146.5469 144.7188,147.2969 Q144.2344,148.0469 144.2344,149.0781 L144.2344,150.1719 Q144.2344,151.4063 145.125,152.2344 Q146.0156,153.0469 147.6094,153.0469 Q148.5469,153.0469 149.2031,152.7969 Q149.5938,152.6406 150.0156,152.2031 Q150.2813,151.9375 150.4219,151.8594 Q150.5781,151.7813 150.7813,151.7813 Q151.1094,151.7813 151.3594,152.0469 Q151.625,152.2969 151.625,152.6406 Q151.625,152.9844 151.2813,153.3906 Q150.7813,153.9688 149.9844,154.2969 Q148.9063,154.75 147.6094,154.75 Q146.0938,154.75 144.8906,154.125 Q143.9063,153.625 143.2188,152.5625 Q142.5313,151.4844 142.5313,150.2031 L142.5313,149.0469 Q142.5313,147.7188 143.1406,146.5781 Q143.7656,145.4219 144.8594,144.8125 Q145.9531,144.1875 147.1875,144.1875 Q147.9219,144.1875 148.5625,144.3594 Q149.2188,144.5156 149.7656,144.875 Z " fill="#000000"/><text fill="#000000" font-family="sans-serif" font-size="14" lengthAdjust="spacing" textLength="38" x="161" y="154.7285">Medio</text><line style="stroke:#181818;stroke-width:0.5;" x1="133" x2="201" y1="165" y2="165"/><line style="stroke:#181818;stroke-width:0.5;" x1="133" x2="201" y1="173" y2="173"/></g><!--class SuperficieReflectora--><g id="elem_SuperficieReflectora"><rect codeLine="3" fill="#F1F1F1" height="48" id="SuperficieReflectora" rx="2.5" ry="2.5" style="stroke:#181818;stroke-width:0.5;" width="160" x="7" y="259"/><ellipse cx="22" cy="275" fill="#ADD1B2" rx="11" ry="11" style="stroke:#181818;stroke-width:1.0;"/><path d="M24.7656,270.875 Q24.9219,270.6563 25.1094,270.5469 Q25.2969,270.4375 25.5156,270.4375 Q25.8906,270.4375 26.125,270.7031 Q26.3594,270.9531 26.3594,271.5625 L26.3594,273.0156 Q26.3594,273.625 26.125,273.8906 Q25.8906,274.1563 25.5156,274.1563 Q25.1719,274.1563 24.9688,273.9531 Q24.7656,273.7656 24.6563,273.25 Q24.6094,272.8906 24.4219,272.7031 Q24.0938,272.3281 23.4844,272.1094 Q22.875,271.8906 22.25,271.8906 Q21.4844,271.8906 20.8438,272.2188 Q20.2188,272.5469 19.7188,273.2969 Q19.2344,274.0469 19.2344,275.0781 L19.2344,276.1719 Q19.2344,277.4063 20.125,278.2344 Q21.0156,279.0469 22.6094,279.0469 Q23.5469,279.0469 24.2031,278.7969 Q24.5938,278.6406 25.0156,278.2031 Q25.2813,277.9375 25.4219,277.8594 Q25.5781,277.7813 25.7813,277.7813 Q26.1094,277.7813 26.3594,278.0469 Q26.625,278.2969 26.625,278.6406 Q26.625,278.9844 26.2813,279.3906 Q25.7813,279.9688 24.9844,280.2969 Q23.9063,280.75 22.6094,280.75 Q21.0938,280.75 19.8906,280.125 Q18.9063,279.625 18.2188,278.5625 Q17.5313,277.4844 17.5313,276.2031 L17.5313,275.0469 Q17.5313,273.7188 18.1406,272.5781 Q18.7656,271.4219 19.8594,270.8125 Q20.9531,270.1875 22.1875,270.1875 Q22.9219,270.1875 23.5625,270.3594 Q24.2188,270.5156 24.7656,270.875 Z " fill="#000000"/><text fill="#000000" font-family="sans-serif" font-size="14" lengthAdjust="spacing" textLength="128" x="36" y="280.7285">SuperficieReflectora</text><line style="stroke:#181818;stroke-width:0.5;" x1="8" x2="166" y1="291" y2="291"/><line style="stroke:#181818;stroke-width:0.5;" x1="8" x2="166" y1="299" y2="299"/></g><!--class Receptor--><g id="elem_Receptor"><rect codeLine="4" fill="#F1F1F1" height="48" id="Receptor" rx="2.5" ry="2.5" style="stroke:#181818;stroke-width:0.5;" width="90" x="202" y="259"/><ellipse cx="217" cy="275" fill="#ADD1B2" rx="11" ry="11" style="stroke:#181818;stroke-width:1.0;"/><path d="M219.7656,270.875 Q219.9219,270.6563 220.1094,270.5469 Q220.2969,270.4375 220.5156,270.4375 Q220.8906,270.4375 221.125,270.7031 Q221.3594,270.9531 221.3594,271.5625 L221.3594,273.0156 Q221.3594,273.625 221.125,273.8906 Q220.8906,274.1563 220.5156,274.1563 Q220.1719,274.1563 219.9688,273.9531 Q219.7656,273.7656 219.6563,273.25 Q219.6094,272.8906 219.4219,272.7031 Q219.0938,272.3281 218.4844,272.1094 Q217.875,271.8906 217.25,271.8906 Q216.4844,271.8906 215.8438,272.2188 Q215.2188,272.5469 214.7188,273.2969 Q214.2344,274.0469 214.2344,275.0781 L214.2344,276.1719 Q214.2344,277.4063 215.125,278.2344 Q216.0156,279.0469 217.6094,279.0469 Q218.5469,279.0469 219.2031,278.7969 Q219.5938,278.6406 220.0156,278.2031 Q220.2813,277.9375 220.4219,277.8594 Q220.5781,277.7813 220.7813,277.7813 Q221.1094,277.7813 221.3594,278.0469 Q221.625,278.2969 221.625,278.6406 Q221.625,278.9844 221.2813,279.3906 Q220.7813,279.9688 219.9844,280.2969 Q218.9063,280.75 217.6094,280.75 Q216.0938,280.75 214.8906,280.125 Q213.9063,279.625 213.2188,278.5625 Q212.5313,277.4844 212.5313,276.2031 L212.5313,275.0469 Q212.5313,273.7188 213.1406,272.5781 Q213.7656,271.4219 214.8594,270.8125 Q215.9531,270.1875 217.1875,270.1875 Q217.9219,270.1875 218.5625,270.3594 Q219.2188,270.5156 219.7656,270.875 Z " fill="#000000"/><text fill="#000000" font-family="sans-serif" font-size="14" lengthAdjust="spacing" textLength="58" x="231" y="280.7285">Receptor</text><line style="stroke:#181818;stroke-width:0.5;" x1="203" x2="291" y1="291" y2="291"/><line style="stroke:#181818;stroke-width:0.5;" x1="203" x2="291" y1="299" y2="299"/></g><!--class Eco--><g id="elem_Eco"><rect codeLine="5" fill="#F1F1F1" height="48" id="Eco" rx="2.5" ry="2.5" style="stroke:#181818;stroke-width:0.5;" width="56" x="219" y="385"/><ellipse cx="234" cy="401" fill="#ADD1B2" rx="11" ry="11" style="stroke:#181818;stroke-width:1.0;"/><path d="M236.7656,396.875 Q236.9219,396.6563 237.1094,396.5469 Q237.2969,396.4375 237.5156,396.4375 Q237.8906,396.4375 238.125,396.7031 Q238.3594,396.9531 238.3594,397.5625 L238.3594,399.0156 Q238.3594,399.625 238.125,399.8906 Q237.8906,400.1563 237.5156,400.1563 Q237.1719,400.1563 236.9688,399.9531 Q236.7656,399.7656 236.6563,399.25 Q236.6094,398.8906 236.4219,398.7031 Q236.0938,398.3281 235.4844,398.1094 Q234.875,397.8906 234.25,397.8906 Q233.4844,397.8906 232.8438,398.2188 Q232.2188,398.5469 231.7188,399.2969 Q231.2344,400.0469 231.2344,401.0781 L231.2344,402.1719 Q231.2344,403.4063 232.125,404.2344 Q233.0156,405.0469 234.6094,405.0469 Q235.5469,405.0469 236.2031,404.7969 Q236.5938,404.6406 237.0156,404.2031 Q237.2813,403.9375 237.4219,403.8594 Q237.5781,403.7813 237.7813,403.7813 Q238.1094,403.7813 238.3594,404.0469 Q238.625,404.2969 238.625,404.6406 Q238.625,404.9844 238.2813,405.3906 Q237.7813,405.9688 236.9844,406.2969 Q235.9063,406.75 234.6094,406.75 Q233.0938,406.75 231.8906,406.125 Q230.9063,405.625 230.2188,404.5625 Q229.5313,403.4844 229.5313,402.2031 L229.5313,401.0469 Q229.5313,399.7188 230.1406,398.5781 Q230.7656,397.4219 231.8594,396.8125 Q232.9531,396.1875 234.1875,396.1875 Q234.9219,396.1875 235.5625,396.3594 Q236.2188,396.5156 236.7656,396.875 Z " fill="#000000"/><text fill="#000000" font-family="sans-serif" font-size="14" lengthAdjust="spacing" textLength="24" x="248" y="406.7285">Eco</text><line style="stroke:#181818;stroke-width:0.5;" x1="220" x2="274" y1="417" y2="417"/><line style="stroke:#181818;stroke-width:0.5;" x1="220" x2="274" y1="425" y2="425"/></g><!--link FuenteDeSonido to Medio--><g id="link_FuenteDeSonido_Medio"><path codeLine="6" d="M167,55.03 C167,77.17 167,104.44 167,126.67 " fill="none" id="FuenteDeSonido-to-Medio" style="stroke:#181818;stroke-width:1.0;"/><polygon fill="#181818" points="167,132.67,171,123.67,167,127.67,163,123.67,167,132.67" style="stroke:#181818;stroke-width:1.0;"/><text fill="#000000" font-family="sans-serif" font-size="13" lengthAdjust="spacing" textLength="92" x="168" y="99.4951">viaja a trav&#233;s de</text></g><!--link Medio to SuperficieReflectora--><g id="link_Medio_SuperficieReflectora"><path codeLine="7" d="M131.68,170.91 C113.98,179.39 94.19,192.41 84,211 C76.06,225.5 76.0656,238.3881 79.0056,252.9881 " fill="none" id="Medio-to-SuperficieReflectora" style="stroke:#181818;stroke-width:1.0;"/><polygon fill="#181818" points="80.19,258.87,82.3346,249.2575,79.203,253.9684,74.492,250.8367,80.19,258.87" style="stroke:#181818;stroke-width:1.0;"/><text fill="#000000" font-family="sans-serif" font-size="13" lengthAdjust="spacing" textLength="38" x="85" y="225.4951">llega a</text></g><!--link SuperficieReflectora to Medio--><g id="link_SuperficieReflectora_Medio"><path codeLine="8" d="M106.18,258.83 C113.36,249.76 121.37,239.12 128,229 C138.1,213.59 145.3171,200.686 152.6471,186.556 " fill="none" id="SuperficieReflectora-to-Medio" style="stroke:#181818;stroke-width:1.0;"/><polygon fill="#181818" points="155.41,181.23,147.715,187.3771,153.1076,185.6683,154.8163,191.0609,155.41,181.23" style="stroke:#181818;stroke-width:1.0;"/><text fill="#000000" font-family="sans-serif" font-size="13" lengthAdjust="spacing" textLength="34" x="139" y="225.4951">refleja</text></g><!--link Medio to Receptor--><g id="link_Medio_Receptor"><path codeLine="9" d="M181.86,181.03 C196.14,203.17 214.3575,231.398 228.6975,253.628 " fill="none" id="Medio-to-Receptor" style="stroke:#181818;stroke-width:1.0;"/><polygon fill="#181818" points="231.95,258.67,230.4326,248.9387,229.2396,254.4684,223.71,253.2753,231.95,258.67" style="stroke:#181818;stroke-width:1.0;"/><text fill="#000000" font-family="sans-serif" font-size="13" lengthAdjust="spacing" textLength="93" x="212" y="225.4951">llega de nuevo a</text></g><!--link Receptor to Eco--><g id="link_Receptor_Eco"><path codeLine="10" d="M247,307.03 C247,329.17 247,356.44 247,378.67 " fill="none" id="Receptor-to-Eco" style="stroke:#181818;stroke-width:1.0;"/><polygon fill="#181818" points="247,384.67,251,375.67,247,379.67,243,375.67,247,384.67" style="stroke:#181818;stroke-width:1.0;"/><text fill="#000000" font-family="sans-serif" font-size="13" lengthAdjust="spacing" textLength="42" x="248" y="351.4951">percibe</text></g><!--SRC=[ROun3eCm34NtdCBApWKwT6gxTO4JkCwd2ee82WbtwZcuM9C2RP7ORF_lzxyu7aUw9VGH5pI-jyOh-HplC7QRcpGWj5OiQhGE4dtWLQeX6FA-hbVnQe-ZgZelC3gHdYntJ4mny3I_HZBGQX6BxIYdV3c7P_xIwj2m2mZbtl4_TQlu8nbGdp3vWlognPhh5rSE4Vk0VWC0]--></g></svg>