<svg xmlns="http://www.w3.org/2000/svg" xmlns:xlink="http://www.w3.org/1999/xlink" contentStyleType="text/css" height="509px" preserveAspectRatio="none" style="width:540px;height:509px;background:#FFFFFF;" version="1.1" viewBox="0 0 540 509" width="540px" zoomAndPan="magnify"><defs/><g><g id="elem_Sol"><rect fill="#F1F1F1" height="60.8906" style="stroke:#181818;stroke-width:0.5;" width="200.6104" x="59.05" y="111.59"/><text fill="#000000" font-family="sans-serif" font-size="14" lengthAdjust="spacing" textLength="21.3418" x="148.6843" y="126.5851">Sol</text><line style="stroke:#181818;stroke-width:0.5;" x1="60.05" x2="258.6604" y1="131.8869" y2="131.8869"/><text fill="#000000" font-family="sans-serif" font-size="14" lengthAdjust="spacing" textLength="116.1699" x="65.05" y="148.882">intensidad = 1.0</text><text fill="#000000" font-family="sans-serif" font-size="14" lengthAdjust="spacing" textLength="188.6104" x="65.05" y="165.1789">longitudOnda = [400, 700]</text></g><g id="elem_Gota1"><rect fill="#F1F1F1" height="60.8906" style="stroke:#181818;stroke-width:0.5;" width="179.9795" x="73.37" y="232.48"/><text fill="#000000" font-family="sans-serif" font-size="14" lengthAdjust="spacing" textLength="42.3896" x="142.1649" y="247.4751">Gota1</text><line style="stroke:#181818;stroke-width:0.5;" x1="74.37" x2="252.3495" y1="252.7769" y2="252.7769"/><text fill="#000000" font-family="sans-serif" font-size="14" lengthAdjust="spacing" textLength="87.4795" x="79.37" y="269.772">radio = 0.05</text><text fill="#000000" font-family="sans-serif" font-size="14" lengthAdjust="spacing" textLength="167.9795" x="79.37" y="286.0689">&#237;ndiceRefracci&#243;n = 1.33</text></g><g id="elem_Gota2"><rect fill="#F1F1F1" height="60.8906" style="stroke:#181818;stroke-width:0.5;" width="179.9795" x="288.37" y="232.48"/><text fill="#000000" font-family="sans-serif" font-size="14" lengthAdjust="spacing" textLength="42.3896" x="357.1649" y="247.4751">Gota2</text><line style="stroke:#181818;stroke-width:0.5;" x1="289.37" x2="467.3495" y1="252.7769" y2="252.7769"/><text fill="#000000" font-family="sans-serif" font-size="14" lengthAdjust="spacing" textLength="87.4795" x="294.37" y="269.772">radio = 0.05</text><text fill="#000000" font-family="sans-serif" font-size="14" lengthAdjust="spacing" textLength="167.9795" x="294.37" y="286.0689">&#237;ndiceRefracci&#243;n = 1.33</text></g><g id="elem_NubeGrande"><rect fill="#F1F1F1" height="44.5938" style="stroke:#181818;stroke-width:0.5;" width="169.5068" x="297.61" y="7"/><text fill="#000000" font-family="sans-serif" font-size="14" lengthAdjust="spacing" textLength="88.4023" x="338.1622" y="21.9951">NubeGrande</text><line style="stroke:#181818;stroke-width:0.5;" x1="298.61" x2="466.1168" y1="27.2969" y2="27.2969"/><text fill="#000000" font-family="sans-serif" font-size="14" lengthAdjust="spacing" textLength="157.5068" x="303.61" y="44.292">cantidadAgua = 500.0</text></g><g id="elem_LluviaFina"><rect fill="#F1F1F1" height="44.5938" style="stroke:#181818;stroke-width:0.5;" width="176.0488" x="294.33" y="119.74"/><text fill="#000000" font-family="sans-serif" font-size="14" lengthAdjust="spacing" textLength="70.7109" x="346.9989" y="134.7351">LluviaFina</text><line style="stroke:#181818;stroke-width:0.5;" x1="295.33" x2="469.3788" y1="140.0369" y2="140.0369"/><text fill="#000000" font-family="sans-serif" font-size="14" lengthAdjust="spacing" textLength="164.0488" x="300.33" y="157.032">gotas = [Gota1, Gota2]</text></g><g id="elem_ArcoIrisVisible"><rect fill="#F1F1F1" height="44.5938" style="stroke:#181818;stroke-width:0.5;" width="526.7188" x="7" y="353.37"/><text fill="#000000" font-family="sans-serif" font-size="14" lengthAdjust="spacing" textLength="98.7041" x="221.0073" y="368.3651">ArcoIrisVisible</text><line style="stroke:#181818;stroke-width:0.5;" x1="8" x2="532.7188" y1="373.6669" y2="373.6669"/><text fill="#000000" font-family="sans-serif" font-size="14" lengthAdjust="spacing" textLength="514.7188" x="13" y="390.662">colores = ["Rojo", "Naranja", "Amarillo", "Verde", "Azul", "A&#241;il", "Violeta"]</text></g><g id="elem_Sara"><rect fill="#F1F1F1" height="44.5938" style="stroke:#181818;stroke-width:0.5;" width="145.7451" x="197.49" y="457.97"/><text fill="#000000" font-family="sans-serif" font-size="14" lengthAdjust="spacing" textLength="31.8008" x="254.4622" y="472.9651">Sara</text><line style="stroke:#181818;stroke-width:0.5;" x1="198.49" x2="342.2351" y1="478.2669" y2="478.2669"/><text fill="#000000" font-family="sans-serif" font-size="14" lengthAdjust="spacing" textLength="133.7451" x="203.49" y="495.262">posici&#243;n = (10, 15)</text></g><!--link Sol to Gota1--><g id="link_Sol_Gota1"><path codeLine="33" d="M160.36,172.73 C160.97,190.89 161.75,214.04 162.36,232.2 " fill="none" id="Sol-Gota1" style="stroke:#181818;stroke-width:1.0;"/></g><!--link Sol to Gota2--><g id="link_Sol_Gota2"><path codeLine="34" d="M214.34,172.88 C247.66,190.97 290.03,213.97 323.36,232.07 " fill="none" id="Sol-Gota2" style="stroke:#181818;stroke-width:1.0;"/></g><!--reverse link Gota1 to ArcoIrisVisible--><g id="link_Gota1_ArcoIrisVisible"><path codeLine="35" d="M200.3688,302.2293 C218.4488,320.9393 233.04,336.05 249.41,352.99 " fill="none" id="Gota1-backto-ArcoIrisVisible" style="stroke:#181818;stroke-width:1.0;"/><polygon fill="#181818" points="192.03,293.6,193.3229,300.6942,200.3688,302.2293,199.0758,295.1351,192.03,293.6" style="stroke:#181818;stroke-width:1.0;"/></g><!--reverse link Gota2 to ArcoIrisVisible--><g id="link_Gota2_ArcoIrisVisible"><path codeLine="36" d="M341.041,302.1902 C322.791,320.9002 308.02,336.05 291.5,352.99 " fill="none" id="Gota2-backto-ArcoIrisVisible" style="stroke:#181818;stroke-width:1.0;"/><polygon fill="#181818" points="349.42,293.6,342.3671,295.1021,341.041,302.1902,348.0939,300.6881,349.42,293.6" style="stroke:#181818;stroke-width:1.0;"/></g><!--link NubeGrande to LluviaFina--><g id="link_NubeGrande_LluviaFina"><path codeLine="37" d="M382.36,51.91 C382.36,71.42 382.36,99.98 382.36,119.48 " fill="none" id="NubeGrande-LluviaFina" style="stroke:#181818;stroke-width:1.0;"/></g><!--link LluviaFina to Gota1--><g id="link_LluviaFina_Gota1"><path codeLine="38" d="M342.45,164.7 C307.65,183.59 256.86,211.17 218.25,232.13 " fill="none" id="LluviaFina-Gota1" style="stroke:#181818;stroke-width:1.0;"/></g><!--link LluviaFina to Gota2--><g id="link_LluviaFina_Gota2"><path codeLine="39" d="M381.63,164.57 C381,183.44 380.07,211.06 379.36,232.06 " fill="none" id="LluviaFina-Gota2" style="stroke:#181818;stroke-width:1.0;"/></g><!--reverse link ArcoIrisVisible to Sara--><g id="link_ArcoIrisVisible_Sara"><path codeLine="40" d="M270.36,410.43 C270.36,427.84 270.36,440.13 270.36,457.54 " fill="none" id="ArcoIrisVisible-backto-Sara" style="stroke:#181818;stroke-width:1.0;"/><polygon fill="none" points="270.36,398.43,266.36,404.43,270.36,410.43,274.36,404.43,270.36,398.43" style="stroke:#181818;stroke-width:1.0;"/></g><!--SRC=[fL4nJiGm4Epz2YiLeDp9oH5HKQJXX8GEwKvAWoWsiOasCbxa91GWdaI1U48-Xks48mfqkB4zkvwT6LFPgAhZ1zBybN6tq7JAj2X1yakUh4K0DPaQkrxU6WaElZiN8kONGjopDyPefDXI1yb4Oa4YkKQn5ba0XdSZiL9xzM2Xgd3uD85ziraGfFyXsFMbsbemKaqi5PZEEydhtilEXAERzT_e_XdX2WrC_RLJq7f_mKiyAffxp6r5rnRR0biizN4CQR8gF8psr50KysW7JaW3_fW_WaMj0rmeArK0NteTzk43mw50qgg3Q3xku4Yc6K_KuhVjayIbdsIdlfFvdrkjnlJdbvID7tBcxWlPR4pwhyeiGbVz2OZDiZfE-usbR9aGkOgtyGK0]--></g></svg>
