<svg xmlns="http://www.w3.org/2000/svg" xmlns:xlink="http://www.w3.org/1999/xlink" contentStyleType="text/css" height="312px" preserveAspectRatio="none" style="width:258px;height:312px;background:#FFFFFF;" version="1.1" viewBox="0 0 258 312" width="258px" zoomAndPan="magnify"><defs/><g><!--class DatosAProyectar--><g id="elem_DatosAProyectar"><rect codeLine="1" fill="#F1F1F1" height="48" id="DatosAProyectar" rx="2.5" ry="2.5" style="stroke:#181818;stroke-width:0.5;" width="149.4688" x="42" y="7"/><ellipse cx="57" cy="23" fill="#ADD1B2" rx="11" ry="11" style="stroke:#181818;stroke-width:1.0;"/><path d="M59.9688,28.6406 Q59.3906,28.9375 58.75,29.0781 Q58.1094,29.2344 57.4063,29.2344 Q54.9063,29.2344 53.5781,27.5938 Q52.2656,25.9375 52.2656,22.8125 Q52.2656,19.6875 53.5781,18.0313 Q54.9063,16.375 57.4063,16.375 Q58.1094,16.375 58.75,16.5313 Q59.4063,16.6875 59.9688,16.9844 L59.9688,19.7031 Q59.3438,19.125 58.75,18.8594 Q58.1563,18.5781 57.5313,18.5781 Q56.1875,18.5781 55.5,19.6563 Q54.8125,20.7188 54.8125,22.8125 Q54.8125,24.9063 55.5,25.9844 Q56.1875,27.0469 57.5313,27.0469 Q58.1563,27.0469 58.75,26.7813 Q59.3438,26.5 59.9688,25.9219 L59.9688,28.6406 Z " fill="#000000"/><text fill="#000000" font-family="sans-serif" font-size="14" lengthAdjust="spacing" textLength="117.4688" x="71" y="27.8467">DatosAProyectar</text><line style="stroke:#181818;stroke-width:0.5;" x1="43" x2="190.4688" y1="39" y2="39"/><line style="stroke:#181818;stroke-width:0.5;" x1="43" x2="190.4688" y1="47" y2="47"/></g><!--class Proyector--><g id="elem_Proyector"><rect codeLine="4" fill="#F1F1F1" height="48" id="Proyector" rx="2.5" ry="2.5" style="stroke:#181818;stroke-width:0.5;" width="99.1699" x="7" y="132"/><ellipse cx="22" cy="148" fill="#ADD1B2" rx="11" ry="11" style="stroke:#181818;stroke-width:1.0;"/><path d="M24.9688,153.6406 Q24.3906,153.9375 23.75,154.0781 Q23.1094,154.2344 22.4063,154.2344 Q19.9063,154.2344 18.5781,152.5938 Q17.2656,150.9375 17.2656,147.8125 Q17.2656,144.6875 18.5781,143.0313 Q19.9063,141.375 22.4063,141.375 Q23.1094,141.375 23.75,141.5313 Q24.4063,141.6875 24.9688,141.9844 L24.9688,144.7031 Q24.3438,144.125 23.75,143.8594 Q23.1563,143.5781 22.5313,143.5781 Q21.1875,143.5781 20.5,144.6563 Q19.8125,145.7188 19.8125,147.8125 Q19.8125,149.9063 20.5,150.9844 Q21.1875,152.0469 22.5313,152.0469 Q23.1563,152.0469 23.75,151.7813 Q24.3438,151.5 24.9688,150.9219 L24.9688,153.6406 Z " fill="#000000"/><text fill="#000000" font-family="sans-serif" font-size="14" lengthAdjust="spacing" textLength="67.1699" x="36" y="152.8467">Proyector</text><line style="stroke:#181818;stroke-width:0.5;" x1="8" x2="105.1699" y1="164" y2="164"/><line style="stroke:#181818;stroke-width:0.5;" x1="8" x2="105.1699" y1="172" y2="172"/></g><!--class Holograma--><g id="elem_Holograma"><rect codeLine="7" fill="#F1F1F1" height="48" id="Holograma" rx="2.5" ry="2.5" style="stroke:#181818;stroke-width:0.5;" width="108.9863" x="62" y="257"/><ellipse cx="77" cy="273" fill="#ADD1B2" rx="11" ry="11" style="stroke:#181818;stroke-width:1.0;"/><path d="M79.9688,278.6406 Q79.3906,278.9375 78.75,279.0781 Q78.1094,279.2344 77.4063,279.2344 Q74.9063,279.2344 73.5781,277.5938 Q72.2656,275.9375 72.2656,272.8125 Q72.2656,269.6875 73.5781,268.0313 Q74.9063,266.375 77.4063,266.375 Q78.1094,266.375 78.75,266.5313 Q79.4063,266.6875 79.9688,266.9844 L79.9688,269.7031 Q79.3438,269.125 78.75,268.8594 Q78.1563,268.5781 77.5313,268.5781 Q76.1875,268.5781 75.5,269.6563 Q74.8125,270.7188 74.8125,272.8125 Q74.8125,274.9063 75.5,275.9844 Q76.1875,277.0469 77.5313,277.0469 Q78.1563,277.0469 78.75,276.7813 Q79.3438,276.5 79.9688,275.9219 L79.9688,278.6406 Z " fill="#000000"/><text fill="#000000" font-family="sans-serif" font-size="14" lengthAdjust="spacing" textLength="76.9863" x="91" y="277.8467">Holograma</text><line style="stroke:#181818;stroke-width:0.5;" x1="63" x2="169.9863" y1="289" y2="289"/><line style="stroke:#181818;stroke-width:0.5;" x1="63" x2="169.9863" y1="297" y2="297"/></g><!--link DatosAProyectar to Proyector--><g id="link_DatosAProyectar_Proyector"><path codeLine="10" d="M82.33,55.07 C72.88,63.32 63.78,73.47 58.5,85 C51.82,99.59 50.9582,111.7736 52.2182,125.9336 " fill="none" id="DatosAProyectar-to-Proyector" style="stroke:#181818;stroke-width:1.0;"/><polygon fill="#181818" points="52.75,131.91,55.9366,122.5909,52.3068,126.9297,47.968,123.3,52.75,131.91" style="stroke:#181818;stroke-width:1.0;"/><text fill="#000000" font-family="sans-serif" font-size="13" lengthAdjust="spacing" textLength="90.981" x="59.5" y="98.0669">son leidos por</text></g><!--link Proyector to Holograma--><g id="link_Proyector_Holograma"><path codeLine="11" d="M60.87,180.17 C64.05,194.2 69.11,212.18 76.5,227 C81.75,237.52 85.439,243.3731 92.459,252.2531 " fill="none" id="Proyector-to-Holograma" style="stroke:#181818;stroke-width:1.0;"/><polygon fill="#181818" points="96.18,256.96,93.7365,247.4191,93.0792,253.0376,87.4607,252.3804,96.18,256.96" style="stroke:#181818;stroke-width:1.0;"/><text fill="#000000" font-family="sans-serif" font-size="13" lengthAdjust="spacing" textLength="72.7822" x="77.5" y="223.0669">Proyecta el</text></g><!--link DatosAProyectar to Holograma--><g id="link_DatosAProyectar_Holograma"><path codeLine="12" d="M137.78,55.05 C144.48,63.78 151.04,74.22 154.5,85 C173.81,145.08 173.81,166.92 154.5,227 C151.04,237.78 148.133,243.4602 141.433,252.1902 " fill="none" id="DatosAProyectar-to-Holograma" style="stroke:#181818;stroke-width:1.0;stroke-dasharray:7.0,7.0;"/><polygon fill="#181818" points="137.78,256.95,146.4327,252.2456,140.8242,252.9835,140.0863,247.375,137.78,256.95" style="stroke:#181818;stroke-width:1.0;"/><text fill="#000000" font-family="sans-serif" font-size="13" lengthAdjust="spacing" textLength="81.1167" x="169.5" y="160.5669">Describen el</text></g><!--SRC=[Iyv9B2vMS4aioIzs32ZAhqnDBaaigkQgvU9A1ij0nVAHnJpoS_BJYn9p4y5YQ7eLT7Nj4Bgi58hpynHoKZDJyeiL2lABkE0oO7LmawnWMX8LKdCmZDJJGr7gabgSN9IPb9e7L0i0]--></g></svg>