<?xml version="1.0" encoding="us-ascii" standalone="no"?><svg xmlns="http://www.w3.org/2000/svg" xmlns:xlink="http://www.w3.org/1999/xlink" contentStyleType="text/css" height="314px" preserveAspectRatio="none" style="width:97px;height:314px;background:#FFFFFF;" version="1.1" viewBox="0 0 97 314" width="97px" zoomAndPan="magnify"><defs/><g><!--class Objeto--><g id="elem_Objeto"><rect codeLine="2" fill="#F1F1F1" height="48" id="Objeto" rx="2.5" ry="2.5" style="stroke:#181818;stroke-width:0.5;" width="74" x="10.5" y="133"/><ellipse cx="25.5" cy="149" fill="#ADD1B2" rx="11" ry="11" style="stroke:#181818;stroke-width:1.0;"/><path d="M28.2656,144.875 Q28.4219,144.6563 28.6094,144.5469 Q28.7969,144.4375 29.0156,144.4375 Q29.3906,144.4375 29.625,144.7031 Q29.8594,144.9531 29.8594,145.5625 L29.8594,147.0156 Q29.8594,147.625 29.625,147.8906 Q29.3906,148.1563 29.0156,148.1563 Q28.6719,148.1563 28.4688,147.9531 Q28.2656,147.7656 28.1563,147.25 Q28.1094,146.8906 27.9219,146.7031 Q27.5938,146.3281 26.9844,146.1094 Q26.375,145.8906 25.75,145.8906 Q24.9844,145.8906 24.3438,146.2188 Q23.7188,146.5469 23.2188,147.2969 Q22.7344,148.0469 22.7344,149.0781 L22.7344,150.1719 Q22.7344,151.4063 23.625,152.2344 Q24.5156,153.0469 26.1094,153.0469 Q27.0469,153.0469 27.7031,152.7969 Q28.0938,152.6406 28.5156,152.2031 Q28.7813,151.9375 28.9219,151.8594 Q29.0781,151.7813 29.2813,151.7813 Q29.6094,151.7813 29.8594,152.0469 Q30.125,152.2969 30.125,152.6406 Q30.125,152.9844 29.7813,153.3906 Q29.2813,153.9688 28.4844,154.2969 Q27.4063,154.75 26.1094,154.75 Q24.5938,154.75 23.3906,154.125 Q22.4063,153.625 21.7188,152.5625 Q21.0313,151.4844 21.0313,150.2031 L21.0313,149.0469 Q21.0313,147.7188 21.6406,146.5781 Q22.2656,145.4219 23.3594,144.8125 Q24.4531,144.1875 25.6875,144.1875 Q26.4219,144.1875 27.0625,144.3594 Q27.7188,144.5156 28.2656,144.875 Z " fill="#000000"/><text fill="#000000" font-family="sans-serif" font-size="14" lengthAdjust="spacing" textLength="42" x="39.5" y="154.7285">Objeto</text><line style="stroke:#181818;stroke-width:0.5;" x1="11.5" x2="83.5" y1="165" y2="165"/><line style="stroke:#181818;stroke-width:0.5;" x1="11.5" x2="83.5" y1="173" y2="173"/></g><!--class Luz--><g id="elem_Luz"><rect codeLine="3" fill="#F1F1F1" height="48" id="Luz" rx="2.5" ry="2.5" style="stroke:#181818;stroke-width:0.5;" width="54" x="20.5" y="7"/><ellipse cx="35.5" cy="23" fill="#ADD1B2" rx="11" ry="11" style="stroke:#181818;stroke-width:1.0;"/><path d="M38.2656,18.875 Q38.4219,18.6563 38.6094,18.5469 Q38.7969,18.4375 39.0156,18.4375 Q39.3906,18.4375 39.625,18.7031 Q39.8594,18.9531 39.8594,19.5625 L39.8594,21.0156 Q39.8594,21.625 39.625,21.8906 Q39.3906,22.1563 39.0156,22.1563 Q38.6719,22.1563 38.4688,21.9531 Q38.2656,21.7656 38.1563,21.25 Q38.1094,20.8906 37.9219,20.7031 Q37.5938,20.3281 36.9844,20.1094 Q36.375,19.8906 35.75,19.8906 Q34.9844,19.8906 34.3438,20.2188 Q33.7188,20.5469 33.2188,21.2969 Q32.7344,22.0469 32.7344,23.0781 L32.7344,24.1719 Q32.7344,25.4063 33.625,26.2344 Q34.5156,27.0469 36.1094,27.0469 Q37.0469,27.0469 37.7031,26.7969 Q38.0938,26.6406 38.5156,26.2031 Q38.7813,25.9375 38.9219,25.8594 Q39.0781,25.7813 39.2813,25.7813 Q39.6094,25.7813 39.8594,26.0469 Q40.125,26.2969 40.125,26.6406 Q40.125,26.9844 39.7813,27.3906 Q39.2813,27.9688 38.4844,28.2969 Q37.4063,28.75 36.1094,28.75 Q34.5938,28.75 33.3906,28.125 Q32.4063,27.625 31.7188,26.5625 Q31.0313,25.4844 31.0313,24.2031 L31.0313,23.0469 Q31.0313,21.7188 31.6406,20.5781 Q32.2656,19.4219 33.3594,18.8125 Q34.4531,18.1875 35.6875,18.1875 Q36.4219,18.1875 37.0625,18.3594 Q37.7188,18.5156 38.2656,18.875 Z " fill="#000000"/><text fill="#000000" font-family="sans-serif" font-size="14" lengthAdjust="spacing" textLength="22" x="49.5" y="28.7285">Luz</text><line style="stroke:#181818;stroke-width:0.5;" x1="21.5" x2="73.5" y1="39" y2="39"/><line style="stroke:#181818;stroke-width:0.5;" x1="21.5" x2="73.5" y1="47" y2="47"/></g><!--class Sombra--><g id="elem_Sombra"><rect codeLine="4" fill="#F1F1F1" height="48" id="Sombra" rx="2.5" ry="2.5" style="stroke:#181818;stroke-width:0.5;" width="81" x="7" y="259"/><ellipse cx="22" cy="275" fill="#ADD1B2" rx="11" ry="11" style="stroke:#181818;stroke-width:1.0;"/><path d="M24.7656,270.875 Q24.9219,270.6563 25.1094,270.5469 Q25.2969,270.4375 25.5156,270.4375 Q25.8906,270.4375 26.125,270.7031 Q26.3594,270.9531 26.3594,271.5625 L26.3594,273.0156 Q26.3594,273.625 26.125,273.8906 Q25.8906,274.1563 25.5156,274.1563 Q25.1719,274.1563 24.9688,273.9531 Q24.7656,273.7656 24.6563,273.25 Q24.6094,272.8906 24.4219,272.7031 Q24.0938,272.3281 23.4844,272.1094 Q22.875,271.8906 22.25,271.8906 Q21.4844,271.8906 20.8438,272.2188 Q20.2188,272.5469 19.7188,273.2969 Q19.2344,274.0469 19.2344,275.0781 L19.2344,276.1719 Q19.2344,277.4063 20.125,278.2344 Q21.0156,279.0469 22.6094,279.0469 Q23.5469,279.0469 24.2031,278.7969 Q24.5938,278.6406 25.0156,278.2031 Q25.2813,277.9375 25.4219,277.8594 Q25.5781,277.7813 25.7813,277.7813 Q26.1094,277.7813 26.3594,278.0469 Q26.625,278.2969 26.625,278.6406 Q26.625,278.9844 26.2813,279.3906 Q25.7813,279.9688 24.9844,280.2969 Q23.9063,280.75 22.6094,280.75 Q21.0938,280.75 19.8906,280.125 Q18.9063,279.625 18.2188,278.5625 Q17.5313,277.4844 17.5313,276.2031 L17.5313,275.0469 Q17.5313,273.7188 18.1406,272.5781 Q18.7656,271.4219 19.8594,270.8125 Q20.9531,270.1875 22.1875,270.1875 Q22.9219,270.1875 23.5625,270.3594 Q24.2188,270.5156 24.7656,270.875 Z " fill="#000000"/><text fill="#000000" font-family="sans-serif" font-size="14" lengthAdjust="spacing" textLength="49" x="36" y="280.7285">Sombra</text><line style="stroke:#181818;stroke-width:0.5;" x1="8" x2="87" y1="291" y2="291"/><line style="stroke:#181818;stroke-width:0.5;" x1="8" x2="87" y1="299" y2="299"/></g><!--link Luz to Objeto--><g id="link_Luz_Objeto"><path codeLine="6" d="M47.5,55.03 C47.5,77.17 47.5,110.44 47.5,132.67 " fill="none" id="Luz-Objeto" style="stroke:#181818;stroke-width:1.0;"/><text fill="#000000" font-family="sans-serif" font-size="13" lengthAdjust="spacing" textLength="41" x="48.5" y="99.4951">ilumina</text></g><!--link Objeto to Sombra--><g id="link_Objeto_Sombra"><path codeLine="7" d="M47.5,181.03 C47.5,203.17 47.5,236.44 47.5,258.67 " fill="none" id="Objeto-Sombra" style="stroke:#181818;stroke-width:1.0;"/><text fill="#000000" font-family="sans-serif" font-size="13" lengthAdjust="spacing" textLength="39" x="48.5" y="225.4951">genera</text></g><!--SRC=[Iyv9B2vMy4_AIYt9vqe6StnAgw2iuFpSfA941Iuke922hYvKcOALGcPEQMvcNY8NL00e1LLgfP2UcfTQbCW50000]--></g></svg>