<?xml version="1.0" encoding="us-ascii" standalone="no"?><svg xmlns="http://www.w3.org/2000/svg" xmlns:xlink="http://www.w3.org/1999/xlink" contentStyleType="text/css" height="282px" preserveAspectRatio="none" style="width:254px;height:282px;background:#FFFFFF;" version="1.1" viewBox="0 0 254 282" width="254px" zoomAndPan="magnify"><defs/><g><g id="elem_Persona"><rect fill="#F1F1F1" height="37.6094" style="stroke:#181818;stroke-width:0.5;" width="67" x="94" y="123"/><text fill="#000000" font-family="sans-serif" font-size="14" lengthAdjust="spacing" textLength="53" x="101" y="139.5332">Persona</text><line style="stroke:#181818;stroke-width:0.5;" x1="95" x2="160" y1="144.6094" y2="144.6094"/></g><g id="elem_Foco1"><rect fill="#F1F1F1" height="37.6094" style="stroke:#181818;stroke-width:0.5;" width="54" x="56.5" y="7"/><text fill="#000000" font-family="sans-serif" font-size="14" lengthAdjust="spacing" textLength="40" x="63.5" y="23.5332">Foco1</text><line style="stroke:#181818;stroke-width:0.5;" x1="57.5" x2="109.5" y1="28.6094" y2="28.6094"/></g><g id="elem_Foco2"><rect fill="#F1F1F1" height="37.6094" style="stroke:#181818;stroke-width:0.5;" width="54" x="145.5" y="7"/><text fill="#000000" font-family="sans-serif" font-size="14" lengthAdjust="spacing" textLength="40" x="152.5" y="23.5332">Foco2</text><line style="stroke:#181818;stroke-width:0.5;" x1="146.5" x2="198.5" y1="28.6094" y2="28.6094"/></g><g id="elem_SombraFoco1"><rect fill="#F1F1F1" height="37.6094" style="stroke:#181818;stroke-width:0.5;" width="103" x="7" y="239"/><text fill="#000000" font-family="sans-serif" font-size="14" lengthAdjust="spacing" textLength="89" x="14" y="255.5332">SombraFoco1</text><line style="stroke:#181818;stroke-width:0.5;" x1="8" x2="109" y1="260.6094" y2="260.6094"/></g><g id="elem_SombraFoco2"><rect fill="#F1F1F1" height="37.6094" style="stroke:#181818;stroke-width:0.5;" width="103" x="145" y="239"/><text fill="#000000" font-family="sans-serif" font-size="14" lengthAdjust="spacing" textLength="89" x="152" y="255.5332">SombraFoco2</text><line style="stroke:#181818;stroke-width:0.5;" x1="146" x2="247" y1="260.6094" y2="260.6094"/></g><!--link Foco1 to Persona--><g id="link_Foco1_Persona"><path codeLine="8" d="M81.24,45.02 C80.24,58.68 80.43,77.64 86.5,93 C90.93,104.21 99.12,114.65 107.03,122.91 " fill="none" id="Foco1-Persona" style="stroke:#181818;stroke-width:1.0;"/><text fill="#000000" font-family="sans-serif" font-size="13" lengthAdjust="spacing" textLength="41" x="87.5" y="89.4951">ilumina</text></g><!--link Foco2 to Persona--><g id="link_Foco2_Persona"><path codeLine="9" d="M165.37,45.06 C156.99,66.28 143.17,101.3 134.75,122.64 " fill="none" id="Foco2-Persona" style="stroke:#181818;stroke-width:1.0;"/><text fill="#000000" font-family="sans-serif" font-size="13" lengthAdjust="spacing" textLength="41" x="153.5" y="89.4951">ilumina</text></g><!--link Persona to SombraFoco1--><g id="link_Persona_SombraFoco1"><path codeLine="10" d="M116.57,161.06 C103.72,182.28 82.53,217.3 69.61,238.64 " fill="none" id="Persona-SombraFoco1" style="stroke:#181818;stroke-width:1.0;"/><text fill="#000000" font-family="sans-serif" font-size="13" lengthAdjust="spacing" textLength="39" x="97.5" y="205.4951">genera</text></g><!--link Persona to SombraFoco2--><g id="link_Persona_SombraFoco2"><path codeLine="11" d="M138.43,161.06 C151.28,182.28 172.47,217.3 185.39,238.64 " fill="none" id="Persona-SombraFoco2" style="stroke:#181818;stroke-width:1.0;"/><text fill="#000000" font-family="sans-serif" font-size="13" lengthAdjust="spacing" textLength="39" x="166.5" y="205.4951">genera</text></g><!--SRC=[oq_AIaqkKGX8BIhEpqlaoeTmtVAJymsHEKOmJd1-Rb9H8eeyGiY8Ymiiew2h2pDHmKeXCwSqDnDeDbW5TYcO250IoGAWWlJKlDGY7F9627ak0000]--></g></svg>