<?xml version="1.0" encoding="us-ascii" standalone="no"?><svg xmlns="http://www.w3.org/2000/svg" xmlns:xlink="http://www.w3.org/1999/xlink" contentStyleType="text/css" height="436px" preserveAspectRatio="none" style="width:940px;height:436px;background:#FFFFFF;" version="1.1" viewBox="0 0 940 436" width="940px" zoomAndPan="magnify"><defs/><g><g id="elem_Inventor"><rect fill="#F1F1F1" height="64.8281" style="stroke:#181818;stroke-width:0.5;" width="330" x="346" y="7"/><text fill="#000000" font-family="sans-serif" font-size="14" lengthAdjust="spacing" textLength="51" x="485.5" y="23.5332">Inventor</text><line style="stroke:#181818;stroke-width:0.5;" x1="347" x2="675" y1="28.6094" y2="28.6094"/><text fill="#000000" font-family="sans-serif" font-size="14" lengthAdjust="spacing" textLength="109" x="352" y="47.1426">nombre = "Tesla"</text><text fill="#000000" font-family="sans-serif" font-size="14" lengthAdjust="spacing" textLength="318" x="352" y="64.752">crearIdea() = "Generaci&#243;n inal&#225;mbrica de energ&#237;a"</text></g><g id="elem_Idea"><rect fill="#F1F1F1" height="47.2188" style="stroke:#181818;stroke-width:0.5;" width="292" x="7" y="141"/><text fill="#000000" font-family="sans-serif" font-size="14" lengthAdjust="spacing" textLength="27" x="139.5" y="157.5332">Idea</text><line style="stroke:#181818;stroke-width:0.5;" x1="8" x2="298" y1="162.6094" y2="162.6094"/><text fill="#000000" font-family="sans-serif" font-size="14" lengthAdjust="spacing" textLength="280" x="13" y="181.1426">descripcion = "Transmitir energ&#237;a sin cables"</text></g><g id="elem_Tecnologia"><rect fill="#F1F1F1" height="64.8281" style="stroke:#181818;stroke-width:0.5;" width="353" x="334.5" y="132"/><text fill="#000000" font-family="sans-serif" font-size="14" lengthAdjust="spacing" textLength="70" x="476" y="148.5332">Tecnologia</text><line style="stroke:#181818;stroke-width:0.5;" x1="335.5" x2="686.5" y1="153.6094" y2="153.6094"/><text fill="#000000" font-family="sans-serif" font-size="14" lengthAdjust="spacing" textLength="218" x="340.5" y="172.1426">nombre = "Resonancia magn&#233;tica"</text><text fill="#000000" font-family="sans-serif" font-size="14" lengthAdjust="spacing" textLength="341" x="340.5" y="189.752">aplicarTecnologia() = "Dise&#241;o de bobinas resonantes"</text></g><g id="elem_Prototipo"><rect fill="#F1F1F1" height="47.2188" style="stroke:#181818;stroke-width:0.5;" width="82" x="723" y="141"/><text fill="#000000" font-family="sans-serif" font-size="14" lengthAdjust="spacing" textLength="57" x="735.5" y="157.5332">Prototipo</text><line style="stroke:#181818;stroke-width:0.5;" x1="724" x2="804" y1="162.6094" y2="162.6094"/><text fill="#000000" font-family="sans-serif" font-size="14" lengthAdjust="spacing" textLength="70" x="729" y="181.1426">version = 1</text></g><g id="elem_Mercado"><rect fill="#F1F1F1" height="64.8281" style="stroke:#181818;stroke-width:0.5;" width="273" x="627.5" y="257"/><text fill="#000000" font-family="sans-serif" font-size="14" lengthAdjust="spacing" textLength="55" x="736.5" y="273.5332">Mercado</text><line style="stroke:#181818;stroke-width:0.5;" x1="628.5" x2="899.5" y1="278.6094" y2="278.6094"/><text fill="#000000" font-family="sans-serif" font-size="14" lengthAdjust="spacing" textLength="113" x="633.5" y="297.1426">receptividad = 0.7</text><text fill="#000000" font-family="sans-serif" font-size="14" lengthAdjust="spacing" textLength="261" x="633.5" y="314.752">evaluarPrototipo() = "Evaluaci&#243;n positiva"</text></g><g id="elem_Innovacion"><rect fill="#F1F1F1" height="47.2188" style="stroke:#181818;stroke-width:0.5;" width="339" x="594.5" y="382"/><text fill="#000000" font-family="sans-serif" font-size="14" lengthAdjust="spacing" textLength="68" x="730" y="398.5332">Innovacion</text><line style="stroke:#181818;stroke-width:0.5;" x1="595.5" x2="932.5" y1="403.6094" y2="403.6094"/><text fill="#000000" font-family="sans-serif" font-size="14" lengthAdjust="spacing" textLength="327" x="600.5" y="422.1426">impacto = "Transformaci&#243;n del mercado energ&#233;tico"</text></g><!--link Inventor to Idea--><g id="link_Inventor_Idea"><path codeLine="28" d="M419.27,72.02 C356.5,93.58 280.4445,119.7107 224.1745,139.0407 " fill="none" id="Inventor-to-Idea" style="stroke:#181818;stroke-width:1.0;"/><polygon fill="#181818" points="218.5,140.99,228.3113,141.849,223.2288,139.3656,225.7122,134.283,218.5,140.99" style="stroke:#181818;stroke-width:1.0;"/></g><!--link Inventor to Tecnologia--><g id="link_Inventor_Tecnologia"><path codeLine="29" d="M511,72.18 C511,90.54 511,107.59 511,125.93 " fill="none" id="Inventor-to-Tecnologia" style="stroke:#181818;stroke-width:1.0;"/><polygon fill="#181818" points="511,131.93,515,122.93,511,126.93,507,122.93,511,131.93" style="stroke:#181818;stroke-width:1.0;"/></g><!--link Inventor to Prototipo--><g id="link_Inventor_Prototipo"><path codeLine="30" d="M580.09,72.07 C617.31,89.33 663.9,111.35 705,132 C710.81,134.92 711.5897,135.277 717.5597,138.417 " fill="none" id="Inventor-to-Prototipo" style="stroke:#181818;stroke-width:1.0;"/><polygon fill="#181818" points="722.87,141.21,716.7666,133.4803,718.4448,138.8825,713.0426,140.5607,722.87,141.21" style="stroke:#181818;stroke-width:1.0;"/></g><!--link Prototipo to Mercado--><g id="link_Prototipo_Mercado"><path codeLine="31" d="M764,188.06 C764,207.34 764,229.29 764,250.82 " fill="none" id="Prototipo-to-Mercado" style="stroke:#181818;stroke-width:1.0;"/><polygon fill="#181818" points="764,256.82,768,247.82,764,251.82,760,247.82,764,256.82" style="stroke:#181818;stroke-width:1.0;"/></g><!--link Mercado to Innovacion--><g id="link_Mercado_Innovacion"><path codeLine="32" d="M764,322.26 C764,341.23 764,358.88 764,375.94 " fill="none" id="Mercado-to-Innovacion" style="stroke:#181818;stroke-width:1.0;"/><polygon fill="#181818" points="764,381.94,768,372.94,764,376.94,760,372.94,764,381.94" style="stroke:#181818;stroke-width:1.0;"/></g><!--SRC=[PL4nJWGn3Ept5T5LK1o2YWeg4Be22Q7xW3SnAwEi7JbX6yHZA2ae44_OZv5DzlPkHQfex1cFnzA-earcnmDo4ZNlZScFfMyLpOtPx35ws1JGAeBk7CBP-LHvG4O5I-Cl6sBmusVca0NZq4obRlpEn8-caNb4Pixo3gDL2fQ4omm5ZZqbqeLe8h6nq7gCfnfxj2nUEe9_Hfyn2WFRNEgXu_4hPI_LE0IV_tearmNkAEBu8vFVLjgyGZHQHT9wwfDAaaH1vg43QgpMhqww7b4jk4EFeiMGQ207BZTUNbmN60VmRw2BOdLoNz0QPP2OanZMqJ7B02Mkgavz09ja2Uz5j9_v3htfPoirpIa9ANBBbRVRstAFDN8CQ8qlRfjZ4XC-RzmSDY-gYzK_]--></g></svg>