<svg xmlns="http://www.w3.org/2000/svg" xmlns:xlink="http://www.w3.org/1999/xlink" contentStyleType="text/css" height="535px" preserveAspectRatio="none" style="width:381px;height:535px;background:#FFFFFF;" version="1.1" viewBox="0 0 381 535" width="381px" zoomAndPan="magnify"><defs/><g><!--class Holograf?a--><g id="elem_Holograf&#237;a"><rect codeLine="1" fill="#F1F1F1" height="48" id="Holograf&#237;a" rx="2.5" ry="2.5" style="stroke:#181818;stroke-width:0.5;" width="104.167" x="206.5" y="7"/><ellipse cx="221.5" cy="23" fill="#ADD1B2" rx="11" ry="11" style="stroke:#181818;stroke-width:1.0;"/><path d="M224.4688,28.6406 Q223.8906,28.9375 223.25,29.0781 Q222.6094,29.2344 221.9063,29.2344 Q219.4063,29.2344 218.0781,27.5938 Q216.7656,25.9375 216.7656,22.8125 Q216.7656,19.6875 218.0781,18.0313 Q219.4063,16.375 221.9063,16.375 Q222.6094,16.375 223.25,16.5313 Q223.9063,16.6875 224.4688,16.9844 L224.4688,19.7031 Q223.8438,19.125 223.25,18.8594 Q222.6563,18.5781 222.0313,18.5781 Q220.6875,18.5781 220,19.6563 Q219.3125,20.7188 219.3125,22.8125 Q219.3125,24.9063 220,25.9844 Q220.6875,27.0469 222.0313,27.0469 Q222.6563,27.0469 223.25,26.7813 Q223.8438,26.5 224.4688,25.9219 L224.4688,28.6406 Z " fill="#000000"/><text fill="#000000" font-family="sans-serif" font-size="14" lengthAdjust="spacing" textLength="72.167" x="235.5" y="27.8467">Holograf&#237;a</text><line style="stroke:#181818;stroke-width:0.5;" x1="207.5" x2="309.667" y1="39" y2="39"/><line style="stroke:#181818;stroke-width:0.5;" x1="207.5" x2="309.667" y1="47" y2="47"/></g><!--class RayoL?ser--><g id="elem_RayoL&#225;ser"><rect codeLine="4" fill="#F1F1F1" height="80.5938" id="RayoL&#225;ser" rx="2.5" ry="2.5" style="stroke:#181818;stroke-width:0.5;" width="180.7246" x="7" y="132"/><ellipse cx="56.5127" cy="148" fill="#ADD1B2" rx="11" ry="11" style="stroke:#181818;stroke-width:1.0;"/><path d="M59.4814,153.6406 Q58.9033,153.9375 58.2627,154.0781 Q57.6221,154.2344 56.9189,154.2344 Q54.4189,154.2344 53.0908,152.5938 Q51.7783,150.9375 51.7783,147.8125 Q51.7783,144.6875 53.0908,143.0313 Q54.4189,141.375 56.9189,141.375 Q57.6221,141.375 58.2627,141.5313 Q58.9189,141.6875 59.4814,141.9844 L59.4814,144.7031 Q58.8564,144.125 58.2627,143.8594 Q57.6689,143.5781 57.0439,143.5781 Q55.7002,143.5781 55.0127,144.6563 Q54.3252,145.7188 54.3252,147.8125 Q54.3252,149.9063 55.0127,150.9844 Q55.7002,152.0469 57.0439,152.0469 Q57.6689,152.0469 58.2627,151.7813 Q58.8564,151.5 59.4814,150.9219 L59.4814,153.6406 Z " fill="#000000"/><text fill="#000000" font-family="sans-serif" font-size="14" lengthAdjust="spacing" textLength="73.1992" x="77.0127" y="152.8467">RayoL&#225;ser</text><line style="stroke:#181818;stroke-width:0.5;" x1="8" x2="186.7246" y1="164" y2="164"/><ellipse cx="18" cy="177.6484" fill="none" rx="3" ry="3" style="stroke:#038048;stroke-width:1.0;"/><text fill="#000000" font-family="sans-serif" font-size="14" lengthAdjust="spacing" textLength="101.2129" x="27" y="180.9951">potencia: float</text><ellipse cx="18" cy="193.9453" fill="none" rx="3" ry="3" style="stroke:#038048;stroke-width:1.0;"/><text fill="#000000" font-family="sans-serif" font-size="14" lengthAdjust="spacing" textLength="154.7246" x="27" y="197.292">longitudDeOnda: float</text><line style="stroke:#181818;stroke-width:0.5;" x1="8" x2="186.7246" y1="204.5938" y2="204.5938"/></g><!--class Pel?culaFotosensible--><g id="elem_Pel&#237;culaFotosensible"><rect codeLine="9" fill="#F1F1F1" height="80.5938" id="Pel&#237;culaFotosensible" rx="2.5" ry="2.5" style="stroke:#181818;stroke-width:0.5;" width="173.9004" x="123.5" y="290"/><ellipse cx="138.5" cy="306" fill="#ADD1B2" rx="11" ry="11" style="stroke:#181818;stroke-width:1.0;"/><path d="M141.4688,311.6406 Q140.8906,311.9375 140.25,312.0781 Q139.6094,312.2344 138.9063,312.2344 Q136.4063,312.2344 135.0781,310.5938 Q133.7656,308.9375 133.7656,305.8125 Q133.7656,302.6875 135.0781,301.0313 Q136.4063,299.375 138.9063,299.375 Q139.6094,299.375 140.25,299.5313 Q140.9063,299.6875 141.4688,299.9844 L141.4688,302.7031 Q140.8438,302.125 140.25,301.8594 Q139.6563,301.5781 139.0313,301.5781 Q137.6875,301.5781 137,302.6563 Q136.3125,303.7188 136.3125,305.8125 Q136.3125,307.9063 137,308.9844 Q137.6875,310.0469 139.0313,310.0469 Q139.6563,310.0469 140.25,309.7813 Q140.8438,309.5 141.4688,308.9219 L141.4688,311.6406 Z " fill="#000000"/><text fill="#000000" font-family="sans-serif" font-size="14" lengthAdjust="spacing" textLength="141.9004" x="152.5" y="310.8467">Pel&#237;culaFotosensible</text><line style="stroke:#181818;stroke-width:0.5;" x1="124.5" x2="296.4004" y1="322" y2="322"/><ellipse cx="134.5" cy="335.6484" fill="none" rx="3" ry="3" style="stroke:#038048;stroke-width:1.0;"/><text fill="#000000" font-family="sans-serif" font-size="14" lengthAdjust="spacing" textLength="134.6543" x="143.5" y="338.9951">tipoMaterial: String</text><ellipse cx="134.5" cy="351.9453" fill="none" rx="3" ry="3" style="stroke:#038048;stroke-width:1.0;"/><text fill="#000000" font-family="sans-serif" font-size="14" lengthAdjust="spacing" textLength="110.291" x="143.5" y="355.292">sensibilidad: int</text><line style="stroke:#181818;stroke-width:0.5;" x1="124.5" x2="296.4004" y1="362.5938" y2="362.5938"/></g><!--class ImagenTridimensional--><g id="elem_ImagenTridimensional"><rect codeLine="14" fill="#F1F1F1" height="80.5938" id="ImagenTridimensional" rx="2.5" ry="2.5" style="stroke:#181818;stroke-width:0.5;" width="187.9072" x="186.5" y="448"/><ellipse cx="201.5" cy="464" fill="#ADD1B2" rx="11" ry="11" style="stroke:#181818;stroke-width:1.0;"/><path d="M204.4688,469.6406 Q203.8906,469.9375 203.25,470.0781 Q202.6094,470.2344 201.9063,470.2344 Q199.4063,470.2344 198.0781,468.5938 Q196.7656,466.9375 196.7656,463.8125 Q196.7656,460.6875 198.0781,459.0313 Q199.4063,457.375 201.9063,457.375 Q202.6094,457.375 203.25,457.5313 Q203.9063,457.6875 204.4688,457.9844 L204.4688,460.7031 Q203.8438,460.125 203.25,459.8594 Q202.6563,459.5781 202.0313,459.5781 Q200.6875,459.5781 200,460.6563 Q199.3125,461.7188 199.3125,463.8125 Q199.3125,465.9063 200,466.9844 Q200.6875,468.0469 202.0313,468.0469 Q202.6563,468.0469 203.25,467.7813 Q203.8438,467.5 204.4688,466.9219 L204.4688,469.6406 Z " fill="#000000"/><text fill="#000000" font-family="sans-serif" font-size="14" lengthAdjust="spacing" textLength="155.9072" x="215.5" y="468.8467">ImagenTridimensional</text><line style="stroke:#181818;stroke-width:0.5;" x1="187.5" x2="373.4072" y1="480" y2="480"/><ellipse cx="197.5" cy="493.6484" fill="none" rx="3" ry="3" style="stroke:#038048;stroke-width:1.0;"/><text fill="#000000" font-family="sans-serif" font-size="14" lengthAdjust="spacing" textLength="99.4355" x="206.5" y="496.9951">resoluci&#243;n: int</text><ellipse cx="197.5" cy="509.9453" fill="none" rx="3" ry="3" style="stroke:#038048;stroke-width:1.0;"/><text fill="#000000" font-family="sans-serif" font-size="14" lengthAdjust="spacing" textLength="101.3291" x="206.5" y="513.292">colores: String</text><line style="stroke:#181818;stroke-width:0.5;" x1="187.5" x2="373.4072" y1="520.5938" y2="520.5938"/></g><!--link Holograf?a to RayoL?ser--><g id="link_Holograf&#237;a_RayoL&#225;ser"><path codeLine="19" d="M231.91,55.04 C207.89,75.85 176.5441,103.0104 147.8941,127.8404 " fill="none" id="Holograf&#237;a-to-RayoL&#225;ser" style="stroke:#181818;stroke-width:1.0;"/><polygon fill="#181818" points="143.36,131.77,152.7809,128.8984,147.1384,128.4953,147.5415,122.8529,143.36,131.77" style="stroke:#181818;stroke-width:1.0;"/><text fill="#000000" font-family="sans-serif" font-size="13" lengthAdjust="spacing" textLength="22.9785" x="198.5" y="98.0669">usa</text></g><!--link Holograf?a to Pel?culaFotosensible--><g id="link_Holograf&#237;a_Pel&#237;culaFotosensible"><path codeLine="20" d="M254.73,55.34 C246.55,106.09 227.9955,221.0366 217.8455,283.9566 " fill="none" id="Holograf&#237;a-to-Pel&#237;culaFotosensible" style="stroke:#181818;stroke-width:1.0;"/><polygon fill="#181818" points="216.89,289.88,222.2723,281.6319,217.6863,284.9438,214.3744,280.3578,216.89,289.88" style="stroke:#181818;stroke-width:1.0;"/><text fill="#000000" font-family="sans-serif" font-size="13" lengthAdjust="spacing" textLength="37.7813" x="243.5" y="177.0669">graba</text></g><!--link Holograf?a to ImagenTridimensional--><g id="link_Holograf&#237;a_ImagenTridimensional"><path codeLine="21" d="M266.68,55.19 C273.54,75.3 283.19,105.29 289.5,132 C314.05,235.99 320.03,264.25 315.5,371 C314.61,391.95 316.73,397.7 311.5,418 C308.93,427.98 307.4419,432.8274 303.2819,442.3974 " fill="none" id="Holograf&#237;a-to-ImagenTridimensional" style="stroke:#181818;stroke-width:1.0;stroke-dasharray:7.0,7.0;"/><polygon fill="#181818" points="300.89,447.9,308.1463,441.2407,302.8833,443.3145,300.8095,438.0515,300.89,447.9" style="stroke:#181818;stroke-width:1.0;"/><text fill="#000000" font-family="sans-serif" font-size="13" lengthAdjust="spacing" textLength="45.7983" x="314.5" y="256.0669">genera</text></g><!--link RayoL?ser to Pel?culaFotosensible--><g id="link_RayoL&#225;ser_Pel&#237;culaFotosensible"><path codeLine="23" d="M126.31,213.27 C143.31,236.74 161.2284,261.4922 178.2284,284.9422 " fill="none" id="RayoL&#225;ser-to-Pel&#237;culaFotosensible" style="stroke:#181818;stroke-width:1.0;"/><polygon fill="#181818" points="181.75,289.8,179.7061,280.1656,178.8153,285.7518,173.229,284.8611,181.75,289.8" style="stroke:#181818;stroke-width:1.0;"/><text fill="#000000" font-family="sans-serif" font-size="13" lengthAdjust="spacing" textLength="38.8604" x="158.5" y="256.0669">incide</text></g><!--link Pel?culaFotosensible to ImagenTridimensional--><g id="link_Pel&#237;culaFotosensible_ImagenTridimensional"><path codeLine="24" d="M228.35,371.27 C238.88,394.74 249.7022,418.8765 260.2322,442.3265 " fill="none" id="Pel&#237;culaFotosensible-to-ImagenTridimensional" style="stroke:#181818;stroke-width:1.0;stroke-dasharray:7.0,7.0;"/><polygon fill="#181818" points="262.69,447.8,262.6523,437.9512,260.6418,443.2388,255.3543,441.2283,262.69,447.8" style="stroke:#181818;stroke-width:1.0;"/><text fill="#000000" font-family="sans-serif" font-size="13" lengthAdjust="spacing" textLength="53.187" x="249.5" y="414.0669">produce</text></g><!--SRC=[VP1DQiD034RtSmhjItA0MMHLIWijBMakeCmeHg18PduMfUGmFK1MFO8lrd4DngKcswTldlHD4CmP7asiItWQhWYVxk9S-CLx_B3duIjJQXJWhhT26XWzdCImZ4XCEourtjEhndam6zv8XckeWWzMB9DcFWfDiiAzlM2Xn2WUtajYxKO-fLWuOlJ0kh0zdR4ZFIIEV1vJfYYJB54sgO67RvtUD1PQgSPdTzCiUsusksL13pNZly3w_HvQvlWtlTtkrkzhOL9AwDnYsoqtjo-EvDR7DzRqoM8Dz0C0]--></g></svg>