<svg xmlns="http://www.w3.org/2000/svg" xmlns:xlink="http://www.w3.org/1999/xlink" contentStyleType="text/css" height="581px" preserveAspectRatio="none" style="width:376px;height:581px;background:#FFFFFF;" version="1.1" viewBox="0 0 376 581" width="376px" zoomAndPan="magnify"><defs/><g><!--class LuzSolar--><g id="elem_LuzSolar"><rect codeLine="1" fill="#F1F1F1" height="96.8906" id="LuzSolar" rx="2.5" ry="2.5" style="stroke:#181818;stroke-width:0.5;" width="172.2549" x="102.25" y="7"/><ellipse cx="154.2783" cy="23" fill="#ADD1B2" rx="11" ry="11" style="stroke:#181818;stroke-width:1.0;"/><path d="M157.2471,28.6406 Q156.6689,28.9375 156.0283,29.0781 Q155.3877,29.2344 154.6846,29.2344 Q152.1846,29.2344 150.8564,27.5938 Q149.5439,25.9375 149.5439,22.8125 Q149.5439,19.6875 150.8564,18.0313 Q152.1846,16.375 154.6846,16.375 Q155.3877,16.375 156.0283,16.5313 Q156.6846,16.6875 157.2471,16.9844 L157.2471,19.7031 Q156.6221,19.125 156.0283,18.8594 Q155.4346,18.5781 154.8096,18.5781 Q153.4658,18.5781 152.7783,19.6563 Q152.0908,20.7188 152.0908,22.8125 Q152.0908,24.9063 152.7783,25.9844 Q153.4658,27.0469 154.8096,27.0469 Q155.4346,27.0469 156.0283,26.7813 Q156.6221,26.5 157.2471,25.9219 L157.2471,28.6406 Z " fill="#000000"/><text fill="#000000" font-family="sans-serif" font-size="14" lengthAdjust="spacing" textLength="59.6982" x="174.7783" y="27.8467">LuzSolar</text><line style="stroke:#181818;stroke-width:0.5;" x1="103.25" x2="273.5049" y1="39" y2="39"/><rect fill="none" height="6" style="stroke:#C82930;stroke-width:1.0;" width="6" x="110.25" y="49.6484"/><text fill="#000000" font-family="sans-serif" font-size="14" lengthAdjust="spacing" textLength="113.8936" x="122.25" y="55.9951">intensidad: float</text><rect fill="none" height="6" style="stroke:#C82930;stroke-width:1.0;" width="6" x="110.25" y="65.9453"/><text fill="#000000" font-family="sans-serif" font-size="14" lengthAdjust="spacing" textLength="146.2549" x="122.25" y="72.292">longitudOnda: float[]</text><line style="stroke:#181818;stroke-width:0.5;" x1="103.25" x2="273.5049" y1="79.5938" y2="79.5938"/><ellipse cx="113.25" cy="93.2422" fill="#84BE84" rx="3" ry="3" style="stroke:#038048;stroke-width:1.0;"/><text fill="#000000" font-family="sans-serif" font-size="14" lengthAdjust="spacing" textLength="76.2207" x="122.25" y="96.5889">emitirLuz()</text></g><!--class GotaAgua--><g id="elem_GotaAgua"><rect codeLine="7" fill="#F1F1F1" height="129.4844" id="GotaAgua" rx="2.5" ry="2.5" style="stroke:#181818;stroke-width:0.5;" width="271.4648" x="52.64" y="163.89"/><ellipse cx="149.4232" cy="179.89" fill="#ADD1B2" rx="11" ry="11" style="stroke:#181818;stroke-width:1.0;"/><path d="M152.392,185.5306 Q151.8138,185.8275 151.1732,185.9681 Q150.5326,186.1244 149.8295,186.1244 Q147.3295,186.1244 146.0013,184.4837 Q144.6888,182.8275 144.6888,179.7025 Q144.6888,176.5775 146.0013,174.9212 Q147.3295,173.265 149.8295,173.265 Q150.5326,173.265 151.1732,173.4212 Q151.8295,173.5775 152.392,173.8744 L152.392,176.5931 Q151.767,176.015 151.1732,175.7494 Q150.5795,175.4681 149.9545,175.4681 Q148.6107,175.4681 147.9232,176.5462 Q147.2357,177.6087 147.2357,179.7025 Q147.2357,181.7962 147.9232,182.8744 Q148.6107,183.9369 149.9545,183.9369 Q150.5795,183.9369 151.1732,183.6712 Q151.767,183.39 152.392,182.8119 L152.392,185.5306 Z " fill="#000000"/><text fill="#000000" font-family="sans-serif" font-size="14" lengthAdjust="spacing" textLength="69.3984" x="169.9232" y="184.7367">GotaAgua</text><line style="stroke:#181818;stroke-width:0.5;" x1="53.64" x2="323.1048" y1="195.89" y2="195.89"/><rect fill="none" height="6" style="stroke:#C82930;stroke-width:1.0;" width="6" x="60.64" y="206.5384"/><text fill="#000000" font-family="sans-serif" font-size="14" lengthAdjust="spacing" textLength="76.2959" x="72.64" y="212.8851">radio: float</text><rect fill="none" height="6" style="stroke:#C82930;stroke-width:1.0;" width="6" x="60.64" y="222.8353"/><text fill="#000000" font-family="sans-serif" font-size="14" lengthAdjust="spacing" textLength="156.7959" x="72.64" y="229.182">&#237;ndiceRefracci&#243;n: float</text><line style="stroke:#181818;stroke-width:0.5;" x1="53.64" x2="323.1048" y1="236.4837" y2="236.4837"/><ellipse cx="63.64" cy="250.1322" fill="#84BE84" rx="3" ry="3" style="stroke:#038048;stroke-width:1.0;"/><text fill="#000000" font-family="sans-serif" font-size="14" lengthAdjust="spacing" textLength="161.0547" x="72.64" y="253.4789">refractar(luz: LuzSolar)</text><ellipse cx="63.64" cy="266.4291" fill="#84BE84" rx="3" ry="3" style="stroke:#038048;stroke-width:1.0;"/><text fill="#000000" font-family="sans-serif" font-size="14" lengthAdjust="spacing" textLength="245.4648" x="72.64" y="269.7757">reflejarInternamente(luz: LuzSolar)</text><ellipse cx="63.64" cy="282.7259" fill="#84BE84" rx="3" ry="3" style="stroke:#038048;stroke-width:1.0;"/><text fill="#000000" font-family="sans-serif" font-size="14" lengthAdjust="spacing" textLength="164.8555" x="72.64" y="286.0726">dispersar(luz: LuzSolar)</text></g><!--class ArcoIris--><g id="elem_ArcoIris"><rect codeLine="15" fill="#F1F1F1" height="80.5938" id="ArcoIris" rx="2.5" ry="2.5" style="stroke:#181818;stroke-width:0.5;" width="362.752" x="7" y="353.37"/><ellipse cx="157.7939" cy="369.37" fill="#ADD1B2" rx="11" ry="11" style="stroke:#181818;stroke-width:1.0;"/><path d="M160.7627,375.0106 Q160.1846,375.3075 159.5439,375.4481 Q158.9033,375.6044 158.2002,375.6044 Q155.7002,375.6044 154.3721,373.9637 Q153.0596,372.3075 153.0596,369.1825 Q153.0596,366.0575 154.3721,364.4012 Q155.7002,362.745 158.2002,362.745 Q158.9033,362.745 159.5439,362.9012 Q160.2002,363.0575 160.7627,363.3544 L160.7627,366.0731 Q160.1377,365.495 159.5439,365.2294 Q158.9502,364.9481 158.3252,364.9481 Q156.9814,364.9481 156.2939,366.0262 Q155.6064,367.0887 155.6064,369.1825 Q155.6064,371.2762 156.2939,372.3544 Q156.9814,373.4169 158.3252,373.4169 Q158.9502,373.4169 159.5439,373.1512 Q160.1377,372.87 160.7627,372.2919 L160.7627,375.0106 Z " fill="#000000"/><text fill="#000000" font-family="sans-serif" font-size="14" lengthAdjust="spacing" textLength="52.6641" x="178.2939" y="374.2167">ArcoIris</text><line style="stroke:#181818;stroke-width:0.5;" x1="8" x2="368.752" y1="385.37" y2="385.37"/><rect fill="none" height="6" style="stroke:#C82930;stroke-width:1.0;" width="6" x="15" y="396.0184"/><text fill="#000000" font-family="sans-serif" font-size="14" lengthAdjust="spacing" textLength="112.2529" x="27" y="402.3651">colores: String[]</text><line style="stroke:#181818;stroke-width:0.5;" x1="8" x2="368.752" y1="409.6669" y2="409.6669"/><ellipse cx="18" cy="423.3153" fill="#84BE84" rx="3" ry="3" style="stroke:#038048;stroke-width:1.0;"/><text fill="#000000" font-family="sans-serif" font-size="14" lengthAdjust="spacing" textLength="336.752" x="27" y="426.662">formarArcoiris(luz: LuzSolar, gotas: GotaAgua[])</text></g><!--class Observador--><g id="elem_Observador"><rect codeLine="20" fill="#F1F1F1" height="80.5938" id="Observador" rx="2.5" ry="2.5" style="stroke:#181818;stroke-width:0.5;" width="225.5" x="75.63" y="493.97"/><ellipse cx="143.3092" cy="509.97" fill="#ADD1B2" rx="11" ry="11" style="stroke:#181818;stroke-width:1.0;"/><path d="M146.2779,515.6106 Q145.6998,515.9075 145.0592,516.0481 Q144.4186,516.2044 143.7154,516.2044 Q141.2154,516.2044 139.8873,514.5637 Q138.5748,512.9075 138.5748,509.7825 Q138.5748,506.6575 139.8873,505.0012 Q141.2154,503.345 143.7154,503.345 Q144.4186,503.345 145.0592,503.5012 Q145.7154,503.6575 146.2779,503.9544 L146.2779,506.6731 Q145.6529,506.095 145.0592,505.8294 Q144.4654,505.5481 143.8404,505.5481 Q142.4967,505.5481 141.8092,506.6262 Q141.1217,507.6887 141.1217,509.7825 Q141.1217,511.8762 141.8092,512.9544 Q142.4967,514.0169 143.8404,514.0169 Q144.4654,514.0169 145.0592,513.7512 Q145.6529,513.47 146.2779,512.8919 L146.2779,515.6106 Z " fill="#000000"/><text fill="#000000" font-family="sans-serif" font-size="14" lengthAdjust="spacing" textLength="81.6416" x="163.8092" y="514.8167">Observador</text><line style="stroke:#181818;stroke-width:0.5;" x1="76.63" x2="300.13" y1="525.97" y2="525.97"/><rect fill="none" height="6" style="stroke:#C82930;stroke-width:1.0;" width="6" x="83.63" y="536.6184"/><text fill="#000000" font-family="sans-serif" font-size="14" lengthAdjust="spacing" textLength="151.9082" x="95.63" y="542.9651">posici&#243;n: Coordenada</text><line style="stroke:#181818;stroke-width:0.5;" x1="76.63" x2="300.13" y1="550.2669" y2="550.2669"/><ellipse cx="86.63" cy="563.9153" fill="#84BE84" rx="3" ry="3" style="stroke:#038048;stroke-width:1.0;"/><text fill="#000000" font-family="sans-serif" font-size="14" lengthAdjust="spacing" textLength="199.5" x="95.63" y="567.262">verArcoIris(arcoiris: ArcoIris)</text></g><!--link LuzSolar to GotaAgua--><g id="link_LuzSolar_GotaAgua"><path codeLine="25" d="M188.38,104.13 C188.38,122.53 188.38,143.86 188.38,163.56 " fill="none" id="LuzSolar-GotaAgua" style="stroke:#181818;stroke-width:1.0;"/></g><!--reverse link GotaAgua to ArcoIris--><g id="link_GotaAgua_ArcoIris"><path codeLine="26" d="M188.38,305.6 C188.38,325.76 188.38,335.43 188.38,353.34 " fill="none" id="GotaAgua-backto-ArcoIris" style="stroke:#181818;stroke-width:1.0;"/><polygon fill="#181818" points="188.38,293.6,184.38,299.6,188.38,305.6,192.38,299.6,188.38,293.6" style="stroke:#181818;stroke-width:1.0;"/></g><!--reverse link ArcoIris to Observador--><g id="link_ArcoIris_Observador"><path codeLine="27" d="M188.38,446.38 C188.38,464.94 188.38,474.98 188.38,493.54 " fill="none" id="ArcoIris-backto-Observador" style="stroke:#181818;stroke-width:1.0;"/><polygon fill="none" points="188.38,434.38,184.38,440.38,188.38,446.38,192.38,440.38,188.38,434.38" style="stroke:#181818;stroke-width:1.0;"/></g><!--SRC=[RL4xRiCm3Drr2erEKr_0Mz2X250WG3C66LYHDbZ8Oa396LBqI9rwX5oigc7B2Lej0lYUteTo7cAqByDbBnxKVXYRJsqv90gH4R2nhHT8qznBw3WDk0i84t8uZjZQKi-9DKjLA_DfZ1kLdoN1fXkWA2iWoxtezIiWEtgbLi4vldw7MtnjTGGIQEM7IrF2hXROqpleDcVM03tb-tycSZoHnhz29Uv6dMoLOudhn8jIREm-AOUkb6r5Uz1VEcVwlTwZxNBh_6OkVpZUMEpU8kaPK9PjdoJorFj9H94284n6Pz8vL0MJNLDoZhhbz-gwM9go-8SydUccz9CyNPBy0000]--></g></svg>
