<svg xmlns="http://www.w3.org/2000/svg" xmlns:xlink="http://www.w3.org/1999/xlink" contentStyleType="text/css" height="296px" preserveAspectRatio="none" style="width:737px;height:296px;background:#FFFFFF;" version="1.1" viewBox="0 0 737 296" width="737px" zoomAndPan="magnify"><defs/><g><!--class Eco--><g id="elem_Eco"><rect codeLine="1" fill="#F1F1F1" height="48" id="Eco" rx="2.5" ry="2.5" style="stroke:#181818;stroke-width:0.5;" width="57.1084" x="276.54" y="7"/><ellipse cx="291.54" cy="23" fill="#ADD1B2" rx="11" ry="11" style="stroke:#181818;stroke-width:1.0;"/><path d="M294.5088,28.6406 Q293.9306,28.9375 293.29,29.0781 Q292.6494,29.2344 291.9463,29.2344 Q289.4463,29.2344 288.1181,27.5938 Q286.8056,25.9375 286.8056,22.8125 Q286.8056,19.6875 288.1181,18.0313 Q289.4463,16.375 291.9463,16.375 Q292.6494,16.375 293.29,16.5313 Q293.9463,16.6875 294.5088,16.9844 L294.5088,19.7031 Q293.8838,19.125 293.29,18.8594 Q292.6963,18.5781 292.0713,18.5781 Q290.7275,18.5781 290.04,19.6563 Q289.3525,20.7188 289.3525,22.8125 Q289.3525,24.9063 290.04,25.9844 Q290.7275,27.0469 292.0713,27.0469 Q292.6963,27.0469 293.29,26.7813 Q293.8838,26.5 294.5088,25.9219 L294.5088,28.6406 Z " fill="#000000"/><text fill="#000000" font-family="sans-serif" font-size="14" lengthAdjust="spacing" textLength="25.1084" x="305.54" y="27.8467">Eco</text><line style="stroke:#181818;stroke-width:0.5;" x1="277.54" x2="332.6484" y1="39" y2="39"/><line style="stroke:#181818;stroke-width:0.5;" x1="277.54" x2="332.6484" y1="47" y2="47"/></g><!--class Sonido--><g id="elem_Sonido"><rect codeLine="2" fill="#F1F1F1" height="48" id="Sonido" rx="2.5" ry="2.5" style="stroke:#181818;stroke-width:0.5;" width="79.667" x="162.26" y="116"/><ellipse cx="177.26" cy="132" fill="#ADD1B2" rx="11" ry="11" style="stroke:#181818;stroke-width:1.0;"/><path d="M180.2288,137.6406 Q179.6506,137.9375 179.01,138.0781 Q178.3694,138.2344 177.6663,138.2344 Q175.1663,138.2344 173.8381,136.5938 Q172.5256,134.9375 172.5256,131.8125 Q172.5256,128.6875 173.8381,127.0313 Q175.1663,125.375 177.6663,125.375 Q178.3694,125.375 179.01,125.5313 Q179.6663,125.6875 180.2288,125.9844 L180.2288,128.7031 Q179.6038,128.125 179.01,127.8594 Q178.4163,127.5781 177.7913,127.5781 Q176.4475,127.5781 175.76,128.6563 Q175.0725,129.7188 175.0725,131.8125 Q175.0725,133.9063 175.76,134.9844 Q176.4475,136.0469 177.7913,136.0469 Q178.4163,136.0469 179.01,135.7813 Q179.6038,135.5 180.2288,134.9219 L180.2288,137.6406 Z " fill="#000000"/><text fill="#000000" font-family="sans-serif" font-size="14" lengthAdjust="spacing" textLength="47.667" x="191.26" y="136.8467">Sonido</text><line style="stroke:#181818;stroke-width:0.5;" x1="163.26" x2="240.927" y1="148" y2="148"/><line style="stroke:#181818;stroke-width:0.5;" x1="163.26" x2="240.927" y1="156" y2="156"/></g><!--class Superficie--><g id="elem_Superficie"><rect codeLine="3" fill="#F1F1F1" height="48" id="Superficie" rx="2.5" ry="2.5" style="stroke:#181818;stroke-width:0.5;" width="102.0342" x="301.07" y="241"/><ellipse cx="316.07" cy="257" fill="#ADD1B2" rx="11" ry="11" style="stroke:#181818;stroke-width:1.0;"/><path d="M319.0388,262.6406 Q318.4606,262.9375 317.82,263.0781 Q317.1794,263.2344 316.4763,263.2344 Q313.9763,263.2344 312.6481,261.5938 Q311.3356,259.9375 311.3356,256.8125 Q311.3356,253.6875 312.6481,252.0313 Q313.9763,250.375 316.4763,250.375 Q317.1794,250.375 317.82,250.5313 Q318.4763,250.6875 319.0388,250.9844 L319.0388,253.7031 Q318.4138,253.125 317.82,252.8594 Q317.2263,252.5781 316.6013,252.5781 Q315.2575,252.5781 314.57,253.6563 Q313.8825,254.7188 313.8825,256.8125 Q313.8825,258.9063 314.57,259.9844 Q315.2575,261.0469 316.6013,261.0469 Q317.2263,261.0469 317.82,260.7813 Q318.4138,260.5 319.0388,259.9219 L319.0388,262.6406 Z " fill="#000000"/><text fill="#000000" font-family="sans-serif" font-size="14" lengthAdjust="spacing" textLength="70.0342" x="330.07" y="261.8467">Superficie</text><line style="stroke:#181818;stroke-width:0.5;" x1="302.07" x2="402.1042" y1="273" y2="273"/><line style="stroke:#181818;stroke-width:0.5;" x1="302.07" x2="402.1042" y1="281" y2="281"/></g><!--class FuenteSonido--><g id="elem_FuenteSonido"><rect codeLine="4" fill="#F1F1F1" height="48" id="FuenteSonido" rx="2.5" ry="2.5" style="stroke:#181818;stroke-width:0.5;" width="128.1816" x="7" y="241"/><ellipse cx="22" cy="257" fill="#ADD1B2" rx="11" ry="11" style="stroke:#181818;stroke-width:1.0;"/><path d="M24.9688,262.6406 Q24.3906,262.9375 23.75,263.0781 Q23.1094,263.2344 22.4063,263.2344 Q19.9063,263.2344 18.5781,261.5938 Q17.2656,259.9375 17.2656,256.8125 Q17.2656,253.6875 18.5781,252.0313 Q19.9063,250.375 22.4063,250.375 Q23.1094,250.375 23.75,250.5313 Q24.4063,250.6875 24.9688,250.9844 L24.9688,253.7031 Q24.3438,253.125 23.75,252.8594 Q23.1563,252.5781 22.5313,252.5781 Q21.1875,252.5781 20.5,253.6563 Q19.8125,254.7188 19.8125,256.8125 Q19.8125,258.9063 20.5,259.9844 Q21.1875,261.0469 22.5313,261.0469 Q23.1563,261.0469 23.75,260.7813 Q24.3438,260.5 24.9688,259.9219 L24.9688,262.6406 Z " fill="#000000"/><text fill="#000000" font-family="sans-serif" font-size="14" lengthAdjust="spacing" textLength="96.1816" x="36" y="261.8467">FuenteSonido</text><line style="stroke:#181818;stroke-width:0.5;" x1="8" x2="134.1816" y1="273" y2="273"/><line style="stroke:#181818;stroke-width:0.5;" x1="8" x2="134.1816" y1="281" y2="281"/></g><!--class Oido--><g id="elem_Oido"><rect codeLine="5" fill="#F1F1F1" height="48" id="Oido" rx="2.5" ry="2.5" style="stroke:#181818;stroke-width:0.5;" width="64.3613" x="169.91" y="241"/><ellipse cx="184.91" cy="257" fill="#ADD1B2" rx="11" ry="11" style="stroke:#181818;stroke-width:1.0;"/><path d="M187.8788,262.6406 Q187.3006,262.9375 186.66,263.0781 Q186.0194,263.2344 185.3163,263.2344 Q182.8163,263.2344 181.4881,261.5938 Q180.1756,259.9375 180.1756,256.8125 Q180.1756,253.6875 181.4881,252.0313 Q182.8163,250.375 185.3163,250.375 Q186.0194,250.375 186.66,250.5313 Q187.3163,250.6875 187.8788,250.9844 L187.8788,253.7031 Q187.2538,253.125 186.66,252.8594 Q186.0663,252.5781 185.4413,252.5781 Q184.0975,252.5781 183.41,253.6563 Q182.7225,254.7188 182.7225,256.8125 Q182.7225,258.9063 183.41,259.9844 Q184.0975,261.0469 185.4413,261.0469 Q186.0663,261.0469 186.66,260.7813 Q187.2538,260.5 187.8788,259.9219 L187.8788,262.6406 Z " fill="#000000"/><text fill="#000000" font-family="sans-serif" font-size="14" lengthAdjust="spacing" textLength="32.3613" x="198.91" y="261.8467">Oido</text><line style="stroke:#181818;stroke-width:0.5;" x1="170.91" x2="233.2713" y1="273" y2="273"/><line style="stroke:#181818;stroke-width:0.5;" x1="170.91" x2="233.2713" y1="281" y2="281"/></g><!--class Distancia--><g id="elem_Distancia"><rect codeLine="6" fill="#F1F1F1" height="48" id="Distancia" rx="2.5" ry="2.5" style="stroke:#181818;stroke-width:0.5;" width="97.0713" x="461.56" y="116"/><ellipse cx="476.56" cy="132" fill="#ADD1B2" rx="11" ry="11" style="stroke:#181818;stroke-width:1.0;"/><path d="M479.5288,137.6406 Q478.9506,137.9375 478.31,138.0781 Q477.6694,138.2344 476.9663,138.2344 Q474.4663,138.2344 473.1381,136.5938 Q471.8256,134.9375 471.8256,131.8125 Q471.8256,128.6875 473.1381,127.0313 Q474.4663,125.375 476.9663,125.375 Q477.6694,125.375 478.31,125.5313 Q478.9663,125.6875 479.5288,125.9844 L479.5288,128.7031 Q478.9038,128.125 478.31,127.8594 Q477.7163,127.5781 477.0913,127.5781 Q475.7475,127.5781 475.06,128.6563 Q474.3725,129.7188 474.3725,131.8125 Q474.3725,133.9063 475.06,134.9844 Q475.7475,136.0469 477.0913,136.0469 Q477.7163,136.0469 478.31,135.7813 Q478.9038,135.5 479.5288,134.9219 L479.5288,137.6406 Z " fill="#000000"/><text fill="#000000" font-family="sans-serif" font-size="14" lengthAdjust="spacing" textLength="65.0713" x="490.56" y="136.8467">Distancia</text><line style="stroke:#181818;stroke-width:0.5;" x1="462.56" x2="557.6313" y1="148" y2="148"/><line style="stroke:#181818;stroke-width:0.5;" x1="462.56" x2="557.6313" y1="156" y2="156"/></g><!--class Objeto--><g id="elem_Objeto"><rect codeLine="7" fill="#F1F1F1" height="48" id="Objeto" rx="2.5" ry="2.5" style="stroke:#181818;stroke-width:0.5;" width="78.4639" x="276.86" y="116"/><ellipse cx="291.86" cy="132" fill="#ADD1B2" rx="11" ry="11" style="stroke:#181818;stroke-width:1.0;"/><path d="M294.8288,137.6406 Q294.2506,137.9375 293.61,138.0781 Q292.9694,138.2344 292.2663,138.2344 Q289.7663,138.2344 288.4381,136.5938 Q287.1256,134.9375 287.1256,131.8125 Q287.1256,128.6875 288.4381,127.0313 Q289.7663,125.375 292.2663,125.375 Q292.9694,125.375 293.61,125.5313 Q294.2663,125.6875 294.8288,125.9844 L294.8288,128.7031 Q294.2038,128.125 293.61,127.8594 Q293.0163,127.5781 292.3913,127.5781 Q291.0475,127.5781 290.36,128.6563 Q289.6725,129.7188 289.6725,131.8125 Q289.6725,133.9063 290.36,134.9844 Q291.0475,136.0469 292.3913,136.0469 Q293.0163,136.0469 293.61,135.7813 Q294.2038,135.5 294.8288,134.9219 L294.8288,137.6406 Z " fill="#000000"/><text fill="#000000" font-family="sans-serif" font-size="14" lengthAdjust="spacing" textLength="46.4639" x="305.86" y="136.8467">Objeto</text><line style="stroke:#181818;stroke-width:0.5;" x1="277.86" x2="354.3239" y1="148" y2="148"/><line style="stroke:#181818;stroke-width:0.5;" x1="277.86" x2="354.3239" y1="156" y2="156"/></g><!--class VelocidadSonido--><g id="elem_VelocidadSonido"><rect codeLine="8" fill="#F1F1F1" height="48" id="VelocidadSonido" rx="2.5" ry="2.5" style="stroke:#181818;stroke-width:0.5;" width="148.252" x="581.96" y="241"/><ellipse cx="596.96" cy="257" fill="#ADD1B2" rx="11" ry="11" style="stroke:#181818;stroke-width:1.0;"/><path d="M599.9288,262.6406 Q599.3506,262.9375 598.71,263.0781 Q598.0694,263.2344 597.3663,263.2344 Q594.8663,263.2344 593.5381,261.5938 Q592.2256,259.9375 592.2256,256.8125 Q592.2256,253.6875 593.5381,252.0313 Q594.8663,250.375 597.3663,250.375 Q598.0694,250.375 598.71,250.5313 Q599.3663,250.6875 599.9288,250.9844 L599.9288,253.7031 Q599.3038,253.125 598.71,252.8594 Q598.1163,252.5781 597.4913,252.5781 Q596.1475,252.5781 595.46,253.6563 Q594.7725,254.7188 594.7725,256.8125 Q594.7725,258.9063 595.46,259.9844 Q596.1475,261.0469 597.4913,261.0469 Q598.1163,261.0469 598.71,260.7813 Q599.3038,260.5 599.9288,259.9219 L599.9288,262.6406 Z " fill="#000000"/><text fill="#000000" font-family="sans-serif" font-size="14" lengthAdjust="spacing" textLength="116.252" x="610.96" y="261.8467">VelocidadSonido</text><line style="stroke:#181818;stroke-width:0.5;" x1="582.96" x2="729.212" y1="273" y2="273"/><line style="stroke:#181818;stroke-width:0.5;" x1="582.96" x2="729.212" y1="281" y2="281"/></g><!--class Tiempo--><g id="elem_Tiempo"><rect codeLine="9" fill="#F1F1F1" height="48" id="Tiempo" rx="2.5" ry="2.5" style="stroke:#181818;stroke-width:0.5;" width="84.1445" x="463.02" y="241"/><ellipse cx="478.02" cy="257" fill="#ADD1B2" rx="11" ry="11" style="stroke:#181818;stroke-width:1.0;"/><path d="M480.9888,262.6406 Q480.4106,262.9375 479.77,263.0781 Q479.1294,263.2344 478.4263,263.2344 Q475.9263,263.2344 474.5981,261.5938 Q473.2856,259.9375 473.2856,256.8125 Q473.2856,253.6875 474.5981,252.0313 Q475.9263,250.375 478.4263,250.375 Q479.1294,250.375 479.77,250.5313 Q480.4263,250.6875 480.9888,250.9844 L480.9888,253.7031 Q480.3638,253.125 479.77,252.8594 Q479.1763,252.5781 478.5513,252.5781 Q477.2075,252.5781 476.52,253.6563 Q475.8325,254.7188 475.8325,256.8125 Q475.8325,258.9063 476.52,259.9844 Q477.2075,261.0469 478.5513,261.0469 Q479.1763,261.0469 479.77,260.7813 Q480.3638,260.5 480.9888,259.9219 L480.9888,262.6406 Z " fill="#000000"/><text fill="#000000" font-family="sans-serif" font-size="14" lengthAdjust="spacing" textLength="52.1445" x="492.02" y="261.8467">Tiempo</text><line style="stroke:#181818;stroke-width:0.5;" x1="464.02" x2="546.1645" y1="273" y2="273"/><line style="stroke:#181818;stroke-width:0.5;" x1="464.02" x2="546.1645" y1="281" y2="281"/></g><!--link Eco to Sonido--><g id="link_Eco_Sonido"><path codeLine="11" d="M282.49,55.48 C265.31,73.32 241.8,97.75 224.64,115.57 " fill="none" id="Eco-Sonido" style="stroke:#181818;stroke-width:1.0;"/></g><!--link Eco to Superficie--><g id="link_Eco_Superficie"><path codeLine="12" d="M331.33,55.25 C346.73,70.72 364.76,92.48 373.09,116 C388.03,158.2 373.3,210.73 362.1,240.5 " fill="none" id="Eco-Superficie" style="stroke:#181818;stroke-width:1.0;"/></g><!--link Sonido to FuenteSonido--><g id="link_Sonido_FuenteSonido"><path codeLine="13" d="M177.14,164.42 C153.83,186.31 119.23,218.8 95.95,240.66 " fill="none" id="Sonido-FuenteSonido" style="stroke:#181818;stroke-width:1.0;"/></g><!--link Sonido to Oido--><g id="link_Sonido_Oido"><path codeLine="14" d="M202.09,164.42 C202.09,186.31 202.09,218.8 202.09,240.66 " fill="none" id="Sonido-Oido" style="stroke:#181818;stroke-width:1.0;"/></g><!--link Sonido to Superficie--><g id="link_Sonido_Superficie"><path codeLine="15" d="M226.45,164.41 C241.3,178.36 260.87,196.18 279.09,211 C291.6,221.18 305.87,231.75 318.44,240.74 " fill="none" id="Sonido-Superficie" style="stroke:#181818;stroke-width:1.0;"/><text fill="#000000" font-family="sans-serif" font-size="13" lengthAdjust="spacing" textLength="42.6118" x="280.09" y="207.0669">rebota</text></g><!--link Distancia to Superficie--><g id="link_Distancia_Superficie"><path codeLine="16" d="M486.71,164.48 C472.13,178.62 452.67,196.61 434.09,211 C420.69,221.38 405.25,231.74 391.4,240.51 " fill="none" id="Distancia-Superficie" style="stroke:#181818;stroke-width:1.0;"/></g><!--link Objeto to Superficie--><g id="link_Objeto_Superficie"><path codeLine="17" d="M322.95,164.42 C329.35,186.31 338.86,218.8 345.26,240.66 " fill="none" id="Objeto-Superficie" style="stroke:#181818;stroke-width:1.0;"/></g><!--link Distancia to VelocidadSonido--><g id="link_Distancia_VelocidadSonido"><path codeLine="18" d="M537.9,164.42 C563.87,186.31 602.44,218.8 628.39,240.66 " fill="none" id="Distancia-VelocidadSonido" style="stroke:#181818;stroke-width:1.0;"/></g><!--link Distancia to Tiempo--><g id="link_Distancia_Tiempo"><path codeLine="19" d="M509.14,164.42 C508.25,186.31 506.93,218.8 506.04,240.66 " fill="none" id="Distancia-Tiempo" style="stroke:#181818;stroke-width:1.0;"/></g><!--SRC=[NOyz3eCm38Ntd29YvmATswuCeEx6SIKZY149zsyXXCZP_DxppsUS8GJxGZ5uLhruThVOLzg-Z4oNyTx9Hr8zNIcV729uPCZHE57CuOTcGNRWrFJ0jAnYp1_0jcs-dbKvduB3L0Z5xhGie_PXcur6YT2O6x3Qda0hKpNNz2fCJ_m0]--></g></svg>