<svg xmlns="http://www.w3.org/2000/svg" xmlns:xlink="http://www.w3.org/1999/xlink" contentStyleType="text/css" height="296px" preserveAspectRatio="none" style="width:598px;height:296px;background:#FFFFFF;" version="1.1" viewBox="0 0 598 296" width="598px" zoomAndPan="magnify"><defs/><g><!--class Eco--><g id="elem_Eco"><rect codeLine="1" fill="#F1F1F1" height="48" id="Eco" rx="2.5" ry="2.5" style="stroke:#181818;stroke-width:0.5;" width="57.1084" x="251.54" y="7"/><ellipse cx="266.54" cy="23" fill="#ADD1B2" rx="11" ry="11" style="stroke:#181818;stroke-width:1.0;"/><path d="M269.5087,28.6406 Q268.9306,28.9375 268.29,29.0781 Q267.6494,29.2344 266.9462,29.2344 Q264.4462,29.2344 263.1181,27.5938 Q261.8056,25.9375 261.8056,22.8125 Q261.8056,19.6875 263.1181,18.0313 Q264.4462,16.375 266.9462,16.375 Q267.6494,16.375 268.29,16.5313 Q268.9462,16.6875 269.5087,16.9844 L269.5087,19.7031 Q268.8837,19.125 268.29,18.8594 Q267.6962,18.5781 267.0712,18.5781 Q265.7275,18.5781 265.04,19.6563 Q264.3525,20.7188 264.3525,22.8125 Q264.3525,24.9063 265.04,25.9844 Q265.7275,27.0469 267.0712,27.0469 Q267.6962,27.0469 268.29,26.7813 Q268.8837,26.5 269.5087,25.9219 L269.5087,28.6406 Z " fill="#000000"/><text fill="#000000" font-family="sans-serif" font-size="14" lengthAdjust="spacing" textLength="25.1084" x="280.54" y="27.8467">Eco</text><line style="stroke:#181818;stroke-width:0.5;" x1="252.54" x2="307.6484" y1="39" y2="39"/><line style="stroke:#181818;stroke-width:0.5;" x1="252.54" x2="307.6484" y1="47" y2="47"/></g><!--class Sonido--><g id="elem_Sonido"><rect codeLine="2" fill="#F1F1F1" height="48" id="Sonido" rx="2.5" ry="2.5" style="stroke:#181818;stroke-width:0.5;" width="79.667" x="178.26" y="116"/><ellipse cx="193.26" cy="132" fill="#ADD1B2" rx="11" ry="11" style="stroke:#181818;stroke-width:1.0;"/><path d="M196.2288,137.6406 Q195.6506,137.9375 195.01,138.0781 Q194.3694,138.2344 193.6663,138.2344 Q191.1663,138.2344 189.8381,136.5938 Q188.5256,134.9375 188.5256,131.8125 Q188.5256,128.6875 189.8381,127.0313 Q191.1663,125.375 193.6663,125.375 Q194.3694,125.375 195.01,125.5313 Q195.6663,125.6875 196.2288,125.9844 L196.2288,128.7031 Q195.6038,128.125 195.01,127.8594 Q194.4163,127.5781 193.7913,127.5781 Q192.4475,127.5781 191.76,128.6563 Q191.0725,129.7188 191.0725,131.8125 Q191.0725,133.9063 191.76,134.9844 Q192.4475,136.0469 193.7913,136.0469 Q194.4163,136.0469 195.01,135.7813 Q195.6038,135.5 196.2288,134.9219 L196.2288,137.6406 Z " fill="#000000"/><text fill="#000000" font-family="sans-serif" font-size="14" lengthAdjust="spacing" textLength="47.667" x="207.26" y="136.8467">Sonido</text><line style="stroke:#181818;stroke-width:0.5;" x1="179.26" x2="256.927" y1="148" y2="148"/><line style="stroke:#181818;stroke-width:0.5;" x1="179.26" x2="256.927" y1="156" y2="156"/></g><!--class Superficie--><g id="elem_Superficie"><rect codeLine="3" fill="#F1F1F1" height="48" id="Superficie" rx="2.5" ry="2.5" style="stroke:#181818;stroke-width:0.5;" width="102.0342" x="327.07" y="241"/><ellipse cx="342.07" cy="257" fill="#ADD1B2" rx="11" ry="11" style="stroke:#181818;stroke-width:1.0;"/><path d="M345.0388,262.6406 Q344.4606,262.9375 343.82,263.0781 Q343.1794,263.2344 342.4763,263.2344 Q339.9763,263.2344 338.6481,261.5938 Q337.3356,259.9375 337.3356,256.8125 Q337.3356,253.6875 338.6481,252.0313 Q339.9763,250.375 342.4763,250.375 Q343.1794,250.375 343.82,250.5313 Q344.4763,250.6875 345.0388,250.9844 L345.0388,253.7031 Q344.4138,253.125 343.82,252.8594 Q343.2263,252.5781 342.6013,252.5781 Q341.2575,252.5781 340.57,253.6563 Q339.8825,254.7188 339.8825,256.8125 Q339.8825,258.9063 340.57,259.9844 Q341.2575,261.0469 342.6013,261.0469 Q343.2263,261.0469 343.82,260.7813 Q344.4138,260.5 345.0388,259.9219 L345.0388,262.6406 Z " fill="#000000"/><text fill="#000000" font-family="sans-serif" font-size="14" lengthAdjust="spacing" textLength="70.0342" x="356.07" y="261.8467">Superficie</text><line style="stroke:#181818;stroke-width:0.5;" x1="328.07" x2="428.1042" y1="273" y2="273"/><line style="stroke:#181818;stroke-width:0.5;" x1="328.07" x2="428.1042" y1="281" y2="281"/></g><!--class FuenteSonido--><g id="elem_FuenteSonido"><rect codeLine="4" fill="#F1F1F1" height="48" id="FuenteSonido" rx="2.5" ry="2.5" style="stroke:#181818;stroke-width:0.5;" width="128.1816" x="7" y="241"/><ellipse cx="22" cy="257" fill="#ADD1B2" rx="11" ry="11" style="stroke:#181818;stroke-width:1.0;"/><path d="M24.9688,262.6406 Q24.3906,262.9375 23.75,263.0781 Q23.1094,263.2344 22.4063,263.2344 Q19.9063,263.2344 18.5781,261.5938 Q17.2656,259.9375 17.2656,256.8125 Q17.2656,253.6875 18.5781,252.0313 Q19.9063,250.375 22.4063,250.375 Q23.1094,250.375 23.75,250.5313 Q24.4063,250.6875 24.9688,250.9844 L24.9688,253.7031 Q24.3438,253.125 23.75,252.8594 Q23.1563,252.5781 22.5313,252.5781 Q21.1875,252.5781 20.5,253.6563 Q19.8125,254.7188 19.8125,256.8125 Q19.8125,258.9063 20.5,259.9844 Q21.1875,261.0469 22.5313,261.0469 Q23.1563,261.0469 23.75,260.7813 Q24.3438,260.5 24.9688,259.9219 L24.9688,262.6406 Z " fill="#000000"/><text fill="#000000" font-family="sans-serif" font-size="14" lengthAdjust="spacing" textLength="96.1816" x="36" y="261.8467">FuenteSonido</text><line style="stroke:#181818;stroke-width:0.5;" x1="8" x2="134.1816" y1="273" y2="273"/><line style="stroke:#181818;stroke-width:0.5;" x1="8" x2="134.1816" y1="281" y2="281"/></g><!--class Oido--><g id="elem_Oido"><rect codeLine="5" fill="#F1F1F1" height="48" id="Oido" rx="2.5" ry="2.5" style="stroke:#181818;stroke-width:0.5;" width="64.3613" x="169.91" y="241"/><ellipse cx="184.91" cy="257" fill="#ADD1B2" rx="11" ry="11" style="stroke:#181818;stroke-width:1.0;"/><path d="M187.8788,262.6406 Q187.3006,262.9375 186.66,263.0781 Q186.0194,263.2344 185.3163,263.2344 Q182.8163,263.2344 181.4881,261.5938 Q180.1756,259.9375 180.1756,256.8125 Q180.1756,253.6875 181.4881,252.0313 Q182.8163,250.375 185.3163,250.375 Q186.0194,250.375 186.66,250.5313 Q187.3163,250.6875 187.8788,250.9844 L187.8788,253.7031 Q187.2538,253.125 186.66,252.8594 Q186.0663,252.5781 185.4413,252.5781 Q184.0975,252.5781 183.41,253.6563 Q182.7225,254.7188 182.7225,256.8125 Q182.7225,258.9063 183.41,259.9844 Q184.0975,261.0469 185.4413,261.0469 Q186.0663,261.0469 186.66,260.7813 Q187.2538,260.5 187.8788,259.9219 L187.8788,262.6406 Z " fill="#000000"/><text fill="#000000" font-family="sans-serif" font-size="14" lengthAdjust="spacing" textLength="32.3613" x="198.91" y="261.8467">Oido</text><line style="stroke:#181818;stroke-width:0.5;" x1="170.91" x2="233.2713" y1="273" y2="273"/><line style="stroke:#181818;stroke-width:0.5;" x1="170.91" x2="233.2713" y1="281" y2="281"/></g><!--class Distancia--><g id="elem_Distancia"><rect codeLine="6" fill="#F1F1F1" height="48" id="Distancia" rx="2.5" ry="2.5" style="stroke:#181818;stroke-width:0.5;" width="97.0713" x="380.56" y="116"/><ellipse cx="395.56" cy="132" fill="#ADD1B2" rx="11" ry="11" style="stroke:#181818;stroke-width:1.0;"/><path d="M398.5288,137.6406 Q397.9506,137.9375 397.31,138.0781 Q396.6694,138.2344 395.9663,138.2344 Q393.4663,138.2344 392.1381,136.5938 Q390.8256,134.9375 390.8256,131.8125 Q390.8256,128.6875 392.1381,127.0313 Q393.4663,125.375 395.9663,125.375 Q396.6694,125.375 397.31,125.5313 Q397.9663,125.6875 398.5288,125.9844 L398.5288,128.7031 Q397.9038,128.125 397.31,127.8594 Q396.7163,127.5781 396.0913,127.5781 Q394.7475,127.5781 394.06,128.6563 Q393.3725,129.7188 393.3725,131.8125 Q393.3725,133.9063 394.06,134.9844 Q394.7475,136.0469 396.0913,136.0469 Q396.7163,136.0469 397.31,135.7813 Q397.9038,135.5 398.5288,134.9219 L398.5288,137.6406 Z " fill="#000000"/><text fill="#000000" font-family="sans-serif" font-size="14" lengthAdjust="spacing" textLength="65.0713" x="409.56" y="136.8467">Distancia</text><line style="stroke:#181818;stroke-width:0.5;" x1="381.56" x2="476.6313" y1="148" y2="148"/><line style="stroke:#181818;stroke-width:0.5;" x1="381.56" x2="476.6313" y1="156" y2="156"/></g><!--class Objeto--><g id="elem_Objeto"><rect codeLine="7" fill="#F1F1F1" height="48" id="Objeto" rx="2.5" ry="2.5" style="stroke:#181818;stroke-width:0.5;" width="78.4639" x="512.86" y="116"/><ellipse cx="527.86" cy="132" fill="#ADD1B2" rx="11" ry="11" style="stroke:#181818;stroke-width:1.0;"/><path d="M530.8288,137.6406 Q530.2506,137.9375 529.61,138.0781 Q528.9694,138.2344 528.2663,138.2344 Q525.7663,138.2344 524.4381,136.5938 Q523.1256,134.9375 523.1256,131.8125 Q523.1256,128.6875 524.4381,127.0313 Q525.7663,125.375 528.2663,125.375 Q528.9694,125.375 529.61,125.5313 Q530.2663,125.6875 530.8288,125.9844 L530.8288,128.7031 Q530.2038,128.125 529.61,127.8594 Q529.0163,127.5781 528.3913,127.5781 Q527.0475,127.5781 526.36,128.6563 Q525.6725,129.7188 525.6725,131.8125 Q525.6725,133.9063 526.36,134.9844 Q527.0475,136.0469 528.3913,136.0469 Q529.0163,136.0469 529.61,135.7813 Q530.2038,135.5 530.8288,134.9219 L530.8288,137.6406 Z " fill="#000000"/><text fill="#000000" font-family="sans-serif" font-size="14" lengthAdjust="spacing" textLength="46.4639" x="541.86" y="136.8467">Objeto</text><line style="stroke:#181818;stroke-width:0.5;" x1="513.86" x2="590.3239" y1="148" y2="148"/><line style="stroke:#181818;stroke-width:0.5;" x1="513.86" x2="590.3239" y1="156" y2="156"/></g><!--link Eco to Sonido--><g id="link_Eco_Sonido"><path codeLine="9" d="M266.48,55.48 C256.15,73.32 241.99,97.75 231.67,115.57 " fill="none" id="Eco-Sonido" style="stroke:#181818;stroke-width:1.0;"/></g><!--link Eco to Superficie--><g id="link_Eco_Superficie"><path codeLine="10" d="M289.85,55.09 C308.58,99.45 349.41,196.1 368.23,240.66 " fill="none" id="Eco-Superficie" style="stroke:#181818;stroke-width:1.0;"/></g><!--link Sonido to FuenteSonido--><g id="link_Sonido_FuenteSonido"><path codeLine="11" d="M190.1,164.42 C163.94,186.31 125.11,218.8 98.98,240.66 " fill="none" id="Sonido-FuenteSonido" style="stroke:#181818;stroke-width:1.0;"/></g><!--link Sonido to Oido--><g id="link_Sonido_Oido"><path codeLine="12" d="M215.04,164.42 C212.2,186.31 207.97,218.8 205.13,240.66 " fill="none" id="Sonido-Oido" style="stroke:#181818;stroke-width:1.0;"/></g><!--link Sonido to Superficie--><g id="link_Sonido_Superficie"><path codeLine="13" d="M226.54,164.34 C232.96,179.31 243.09,198.28 257.09,211 C276.78,228.89 303.47,241.45 326.77,249.84 " fill="none" id="Sonido-Superficie" style="stroke:#181818;stroke-width:1.0;"/><text fill="#000000" font-family="sans-serif" font-size="13" lengthAdjust="spacing" textLength="42.6118" x="258.09" y="207.0669">rebota</text></g><!--link Distancia to Superficie--><g id="link_Distancia_Superficie"><path codeLine="14" d="M419.38,164.42 C410.3,186.31 396.83,218.8 387.77,240.66 " fill="none" id="Distancia-Superficie" style="stroke:#181818;stroke-width:1.0;"/></g><!--link Objeto to Superficie--><g id="link_Objeto_Superficie"><path codeLine="15" d="M518.95,164.42 C487.99,186.31 442.03,218.8 411.11,240.66 " fill="none" id="Objeto-Superficie" style="stroke:#181818;stroke-width:1.0;"/></g><!--SRC=[Iyv9B2vMS4tEvqe6iuBpyp9Ju9pIWjIYjCpap5IeW5jfQbv9AeeQVmJJ9REu934lEJCH9fMKbLgIpyK5D5r1LnTcD8o7C1iY0H94CHyXx8_AHMXLi59GAafDoYz9LEA2suvcEiGLg880]--></g></svg>