<svg xmlns="http://www.w3.org/2000/svg" xmlns:xlink="http://www.w3.org/1999/xlink" contentStyleType="text/css" height="349px" preserveAspectRatio="none" style="width:351px;height:349px;background:#FFFFFF;" version="1.1" viewBox="0 0 351 349" width="351px" zoomAndPan="magnify"><title>Modelo de Ciclo de Vida de un Producto</title><defs/><g><text fill="#000000" font-family="sans-serif" font-size="14" font-weight="bold" lengthAdjust="spacing" textLength="314.3574" x="11.5116" y="22.9951">Modelo de Ciclo de Vida de un Producto</text><!--class Producto--><g id="elem_Producto"><rect codeLine="3" fill="#F1F1F1" height="48" id="Producto" rx="2.5" ry="2.5" style="stroke:#181818;stroke-width:0.5;" width="94.2754" x="167.07" y="169.2969"/><ellipse cx="182.07" cy="185.2969" fill="#ADD1B2" rx="11" ry="11" style="stroke:#181818;stroke-width:1.0;"/><path d="M185.0388,190.9375 Q184.4606,191.2344 183.82,191.375 Q183.1794,191.5313 182.4763,191.5313 Q179.9763,191.5313 178.6481,189.8906 Q177.3356,188.2344 177.3356,185.1094 Q177.3356,181.9844 178.6481,180.3281 Q179.9763,178.6719 182.4763,178.6719 Q183.1794,178.6719 183.82,178.8281 Q184.4763,178.9844 185.0388,179.2813 L185.0388,182 Q184.4138,181.4219 183.82,181.1563 Q183.2263,180.875 182.6013,180.875 Q181.2575,180.875 180.57,181.9531 Q179.8825,183.0156 179.8825,185.1094 Q179.8825,187.2031 180.57,188.2813 Q181.2575,189.3438 182.6013,189.3438 Q183.2263,189.3438 183.82,189.0781 Q184.4138,188.7969 185.0388,188.2188 L185.0388,190.9375 Z " fill="#000000"/><text fill="#000000" font-family="sans-serif" font-size="14" lengthAdjust="spacing" textLength="62.2754" x="196.07" y="190.1436">Producto</text><line style="stroke:#181818;stroke-width:0.5;" x1="168.07" x2="260.3454" y1="201.2969" y2="201.2969"/><line style="stroke:#181818;stroke-width:0.5;" x1="168.07" x2="260.3454" y1="209.2969" y2="209.2969"/></g><!--class Comprador--><g id="elem_Comprador"><rect codeLine="5" fill="#F1F1F1" height="48" id="Comprador" rx="2.5" ry="2.5" style="stroke:#181818;stroke-width:0.5;" width="110.4082" x="7" y="294.2969"/><ellipse cx="22" cy="310.2969" fill="#ADD1B2" rx="11" ry="11" style="stroke:#181818;stroke-width:1.0;"/><path d="M24.9688,315.9375 Q24.3906,316.2344 23.75,316.375 Q23.1094,316.5313 22.4063,316.5313 Q19.9063,316.5313 18.5781,314.8906 Q17.2656,313.2344 17.2656,310.1094 Q17.2656,306.9844 18.5781,305.3281 Q19.9063,303.6719 22.4063,303.6719 Q23.1094,303.6719 23.75,303.8281 Q24.4063,303.9844 24.9688,304.2813 L24.9688,307 Q24.3438,306.4219 23.75,306.1563 Q23.1563,305.875 22.5313,305.875 Q21.1875,305.875 20.5,306.9531 Q19.8125,308.0156 19.8125,310.1094 Q19.8125,312.2031 20.5,313.2813 Q21.1875,314.3438 22.5313,314.3438 Q23.1563,314.3438 23.75,314.0781 Q24.3438,313.7969 24.9688,313.2188 L24.9688,315.9375 Z " fill="#000000"/><text fill="#000000" font-family="sans-serif" font-size="14" lengthAdjust="spacing" textLength="78.4082" x="36" y="315.1436">Comprador</text><line style="stroke:#181818;stroke-width:0.5;" x1="8" x2="116.4082" y1="326.2969" y2="326.2969"/><line style="stroke:#181818;stroke-width:0.5;" x1="8" x2="116.4082" y1="334.2969" y2="334.2969"/></g><!--class Mercado--><g id="elem_Mercado"><rect codeLine="7" fill="#F1F1F1" height="48" id="Mercado" rx="2.5" ry="2.5" style="stroke:#181818;stroke-width:0.5;" width="92.1768" x="230.12" y="294.2969"/><ellipse cx="245.12" cy="310.2969" fill="#ADD1B2" rx="11" ry="11" style="stroke:#181818;stroke-width:1.0;"/><path d="M248.0888,315.9375 Q247.5106,316.2344 246.87,316.375 Q246.2294,316.5313 245.5263,316.5313 Q243.0263,316.5313 241.6981,314.8906 Q240.3856,313.2344 240.3856,310.1094 Q240.3856,306.9844 241.6981,305.3281 Q243.0263,303.6719 245.5263,303.6719 Q246.2294,303.6719 246.87,303.8281 Q247.5263,303.9844 248.0888,304.2813 L248.0888,307 Q247.4638,306.4219 246.87,306.1563 Q246.2763,305.875 245.6513,305.875 Q244.3075,305.875 243.62,306.9531 Q242.9325,308.0156 242.9325,310.1094 Q242.9325,312.2031 243.62,313.2813 Q244.3075,314.3438 245.6513,314.3438 Q246.2763,314.3438 246.87,314.0781 Q247.4638,313.7969 248.0888,313.2188 L248.0888,315.9375 Z " fill="#000000"/><text fill="#000000" font-family="sans-serif" font-size="14" lengthAdjust="spacing" textLength="60.1768" x="259.12" y="315.1436">Mercado</text><line style="stroke:#181818;stroke-width:0.5;" x1="231.12" x2="321.2968" y1="326.2969" y2="326.2969"/><line style="stroke:#181818;stroke-width:0.5;" x1="231.12" x2="321.2968" y1="334.2969" y2="334.2969"/></g><!--class Fabricante--><g id="elem_Fabricante"><rect codeLine="9" fill="#F1F1F1" height="48" id="Fabricante" rx="2.5" ry="2.5" style="stroke:#181818;stroke-width:0.5;" width="106.416" x="161" y="44.2969"/><ellipse cx="176" cy="60.2969" fill="#ADD1B2" rx="11" ry="11" style="stroke:#181818;stroke-width:1.0;"/><path d="M178.9688,65.9375 Q178.3906,66.2344 177.75,66.375 Q177.1094,66.5313 176.4063,66.5313 Q173.9063,66.5313 172.5781,64.8906 Q171.2656,63.2344 171.2656,60.1094 Q171.2656,56.9844 172.5781,55.3281 Q173.9063,53.6719 176.4063,53.6719 Q177.1094,53.6719 177.75,53.8281 Q178.4063,53.9844 178.9688,54.2813 L178.9688,57 Q178.3438,56.4219 177.75,56.1563 Q177.1563,55.875 176.5313,55.875 Q175.1875,55.875 174.5,56.9531 Q173.8125,58.0156 173.8125,60.1094 Q173.8125,62.2031 174.5,63.2813 Q175.1875,64.3438 176.5313,64.3438 Q177.1563,64.3438 177.75,64.0781 Q178.3438,63.7969 178.9688,63.2188 L178.9688,65.9375 Z " fill="#000000"/><text fill="#000000" font-family="sans-serif" font-size="14" lengthAdjust="spacing" textLength="74.416" x="190" y="65.1436">Fabricante</text><line style="stroke:#181818;stroke-width:0.5;" x1="162" x2="266.416" y1="76.2969" y2="76.2969"/><line style="stroke:#181818;stroke-width:0.5;" x1="162" x2="266.416" y1="84.2969" y2="84.2969"/></g><!--link Producto to Comprador--><g id="link_Producto_Comprador"><path codeLine="11" d="M166.81,202.7869 C138.9,210.1169 104.93,223.4469 83.2,247.2969 C71.58,260.0569 67.2983,273.0776 64.9783,288.0576 " fill="none" id="Producto-to-Comprador" style="stroke:#181818;stroke-width:1.0;"/><polygon fill="#181818" points="64.06,293.9869,69.3903,285.7051,64.8252,289.0458,61.4846,284.4807,64.06,293.9869" style="stroke:#181818;stroke-width:1.0;"/><text fill="#000000" font-family="sans-serif" font-size="13" lengthAdjust="spacing" textLength="110.1191" x="84.2" y="260.3638">es comprado por</text></g><!--link Mercado to Producto--><g id="link_Mercado_Producto"><path codeLine="12" d="M293.12,294.0069 C301.12,279.9369 307.34,261.9469 299.2,247.2969 C290.85,232.2469 281.4906,223.8286 266.7106,215.5886 " fill="none" id="Mercado-to-Producto" style="stroke:#181818;stroke-width:1.0;"/><polygon fill="#181818" points="261.47,212.6669,267.3831,220.5431,265.8372,215.1016,271.2787,213.5557,261.47,212.6669" style="stroke:#181818;stroke-width:1.0;"/><text fill="#000000" font-family="sans-serif" font-size="13" lengthAdjust="spacing" textLength="40.1807" x="303.2" y="260.3638">vende</text></g><!--link Producto to Mercado--><g id="link_Producto_Mercado"><path codeLine="14" d="M205.85,217.4769 C202.16,231.6769 200.08,249.8369 207.2,264.2969 C213.01,276.0869 218.0604,282.3499 228.5104,290.2799 " fill="none" id="Producto-to-Mercado" style="stroke:#181818;stroke-width:1.0;"/><polygon fill="#181818" points="233.29,293.9069,228.5386,285.2799,229.307,290.8844,223.7026,291.6528,233.29,293.9069" style="stroke:#181818;stroke-width:1.0;"/><text fill="#000000" font-family="sans-serif" font-size="13" lengthAdjust="spacing" textLength="82.5386" x="208.2" y="260.3638">es listado en</text></g><!--link Fabricante to Producto--><g id="link_Fabricante_Producto"><path codeLine="13" d="M214.2,92.7169 C214.2,114.6069 214.2,141.0969 214.2,162.9569 " fill="none" id="Fabricante-to-Producto" style="stroke:#181818;stroke-width:1.0;"/><polygon fill="#181818" points="214.2,168.9569,218.2,159.9569,214.2,163.9569,210.2,159.9569,214.2,168.9569" style="stroke:#181818;stroke-width:1.0;"/><text fill="#000000" font-family="sans-serif" font-size="13" lengthAdjust="spacing" textLength="44.8652" x="215.2" y="135.3638">fabrica</text></g><!--SRC=[NOsn3i8m34JtV8MLlJ_0m5A9hH8JUx2D52cDAoVb-qcRf50c-yvtpzddm309SH0WXj5ZNHwUt3RN27SLMZ6BCHXSIeU6RemoB-f8j1iJAnRTvSqzrQEBcKlbQ0_3zTkyWEK4s2GiejOqoXxihP9xSoIsvWVw5tZLYps_QhJwAFYKDpH7-m40]--></g></svg>