<svg xmlns="http://www.w3.org/2000/svg" xmlns:xlink="http://www.w3.org/1999/xlink" contentStyleType="text/css" height="898px" preserveAspectRatio="none" style="width:1141px;height:898px;background:#FFFFFF;" version="1.1" viewBox="0 0 1141 898" width="1141px" zoomAndPan="magnify"><title>Diagrama de Estados del Ciclo de Vida de un Producto</title><defs/><g><text fill="#000000" font-family="sans-serif" font-size="14" font-weight="bold" lengthAdjust="spacing" textLength="429.2217" x="349.225" y="22.9951">Diagrama de Estados del Ciclo de Vida de un Producto</text><ellipse cx="499.16" cy="53.2969" fill="#222222" rx="10" ry="10" style="stroke:#222222;stroke-width:1.0;"/><g id="Concepto"><rect fill="#F1F1F1" height="50" rx="12.5" ry="12.5" style="stroke:#181818;stroke-width:0.5;" width="86.4658" x="455.93" y="124.2969"/><line style="stroke:#181818;stroke-width:0.5;" x1="455.93" x2="542.3958" y1="150.5938" y2="150.5938"/><text fill="#000000" font-family="sans-serif" font-size="14" lengthAdjust="spacing" textLength="66.4658" x="465.93" y="142.292">Concepto</text></g><g id="Dise&#241;o"><rect fill="#F1F1F1" height="50" rx="12.5" ry="12.5" style="stroke:#181818;stroke-width:0.5;" width="68.0156" x="465.15" y="251.2969"/><line style="stroke:#181818;stroke-width:0.5;" x1="465.15" x2="533.1656" y1="277.5938" y2="277.5938"/><text fill="#000000" font-family="sans-serif" font-size="14" lengthAdjust="spacing" textLength="48.0156" x="475.15" y="269.292">Dise&#241;o</text></g><g id="Producci&#243;n"><rect fill="#F1F1F1" height="50" rx="12.5" ry="12.5" style="stroke:#181818;stroke-width:0.5;" width="97.2461" x="450.54" y="378.2969"/><line style="stroke:#181818;stroke-width:0.5;" x1="450.54" x2="547.7861" y1="404.5938" y2="404.5938"/><text fill="#000000" font-family="sans-serif" font-size="14" lengthAdjust="spacing" textLength="77.2461" x="460.54" y="396.292">Producci&#243;n</text></g><g id="Distribucion"><rect fill="#F1F1F1" height="50" rx="12.5" ry="12.5" style="stroke:#181818;stroke-width:0.5;" width="103.8838" x="447.22" y="505.2969"/><line style="stroke:#181818;stroke-width:0.5;" x1="447.22" x2="551.1038" y1="531.5938" y2="531.5938"/><text fill="#000000" font-family="sans-serif" font-size="14" lengthAdjust="spacing" textLength="83.8838" x="457.22" y="523.292">Distribucion</text></g><g id="EnVenta"><rect fill="#F1F1F1" height="50" rx="12.5" ry="12.5" style="stroke:#181818;stroke-width:0.5;" width="78.8506" x="459.74" y="632.2969"/><line style="stroke:#181818;stroke-width:0.5;" x1="459.74" x2="538.5906" y1="658.5938" y2="658.5938"/><text fill="#000000" font-family="sans-serif" font-size="14" lengthAdjust="spacing" textLength="58.8506" x="469.74" y="650.292">EnVenta</text></g><g id="Obsoleto"><rect fill="#F1F1F1" height="50" rx="12.5" ry="12.5" style="stroke:#181818;stroke-width:0.5;" width="82.3232" x="7" y="759.2969"/><line style="stroke:#181818;stroke-width:0.5;" x1="7" x2="89.3232" y1="785.5938" y2="785.5938"/><text fill="#000000" font-family="sans-serif" font-size="14" lengthAdjust="spacing" textLength="62.3232" x="17" y="777.292">Obsoleto</text></g><ellipse cx="105.16" cy="881.2969" fill="none" rx="11" ry="11" style="stroke:#222222;stroke-width:1.0;"/><ellipse cx="105.16" cy="881.2969" fill="#222222" rx="6" ry="6" style="stroke:#222222;stroke-width:1.0;"/><g id="Retirado"><rect fill="#F1F1F1" height="50" rx="12.5" ry="12.5" style="stroke:#181818;stroke-width:0.5;" width="79.5068" x="143.41" y="759.2969"/><line style="stroke:#181818;stroke-width:0.5;" x1="143.41" x2="222.9168" y1="785.5938" y2="785.5938"/><text fill="#000000" font-family="sans-serif" font-size="14" lengthAdjust="spacing" textLength="59.5068" x="153.41" y="777.292">Retirado</text></g><g id="Actualizaci&#243;n"><rect fill="#F1F1F1" height="50" rx="12.5" ry="12.5" style="stroke:#181818;stroke-width:0.5;" width="112.9482" x="442.69" y="759.2969"/><line style="stroke:#181818;stroke-width:0.5;" x1="442.69" x2="555.6382" y1="785.5938" y2="785.5938"/><text fill="#000000" font-family="sans-serif" font-size="14" lengthAdjust="spacing" textLength="92.9482" x="452.69" y="777.292">Actualizaci&#243;n</text></g><g id="Mantenimiento"><rect fill="#F1F1F1" height="50" rx="12.5" ry="12.5" style="stroke:#181818;stroke-width:0.5;" width="125.4648" x="859.43" y="759.2969"/><line style="stroke:#181818;stroke-width:0.5;" x1="859.43" x2="984.8948" y1="785.5938" y2="785.5938"/><text fill="#000000" font-family="sans-serif" font-size="14" lengthAdjust="spacing" textLength="105.4648" x="869.43" y="777.292">Mantenimiento</text></g><!--link *start* to Concepto--><g id="link_*start*_Concepto"><path d="M499.16,63.6569 C499.16,77.5869 499.16,98.2469 499.16,117.9469 " fill="none" id="*start*-to-Concepto" style="stroke:#181818;stroke-width:1.0;"/><polygon fill="#181818" points="499.16,123.9469,503.16,114.9469,499.16,118.9469,495.16,114.9469,499.16,123.9469" style="stroke:#181818;stroke-width:1.0;"/></g><!--link Concepto to Dise?o--><g id="link_Concepto_Dise&#241;o"><path d="M499.16,174.6969 C499.16,196.7169 499.16,222.9569 499.16,244.9569 " fill="none" id="Concepto-to-Dise&#241;o" style="stroke:#181818;stroke-width:1.0;"/><polygon fill="#181818" points="499.16,250.9569,503.16,241.9569,499.16,245.9569,495.16,241.9569,499.16,250.9569" style="stroke:#181818;stroke-width:1.0;"/><text fill="#000000" font-family="sans-serif" font-size="13" lengthAdjust="spacing" textLength="153.626" x="500.16" y="217.3638">"Aprobaci&#243;n de la idea"</text></g><!--link Dise?o to Producci?n--><g id="link_Dise&#241;o_Producci&#243;n"><path d="M499.16,301.6969 C499.16,323.7169 499.16,349.9569 499.16,371.9569 " fill="none" id="Dise&#241;o-to-Producci&#243;n" style="stroke:#181818;stroke-width:1.0;"/><polygon fill="#181818" points="499.16,377.9569,503.16,368.9569,499.16,372.9569,495.16,368.9569,499.16,377.9569" style="stroke:#181818;stroke-width:1.0;"/><text fill="#000000" font-family="sans-serif" font-size="13" lengthAdjust="spacing" textLength="159.1738" x="500.16" y="344.3638">"Finalizaci&#243;n del dise&#241;o"</text></g><!--link Producci?n to Distribucion--><g id="link_Producci&#243;n_Distribucion"><path d="M499.16,428.6969 C499.16,450.7169 499.16,476.9569 499.16,498.9569 " fill="none" id="Producci&#243;n-to-Distribucion" style="stroke:#181818;stroke-width:1.0;"/><polygon fill="#181818" points="499.16,504.9569,503.16,495.9569,499.16,499.9569,495.16,495.9569,499.16,504.9569" style="stroke:#181818;stroke-width:1.0;"/><text fill="#000000" font-family="sans-serif" font-size="13" lengthAdjust="spacing" textLength="167.7178" x="500.16" y="471.3638">"Fabricaci&#243;n completada"</text></g><!--link Distribucion to EnVenta--><g id="link_Distribucion_EnVenta"><path d="M499.16,555.6969 C499.16,577.7169 499.16,603.9569 499.16,625.9569 " fill="none" id="Distribucion-to-EnVenta" style="stroke:#181818;stroke-width:1.0;"/><polygon fill="#181818" points="499.16,631.9569,503.16,622.9569,499.16,626.9569,495.16,622.9569,499.16,631.9569" style="stroke:#181818;stroke-width:1.0;"/><text fill="#000000" font-family="sans-serif" font-size="13" lengthAdjust="spacing" textLength="167.0195" x="500.16" y="598.3638">"Distribuci&#243;n al mercado"</text></g><!--link EnVenta to Obsoleto--><g id="link_EnVenta_Obsoleto"><path d="M459.29,657.7369 C363.47,657.2469 123.94,661.2769 66.16,712.2969 C53.1,723.8269 49.298,737.3622 48.178,753.0222 " fill="none" id="EnVenta-to-Obsoleto" style="stroke:#181818;stroke-width:1.0;"/><polygon fill="#181818" points="47.75,759.0069,52.3818,750.3152,48.1067,754.0196,44.4022,749.7445,47.75,759.0069" style="stroke:#181818;stroke-width:1.0;"/><text fill="#000000" font-family="sans-serif" font-size="13" lengthAdjust="spacing" textLength="150.395" x="67.16" y="725.3638">"Fin del ciclo de venta"</text></g><!--link Obsoleto to *end*--><g id="link_Obsoleto_*end*"><path d="M62.84,809.7569 C74.98,829.9969 88.4436,852.4316 96.7936,866.3516 " fill="none" id="Obsoleto-to-*end*" style="stroke:#181818;stroke-width:1.0;"/><polygon fill="#181818" points="99.88,871.4969,98.6805,861.7213,97.308,867.2091,91.8202,865.8366,99.88,871.4969" style="stroke:#181818;stroke-width:1.0;"/></g><!--link EnVenta to Retirado--><g id="link_EnVenta_Retirado"><path d="M459.6,659.2069 C407.36,662.0169 314.07,672.7269 246.16,712.2969 C226.66,723.6669 213.4795,738.3231 202.1995,754.0331 " fill="none" id="EnVenta-to-Retirado" style="stroke:#181818;stroke-width:1.0;"/><polygon fill="#181818" points="198.7,758.9069,207.1984,753.9292,201.6162,754.8454,200.7,749.2632,198.7,758.9069" style="stroke:#181818;stroke-width:1.0;"/><text fill="#000000" font-family="sans-serif" font-size="13" lengthAdjust="spacing" textLength="127.1689" x="247.16" y="725.3638">"Decisi&#243;n de retiro"</text></g><!--link Retirado to *end*--><g id="link_Retirado_*end*"><path d="M163.07,809.7569 C146.1,830.4369 126.6381,854.1503 115.4681,867.7503 " fill="none" id="Retirado-to-*end*" style="stroke:#181818;stroke-width:1.0;"/><polygon fill="#181818" points="111.66,872.3869,120.4633,867.9707,114.8335,868.523,114.2812,862.8932,111.66,872.3869" style="stroke:#181818;stroke-width:1.0;"/></g><!--link EnVenta to Actualizaci?n--><g id="link_EnVenta_Actualizaci&#243;n"><path d="M459.25,666.2169 C433.86,673.5469 402.89,687.2569 387.16,712.2969 C369.71,740.0769 400.6641,757.134 436.6241,768.394 " fill="none" id="EnVenta-to-Actualizaci&#243;n" style="stroke:#181818;stroke-width:1.0;"/><polygon fill="#181818" points="442.35,770.1869,434.9565,763.6803,437.5785,768.6928,432.5659,771.3147,442.35,770.1869" style="stroke:#181818;stroke-width:1.0;"/><text fill="#000000" font-family="sans-serif" font-size="13" lengthAdjust="spacing" textLength="176.0142" x="388.16" y="725.3638">"Nueva versi&#243;n disponible"</text></g><!--link Actualizaci?n to EnVenta--><g id="link_Actualizaci&#243;n_EnVenta"><path d="M547.02,758.9869 C564.48,746.5869 578.02,730.3169 569.16,712.2969 C562.59,698.9369 555.8352,691.4304 543.9152,682.9304 " fill="none" id="Actualizaci&#243;n-to-EnVenta" style="stroke:#181818;stroke-width:1.0;"/><polygon fill="#181818" points="539.03,679.4469,544.0354,687.929,543.101,682.3498,548.6801,681.4154,539.03,679.4469" style="stroke:#181818;stroke-width:1.0;"/><text fill="#000000" font-family="sans-serif" font-size="13" lengthAdjust="spacing" textLength="179.3086" x="573.16" y="725.3638">"Actualizaci&#243;n completada"</text></g><!--link EnVenta to Mantenimiento--><g id="link_EnVenta_Mantenimiento"><path d="M538.89,663.7969 C590.81,671.5969 684.19,687.6969 761.16,712.2969 C800.3,724.8069 837.3452,741.1615 868.8352,756.3415 " fill="none" id="EnVenta-to-Mantenimiento" style="stroke:#181818;stroke-width:1.0;"/><polygon fill="#181818" points="874.24,758.9469,867.8698,751.4355,869.736,756.7757,864.3959,758.6419,874.24,758.9469" style="stroke:#181818;stroke-width:1.0;"/><text fill="#000000" font-family="sans-serif" font-size="13" lengthAdjust="spacing" textLength="144.3901" x="808.16" y="725.3638">"Requiere reparaci&#243;n"</text></g><!--link Mantenimiento to EnVenta--><g id="link_Mantenimiento_EnVenta"><path d="M949.74,758.8869 C962.91,744.3269 973.41,726.0569 961.16,712.2969 C933.25,680.9269 651.6936,665.1629 544.8436,660.2429 " fill="none" id="Mantenimiento-to-EnVenta" style="stroke:#181818;stroke-width:1.0;"/><polygon fill="#181818" points="538.85,659.9669,547.6565,664.3766,543.8447,660.1969,548.0245,656.3851,538.85,659.9669" style="stroke:#181818;stroke-width:1.0;"/><text fill="#000000" font-family="sans-serif" font-size="13" lengthAdjust="spacing" textLength="166.5117" x="967.16" y="725.3638">"Reparaci&#243;n completada"</text></g><!--SRC=[RP0xRWCn34HxdK9G6S0NI170i9qk7spX9aZ1bOY0W5PQw-CYjmfo15yir6f_NgGJo3Spr2HA5kMHu2j01zAWFCK4naT-MdaWRNqPdiaCo-paU_0cw-I5-7ZubBlTapnufx7doVGOfaUAUFlnyb6gVHzy2vfklwwOM91a49IOa89Nsygmv9aSMFgUHLQQ2Ykn9iUW5AZDcdoLGXj8ZqhjkzuY_wZ6BM1HdjmPNO8YMdP51LPs63JteCG45S5R6psx-V72uIuzTNGjc18pKmHSaRXpQ31HODyX4pN5gPHG5Xmt0__AzphbLIziyfhn2fmTHYUAlNVKMbHY0sz-lDckYxgBV06Nq557F1dERl2I2KCvkOTGvKhSOvkiPY7NGNy0]--></g></svg>