<svg xmlns="http://www.w3.org/2000/svg" xmlns:xlink="http://www.w3.org/1999/xlink" contentStyleType="text/css" height="228px" preserveAspectRatio="none" style="width:734px;height:228px;background:#FFFFFF;" version="1.1" viewBox="0 0 734 228" width="734px" zoomAndPan="magnify"><defs/><g><g id="elem_Producto1"><rect fill="#F1F1F1" height="93.4844" style="stroke:#181818;stroke-width:0.5;" width="201.6016" x="327.63" y="127.89"/><text fill="#000000" font-family="sans-serif" font-size="14" lengthAdjust="spacing" textLength="71.1826" x="392.8395" y="142.8851">Producto1</text><line style="stroke:#181818;stroke-width:0.5;" x1="328.63" x2="528.2316" y1="148.1869" y2="148.1869"/><text fill="#000000" font-family="sans-serif" font-size="14" lengthAdjust="spacing" textLength="60.1289" x="333.63" y="165.182">id = 101</text><text fill="#000000" font-family="sans-serif" font-size="14" lengthAdjust="spacing" textLength="189.6016" x="333.63" y="181.4789">nombre = "Tel&#233;fono M&#243;vil"</text><text fill="#000000" font-family="sans-serif" font-size="14" lengthAdjust="spacing" textLength="180.3525" x="333.63" y="197.7757">estado = "En Producci&#243;n"</text><text fill="#000000" font-family="sans-serif" font-size="14" lengthAdjust="spacing" textLength="125.125" x="333.63" y="214.0726">precio = 800 USD</text></g><g id="elem_Producto2"><rect fill="#F1F1F1" height="93.4844" style="stroke:#181818;stroke-width:0.5;" width="156.2383" x="136.31" y="127.89"/><text fill="#000000" font-family="sans-serif" font-size="14" lengthAdjust="spacing" textLength="71.1826" x="178.8378" y="142.8851">Producto2</text><line style="stroke:#181818;stroke-width:0.5;" x1="137.31" x2="291.5483" y1="148.1869" y2="148.1869"/><text fill="#000000" font-family="sans-serif" font-size="14" lengthAdjust="spacing" textLength="60.1289" x="142.31" y="165.182">id = 102</text><text fill="#000000" font-family="sans-serif" font-size="14" lengthAdjust="spacing" textLength="137.9424" x="142.31" y="181.4789">nombre = "Port&#225;til"</text><text fill="#000000" font-family="sans-serif" font-size="14" lengthAdjust="spacing" textLength="144.2383" x="142.31" y="197.7757">estado = "En Venta"</text><text fill="#000000" font-family="sans-serif" font-size="14" lengthAdjust="spacing" textLength="134.0322" x="142.31" y="214.0726">precio = 1200 USD</text></g><g id="elem_Producto3"><rect fill="#F1F1F1" height="93.4844" style="stroke:#181818;stroke-width:0.5;" width="163.2998" x="563.78" y="127.89"/><text fill="#000000" font-family="sans-serif" font-size="14" lengthAdjust="spacing" textLength="71.1826" x="609.8386" y="142.8851">Producto3</text><line style="stroke:#181818;stroke-width:0.5;" x1="564.78" x2="726.0798" y1="148.1869" y2="148.1869"/><text fill="#000000" font-family="sans-serif" font-size="14" lengthAdjust="spacing" textLength="60.1289" x="569.78" y="165.182">id = 103</text><text fill="#000000" font-family="sans-serif" font-size="14" lengthAdjust="spacing" textLength="151.2998" x="569.78" y="181.4789">nombre = "Televisor"</text><text fill="#000000" font-family="sans-serif" font-size="14" lengthAdjust="spacing" textLength="143.2607" x="569.78" y="197.7757">estado = "Obsoleto"</text><text fill="#000000" font-family="sans-serif" font-size="14" lengthAdjust="spacing" textLength="125.125" x="569.78" y="214.0726">precio = 400 USD</text></g><g id="elem_Mercado"><rect fill="#F1F1F1" height="60.8906" style="stroke:#181818;stroke-width:0.5;" width="414.8555" x="7" y="7"/><text fill="#000000" font-family="sans-serif" font-size="14" lengthAdjust="spacing" textLength="60.1768" x="184.3394" y="21.9951">Mercado</text><line style="stroke:#181818;stroke-width:0.5;" x1="8" x2="420.8555" y1="27.2969" y2="27.2969"/><text fill="#000000" font-family="sans-serif" font-size="14" lengthAdjust="spacing" textLength="230.3506" x="13" y="44.292">nombre = "Mercado Electr&#243;nico"</text><text fill="#000000" font-family="sans-serif" font-size="14" lengthAdjust="spacing" textLength="402.8555" x="13" y="60.5889">productosDisponibles = Producto1, Producto2, Producto3</text></g><g id="elem_Fabricante"><rect fill="#F1F1F1" height="44.5938" style="stroke:#181818;stroke-width:0.5;" width="189.4678" x="456.69" y="15.14"/><text fill="#000000" font-family="sans-serif" font-size="14" lengthAdjust="spacing" textLength="74.416" x="514.2159" y="30.1351">Fabricante</text><line style="stroke:#181818;stroke-width:0.5;" x1="457.69" x2="645.1578" y1="35.4369" y2="35.4369"/><text fill="#000000" font-family="sans-serif" font-size="14" lengthAdjust="spacing" textLength="177.4678" x="462.69" y="52.432">nombre = "Fabrica Tech"</text></g><!--link Mercado to Producto1--><g id="link_Mercado_Producto1"><path codeLine="31" d="M261.66,68.28 C289.1,85.61 319.2075,104.6353 350.1675,124.1953 " fill="none" id="Mercado-to-Producto1" style="stroke:#181818;stroke-width:1.0;"/><polygon fill="#181818" points="355.24,127.4,349.7678,119.2113,351.0129,124.7294,345.4948,125.9746,355.24,127.4" style="stroke:#181818;stroke-width:1.0;"/></g><!--link Mercado to Producto2--><g id="link_Mercado_Producto2"><path codeLine="32" d="M214.43,68.11 C214.43,85.52 214.43,101.89 214.43,121.55 " fill="none" id="Mercado-to-Producto2" style="stroke:#181818;stroke-width:1.0;"/><polygon fill="#181818" points="214.43,127.55,218.43,118.55,214.43,122.55,210.43,118.55,214.43,127.55" style="stroke:#181818;stroke-width:1.0;"/></g><!--link Fabricante to Producto1--><g id="link_Fabricante_Producto1"><path codeLine="33" d="M531.67,60.16 C515.16,78.3 495.1076,100.3418 474.3476,123.1618 " fill="none" id="Fabricante-to-Producto1" style="stroke:#181818;stroke-width:1.0;"/><polygon fill="#181818" points="470.31,127.6,479.3252,123.6344,473.6747,123.9015,473.4076,118.2509,470.31,127.6" style="stroke:#181818;stroke-width:1.0;"/></g><!--link Fabricante to Producto2--><g id="link_Fabricante_Producto2"><path codeLine="34" d="M488.16,60.18 C439.19,77.42 369.93,102.73 310.43,127.89 C304.73,130.29 304.354,130.4033 298.494,133.0333 " fill="none" id="Fabricante-to-Producto2" style="stroke:#181818;stroke-width:1.0;"/><polygon fill="#181818" points="293.02,135.49,302.8688,135.4542,297.5816,133.4427,299.5931,128.1556,293.02,135.49" style="stroke:#181818;stroke-width:1.0;"/></g><!--link Fabricante to Producto3--><g id="link_Fabricante_Producto3"><path codeLine="35" d="M566.53,60.16 C579.14,78.3 594.1243,99.8541 609.9943,122.6741 " fill="none" id="Fabricante-to-Producto3" style="stroke:#181818;stroke-width:1.0;"/><polygon fill="#181818" points="613.42,127.6,611.5654,117.9273,610.5653,123.4951,604.9975,122.4949,613.42,127.6" style="stroke:#181818;stroke-width:1.0;"/></g><!--SRC=[TP0zRiCm38LtdOBmt03-wP2bcP9iHWCqpMx93Cf05GD9pHBqC1qxvmY-M2NKgQqqtYY-n_THP7b0vM5ZkVrGdWiu2m1guGcAl0YbuNTfCJopBUhkUy-6eUuk9z9PKD7vfkMehaoVeQYxcAWTBIgAsZpFuVLbAJw5u9HMZcbbGjkmzTsNluFPeV5D0YZAIK8r9bIt_y4JEROfuLawrkWv8Jp-0zHeLPmu9vdNxae7Zms78DK7_QxZbkIER4XgTC7_T_M7uIH3MOrmwqPQKetnU4Fi1TYYUilYm7M5sMmnvD_jbcAKcjedXCc9wWS0]--></g></svg>