<?xml version="1.0" encoding="us-ascii" standalone="no"?><svg xmlns="http://www.w3.org/2000/svg" xmlns:xlink="http://www.w3.org/1999/xlink" contentStyleType="text/css" height="942px" preserveAspectRatio="none" style="width:688px;height:942px;background:#FFFFFF;" version="1.1" viewBox="0 0 688 942" width="688px" zoomAndPan="magnify"><defs/><g><!--cluster IdeaGenerada--><g id="cluster_IdeaGenerada"><path d="M24.5,98 L662.5,98 A12.5,12.5 0 0 1 675,110.5 L675,120.6094 L12,120.6094 L12,110.5 A12.5,12.5 0 0 1 24.5,98 " fill="#F1F1F1" style="stroke:#F1F1F1;stroke-width:1.0;"/><rect fill="none" height="744" rx="12.5" ry="12.5" style="stroke:#181818;stroke-width:0.5;" width="663" x="12" y="98"/><line style="stroke:#181818;stroke-width:0.5;" x1="12" x2="675" y1="120.6094" y2="120.6094"/><text fill="#000000" font-family="sans-serif" font-size="14" lengthAdjust="spacing" textLength="91" x="298" y="116.5332">IdeaGenerada</text></g><!--cluster IdeaDesarrollada--><g id="cluster_IdeaDesarrollada"><path d="M72.5,234 L622.5,234 A12.5,12.5 0 0 1 635,246.5 L635,256.6094 L60,256.6094 L60,246.5 A12.5,12.5 0 0 1 72.5,234 " fill="#F1F1F1" style="stroke:#F1F1F1;stroke-width:1.0;"/><rect fill="none" height="568" rx="12.5" ry="12.5" style="stroke:#181818;stroke-width:0.5;" width="575" x="60" y="234"/><line style="stroke:#181818;stroke-width:0.5;" x1="60" x2="635" y1="256.6094" y2="256.6094"/><text fill="#000000" font-family="sans-serif" font-size="14" lengthAdjust="spacing" textLength="108" x="293.5" y="252.5332">IdeaDesarrollada</text></g><!--cluster PrototipoDesarrollado--><g id="cluster_PrototipoDesarrollado"><path d="M120.5,370 L582.5,370 A12.5,12.5 0 0 1 595,382.5 L595,392.6094 L108,392.6094 L108,382.5 A12.5,12.5 0 0 1 120.5,370 " fill="#F1F1F1" style="stroke:#F1F1F1;stroke-width:1.0;"/><rect fill="none" height="392" rx="12.5" ry="12.5" style="stroke:#181818;stroke-width:0.5;" width="487" x="108" y="370"/><line style="stroke:#181818;stroke-width:0.5;" x1="108" x2="595" y1="392.6094" y2="392.6094"/><text fill="#000000" font-family="sans-serif" font-size="14" lengthAdjust="spacing" textLength="138" x="282.5" y="388.5332">PrototipoDesarrollado</text></g><!--cluster PrototipoEvaluado--><g id="cluster_PrototipoEvaluado"><path d="M168.5,506 L542.5,506 A12.5,12.5 0 0 1 555,518.5 L555,528.6094 L156,528.6094 L156,518.5 A12.5,12.5 0 0 1 168.5,506 " fill="#F1F1F1" style="stroke:#F1F1F1;stroke-width:1.0;"/><rect fill="none" height="216" rx="12.5" ry="12.5" style="stroke:#181818;stroke-width:0.5;" width="399" x="156" y="506"/><line style="stroke:#181818;stroke-width:0.5;" x1="156" x2="555" y1="528.6094" y2="528.6094"/><text fill="#000000" font-family="sans-serif" font-size="14" lengthAdjust="spacing" textLength="116" x="297.5" y="524.5332">PrototipoEvaluado</text></g><ellipse cx="79" cy="152" fill="#222222" rx="10" ry="10" style="stroke:#222222;stroke-width:1.0;"/><ellipse cx="127" cy="288" fill="#222222" rx="10" ry="10" style="stroke:#222222;stroke-width:1.0;"/><ellipse cx="175" cy="424" fill="#222222" rx="10" ry="10" style="stroke:#222222;stroke-width:1.0;"/><ellipse cx="322" cy="560" fill="#222222" rx="10" ry="10" style="stroke:#222222;stroke-width:1.0;"/><g id="IdeaGenerada.IdeaDesarrollada.PrototipoDesarrollado.PrototipoEvaluado.InnovacionAceptada"><rect fill="#F1F1F1" height="50" rx="12.5" ry="12.5" style="stroke:#181818;stroke-width:0.5;" width="148" x="188" y="648"/><line style="stroke:#181818;stroke-width:0.5;" x1="188" x2="336" y1="675.6094" y2="675.6094"/><text fill="#000000" font-family="sans-serif" font-size="14" lengthAdjust="spacing" textLength="128" x="198" y="667.5332">InnovacionAceptada</text></g><g id="IdeaGenerada.IdeaDesarrollada.PrototipoDesarrollado.PrototipoEvaluado.InnovacionRechazada"><rect fill="#F1F1F1" height="50" rx="12.5" ry="12.5" style="stroke:#181818;stroke-width:0.5;" width="159" x="371.5" y="648"/><line style="stroke:#181818;stroke-width:0.5;" x1="371.5" x2="530.5" y1="675.6094" y2="675.6094"/><text fill="#000000" font-family="sans-serif" font-size="14" lengthAdjust="spacing" textLength="139" x="381.5" y="667.5332">InnovacionRechazada</text></g><ellipse cx="20" cy="16" fill="#222222" rx="10" ry="10" style="stroke:#222222;stroke-width:1.0;"/><ellipse cx="356" cy="925" fill="none" rx="11" ry="11" style="stroke:#222222;stroke-width:1.0;"/><ellipse cx="356" cy="925" fill="#222222" rx="6" ry="6" style="stroke:#222222;stroke-width:1.0;"/><!--link *start* to IdeaGenerada--><g id="link_*start*_IdeaGenerada"><path d="M20,26.21 C20,33.66 20,45.0006 20,57.8658 C20,64.2984 20,71.1121 20,78.0112 C20,81.4607 20,84.9316 20,88.3868 C20,90.1145 20,91.8382 20,93.5534 C20,94.411 20,95.2664 20,96.1192 C20,96.5456 20,90.9713 20,91.3962 " fill="none" id="*start*-to-IdeaGenerada" style="stroke:#181818;stroke-width:1.0;"/><polygon fill="#181818" points="20,97.3962,24,88.3962,20,92.3962,16,88.3962,20,97.3962" style="stroke:#181818;stroke-width:1.0;"/><text fill="#000000" font-family="sans-serif" font-size="13" lengthAdjust="spacing" textLength="69" x="21" y="70.4951">"Crear Idea"</text></g><!--link *start*IdeaGenerada to IdeaDesarrollada--><g id="link_*start*IdeaGenerada_IdeaDesarrollada"><path d="M78.24,162.21 C77.63,169.66 76.7,181.0006 75.6445,193.8658 C75.1168,200.2984 74.5577,207.1121 73.9915,214.0112 C73.7085,217.4607 73.4236,220.9316 73.1401,224.3868 C72.9983,226.1145 72.8568,227.8382 72.7161,229.5534 C72.6457,230.411 72.5755,231.2664 72.5055,232.1192 C72.4705,232.5456 72.9263,226.9914 72.8914,227.4163 " fill="none" id="*start*IdeaGenerada-to-IdeaDesarrollada" style="stroke:#181818;stroke-width:1.0;"/><polygon fill="#181818" points="72.4007,233.3962,77.1234,224.7536,72.8097,228.413,69.1502,224.0992,72.4007,233.3962" style="stroke:#181818;stroke-width:1.0;"/><text fill="#000000" font-family="sans-serif" font-size="13" lengthAdjust="spacing" textLength="100" x="77" y="206.4951">"Desarrollar Idea"</text></g><!--link *start*IdeaDesarrollada to PrototipoDesarrollado--><g id="link_*start*IdeaDesarrollada_PrototipoDesarrollado"><path d="M126.24,298.21 C125.63,305.66 124.7,317.0006 123.6445,329.8658 C123.1168,336.2984 122.5577,343.1121 121.9915,350.0112 C121.7085,353.4607 121.4236,356.9316 121.1401,360.3868 C120.9983,362.1145 120.8568,363.8382 120.7161,365.5534 C120.6457,366.411 120.5755,367.2664 120.5055,368.1192 C120.4705,368.5456 120.9263,362.9914 120.8914,363.4163 " fill="none" id="*start*IdeaDesarrollada-to-PrototipoDesarrollado" style="stroke:#181818;stroke-width:1.0;"/><polygon fill="#181818" points="120.4007,369.3962,125.1234,360.7536,120.8097,364.413,117.1502,360.0992,120.4007,369.3962" style="stroke:#181818;stroke-width:1.0;"/><text fill="#000000" font-family="sans-serif" font-size="13" lengthAdjust="spacing" textLength="128" x="125" y="342.4951">"Desarrollar Prototipo"</text></g><!--link *start*PrototipoDesarrollado to PrototipoEvaluado--><g id="link_*start*PrototipoDesarrollado_PrototipoEvaluado"><path d="M174.24,434.21 C173.63,441.66 172.7,453.0006 171.6445,465.8658 C171.1168,472.2984 170.5577,479.1121 169.9915,486.0112 C169.7085,489.4607 169.4236,492.9316 169.1401,496.3868 C168.9983,498.1145 168.8568,499.8382 168.7161,501.5534 C168.6457,502.411 168.5755,503.2664 168.5055,504.1192 C168.4705,504.5456 168.9263,498.9914 168.8914,499.4163 " fill="none" id="*start*PrototipoDesarrollado-to-PrototipoEvaluado" style="stroke:#181818;stroke-width:1.0;"/><polygon fill="#181818" points="168.4007,505.3962,173.1234,496.7536,168.8097,500.413,165.1502,496.0992,168.4007,505.3962" style="stroke:#181818;stroke-width:1.0;"/><text fill="#000000" font-family="sans-serif" font-size="13" lengthAdjust="spacing" textLength="134" x="173" y="478.4951">"Presentar al Mercado"</text></g><!--link *start*PrototipoEvaluado to InnovacionAceptada--><g id="link_*start*PrototipoEvaluado_InnovacionAceptada"><path d="M314.14,566.38 C312.17,567.63 310.04,568.92 308,570 C278.1,585.87 256.63,571.74 238,600 C228.43,614.52 232.0515,628.0481 240.7615,642.7481 " fill="none" id="*start*PrototipoEvaluado-to-InnovacionAceptada" style="stroke:#181818;stroke-width:1.0;"/><polygon fill="#181818" points="243.82,647.91,242.6735,638.1281,241.2712,643.6084,235.7909,642.2061,243.82,647.91" style="stroke:#181818;stroke-width:1.0;"/><text fill="#000000" font-family="sans-serif" font-size="13" lengthAdjust="spacing" textLength="121" x="239" y="614.4951">"Evaluaci&#243;n Positiva"</text></g><!--link *start*PrototipoEvaluado to InnovacionRechazada--><g id="link_*start*PrototipoEvaluado_InnovacionRechazada"><path d="M329.31,567.29 C347,582.51 388.3726,618.1058 418.4626,644.0058 " fill="none" id="*start*PrototipoEvaluado-to-InnovacionRechazada" style="stroke:#181818;stroke-width:1.0;"/><polygon fill="#181818" points="423.01,647.92,418.7983,639.0171,419.2205,644.6582,413.5794,645.0803,423.01,647.92" style="stroke:#181818;stroke-width:1.0;"/><text fill="#000000" font-family="sans-serif" font-size="13" lengthAdjust="spacing" textLength="125" x="387" y="614.4951">"Evaluaci&#243;n Negativa"</text></g><!--link InnovacionAceptada to *end*--><g id="link_InnovacionAceptada_*end*"><path d="M261.91,698.28 C262.82,739.51 269.42,824.5 306,884 C316.02,900.29 329.9033,909.8214 341.3833,916.2414 " fill="none" id="InnovacionAceptada-to-*end*" style="stroke:#181818;stroke-width:1.0;"/><polygon fill="#181818" points="346.62,919.17,340.7173,911.286,342.256,916.7295,336.8125,918.2683,346.62,919.17" style="stroke:#181818;stroke-width:1.0;"/><text fill="#000000" font-family="sans-serif" font-size="13" lengthAdjust="spacing" textLength="84" x="307" y="880.4951">"Lanzamiento"</text></g><!--link InnovacionRechazada to *end*--><g id="link_InnovacionRechazada_*end*"><path d="M448.81,698.22 C444.25,738.99 431.07,822.87 396,884 C387.99,897.97 378.5408,906.7567 369.4008,913.9267 " fill="none" id="InnovacionRechazada-to-*end*" style="stroke:#181818;stroke-width:1.0;"/><polygon fill="#181818" points="364.68,917.63,374.23,915.2223,368.614,914.5439,369.2923,908.9279,364.68,917.63" style="stroke:#181818;stroke-width:1.0;"/><text fill="#000000" font-family="sans-serif" font-size="13" lengthAdjust="spacing" textLength="108" x="405" y="880.4951">"Revisar Prototipo"</text></g><!--SRC=[TP112i8m44NtFKNeKkW5N0YY8e9AwRQu6D910pLJafX5nLDv12zcQcjDIinkXlzUPgQSdLYMBTYkGjYYH0KLi3bBLmf1VRffacW31iF8FM7kbHwzHWrAKLqFXb_zzJnyKn0FRRaYGqOqv6LegXn3dZSE_f5lBDItGPmhr2YDqqBD3gYuwyUy8pDPNqgom0N99SV630VemroydfBbf8KHrXqXpXN8Bz16m2EUeGVTD95_EasdSzWUP0jNuVPmiyVKNhP0AtHmnJS0]--></g></svg>