<?xml version="1.0" encoding="us-ascii" standalone="no"?><svg xmlns="http://www.w3.org/2000/svg" xmlns:xlink="http://www.w3.org/1999/xlink" contentStyleType="text/css" height="777px" preserveAspectRatio="none" style="width:649px;height:777px;background:#FFFFFF;" version="1.1" viewBox="0 0 649 777" width="649px" zoomAndPan="magnify"><defs/><g><text fill="#000000" font-family="sans-serif" font-size="14" font-weight="bold" lengthAdjust="spacing" textLength="363" x="136" y="24.5332">Diagrama de Clases Extendido: Sistema de Votaci&#243;n</text><!--class Candidato--><g id="elem_Candidato"><rect codeLine="3" fill="#F1F1F1" height="118.4375" id="Candidato" rx="2.5" ry="2.5" style="stroke:#181818;stroke-width:0.5;" width="113" x="191" y="455.6094"/><ellipse cx="213.2" cy="471.6094" fill="#ADD1B2" rx="11" ry="11" style="stroke:#181818;stroke-width:1.0;"/><path d="M215.9656,467.4844 Q216.1219,467.2656 216.3094,467.1563 Q216.4969,467.0469 216.7156,467.0469 Q217.0906,467.0469 217.325,467.3125 Q217.5594,467.5625 217.5594,468.1719 L217.5594,469.625 Q217.5594,470.2344 217.325,470.5 Q217.0906,470.7656 216.7156,470.7656 Q216.3719,470.7656 216.1688,470.5625 Q215.9656,470.375 215.8563,469.8594 Q215.8094,469.5 215.6219,469.3125 Q215.2938,468.9375 214.6844,468.7188 Q214.075,468.5 213.45,468.5 Q212.6844,468.5 212.0438,468.8281 Q211.4188,469.1563 210.9188,469.9063 Q210.4344,470.6563 210.4344,471.6875 L210.4344,472.7813 Q210.4344,474.0156 211.325,474.8438 Q212.2156,475.6563 213.8094,475.6563 Q214.7469,475.6563 215.4031,475.4063 Q215.7938,475.25 216.2156,474.8125 Q216.4813,474.5469 216.6219,474.4688 Q216.7781,474.3906 216.9813,474.3906 Q217.3094,474.3906 217.5594,474.6563 Q217.825,474.9063 217.825,475.25 Q217.825,475.5938 217.4813,476 Q216.9813,476.5781 216.1844,476.9063 Q215.1063,477.3594 213.8094,477.3594 Q212.2938,477.3594 211.0906,476.7344 Q210.1063,476.2344 209.4188,475.1719 Q208.7313,474.0938 208.7313,472.8125 L208.7313,471.6563 Q208.7313,470.3281 209.3406,469.1875 Q209.9656,468.0313 211.0594,467.4219 Q212.1531,466.7969 213.3875,466.7969 Q214.1219,466.7969 214.7625,466.9688 Q215.4188,467.125 215.9656,467.4844 Z " fill="#000000"/><text fill="#000000" font-family="sans-serif" font-size="14" lengthAdjust="spacing" textLength="65" x="228.8" y="477.3379">Candidato</text><line style="stroke:#181818;stroke-width:0.5;" x1="192" x2="303" y1="487.6094" y2="487.6094"/><text fill="#000000" font-family="sans-serif" font-size="14" lengthAdjust="spacing" textLength="63" x="197" y="506.1426">id: Integer</text><text fill="#000000" font-family="sans-serif" font-size="14" lengthAdjust="spacing" textLength="93" x="197" y="523.752">nombre: String</text><text fill="#000000" font-family="sans-serif" font-size="14" lengthAdjust="spacing" textLength="89" x="197" y="541.3613">partido: String</text><text fill="#000000" font-family="sans-serif" font-size="14" lengthAdjust="spacing" textLength="101" x="197" y="558.9707">propuestas: List</text><line style="stroke:#181818;stroke-width:0.5;" x1="192" x2="303" y1="566.0469" y2="566.0469"/></g><!--class Sufragante--><g id="elem_Sufragante"><rect codeLine="9" fill="#F1F1F1" height="136.0469" id="Sufragante" rx="2.5" ry="2.5" style="stroke:#181818;stroke-width:0.5;" width="198" x="377.5" y="45.6094"/><ellipse cx="437.25" cy="61.6094" fill="#ADD1B2" rx="11" ry="11" style="stroke:#181818;stroke-width:1.0;"/><path d="M440.0156,57.4844 Q440.1719,57.2656 440.3594,57.1563 Q440.5469,57.0469 440.7656,57.0469 Q441.1406,57.0469 441.375,57.3125 Q441.6094,57.5625 441.6094,58.1719 L441.6094,59.625 Q441.6094,60.2344 441.375,60.5 Q441.1406,60.7656 440.7656,60.7656 Q440.4219,60.7656 440.2188,60.5625 Q440.0156,60.375 439.9063,59.8594 Q439.8594,59.5 439.6719,59.3125 Q439.3438,58.9375 438.7344,58.7188 Q438.125,58.5 437.5,58.5 Q436.7344,58.5 436.0938,58.8281 Q435.4688,59.1563 434.9688,59.9063 Q434.4844,60.6563 434.4844,61.6875 L434.4844,62.7813 Q434.4844,64.0156 435.375,64.8438 Q436.2656,65.6563 437.8594,65.6563 Q438.7969,65.6563 439.4531,65.4063 Q439.8438,65.25 440.2656,64.8125 Q440.5313,64.5469 440.6719,64.4688 Q440.8281,64.3906 441.0313,64.3906 Q441.3594,64.3906 441.6094,64.6563 Q441.875,64.9063 441.875,65.25 Q441.875,65.5938 441.5313,66 Q441.0313,66.5781 440.2344,66.9063 Q439.1563,67.3594 437.8594,67.3594 Q436.3438,67.3594 435.1406,66.7344 Q434.1563,66.2344 433.4688,65.1719 Q432.7813,64.0938 432.7813,62.8125 L432.7813,61.6563 Q432.7813,60.3281 433.3906,59.1875 Q434.0156,58.0313 435.1094,57.4219 Q436.2031,56.7969 437.4375,56.7969 Q438.1719,56.7969 438.8125,56.9688 Q439.4688,57.125 440.0156,57.4844 Z " fill="#000000"/><text fill="#000000" font-family="sans-serif" font-size="14" lengthAdjust="spacing" textLength="70" x="457.75" y="67.3379">Sufragante</text><line style="stroke:#181818;stroke-width:0.5;" x1="378.5" x2="574.5" y1="77.6094" y2="77.6094"/><text fill="#000000" font-family="sans-serif" font-size="14" lengthAdjust="spacing" textLength="63" x="383.5" y="96.1426">id: Integer</text><text fill="#000000" font-family="sans-serif" font-size="14" lengthAdjust="spacing" textLength="64" x="383.5" y="113.752">dni: String</text><text fill="#000000" font-family="sans-serif" font-size="14" lengthAdjust="spacing" textLength="93" x="383.5" y="131.3613">nombre: String</text><text fill="#000000" font-family="sans-serif" font-size="14" lengthAdjust="spacing" textLength="84" x="383.5" y="148.9707">edad: Integer</text><text fill="#000000" font-family="sans-serif" font-size="14" lengthAdjust="spacing" textLength="186" x="383.5" y="166.5801">mesaElectoral: MesaElectoral</text><line style="stroke:#181818;stroke-width:0.5;" x1="378.5" x2="574.5" y1="173.6563" y2="173.6563"/></g><!--class Secretario--><g id="elem_Secretario"><rect codeLine="16" fill="#F1F1F1" height="118.4375" id="Secretario" rx="2.5" ry="2.5" style="stroke:#181818;stroke-width:0.5;" width="143" x="10" y="259.6094"/><ellipse cx="45.7" cy="275.6094" fill="#ADD1B2" rx="11" ry="11" style="stroke:#181818;stroke-width:1.0;"/><path d="M48.4656,271.4844 Q48.6219,271.2656 48.8094,271.1563 Q48.9969,271.0469 49.2156,271.0469 Q49.5906,271.0469 49.825,271.3125 Q50.0594,271.5625 50.0594,272.1719 L50.0594,273.625 Q50.0594,274.2344 49.825,274.5 Q49.5906,274.7656 49.2156,274.7656 Q48.8719,274.7656 48.6688,274.5625 Q48.4656,274.375 48.3563,273.8594 Q48.3094,273.5 48.1219,273.3125 Q47.7938,272.9375 47.1844,272.7188 Q46.575,272.5 45.95,272.5 Q45.1844,272.5 44.5438,272.8281 Q43.9188,273.1563 43.4188,273.9063 Q42.9344,274.6563 42.9344,275.6875 L42.9344,276.7813 Q42.9344,278.0156 43.825,278.8438 Q44.7156,279.6563 46.3094,279.6563 Q47.2469,279.6563 47.9031,279.4063 Q48.2938,279.25 48.7156,278.8125 Q48.9813,278.5469 49.1219,278.4688 Q49.2781,278.3906 49.4813,278.3906 Q49.8094,278.3906 50.0594,278.6563 Q50.325,278.9063 50.325,279.25 Q50.325,279.5938 49.9813,280 Q49.4813,280.5781 48.6844,280.9063 Q47.6063,281.3594 46.3094,281.3594 Q44.7938,281.3594 43.5906,280.7344 Q42.6063,280.2344 41.9188,279.1719 Q41.2313,278.0938 41.2313,276.8125 L41.2313,275.6563 Q41.2313,274.3281 41.8406,273.1875 Q42.4656,272.0313 43.5594,271.4219 Q44.6531,270.7969 45.8875,270.7969 Q46.6219,270.7969 47.2625,270.9688 Q47.9188,271.125 48.4656,271.4844 Z " fill="#000000"/><text fill="#000000" font-family="sans-serif" font-size="14" lengthAdjust="spacing" textLength="65" x="64.3" y="281.3379">Secretario</text><line style="stroke:#181818;stroke-width:0.5;" x1="11" x2="152" y1="291.6094" y2="291.6094"/><text fill="#000000" font-family="sans-serif" font-size="14" lengthAdjust="spacing" textLength="63" x="16" y="310.1426">id: Integer</text><text fill="#000000" font-family="sans-serif" font-size="14" lengthAdjust="spacing" textLength="93" x="16" y="327.752">nombre: String</text><line style="stroke:#181818;stroke-width:0.5;" x1="11" x2="152" y1="334.8281" y2="334.8281"/><text fill="#000000" font-family="sans-serif" font-size="14" lengthAdjust="spacing" textLength="96" x="16" y="353.3613">verificarVotos()</text><text fill="#000000" font-family="sans-serif" font-size="14" lengthAdjust="spacing" textLength="131" x="16" y="370.9707">publicarResultados()</text></g><!--class Organizador--><g id="elem_Organizador"><rect codeLine="22" fill="#F1F1F1" height="100.8281" id="Organizador" rx="2.5" ry="2.5" style="stroke:#181818;stroke-width:0.5;" width="149" x="7" y="464.1094"/><ellipse cx="39.55" cy="480.1094" fill="#ADD1B2" rx="11" ry="11" style="stroke:#181818;stroke-width:1.0;"/><path d="M42.3156,475.9844 Q42.4719,475.7656 42.6594,475.6563 Q42.8469,475.5469 43.0656,475.5469 Q43.4406,475.5469 43.675,475.8125 Q43.9094,476.0625 43.9094,476.6719 L43.9094,478.125 Q43.9094,478.7344 43.675,479 Q43.4406,479.2656 43.0656,479.2656 Q42.7219,479.2656 42.5188,479.0625 Q42.3156,478.875 42.2063,478.3594 Q42.1594,478 41.9719,477.8125 Q41.6438,477.4375 41.0344,477.2188 Q40.425,477 39.8,477 Q39.0344,477 38.3938,477.3281 Q37.7688,477.6563 37.2688,478.4063 Q36.7844,479.1563 36.7844,480.1875 L36.7844,481.2813 Q36.7844,482.5156 37.675,483.3438 Q38.5656,484.1563 40.1594,484.1563 Q41.0969,484.1563 41.7531,483.9063 Q42.1438,483.75 42.5656,483.3125 Q42.8313,483.0469 42.9719,482.9688 Q43.1281,482.8906 43.3313,482.8906 Q43.6594,482.8906 43.9094,483.1563 Q44.175,483.4063 44.175,483.75 Q44.175,484.0938 43.8313,484.5 Q43.3313,485.0781 42.5344,485.4063 Q41.4563,485.8594 40.1594,485.8594 Q38.6438,485.8594 37.4406,485.2344 Q36.4563,484.7344 35.7688,483.6719 Q35.0813,482.5938 35.0813,481.3125 L35.0813,480.1563 Q35.0813,478.8281 35.6906,477.6875 Q36.3156,476.5313 37.4094,475.9219 Q38.5031,475.2969 39.7375,475.2969 Q40.4719,475.2969 41.1125,475.4688 Q41.7688,475.625 42.3156,475.9844 Z " fill="#000000"/><text fill="#000000" font-family="sans-serif" font-size="14" lengthAdjust="spacing" textLength="78" x="57.45" y="485.8379">Organizador</text><line style="stroke:#181818;stroke-width:0.5;" x1="8" x2="155" y1="496.1094" y2="496.1094"/><text fill="#000000" font-family="sans-serif" font-size="14" lengthAdjust="spacing" textLength="63" x="13" y="514.6426">id: Integer</text><text fill="#000000" font-family="sans-serif" font-size="14" lengthAdjust="spacing" textLength="93" x="13" y="532.252">nombre: String</text><line style="stroke:#181818;stroke-width:0.5;" x1="8" x2="155" y1="539.3281" y2="539.3281"/><text fill="#000000" font-family="sans-serif" font-size="14" lengthAdjust="spacing" textLength="137" x="13" y="557.8613">organizarElecciones()</text></g><!--class Elecci?n--><g id="elem_Elecci&#243;n"><rect codeLine="27" fill="#F1F1F1" height="118.4375" id="Elecci&#243;n" rx="2.5" ry="2.5" style="stroke:#181818;stroke-width:0.5;" width="218" x="138.5" y="651.6094"/><ellipse cx="216.75" cy="667.6094" fill="#ADD1B2" rx="11" ry="11" style="stroke:#181818;stroke-width:1.0;"/><path d="M219.5156,663.4844 Q219.6719,663.2656 219.8594,663.1563 Q220.0469,663.0469 220.2656,663.0469 Q220.6406,663.0469 220.875,663.3125 Q221.1094,663.5625 221.1094,664.1719 L221.1094,665.625 Q221.1094,666.2344 220.875,666.5 Q220.6406,666.7656 220.2656,666.7656 Q219.9219,666.7656 219.7188,666.5625 Q219.5156,666.375 219.4063,665.8594 Q219.3594,665.5 219.1719,665.3125 Q218.8438,664.9375 218.2344,664.7188 Q217.625,664.5 217,664.5 Q216.2344,664.5 215.5938,664.8281 Q214.9688,665.1563 214.4688,665.9063 Q213.9844,666.6563 213.9844,667.6875 L213.9844,668.7813 Q213.9844,670.0156 214.875,670.8438 Q215.7656,671.6563 217.3594,671.6563 Q218.2969,671.6563 218.9531,671.4063 Q219.3438,671.25 219.7656,670.8125 Q220.0313,670.5469 220.1719,670.4688 Q220.3281,670.3906 220.5313,670.3906 Q220.8594,670.3906 221.1094,670.6563 Q221.375,670.9063 221.375,671.25 Q221.375,671.5938 221.0313,672 Q220.5313,672.5781 219.7344,672.9063 Q218.6563,673.3594 217.3594,673.3594 Q215.8438,673.3594 214.6406,672.7344 Q213.6563,672.2344 212.9688,671.1719 Q212.2813,670.0938 212.2813,668.8125 L212.2813,667.6563 Q212.2813,666.3281 212.8906,665.1875 Q213.5156,664.0313 214.6094,663.4219 Q215.7031,662.7969 216.9375,662.7969 Q217.6719,662.7969 218.3125,662.9688 Q218.9688,663.125 219.5156,663.4844 Z " fill="#000000"/><text fill="#000000" font-family="sans-serif" font-size="14" lengthAdjust="spacing" textLength="53" x="237.25" y="673.3379">Elecci&#243;n</text><line style="stroke:#181818;stroke-width:0.5;" x1="139.5" x2="355.5" y1="683.6094" y2="683.6094"/><text fill="#000000" font-family="sans-serif" font-size="14" lengthAdjust="spacing" textLength="63" x="144.5" y="702.1426">id: Integer</text><text fill="#000000" font-family="sans-serif" font-size="14" lengthAdjust="spacing" textLength="93" x="144.5" y="719.752">nombre: String</text><text fill="#000000" font-family="sans-serif" font-size="14" lengthAdjust="spacing" textLength="73" x="144.5" y="737.3613">fecha: Date</text><text fill="#000000" font-family="sans-serif" font-size="14" lengthAdjust="spacing" textLength="206" x="144.5" y="754.9707">estado: Enum {Abierta, Cerrada}</text><line style="stroke:#181818;stroke-width:0.5;" x1="139.5" x2="355.5" y1="762.0469" y2="762.0469"/></g><!--class Voto--><g id="elem_Voto"><rect codeLine="33" fill="#F1F1F1" height="118.4375" id="Voto" rx="2.5" ry="2.5" style="stroke:#181818;stroke-width:0.5;" width="198" x="281.5" y="259.6094"/><ellipse cx="361.75" cy="275.6094" fill="#ADD1B2" rx="11" ry="11" style="stroke:#181818;stroke-width:1.0;"/><path d="M364.5156,271.4844 Q364.6719,271.2656 364.8594,271.1563 Q365.0469,271.0469 365.2656,271.0469 Q365.6406,271.0469 365.875,271.3125 Q366.1094,271.5625 366.1094,272.1719 L366.1094,273.625 Q366.1094,274.2344 365.875,274.5 Q365.6406,274.7656 365.2656,274.7656 Q364.9219,274.7656 364.7188,274.5625 Q364.5156,274.375 364.4063,273.8594 Q364.3594,273.5 364.1719,273.3125 Q363.8438,272.9375 363.2344,272.7188 Q362.625,272.5 362,272.5 Q361.2344,272.5 360.5938,272.8281 Q359.9688,273.1563 359.4688,273.9063 Q358.9844,274.6563 358.9844,275.6875 L358.9844,276.7813 Q358.9844,278.0156 359.875,278.8438 Q360.7656,279.6563 362.3594,279.6563 Q363.2969,279.6563 363.9531,279.4063 Q364.3438,279.25 364.7656,278.8125 Q365.0313,278.5469 365.1719,278.4688 Q365.3281,278.3906 365.5313,278.3906 Q365.8594,278.3906 366.1094,278.6563 Q366.375,278.9063 366.375,279.25 Q366.375,279.5938 366.0313,280 Q365.5313,280.5781 364.7344,280.9063 Q363.6563,281.3594 362.3594,281.3594 Q360.8438,281.3594 359.6406,280.7344 Q358.6563,280.2344 357.9688,279.1719 Q357.2813,278.0938 357.2813,276.8125 L357.2813,275.6563 Q357.2813,274.3281 357.8906,273.1875 Q358.5156,272.0313 359.6094,271.4219 Q360.7031,270.7969 361.9375,270.7969 Q362.6719,270.7969 363.3125,270.9688 Q363.9688,271.125 364.5156,271.4844 Z " fill="#000000"/><text fill="#000000" font-family="sans-serif" font-size="14" lengthAdjust="spacing" textLength="29" x="382.25" y="281.3379">Voto</text><line style="stroke:#181818;stroke-width:0.5;" x1="282.5" x2="478.5" y1="291.6094" y2="291.6094"/><text fill="#000000" font-family="sans-serif" font-size="14" lengthAdjust="spacing" textLength="63" x="287.5" y="310.1426">id: Integer</text><text fill="#000000" font-family="sans-serif" font-size="14" lengthAdjust="spacing" textLength="135" x="287.5" y="327.752">candidato: Candidato</text><text fill="#000000" font-family="sans-serif" font-size="14" lengthAdjust="spacing" textLength="134" x="287.5" y="345.3613">fechaHora: DateTime</text><text fill="#000000" font-family="sans-serif" font-size="14" lengthAdjust="spacing" textLength="186" x="287.5" y="362.9707">mesaElectoral: MesaElectoral</text><line style="stroke:#181818;stroke-width:0.5;" x1="282.5" x2="478.5" y1="370.0469" y2="370.0469"/></g><!--class MesaElectoral--><g id="elem_MesaElectoral"><rect codeLine="39" fill="#F1F1F1" height="100.8281" id="MesaElectoral" rx="2.5" ry="2.5" style="stroke:#181818;stroke-width:0.5;" width="151" x="491" y="464.1094"/><ellipse cx="519.5" cy="480.1094" fill="#ADD1B2" rx="11" ry="11" style="stroke:#181818;stroke-width:1.0;"/><path d="M522.2656,475.9844 Q522.4219,475.7656 522.6094,475.6563 Q522.7969,475.5469 523.0156,475.5469 Q523.3906,475.5469 523.625,475.8125 Q523.8594,476.0625 523.8594,476.6719 L523.8594,478.125 Q523.8594,478.7344 523.625,479 Q523.3906,479.2656 523.0156,479.2656 Q522.6719,479.2656 522.4688,479.0625 Q522.2656,478.875 522.1563,478.3594 Q522.1094,478 521.9219,477.8125 Q521.5938,477.4375 520.9844,477.2188 Q520.375,477 519.75,477 Q518.9844,477 518.3438,477.3281 Q517.7188,477.6563 517.2188,478.4063 Q516.7344,479.1563 516.7344,480.1875 L516.7344,481.2813 Q516.7344,482.5156 517.625,483.3438 Q518.5156,484.1563 520.1094,484.1563 Q521.0469,484.1563 521.7031,483.9063 Q522.0938,483.75 522.5156,483.3125 Q522.7813,483.0469 522.9219,482.9688 Q523.0781,482.8906 523.2813,482.8906 Q523.6094,482.8906 523.8594,483.1563 Q524.125,483.4063 524.125,483.75 Q524.125,484.0938 523.7813,484.5 Q523.2813,485.0781 522.4844,485.4063 Q521.4063,485.8594 520.1094,485.8594 Q518.5938,485.8594 517.3906,485.2344 Q516.4063,484.7344 515.7188,483.6719 Q515.0313,482.5938 515.0313,481.3125 L515.0313,480.1563 Q515.0313,478.8281 515.6406,477.6875 Q516.2656,476.5313 517.3594,475.9219 Q518.4531,475.2969 519.6875,475.2969 Q520.4219,475.2969 521.0625,475.4688 Q521.7188,475.625 522.2656,475.9844 Z " fill="#000000"/><text fill="#000000" font-family="sans-serif" font-size="14" lengthAdjust="spacing" textLength="89" x="536.5" y="485.8379">MesaElectoral</text><line style="stroke:#181818;stroke-width:0.5;" x1="492" x2="641" y1="496.1094" y2="496.1094"/><text fill="#000000" font-family="sans-serif" font-size="14" lengthAdjust="spacing" textLength="63" x="497" y="514.6426">id: Integer</text><text fill="#000000" font-family="sans-serif" font-size="14" lengthAdjust="spacing" textLength="105" x="497" y="532.252">ubicacion: String</text><text fill="#000000" font-family="sans-serif" font-size="14" lengthAdjust="spacing" textLength="139" x="497" y="549.8613">votosEmitidos: Integer</text><line style="stroke:#181818;stroke-width:0.5;" x1="492" x2="641" y1="556.9375" y2="556.9375"/></g><!--link Candidato to Elecci?n--><g id="link_Candidato_Elecci&#243;n"><path codeLine="45" d="M247.5,573.8194 C247.5,598.3694 247.5,626.8994 247.5,651.4394 " fill="none" id="Candidato-Elecci&#243;n" style="stroke:#181818;stroke-width:1.0;"/><polygon fill="#000000" points="252.5,617.7852,255.4389,608.7401,249.5611,608.7401,252.5,617.7852" style="stroke:#000000;stroke-width:1.0;"/><text fill="#000000" font-family="sans-serif" font-size="13" lengthAdjust="spacing" textLength="49" x="261.5" y="618.1045">participa</text><text fill="#000000" font-family="sans-serif" font-size="13" lengthAdjust="spacing" textLength="20" x="226.2813" y="595.5005">1..*</text><text fill="#000000" font-family="sans-serif" font-size="13" lengthAdjust="spacing" textLength="20" x="226.2813" y="640.7429">1..*</text></g><!--link Sufragante to MesaElectoral--><g id="link_Sufragante_MesaElectoral"><path codeLine="46" d="M491.67,181.8394 C509.68,261.6894 539.29,392.9694 555.33,464.0894 " fill="none" id="Sufragante-MesaElectoral" style="stroke:#181818;stroke-width:1.0;"/><polygon fill="#000000" points="540.6001,323.6626,541.4769,314.1926,535.7431,315.4858,540.6001,323.6626" style="stroke:#000000;stroke-width:1.0;"/><text fill="#000000" font-family="sans-serif" font-size="13" lengthAdjust="spacing" textLength="39" x="548.5" y="324.1045">votaEn</text><text fill="#000000" font-family="sans-serif" font-size="13" lengthAdjust="spacing" textLength="20" x="472.2032" y="203.2114">1..*</text><text fill="#000000" font-family="sans-serif" font-size="13" lengthAdjust="spacing" textLength="7" x="546.267" y="453.3919">1</text></g><!--link Sufragante to Voto--><g id="link_Sufragante_Voto"><path codeLine="47" d="M444.8,181.6394 C432.89,206.8194 419.47,235.2094 407.98,259.4994 " fill="none" id="Sufragante-Voto" style="stroke:#181818;stroke-width:1.0;"/><polygon fill="#000000" points="431.3625,225.3052,437.8861,218.3848,432.5725,215.8719,431.3625,225.3052" style="stroke:#000000;stroke-width:1.0;"/><text fill="#000000" font-family="sans-serif" font-size="13" lengthAdjust="spacing" textLength="32" x="442.5" y="226.1045">emite</text><text fill="#000000" font-family="sans-serif" font-size="13" lengthAdjust="spacing" textLength="7" x="434.17" y="202.9908">1</text><text fill="#000000" font-family="sans-serif" font-size="13" lengthAdjust="spacing" textLength="7" x="403.9026" y="248.8102">1</text></g><!--link Voto to Candidato--><g id="link_Voto_Candidato"><path codeLine="48" d="M316.13,377.9594 C307.57,387.3694 299.39,397.3994 292.5,407.6094 C282.66,422.1994 274.27,439.2794 267.49,455.4194 " fill="none" id="Voto-Candidato" style="stroke:#181818;stroke-width:1.0;"/><polygon fill="#000000" points="294.8411,421.0195,302.14,414.9223,297.1622,411.7966,294.8411,421.0195" style="stroke:#000000;stroke-width:1.0;"/><text fill="#000000" font-family="sans-serif" font-size="13" lengthAdjust="spacing" textLength="41" x="306.5" y="422.1045">elegido</text><text fill="#000000" font-family="sans-serif" font-size="13" lengthAdjust="spacing" textLength="7" x="300.8583" y="399.6575">1</text><text fill="#000000" font-family="sans-serif" font-size="13" lengthAdjust="spacing" textLength="7" x="262.4997" y="444.7205">1</text></g><!--link Voto to Elecci?n--><g id="link_Voto_Elecci&#243;n"><path codeLine="49" d="M377.08,377.8694 C371.53,440.6894 357.06,542.3394 319.5,621.6094 C314.68,631.7794 308.44,641.7794 301.65,651.1894 " fill="none" id="Voto-Elecci&#243;n" style="stroke:#181818;stroke-width:1.0;"/><polygon fill="#000000" points="371.1698,519.605,376.4091,511.6677,370.7431,510.104,371.1698,519.605" style="stroke:#000000;stroke-width:1.0;"/><text fill="#000000" font-family="sans-serif" font-size="13" lengthAdjust="spacing" textLength="66" x="381.5" y="520.1045">perteneceA</text><text fill="#000000" font-family="sans-serif" font-size="13" lengthAdjust="spacing" textLength="7" x="369.2366" y="399.5566">1</text><text fill="#000000" font-family="sans-serif" font-size="13" lengthAdjust="spacing" textLength="7" x="300.5064" y="640.8841">1</text></g><!--link Voto to MesaElectoral--><g id="link_Voto_MesaElectoral"><path codeLine="50" d="M421.17,377.6094 C433.44,393.7494 447.42,410.8794 461.5,425.6094 C474.07,438.7594 488.51,451.9094 502.57,463.8894 " fill="none" id="Voto-MesaElectoral" style="stroke:#181818;stroke-width:1.0;"/><polygon fill="#000000" points="469.9312,420.422,465.8618,411.8261,461.5864,415.8597,469.9312,420.422" style="stroke:#000000;stroke-width:1.0;"/><text fill="#000000" font-family="sans-serif" font-size="13" lengthAdjust="spacing" textLength="58" x="475.5" y="422.1045">emitidoEn</text><text fill="#000000" font-family="sans-serif" font-size="13" lengthAdjust="spacing" textLength="7" x="418.9324" y="399.6834">1</text><text fill="#000000" font-family="sans-serif" font-size="13" lengthAdjust="spacing" textLength="7" x="486.0877" y="453.1638">1</text></g><!--link Secretario to Organizador--><g id="link_Secretario_Organizador"><path codeLine="51" d="M81.5,377.8194 C81.5,405.2694 81.5,437.6894 81.5,463.9694 " fill="none" id="Secretario-Organizador" style="stroke:#181818;stroke-width:1.0;"/><polygon fill="#000000" points="86.5,421.7852,89.4389,412.7401,83.5611,412.7401,86.5,421.7852" style="stroke:#000000;stroke-width:1.0;"/><text fill="#000000" font-family="sans-serif" font-size="13" lengthAdjust="spacing" textLength="49" x="95.5" y="422.1045">reportaA</text><text fill="#000000" font-family="sans-serif" font-size="13" lengthAdjust="spacing" textLength="7" x="74.0734" y="399.5005">1</text><text fill="#000000" font-family="sans-serif" font-size="13" lengthAdjust="spacing" textLength="7" x="74.0078" y="453.255">1</text></g><!--link Organizador to Elecci?n--><g id="link_Organizador_Elecci&#243;n"><path codeLine="52" d="M124.03,565.3194 C146.51,591.5894 174.23,623.9794 197.71,651.4194 " fill="none" id="Organizador-Elecci&#243;n" style="stroke:#181818;stroke-width:1.0;"/><polygon fill="#000000" points="177.7509,616.5841,174.1029,607.801,169.637,611.6226,177.7509,616.5841" style="stroke:#000000;stroke-width:1.0;"/><text fill="#000000" font-family="sans-serif" font-size="13" lengthAdjust="spacing" textLength="49" x="183.5" y="618.1045">coordina</text><text fill="#000000" font-family="sans-serif" font-size="13" lengthAdjust="spacing" textLength="7" x="122.0307" y="586.3702">1</text><text fill="#000000" font-family="sans-serif" font-size="13" lengthAdjust="spacing" textLength="20" x="170.4231" y="640.7205">1..*</text></g><!--SRC=[ZLB1QXin4BtlLmm-9QKnzAf38JWBBIG4uj3xM1fl1dObCzAMaE2loYVqnphosbxPteDlqkZflJTl9d5g2HuO6y4EmH4iMemKeNvFv1sxO639CT7m-2SajFplorULLLo41MOGfW2V5G0x0xzzeeP4RpvqAo7zduHzeuKDIXeOZnK9cvvYmcZWKMMgxPvtsQy56rIk2MBdkU2ua2679_2E8jOjsHG4MmDFvNKK92kKKFYgJlwIy9ejYWOIuirjRgLVjRdoGh5l4xfT-S3-BDeBVsXLhg4FUxXadvQ3fv9iAEeGhg5Qatr30m-OA4SJipC3jUyx-BnVCKd2xx0W4NIuFKhajYROxM7QPXpyGUENnZdel797ryP-KfrGx5UQQKwW33zdNdUSTocEu6rLZTiu-p6VVvl1tTtXD8PcXZsql47uMHMBLlwPdJapMHLhV_xZ2DybPe3K5YbeTosUHsUAQQbHwnEe4vCw6l9awNu2U6wEXZG6V-Cc5p_A3JGWj0aw-KnTFXpn5v7P4CInpudz1m00]--></g></svg>