<?xml version="1.0" encoding="us-ascii" standalone="no"?><svg xmlns="http://www.w3.org/2000/svg" xmlns:xlink="http://www.w3.org/1999/xlink" contentStyleType="text/css" height="566px" preserveAspectRatio="none" style="width:176px;height:566px;background:#FFFFFF;" version="1.1" viewBox="0 0 176 566" width="176px" zoomAndPan="magnify"><defs/><g><!--class Holograma--><g id="elem_Holograma"><rect codeLine="2" fill="#F1F1F1" height="48" id="Holograma" rx="2.5" ry="2.5" style="stroke:#181818;stroke-width:0.5;" width="100" x="30.5" y="511"/><ellipse cx="45.5" cy="527" fill="#ADD1B2" rx="11" ry="11" style="stroke:#181818;stroke-width:1.0;"/><path d="M48.2656,522.875 Q48.4219,522.6563 48.6094,522.5469 Q48.7969,522.4375 49.0156,522.4375 Q49.3906,522.4375 49.625,522.7031 Q49.8594,522.9531 49.8594,523.5625 L49.8594,525.0156 Q49.8594,525.625 49.625,525.8906 Q49.3906,526.1563 49.0156,526.1563 Q48.6719,526.1563 48.4688,525.9531 Q48.2656,525.7656 48.1563,525.25 Q48.1094,524.8906 47.9219,524.7031 Q47.5938,524.3281 46.9844,524.1094 Q46.375,523.8906 45.75,523.8906 Q44.9844,523.8906 44.3438,524.2188 Q43.7188,524.5469 43.2188,525.2969 Q42.7344,526.0469 42.7344,527.0781 L42.7344,528.1719 Q42.7344,529.4063 43.625,530.2344 Q44.5156,531.0469 46.1094,531.0469 Q47.0469,531.0469 47.7031,530.7969 Q48.0938,530.6406 48.5156,530.2031 Q48.7813,529.9375 48.9219,529.8594 Q49.0781,529.7813 49.2813,529.7813 Q49.6094,529.7813 49.8594,530.0469 Q50.125,530.2969 50.125,530.6406 Q50.125,530.9844 49.7813,531.3906 Q49.2813,531.9688 48.4844,532.2969 Q47.4063,532.75 46.1094,532.75 Q44.5938,532.75 43.3906,532.125 Q42.4063,531.625 41.7188,530.5625 Q41.0313,529.4844 41.0313,528.2031 L41.0313,527.0469 Q41.0313,525.7188 41.6406,524.5781 Q42.2656,523.4219 43.3594,522.8125 Q44.4531,522.1875 45.6875,522.1875 Q46.4219,522.1875 47.0625,522.3594 Q47.7188,522.5156 48.2656,522.875 Z " fill="#000000"/><text fill="#000000" font-family="sans-serif" font-size="14" lengthAdjust="spacing" textLength="68" x="59.5" y="532.7285">Holograma</text><line style="stroke:#181818;stroke-width:0.5;" x1="31.5" x2="129.5" y1="543" y2="543"/><line style="stroke:#181818;stroke-width:0.5;" x1="31.5" x2="129.5" y1="551" y2="551"/></g><!--class GeneracionOptica--><g id="elem_GeneracionOptica"><rect codeLine="3" fill="#F1F1F1" height="48" id="GeneracionOptica" rx="2.5" ry="2.5" style="stroke:#181818;stroke-width:0.5;" width="147" x="7" y="385"/><ellipse cx="22" cy="401" fill="#ADD1B2" rx="11" ry="11" style="stroke:#181818;stroke-width:1.0;"/><path d="M24.7656,396.875 Q24.9219,396.6563 25.1094,396.5469 Q25.2969,396.4375 25.5156,396.4375 Q25.8906,396.4375 26.125,396.7031 Q26.3594,396.9531 26.3594,397.5625 L26.3594,399.0156 Q26.3594,399.625 26.125,399.8906 Q25.8906,400.1563 25.5156,400.1563 Q25.1719,400.1563 24.9688,399.9531 Q24.7656,399.7656 24.6563,399.25 Q24.6094,398.8906 24.4219,398.7031 Q24.0938,398.3281 23.4844,398.1094 Q22.875,397.8906 22.25,397.8906 Q21.4844,397.8906 20.8438,398.2188 Q20.2188,398.5469 19.7188,399.2969 Q19.2344,400.0469 19.2344,401.0781 L19.2344,402.1719 Q19.2344,403.4063 20.125,404.2344 Q21.0156,405.0469 22.6094,405.0469 Q23.5469,405.0469 24.2031,404.7969 Q24.5938,404.6406 25.0156,404.2031 Q25.2813,403.9375 25.4219,403.8594 Q25.5781,403.7813 25.7813,403.7813 Q26.1094,403.7813 26.3594,404.0469 Q26.625,404.2969 26.625,404.6406 Q26.625,404.9844 26.2813,405.3906 Q25.7813,405.9688 24.9844,406.2969 Q23.9063,406.75 22.6094,406.75 Q21.0938,406.75 19.8906,406.125 Q18.9063,405.625 18.2188,404.5625 Q17.5313,403.4844 17.5313,402.2031 L17.5313,401.0469 Q17.5313,399.7188 18.1406,398.5781 Q18.7656,397.4219 19.8594,396.8125 Q20.9531,396.1875 22.1875,396.1875 Q22.9219,396.1875 23.5625,396.3594 Q24.2188,396.5156 24.7656,396.875 Z " fill="#000000"/><text fill="#000000" font-family="sans-serif" font-size="14" lengthAdjust="spacing" textLength="115" x="36" y="406.7285">GeneracionOptica</text><line style="stroke:#181818;stroke-width:0.5;" x1="8" x2="153" y1="417" y2="417"/><line style="stroke:#181818;stroke-width:0.5;" x1="8" x2="153" y1="425" y2="425"/></g><!--class InterfazFisica--><g id="elem_InterfazFisica"><rect codeLine="4" fill="#F1F1F1" height="48" id="InterfazFisica" rx="2.5" ry="2.5" style="stroke:#181818;stroke-width:0.5;" width="115" x="23" y="7"/><ellipse cx="38" cy="23" fill="#ADD1B2" rx="11" ry="11" style="stroke:#181818;stroke-width:1.0;"/><path d="M40.7656,18.875 Q40.9219,18.6563 41.1094,18.5469 Q41.2969,18.4375 41.5156,18.4375 Q41.8906,18.4375 42.125,18.7031 Q42.3594,18.9531 42.3594,19.5625 L42.3594,21.0156 Q42.3594,21.625 42.125,21.8906 Q41.8906,22.1563 41.5156,22.1563 Q41.1719,22.1563 40.9688,21.9531 Q40.7656,21.7656 40.6563,21.25 Q40.6094,20.8906 40.4219,20.7031 Q40.0938,20.3281 39.4844,20.1094 Q38.875,19.8906 38.25,19.8906 Q37.4844,19.8906 36.8438,20.2188 Q36.2188,20.5469 35.7188,21.2969 Q35.2344,22.0469 35.2344,23.0781 L35.2344,24.1719 Q35.2344,25.4063 36.125,26.2344 Q37.0156,27.0469 38.6094,27.0469 Q39.5469,27.0469 40.2031,26.7969 Q40.5938,26.6406 41.0156,26.2031 Q41.2813,25.9375 41.4219,25.8594 Q41.5781,25.7813 41.7813,25.7813 Q42.1094,25.7813 42.3594,26.0469 Q42.625,26.2969 42.625,26.6406 Q42.625,26.9844 42.2813,27.3906 Q41.7813,27.9688 40.9844,28.2969 Q39.9063,28.75 38.6094,28.75 Q37.0938,28.75 35.8906,28.125 Q34.9063,27.625 34.2188,26.5625 Q33.5313,25.4844 33.5313,24.2031 L33.5313,23.0469 Q33.5313,21.7188 34.1406,20.5781 Q34.7656,19.4219 35.8594,18.8125 Q36.9531,18.1875 38.1875,18.1875 Q38.9219,18.1875 39.5625,18.3594 Q40.2188,18.5156 40.7656,18.875 Z " fill="#000000"/><text fill="#000000" font-family="sans-serif" font-size="14" lengthAdjust="spacing" textLength="83" x="52" y="28.7285">InterfazFisica</text><line style="stroke:#181818;stroke-width:0.5;" x1="24" x2="137" y1="39" y2="39"/><line style="stroke:#181818;stroke-width:0.5;" x1="24" x2="137" y1="47" y2="47"/></g><!--class DatosAProyectar--><g id="elem_DatosAProyectar"><rect codeLine="5" fill="#F1F1F1" height="48" id="DatosAProyectar" rx="2.5" ry="2.5" style="stroke:#181818;stroke-width:0.5;" width="139" x="11" y="133"/><ellipse cx="26" cy="149" fill="#ADD1B2" rx="11" ry="11" style="stroke:#181818;stroke-width:1.0;"/><path d="M28.7656,144.875 Q28.9219,144.6563 29.1094,144.5469 Q29.2969,144.4375 29.5156,144.4375 Q29.8906,144.4375 30.125,144.7031 Q30.3594,144.9531 30.3594,145.5625 L30.3594,147.0156 Q30.3594,147.625 30.125,147.8906 Q29.8906,148.1563 29.5156,148.1563 Q29.1719,148.1563 28.9688,147.9531 Q28.7656,147.7656 28.6563,147.25 Q28.6094,146.8906 28.4219,146.7031 Q28.0938,146.3281 27.4844,146.1094 Q26.875,145.8906 26.25,145.8906 Q25.4844,145.8906 24.8438,146.2188 Q24.2188,146.5469 23.7188,147.2969 Q23.2344,148.0469 23.2344,149.0781 L23.2344,150.1719 Q23.2344,151.4063 24.125,152.2344 Q25.0156,153.0469 26.6094,153.0469 Q27.5469,153.0469 28.2031,152.7969 Q28.5938,152.6406 29.0156,152.2031 Q29.2813,151.9375 29.4219,151.8594 Q29.5781,151.7813 29.7813,151.7813 Q30.1094,151.7813 30.3594,152.0469 Q30.625,152.2969 30.625,152.6406 Q30.625,152.9844 30.2813,153.3906 Q29.7813,153.9688 28.9844,154.2969 Q27.9063,154.75 26.6094,154.75 Q25.0938,154.75 23.8906,154.125 Q22.9063,153.625 22.2188,152.5625 Q21.5313,151.4844 21.5313,150.2031 L21.5313,149.0469 Q21.5313,147.7188 22.1406,146.5781 Q22.7656,145.4219 23.8594,144.8125 Q24.9531,144.1875 26.1875,144.1875 Q26.9219,144.1875 27.5625,144.3594 Q28.2188,144.5156 28.7656,144.875 Z " fill="#000000"/><text fill="#000000" font-family="sans-serif" font-size="14" lengthAdjust="spacing" textLength="107" x="40" y="154.7285">DatosAProyectar</text><line style="stroke:#181818;stroke-width:0.5;" x1="12" x2="149" y1="165" y2="165"/><line style="stroke:#181818;stroke-width:0.5;" x1="12" x2="149" y1="173" y2="173"/></g><!--class PercepcionVisual--><g id="elem_PercepcionVisual"><rect codeLine="6" fill="#F1F1F1" height="48" id="PercepcionVisual" rx="2.5" ry="2.5" style="stroke:#181818;stroke-width:0.5;" width="141" x="10" y="259"/><ellipse cx="25" cy="275" fill="#ADD1B2" rx="11" ry="11" style="stroke:#181818;stroke-width:1.0;"/><path d="M27.7656,270.875 Q27.9219,270.6563 28.1094,270.5469 Q28.2969,270.4375 28.5156,270.4375 Q28.8906,270.4375 29.125,270.7031 Q29.3594,270.9531 29.3594,271.5625 L29.3594,273.0156 Q29.3594,273.625 29.125,273.8906 Q28.8906,274.1563 28.5156,274.1563 Q28.1719,274.1563 27.9688,273.9531 Q27.7656,273.7656 27.6563,273.25 Q27.6094,272.8906 27.4219,272.7031 Q27.0938,272.3281 26.4844,272.1094 Q25.875,271.8906 25.25,271.8906 Q24.4844,271.8906 23.8438,272.2188 Q23.2188,272.5469 22.7188,273.2969 Q22.2344,274.0469 22.2344,275.0781 L22.2344,276.1719 Q22.2344,277.4063 23.125,278.2344 Q24.0156,279.0469 25.6094,279.0469 Q26.5469,279.0469 27.2031,278.7969 Q27.5938,278.6406 28.0156,278.2031 Q28.2813,277.9375 28.4219,277.8594 Q28.5781,277.7813 28.7813,277.7813 Q29.1094,277.7813 29.3594,278.0469 Q29.625,278.2969 29.625,278.6406 Q29.625,278.9844 29.2813,279.3906 Q28.7813,279.9688 27.9844,280.2969 Q26.9063,280.75 25.6094,280.75 Q24.0938,280.75 22.8906,280.125 Q21.9063,279.625 21.2188,278.5625 Q20.5313,277.4844 20.5313,276.2031 L20.5313,275.0469 Q20.5313,273.7188 21.1406,272.5781 Q21.7656,271.4219 22.8594,270.8125 Q23.9531,270.1875 25.1875,270.1875 Q25.9219,270.1875 26.5625,270.3594 Q27.2188,270.5156 27.7656,270.875 Z " fill="#000000"/><text fill="#000000" font-family="sans-serif" font-size="14" lengthAdjust="spacing" textLength="109" x="39" y="280.7285">PercepcionVisual</text><line style="stroke:#181818;stroke-width:0.5;" x1="11" x2="150" y1="291" y2="291"/><line style="stroke:#181818;stroke-width:0.5;" x1="11" x2="150" y1="299" y2="299"/></g><!--link InterfazFisica to DatosAProyectar--><g id="link_InterfazFisica_DatosAProyectar"><path codeLine="8" d="M80.5,55.03 C80.5,77.17 80.5,110.44 80.5,132.67 " fill="none" id="InterfazFisica-DatosAProyectar" style="stroke:#181818;stroke-width:1.0;"/><text fill="#000000" font-family="sans-serif" font-size="13" lengthAdjust="spacing" textLength="87" x="81.5" y="99.4951">se convierte en</text></g><!--link DatosAProyectar to PercepcionVisual--><g id="link_DatosAProyectar_PercepcionVisual"><path codeLine="9" d="M80.5,181.03 C80.5,203.17 80.5,236.44 80.5,258.67 " fill="none" id="DatosAProyectar-PercepcionVisual" style="stroke:#181818;stroke-width:1.0;"/><text fill="#000000" font-family="sans-serif" font-size="13" lengthAdjust="spacing" textLength="87" x="81.5" y="225.4951">se convierte en</text></g><!--link PercepcionVisual to GeneracionOptica--><g id="link_PercepcionVisual_GeneracionOptica"><path codeLine="10" d="M80.5,307.03 C80.5,329.17 80.5,362.44 80.5,384.67 " fill="none" id="PercepcionVisual-GeneracionOptica" style="stroke:#181818;stroke-width:1.0;"/><text fill="#000000" font-family="sans-serif" font-size="13" lengthAdjust="spacing" textLength="25" x="81.5" y="351.4951">crea</text></g><!--link GeneracionOptica to Holograma--><g id="link_GeneracionOptica_Holograma"><path codeLine="11" d="M80.5,433.03 C80.5,455.17 80.5,488.44 80.5,510.67 " fill="none" id="GeneracionOptica-Holograma" style="stroke:#181818;stroke-width:1.0;"/><text fill="#000000" font-family="sans-serif" font-size="13" lengthAdjust="spacing" textLength="39" x="81.5" y="477.4951">genera</text></g><!--SRC=[RP3B2i9034Nt-OhyG7_0dI0-LdRbFeHO0kEa9AEWNz-n-C2fovpSSo7XH16ujsI3quM0vtadMPnOBH_7elp6Xrp4p_JOQdpXXeh5kdUx2nVo5-t5MSPdmqdZIWdWLyQkQqrSOGYovPkA5q79q2Qgr1R_iHQHghKNLOrT21QyPZ_VgA5XtiC4]--></g></svg>