<svg xmlns="http://www.w3.org/2000/svg" xmlns:xlink="http://www.w3.org/1999/xlink" contentStyleType="text/css" height="405px" preserveAspectRatio="none" style="width:687px;height:405px;background:#FFFFFF;" version="1.1" viewBox="0 0 687 405" width="687px" zoomAndPan="magnify"><defs/><g><!--class Decisi?n--><g id="elem_Decisi&#243;n"><rect codeLine="1" fill="#F1F1F1" height="48" id="Decisi&#243;n" rx="2.5" ry="2.5" style="stroke:#181818;stroke-width:0.5;" width="91.6025" x="281.71" y="116"/><ellipse cx="296.71" cy="132" fill="#ADD1B2" rx="11" ry="11" style="stroke:#181818;stroke-width:1.0;"/><path d="M299.6788,137.6406 Q299.1006,137.9375 298.46,138.0781 Q297.8194,138.2344 297.1163,138.2344 Q294.6163,138.2344 293.2881,136.5938 Q291.9756,134.9375 291.9756,131.8125 Q291.9756,128.6875 293.2881,127.0313 Q294.6163,125.375 297.1163,125.375 Q297.8194,125.375 298.46,125.5313 Q299.1163,125.6875 299.6788,125.9844 L299.6788,128.7031 Q299.0538,128.125 298.46,127.8594 Q297.8663,127.5781 297.2413,127.5781 Q295.8975,127.5781 295.21,128.6563 Q294.5225,129.7188 294.5225,131.8125 Q294.5225,133.9063 295.21,134.9844 Q295.8975,136.0469 297.2413,136.0469 Q297.8663,136.0469 298.46,135.7813 Q299.0538,135.5 299.6788,134.9219 L299.6788,137.6406 Z " fill="#000000"/><text fill="#000000" font-family="sans-serif" font-size="14" lengthAdjust="spacing" textLength="59.6025" x="310.71" y="136.8467">Decisi&#243;n</text><line style="stroke:#181818;stroke-width:0.5;" x1="282.71" x2="372.3125" y1="148" y2="148"/><line style="stroke:#181818;stroke-width:0.5;" x1="282.71" x2="372.3125" y1="156" y2="156"/></g><!--class Alternativa--><g id="elem_Alternativa"><rect codeLine="2" fill="#F1F1F1" height="48" id="Alternativa" rx="2.5" ry="2.5" style="stroke:#181818;stroke-width:0.5;" width="109.0205" x="7" y="241"/><ellipse cx="22" cy="257" fill="#ADD1B2" rx="11" ry="11" style="stroke:#181818;stroke-width:1.0;"/><path d="M24.9688,262.6406 Q24.3906,262.9375 23.75,263.0781 Q23.1094,263.2344 22.4063,263.2344 Q19.9063,263.2344 18.5781,261.5938 Q17.2656,259.9375 17.2656,256.8125 Q17.2656,253.6875 18.5781,252.0313 Q19.9063,250.375 22.4063,250.375 Q23.1094,250.375 23.75,250.5313 Q24.4063,250.6875 24.9688,250.9844 L24.9688,253.7031 Q24.3438,253.125 23.75,252.8594 Q23.1563,252.5781 22.5313,252.5781 Q21.1875,252.5781 20.5,253.6563 Q19.8125,254.7188 19.8125,256.8125 Q19.8125,258.9063 20.5,259.9844 Q21.1875,261.0469 22.5313,261.0469 Q23.1563,261.0469 23.75,260.7813 Q24.3438,260.5 24.9688,259.9219 L24.9688,262.6406 Z " fill="#000000"/><text fill="#000000" font-family="sans-serif" font-size="14" lengthAdjust="spacing" textLength="77.0205" x="36" y="261.8467">Alternativa</text><line style="stroke:#181818;stroke-width:0.5;" x1="8" x2="115.0205" y1="273" y2="273"/><line style="stroke:#181818;stroke-width:0.5;" x1="8" x2="115.0205" y1="281" y2="281"/></g><!--class Criterio--><g id="elem_Criterio"><rect codeLine="3" fill="#F1F1F1" height="48" id="Criterio" rx="2.5" ry="2.5" style="stroke:#181818;stroke-width:0.5;" width="83.7344" x="150.64" y="241"/><ellipse cx="165.64" cy="257" fill="#ADD1B2" rx="11" ry="11" style="stroke:#181818;stroke-width:1.0;"/><path d="M168.6088,262.6406 Q168.0306,262.9375 167.39,263.0781 Q166.7494,263.2344 166.0463,263.2344 Q163.5463,263.2344 162.2181,261.5938 Q160.9056,259.9375 160.9056,256.8125 Q160.9056,253.6875 162.2181,252.0313 Q163.5463,250.375 166.0463,250.375 Q166.7494,250.375 167.39,250.5313 Q168.0463,250.6875 168.6088,250.9844 L168.6088,253.7031 Q167.9838,253.125 167.39,252.8594 Q166.7963,252.5781 166.1713,252.5781 Q164.8275,252.5781 164.14,253.6563 Q163.4525,254.7188 163.4525,256.8125 Q163.4525,258.9063 164.14,259.9844 Q164.8275,261.0469 166.1713,261.0469 Q166.7963,261.0469 167.39,260.7813 Q167.9838,260.5 168.6088,259.9219 L168.6088,262.6406 Z " fill="#000000"/><text fill="#000000" font-family="sans-serif" font-size="14" lengthAdjust="spacing" textLength="51.7344" x="179.64" y="261.8467">Criterio</text><line style="stroke:#181818;stroke-width:0.5;" x1="151.64" x2="233.3744" y1="273" y2="273"/><line style="stroke:#181818;stroke-width:0.5;" x1="151.64" x2="233.3744" y1="281" y2="281"/></g><!--class Informaci?n--><g id="elem_Informaci&#243;n"><rect codeLine="4" fill="#F1F1F1" height="48" id="Informaci&#243;n" rx="2.5" ry="2.5" style="stroke:#181818;stroke-width:0.5;" width="115.4941" x="269.76" y="241"/><ellipse cx="284.76" cy="257" fill="#ADD1B2" rx="11" ry="11" style="stroke:#181818;stroke-width:1.0;"/><path d="M287.7288,262.6406 Q287.1506,262.9375 286.51,263.0781 Q285.8694,263.2344 285.1663,263.2344 Q282.6663,263.2344 281.3381,261.5938 Q280.0256,259.9375 280.0256,256.8125 Q280.0256,253.6875 281.3381,252.0313 Q282.6663,250.375 285.1663,250.375 Q285.8694,250.375 286.51,250.5313 Q287.1663,250.6875 287.7288,250.9844 L287.7288,253.7031 Q287.1038,253.125 286.51,252.8594 Q285.9163,252.5781 285.2913,252.5781 Q283.9475,252.5781 283.26,253.6563 Q282.5725,254.7188 282.5725,256.8125 Q282.5725,258.9063 283.26,259.9844 Q283.9475,261.0469 285.2913,261.0469 Q285.9163,261.0469 286.51,260.7813 Q287.1038,260.5 287.7288,259.9219 L287.7288,262.6406 Z " fill="#000000"/><text fill="#000000" font-family="sans-serif" font-size="14" lengthAdjust="spacing" textLength="83.4941" x="298.76" y="261.8467">Informaci&#243;n</text><line style="stroke:#181818;stroke-width:0.5;" x1="270.76" x2="384.2541" y1="273" y2="273"/><line style="stroke:#181818;stroke-width:0.5;" x1="270.76" x2="384.2541" y1="281" y2="281"/></g><!--class Persona--><g id="elem_Persona"><rect codeLine="5" fill="#F1F1F1" height="48" id="Persona" rx="2.5" ry="2.5" style="stroke:#181818;stroke-width:0.5;" width="88.123" x="283.45" y="7"/><ellipse cx="298.45" cy="23" fill="#ADD1B2" rx="11" ry="11" style="stroke:#181818;stroke-width:1.0;"/><path d="M301.4188,28.6406 Q300.8406,28.9375 300.2,29.0781 Q299.5594,29.2344 298.8563,29.2344 Q296.3563,29.2344 295.0281,27.5938 Q293.7156,25.9375 293.7156,22.8125 Q293.7156,19.6875 295.0281,18.0313 Q296.3563,16.375 298.8563,16.375 Q299.5594,16.375 300.2,16.5313 Q300.8563,16.6875 301.4188,16.9844 L301.4188,19.7031 Q300.7938,19.125 300.2,18.8594 Q299.6063,18.5781 298.9813,18.5781 Q297.6375,18.5781 296.95,19.6563 Q296.2625,20.7188 296.2625,22.8125 Q296.2625,24.9063 296.95,25.9844 Q297.6375,27.0469 298.9813,27.0469 Q299.6063,27.0469 300.2,26.7813 Q300.7938,26.5 301.4188,25.9219 L301.4188,28.6406 Z " fill="#000000"/><text fill="#000000" font-family="sans-serif" font-size="14" lengthAdjust="spacing" textLength="56.123" x="312.45" y="27.8467">Persona</text><line style="stroke:#181818;stroke-width:0.5;" x1="284.45" x2="370.573" y1="39" y2="39"/><line style="stroke:#181818;stroke-width:0.5;" x1="284.45" x2="370.573" y1="47" y2="47"/></g><!--class Consecuencia--><g id="elem_Consecuencia"><rect codeLine="6" fill="#F1F1F1" height="48" id="Consecuencia" rx="2.5" ry="2.5" style="stroke:#181818;stroke-width:0.5;" width="129.3438" x="419.84" y="241"/><ellipse cx="434.84" cy="257" fill="#ADD1B2" rx="11" ry="11" style="stroke:#181818;stroke-width:1.0;"/><path d="M437.8088,262.6406 Q437.2306,262.9375 436.59,263.0781 Q435.9494,263.2344 435.2463,263.2344 Q432.7463,263.2344 431.4181,261.5938 Q430.1056,259.9375 430.1056,256.8125 Q430.1056,253.6875 431.4181,252.0313 Q432.7463,250.375 435.2463,250.375 Q435.9494,250.375 436.59,250.5313 Q437.2463,250.6875 437.8088,250.9844 L437.8088,253.7031 Q437.1838,253.125 436.59,252.8594 Q435.9963,252.5781 435.3713,252.5781 Q434.0275,252.5781 433.34,253.6563 Q432.6525,254.7188 432.6525,256.8125 Q432.6525,258.9063 433.34,259.9844 Q434.0275,261.0469 435.3713,261.0469 Q435.9963,261.0469 436.59,260.7813 Q437.1838,260.5 437.8088,259.9219 L437.8088,262.6406 Z " fill="#000000"/><text fill="#000000" font-family="sans-serif" font-size="14" lengthAdjust="spacing" textLength="97.3438" x="448.84" y="261.8467">Consecuencia</text><line style="stroke:#181818;stroke-width:0.5;" x1="420.84" x2="548.1837" y1="273" y2="273"/><line style="stroke:#181818;stroke-width:0.5;" x1="420.84" x2="548.1837" y1="281" y2="281"/></g><!--class Objetivo--><g id="elem_Objetivo"><rect codeLine="7" fill="#F1F1F1" height="48" id="Objetivo" rx="2.5" ry="2.5" style="stroke:#181818;stroke-width:0.5;" width="90.6387" x="147.19" y="350"/><ellipse cx="162.19" cy="366" fill="#ADD1B2" rx="11" ry="11" style="stroke:#181818;stroke-width:1.0;"/><path d="M165.1588,371.6406 Q164.5806,371.9375 163.94,372.0781 Q163.2994,372.2344 162.5963,372.2344 Q160.0963,372.2344 158.7681,370.5938 Q157.4556,368.9375 157.4556,365.8125 Q157.4556,362.6875 158.7681,361.0313 Q160.0963,359.375 162.5963,359.375 Q163.2994,359.375 163.94,359.5313 Q164.5963,359.6875 165.1588,359.9844 L165.1588,362.7031 Q164.5338,362.125 163.94,361.8594 Q163.3463,361.5781 162.7213,361.5781 Q161.3775,361.5781 160.69,362.6563 Q160.0025,363.7188 160.0025,365.8125 Q160.0025,367.9063 160.69,368.9844 Q161.3775,370.0469 162.7213,370.0469 Q163.3463,370.0469 163.94,369.7813 Q164.5338,369.5 165.1588,368.9219 L165.1588,371.6406 Z " fill="#000000"/><text fill="#000000" font-family="sans-serif" font-size="14" lengthAdjust="spacing" textLength="58.6387" x="176.19" y="370.8467">Objetivo</text><line style="stroke:#181818;stroke-width:0.5;" x1="148.19" x2="236.8287" y1="382" y2="382"/><line style="stroke:#181818;stroke-width:0.5;" x1="148.19" x2="236.8287" y1="390" y2="390"/></g><!--class Contexto--><g id="elem_Contexto"><rect codeLine="8" fill="#F1F1F1" height="48" id="Contexto" rx="2.5" ry="2.5" style="stroke:#181818;stroke-width:0.5;" width="95.6563" x="584.68" y="241"/><ellipse cx="599.68" cy="257" fill="#ADD1B2" rx="11" ry="11" style="stroke:#181818;stroke-width:1.0;"/><path d="M602.6488,262.6406 Q602.0706,262.9375 601.43,263.0781 Q600.7894,263.2344 600.0863,263.2344 Q597.5863,263.2344 596.2581,261.5938 Q594.9456,259.9375 594.9456,256.8125 Q594.9456,253.6875 596.2581,252.0313 Q597.5863,250.375 600.0863,250.375 Q600.7894,250.375 601.43,250.5313 Q602.0863,250.6875 602.6488,250.9844 L602.6488,253.7031 Q602.0238,253.125 601.43,252.8594 Q600.8363,252.5781 600.2113,252.5781 Q598.8675,252.5781 598.18,253.6563 Q597.4925,254.7188 597.4925,256.8125 Q597.4925,258.9063 598.18,259.9844 Q598.8675,261.0469 600.2113,261.0469 Q600.8363,261.0469 601.43,260.7813 Q602.0238,260.5 602.6488,259.9219 L602.6488,262.6406 Z " fill="#000000"/><text fill="#000000" font-family="sans-serif" font-size="14" lengthAdjust="spacing" textLength="63.6563" x="613.68" y="261.8467">Contexto</text><line style="stroke:#181818;stroke-width:0.5;" x1="585.68" x2="679.3363" y1="273" y2="273"/><line style="stroke:#181818;stroke-width:0.5;" x1="585.68" x2="679.3363" y1="281" y2="281"/></g><!--link Decisi?n to Alternativa--><g id="link_Decisi&#243;n_Alternativa"><path codeLine="10" d="M281.23,159.16 C256.74,169.03 226.28,181.69 199.51,194 C167.66,208.65 132.42,226.55 105.52,240.59 " fill="none" id="Decisi&#243;n-Alternativa" style="stroke:#181818;stroke-width:1.0;"/><text fill="#000000" font-family="sans-serif" font-size="13" lengthAdjust="spacing" textLength="43.9702" x="200.51" y="207.0669">influye</text></g><!--link Decisi?n to Criterio--><g id="link_Decisi&#243;n_Criterio"><path codeLine="11" d="M301.8,164.42 C277.78,186.31 242.12,218.8 218.12,240.66 " fill="none" id="Decisi&#243;n-Criterio" style="stroke:#181818;stroke-width:1.0;"/></g><!--link Decisi?n to Informaci?n--><g id="link_Decisi&#243;n_Informaci&#243;n"><path codeLine="12" d="M327.51,164.42 C327.51,186.31 327.51,218.8 327.51,240.66 " fill="none" id="Decisi&#243;n-Informaci&#243;n" style="stroke:#181818;stroke-width:1.0;"/></g><!--link Decisi?n to Consecuencia--><g id="link_Decisi&#243;n_Consecuencia"><path codeLine="13" d="M357.41,164.42 C385.35,186.31 426.82,218.8 454.72,240.66 " fill="none" id="Decisi&#243;n-Consecuencia" style="stroke:#181818;stroke-width:1.0;"/></g><!--link Persona to Decisi?n--><g id="link_Persona_Decisi&#243;n"><path codeLine="14" d="M327.51,55.48 C327.51,73.32 327.51,97.75 327.51,115.57 " fill="none" id="Persona-Decisi&#243;n" style="stroke:#181818;stroke-width:1.0;"/></g><!--link Criterio to Objetivo--><g id="link_Criterio_Objetivo"><path codeLine="15" d="M192.51,289.48 C192.51,307.32 192.51,331.75 192.51,349.57 " fill="none" id="Criterio-Objetivo" style="stroke:#181818;stroke-width:1.0;"/></g><!--link Decisi?n to Contexto--><g id="link_Decisi&#243;n_Contexto"><path codeLine="16" d="M373.5,159.55 C430.33,182.47 526.58,221.28 584.38,244.59 " fill="none" id="Decisi&#243;n-Contexto" style="stroke:#181818;stroke-width:1.0;"/></g><!--SRC=[NOyz3i8m34Rtd2BgtWjqGtHXebS8bYkv2hOKfmZEnH6uM7-KfWcZdpv_VWRlL6sFG4g_BnlOvukF6DX5Uhb4he5MH9B66uyIdWwAdG632kUyi2BCo407kZycN1lbJ4HyHp4cNxTjMvwsdMs8Hpz_iAb3sQQYbLITBssIwCRFlu_6ZMRH_uxTTm40]--></g></svg>