<svg xmlns="http://www.w3.org/2000/svg" xmlns:xlink="http://www.w3.org/1999/xlink" contentStyleType="text/css" height="474px" preserveAspectRatio="none" style="width:329px;height:474px;background:#FFFFFF;" version="1.1" viewBox="0 0 329 474" width="329px" zoomAndPan="magnify"><title>Modelo de Dominio del Eco (sonido)</title><defs/><g><text fill="#000000" font-family="sans-serif" font-size="14" font-weight="bold" lengthAdjust="spacing" textLength="283.3291" x="16.0009" y="22.9951">Modelo de Dominio del Eco (sonido)</text><!--class FuenteSonido--><g id="elem_FuenteSonido"><rect codeLine="3" fill="#F1F1F1" height="48" id="FuenteSonido" rx="2.5" ry="2.5" style="stroke:#181818;stroke-width:0.5;" width="128.1816" x="113.93" y="44.2969"/><ellipse cx="128.93" cy="60.2969" fill="#ADD1B2" rx="11" ry="11" style="stroke:#181818;stroke-width:1.0;"/><path d="M131.8988,65.9375 Q131.3206,66.2344 130.68,66.375 Q130.0394,66.5313 129.3363,66.5313 Q126.8363,66.5313 125.5081,64.8906 Q124.1956,63.2344 124.1956,60.1094 Q124.1956,56.9844 125.5081,55.3281 Q126.8363,53.6719 129.3363,53.6719 Q130.0394,53.6719 130.68,53.8281 Q131.3363,53.9844 131.8988,54.2813 L131.8988,57 Q131.2738,56.4219 130.68,56.1563 Q130.0863,55.875 129.4613,55.875 Q128.1175,55.875 127.43,56.9531 Q126.7425,58.0156 126.7425,60.1094 Q126.7425,62.2031 127.43,63.2813 Q128.1175,64.3438 129.4613,64.3438 Q130.0863,64.3438 130.68,64.0781 Q131.2738,63.7969 131.8988,63.2188 L131.8988,65.9375 Z " fill="#000000"/><text fill="#000000" font-family="sans-serif" font-size="14" lengthAdjust="spacing" textLength="96.1816" x="142.93" y="65.1436">FuenteSonido</text><line style="stroke:#181818;stroke-width:0.5;" x1="114.93" x2="241.1116" y1="76.2969" y2="76.2969"/><line style="stroke:#181818;stroke-width:0.5;" x1="114.93" x2="241.1116" y1="84.2969" y2="84.2969"/></g><!--class Sonido--><g id="elem_Sonido"><rect codeLine="5" fill="#F1F1F1" height="48" id="Sonido" rx="2.5" ry="2.5" style="stroke:#181818;stroke-width:0.5;" width="79.667" x="138.18" y="169.2969"/><ellipse cx="153.18" cy="185.2969" fill="#ADD1B2" rx="11" ry="11" style="stroke:#181818;stroke-width:1.0;"/><path d="M156.1488,190.9375 Q155.5706,191.2344 154.93,191.375 Q154.2894,191.5313 153.5863,191.5313 Q151.0863,191.5313 149.7581,189.8906 Q148.4456,188.2344 148.4456,185.1094 Q148.4456,181.9844 149.7581,180.3281 Q151.0863,178.6719 153.5863,178.6719 Q154.2894,178.6719 154.93,178.8281 Q155.5863,178.9844 156.1488,179.2813 L156.1488,182 Q155.5238,181.4219 154.93,181.1563 Q154.3363,180.875 153.7113,180.875 Q152.3675,180.875 151.68,181.9531 Q150.9925,183.0156 150.9925,185.1094 Q150.9925,187.2031 151.68,188.2813 Q152.3675,189.3438 153.7113,189.3438 Q154.3363,189.3438 154.93,189.0781 Q155.5238,188.7969 156.1488,188.2188 L156.1488,190.9375 Z " fill="#000000"/><text fill="#000000" font-family="sans-serif" font-size="14" lengthAdjust="spacing" textLength="47.667" x="167.18" y="190.1436">Sonido</text><line style="stroke:#181818;stroke-width:0.5;" x1="139.18" x2="216.847" y1="201.2969" y2="201.2969"/><line style="stroke:#181818;stroke-width:0.5;" x1="139.18" x2="216.847" y1="209.2969" y2="209.2969"/></g><!--class Superficie--><g id="elem_Superficie"><rect codeLine="7" fill="#F1F1F1" height="48" id="Superficie" rx="2.5" ry="2.5" style="stroke:#181818;stroke-width:0.5;" width="102.0342" x="7" y="294.2969"/><ellipse cx="22" cy="310.2969" fill="#ADD1B2" rx="11" ry="11" style="stroke:#181818;stroke-width:1.0;"/><path d="M24.9688,315.9375 Q24.3906,316.2344 23.75,316.375 Q23.1094,316.5313 22.4063,316.5313 Q19.9063,316.5313 18.5781,314.8906 Q17.2656,313.2344 17.2656,310.1094 Q17.2656,306.9844 18.5781,305.3281 Q19.9063,303.6719 22.4063,303.6719 Q23.1094,303.6719 23.75,303.8281 Q24.4063,303.9844 24.9688,304.2813 L24.9688,307 Q24.3438,306.4219 23.75,306.1563 Q23.1563,305.875 22.5313,305.875 Q21.1875,305.875 20.5,306.9531 Q19.8125,308.0156 19.8125,310.1094 Q19.8125,312.2031 20.5,313.2813 Q21.1875,314.3438 22.5313,314.3438 Q23.1563,314.3438 23.75,314.0781 Q24.3438,313.7969 24.9688,313.2188 L24.9688,315.9375 Z " fill="#000000"/><text fill="#000000" font-family="sans-serif" font-size="14" lengthAdjust="spacing" textLength="70.0342" x="36" y="315.1436">Superficie</text><line style="stroke:#181818;stroke-width:0.5;" x1="8" x2="108.0342" y1="326.2969" y2="326.2969"/><line style="stroke:#181818;stroke-width:0.5;" x1="8" x2="108.0342" y1="334.2969" y2="334.2969"/></g><!--class MedioDeTransmisi?n--><g id="elem_MedioDeTransmisi&#243;n"><rect codeLine="9" fill="#F1F1F1" height="48" id="MedioDeTransmisi&#243;n" rx="2.5" ry="2.5" style="stroke:#181818;stroke-width:0.5;" width="178.6309" x="143.7" y="294.2969"/><ellipse cx="158.7" cy="310.2969" fill="#ADD1B2" rx="11" ry="11" style="stroke:#181818;stroke-width:1.0;"/><path d="M161.6688,315.9375 Q161.0906,316.2344 160.45,316.375 Q159.8094,316.5313 159.1063,316.5313 Q156.6063,316.5313 155.2781,314.8906 Q153.9656,313.2344 153.9656,310.1094 Q153.9656,306.9844 155.2781,305.3281 Q156.6063,303.6719 159.1063,303.6719 Q159.8094,303.6719 160.45,303.8281 Q161.1063,303.9844 161.6688,304.2813 L161.6688,307 Q161.0438,306.4219 160.45,306.1563 Q159.8563,305.875 159.2313,305.875 Q157.8875,305.875 157.2,306.9531 Q156.5125,308.0156 156.5125,310.1094 Q156.5125,312.2031 157.2,313.2813 Q157.8875,314.3438 159.2313,314.3438 Q159.8563,314.3438 160.45,314.0781 Q161.0438,313.7969 161.6688,313.2188 L161.6688,315.9375 Z " fill="#000000"/><text fill="#000000" font-family="sans-serif" font-size="14" lengthAdjust="spacing" textLength="146.6309" x="172.7" y="315.1436">MedioDeTransmisi&#243;n</text><line style="stroke:#181818;stroke-width:0.5;" x1="144.7" x2="321.3309" y1="326.2969" y2="326.2969"/><line style="stroke:#181818;stroke-width:0.5;" x1="144.7" x2="321.3309" y1="334.2969" y2="334.2969"/></g><!--class Eco--><g id="elem_Eco"><rect codeLine="11" fill="#F1F1F1" height="48" id="Eco" rx="2.5" ry="2.5" style="stroke:#181818;stroke-width:0.5;" width="57.1084" x="29.46" y="419.2969"/><ellipse cx="44.46" cy="435.2969" fill="#ADD1B2" rx="11" ry="11" style="stroke:#181818;stroke-width:1.0;"/><path d="M47.4288,440.9375 Q46.8506,441.2344 46.21,441.375 Q45.5694,441.5313 44.8663,441.5313 Q42.3663,441.5313 41.0381,439.8906 Q39.7256,438.2344 39.7256,435.1094 Q39.7256,431.9844 41.0381,430.3281 Q42.3663,428.6719 44.8663,428.6719 Q45.5694,428.6719 46.21,428.8281 Q46.8663,428.9844 47.4288,429.2813 L47.4288,432 Q46.8038,431.4219 46.21,431.1563 Q45.6163,430.875 44.9913,430.875 Q43.6475,430.875 42.96,431.9531 Q42.2725,433.0156 42.2725,435.1094 Q42.2725,437.2031 42.96,438.2813 Q43.6475,439.3438 44.9913,439.3438 Q45.6163,439.3438 46.21,439.0781 Q46.8038,438.7969 47.4288,438.2188 L47.4288,440.9375 Z " fill="#000000"/><text fill="#000000" font-family="sans-serif" font-size="14" lengthAdjust="spacing" textLength="25.1084" x="58.46" y="440.1436">Eco</text><line style="stroke:#181818;stroke-width:0.5;" x1="30.46" x2="85.5684" y1="451.2969" y2="451.2969"/><line style="stroke:#181818;stroke-width:0.5;" x1="30.46" x2="85.5684" y1="459.2969" y2="459.2969"/></g><!--link FuenteSonido to Sonido--><g id="link_FuenteSonido_Sonido"><path codeLine="13" d="M178.02,92.7169 C178.02,114.6069 178.02,141.0969 178.02,162.9569 " fill="none" id="FuenteSonido-to-Sonido" style="stroke:#181818;stroke-width:1.0;"/><polygon fill="#181818" points="178.02,168.9569,182.02,159.9569,178.02,163.9569,174.02,159.9569,178.02,168.9569" style="stroke:#181818;stroke-width:1.0;"/><text fill="#000000" font-family="sans-serif" font-size="13" lengthAdjust="spacing" textLength="52.7744" x="179.02" y="135.3638">Produce</text></g><!--link Sonido to Superficie--><g id="link_Sonido_Superficie"><path codeLine="14" d="M154.95,217.7569 C145.92,226.9569 135.47,237.6069 126.02,247.2969 C110.87,262.8169 98.0489,276.0115 84.8289,289.6315 " fill="none" id="Sonido-to-Superficie" style="stroke:#181818;stroke-width:1.0;"/><polygon fill="#181818" points="80.65,293.9369,89.7887,290.2648,84.1325,290.349,84.0482,284.6928,80.65,293.9369" style="stroke:#181818;stroke-width:1.0;"/><text fill="#000000" font-family="sans-serif" font-size="13" lengthAdjust="spacing" textLength="66.6694" x="127.02" y="260.3638">Rebota en</text></g><!--link Sonido to MedioDeTransmisi?n--><g id="link_Sonido_MedioDeTransmisi&#243;n"><path codeLine="15" d="M188.49,217.7169 C198.28,239.6069 210.3618,266.6191 220.1318,288.4791 " fill="none" id="Sonido-to-MedioDeTransmisi&#243;n" style="stroke:#181818;stroke-width:1.0;"/><polygon fill="#181818" points="222.58,293.9569,222.5595,284.108,220.5398,289.392,215.2558,287.3723,222.58,293.9569" style="stroke:#181818;stroke-width:1.0;"/><text fill="#000000" font-family="sans-serif" font-size="13" lengthAdjust="spacing" textLength="57.7319" x="209.02" y="260.3638">Viaja por</text></g><!--link Superficie to Eco--><g id="link_Superficie_Eco"><path codeLine="16" d="M58.02,342.7169 C58.02,364.6069 58.02,391.0969 58.02,412.9569 " fill="none" id="Superficie-to-Eco" style="stroke:#181818;stroke-width:1.0;"/><polygon fill="#181818" points="58.02,418.9569,62.02,409.9569,58.02,413.9569,54.02,409.9569,58.02,418.9569" style="stroke:#181818;stroke-width:1.0;"/><text fill="#000000" font-family="sans-serif" font-size="13" lengthAdjust="spacing" textLength="52.7744" x="59.02" y="385.3638">Produce</text></g><!--SRC=[ROux3W8n34JxdCBQ2egz00NLGhSI0aGV4YCPPUrLFYVZ25oCi90eI7IUcQSPHueEOHIBJi0Y338Hq_jqi3C2go1CLjPA6QT3W7r2ZdXQpE9z55IPPlGtCeJ56T6I37ZsciD4WPuFBb7UKAejXRxVVXitq1sys6ImKsrO-pDmnAj43SW_o9_1p5v8tpNCuZDREnO-Vz6ClG00]--></g></svg>