<svg xmlns="http://www.w3.org/2000/svg" xmlns:xlink="http://www.w3.org/1999/xlink" contentStyleType="text/css" height="704px" preserveAspectRatio="none" style="width:768px;height:704px;background:#FFFFFF;" version="1.1" viewBox="0 0 768 704" width="768px" zoomAndPan="magnify"><title>Diagrama de Estados del Eco (sonido)</title><defs/><g><text fill="#000000" font-family="sans-serif" font-size="14" font-weight="bold" lengthAdjust="spacing" textLength="299.1201" x="227.4693" y="22.9951">Diagrama de Estados del Eco (sonido)</text><ellipse cx="488.96" cy="53.2969" fill="#222222" rx="10" ry="10" style="stroke:#222222;stroke-width:1.0;"/><g id="EstadoSilencio"><rect fill="#F1F1F1" height="50" rx="12.5" ry="12.5" style="stroke:#181818;stroke-width:0.5;" width="121.9648" x="427.98" y="140.2969"/><line style="stroke:#181818;stroke-width:0.5;" x1="427.98" x2="549.9448" y1="166.5938" y2="166.5938"/><text fill="#000000" font-family="sans-serif" font-size="14" lengthAdjust="spacing" textLength="101.9648" x="437.98" y="158.292">EstadoSilencio</text></g><g id="SonidoGenerado"><rect fill="#F1F1F1" height="50" rx="12.5" ry="12.5" style="stroke:#181818;stroke-width:0.5;" width="136.4023" x="233.76" y="267.2969"/><line style="stroke:#181818;stroke-width:0.5;" x1="233.76" x2="370.1623" y1="293.5938" y2="293.5938"/><text fill="#000000" font-family="sans-serif" font-size="14" lengthAdjust="spacing" textLength="116.4023" x="243.76" y="285.292">SonidoGenerado</text></g><g id="ViajeMedioTransmision"><rect fill="#F1F1F1" height="50" rx="12.5" ry="12.5" style="stroke:#181818;stroke-width:0.5;" width="181.7861" x="227.07" y="394.2969"/><line style="stroke:#181818;stroke-width:0.5;" x1="227.07" x2="408.8561" y1="420.5938" y2="420.5938"/><text fill="#000000" font-family="sans-serif" font-size="14" lengthAdjust="spacing" textLength="161.7861" x="237.07" y="412.292">ViajeMedioTransmision</text></g><g id="ReboteSuperficie"><rect fill="#F1F1F1" height="50" rx="12.5" ry="12.5" style="stroke:#181818;stroke-width:0.5;" width="139.9297" x="7" y="521.2969"/><line style="stroke:#181818;stroke-width:0.5;" x1="7" x2="146.9297" y1="547.5938" y2="547.5938"/><text fill="#000000" font-family="sans-serif" font-size="14" lengthAdjust="spacing" textLength="119.9297" x="17" y="539.292">ReboteSuperficie</text></g><g id="EcoGenerado"><rect fill="#F1F1F1" height="50" rx="12.5" ry="12.5" style="stroke:#181818;stroke-width:0.5;" width="113.8438" x="280.04" y="648.2969"/><line style="stroke:#181818;stroke-width:0.5;" x1="280.04" x2="393.8838" y1="674.5938" y2="674.5938"/><text fill="#000000" font-family="sans-serif" font-size="14" lengthAdjust="spacing" textLength="93.8438" x="290.04" y="666.292">EcoGenerado</text></g><!--link *start* to EstadoSilencio--><g id="link_*start*_EstadoSilencio"><path d="M488.96,63.6769 C488.96,80.4069 488.96,109.8869 488.96,133.9269 " fill="none" id="*start*-to-EstadoSilencio" style="stroke:#181818;stroke-width:1.0;"/><polygon fill="#181818" points="488.96,139.9269,492.96,130.9269,488.96,134.9269,484.96,130.9269,488.96,139.9269" style="stroke:#181818;stroke-width:1.0;"/><text fill="#000000" font-family="sans-serif" font-size="13" lengthAdjust="spacing" textLength="34.4106" x="489.96" y="106.3638">Inicia</text></g><!--link EstadoSilencio to SonidoGenerado--><g id="link_EstadoSilencio_SonidoGenerado"><path d="M427.59,167.1669 C386.42,171.2969 334.66,184.0769 305.96,220.2969 C295.69,233.2669 294.3895,246.1467 296.1295,261.1667 " fill="none" id="EstadoSilencio-to-SonidoGenerado" style="stroke:#181818;stroke-width:1.0;"/><polygon fill="#181818" points="296.82,267.1269,299.7577,257.7264,296.2446,262.1601,291.8109,258.647,296.82,267.1269" style="stroke:#181818;stroke-width:1.0;"/><text fill="#000000" font-family="sans-serif" font-size="13" lengthAdjust="spacing" textLength="155.9619" x="306.96" y="233.3638">Fuente de sonido activa</text></g><!--link SonidoGenerado to ViajeMedioTransmision--><g id="link_SonidoGenerado_ViajeMedioTransmision"><path d="M296.58,317.7969 C294.38,331.5669 292.97,348.9969 295.96,364.2969 C297.93,374.3269 299.3823,379.3524 303.3123,388.4124 " fill="none" id="SonidoGenerado-to-ViajeMedioTransmision" style="stroke:#181818;stroke-width:1.0;"/><polygon fill="#181818" points="305.7,393.9169,305.7881,384.0684,303.7103,389.3298,298.4488,387.252,305.7,393.9169" style="stroke:#181818;stroke-width:1.0;"/><text fill="#000000" font-family="sans-serif" font-size="13" lengthAdjust="spacing" textLength="165.2803" x="296.96" y="360.3638">Sonido viaja por el medio</text></g><!--link ViajeMedioTransmision to ReboteSuperficie--><g id="link_ViajeMedioTransmision_ReboteSuperficie"><path d="M226.63,426.7069 C158.63,433.6069 73.92,447.4369 51.96,474.2969 C41.05,487.6569 44.831,501.0471 54.161,515.7871 " fill="none" id="ViajeMedioTransmision-to-ReboteSuperficie" style="stroke:#181818;stroke-width:1.0;"/><polygon fill="#181818" points="57.37,520.8569,55.9363,511.1129,54.6958,516.6321,49.1767,515.3916,57.37,520.8569" style="stroke:#181818;stroke-width:1.0;"/><text fill="#000000" font-family="sans-serif" font-size="13" lengthAdjust="spacing" textLength="257.3022" x="52.96" y="487.3638">Sonido se encuentra con una superficie</text></g><!--link ReboteSuperficie to EcoGenerado--><g id="link_ReboteSuperficie_EcoGenerado"><path d="M92.63,571.6869 C103.78,587.1869 120.1,606.4869 138.96,618.2969 C181.84,645.1569 232.1498,657.8616 273.7298,664.7116 " fill="none" id="ReboteSuperficie-to-EcoGenerado" style="stroke:#181818;stroke-width:1.0;"/><polygon fill="#181818" points="279.65,665.6869,271.4199,660.2771,274.7165,664.8741,270.1195,668.1707,279.65,665.6869" style="stroke:#181818;stroke-width:1.0;"/><text fill="#000000" font-family="sans-serif" font-size="13" lengthAdjust="spacing" textLength="170.1934" x="139.96" y="614.3638">Superficie produce un eco</text></g><!--link EcoGenerado to EstadoSilencio--><g id="link_EcoGenerado_EstadoSilencio"><path d="M394.3,671.2469 C476.22,666.3669 616.96,643.9169 616.96,547.2969 C616.96,291.2969 616.96,291.2969 616.96,291.2969 C616.96,245.9469 580.4989,214.7136 544.7189,193.6236 " fill="none" id="EcoGenerado-to-EstadoSilencio" style="stroke:#181818;stroke-width:1.0;"/><polygon fill="#181818" points="539.55,190.5769,545.2722,198.5929,543.8574,193.1158,549.3345,191.701,539.55,190.5769" style="stroke:#181818;stroke-width:1.0;"/><text fill="#000000" font-family="sans-serif" font-size="13" lengthAdjust="spacing" textLength="142.0986" x="617.96" y="423.8638">Sonido y eco finalizan</text></g><!--link EcoGenerado to ViajeMedioTransmision--><g id="link_EcoGenerado_ViajeMedioTransmision"><path d="M335.12,647.8369 C331.48,599.5469 323.8608,498.4899 320.2408,450.4399 " fill="none" id="EcoGenerado-to-ViajeMedioTransmision" style="stroke:#181818;stroke-width:1.0;"/><polygon fill="#181818" points="319.79,444.4569,316.4774,453.7319,320.1656,449.4427,324.4548,453.1309,319.79,444.4569" style="stroke:#181818;stroke-width:1.0;"/><text fill="#000000" font-family="sans-serif" font-size="13" lengthAdjust="spacing" textLength="225.1958" x="330.96" y="550.8638">El eco viaja de vuelta por el medio</text></g><!--link ViajeMedioTransmision to EstadoSilencio--><g id="link_ViajeMedioTransmision_EstadoSilencio"><path d="M409.23,402.7969 C431.21,394.7969 452.5,382.6769 466.96,364.2969 C506.97,313.4769 501.2204,237.1811 494.7004,196.5411 " fill="none" id="ViajeMedioTransmision-to-EstadoSilencio" style="stroke:#181818;stroke-width:1.0;"/><polygon fill="#181818" points="493.75,190.6169,491.2262,200.1369,494.542,195.5537,499.1252,198.8696,493.75,190.6169" style="stroke:#181818;stroke-width:1.0;"/><text fill="#000000" font-family="sans-serif" font-size="13" lengthAdjust="spacing" textLength="73.855" x="498.96" y="296.8638">Eco finaliza</text></g><!--SRC=[ZP2zJiGm48HxFyMMW7GlG455G1Gqv4I3A1Px3oroTYF_H8AdPvsS8BeS4ftb-MOydi8b4jmolYSS4091bmi6pNQCq7c5Ywp2GI-TUxbwXTtkvaZq74ayArp3Wx1dT2Vt3Urdxpq99PCClQiaXTexIooWBpoXEm6RzvdnWnufiEuJIXuuiuf5B2XC9YECci2A3WrpvnqjwudUj51VHqe7wqg_CPd0whPM2S4RNWKX_u1kuvmNyEi_hSGnQQYUB0J8grjpPvSxblXiD1nOCF8NoiRtrnHTd8tB5BRfL2cMVu-oQTEjIdm3]--></g></svg>