<svg xmlns="http://www.w3.org/2000/svg" xmlns:xlink="http://www.w3.org/1999/xlink" contentStyleType="text/css" height="647px" preserveAspectRatio="none" style="width:312px;height:647px;background:#FFFFFF;" version="1.1" viewBox="0 0 312 647" width="312px" zoomAndPan="magnify"><title>Modelo de Objetos del Eco (sonido)</title><defs/><g><text fill="#000000" font-family="sans-serif" font-size="14" font-weight="bold" lengthAdjust="spacing" textLength="279.1797" x="10" y="22.9951">Modelo de Objetos del Eco (sonido)</text><g id="elem_FuenteSonido"><rect fill="#F1F1F1" height="44.5938" style="stroke:#181818;stroke-width:0.5;" width="160.1484" x="103.0739" y="44.2969"/><text fill="#000000" font-family="sans-serif" font-size="14" lengthAdjust="spacing" textLength="96.1816" x="135.0573" y="59.292">FuenteSonido</text><line style="stroke:#181818;stroke-width:0.5;" x1="104.0739" x2="262.2223" y1="64.5938" y2="64.5938"/><ellipse cx="114.0739" cy="78.2422" fill="none" rx="3" ry="3" style="stroke:#038048;stroke-width:1.0;"/><text fill="#000000" font-family="sans-serif" font-size="14" lengthAdjust="spacing" textLength="134.1484" x="123.0739" y="81.5889">nombre: "Guitarra"</text></g><g id="elem_Sonido"><rect fill="#F1F1F1" height="60.8906" style="stroke:#181818;stroke-width:0.5;" width="153.2852" x="106.5039" y="165.8969"/><text fill="#000000" font-family="sans-serif" font-size="14" lengthAdjust="spacing" textLength="47.667" x="159.313" y="180.892">Sonido</text><line style="stroke:#181818;stroke-width:0.5;" x1="107.5039" x2="258.789" y1="186.1937" y2="186.1937"/><ellipse cx="117.5039" cy="199.8422" fill="none" rx="3" ry="3" style="stroke:#038048;stroke-width:1.0;"/><text fill="#000000" font-family="sans-serif" font-size="14" lengthAdjust="spacing" textLength="127.2852" x="126.5039" y="203.1889">frecuencia: 440Hz</text><ellipse cx="117.5039" cy="216.1391" fill="none" rx="3" ry="3" style="stroke:#038048;stroke-width:1.0;"/><text fill="#000000" font-family="sans-serif" font-size="14" lengthAdjust="spacing" textLength="86.4883" x="126.5039" y="219.4857">duracion: 2s</text></g><g id="elem_Superficie"><rect fill="#F1F1F1" height="60.8906" style="stroke:#181818;stroke-width:0.5;" width="199.6875" x="7.3039" y="303.7869"/><text fill="#000000" font-family="sans-serif" font-size="14" lengthAdjust="spacing" textLength="70.0342" x="72.1305" y="318.782">Superficie</text><line style="stroke:#181818;stroke-width:0.5;" x1="8.3039" x2="205.9914" y1="324.0837" y2="324.0837"/><ellipse cx="18.3039" cy="337.7322" fill="none" rx="3" ry="3" style="stroke:#038048;stroke-width:1.0;"/><text fill="#000000" font-family="sans-serif" font-size="14" lengthAdjust="spacing" textLength="109.915" x="27.3039" y="341.0789">tipo: "Monta&#241;a"</text><ellipse cx="18.3039" cy="354.0291" fill="none" rx="3" ry="3" style="stroke:#038048;stroke-width:1.0;"/><text fill="#000000" font-family="sans-serif" font-size="14" lengthAdjust="spacing" textLength="173.6875" x="27.3039" y="357.3757">coeficienteReflexion: 0.8</text></g><g id="elem_MedioDeTransmision"><rect fill="#F1F1F1" height="60.8906" style="stroke:#181818;stroke-width:0.5;" width="160.6309" x="116.8339" y="579.5669"/><text fill="#000000" font-family="sans-serif" font-size="14" lengthAdjust="spacing" textLength="146.6309" x="123.8339" y="594.562">MedioDeTransmision</text><line style="stroke:#181818;stroke-width:0.5;" x1="117.8339" x2="276.4647" y1="599.8638" y2="599.8638"/><ellipse cx="127.8339" cy="613.5122" fill="none" rx="3" ry="3" style="stroke:#038048;stroke-width:1.0;"/><text fill="#000000" font-family="sans-serif" font-size="14" lengthAdjust="spacing" textLength="104.2139" x="136.8339" y="616.8589">nombre: "Aire"</text><ellipse cx="127.8339" cy="629.8091" fill="none" rx="3" ry="3" style="stroke:#038048;stroke-width:1.0;"/><text fill="#000000" font-family="sans-serif" font-size="14" lengthAdjust="spacing" textLength="128.8301" x="136.8339" y="633.1557">velocidad: 343m/s</text></g><g id="elem_Eco"><rect fill="#F1F1F1" height="60.8906" style="stroke:#181818;stroke-width:0.5;" width="130.7061" x="67.7939" y="441.6769"/><text fill="#000000" font-family="sans-serif" font-size="14" lengthAdjust="spacing" textLength="25.1084" x="120.5927" y="456.672">Eco</text><line style="stroke:#181818;stroke-width:0.5;" x1="68.7939" x2="197.4999" y1="461.9738" y2="461.9738"/><ellipse cx="78.7939" cy="475.6222" fill="none" rx="3" ry="3" style="stroke:#038048;stroke-width:1.0;"/><text fill="#000000" font-family="sans-serif" font-size="14" lengthAdjust="spacing" textLength="104.7061" x="87.7939" y="478.9689">intensidad: 0.5</text><ellipse cx="78.7939" cy="491.9191" fill="none" rx="3" ry="3" style="stroke:#038048;stroke-width:1.0;"/><text fill="#000000" font-family="sans-serif" font-size="14" lengthAdjust="spacing" textLength="88.7783" x="87.7939" y="495.2657">retraso: 2.5s</text></g><!--link FuenteSonido to Sonido--><g id="link_FuenteSonido_Sonido"><path codeLine="27" d="M183.1439,89.2669 C183.1439,110.1969 183.1439,136.0669 183.1439,159.4069 " fill="none" id="FuenteSonido-to-Sonido" style="stroke:#181818;stroke-width:1.0;"/><polygon fill="#181818" points="183.1439,165.4069,187.1439,156.4069,183.1439,160.4069,179.1439,156.4069,183.1439,165.4069" style="stroke:#181818;stroke-width:1.0;"/><text fill="#000000" font-family="sans-serif" font-size="13" lengthAdjust="spacing" textLength="52.7744" x="184.1439" y="131.9638">Produce</text></g><!--link Sonido to MedioDeTransmision--><g id="link_Sonido_MedioDeTransmision"><path codeLine="28" d="M209.8639,227.1669 C216.3739,236.0969 222.5039,246.3169 226.1439,256.7869 C266.4639,372.6569 235.4839,409.9069 238.1439,532.5669 C238.3139,540.1169 240.3939,542.3569 238.1439,549.5669 C234.9039,559.9769 232.5595,565.2509 226.3495,574.1809 " fill="none" id="Sonido-to-MedioDeTransmision" style="stroke:#181818;stroke-width:1.0;"/><polygon fill="#181818" points="222.9239,579.1069,231.3462,574.0016,225.7785,575.0019,224.7782,569.4342,222.9239,579.1069" style="stroke:#181818;stroke-width:1.0;"/><text fill="#000000" font-family="sans-serif" font-size="13" lengthAdjust="spacing" textLength="57.7319" x="247.1439" y="407.7438">Viaja por</text></g><!--link Sonido to Superficie--><g id="link_Sonido_Superficie"><path codeLine="29" d="M166.4739,227.1569 C153.7939,249.8169 139.384,275.601 126.714,298.241 " fill="none" id="Sonido-to-Superficie" style="stroke:#181818;stroke-width:1.0;"/><polygon fill="#181818" points="123.7839,303.4769,131.6697,297.5765,126.2257,299.1137,124.6885,293.6697,123.7839,303.4769" style="stroke:#181818;stroke-width:1.0;"/><text fill="#000000" font-family="sans-serif" font-size="13" lengthAdjust="spacing" textLength="66.6694" x="151.1439" y="269.8538">Rebota en</text></g><!--link Superficie to Eco--><g id="link_Superficie_Eco"><path codeLine="30" d="M112.8539,365.0569 C117.1839,387.7069 121.9968,412.8337 126.3268,435.4737 " fill="none" id="Superficie-to-Eco" style="stroke:#181818;stroke-width:1.0;"/><polygon fill="#181818" points="127.4539,441.3669,129.692,431.7757,126.5146,436.4559,121.8344,433.2785,127.4539,441.3669" style="stroke:#181818;stroke-width:1.0;"/><text fill="#000000" font-family="sans-serif" font-size="13" lengthAdjust="spacing" textLength="47.6201" x="123.1439" y="407.7438">Genera</text></g><!--link Eco to MedioDeTransmision--><g id="link_Eco_MedioDeTransmision"><path codeLine="31" d="M136.0539,502.8469 C138.2939,517.4469 142.2339,534.9869 149.1439,549.5669 C154.0939,559.9969 157.4421,565.5388 164.6921,574.4688 " fill="none" id="Eco-to-MedioDeTransmision" style="stroke:#181818;stroke-width:1.0;"/><polygon fill="#181818" points="168.4739,579.1269,165.9066,569.6185,165.3224,575.2451,159.6958,574.6609,168.4739,579.1269" style="stroke:#181818;stroke-width:1.0;"/><text fill="#000000" font-family="sans-serif" font-size="13" lengthAdjust="spacing" textLength="83.9795" x="150.1439" y="545.6338">Eco viaja por</text></g><!--SRC=[TP7TIiD048NlynH3hnHf36qAaWj1yEycA5Myt-nEO4go4tOtHHGVocVmnPpTIfigtYqptvbpE1ieT0Wr6-mO3C93iy70NfuTt6Y64y-M39zc6Sj61xWTqGPyIbDupm3EBFUDmmfcToC5vPoQPHzxV0gs3hMeDQaAohAuVuj3CpgbYMq52p_LZGEwbZJXJXjeOB6esGRrzIaMCjECYP0yQsmxV4rdYlnYSgT6GtoDpqvPtvCNubVeAtAOhcsb0Kr6cGgMvR8_dwQ9JIGPYPVrEwh8Lt7aC3Zb9TmYNoNDKKFp-ULF1-BrwDYCMkmcoxy11NmXjL4mi3j23vq8iiQ6WmAqWXowYfY4ZP-15kDNnEZ_-iJbTk_r3G00]--></g></svg>