<svg xmlns="http://www.w3.org/2000/svg" xmlns:xlink="http://www.w3.org/1999/xlink" contentStyleType="text/css" height="421px" preserveAspectRatio="none" style="width:712px;height:421px;background:#FFFFFF;" version="1.1" viewBox="0 0 712 421" width="712px" zoomAndPan="magnify"><defs/><g><g id="elem_FuenteDeSonido"><rect fill="#F1F1F1" height="60.8906" style="stroke:#181818;stroke-width:0.5;" width="253.5684" x="7" y="7"/><text fill="#000000" font-family="sans-serif" font-size="14" lengthAdjust="spacing" textLength="115.5752" x="75.9966" y="21.9951">FuenteDeSonido</text><line style="stroke:#181818;stroke-width:0.5;" x1="8" x2="259.5684" y1="27.2969" y2="27.2969"/><text fill="#000000" font-family="sans-serif" font-size="14" lengthAdjust="spacing" textLength="122.3906" x="13" y="44.292">nombre = "Grito"</text><text fill="#000000" font-family="sans-serif" font-size="14" lengthAdjust="spacing" textLength="241.5684" x="13" y="60.5889">generarSonido() = "Sonido fuerte"</text></g><g id="elem_Medio"><rect fill="#F1F1F1" height="60.8906" style="stroke:#181818;stroke-width:0.5;" width="224.8164" x="125.38" y="127.89"/><text fill="#000000" font-family="sans-serif" font-size="14" lengthAdjust="spacing" textLength="42.0342" x="216.7711" y="142.8851">Medio</text><line style="stroke:#181818;stroke-width:0.5;" x1="126.38" x2="349.1964" y1="148.1869" y2="148.1869"/><text fill="#000000" font-family="sans-serif" font-size="14" lengthAdjust="spacing" textLength="105.3486" x="131.38" y="165.182">tipo = "Viento"</text><text fill="#000000" font-family="sans-serif" font-size="14" lengthAdjust="spacing" textLength="212.8164" x="131.38" y="181.4789">propagarSonido() = "330 m/s"</text></g><g id="elem_SuperficieReflectora"><rect fill="#F1F1F1" height="44.5938" style="stroke:#181818;stroke-width:0.5;" width="155.8936" x="159.84" y="248.79"/><text fill="#000000" font-family="sans-serif" font-size="14" lengthAdjust="spacing" textLength="141.8936" x="166.84" y="263.7851">SuperficieReflectora</text><line style="stroke:#181818;stroke-width:0.5;" x1="160.84" x2="314.7336" y1="269.0869" y2="269.0869"/><text fill="#000000" font-family="sans-serif" font-size="14" lengthAdjust="spacing" textLength="142.5361" x="165.84" y="286.082">material = "Edificio"</text></g><g id="elem_Receptor"><rect fill="#F1F1F1" height="44.5938" style="stroke:#181818;stroke-width:0.5;" width="229.5469" x="351.01" y="248.79"/><text fill="#000000" font-family="sans-serif" font-size="14" lengthAdjust="spacing" textLength="63.3486" x="434.1091" y="263.7851">Receptor</text><line style="stroke:#181818;stroke-width:0.5;" x1="352.01" x2="579.5569" y1="269.0869" y2="269.0869"/><text fill="#000000" font-family="sans-serif" font-size="14" lengthAdjust="spacing" textLength="217.5469" x="357.01" y="286.082">percibirEco() = "Eco percibido"</text></g><g id="elem_Eco"><rect fill="#F1F1F1" height="60.8906" style="stroke:#181818;stroke-width:0.5;" width="128.1699" x="498.7" y="353.38"/><text fill="#000000" font-family="sans-serif" font-size="14" lengthAdjust="spacing" textLength="25.1084" x="550.2308" y="368.3751">Eco</text><line style="stroke:#181818;stroke-width:0.5;" x1="499.7" x2="625.8699" y1="373.6769" y2="373.6769"/><text fill="#000000" font-family="sans-serif" font-size="14" lengthAdjust="spacing" textLength="104.0156" x="504.7" y="390.672">duracion = 1.5</text><text fill="#000000" font-family="sans-serif" font-size="14" lengthAdjust="spacing" textLength="116.1699" x="504.7" y="406.9689">intensidad = 0.6</text></g><g id="elem_Distancia"><rect fill="#F1F1F1" height="44.5938" style="stroke:#181818;stroke-width:0.5;" width="94.4277" x="295.57" y="15.15"/><text fill="#000000" font-family="sans-serif" font-size="14" lengthAdjust="spacing" textLength="65.0713" x="310.2482" y="30.1451">Distancia</text><line style="stroke:#181818;stroke-width:0.5;" x1="296.57" x2="388.9977" y1="35.4469" y2="35.4469"/><text fill="#000000" font-family="sans-serif" font-size="14" lengthAdjust="spacing" textLength="82.4277" x="301.57" y="52.442">valor = 200</text></g><g id="elem_Tiempo"><rect fill="#F1F1F1" height="44.5938" style="stroke:#181818;stroke-width:0.5;" width="89.9707" x="615.8" y="248.79"/><text fill="#000000" font-family="sans-serif" font-size="14" lengthAdjust="spacing" textLength="52.1445" x="634.7131" y="263.7851">Tiempo</text><line style="stroke:#181818;stroke-width:0.5;" x1="616.8" x2="704.7707" y1="269.0869" y2="269.0869"/><text fill="#000000" font-family="sans-serif" font-size="14" lengthAdjust="spacing" textLength="77.9707" x="621.8" y="286.082">valor = 1.5</text></g><!--link FuenteDeSonido to Medio--><g id="link_FuenteDeSonido_Medio"><path codeLine="32" d="M159.76,68.14 C175.64,86.3 191.939,104.9345 207.829,123.0945 " fill="none" id="FuenteDeSonido-to-Medio" style="stroke:#181818;stroke-width:1.0;"/><polygon fill="#181818" points="211.78,127.61,208.8638,118.2028,208.4875,123.8471,202.8432,123.4708,211.78,127.61" style="stroke:#181818;stroke-width:1.0;"/></g><!--link Medio to SuperficieReflectora--><g id="link_Medio_SuperficieReflectora"><path codeLine="33" d="M226.34,189.02 C224.29,207.73 223.6823,225.5386 226.4523,242.4886 " fill="none" id="Medio-to-SuperficieReflectora" style="stroke:#181818;stroke-width:1.0;"/><polygon fill="#181818" points="227.42,248.41,229.9161,238.8827,226.6136,243.4755,222.0208,240.173,227.42,248.41" style="stroke:#181818;stroke-width:1.0;"/></g><!--link SuperficieReflectora to Medio--><g id="link_SuperficieReflectora_Medio"><path codeLine="34" d="M248.76,248.41 C251.69,231.46 252.7613,213.69 250.5913,194.98 " fill="none" id="SuperficieReflectora-to-Medio" style="stroke:#181818;stroke-width:1.0;"/><polygon fill="#181818" points="249.9,189.02,246.9635,198.4209,250.476,193.9867,254.9102,197.4992,249.9,189.02" style="stroke:#181818;stroke-width:1.0;"/></g><!--link Medio to Receptor--><g id="link_Medio_Receptor"><path codeLine="35" d="M299.18,189.16 C337.57,207.81 380.7431,228.7784 415.5131,245.6684 " fill="none" id="Medio-to-Receptor" style="stroke:#181818;stroke-width:1.0;"/><polygon fill="#181818" points="420.91,248.29,414.5623,240.7596,416.4125,246.1053,411.0668,247.9555,420.91,248.29" style="stroke:#181818;stroke-width:1.0;"/></g><!--link Receptor to Eco--><g id="link_Receptor_Eco"><path codeLine="36" d="M484.72,293.7 C499.49,310.57 516.2368,329.6865 532.6068,348.3765 " fill="none" id="Receptor-to-Eco" style="stroke:#181818;stroke-width:1.0;"/><polygon fill="#181818" points="536.56,352.89,533.6391,343.4842,533.2656,349.1287,527.6211,348.7552,536.56,352.89" style="stroke:#181818;stroke-width:1.0;"/></g><!--link Distancia to Medio--><g id="link_Distancia_Medio"><path codeLine="37" d="M323.77,59.98 C307.1,78.85 286.6822,101.9732 268.1322,122.9732 " fill="none" id="Distancia-to-Medio" style="stroke:#181818;stroke-width:1.0;"/><polygon fill="#181818" points="264.16,127.47,273.1162,123.3729,267.4702,123.7226,267.1204,118.0766,264.16,127.47" style="stroke:#181818;stroke-width:1.0;"/></g><!--link Tiempo to Eco--><g id="link_Tiempo_Eco"><path codeLine="38" d="M641.66,293.7 C626.73,310.57 609.7963,329.7068 593.2563,348.3968 " fill="none" id="Tiempo-to-Eco" style="stroke:#181818;stroke-width:1.0;"/><polygon fill="#181818" points="589.28,352.89,598.24,348.8011,592.5936,349.1457,592.249,343.4993,589.28,352.89" style="stroke:#181818;stroke-width:1.0;"/></g><!--SRC=[RP4nRy8m48Lt_mehKpj0qw9sWmdAn09LTyU-eAiIdtLnkbJzxpqJfmIKJCdpzzwTNwZw0XlrUmy-mXPEvD6H_b5Q7azjnQ3NkjWpHYekuXayiE41V7XCfzbKzy0H2lMh50sf1t0uXaKCbE1Fb4avAp05SxuDMwrAtJvrqvXJ7u1hj0X7g1jHY4rERKq4HjCavyvXWcXgFOA587p69STYXRopUPgyZAAxCQQ3mUDwDfBg1NzUlbuabAvyXyuu4SlbsyItnIuQRt5SyDiqCdsjNyfoGdqWj87ka9GkoDslM2msGuzgQ3DzpnMYPbkQSu-TgFzoaYeNLjVbhxwyQaR-0000]--></g></svg>