<svg xmlns="http://www.w3.org/2000/svg" xmlns:xlink="http://www.w3.org/1999/xlink" contentStyleType="text/css" height="760px" preserveAspectRatio="none" style="width:313px;height:760px;background:#FFFFFF;" version="1.1" viewBox="0 0 313 760" width="313px" zoomAndPan="magnify"><defs/><g><!--cluster Liga--><g id="cluster_Liga"><path d="M8.5,6 L42.6885,6 A3.75,3.75 0 0 1 45.1885,8.5 L52.1885,28.2969 L303.5,28.2969 A2.5,2.5 0 0 1 306,30.7969 L306,750.5 A2.5,2.5 0 0 1 303.5,753 L8.5,753 A2.5,2.5 0 0 1 6,750.5 L6,8.5 A2.5,2.5 0 0 1 8.5,6 " fill="none" style="stroke:#000000;stroke-width:1.5;"/><line style="stroke:#000000;stroke-width:1.5;" x1="6" x2="52.1885" y1="28.2969" y2="28.2969"/><text fill="#000000" font-family="sans-serif" font-size="14" font-weight="bold" lengthAdjust="spacing" textLength="33.1885" x="10" y="20.9951">Liga</text></g><!--class Estadio--><g id="elem_Estadio"><rect fill="#F1F1F1" height="48" id="Estadio" rx="2.5" ry="2.5" style="stroke:#181818;stroke-width:0.5;" width="83.5498" x="188" y="41"/><ellipse cx="203" cy="57" fill="#ADD1B2" rx="11" ry="11" style="stroke:#181818;stroke-width:1.0;"/><path d="M205.9688,62.6406 Q205.3906,62.9375 204.75,63.0781 Q204.1094,63.2344 203.4063,63.2344 Q200.9063,63.2344 199.5781,61.5938 Q198.2656,59.9375 198.2656,56.8125 Q198.2656,53.6875 199.5781,52.0313 Q200.9063,50.375 203.4063,50.375 Q204.1094,50.375 204.75,50.5313 Q205.4063,50.6875 205.9688,50.9844 L205.9688,53.7031 Q205.3438,53.125 204.75,52.8594 Q204.1563,52.5781 203.5313,52.5781 Q202.1875,52.5781 201.5,53.6563 Q200.8125,54.7188 200.8125,56.8125 Q200.8125,58.9063 201.5,59.9844 Q202.1875,61.0469 203.5313,61.0469 Q204.1563,61.0469 204.75,60.7813 Q205.3438,60.5 205.9688,59.9219 L205.9688,62.6406 Z " fill="#000000"/><text fill="#000000" font-family="sans-serif" font-size="14" lengthAdjust="spacing" textLength="51.5498" x="217" y="61.8467">Estadio</text><line style="stroke:#181818;stroke-width:0.5;" x1="189" x2="270.5498" y1="73" y2="73"/><line style="stroke:#181818;stroke-width:0.5;" x1="189" x2="270.5498" y1="81" y2="81"/></g><!--class Jornada--><g id="elem_Jornada"><rect fill="#F1F1F1" height="48" id="Jornada" rx="2.5" ry="2.5" style="stroke:#181818;stroke-width:0.5;" width="85.3682" x="142.5" y="149"/><ellipse cx="157.5" cy="165" fill="#ADD1B2" rx="11" ry="11" style="stroke:#181818;stroke-width:1.0;"/><path d="M160.4688,170.6406 Q159.8906,170.9375 159.25,171.0781 Q158.6094,171.2344 157.9063,171.2344 Q155.4063,171.2344 154.0781,169.5938 Q152.7656,167.9375 152.7656,164.8125 Q152.7656,161.6875 154.0781,160.0313 Q155.4063,158.375 157.9063,158.375 Q158.6094,158.375 159.25,158.5313 Q159.9063,158.6875 160.4688,158.9844 L160.4688,161.7031 Q159.8438,161.125 159.25,160.8594 Q158.6563,160.5781 158.0313,160.5781 Q156.6875,160.5781 156,161.6563 Q155.3125,162.7188 155.3125,164.8125 Q155.3125,166.9063 156,167.9844 Q156.6875,169.0469 158.0313,169.0469 Q158.6563,169.0469 159.25,168.7813 Q159.8438,168.5 160.4688,167.9219 L160.4688,170.6406 Z " fill="#000000"/><text fill="#000000" font-family="sans-serif" font-size="14" lengthAdjust="spacing" textLength="53.3682" x="171.5" y="169.8467">Jornada</text><line style="stroke:#181818;stroke-width:0.5;" x1="143.5" x2="226.8682" y1="181" y2="181"/><line style="stroke:#181818;stroke-width:0.5;" x1="143.5" x2="226.8682" y1="189" y2="189"/></g><!--class Arbitro--><g id="elem_Arbitro"><rect fill="#F1F1F1" height="48" id="Arbitro" rx="2.5" ry="2.5" style="stroke:#181818;stroke-width:0.5;" width="79.9199" x="27" y="257"/><ellipse cx="42" cy="273" fill="#ADD1B2" rx="11" ry="11" style="stroke:#181818;stroke-width:1.0;"/><path d="M44.9688,278.6406 Q44.3906,278.9375 43.75,279.0781 Q43.1094,279.2344 42.4063,279.2344 Q39.9063,279.2344 38.5781,277.5938 Q37.2656,275.9375 37.2656,272.8125 Q37.2656,269.6875 38.5781,268.0313 Q39.9063,266.375 42.4063,266.375 Q43.1094,266.375 43.75,266.5313 Q44.4063,266.6875 44.9688,266.9844 L44.9688,269.7031 Q44.3438,269.125 43.75,268.8594 Q43.1563,268.5781 42.5313,268.5781 Q41.1875,268.5781 40.5,269.6563 Q39.8125,270.7188 39.8125,272.8125 Q39.8125,274.9063 40.5,275.9844 Q41.1875,277.0469 42.5313,277.0469 Q43.1563,277.0469 43.75,276.7813 Q44.3438,276.5 44.9688,275.9219 L44.9688,278.6406 Z " fill="#000000"/><text fill="#000000" font-family="sans-serif" font-size="14" lengthAdjust="spacing" textLength="47.9199" x="56" y="277.8467">Arbitro</text><line style="stroke:#181818;stroke-width:0.5;" x1="28" x2="105.9199" y1="289" y2="289"/><line style="stroke:#181818;stroke-width:0.5;" x1="28" x2="105.9199" y1="297" y2="297"/></g><!--class Reglas--><g id="elem_Reglas"><rect fill="#F1F1F1" height="48" id="Reglas" rx="2.5" ry="2.5" style="stroke:#181818;stroke-width:0.5;" width="78.9902" x="21.5" y="365"/><ellipse cx="36.5" cy="381" fill="#ADD1B2" rx="11" ry="11" style="stroke:#181818;stroke-width:1.0;"/><path d="M39.4688,386.6406 Q38.8906,386.9375 38.25,387.0781 Q37.6094,387.2344 36.9063,387.2344 Q34.4063,387.2344 33.0781,385.5938 Q31.7656,383.9375 31.7656,380.8125 Q31.7656,377.6875 33.0781,376.0313 Q34.4063,374.375 36.9063,374.375 Q37.6094,374.375 38.25,374.5313 Q38.9063,374.6875 39.4688,374.9844 L39.4688,377.7031 Q38.8438,377.125 38.25,376.8594 Q37.6563,376.5781 37.0313,376.5781 Q35.6875,376.5781 35,377.6563 Q34.3125,378.7188 34.3125,380.8125 Q34.3125,382.9063 35,383.9844 Q35.6875,385.0469 37.0313,385.0469 Q37.6563,385.0469 38.25,384.7813 Q38.8438,384.5 39.4688,383.9219 L39.4688,386.6406 Z " fill="#000000"/><text fill="#000000" font-family="sans-serif" font-size="14" lengthAdjust="spacing" textLength="46.9902" x="50.5" y="385.8467">Reglas</text><line style="stroke:#181818;stroke-width:0.5;" x1="22.5" x2="99.4902" y1="397" y2="397"/><line style="stroke:#181818;stroke-width:0.5;" x1="22.5" x2="99.4902" y1="405" y2="405"/></g><!--class Equipo--><g id="elem_Equipo"><rect fill="#F1F1F1" height="48" id="Equipo" rx="2.5" ry="2.5" style="stroke:#181818;stroke-width:0.5;" width="79.9473" x="97" y="473"/><ellipse cx="112" cy="489" fill="#ADD1B2" rx="11" ry="11" style="stroke:#181818;stroke-width:1.0;"/><path d="M114.9688,494.6406 Q114.3906,494.9375 113.75,495.0781 Q113.1094,495.2344 112.4063,495.2344 Q109.9063,495.2344 108.5781,493.5938 Q107.2656,491.9375 107.2656,488.8125 Q107.2656,485.6875 108.5781,484.0313 Q109.9063,482.375 112.4063,482.375 Q113.1094,482.375 113.75,482.5313 Q114.4063,482.6875 114.9688,482.9844 L114.9688,485.7031 Q114.3438,485.125 113.75,484.8594 Q113.1563,484.5781 112.5313,484.5781 Q111.1875,484.5781 110.5,485.6563 Q109.8125,486.7188 109.8125,488.8125 Q109.8125,490.9063 110.5,491.9844 Q111.1875,493.0469 112.5313,493.0469 Q113.1563,493.0469 113.75,492.7813 Q114.3438,492.5 114.9688,491.9219 L114.9688,494.6406 Z " fill="#000000"/><text fill="#000000" font-family="sans-serif" font-size="14" lengthAdjust="spacing" textLength="47.9473" x="126" y="493.8467">Equipo</text><line style="stroke:#181818;stroke-width:0.5;" x1="98" x2="175.9473" y1="505" y2="505"/><line style="stroke:#181818;stroke-width:0.5;" x1="98" x2="175.9473" y1="513" y2="513"/></g><!--class Entrenador--><g id="elem_Entrenador"><rect fill="#F1F1F1" height="48" id="Entrenador" rx="2.5" ry="2.5" style="stroke:#181818;stroke-width:0.5;" width="110.2373" x="180" y="581"/><ellipse cx="195" cy="597" fill="#ADD1B2" rx="11" ry="11" style="stroke:#181818;stroke-width:1.0;"/><path d="M197.9688,602.6406 Q197.3906,602.9375 196.75,603.0781 Q196.1094,603.2344 195.4063,603.2344 Q192.9063,603.2344 191.5781,601.5938 Q190.2656,599.9375 190.2656,596.8125 Q190.2656,593.6875 191.5781,592.0313 Q192.9063,590.375 195.4063,590.375 Q196.1094,590.375 196.75,590.5313 Q197.4063,590.6875 197.9688,590.9844 L197.9688,593.7031 Q197.3438,593.125 196.75,592.8594 Q196.1563,592.5781 195.5313,592.5781 Q194.1875,592.5781 193.5,593.6563 Q192.8125,594.7188 192.8125,596.8125 Q192.8125,598.9063 193.5,599.9844 Q194.1875,601.0469 195.5313,601.0469 Q196.1563,601.0469 196.75,600.7813 Q197.3438,600.5 197.9688,599.9219 L197.9688,602.6406 Z " fill="#000000"/><text fill="#000000" font-family="sans-serif" font-size="14" lengthAdjust="spacing" textLength="78.2373" x="209" y="601.8467">Entrenador</text><line style="stroke:#181818;stroke-width:0.5;" x1="181" x2="289.2373" y1="613" y2="613"/><line style="stroke:#181818;stroke-width:0.5;" x1="181" x2="289.2373" y1="621" y2="621"/></g><!--class Jugador--><g id="elem_Jugador"><rect fill="#F1F1F1" height="48" id="Jugador" rx="2.5" ry="2.5" style="stroke:#181818;stroke-width:0.5;" width="85.6758" x="59" y="581"/><ellipse cx="74" cy="597" fill="#ADD1B2" rx="11" ry="11" style="stroke:#181818;stroke-width:1.0;"/><path d="M76.9688,602.6406 Q76.3906,602.9375 75.75,603.0781 Q75.1094,603.2344 74.4063,603.2344 Q71.9063,603.2344 70.5781,601.5938 Q69.2656,599.9375 69.2656,596.8125 Q69.2656,593.6875 70.5781,592.0313 Q71.9063,590.375 74.4063,590.375 Q75.1094,590.375 75.75,590.5313 Q76.4063,590.6875 76.9688,590.9844 L76.9688,593.7031 Q76.3438,593.125 75.75,592.8594 Q75.1563,592.5781 74.5313,592.5781 Q73.1875,592.5781 72.5,593.6563 Q71.8125,594.7188 71.8125,596.8125 Q71.8125,598.9063 72.5,599.9844 Q73.1875,601.0469 74.5313,601.0469 Q75.1563,601.0469 75.75,600.7813 Q76.3438,600.5 76.9688,599.9219 L76.9688,602.6406 Z " fill="#000000"/><text fill="#000000" font-family="sans-serif" font-size="14" lengthAdjust="spacing" textLength="53.6758" x="88" y="601.8467">Jugador</text><line style="stroke:#181818;stroke-width:0.5;" x1="60" x2="143.6758" y1="613" y2="613"/><line style="stroke:#181818;stroke-width:0.5;" x1="60" x2="143.6758" y1="621" y2="621"/></g><!--class Partido--><g id="elem_Partido"><rect fill="#F1F1F1" height="48" id="Partido" rx="2.5" ry="2.5" style="stroke:#181818;stroke-width:0.5;" width="81.6084" x="144" y="257"/><ellipse cx="159" cy="273" fill="#ADD1B2" rx="11" ry="11" style="stroke:#181818;stroke-width:1.0;"/><path d="M161.9688,278.6406 Q161.3906,278.9375 160.75,279.0781 Q160.1094,279.2344 159.4063,279.2344 Q156.9063,279.2344 155.5781,277.5938 Q154.2656,275.9375 154.2656,272.8125 Q154.2656,269.6875 155.5781,268.0313 Q156.9063,266.375 159.4063,266.375 Q160.1094,266.375 160.75,266.5313 Q161.4063,266.6875 161.9688,266.9844 L161.9688,269.7031 Q161.3438,269.125 160.75,268.8594 Q160.1563,268.5781 159.5313,268.5781 Q158.1875,268.5781 157.5,269.6563 Q156.8125,270.7188 156.8125,272.8125 Q156.8125,274.9063 157.5,275.9844 Q158.1875,277.0469 159.5313,277.0469 Q160.1563,277.0469 160.75,276.7813 Q161.3438,276.5 161.9688,275.9219 L161.9688,278.6406 Z " fill="#000000"/><text fill="#000000" font-family="sans-serif" font-size="14" lengthAdjust="spacing" textLength="49.6084" x="173" y="277.8467">Partido</text><line style="stroke:#181818;stroke-width:0.5;" x1="145" x2="224.6084" y1="289" y2="289"/><line style="stroke:#181818;stroke-width:0.5;" x1="145" x2="224.6084" y1="297" y2="297"/></g><!--class Gol--><g id="elem_Gol"><rect fill="#F1F1F1" height="48" id="Gol" rx="2.5" ry="2.5" style="stroke:#181818;stroke-width:0.5;" width="55.3037" x="173.5" y="365"/><ellipse cx="188.5" cy="381" fill="#ADD1B2" rx="11" ry="11" style="stroke:#181818;stroke-width:1.0;"/><path d="M191.4688,386.6406 Q190.8906,386.9375 190.25,387.0781 Q189.6094,387.2344 188.9063,387.2344 Q186.4063,387.2344 185.0781,385.5938 Q183.7656,383.9375 183.7656,380.8125 Q183.7656,377.6875 185.0781,376.0313 Q186.4063,374.375 188.9063,374.375 Q189.6094,374.375 190.25,374.5313 Q190.9063,374.6875 191.4688,374.9844 L191.4688,377.7031 Q190.8438,377.125 190.25,376.8594 Q189.6563,376.5781 189.0313,376.5781 Q187.6875,376.5781 187,377.6563 Q186.3125,378.7188 186.3125,380.8125 Q186.3125,382.9063 187,383.9844 Q187.6875,385.0469 189.0313,385.0469 Q189.6563,385.0469 190.25,384.7813 Q190.8438,384.5 191.4688,383.9219 L191.4688,386.6406 Z " fill="#000000"/><text fill="#000000" font-family="sans-serif" font-size="14" lengthAdjust="spacing" textLength="23.3037" x="202.5" y="385.8467">Gol</text><line style="stroke:#181818;stroke-width:0.5;" x1="174.5" x2="227.8037" y1="397" y2="397"/><line style="stroke:#181818;stroke-width:0.5;" x1="174.5" x2="227.8037" y1="405" y2="405"/></g><!--class Tarjeta--><g id="elem_Tarjeta"><rect fill="#F1F1F1" height="48" id="Tarjeta" rx="2.5" ry="2.5" style="stroke:#181818;stroke-width:0.5;" width="81.458" x="41.5" y="689"/><ellipse cx="56.5" cy="705" fill="#ADD1B2" rx="11" ry="11" style="stroke:#181818;stroke-width:1.0;"/><path d="M59.4688,710.6406 Q58.8906,710.9375 58.25,711.0781 Q57.6094,711.2344 56.9063,711.2344 Q54.4063,711.2344 53.0781,709.5938 Q51.7656,707.9375 51.7656,704.8125 Q51.7656,701.6875 53.0781,700.0313 Q54.4063,698.375 56.9063,698.375 Q57.6094,698.375 58.25,698.5313 Q58.9063,698.6875 59.4688,698.9844 L59.4688,701.7031 Q58.8438,701.125 58.25,700.8594 Q57.6563,700.5781 57.0313,700.5781 Q55.6875,700.5781 55,701.6563 Q54.3125,702.7188 54.3125,704.8125 Q54.3125,706.9063 55,707.9844 Q55.6875,709.0469 57.0313,709.0469 Q57.6563,709.0469 58.25,708.7813 Q58.8438,708.5 59.4688,707.9219 L59.4688,710.6406 Z " fill="#000000"/><text fill="#000000" font-family="sans-serif" font-size="14" lengthAdjust="spacing" textLength="49.458" x="70.5" y="709.8467">Tarjeta</text><line style="stroke:#181818;stroke-width:0.5;" x1="42.5" x2="121.958" y1="721" y2="721"/><line style="stroke:#181818;stroke-width:0.5;" x1="42.5" x2="121.958" y1="729" y2="729"/></g><!--class Temporada--><g id="elem_Temporada"><rect fill="#F1F1F1" height="48" id="Temporada" rx="2.5" ry="2.5" style="stroke:#181818;stroke-width:0.5;" width="112.0557" x="41" y="41"/><ellipse cx="56" cy="57" fill="#ADD1B2" rx="11" ry="11" style="stroke:#181818;stroke-width:1.0;"/><path d="M58.9688,62.6406 Q58.3906,62.9375 57.75,63.0781 Q57.1094,63.2344 56.4063,63.2344 Q53.9063,63.2344 52.5781,61.5938 Q51.2656,59.9375 51.2656,56.8125 Q51.2656,53.6875 52.5781,52.0313 Q53.9063,50.375 56.4063,50.375 Q57.1094,50.375 57.75,50.5313 Q58.4063,50.6875 58.9688,50.9844 L58.9688,53.7031 Q58.3438,53.125 57.75,52.8594 Q57.1563,52.5781 56.5313,52.5781 Q55.1875,52.5781 54.5,53.6563 Q53.8125,54.7188 53.8125,56.8125 Q53.8125,58.9063 54.5,59.9844 Q55.1875,61.0469 56.5313,61.0469 Q57.1563,61.0469 57.75,60.7813 Q58.3438,60.5 58.9688,59.9219 L58.9688,62.6406 Z " fill="#000000"/><text fill="#000000" font-family="sans-serif" font-size="14" lengthAdjust="spacing" textLength="80.0557" x="70" y="61.8467">Temporada</text><line style="stroke:#181818;stroke-width:0.5;" x1="42" x2="152.0557" y1="73" y2="73"/><line style="stroke:#181818;stroke-width:0.5;" x1="42" x2="152.0557" y1="81" y2="81"/></g><!--link Estadio to Jornada--><g id="link_Estadio_Jornada"><path codeLine="2" d="M220.24,89 C212.74,106.66 202.43,130.94 194.9,148.68 " fill="none" id="Estadio-Jornada" style="stroke:#181818;stroke-width:1.0;"/></g><!--link Jornada to Arbitro--><g id="link_Jornada_Arbitro"><path codeLine="3" d="M159.4,197 C139.74,214.66 112.71,238.94 92.96,256.68 " fill="none" id="Jornada-Arbitro" style="stroke:#181818;stroke-width:1.0;"/></g><!--link Arbitro to Reglas--><g id="link_Arbitro_Reglas"><path codeLine="4" d="M65.7,305 C64.7,322.66 63.32,346.94 62.32,364.68 " fill="none" id="Arbitro-Reglas" style="stroke:#181818;stroke-width:1.0;"/></g><!--link Equipo to Entrenador--><g id="link_Equipo_Entrenador"><path codeLine="5" d="M158.26,521 C174.59,538.66 197.04,562.94 213.44,580.68 " fill="none" id="Equipo-Entrenador" style="stroke:#181818;stroke-width:1.0;"/></g><!--link Equipo to Jugador--><g id="link_Equipo_Jugador"><path codeLine="6" d="M129.41,521 C123.58,538.66 115.56,562.94 109.7,580.68 " fill="none" id="Equipo-Jugador" style="stroke:#181818;stroke-width:1.0;"/></g><!--link Equipo to Jornada--><g id="link_Equipo_Jornada"><path codeLine="7" d="M177.21,477.34 C201.99,463.44 231.69,441.88 246,413 C276.78,350.87 265.7,322.86 244,257 C236.59,234.5 220.77,212.81 207.38,197.25 " fill="none" id="Equipo-Jornada" style="stroke:#181818;stroke-width:1.0;"/></g><!--link Reglas to Equipo--><g id="link_Reglas_Equipo"><path codeLine="8" d="M77.49,413 C90.15,430.66 107.56,454.94 120.28,472.68 " fill="none" id="Reglas-Equipo" style="stroke:#181818;stroke-width:1.0;stroke-dasharray:7.0,7.0;"/></g><!--link Jornada to Partido--><g id="link_Jornada_Partido"><path codeLine="9" d="M185,197 C185,214.66 185,238.94 185,256.68 " fill="none" id="Jornada-Partido" style="stroke:#181818;stroke-width:1.0;"/></g><!--link Partido to Equipo--><g id="link_Partido_Equipo"><path codeLine="10" d="M175.53,305.25 C169.16,321.69 161.05,344.39 156,365 C146.93,402.05 141.63,446.14 139.03,472.55 " fill="none" id="Partido-Equipo" style="stroke:#181818;stroke-width:1.0;"/></g><!--link Partido to Gol--><g id="link_Partido_Gol"><path codeLine="11" d="M188.47,305 C191.14,322.66 194.8,346.94 197.48,364.68 " fill="none" id="Partido-Gol" style="stroke:#181818;stroke-width:1.0;"/></g><!--link Jugador to Tarjeta--><g id="link_Jugador_Tarjeta"><path codeLine="12" d="M97.66,629 C94.33,646.66 89.75,670.94 86.4,688.68 " fill="none" id="Jugador-Tarjeta" style="stroke:#181818;stroke-width:1.0;"/></g><!--link Reglas to Tarjeta--><g id="link_Reglas_Tarjeta"><path codeLine="13" d="M54.38,413.08 C43.05,456.13 22.87,551.35 41,629 C46.01,650.44 57.4,672.7 66.9,688.77 " fill="none" id="Reglas-Tarjeta" style="stroke:#181818;stroke-width:1.0;stroke-dasharray:7.0,7.0;"/></g><!--link Temporada to Jornada--><g id="link_Temporada_Jornada"><path codeLine="14" d="M116.09,89 C130.75,106.66 150.91,130.94 165.64,148.68 " fill="none" id="Temporada-Jornada" style="stroke:#181818;stroke-width:1.0;"/></g><!--SRC=[PSv13e8m40NGlQUOi8Sxk20an8KnN62qJJEAJ1tAYdXtEb3KnjtFQtz_FTuUw2mK9t9Om7m0gCU0XXZA4bgM0Gr6J4dnA5SAmX5JKhnOr-EexTT4VgLw269ZYINZTdB_zjdPte6gIgVvz1aba55CQTtPB_vOmxqsjoc53kLkGxxmjSu-FKiQsJ_pNW00]--></g></svg>