<?xml version="1.0" encoding="us-ascii" standalone="no"?><svg xmlns="http://www.w3.org/2000/svg" xmlns:xlink="http://www.w3.org/1999/xlink" contentStyleType="text/css" height="777px" preserveAspectRatio="none" style="width:460px;height:777px;background:#FFFFFF;" version="1.1" viewBox="0 0 460 777" width="460px" zoomAndPan="magnify"><defs/><g><text fill="#000000" font-family="sans-serif" font-size="14" font-weight="bold" lengthAdjust="spacing" textLength="358" x="44.25" y="24.5332">Diagrama de Clases Detallado: Sistema de Votaci&#243;n</text><!--class Candidato--><g id="elem_Candidato"><rect codeLine="3" fill="#F1F1F1" height="118.4375" id="Candidato" rx="2.5" ry="2.5" style="stroke:#181818;stroke-width:0.5;" width="113" x="191" y="455.6094"/><ellipse cx="213.2" cy="471.6094" fill="#ADD1B2" rx="11" ry="11" style="stroke:#181818;stroke-width:1.0;"/><path d="M215.9656,467.4844 Q216.1219,467.2656 216.3094,467.1563 Q216.4969,467.0469 216.7156,467.0469 Q217.0906,467.0469 217.325,467.3125 Q217.5594,467.5625 217.5594,468.1719 L217.5594,469.625 Q217.5594,470.2344 217.325,470.5 Q217.0906,470.7656 216.7156,470.7656 Q216.3719,470.7656 216.1688,470.5625 Q215.9656,470.375 215.8563,469.8594 Q215.8094,469.5 215.6219,469.3125 Q215.2938,468.9375 214.6844,468.7188 Q214.075,468.5 213.45,468.5 Q212.6844,468.5 212.0438,468.8281 Q211.4188,469.1563 210.9188,469.9063 Q210.4344,470.6563 210.4344,471.6875 L210.4344,472.7813 Q210.4344,474.0156 211.325,474.8438 Q212.2156,475.6563 213.8094,475.6563 Q214.7469,475.6563 215.4031,475.4063 Q215.7938,475.25 216.2156,474.8125 Q216.4813,474.5469 216.6219,474.4688 Q216.7781,474.3906 216.9813,474.3906 Q217.3094,474.3906 217.5594,474.6563 Q217.825,474.9063 217.825,475.25 Q217.825,475.5938 217.4813,476 Q216.9813,476.5781 216.1844,476.9063 Q215.1063,477.3594 213.8094,477.3594 Q212.2938,477.3594 211.0906,476.7344 Q210.1063,476.2344 209.4188,475.1719 Q208.7313,474.0938 208.7313,472.8125 L208.7313,471.6563 Q208.7313,470.3281 209.3406,469.1875 Q209.9656,468.0313 211.0594,467.4219 Q212.1531,466.7969 213.3875,466.7969 Q214.1219,466.7969 214.7625,466.9688 Q215.4188,467.125 215.9656,467.4844 Z " fill="#000000"/><text fill="#000000" font-family="sans-serif" font-size="14" lengthAdjust="spacing" textLength="65" x="228.8" y="477.3379">Candidato</text><line style="stroke:#181818;stroke-width:0.5;" x1="192" x2="303" y1="487.6094" y2="487.6094"/><text fill="#000000" font-family="sans-serif" font-size="14" lengthAdjust="spacing" textLength="63" x="197" y="506.1426">id: Integer</text><text fill="#000000" font-family="sans-serif" font-size="14" lengthAdjust="spacing" textLength="93" x="197" y="523.752">nombre: String</text><text fill="#000000" font-family="sans-serif" font-size="14" lengthAdjust="spacing" textLength="89" x="197" y="541.3613">partido: String</text><text fill="#000000" font-family="sans-serif" font-size="14" lengthAdjust="spacing" textLength="101" x="197" y="558.9707">propuestas: List</text><line style="stroke:#181818;stroke-width:0.5;" x1="192" x2="303" y1="566.0469" y2="566.0469"/></g><!--class Sufragante--><g id="elem_Sufragante"><rect codeLine="9" fill="#F1F1F1" height="136.0469" id="Sufragante" rx="2.5" ry="2.5" style="stroke:#181818;stroke-width:0.5;" width="105" x="265" y="45.6094"/><ellipse cx="281.35" cy="61.6094" fill="#ADD1B2" rx="11" ry="11" style="stroke:#181818;stroke-width:1.0;"/><path d="M284.1156,57.4844 Q284.2719,57.2656 284.4594,57.1563 Q284.6469,57.0469 284.8656,57.0469 Q285.2406,57.0469 285.475,57.3125 Q285.7094,57.5625 285.7094,58.1719 L285.7094,59.625 Q285.7094,60.2344 285.475,60.5 Q285.2406,60.7656 284.8656,60.7656 Q284.5219,60.7656 284.3188,60.5625 Q284.1156,60.375 284.0063,59.8594 Q283.9594,59.5 283.7719,59.3125 Q283.4438,58.9375 282.8344,58.7188 Q282.225,58.5 281.6,58.5 Q280.8344,58.5 280.1938,58.8281 Q279.5688,59.1563 279.0688,59.9063 Q278.5844,60.6563 278.5844,61.6875 L278.5844,62.7813 Q278.5844,64.0156 279.475,64.8438 Q280.3656,65.6563 281.9594,65.6563 Q282.8969,65.6563 283.5531,65.4063 Q283.9438,65.25 284.3656,64.8125 Q284.6313,64.5469 284.7719,64.4688 Q284.9281,64.3906 285.1313,64.3906 Q285.4594,64.3906 285.7094,64.6563 Q285.975,64.9063 285.975,65.25 Q285.975,65.5938 285.6313,66 Q285.1313,66.5781 284.3344,66.9063 Q283.2563,67.3594 281.9594,67.3594 Q280.4438,67.3594 279.2406,66.7344 Q278.2563,66.2344 277.5688,65.1719 Q276.8813,64.0938 276.8813,62.8125 L276.8813,61.6563 Q276.8813,60.3281 277.4906,59.1875 Q278.1156,58.0313 279.2094,57.4219 Q280.3031,56.7969 281.5375,56.7969 Q282.2719,56.7969 282.9125,56.9688 Q283.5688,57.125 284.1156,57.4844 Z " fill="#000000"/><text fill="#000000" font-family="sans-serif" font-size="14" lengthAdjust="spacing" textLength="70" x="295.65" y="67.3379">Sufragante</text><line style="stroke:#181818;stroke-width:0.5;" x1="266" x2="369" y1="77.6094" y2="77.6094"/><text fill="#000000" font-family="sans-serif" font-size="14" lengthAdjust="spacing" textLength="63" x="271" y="96.1426">id: Integer</text><text fill="#000000" font-family="sans-serif" font-size="14" lengthAdjust="spacing" textLength="64" x="271" y="113.752">dni: String</text><text fill="#000000" font-family="sans-serif" font-size="14" lengthAdjust="spacing" textLength="93" x="271" y="131.3613">nombre: String</text><text fill="#000000" font-family="sans-serif" font-size="14" lengthAdjust="spacing" textLength="84" x="271" y="148.9707">edad: Integer</text><text fill="#000000" font-family="sans-serif" font-size="14" lengthAdjust="spacing" textLength="64" x="271" y="166.5801">voto: Voto</text><line style="stroke:#181818;stroke-width:0.5;" x1="266" x2="369" y1="173.6563" y2="173.6563"/></g><!--class Secretario--><g id="elem_Secretario"><rect codeLine="16" fill="#F1F1F1" height="118.4375" id="Secretario" rx="2.5" ry="2.5" style="stroke:#181818;stroke-width:0.5;" width="143" x="10" y="259.6094"/><ellipse cx="45.7" cy="275.6094" fill="#ADD1B2" rx="11" ry="11" style="stroke:#181818;stroke-width:1.0;"/><path d="M48.4656,271.4844 Q48.6219,271.2656 48.8094,271.1563 Q48.9969,271.0469 49.2156,271.0469 Q49.5906,271.0469 49.825,271.3125 Q50.0594,271.5625 50.0594,272.1719 L50.0594,273.625 Q50.0594,274.2344 49.825,274.5 Q49.5906,274.7656 49.2156,274.7656 Q48.8719,274.7656 48.6688,274.5625 Q48.4656,274.375 48.3563,273.8594 Q48.3094,273.5 48.1219,273.3125 Q47.7938,272.9375 47.1844,272.7188 Q46.575,272.5 45.95,272.5 Q45.1844,272.5 44.5438,272.8281 Q43.9188,273.1563 43.4188,273.9063 Q42.9344,274.6563 42.9344,275.6875 L42.9344,276.7813 Q42.9344,278.0156 43.825,278.8438 Q44.7156,279.6563 46.3094,279.6563 Q47.2469,279.6563 47.9031,279.4063 Q48.2938,279.25 48.7156,278.8125 Q48.9813,278.5469 49.1219,278.4688 Q49.2781,278.3906 49.4813,278.3906 Q49.8094,278.3906 50.0594,278.6563 Q50.325,278.9063 50.325,279.25 Q50.325,279.5938 49.9813,280 Q49.4813,280.5781 48.6844,280.9063 Q47.6063,281.3594 46.3094,281.3594 Q44.7938,281.3594 43.5906,280.7344 Q42.6063,280.2344 41.9188,279.1719 Q41.2313,278.0938 41.2313,276.8125 L41.2313,275.6563 Q41.2313,274.3281 41.8406,273.1875 Q42.4656,272.0313 43.5594,271.4219 Q44.6531,270.7969 45.8875,270.7969 Q46.6219,270.7969 47.2625,270.9688 Q47.9188,271.125 48.4656,271.4844 Z " fill="#000000"/><text fill="#000000" font-family="sans-serif" font-size="14" lengthAdjust="spacing" textLength="65" x="64.3" y="281.3379">Secretario</text><line style="stroke:#181818;stroke-width:0.5;" x1="11" x2="152" y1="291.6094" y2="291.6094"/><text fill="#000000" font-family="sans-serif" font-size="14" lengthAdjust="spacing" textLength="63" x="16" y="310.1426">id: Integer</text><text fill="#000000" font-family="sans-serif" font-size="14" lengthAdjust="spacing" textLength="93" x="16" y="327.752">nombre: String</text><line style="stroke:#181818;stroke-width:0.5;" x1="11" x2="152" y1="334.8281" y2="334.8281"/><text fill="#000000" font-family="sans-serif" font-size="14" lengthAdjust="spacing" textLength="96" x="16" y="353.3613">verificarVotos()</text><text fill="#000000" font-family="sans-serif" font-size="14" lengthAdjust="spacing" textLength="131" x="16" y="370.9707">publicarResultados()</text></g><!--class Organizador--><g id="elem_Organizador"><rect codeLine="22" fill="#F1F1F1" height="100.8281" id="Organizador" rx="2.5" ry="2.5" style="stroke:#181818;stroke-width:0.5;" width="149" x="7" y="464.1094"/><ellipse cx="39.55" cy="480.1094" fill="#ADD1B2" rx="11" ry="11" style="stroke:#181818;stroke-width:1.0;"/><path d="M42.3156,475.9844 Q42.4719,475.7656 42.6594,475.6563 Q42.8469,475.5469 43.0656,475.5469 Q43.4406,475.5469 43.675,475.8125 Q43.9094,476.0625 43.9094,476.6719 L43.9094,478.125 Q43.9094,478.7344 43.675,479 Q43.4406,479.2656 43.0656,479.2656 Q42.7219,479.2656 42.5188,479.0625 Q42.3156,478.875 42.2063,478.3594 Q42.1594,478 41.9719,477.8125 Q41.6438,477.4375 41.0344,477.2188 Q40.425,477 39.8,477 Q39.0344,477 38.3938,477.3281 Q37.7688,477.6563 37.2688,478.4063 Q36.7844,479.1563 36.7844,480.1875 L36.7844,481.2813 Q36.7844,482.5156 37.675,483.3438 Q38.5656,484.1563 40.1594,484.1563 Q41.0969,484.1563 41.7531,483.9063 Q42.1438,483.75 42.5656,483.3125 Q42.8313,483.0469 42.9719,482.9688 Q43.1281,482.8906 43.3313,482.8906 Q43.6594,482.8906 43.9094,483.1563 Q44.175,483.4063 44.175,483.75 Q44.175,484.0938 43.8313,484.5 Q43.3313,485.0781 42.5344,485.4063 Q41.4563,485.8594 40.1594,485.8594 Q38.6438,485.8594 37.4406,485.2344 Q36.4563,484.7344 35.7688,483.6719 Q35.0813,482.5938 35.0813,481.3125 L35.0813,480.1563 Q35.0813,478.8281 35.6906,477.6875 Q36.3156,476.5313 37.4094,475.9219 Q38.5031,475.2969 39.7375,475.2969 Q40.4719,475.2969 41.1125,475.4688 Q41.7688,475.625 42.3156,475.9844 Z " fill="#000000"/><text fill="#000000" font-family="sans-serif" font-size="14" lengthAdjust="spacing" textLength="78" x="57.45" y="485.8379">Organizador</text><line style="stroke:#181818;stroke-width:0.5;" x1="8" x2="155" y1="496.1094" y2="496.1094"/><text fill="#000000" font-family="sans-serif" font-size="14" lengthAdjust="spacing" textLength="63" x="13" y="514.6426">id: Integer</text><text fill="#000000" font-family="sans-serif" font-size="14" lengthAdjust="spacing" textLength="93" x="13" y="532.252">nombre: String</text><line style="stroke:#181818;stroke-width:0.5;" x1="8" x2="155" y1="539.3281" y2="539.3281"/><text fill="#000000" font-family="sans-serif" font-size="14" lengthAdjust="spacing" textLength="137" x="13" y="557.8613">organizarElecciones()</text></g><!--class Elecci?n--><g id="elem_Elecci&#243;n"><rect codeLine="27" fill="#F1F1F1" height="118.4375" id="Elecci&#243;n" rx="2.5" ry="2.5" style="stroke:#181818;stroke-width:0.5;" width="218" x="138.5" y="651.6094"/><ellipse cx="216.75" cy="667.6094" fill="#ADD1B2" rx="11" ry="11" style="stroke:#181818;stroke-width:1.0;"/><path d="M219.5156,663.4844 Q219.6719,663.2656 219.8594,663.1563 Q220.0469,663.0469 220.2656,663.0469 Q220.6406,663.0469 220.875,663.3125 Q221.1094,663.5625 221.1094,664.1719 L221.1094,665.625 Q221.1094,666.2344 220.875,666.5 Q220.6406,666.7656 220.2656,666.7656 Q219.9219,666.7656 219.7188,666.5625 Q219.5156,666.375 219.4063,665.8594 Q219.3594,665.5 219.1719,665.3125 Q218.8438,664.9375 218.2344,664.7188 Q217.625,664.5 217,664.5 Q216.2344,664.5 215.5938,664.8281 Q214.9688,665.1563 214.4688,665.9063 Q213.9844,666.6563 213.9844,667.6875 L213.9844,668.7813 Q213.9844,670.0156 214.875,670.8438 Q215.7656,671.6563 217.3594,671.6563 Q218.2969,671.6563 218.9531,671.4063 Q219.3438,671.25 219.7656,670.8125 Q220.0313,670.5469 220.1719,670.4688 Q220.3281,670.3906 220.5313,670.3906 Q220.8594,670.3906 221.1094,670.6563 Q221.375,670.9063 221.375,671.25 Q221.375,671.5938 221.0313,672 Q220.5313,672.5781 219.7344,672.9063 Q218.6563,673.3594 217.3594,673.3594 Q215.8438,673.3594 214.6406,672.7344 Q213.6563,672.2344 212.9688,671.1719 Q212.2813,670.0938 212.2813,668.8125 L212.2813,667.6563 Q212.2813,666.3281 212.8906,665.1875 Q213.5156,664.0313 214.6094,663.4219 Q215.7031,662.7969 216.9375,662.7969 Q217.6719,662.7969 218.3125,662.9688 Q218.9688,663.125 219.5156,663.4844 Z " fill="#000000"/><text fill="#000000" font-family="sans-serif" font-size="14" lengthAdjust="spacing" textLength="53" x="237.25" y="673.3379">Elecci&#243;n</text><line style="stroke:#181818;stroke-width:0.5;" x1="139.5" x2="355.5" y1="683.6094" y2="683.6094"/><text fill="#000000" font-family="sans-serif" font-size="14" lengthAdjust="spacing" textLength="63" x="144.5" y="702.1426">id: Integer</text><text fill="#000000" font-family="sans-serif" font-size="14" lengthAdjust="spacing" textLength="93" x="144.5" y="719.752">nombre: String</text><text fill="#000000" font-family="sans-serif" font-size="14" lengthAdjust="spacing" textLength="73" x="144.5" y="737.3613">fecha: Date</text><text fill="#000000" font-family="sans-serif" font-size="14" lengthAdjust="spacing" textLength="206" x="144.5" y="754.9707">estado: Enum {Abierta, Cerrada}</text><line style="stroke:#181818;stroke-width:0.5;" x1="139.5" x2="355.5" y1="762.0469" y2="762.0469"/></g><!--class Voto--><g id="elem_Voto"><rect codeLine="33" fill="#F1F1F1" height="100.8281" id="Voto" rx="2.5" ry="2.5" style="stroke:#181818;stroke-width:0.5;" width="147" x="244" y="268.1094"/><ellipse cx="298.75" cy="284.1094" fill="#ADD1B2" rx="11" ry="11" style="stroke:#181818;stroke-width:1.0;"/><path d="M301.5156,279.9844 Q301.6719,279.7656 301.8594,279.6563 Q302.0469,279.5469 302.2656,279.5469 Q302.6406,279.5469 302.875,279.8125 Q303.1094,280.0625 303.1094,280.6719 L303.1094,282.125 Q303.1094,282.7344 302.875,283 Q302.6406,283.2656 302.2656,283.2656 Q301.9219,283.2656 301.7188,283.0625 Q301.5156,282.875 301.4063,282.3594 Q301.3594,282 301.1719,281.8125 Q300.8438,281.4375 300.2344,281.2188 Q299.625,281 299,281 Q298.2344,281 297.5938,281.3281 Q296.9688,281.6563 296.4688,282.4063 Q295.9844,283.1563 295.9844,284.1875 L295.9844,285.2813 Q295.9844,286.5156 296.875,287.3438 Q297.7656,288.1563 299.3594,288.1563 Q300.2969,288.1563 300.9531,287.9063 Q301.3438,287.75 301.7656,287.3125 Q302.0313,287.0469 302.1719,286.9688 Q302.3281,286.8906 302.5313,286.8906 Q302.8594,286.8906 303.1094,287.1563 Q303.375,287.4063 303.375,287.75 Q303.375,288.0938 303.0313,288.5 Q302.5313,289.0781 301.7344,289.4063 Q300.6563,289.8594 299.3594,289.8594 Q297.8438,289.8594 296.6406,289.2344 Q295.6563,288.7344 294.9688,287.6719 Q294.2813,286.5938 294.2813,285.3125 L294.2813,284.1563 Q294.2813,282.8281 294.8906,281.6875 Q295.5156,280.5313 296.6094,279.9219 Q297.7031,279.2969 298.9375,279.2969 Q299.6719,279.2969 300.3125,279.4688 Q300.9688,279.625 301.5156,279.9844 Z " fill="#000000"/><text fill="#000000" font-family="sans-serif" font-size="14" lengthAdjust="spacing" textLength="29" x="319.25" y="289.8379">Voto</text><line style="stroke:#181818;stroke-width:0.5;" x1="245" x2="390" y1="300.1094" y2="300.1094"/><text fill="#000000" font-family="sans-serif" font-size="14" lengthAdjust="spacing" textLength="63" x="250" y="318.6426">id: Integer</text><text fill="#000000" font-family="sans-serif" font-size="14" lengthAdjust="spacing" textLength="135" x="250" y="336.252">candidato: Candidato</text><text fill="#000000" font-family="sans-serif" font-size="14" lengthAdjust="spacing" textLength="134" x="250" y="353.8613">fechaHora: DateTime</text><line style="stroke:#181818;stroke-width:0.5;" x1="245" x2="390" y1="360.9375" y2="360.9375"/></g><!--link Candidato to Elecci?n--><g id="link_Candidato_Elecci&#243;n"><path codeLine="39" d="M247.5,573.8194 C247.5,598.3694 247.5,626.8994 247.5,651.4394 " fill="none" id="Candidato-Elecci&#243;n" style="stroke:#181818;stroke-width:1.0;"/><polygon fill="#000000" points="252.5,617.7852,255.4389,608.7401,249.5611,608.7401,252.5,617.7852" style="stroke:#000000;stroke-width:1.0;"/><text fill="#000000" font-family="sans-serif" font-size="13" lengthAdjust="spacing" textLength="49" x="261.5" y="618.1045">participa</text><text fill="#000000" font-family="sans-serif" font-size="13" lengthAdjust="spacing" textLength="20" x="226.2813" y="595.5005">1..*</text><text fill="#000000" font-family="sans-serif" font-size="13" lengthAdjust="spacing" textLength="20" x="226.2813" y="640.7429">1..*</text></g><!--link Sufragante to Voto--><g id="link_Sufragante_Voto"><path codeLine="40" d="M317.5,181.6394 C317.5,209.8194 317.5,242.0194 317.5,268.0094 " fill="none" id="Sufragante-Voto" style="stroke:#181818;stroke-width:1.0;"/><polygon fill="#000000" points="322.5,225.7852,325.4389,216.7401,319.5611,216.7401,322.5,225.7852" style="stroke:#000000;stroke-width:1.0;"/><text fill="#000000" font-family="sans-serif" font-size="13" lengthAdjust="spacing" textLength="32" x="331.5" y="226.1045">emite</text><text fill="#000000" font-family="sans-serif" font-size="13" lengthAdjust="spacing" textLength="7" x="310.1391" y="202.9908">1</text><text fill="#000000" font-family="sans-serif" font-size="13" lengthAdjust="spacing" textLength="7" x="310.0078" y="257.3007">1</text></g><!--link Voto to Candidato--><g id="link_Voto_Candidato"><path codeLine="41" d="M299.56,369.3194 C290.09,395.5894 278.4,427.9794 268.5,455.4194 " fill="none" id="Voto-Candidato" style="stroke:#181818;stroke-width:1.0;"/><polygon fill="#000000" points="287.8033,421.4885,293.6372,413.9774,288.1081,411.9828,287.8033,421.4885" style="stroke:#000000;stroke-width:1.0;"/><text fill="#000000" font-family="sans-serif" font-size="13" lengthAdjust="spacing" textLength="41" x="298.5" y="422.1045">elegido</text><text fill="#000000" font-family="sans-serif" font-size="13" lengthAdjust="spacing" textLength="7" x="289.813" y="390.3702">1</text><text fill="#000000" font-family="sans-serif" font-size="13" lengthAdjust="spacing" textLength="7" x="263.6328" y="444.7205">1</text></g><!--link Voto to Elecci?n--><g id="link_Voto_Elecci&#243;n"><path codeLine="42" d="M338.37,369.5494 C342.57,381.7894 346.34,394.9994 348.5,407.6094 C360.31,476.6794 409.67,417.6894 319.5,621.6094 C314.95,631.8994 308.86,641.9694 302.13,651.4094 " fill="none" id="Voto-Elecci&#243;n" style="stroke:#181818;stroke-width:1.0;"/><polygon fill="#000000" points="376.8624,519.7443,380.9308,511.1479,375.1009,510.3983,376.8624,519.7443" style="stroke:#000000;stroke-width:1.0;"/><text fill="#000000" font-family="sans-serif" font-size="13" lengthAdjust="spacing" textLength="66" x="386.5" y="520.1045">perteneceA</text><text fill="#000000" font-family="sans-serif" font-size="13" lengthAdjust="spacing" textLength="7" x="333.487" y="390.2597">1</text><text fill="#000000" font-family="sans-serif" font-size="13" lengthAdjust="spacing" textLength="7" x="301.3615" y="640.7093">1</text></g><!--link Secretario to Organizador--><g id="link_Secretario_Organizador"><path codeLine="43" d="M81.5,377.8194 C81.5,405.2694 81.5,437.6894 81.5,463.9694 " fill="none" id="Secretario-Organizador" style="stroke:#181818;stroke-width:1.0;"/><polygon fill="#000000" points="86.5,421.7852,89.4389,412.7401,83.5611,412.7401,86.5,421.7852" style="stroke:#000000;stroke-width:1.0;"/><text fill="#000000" font-family="sans-serif" font-size="13" lengthAdjust="spacing" textLength="49" x="95.5" y="422.1045">reportaA</text><text fill="#000000" font-family="sans-serif" font-size="13" lengthAdjust="spacing" textLength="7" x="74.0734" y="399.5005">1</text><text fill="#000000" font-family="sans-serif" font-size="13" lengthAdjust="spacing" textLength="7" x="74.0078" y="453.255">1</text></g><!--link Organizador to Elecci?n--><g id="link_Organizador_Elecci&#243;n"><path codeLine="44" d="M124.03,565.3194 C146.51,591.5894 174.23,623.9794 197.71,651.4194 " fill="none" id="Organizador-Elecci&#243;n" style="stroke:#181818;stroke-width:1.0;"/><polygon fill="#000000" points="177.7509,616.5841,174.1029,607.801,169.637,611.6226,177.7509,616.5841" style="stroke:#000000;stroke-width:1.0;"/><text fill="#000000" font-family="sans-serif" font-size="13" lengthAdjust="spacing" textLength="49" x="183.5" y="618.1045">coordina</text><text fill="#000000" font-family="sans-serif" font-size="13" lengthAdjust="spacing" textLength="7" x="122.0307" y="586.3702">1</text><text fill="#000000" font-family="sans-serif" font-size="13" lengthAdjust="spacing" textLength="20" x="170.4231" y="640.7205">1..*</text></g><!--SRC=[ZPBFQi904CRlUOh1Krkgu3K7GLHeeL2efVTnTqm7ajqmk_5GyQdw27snpcfY8dhmbltso- -RFnivbWHBnaAmGh04Yn831LXInB94wtDOSuXqklpo4Gt__ReiC-eBi41dsMBqiCy0sERmwY8L97folje8wVzHs1Kgr2YHZyIp8hvkA4GCERnfJ7PekUjcArYWicw0hUC1uog6B5xOTpvgffRkUpmPqGQ5xwfxHy9RDYY94HuUK-7DfapA1uMcZ3gc97VqTz7A-KTLkGVlMxkiIZA6lQCXx2JgoEz1RSbyOmvBZ9G64U9nWIlNLB2VRvWauZCiI0Gj7iuHgQqRTDFjDk_Nt6MyU6bpFhaY9MNzInXD9vEd4Op7tLVVGdvw0uPhX5asMF9eslumEbMJ0rMi-Ymx7WVNVOvwIYhqGTrmNKHgs-J8q3nbzfiVs8SRoq6ezZgfP1zUdFrNJHdlnR9BFVq3]--></g></svg>