<?xml version="1.0" encoding="us-ascii" standalone="no"?><svg xmlns="http://www.w3.org/2000/svg" xmlns:xlink="http://www.w3.org/1999/xlink" contentStyleType="text/css" height="398px" preserveAspectRatio="none" style="width:446px;height:398px;background:#FFFFFF;" version="1.1" viewBox="0 0 446 398" width="446px" zoomAndPan="magnify"><defs/><g><g id="elem_F1"><rect fill="#F1F1F1" height="37.6094" style="stroke:#181818;stroke-width:0.5;" width="131" x="47" y="7"/><text fill="#000000" font-family="sans-serif" font-size="14" lengthAdjust="spacing" textLength="117" x="54" y="23.5332">foco_1 : Luminaria</text><line style="stroke:#181818;stroke-width:0.5;" x1="48" x2="177" y1="28.6094" y2="28.6094"/></g><g id="elem_F2"><rect fill="#F1F1F1" height="37.6094" style="stroke:#181818;stroke-width:0.5;" width="131" x="251" y="7"/><text fill="#000000" font-family="sans-serif" font-size="14" lengthAdjust="spacing" textLength="117" x="258" y="23.5332">foco_2 : Luminaria</text><line style="stroke:#181818;stroke-width:0.5;" x1="252" x2="381" y1="28.6094" y2="28.6094"/></g><g id="elem_P"><rect fill="#F1F1F1" height="37.6094" style="stroke:#181818;stroke-width:0.5;" width="117" x="167" y="123"/><text fill="#000000" font-family="sans-serif" font-size="14" lengthAdjust="spacing" textLength="103" x="174" y="139.5332">persona : objeto</text><line style="stroke:#181818;stroke-width:0.5;" x1="168" x2="283" y1="144.6094" y2="144.6094"/></g><g id="elem_S1"><rect fill="#F1F1F1" height="37.6094" style="stroke:#181818;stroke-width:0.5;" width="191" x="7" y="239"/><text fill="#000000" font-family="sans-serif" font-size="14" lengthAdjust="spacing" textLength="177" x="14" y="255.5332">sombraDePersona : sombra</text><line style="stroke:#181818;stroke-width:0.5;" x1="8" x2="197" y1="260.6094" y2="260.6094"/></g><g id="elem_S2"><rect fill="#F1F1F1" height="37.6094" style="stroke:#181818;stroke-width:0.5;" width="207" x="233" y="239"/><text fill="#000000" font-family="sans-serif" font-size="14" lengthAdjust="spacing" textLength="193" x="240" y="255.5332">sombraDePersona_2 : sombra</text><line style="stroke:#181818;stroke-width:0.5;" x1="234" x2="439" y1="260.6094" y2="260.6094"/></g><g id="elem_W"><rect fill="#F1F1F1" height="37.6094" style="stroke:#181818;stroke-width:0.5;" width="102" x="168.5" y="355"/><text fill="#000000" font-family="sans-serif" font-size="14" lengthAdjust="spacing" textLength="88" x="175.5" y="371.5332">pared : objeto</text><line style="stroke:#181818;stroke-width:0.5;" x1="169.5" x2="269.5" y1="376.6094" y2="376.6094"/></g><!--link F1 to P--><g id="link_F1_P"><path codeLine="8" d="M130.4,45.25 C143.43,58.52 161.53,76.9 177.5,93 C187.3,102.87 194.015,109.5997 202.985,118.5597 " fill="none" id="F1-to-P" style="stroke:#181818;stroke-width:1.0;"/><polygon fill="#181818" points="207.23,122.8,203.6893,113.6096,203.6925,119.2664,198.0356,119.2696,207.23,122.8" style="stroke:#181818;stroke-width:1.0;"/><text fill="#000000" font-family="sans-serif" font-size="13" lengthAdjust="spacing" textLength="41" x="178.5" y="89.4951">ilumina</text></g><!--link F2 to P--><g id="link_F2_P"><path codeLine="9" d="M270.56,45.03 C257.29,52.4 244.09,62.26 235.5,75 C225.98,89.13 224.035,102.7903 224.165,116.9803 " fill="none" id="F2-to-P" style="stroke:#181818;stroke-width:1.0;"/><polygon fill="#181818" points="224.22,122.98,228.1374,113.9437,224.1742,117.9802,220.1377,114.017,224.22,122.98" style="stroke:#181818;stroke-width:1.0;"/><text fill="#000000" font-family="sans-serif" font-size="13" lengthAdjust="spacing" textLength="91" x="236.5" y="89.4951">tambi&#233;n ilumina</text></g><!--link F1 to S1--><g id="link_F1_S1"><path codeLine="10" d="M109.77,45.35 C107.04,64.63 103.05,95.87 101.5,123 C99.14,164.34 100.2891,206.9852 101.3691,232.7852 " fill="none" id="F1-to-S1" style="stroke:#181818;stroke-width:1.0;stroke-dasharray:7.0,7.0;"/><polygon fill="#181818" points="101.62,238.78,105.2401,229.6206,101.4109,233.7844,97.2471,229.9552,101.62,238.78" style="stroke:#181818;stroke-width:1.0;"/><text fill="#000000" font-family="sans-serif" font-size="13" lengthAdjust="spacing" textLength="46" x="102.5" y="147.4951">produce</text></g><!--link F2 to S2--><g id="link_F2_S2"><path codeLine="11" d="M324.06,45.36 C327.31,54.16 330.76,64.96 332.5,75 C342.77,134.16 340.3831,199.7722 338.2731,232.7522 " fill="none" id="F2-to-S2" style="stroke:#181818;stroke-width:1.0;stroke-dasharray:7.0,7.0;"/><polygon fill="#181818" points="337.89,238.74,342.4565,230.0138,338.2092,233.7502,334.4728,229.503,337.89,238.74" style="stroke:#181818;stroke-width:1.0;"/><text fill="#000000" font-family="sans-serif" font-size="13" lengthAdjust="spacing" textLength="46" x="340.5" y="147.4951">produce</text></g><!--link P to S1--><g id="link_P_S1"><path codeLine="12" d="M206.01,161.06 C183.11,182.28 149.741,213.2219 126.711,234.5619 " fill="none" id="P-to-S1" style="stroke:#181818;stroke-width:1.0;"/><polygon fill="#181818" points="122.31,238.64,131.6303,235.4569,125.9775,235.2416,126.1928,229.5888,122.31,238.64" style="stroke:#181818;stroke-width:1.0;"/><text fill="#000000" font-family="sans-serif" font-size="13" lengthAdjust="spacing" textLength="46" x="172.5" y="205.4951">produce</text></g><!--link P to S2--><g id="link_P_S2"><path codeLine="13" d="M239.21,161.06 C249.9,174.74 265.42,193.71 280.5,209 C290.84,219.48 298.5666,226.4159 309.0366,235.0759 " fill="none" id="P-to-S2" style="stroke:#181818;stroke-width:1.0;"/><polygon fill="#181818" points="313.66,238.9,309.2743,230.0815,309.8072,235.7132,304.1755,236.2461,313.66,238.9" style="stroke:#181818;stroke-width:1.0;"/><text fill="#000000" font-family="sans-serif" font-size="13" lengthAdjust="spacing" textLength="46" x="281.5" y="205.4951">produce</text></g><!--link S1 to W--><g id="link_S1_W"><path codeLine="14" d="M121.04,277.06 C142.82,298.28 174.4518,329.1136 196.3618,350.4536 " fill="none" id="S1-to-W" style="stroke:#181818;stroke-width:1.0;stroke-dasharray:7.0,7.0;"/><polygon fill="#181818" points="200.66,354.64,197.0036,345.495,197.0782,351.1514,191.4218,351.2259,200.66,354.64" style="stroke:#181818;stroke-width:1.0;"/><text fill="#000000" font-family="sans-serif" font-size="13" lengthAdjust="spacing" textLength="50" x="169.5" y="321.4951">proyecta</text></g><!--link S2 to W--><g id="link_S2_W"><path codeLine="15" d="M317.96,277.06 C296.18,298.28 264.5482,329.1136 242.6382,350.4536 " fill="none" id="S2-to-W" style="stroke:#181818;stroke-width:1.0;stroke-dasharray:7.0,7.0;"/><polygon fill="#181818" points="238.34,354.64,247.5782,351.2259,241.9218,351.1514,241.9964,345.495,238.34,354.64" style="stroke:#181818;stroke-width:1.0;"/><text fill="#000000" font-family="sans-serif" font-size="13" lengthAdjust="spacing" textLength="50" x="285.5" y="321.4951">proyecta</text></g><!--SRC=[TOwn3e8m54NtViLBTqZQqO79C3aqOM0q3wX9ZV18WS5FyZlyCTkYq4PTpptltKlDLRSpy0krT1PmWDFIcm6jGGuuGIaOnORyDkHcZDfEDA1JF9afv6gB9-eRYqUjDcqbGQl4FozqncPKY5PtQLtDM2aWomfGBk3c5iPoLieTpjWtvlaOO4y5v7dXHlXujDGjhUO0_Yfm6NEcmgjK_i3KhDQ_zHlUtMhNLiaVz0K0]--></g></svg>