<?xml version="1.0" encoding="us-ascii" standalone="no"?><svg xmlns="http://www.w3.org/2000/svg" xmlns:xlink="http://www.w3.org/1999/xlink" contentStyleType="text/css" height="365px" preserveAspectRatio="none" style="width:507px;height:365px;background:#FFFFFF;" version="1.1" viewBox="0 0 507 365" width="507px" zoomAndPan="magnify"><defs/><g><!--cluster Espejismo--><g id="cluster_Espejismo"><path d="M8.5,6 L81.5,6 A3.75,3.75 0 0 1 84,8.5 L91,29.6094 L497.5,29.6094 A2.5,2.5 0 0 1 500,32.1094 L500,355.5 A2.5,2.5 0 0 1 497.5,358 L8.5,358 A2.5,2.5 0 0 1 6,355.5 L6,8.5 A2.5,2.5 0 0 1 8.5,6 " fill="none" style="stroke:#000000;stroke-width:1.5;"/><line style="stroke:#000000;stroke-width:1.5;" x1="6" x2="91" y1="29.6094" y2="29.6094"/><text fill="#000000" font-family="sans-serif" font-size="14" font-weight="bold" lengthAdjust="spacing" textLength="72" x="10" y="22.5332">Espejismo</text></g><!--class Ilusi?n--><g id="elem_Ilusi&#243;n"><rect fill="#F1F1F1" height="48" id="Ilusi&#243;n" rx="2.5" ry="2.5" style="stroke:#181818;stroke-width:0.5;" width="72" x="244" y="42"/><ellipse cx="259" cy="58" fill="#ADD1B2" rx="11" ry="11" style="stroke:#181818;stroke-width:1.0;"/><path d="M261.7656,53.875 Q261.9219,53.6563 262.1094,53.5469 Q262.2969,53.4375 262.5156,53.4375 Q262.8906,53.4375 263.125,53.7031 Q263.3594,53.9531 263.3594,54.5625 L263.3594,56.0156 Q263.3594,56.625 263.125,56.8906 Q262.8906,57.1563 262.5156,57.1563 Q262.1719,57.1563 261.9688,56.9531 Q261.7656,56.7656 261.6563,56.25 Q261.6094,55.8906 261.4219,55.7031 Q261.0938,55.3281 260.4844,55.1094 Q259.875,54.8906 259.25,54.8906 Q258.4844,54.8906 257.8438,55.2188 Q257.2188,55.5469 256.7188,56.2969 Q256.2344,57.0469 256.2344,58.0781 L256.2344,59.1719 Q256.2344,60.4063 257.125,61.2344 Q258.0156,62.0469 259.6094,62.0469 Q260.5469,62.0469 261.2031,61.7969 Q261.5938,61.6406 262.0156,61.2031 Q262.2813,60.9375 262.4219,60.8594 Q262.5781,60.7813 262.7813,60.7813 Q263.1094,60.7813 263.3594,61.0469 Q263.625,61.2969 263.625,61.6406 Q263.625,61.9844 263.2813,62.3906 Q262.7813,62.9688 261.9844,63.2969 Q260.9063,63.75 259.6094,63.75 Q258.0938,63.75 256.8906,63.125 Q255.9063,62.625 255.2188,61.5625 Q254.5313,60.4844 254.5313,59.2031 L254.5313,58.0469 Q254.5313,56.7188 255.1406,55.5781 Q255.7656,54.4219 256.8594,53.8125 Q257.9531,53.1875 259.1875,53.1875 Q259.9219,53.1875 260.5625,53.3594 Q261.2188,53.5156 261.7656,53.875 Z " fill="#000000"/><text fill="#000000" font-family="sans-serif" font-size="14" lengthAdjust="spacing" textLength="40" x="273" y="63.7285">Ilusi&#243;n</text><line style="stroke:#181818;stroke-width:0.5;" x1="245" x2="315" y1="74" y2="74"/><line style="stroke:#181818;stroke-width:0.5;" x1="245" x2="315" y1="82" y2="82"/></g><!--class Condiciones climaticas--><g id="elem_Condiciones climaticas"><rect fill="#F1F1F1" height="48" id="Condiciones climaticas" rx="2.5" ry="2.5" style="stroke:#181818;stroke-width:0.5;" width="175" x="192.5" y="168"/><ellipse cx="207.5" cy="184" fill="#ADD1B2" rx="11" ry="11" style="stroke:#181818;stroke-width:1.0;"/><path d="M210.2656,179.875 Q210.4219,179.6563 210.6094,179.5469 Q210.7969,179.4375 211.0156,179.4375 Q211.3906,179.4375 211.625,179.7031 Q211.8594,179.9531 211.8594,180.5625 L211.8594,182.0156 Q211.8594,182.625 211.625,182.8906 Q211.3906,183.1563 211.0156,183.1563 Q210.6719,183.1563 210.4688,182.9531 Q210.2656,182.7656 210.1563,182.25 Q210.1094,181.8906 209.9219,181.7031 Q209.5938,181.3281 208.9844,181.1094 Q208.375,180.8906 207.75,180.8906 Q206.9844,180.8906 206.3438,181.2188 Q205.7188,181.5469 205.2188,182.2969 Q204.7344,183.0469 204.7344,184.0781 L204.7344,185.1719 Q204.7344,186.4063 205.625,187.2344 Q206.5156,188.0469 208.1094,188.0469 Q209.0469,188.0469 209.7031,187.7969 Q210.0938,187.6406 210.5156,187.2031 Q210.7813,186.9375 210.9219,186.8594 Q211.0781,186.7813 211.2813,186.7813 Q211.6094,186.7813 211.8594,187.0469 Q212.125,187.2969 212.125,187.6406 Q212.125,187.9844 211.7813,188.3906 Q211.2813,188.9688 210.4844,189.2969 Q209.4063,189.75 208.1094,189.75 Q206.5938,189.75 205.3906,189.125 Q204.4063,188.625 203.7188,187.5625 Q203.0313,186.4844 203.0313,185.2031 L203.0313,184.0469 Q203.0313,182.7188 203.6406,181.5781 Q204.2656,180.4219 205.3594,179.8125 Q206.4531,179.1875 207.6875,179.1875 Q208.4219,179.1875 209.0625,179.3594 Q209.7188,179.5156 210.2656,179.875 Z " fill="#000000"/><text fill="#000000" font-family="sans-serif" font-size="14" lengthAdjust="spacing" textLength="143" x="221.5" y="189.7285">Condiciones climaticas</text><line style="stroke:#181818;stroke-width:0.5;" x1="193.5" x2="366.5" y1="200" y2="200"/><line style="stroke:#181818;stroke-width:0.5;" x1="193.5" x2="366.5" y1="208" y2="208"/></g><!--class Observador--><g id="elem_Observador"><rect fill="#F1F1F1" height="48" id="Observador" rx="2.5" ry="2.5" style="stroke:#181818;stroke-width:0.5;" width="107" x="99.5" y="294"/><ellipse cx="114.5" cy="310" fill="#ADD1B2" rx="11" ry="11" style="stroke:#181818;stroke-width:1.0;"/><path d="M117.2656,305.875 Q117.4219,305.6563 117.6094,305.5469 Q117.7969,305.4375 118.0156,305.4375 Q118.3906,305.4375 118.625,305.7031 Q118.8594,305.9531 118.8594,306.5625 L118.8594,308.0156 Q118.8594,308.625 118.625,308.8906 Q118.3906,309.1563 118.0156,309.1563 Q117.6719,309.1563 117.4688,308.9531 Q117.2656,308.7656 117.1563,308.25 Q117.1094,307.8906 116.9219,307.7031 Q116.5938,307.3281 115.9844,307.1094 Q115.375,306.8906 114.75,306.8906 Q113.9844,306.8906 113.3438,307.2188 Q112.7188,307.5469 112.2188,308.2969 Q111.7344,309.0469 111.7344,310.0781 L111.7344,311.1719 Q111.7344,312.4063 112.625,313.2344 Q113.5156,314.0469 115.1094,314.0469 Q116.0469,314.0469 116.7031,313.7969 Q117.0938,313.6406 117.5156,313.2031 Q117.7813,312.9375 117.9219,312.8594 Q118.0781,312.7813 118.2813,312.7813 Q118.6094,312.7813 118.8594,313.0469 Q119.125,313.2969 119.125,313.6406 Q119.125,313.9844 118.7813,314.3906 Q118.2813,314.9688 117.4844,315.2969 Q116.4063,315.75 115.1094,315.75 Q113.5938,315.75 112.3906,315.125 Q111.4063,314.625 110.7188,313.5625 Q110.0313,312.4844 110.0313,311.2031 L110.0313,310.0469 Q110.0313,308.7188 110.6406,307.5781 Q111.2656,306.4219 112.3594,305.8125 Q113.4531,305.1875 114.6875,305.1875 Q115.4219,305.1875 116.0625,305.3594 Q116.7188,305.5156 117.2656,305.875 Z " fill="#000000"/><text fill="#000000" font-family="sans-serif" font-size="14" lengthAdjust="spacing" textLength="75" x="128.5" y="315.7285">Observador</text><line style="stroke:#181818;stroke-width:0.5;" x1="100.5" x2="205.5" y1="326" y2="326"/><line style="stroke:#181818;stroke-width:0.5;" x1="100.5" x2="205.5" y1="334" y2="334"/></g><!--class Luz--><g id="elem_Luz"><rect fill="#F1F1F1" height="48" id="Luz" rx="2.5" ry="2.5" style="stroke:#181818;stroke-width:0.5;" width="54" x="332" y="294"/><ellipse cx="347" cy="310" fill="#ADD1B2" rx="11" ry="11" style="stroke:#181818;stroke-width:1.0;"/><path d="M349.7656,305.875 Q349.9219,305.6563 350.1094,305.5469 Q350.2969,305.4375 350.5156,305.4375 Q350.8906,305.4375 351.125,305.7031 Q351.3594,305.9531 351.3594,306.5625 L351.3594,308.0156 Q351.3594,308.625 351.125,308.8906 Q350.8906,309.1563 350.5156,309.1563 Q350.1719,309.1563 349.9688,308.9531 Q349.7656,308.7656 349.6563,308.25 Q349.6094,307.8906 349.4219,307.7031 Q349.0938,307.3281 348.4844,307.1094 Q347.875,306.8906 347.25,306.8906 Q346.4844,306.8906 345.8438,307.2188 Q345.2188,307.5469 344.7188,308.2969 Q344.2344,309.0469 344.2344,310.0781 L344.2344,311.1719 Q344.2344,312.4063 345.125,313.2344 Q346.0156,314.0469 347.6094,314.0469 Q348.5469,314.0469 349.2031,313.7969 Q349.5938,313.6406 350.0156,313.2031 Q350.2813,312.9375 350.4219,312.8594 Q350.5781,312.7813 350.7813,312.7813 Q351.1094,312.7813 351.3594,313.0469 Q351.625,313.2969 351.625,313.6406 Q351.625,313.9844 351.2813,314.3906 Q350.7813,314.9688 349.9844,315.2969 Q348.9063,315.75 347.6094,315.75 Q346.0938,315.75 344.8906,315.125 Q343.9063,314.625 343.2188,313.5625 Q342.5313,312.4844 342.5313,311.2031 L342.5313,310.0469 Q342.5313,308.7188 343.1406,307.5781 Q343.7656,306.4219 344.8594,305.8125 Q345.9531,305.1875 347.1875,305.1875 Q347.9219,305.1875 348.5625,305.3594 Q349.2188,305.5156 349.7656,305.875 Z " fill="#000000"/><text fill="#000000" font-family="sans-serif" font-size="14" lengthAdjust="spacing" textLength="22" x="361" y="315.7285">Luz</text><line style="stroke:#181818;stroke-width:0.5;" x1="333" x2="385" y1="326" y2="326"/><line style="stroke:#181818;stroke-width:0.5;" x1="333" x2="385" y1="334" y2="334"/></g><!--link Ilusi?n to Condiciones climaticas--><g id="link_Ilusi&#243;n_Condiciones climaticas"><path codeLine="4" d="M280,90.03 C280,112.17 280,145.44 280,167.67 " fill="none" id="Ilusi&#243;n-Condiciones climaticas" style="stroke:#181818;stroke-width:1.0;"/><text fill="#000000" font-family="sans-serif" font-size="13" lengthAdjust="spacing" textLength="93" x="281" y="134.4951">es generada por</text></g><!--link Ilusi?n to Observador--><g id="link_Ilusi&#243;n_Observador"><path codeLine="5" d="M243.67,72.97 C195.42,83.06 111.99,108.54 75,168 C48.24,211.01 93.58,264.16 125.58,293.95 " fill="none" id="Ilusi&#243;n-Observador" style="stroke:#181818;stroke-width:1.0;"/><text fill="#000000" font-family="sans-serif" font-size="13" lengthAdjust="spacing" textLength="98" x="76" y="197.4951">es observada por</text></g><!--link Ilusi?n to Luz--><g id="link_Ilusi&#243;n_Luz"><path codeLine="6" d="M316.21,75.58 C339.5,83.14 368.11,96.7 383,120 C417.79,174.44 388.74,254.81 370.71,293.93 " fill="none" id="Ilusi&#243;n-Luz" style="stroke:#181818;stroke-width:1.0;"/><text fill="#000000" font-family="sans-serif" font-size="13" lengthAdjust="spacing" textLength="44" x="400" y="197.4951">refleleja</text></g><!--link Condiciones climaticas to Luz--><g id="link_Condiciones climaticas_Luz"><path codeLine="7" d="M294.67,216.03 C308.77,238.17 329.97,271.44 344.14,293.67 " fill="none" id="Condiciones climaticas-Luz" style="stroke:#181818;stroke-width:1.0;stroke-dasharray:7.0,7.0;"/><text fill="#000000" font-family="sans-serif" font-size="13" lengthAdjust="spacing" textLength="35" x="325" y="260.4951">afecta</text></g><!--link Condiciones climaticas to Observador--><g id="link_Condiciones climaticas_Observador"><path codeLine="8" d="M256.41,216.03 C233.74,238.17 199.66,271.44 176.89,293.67 " fill="none" id="Condiciones climaticas-Observador" style="stroke:#181818;stroke-width:1.0;stroke-dasharray:7.0,7.0;"/><text fill="#000000" font-family="sans-serif" font-size="13" lengthAdjust="spacing" textLength="35" x="225" y="260.4951">afecta</text></g><!--SRC=[ZOvD2i9038NtFKN8lZs0Mt4X27g5E9EMrEcaJ5eNYgVo25xCln5HL7ohlCVxmWC0M97RKCE0C-kv5UiKzqK1MVCmcfoE4SeISAhHYnEDRE22T3I88qEO05wIXYCdyWIz9lpuOBasJblocZAYEVZ1BCRTjPou3XoufMVhwvogUb1Kinl-H5x7lPEtut2tPm00]--></g></svg>