<?xml version="1.0" encoding="us-ascii" standalone="no"?><svg xmlns="http://www.w3.org/2000/svg" xmlns:xlink="http://www.w3.org/1999/xlink" contentStyleType="text/css" height="491px" preserveAspectRatio="none" style="width:248px;height:491px;background:#FFFFFF;" version="1.1" viewBox="0 0 248 491" width="248px" zoomAndPan="magnify"><defs/><g><!--cluster Liderazgo--><g id="cluster_Liderazgo"><path d="M8.5,6 L78.5,6 A3.75,3.75 0 0 1 81,8.5 L88,29.6094 L238.5,29.6094 A2.5,2.5 0 0 1 241,32.1094 L241,481.5 A2.5,2.5 0 0 1 238.5,484 L8.5,484 A2.5,2.5 0 0 1 6,481.5 L6,8.5 A2.5,2.5 0 0 1 8.5,6 " fill="none" style="stroke:#000000;stroke-width:1.5;"/><line style="stroke:#000000;stroke-width:1.5;" x1="6" x2="88" y1="29.6094" y2="29.6094"/><text fill="#000000" font-family="sans-serif" font-size="14" font-weight="bold" lengthAdjust="spacing" textLength="69" x="10" y="22.5332">Liderazgo</text></g><!--class Lider--><g id="elem_Lider"><rect fill="#F1F1F1" height="48" id="Lider" rx="2.5" ry="2.5" style="stroke:#181818;stroke-width:0.5;" width="64" x="45" y="42"/><ellipse cx="60" cy="58" fill="#ADD1B2" rx="11" ry="11" style="stroke:#181818;stroke-width:1.0;"/><path d="M62.7656,53.875 Q62.9219,53.6563 63.1094,53.5469 Q63.2969,53.4375 63.5156,53.4375 Q63.8906,53.4375 64.125,53.7031 Q64.3594,53.9531 64.3594,54.5625 L64.3594,56.0156 Q64.3594,56.625 64.125,56.8906 Q63.8906,57.1563 63.5156,57.1563 Q63.1719,57.1563 62.9688,56.9531 Q62.7656,56.7656 62.6563,56.25 Q62.6094,55.8906 62.4219,55.7031 Q62.0938,55.3281 61.4844,55.1094 Q60.875,54.8906 60.25,54.8906 Q59.4844,54.8906 58.8438,55.2188 Q58.2188,55.5469 57.7188,56.2969 Q57.2344,57.0469 57.2344,58.0781 L57.2344,59.1719 Q57.2344,60.4063 58.125,61.2344 Q59.0156,62.0469 60.6094,62.0469 Q61.5469,62.0469 62.2031,61.7969 Q62.5938,61.6406 63.0156,61.2031 Q63.2813,60.9375 63.4219,60.8594 Q63.5781,60.7813 63.7813,60.7813 Q64.1094,60.7813 64.3594,61.0469 Q64.625,61.2969 64.625,61.6406 Q64.625,61.9844 64.2813,62.3906 Q63.7813,62.9688 62.9844,63.2969 Q61.9063,63.75 60.6094,63.75 Q59.0938,63.75 57.8906,63.125 Q56.9063,62.625 56.2188,61.5625 Q55.5313,60.4844 55.5313,59.2031 L55.5313,58.0469 Q55.5313,56.7188 56.1406,55.5781 Q56.7656,54.4219 57.8594,53.8125 Q58.9531,53.1875 60.1875,53.1875 Q60.9219,53.1875 61.5625,53.3594 Q62.2188,53.5156 62.7656,53.875 Z " fill="#000000"/><text fill="#000000" font-family="sans-serif" font-size="14" lengthAdjust="spacing" textLength="32" x="74" y="63.7285">Lider</text><line style="stroke:#181818;stroke-width:0.5;" x1="46" x2="108" y1="74" y2="74"/><line style="stroke:#181818;stroke-width:0.5;" x1="46" x2="108" y1="82" y2="82"/></g><!--class Equipo--><g id="elem_Equipo"><rect fill="#F1F1F1" height="48" id="Equipo" rx="2.5" ry="2.5" style="stroke:#181818;stroke-width:0.5;" width="76" x="62" y="294"/><ellipse cx="77" cy="310" fill="#ADD1B2" rx="11" ry="11" style="stroke:#181818;stroke-width:1.0;"/><path d="M79.7656,305.875 Q79.9219,305.6563 80.1094,305.5469 Q80.2969,305.4375 80.5156,305.4375 Q80.8906,305.4375 81.125,305.7031 Q81.3594,305.9531 81.3594,306.5625 L81.3594,308.0156 Q81.3594,308.625 81.125,308.8906 Q80.8906,309.1563 80.5156,309.1563 Q80.1719,309.1563 79.9688,308.9531 Q79.7656,308.7656 79.6563,308.25 Q79.6094,307.8906 79.4219,307.7031 Q79.0938,307.3281 78.4844,307.1094 Q77.875,306.8906 77.25,306.8906 Q76.4844,306.8906 75.8438,307.2188 Q75.2188,307.5469 74.7188,308.2969 Q74.2344,309.0469 74.2344,310.0781 L74.2344,311.1719 Q74.2344,312.4063 75.125,313.2344 Q76.0156,314.0469 77.6094,314.0469 Q78.5469,314.0469 79.2031,313.7969 Q79.5938,313.6406 80.0156,313.2031 Q80.2813,312.9375 80.4219,312.8594 Q80.5781,312.7813 80.7813,312.7813 Q81.1094,312.7813 81.3594,313.0469 Q81.625,313.2969 81.625,313.6406 Q81.625,313.9844 81.2813,314.3906 Q80.7813,314.9688 79.9844,315.2969 Q78.9063,315.75 77.6094,315.75 Q76.0938,315.75 74.8906,315.125 Q73.9063,314.625 73.2188,313.5625 Q72.5313,312.4844 72.5313,311.2031 L72.5313,310.0469 Q72.5313,308.7188 73.1406,307.5781 Q73.7656,306.4219 74.8594,305.8125 Q75.9531,305.1875 77.1875,305.1875 Q77.9219,305.1875 78.5625,305.3594 Q79.2188,305.5156 79.7656,305.875 Z " fill="#000000"/><text fill="#000000" font-family="sans-serif" font-size="14" lengthAdjust="spacing" textLength="44" x="91" y="315.7285">Equipo</text><line style="stroke:#181818;stroke-width:0.5;" x1="63" x2="137" y1="326" y2="326"/><line style="stroke:#181818;stroke-width:0.5;" x1="63" x2="137" y1="334" y2="334"/></g><!--class Objetivo--><g id="elem_Objetivo"><rect fill="#F1F1F1" height="48" id="Objetivo" rx="2.5" ry="2.5" style="stroke:#181818;stroke-width:0.5;" width="84" x="58" y="420"/><ellipse cx="73" cy="436" fill="#ADD1B2" rx="11" ry="11" style="stroke:#181818;stroke-width:1.0;"/><path d="M75.7656,431.875 Q75.9219,431.6563 76.1094,431.5469 Q76.2969,431.4375 76.5156,431.4375 Q76.8906,431.4375 77.125,431.7031 Q77.3594,431.9531 77.3594,432.5625 L77.3594,434.0156 Q77.3594,434.625 77.125,434.8906 Q76.8906,435.1563 76.5156,435.1563 Q76.1719,435.1563 75.9688,434.9531 Q75.7656,434.7656 75.6563,434.25 Q75.6094,433.8906 75.4219,433.7031 Q75.0938,433.3281 74.4844,433.1094 Q73.875,432.8906 73.25,432.8906 Q72.4844,432.8906 71.8438,433.2188 Q71.2188,433.5469 70.7188,434.2969 Q70.2344,435.0469 70.2344,436.0781 L70.2344,437.1719 Q70.2344,438.4063 71.125,439.2344 Q72.0156,440.0469 73.6094,440.0469 Q74.5469,440.0469 75.2031,439.7969 Q75.5938,439.6406 76.0156,439.2031 Q76.2813,438.9375 76.4219,438.8594 Q76.5781,438.7813 76.7813,438.7813 Q77.1094,438.7813 77.3594,439.0469 Q77.625,439.2969 77.625,439.6406 Q77.625,439.9844 77.2813,440.3906 Q76.7813,440.9688 75.9844,441.2969 Q74.9063,441.75 73.6094,441.75 Q72.0938,441.75 70.8906,441.125 Q69.9063,440.625 69.2188,439.5625 Q68.5313,438.4844 68.5313,437.2031 L68.5313,436.0469 Q68.5313,434.7188 69.1406,433.5781 Q69.7656,432.4219 70.8594,431.8125 Q71.9531,431.1875 73.1875,431.1875 Q73.9219,431.1875 74.5625,431.3594 Q75.2188,431.5156 75.7656,431.875 Z " fill="#000000"/><text fill="#000000" font-family="sans-serif" font-size="14" lengthAdjust="spacing" textLength="52" x="87" y="441.7285">Objetivo</text><line style="stroke:#181818;stroke-width:0.5;" x1="59" x2="141" y1="452" y2="452"/><line style="stroke:#181818;stroke-width:0.5;" x1="59" x2="141" y1="460" y2="460"/></g><!--class Motivacion--><g id="elem_Motivacion"><rect fill="#F1F1F1" height="48" id="Motivacion" rx="2.5" ry="2.5" style="stroke:#181818;stroke-width:0.5;" width="99" x="125.5" y="168"/><ellipse cx="140.5" cy="184" fill="#ADD1B2" rx="11" ry="11" style="stroke:#181818;stroke-width:1.0;"/><path d="M143.2656,179.875 Q143.4219,179.6563 143.6094,179.5469 Q143.7969,179.4375 144.0156,179.4375 Q144.3906,179.4375 144.625,179.7031 Q144.8594,179.9531 144.8594,180.5625 L144.8594,182.0156 Q144.8594,182.625 144.625,182.8906 Q144.3906,183.1563 144.0156,183.1563 Q143.6719,183.1563 143.4688,182.9531 Q143.2656,182.7656 143.1563,182.25 Q143.1094,181.8906 142.9219,181.7031 Q142.5938,181.3281 141.9844,181.1094 Q141.375,180.8906 140.75,180.8906 Q139.9844,180.8906 139.3438,181.2188 Q138.7188,181.5469 138.2188,182.2969 Q137.7344,183.0469 137.7344,184.0781 L137.7344,185.1719 Q137.7344,186.4063 138.625,187.2344 Q139.5156,188.0469 141.1094,188.0469 Q142.0469,188.0469 142.7031,187.7969 Q143.0938,187.6406 143.5156,187.2031 Q143.7813,186.9375 143.9219,186.8594 Q144.0781,186.7813 144.2813,186.7813 Q144.6094,186.7813 144.8594,187.0469 Q145.125,187.2969 145.125,187.6406 Q145.125,187.9844 144.7813,188.3906 Q144.2813,188.9688 143.4844,189.2969 Q142.4063,189.75 141.1094,189.75 Q139.5938,189.75 138.3906,189.125 Q137.4063,188.625 136.7188,187.5625 Q136.0313,186.4844 136.0313,185.2031 L136.0313,184.0469 Q136.0313,182.7188 136.6406,181.5781 Q137.2656,180.4219 138.3594,179.8125 Q139.4531,179.1875 140.6875,179.1875 Q141.4219,179.1875 142.0625,179.3594 Q142.7188,179.5156 143.2656,179.875 Z " fill="#000000"/><text fill="#000000" font-family="sans-serif" font-size="14" lengthAdjust="spacing" textLength="67" x="154.5" y="189.7285">Motivacion</text><line style="stroke:#181818;stroke-width:0.5;" x1="126.5" x2="223.5" y1="200" y2="200"/><line style="stroke:#181818;stroke-width:0.5;" x1="126.5" x2="223.5" y1="208" y2="208"/></g><!--link Lider to Equipo--><g id="link_Lider_Equipo"><path codeLine="3" d="M74.78,90.08 C72.38,119.45 69.6,171.7 75,216 C78.3,243.08 86.41,273.35 92.5,293.63 " fill="none" id="Lider-Equipo" style="stroke:#181818;stroke-width:1.0;"/><text fill="#000000" font-family="sans-serif" font-size="13" lengthAdjust="spacing" textLength="31" x="76" y="197.4951">lidera</text></g><!--link Equipo to Objetivo--><g id="link_Equipo_Objetivo"><path codeLine="4" d="M100,342.03 C100,364.17 100,397.44 100,419.67 " fill="none" id="Equipo-Objetivo" style="stroke:#181818;stroke-width:1.0;"/><text fill="#000000" font-family="sans-serif" font-size="13" lengthAdjust="spacing" textLength="74" x="101" y="386.4951">trabaja hacia</text></g><!--link Lider to Motivacion--><g id="link_Lider_Motivacion"><path codeLine="5" d="M95.2,90.03 C112.7,112.17 138.99,145.44 156.56,167.67 " fill="none" id="Lider-Motivacion" style="stroke:#181818;stroke-width:1.0;"/><text fill="#000000" font-family="sans-serif" font-size="13" lengthAdjust="spacing" textLength="67" x="132" y="134.4951">proporciona</text></g><!--link Motivacion to Equipo--><g id="link_Motivacion_Equipo"><path codeLine="6" d="M161.07,216.03 C147.68,238.17 127.56,271.44 114.11,293.67 " fill="none" id="Motivacion-Equipo" style="stroke:#181818;stroke-width:1.0;"/><text fill="#000000" font-family="sans-serif" font-size="13" lengthAdjust="spacing" textLength="37" x="142" y="260.4951">influye</text></g><!--SRC=[LSv13aH040NGlLFyzDu5xEr6k48nZK9Kwp3947VNcaYhtQ__KYa0AAZggT5G7_vgIsiZ2bk4U_mISOnqMjW84gZ1E_MGkt4cBpizyy-hsL997Q6bYWFytCl4ITV9U6fZnOWzKs03ydg0ntfO_lg2UtG0]--></g></svg>