<?xml version="1.0" encoding="us-ascii" standalone="no"?><svg xmlns="http://www.w3.org/2000/svg" xmlns:xlink="http://www.w3.org/1999/xlink" contentStyleType="text/css" height="398px" preserveAspectRatio="none" style="width:483px;height:398px;background:#FFFFFF;" version="1.1" viewBox="0 0 483 398" width="483px" zoomAndPan="magnify"><defs/><g><g id="elem_F"><rect fill="#F1F1F1" height="37.6094" style="stroke:#181818;stroke-width:0.5;" width="115" x="216.46" y="7"/><text fill="#000000" font-family="sans-serif" font-size="14" lengthAdjust="spacing" textLength="101" x="223.46" y="23.5332">foco : Luminaria</text><line style="stroke:#181818;stroke-width:0.5;" x1="217.46" x2="330.46" y1="28.6094" y2="28.6094"/></g><g id="elem_O1"><rect fill="#F1F1F1" height="37.6094" style="stroke:#181818;stroke-width:0.5;" width="120" x="100.96" y="123"/><text fill="#000000" font-family="sans-serif" font-size="14" lengthAdjust="spacing" textLength="106" x="107.96" y="139.5332">objeto_1 : objeto</text><line style="stroke:#181818;stroke-width:0.5;" x1="101.96" x2="219.96" y1="144.6094" y2="144.6094"/></g><g id="elem_O2"><rect fill="#F1F1F1" height="37.6094" style="stroke:#181818;stroke-width:0.5;" width="120" x="255.96" y="123"/><text fill="#000000" font-family="sans-serif" font-size="14" lengthAdjust="spacing" textLength="106" x="262.96" y="139.5332">objeto_2 : objeto</text><line style="stroke:#181818;stroke-width:0.5;" x1="256.96" x2="374.96" y1="144.6094" y2="144.6094"/></g><g id="elem_S1"><rect fill="#F1F1F1" height="37.6094" style="stroke:#181818;stroke-width:0.5;" width="196" x="50.96" y="239"/><text fill="#000000" font-family="sans-serif" font-size="14" lengthAdjust="spacing" textLength="182" x="57.96" y="255.5332">sombraDeObjeto_1 : sombra</text><line style="stroke:#181818;stroke-width:0.5;" x1="51.96" x2="245.96" y1="260.6094" y2="260.6094"/></g><g id="elem_S2"><rect fill="#F1F1F1" height="37.6094" style="stroke:#181818;stroke-width:0.5;" width="196" x="281.96" y="239"/><text fill="#000000" font-family="sans-serif" font-size="14" lengthAdjust="spacing" textLength="182" x="288.96" y="255.5332">sombraDeObjeto_2 : sombra</text><line style="stroke:#181818;stroke-width:0.5;" x1="282.96" x2="476.96" y1="260.6094" y2="260.6094"/></g><g id="elem_W"><rect fill="#F1F1F1" height="37.6094" style="stroke:#181818;stroke-width:0.5;" width="102" x="212.96" y="355"/><text fill="#000000" font-family="sans-serif" font-size="14" lengthAdjust="spacing" textLength="88" x="219.96" y="371.5332">pared : objeto</text><line style="stroke:#181818;stroke-width:0.5;" x1="213.96" x2="313.96" y1="376.6094" y2="376.6094"/></g><!--link F to O1--><g id="link_F_O1"><path codeLine="8" d="M256.06,45.06 C235.02,66.28 204.5446,97.0394 183.3846,118.3794 " fill="none" id="F-to-O1" style="stroke:#181818;stroke-width:1.0;"/><polygon fill="#181818" points="179.16,122.64,188.3373,119.0656,182.6805,119.0895,182.6566,113.4327,179.16,122.64" style="stroke:#181818;stroke-width:1.0;"/><text fill="#000000" font-family="sans-serif" font-size="13" lengthAdjust="spacing" textLength="41" x="224.96" y="89.4951">ilumina</text></g><!--link F to O2--><g id="link_F_O2"><path codeLine="9" d="M280.62,45.06 C288.44,66.28 299.2663,95.6698 307.1263,117.0098 " fill="none" id="F-to-O2" style="stroke:#181818;stroke-width:1.0;"/><polygon fill="#181818" points="309.2,122.64,309.8429,112.8121,307.4719,117.9481,302.3359,115.5771,309.2,122.64" style="stroke:#181818;stroke-width:1.0;"/><text fill="#000000" font-family="sans-serif" font-size="13" lengthAdjust="spacing" textLength="91" x="297.96" y="89.4951">tambi&#233;n ilumina</text></g><!--link F to S1--><g id="link_F_S1"><path codeLine="10" d="M216.28,32.33 C159.62,40.97 76.03,63.64 35.96,123 C6,167.39 65.4452,211.095 108.7752,235.945 " fill="none" id="F-to-S1" style="stroke:#181818;stroke-width:1.0;stroke-dasharray:7.0,7.0;"/><polygon fill="#181818" points="113.98,238.93,108.1628,230.9827,109.6427,236.4425,104.1828,237.9224,113.98,238.93" style="stroke:#181818;stroke-width:1.0;"/><text fill="#000000" font-family="sans-serif" font-size="13" lengthAdjust="spacing" textLength="46" x="36.96" y="147.4951">produce</text></g><!--link F to S2--><g id="link_F_S2"><path codeLine="11" d="M331.6,35.43 C355.95,42.05 382.26,53.88 397.96,75 C433.58,122.9 422.09,151.26 406.96,209 C404.2,219.54 401.7417,225.1457 396.3217,233.7357 " fill="none" id="F-to-S2" style="stroke:#181818;stroke-width:1.0;stroke-dasharray:7.0,7.0;"/><polygon fill="#181818" points="393.12,238.81,401.3055,233.333,395.7881,234.5814,394.5397,229.064,393.12,238.81" style="stroke:#181818;stroke-width:1.0;"/><text fill="#000000" font-family="sans-serif" font-size="13" lengthAdjust="spacing" textLength="46" x="421.96" y="147.4951">produce</text></g><!--link O1 to S1--><g id="link_O1_S1"><path codeLine="12" d="M159.06,161.06 C156.83,182.28 153.7664,211.3328 151.5264,232.6728 " fill="none" id="O1-to-S1" style="stroke:#181818;stroke-width:1.0;"/><polygon fill="#181818" points="150.9,238.64,155.8177,230.1068,151.422,233.6673,147.8614,229.2716,150.9,238.64" style="stroke:#181818;stroke-width:1.0;"/><text fill="#000000" font-family="sans-serif" font-size="13" lengthAdjust="spacing" textLength="46" x="155.96" y="205.4951">produce</text></g><!--link O2 to S2--><g id="link_O2_S2"><path codeLine="13" d="M326.1,161.06 C338.02,182.28 354.731,212.0691 366.721,233.4091 " fill="none" id="O2-to-S2" style="stroke:#181818;stroke-width:1.0;"/><polygon fill="#181818" points="369.66,238.64,368.7388,228.8343,367.2108,234.2809,361.7642,232.753,369.66,238.64" style="stroke:#181818;stroke-width:1.0;"/><text fill="#000000" font-family="sans-serif" font-size="13" lengthAdjust="spacing" textLength="46" x="351.96" y="205.4951">produce</text></g><!--link S1 to W--><g id="link_S1_W"><path codeLine="14" d="M167.18,277.06 C188.59,298.28 219.6476,329.0772 241.1876,350.4172 " fill="none" id="S1-to-W" style="stroke:#181818;stroke-width:1.0;"/><polygon fill="#181818" points="245.45,354.64,241.8716,345.4642,241.898,351.121,236.2412,351.1474,245.45,354.64" style="stroke:#181818;stroke-width:1.0;"/><text fill="#000000" font-family="sans-serif" font-size="13" lengthAdjust="spacing" textLength="50" x="213.96" y="321.4951">proyecta</text></g><!--link S2 to W--><g id="link_S2_W"><path codeLine="15" d="M361.58,277.06 C339.99,298.28 308.6399,329.095 286.9199,350.435 " fill="none" id="S2-to-W" style="stroke:#181818;stroke-width:1.0;"/><polygon fill="#181818" points="282.64,354.64,291.8632,351.1857,286.2066,351.1358,286.2565,345.4792,282.64,354.64" style="stroke:#181818;stroke-width:1.0;"/><text fill="#000000" font-family="sans-serif" font-size="13" lengthAdjust="spacing" textLength="50" x="328.96" y="321.4951">proyecta</text></g><!--SRC=[TOyn3eCm34NtdCBA3X8PEp1LJ9KO61XHW5HALJ0AOUYHUevUh4wWq4JjbEZzfsyRsvlgBF0hTWWdk2o37gNHaeESeM2unUwrs6Iah5-VbraiY4WGkp3Zq1fvLkNHj28lLja_KKJYqJX9e_fmNirO0KcIqsOKS7ttv_0FT5tSog7Lh-S8NscQvhI2IoU3_TAf7Oe0KgqhYbJgzJHqgzMjD_YWdMbM9NxGDm00]--></g></svg>