<?xml version="1.0" encoding="us-ascii" standalone="no"?><svg xmlns="http://www.w3.org/2000/svg" xmlns:xlink="http://www.w3.org/1999/xlink" contentStyleType="text/css" height="630px" preserveAspectRatio="none" style="width:352px;height:630px;background:#FFFFFF;" version="1.1" viewBox="0 0 352 630" width="352px" zoomAndPan="magnify"><defs/><g><g id="elem_inventor"><rect fill="#F1F1F1" height="37.6094" style="stroke:#181818;stroke-width:0.5;" width="128" x="24" y="7"/><text fill="#000000" font-family="sans-serif" font-size="14" lengthAdjust="spacing" textLength="114" x="31" y="23.5332">inventor : Inventor</text><line style="stroke:#181818;stroke-width:0.5;" x1="25" x2="151" y1="28.6094" y2="28.6094"/></g><g id="elem_idea"><rect fill="#F1F1F1" height="37.6094" style="stroke:#181818;stroke-width:0.5;" width="80" x="48" y="239"/><text fill="#000000" font-family="sans-serif" font-size="14" lengthAdjust="spacing" textLength="66" x="55" y="255.5332">idea : Idea</text><line style="stroke:#181818;stroke-width:0.5;" x1="49" x2="127" y1="260.6094" y2="260.6094"/></g><g id="elem_tecnologia"><rect fill="#F1F1F1" height="37.6094" style="stroke:#181818;stroke-width:0.5;" width="161" x="185.5" y="123"/><text fill="#000000" font-family="sans-serif" font-size="14" lengthAdjust="spacing" textLength="147" x="192.5" y="139.5332">tecnologia : Tecnologia</text><line style="stroke:#181818;stroke-width:0.5;" x1="186.5" x2="345.5" y1="144.6094" y2="144.6094"/></g><g id="elem_prototipo"><rect fill="#F1F1F1" height="37.6094" style="stroke:#181818;stroke-width:0.5;" width="139" x="18.5" y="355"/><text fill="#000000" font-family="sans-serif" font-size="14" lengthAdjust="spacing" textLength="125" x="25.5" y="371.5332">prototipo : Prototipo</text><line style="stroke:#181818;stroke-width:0.5;" x1="19.5" x2="156.5" y1="376.6094" y2="376.6094"/></g><g id="elem_mercado"><rect fill="#F1F1F1" height="37.6094" style="stroke:#181818;stroke-width:0.5;" width="136" x="20" y="471"/><text fill="#000000" font-family="sans-serif" font-size="14" lengthAdjust="spacing" textLength="122" x="27" y="487.5332">mercado : Mercado</text><line style="stroke:#181818;stroke-width:0.5;" x1="21" x2="155" y1="492.6094" y2="492.6094"/></g><g id="elem_innovacion"><rect fill="#F1F1F1" height="37.6094" style="stroke:#181818;stroke-width:0.5;" width="162" x="7" y="587"/><text fill="#000000" font-family="sans-serif" font-size="14" lengthAdjust="spacing" textLength="148" x="14" y="603.5332">innovacion : Innovaci&#243;n</text><line style="stroke:#181818;stroke-width:0.5;" x1="8" x2="168" y1="608.6094" y2="608.6094"/></g><!--link inventor to idea--><g id="link_inventor_idea"><path codeLine="19" d="M85.27,45.35 C82.54,64.63 78.55,95.87 77,123 C74.63,164.48 79.9423,207.1322 83.9723,232.8822 " fill="none" id="inventor-to-idea" style="stroke:#181818;stroke-width:1.0;"/><polygon fill="#181818" points="84.9,238.81,87.4603,229.2997,84.1269,233.8701,79.5565,230.5367,84.9,238.81" style="stroke:#181818;stroke-width:1.0;"/><polygon fill="#000000" points="81.9654,147.1757,84.9668,138.1511,79.0891,138.1105,81.9654,147.1757" style="stroke:#000000;stroke-width:1.0;"/><text fill="#000000" font-family="sans-serif" font-size="13" lengthAdjust="spacing" textLength="76" x="91" y="147.4951">crea / genera</text></g><!--link inventor to tecnologia--><g id="link_inventor_tecnologia"><path codeLine="20" d="M116.2,45.06 C149.44,66.35 199.2776,98.2637 232.5776,119.5937 " fill="none" id="inventor-to-tecnologia" style="stroke:#181818;stroke-width:1.0;"/><polygon fill="#181818" points="237.63,122.83,232.2089,114.6074,233.4197,120.1331,227.8939,121.3439,237.63,122.83" style="stroke:#181818;stroke-width:1.0;"/><polygon fill="#000000" points="197.2105,86.8724,191.1787,79.5193,188.0086,84.4691,197.2105,86.8724" style="stroke:#000000;stroke-width:1.0;"/><text fill="#000000" font-family="sans-serif" font-size="13" lengthAdjust="spacing" textLength="34" x="202" y="89.4951">utiliza</text></g><!--link tecnologia to idea--><g id="link_tecnologia_idea"><path codeLine="21" d="M237.8,161.06 C204.56,182.35 154.7224,214.2637 121.4224,235.5937 " fill="none" id="tecnologia-to-idea" style="stroke:#181818;stroke-width:1.0;"/><polygon fill="#181818" points="116.37,238.83,126.1061,237.3439,120.5803,236.1331,121.7911,230.6074,116.37,238.83" style="stroke:#181818;stroke-width:1.0;"/><polygon fill="#000000" points="188.7895,202.8724,197.9914,200.4691,194.8213,195.5193,188.7895,202.8724" style="stroke:#000000;stroke-width:1.0;"/><text fill="#000000" font-family="sans-serif" font-size="13" lengthAdjust="spacing" textLength="56" x="202" y="205.4951">desarrolla</text></g><!--link idea to prototipo--><g id="link_idea_prototipo"><path codeLine="22" d="M88,277.06 C88,298.28 88,327.3 88,348.64 " fill="none" id="idea-to-prototipo" style="stroke:#181818;stroke-width:1.0;"/><polygon fill="#181818" points="88,354.64,92,345.64,88,349.64,84,345.64,88,354.64" style="stroke:#181818;stroke-width:1.0;"/><polygon fill="#000000" points="93,321.1758,95.9389,312.1307,90.0611,312.1307,93,321.1758" style="stroke:#000000;stroke-width:1.0;"/><text fill="#000000" font-family="sans-serif" font-size="13" lengthAdjust="spacing" textLength="25" x="102" y="321.4951">crea</text></g><!--link prototipo to mercado--><g id="link_prototipo_mercado"><path codeLine="23" d="M53.01,393.14 C34.75,405.25 17.94,422.33 27,441 C32.95,453.24 38.7942,459.8314 49.6342,467.5114 " fill="none" id="prototipo-to-mercado" style="stroke:#181818;stroke-width:1.0;"/><polygon fill="#181818" points="54.53,470.98,49.4987,462.5132,50.4502,468.0895,44.8739,469.041,54.53,470.98" style="stroke:#181818;stroke-width:1.0;"/><polygon fill="#000000" points="31.7733,437.1706,35.1193,428.2681,29.2475,428.0016,31.7733,437.1706" style="stroke:#000000;stroke-width:1.0;"/><text fill="#000000" font-family="sans-serif" font-size="13" lengthAdjust="spacing" textLength="61" x="41" y="437.4951">presenta a</text></g><!--link mercado to prototipo--><g id="link_mercado_prototipo"><path codeLine="24" d="M98.09,470.73 C104.15,457.6 110.13,439.4 107,423 C105.05,412.79 103.4028,407.4547 99.5128,398.6847 " fill="none" id="mercado-to-prototipo" style="stroke:#181818;stroke-width:1.0;"/><polygon fill="#181818" points="97.08,393.2,97.0727,403.0489,99.1073,397.7706,104.3856,399.8052,97.08,393.2" style="stroke:#181818;stroke-width:1.0;"/><polygon fill="#000000" points="113.0987,427.1768,109.9818,436.1621,115.8585,436.2781,113.0987,427.1768" style="stroke:#000000;stroke-width:1.0;"/><text fill="#000000" font-family="sans-serif" font-size="13" lengthAdjust="spacing" textLength="36" x="122" y="437.4951">eval&#250;a</text></g><!--link mercado to innovacion--><g id="link_mercado_innovacion"><path codeLine="25" d="M88,509.06 C88,530.28 88,559.3 88,580.64 " fill="none" id="mercado-to-innovacion" style="stroke:#181818;stroke-width:1.0;"/><polygon fill="#181818" points="88,586.64,92,577.64,88,581.64,84,577.64,88,586.64" style="stroke:#181818;stroke-width:1.0;"/><polygon fill="#000000" points="93,553.1758,95.9389,544.1307,90.0611,544.1307,93,553.1758" style="stroke:#000000;stroke-width:1.0;"/><text fill="#000000" font-family="sans-serif" font-size="13" lengthAdjust="spacing" textLength="39" x="102" y="553.4951">genera</text></g><!--SRC=[PP0z3i8m38NtdiBANh4pT6T0Ok028RMge11NQUW0ubHihBqO-MdIH9rY-trs_4otEmeBJEePjIK3HpYj8GC-GQw_cq_JKA9xv9vqJwHyNX4MXIP5W_JSDIU1BhIgPpHaoSgHNCibnQ5ZKwg61nh1Uu-VOnJWLAqtrffcBYJfu30corUl9hCOchBfjkrWzSg4SUy11jHeE7IifYg_x6cbagz05K8vhSU96qDAnL6-wkNo1F57fsv5ZsoctS5mSYjm25WITdDmvchvxPZg92px-WC0]--></g></svg>