<svg xmlns="http://www.w3.org/2000/svg" xmlns:xlink="http://www.w3.org/1999/xlink" contentStyleType="text/css" height="893px" preserveAspectRatio="none" style="width:302px;height:893px;background:#FFFFFF;" version="1.1" viewBox="0 0 302 893" width="302px" zoomAndPan="magnify"><defs/><g><ellipse cx="121.91" cy="16" fill="#222222" rx="10" ry="10" style="stroke:#222222;stroke-width:1.0;"/><g id="Identificacion_de_Alternativas"><rect fill="#F1F1F1" height="50" rx="12.5" ry="12.5" style="stroke:#181818;stroke-width:0.5;" width="229.8154" x="7" y="103"/><line style="stroke:#181818;stroke-width:0.5;" x1="7" x2="236.8154" y1="129.2969" y2="129.2969"/><text fill="#000000" font-family="sans-serif" font-size="14" lengthAdjust="spacing" textLength="209.8154" x="17" y="120.9951">Identificacion_de_Alternativas</text></g><g id="Evaluacion_de_Criterios"><rect fill="#F1F1F1" height="50" rx="12.5" ry="12.5" style="stroke:#181818;stroke-width:0.5;" width="186.6055" x="28.6" y="230"/><line style="stroke:#181818;stroke-width:0.5;" x1="28.6" x2="215.2055" y1="256.2969" y2="256.2969"/><text fill="#000000" font-family="sans-serif" font-size="14" lengthAdjust="spacing" textLength="166.6055" x="38.6" y="247.9951">Evaluacion_de_Criterios</text></g><g id="Analisis_de_Consecuencias"><rect fill="#F1F1F1" height="50" rx="12.5" ry="12.5" style="stroke:#181818;stroke-width:0.5;" width="209.4238" x="17.2" y="357"/><line style="stroke:#181818;stroke-width:0.5;" x1="17.2" x2="226.6238" y1="383.2969" y2="383.2969"/><text fill="#000000" font-family="sans-serif" font-size="14" lengthAdjust="spacing" textLength="189.4238" x="27.2" y="374.9951">Analisis_de_Consecuencias</text></g><g id="Toma_de_Decision"><rect fill="#F1F1F1" height="50" rx="12.5" ry="12.5" style="stroke:#181818;stroke-width:0.5;" width="150.4365" x="46.69" y="484"/><line style="stroke:#181818;stroke-width:0.5;" x1="46.69" x2="197.1265" y1="510.2969" y2="510.2969"/><text fill="#000000" font-family="sans-serif" font-size="14" lengthAdjust="spacing" textLength="130.4365" x="56.69" y="501.9951">Toma_de_Decision</text></g><g id="Implementacion"><rect fill="#F1F1F1" height="50" rx="12.5" ry="12.5" style="stroke:#181818;stroke-width:0.5;" width="133.374" x="55.22" y="611"/><line style="stroke:#181818;stroke-width:0.5;" x1="55.22" x2="188.594" y1="637.2969" y2="637.2969"/><text fill="#000000" font-family="sans-serif" font-size="14" lengthAdjust="spacing" textLength="113.374" x="65.22" y="628.9951">Implementacion</text></g><g id="Evaluacion"><rect fill="#F1F1F1" height="50" rx="12.5" ry="12.5" style="stroke:#181818;stroke-width:0.5;" width="96.0771" x="73.87" y="738"/><line style="stroke:#181818;stroke-width:0.5;" x1="73.87" x2="169.9471" y1="764.2969" y2="764.2969"/><text fill="#000000" font-family="sans-serif" font-size="14" lengthAdjust="spacing" textLength="76.0771" x="83.87" y="755.9951">Evaluacion</text></g><ellipse cx="121.91" cy="876" fill="none" rx="11" ry="11" style="stroke:#222222;stroke-width:1.0;"/><ellipse cx="121.91" cy="876" fill="#222222" rx="6" ry="6" style="stroke:#222222;stroke-width:1.0;"/><!--link *start* to Identificacion_de_Alternativas--><g id="link_*start*_Identificacion_de_Alternativas"><path d="M121.91,26.38 C121.91,43.11 121.91,72.59 121.91,96.63 " fill="none" id="*start*-to-Identificacion_de_Alternativas" style="stroke:#181818;stroke-width:1.0;"/><polygon fill="#181818" points="121.91,102.63,125.91,93.63,121.91,97.63,117.91,93.63,121.91,102.63" style="stroke:#181818;stroke-width:1.0;"/><text fill="#000000" font-family="sans-serif" font-size="13" lengthAdjust="spacing" textLength="34.4106" x="122.91" y="69.0669">Inicia</text></g><!--link Identificacion_de_Alternativas to Evaluacion_de_Criterios--><g id="link_Identificacion_de_Alternativas_Evaluacion_de_Criterios"><path d="M121.91,153.4 C121.91,175.42 121.91,201.66 121.91,223.66 " fill="none" id="Identificacion_de_Alternativas-to-Evaluacion_de_Criterios" style="stroke:#181818;stroke-width:1.0;"/><polygon fill="#181818" points="121.91,229.66,125.91,220.66,121.91,224.66,117.91,220.66,121.91,229.66" style="stroke:#181818;stroke-width:1.0;"/><text fill="#000000" font-family="sans-serif" font-size="13" lengthAdjust="spacing" textLength="143.4634" x="122.91" y="196.0669">Alternativas Definidas</text></g><!--link Evaluacion_de_Criterios to Analisis_de_Consecuencias--><g id="link_Evaluacion_de_Criterios_Analisis_de_Consecuencias"><path d="M121.91,280.4 C121.91,302.42 121.91,328.66 121.91,350.66 " fill="none" id="Evaluacion_de_Criterios-to-Analisis_de_Consecuencias" style="stroke:#181818;stroke-width:1.0;"/><polygon fill="#181818" points="121.91,356.66,125.91,347.66,121.91,351.66,117.91,347.66,121.91,356.66" style="stroke:#181818;stroke-width:1.0;"/><text fill="#000000" font-family="sans-serif" font-size="13" lengthAdjust="spacing" textLength="125.6138" x="122.91" y="323.0669">Criterios Evaluados</text></g><!--link Analisis_de_Consecuencias to Toma_de_Decision--><g id="link_Analisis_de_Consecuencias_Toma_de_Decision"><path d="M121.91,407.4 C121.91,429.42 121.91,455.66 121.91,477.66 " fill="none" id="Analisis_de_Consecuencias-to-Toma_de_Decision" style="stroke:#181818;stroke-width:1.0;"/><polygon fill="#181818" points="121.91,483.66,125.91,474.66,121.91,478.66,117.91,474.66,121.91,483.66" style="stroke:#181818;stroke-width:1.0;"/><text fill="#000000" font-family="sans-serif" font-size="13" lengthAdjust="spacing" textLength="171.3994" x="122.91" y="450.0669">Consecuencias Analizadas</text></g><!--link Toma_de_Decision to Implementacion--><g id="link_Toma_de_Decision_Implementacion"><path d="M121.91,534.4 C121.91,556.42 121.91,582.66 121.91,604.66 " fill="none" id="Toma_de_Decision-to-Implementacion" style="stroke:#181818;stroke-width:1.0;"/><polygon fill="#181818" points="121.91,610.66,125.91,601.66,121.91,605.66,117.91,601.66,121.91,610.66" style="stroke:#181818;stroke-width:1.0;"/><text fill="#000000" font-family="sans-serif" font-size="13" lengthAdjust="spacing" textLength="112.2202" x="122.91" y="577.0669">Decisi&#243;n Tomada</text></g><!--link Implementacion to Evaluacion--><g id="link_Implementacion_Evaluacion"><path d="M121.91,661.4 C121.91,683.42 121.91,709.66 121.91,731.66 " fill="none" id="Implementacion-to-Evaluacion" style="stroke:#181818;stroke-width:1.0;"/><polygon fill="#181818" points="121.91,737.66,125.91,728.66,121.91,732.66,117.91,728.66,121.91,737.66" style="stroke:#181818;stroke-width:1.0;"/><text fill="#000000" font-family="sans-serif" font-size="13" lengthAdjust="spacing" textLength="154.0195" x="122.91" y="704.0669">Decisi&#243;n Implementada</text></g><!--link Evaluacion to *end*--><g id="link_Evaluacion_*end*"><path d="M121.91,788.36 C121.91,812.23 121.91,841.46 121.91,858.71 " fill="none" id="Evaluacion-to-*end*" style="stroke:#181818;stroke-width:1.0;"/><polygon fill="#181818" points="121.91,864.71,125.91,855.71,121.91,859.71,117.91,855.71,121.91,864.71" style="stroke:#181818;stroke-width:1.0;"/><text fill="#000000" font-family="sans-serif" font-size="13" lengthAdjust="spacing" textLength="120.6563" x="122.91" y="831.0669">Proceso Finalizado</text></g><!--SRC=[XP512i9034NtFSMiXLwW2w5OXUvSk2iYOIQ5m3IHJkl2Qta4B-Pa57MGulg___WatUfeod9jMeSyKKyMB0cV79vgF-78CD45WgbCosG9YZ-SghONyFCxtemKSn9rP6Y3FJ4v2CLIGMKrWwT08IN20UsC78UexaC-3Kv2iSohxI03QDAWZP2mIZ8erQ-WgtxOTARXx7689qXpO_sPtc-St2uUA2VoWsI53nbhNunMklYMokn7iHZ4xEWrInu0]--></g></svg>