<?xml version="1.0" encoding="us-ascii" standalone="no"?><svg xmlns="http://www.w3.org/2000/svg" xmlns:xlink="http://www.w3.org/1999/xlink" contentStyleType="text/css" height="743px" preserveAspectRatio="none" style="width:308px;height:743px;background:#FFFFFF;" version="1.1" viewBox="0 0 308 743" width="308px" zoomAndPan="magnify"><defs/><g><!--cluster Innovaci?n--><g id="cluster_Innovaci&#243;n"><path d="M8.5,6 L87.5,6 A3.75,3.75 0 0 1 90,8.5 L97,29.6094 L298.5,29.6094 A2.5,2.5 0 0 1 301,32.1094 L301,733.5 A2.5,2.5 0 0 1 298.5,736 L8.5,736 A2.5,2.5 0 0 1 6,733.5 L6,8.5 A2.5,2.5 0 0 1 8.5,6 " fill="none" style="stroke:#000000;stroke-width:1.5;"/><line style="stroke:#000000;stroke-width:1.5;" x1="6" x2="97" y1="29.6094" y2="29.6094"/><text fill="#000000" font-family="sans-serif" font-size="14" font-weight="bold" lengthAdjust="spacing" textLength="78" x="10" y="22.5332">Innovaci&#243;n</text></g><!--class Inventor--><g id="elem_Inventor"><rect codeLine="3" fill="#F1F1F1" height="48" id="Inventor" rx="2.5" ry="2.5" style="stroke:#181818;stroke-width:0.5;" width="83" x="73.5" y="42"/><ellipse cx="88.5" cy="58" fill="#ADD1B2" rx="11" ry="11" style="stroke:#181818;stroke-width:1.0;"/><path d="M91.2656,53.875 Q91.4219,53.6563 91.6094,53.5469 Q91.7969,53.4375 92.0156,53.4375 Q92.3906,53.4375 92.625,53.7031 Q92.8594,53.9531 92.8594,54.5625 L92.8594,56.0156 Q92.8594,56.625 92.625,56.8906 Q92.3906,57.1563 92.0156,57.1563 Q91.6719,57.1563 91.4688,56.9531 Q91.2656,56.7656 91.1563,56.25 Q91.1094,55.8906 90.9219,55.7031 Q90.5938,55.3281 89.9844,55.1094 Q89.375,54.8906 88.75,54.8906 Q87.9844,54.8906 87.3438,55.2188 Q86.7188,55.5469 86.2188,56.2969 Q85.7344,57.0469 85.7344,58.0781 L85.7344,59.1719 Q85.7344,60.4063 86.625,61.2344 Q87.5156,62.0469 89.1094,62.0469 Q90.0469,62.0469 90.7031,61.7969 Q91.0938,61.6406 91.5156,61.2031 Q91.7813,60.9375 91.9219,60.8594 Q92.0781,60.7813 92.2813,60.7813 Q92.6094,60.7813 92.8594,61.0469 Q93.125,61.2969 93.125,61.6406 Q93.125,61.9844 92.7813,62.3906 Q92.2813,62.9688 91.4844,63.2969 Q90.4063,63.75 89.1094,63.75 Q87.5938,63.75 86.3906,63.125 Q85.4063,62.625 84.7188,61.5625 Q84.0313,60.4844 84.0313,59.2031 L84.0313,58.0469 Q84.0313,56.7188 84.6406,55.5781 Q85.2656,54.4219 86.3594,53.8125 Q87.4531,53.1875 88.6875,53.1875 Q89.4219,53.1875 90.0625,53.3594 Q90.7188,53.5156 91.2656,53.875 Z " fill="#000000"/><text fill="#000000" font-family="sans-serif" font-size="14" lengthAdjust="spacing" textLength="51" x="102.5" y="63.7285">Inventor</text><line style="stroke:#181818;stroke-width:0.5;" x1="74.5" x2="155.5" y1="74" y2="74"/><line style="stroke:#181818;stroke-width:0.5;" x1="74.5" x2="155.5" y1="82" y2="82"/></g><!--class Idea--><g id="elem_Idea"><rect codeLine="4" fill="#F1F1F1" height="48" id="Idea" rx="2.5" ry="2.5" style="stroke:#181818;stroke-width:0.5;" width="59" x="81.5" y="294"/><ellipse cx="96.5" cy="310" fill="#ADD1B2" rx="11" ry="11" style="stroke:#181818;stroke-width:1.0;"/><path d="M99.2656,305.875 Q99.4219,305.6563 99.6094,305.5469 Q99.7969,305.4375 100.0156,305.4375 Q100.3906,305.4375 100.625,305.7031 Q100.8594,305.9531 100.8594,306.5625 L100.8594,308.0156 Q100.8594,308.625 100.625,308.8906 Q100.3906,309.1563 100.0156,309.1563 Q99.6719,309.1563 99.4688,308.9531 Q99.2656,308.7656 99.1563,308.25 Q99.1094,307.8906 98.9219,307.7031 Q98.5938,307.3281 97.9844,307.1094 Q97.375,306.8906 96.75,306.8906 Q95.9844,306.8906 95.3438,307.2188 Q94.7188,307.5469 94.2188,308.2969 Q93.7344,309.0469 93.7344,310.0781 L93.7344,311.1719 Q93.7344,312.4063 94.625,313.2344 Q95.5156,314.0469 97.1094,314.0469 Q98.0469,314.0469 98.7031,313.7969 Q99.0938,313.6406 99.5156,313.2031 Q99.7813,312.9375 99.9219,312.8594 Q100.0781,312.7813 100.2813,312.7813 Q100.6094,312.7813 100.8594,313.0469 Q101.125,313.2969 101.125,313.6406 Q101.125,313.9844 100.7813,314.3906 Q100.2813,314.9688 99.4844,315.2969 Q98.4063,315.75 97.1094,315.75 Q95.5938,315.75 94.3906,315.125 Q93.4063,314.625 92.7188,313.5625 Q92.0313,312.4844 92.0313,311.2031 L92.0313,310.0469 Q92.0313,308.7188 92.6406,307.5781 Q93.2656,306.4219 94.3594,305.8125 Q95.4531,305.1875 96.6875,305.1875 Q97.4219,305.1875 98.0625,305.3594 Q98.7188,305.5156 99.2656,305.875 Z " fill="#000000"/><text fill="#000000" font-family="sans-serif" font-size="14" lengthAdjust="spacing" textLength="27" x="110.5" y="315.7285">Idea</text><line style="stroke:#181818;stroke-width:0.5;" x1="82.5" x2="139.5" y1="326" y2="326"/><line style="stroke:#181818;stroke-width:0.5;" x1="82.5" x2="139.5" y1="334" y2="334"/></g><!--class Tecnologia--><g id="elem_Tecnologia"><rect codeLine="5" fill="#F1F1F1" height="48" id="Tecnologia" rx="2.5" ry="2.5" style="stroke:#181818;stroke-width:0.5;" width="102" x="183" y="168"/><ellipse cx="198" cy="184" fill="#ADD1B2" rx="11" ry="11" style="stroke:#181818;stroke-width:1.0;"/><path d="M200.7656,179.875 Q200.9219,179.6563 201.1094,179.5469 Q201.2969,179.4375 201.5156,179.4375 Q201.8906,179.4375 202.125,179.7031 Q202.3594,179.9531 202.3594,180.5625 L202.3594,182.0156 Q202.3594,182.625 202.125,182.8906 Q201.8906,183.1563 201.5156,183.1563 Q201.1719,183.1563 200.9688,182.9531 Q200.7656,182.7656 200.6563,182.25 Q200.6094,181.8906 200.4219,181.7031 Q200.0938,181.3281 199.4844,181.1094 Q198.875,180.8906 198.25,180.8906 Q197.4844,180.8906 196.8438,181.2188 Q196.2188,181.5469 195.7188,182.2969 Q195.2344,183.0469 195.2344,184.0781 L195.2344,185.1719 Q195.2344,186.4063 196.125,187.2344 Q197.0156,188.0469 198.6094,188.0469 Q199.5469,188.0469 200.2031,187.7969 Q200.5938,187.6406 201.0156,187.2031 Q201.2813,186.9375 201.4219,186.8594 Q201.5781,186.7813 201.7813,186.7813 Q202.1094,186.7813 202.3594,187.0469 Q202.625,187.2969 202.625,187.6406 Q202.625,187.9844 202.2813,188.3906 Q201.7813,188.9688 200.9844,189.2969 Q199.9063,189.75 198.6094,189.75 Q197.0938,189.75 195.8906,189.125 Q194.9063,188.625 194.2188,187.5625 Q193.5313,186.4844 193.5313,185.2031 L193.5313,184.0469 Q193.5313,182.7188 194.1406,181.5781 Q194.7656,180.4219 195.8594,179.8125 Q196.9531,179.1875 198.1875,179.1875 Q198.9219,179.1875 199.5625,179.3594 Q200.2188,179.5156 200.7656,179.875 Z " fill="#000000"/><text fill="#000000" font-family="sans-serif" font-size="14" lengthAdjust="spacing" textLength="70" x="212" y="189.7285">Tecnologia</text><line style="stroke:#181818;stroke-width:0.5;" x1="184" x2="284" y1="200" y2="200"/><line style="stroke:#181818;stroke-width:0.5;" x1="184" x2="284" y1="208" y2="208"/></g><!--class Prototipo--><g id="elem_Prototipo"><rect codeLine="6" fill="#F1F1F1" height="48" id="Prototipo" rx="2.5" ry="2.5" style="stroke:#181818;stroke-width:0.5;" width="89" x="66.5" y="420"/><ellipse cx="81.5" cy="436" fill="#ADD1B2" rx="11" ry="11" style="stroke:#181818;stroke-width:1.0;"/><path d="M84.2656,431.875 Q84.4219,431.6563 84.6094,431.5469 Q84.7969,431.4375 85.0156,431.4375 Q85.3906,431.4375 85.625,431.7031 Q85.8594,431.9531 85.8594,432.5625 L85.8594,434.0156 Q85.8594,434.625 85.625,434.8906 Q85.3906,435.1563 85.0156,435.1563 Q84.6719,435.1563 84.4688,434.9531 Q84.2656,434.7656 84.1563,434.25 Q84.1094,433.8906 83.9219,433.7031 Q83.5938,433.3281 82.9844,433.1094 Q82.375,432.8906 81.75,432.8906 Q80.9844,432.8906 80.3438,433.2188 Q79.7188,433.5469 79.2188,434.2969 Q78.7344,435.0469 78.7344,436.0781 L78.7344,437.1719 Q78.7344,438.4063 79.625,439.2344 Q80.5156,440.0469 82.1094,440.0469 Q83.0469,440.0469 83.7031,439.7969 Q84.0938,439.6406 84.5156,439.2031 Q84.7813,438.9375 84.9219,438.8594 Q85.0781,438.7813 85.2813,438.7813 Q85.6094,438.7813 85.8594,439.0469 Q86.125,439.2969 86.125,439.6406 Q86.125,439.9844 85.7813,440.3906 Q85.2813,440.9688 84.4844,441.2969 Q83.4063,441.75 82.1094,441.75 Q80.5938,441.75 79.3906,441.125 Q78.4063,440.625 77.7188,439.5625 Q77.0313,438.4844 77.0313,437.2031 L77.0313,436.0469 Q77.0313,434.7188 77.6406,433.5781 Q78.2656,432.4219 79.3594,431.8125 Q80.4531,431.1875 81.6875,431.1875 Q82.4219,431.1875 83.0625,431.3594 Q83.7188,431.5156 84.2656,431.875 Z " fill="#000000"/><text fill="#000000" font-family="sans-serif" font-size="14" lengthAdjust="spacing" textLength="57" x="95.5" y="441.7285">Prototipo</text><line style="stroke:#181818;stroke-width:0.5;" x1="67.5" x2="154.5" y1="452" y2="452"/><line style="stroke:#181818;stroke-width:0.5;" x1="67.5" x2="154.5" y1="460" y2="460"/></g><!--class Mercado--><g id="elem_Mercado"><rect codeLine="7" fill="#F1F1F1" height="48" id="Mercado" rx="2.5" ry="2.5" style="stroke:#181818;stroke-width:0.5;" width="87" x="82.5" y="546"/><ellipse cx="97.5" cy="562" fill="#ADD1B2" rx="11" ry="11" style="stroke:#181818;stroke-width:1.0;"/><path d="M100.2656,557.875 Q100.4219,557.6563 100.6094,557.5469 Q100.7969,557.4375 101.0156,557.4375 Q101.3906,557.4375 101.625,557.7031 Q101.8594,557.9531 101.8594,558.5625 L101.8594,560.0156 Q101.8594,560.625 101.625,560.8906 Q101.3906,561.1563 101.0156,561.1563 Q100.6719,561.1563 100.4688,560.9531 Q100.2656,560.7656 100.1563,560.25 Q100.1094,559.8906 99.9219,559.7031 Q99.5938,559.3281 98.9844,559.1094 Q98.375,558.8906 97.75,558.8906 Q96.9844,558.8906 96.3438,559.2188 Q95.7188,559.5469 95.2188,560.2969 Q94.7344,561.0469 94.7344,562.0781 L94.7344,563.1719 Q94.7344,564.4063 95.625,565.2344 Q96.5156,566.0469 98.1094,566.0469 Q99.0469,566.0469 99.7031,565.7969 Q100.0938,565.6406 100.5156,565.2031 Q100.7813,564.9375 100.9219,564.8594 Q101.0781,564.7813 101.2813,564.7813 Q101.6094,564.7813 101.8594,565.0469 Q102.125,565.2969 102.125,565.6406 Q102.125,565.9844 101.7813,566.3906 Q101.2813,566.9688 100.4844,567.2969 Q99.4063,567.75 98.1094,567.75 Q96.5938,567.75 95.3906,567.125 Q94.4063,566.625 93.7188,565.5625 Q93.0313,564.4844 93.0313,563.2031 L93.0313,562.0469 Q93.0313,560.7188 93.6406,559.5781 Q94.2656,558.4219 95.3594,557.8125 Q96.4531,557.1875 97.6875,557.1875 Q98.4219,557.1875 99.0625,557.3594 Q99.7188,557.5156 100.2656,557.875 Z " fill="#000000"/><text fill="#000000" font-family="sans-serif" font-size="14" lengthAdjust="spacing" textLength="55" x="111.5" y="567.7285">Mercado</text><line style="stroke:#181818;stroke-width:0.5;" x1="83.5" x2="168.5" y1="578" y2="578"/><line style="stroke:#181818;stroke-width:0.5;" x1="83.5" x2="168.5" y1="586" y2="586"/></g><!--class Innovaci?n--><g id="elem_Innovaci&#243;n"><rect codeLine="8" fill="#F1F1F1" height="48" id="Innovaci&#243;n" rx="2.5" ry="2.5" style="stroke:#181818;stroke-width:0.5;" width="100" x="76" y="672"/><ellipse cx="91" cy="688" fill="#ADD1B2" rx="11" ry="11" style="stroke:#181818;stroke-width:1.0;"/><path d="M93.7656,683.875 Q93.9219,683.6563 94.1094,683.5469 Q94.2969,683.4375 94.5156,683.4375 Q94.8906,683.4375 95.125,683.7031 Q95.3594,683.9531 95.3594,684.5625 L95.3594,686.0156 Q95.3594,686.625 95.125,686.8906 Q94.8906,687.1563 94.5156,687.1563 Q94.1719,687.1563 93.9688,686.9531 Q93.7656,686.7656 93.6563,686.25 Q93.6094,685.8906 93.4219,685.7031 Q93.0938,685.3281 92.4844,685.1094 Q91.875,684.8906 91.25,684.8906 Q90.4844,684.8906 89.8438,685.2188 Q89.2188,685.5469 88.7188,686.2969 Q88.2344,687.0469 88.2344,688.0781 L88.2344,689.1719 Q88.2344,690.4063 89.125,691.2344 Q90.0156,692.0469 91.6094,692.0469 Q92.5469,692.0469 93.2031,691.7969 Q93.5938,691.6406 94.0156,691.2031 Q94.2813,690.9375 94.4219,690.8594 Q94.5781,690.7813 94.7813,690.7813 Q95.1094,690.7813 95.3594,691.0469 Q95.625,691.2969 95.625,691.6406 Q95.625,691.9844 95.2813,692.3906 Q94.7813,692.9688 93.9844,693.2969 Q92.9063,693.75 91.6094,693.75 Q90.0938,693.75 88.8906,693.125 Q87.9063,692.625 87.2188,691.5625 Q86.5313,690.4844 86.5313,689.2031 L86.5313,688.0469 Q86.5313,686.7188 87.1406,685.5781 Q87.7656,684.4219 88.8594,683.8125 Q89.9531,683.1875 91.1875,683.1875 Q91.9219,683.1875 92.5625,683.3594 Q93.2188,683.5156 93.7656,683.875 Z " fill="#000000"/><text fill="#000000" font-family="sans-serif" font-size="14" lengthAdjust="spacing" textLength="68" x="105" y="693.7285">Innovaci&#243;n</text><line style="stroke:#181818;stroke-width:0.5;" x1="77" x2="175" y1="704" y2="704"/><line style="stroke:#181818;stroke-width:0.5;" x1="77" x2="175" y1="712" y2="712"/></g><!--link Inventor to Idea--><g id="link_Inventor_Idea"><path codeLine="10" d="M102.83,90.32 C93.12,110.31 80.3,140.21 75,168 C66.42,212.96 83.0955,259.327 96.6155,288.477 " fill="none" id="Inventor-to-Idea" style="stroke:#181818;stroke-width:1.0;"/><polygon fill="#181818" points="99.14,293.92,98.9819,284.0724,97.0362,289.3841,91.7245,287.4384,99.14,293.92" style="stroke:#181818;stroke-width:1.0;"/><polygon fill="#000000" points="79.8433,197.1733,83.0643,188.2248,77.1893,188.0406,79.8433,197.1733" style="stroke:#000000;stroke-width:1.0;"/><text fill="#000000" font-family="sans-serif" font-size="13" lengthAdjust="spacing" textLength="76" x="89" y="197.4951">crea / genera</text></g><!--link Inventor to Tecnologia--><g id="link_Inventor_Tecnologia"><path codeLine="11" d="M137.1,90.03 C158.34,112.17 186.1259,141.1106 207.4559,163.3406 " fill="none" id="Inventor-to-Tecnologia" style="stroke:#181818;stroke-width:1.0;"/><polygon fill="#181818" points="211.61,167.67,208.2651,158.4065,208.1483,164.0622,202.4926,163.9453,211.61,167.67" style="stroke:#181818;stroke-width:1.0;"/><polygon fill="#000000" points="189.4621,132.7833,185.3195,124.2223,181.0787,128.2922,189.4621,132.7833" style="stroke:#000000;stroke-width:1.0;"/><text fill="#000000" font-family="sans-serif" font-size="13" lengthAdjust="spacing" textLength="34" x="195" y="134.4951">utiliza</text></g><!--link Tecnologia to Idea--><g id="link_Tecnologia_Idea"><path codeLine="12" d="M211.15,216.03 C189.2,238.17 160.4154,267.1801 138.3654,289.4101 " fill="none" id="Tecnologia-to-Idea" style="stroke:#181818;stroke-width:1.0;"/><polygon fill="#181818" points="134.14,293.67,143.3179,290.0971,137.6611,290.1201,137.6381,284.4633,134.14,293.67" style="stroke:#181818;stroke-width:1.0;"/><polygon fill="#000000" points="180.4789,258.7257,188.9352,254.3735,184.762,250.2342,180.4789,258.7257" style="stroke:#000000;stroke-width:1.0;"/><text fill="#000000" font-family="sans-serif" font-size="13" lengthAdjust="spacing" textLength="56" x="193" y="260.4951">desarrolla</text></g><!--link Idea to Prototipo--><g id="link_Idea_Prototipo"><path codeLine="13" d="M111,342.03 C111,364.17 111,391.44 111,413.67 " fill="none" id="Idea-to-Prototipo" style="stroke:#181818;stroke-width:1.0;"/><polygon fill="#181818" points="111,419.67,115,410.67,111,414.67,107,410.67,111,419.67" style="stroke:#181818;stroke-width:1.0;"/><polygon fill="#000000" points="116,386.1758,118.9389,377.1307,113.0611,377.1307,116,386.1758" style="stroke:#000000;stroke-width:1.0;"/><text fill="#000000" font-family="sans-serif" font-size="13" lengthAdjust="spacing" textLength="25" x="125" y="386.4951">crea</text></g><!--link Prototipo to Mercado--><g id="link_Prototipo_Mercado"><path codeLine="14" d="M79.11,468.06 C64.84,481.37 52.85,498.84 61,516 C66.62,527.84 71.6133,534.1789 81.8333,542.2589 " fill="none" id="Prototipo-to-Mercado" style="stroke:#181818;stroke-width:1.0;"/><polygon fill="#181818" points="86.54,545.98,81.9607,537.2605,82.6177,542.879,76.9992,543.5361,86.54,545.98" style="stroke:#181818;stroke-width:1.0;"/><polygon fill="#000000" points="66.1834,512.1724,68.7886,503.0256,62.9147,503.2412,66.1834,512.1724" style="stroke:#000000;stroke-width:1.0;"/><text fill="#000000" font-family="sans-serif" font-size="13" lengthAdjust="spacing" textLength="61" x="75" y="512.4951">presenta a</text></g><!--link Mercado to Prototipo--><g id="link_Mercado_Prototipo"><path codeLine="15" d="M136.36,545.84 C141.24,531.9 145.17,513.84 141,498 C138.25,487.57 136.0424,482.1696 130.6424,473.2696 " fill="none" id="Mercado-to-Prototipo" style="stroke:#181818;stroke-width:1.0;"/><polygon fill="#181818" points="127.53,468.14,128.7788,477.9094,130.1236,472.4147,135.6183,473.7595,127.53,468.14" style="stroke:#181818;stroke-width:1.0;"/><polygon fill="#000000" points="146.6073,502.1912,144.3879,511.4392,150.2476,510.9775,146.6073,502.1912" style="stroke:#000000;stroke-width:1.0;"/><text fill="#000000" font-family="sans-serif" font-size="13" lengthAdjust="spacing" textLength="36" x="156" y="512.4951">eval&#250;a</text></g><!--link Mercado to Innovaci?n--><g id="link_Mercado_Innovaci&#243;n"><path codeLine="16" d="M126,594.03 C126,616.17 126,643.44 126,665.67 " fill="none" id="Mercado-to-Innovaci&#243;n" style="stroke:#181818;stroke-width:1.0;"/><polygon fill="#181818" points="126,671.67,130,662.67,126,666.67,122,662.67,126,671.67" style="stroke:#181818;stroke-width:1.0;"/><polygon fill="#000000" points="131,638.1758,133.9389,629.1307,128.0611,629.1307,131,638.1758" style="stroke:#000000;stroke-width:1.0;"/><text fill="#000000" font-family="sans-serif" font-size="13" lengthAdjust="spacing" textLength="39" x="140" y="638.4951">genera</text></g><!--SRC=[RP6n2iCW54NtVCN3FNJla3r3eKD_u64UGIeQr6PewLTrwveVgqQZXjJ5Txc7vxqu8R_ZID0hfMVaOlaeU3KD-CCbMWkiLpCffmq3jB297J0GHjCFjN4ZhhJKeuXsaJLqDTff9oQzCbdLo8KCno42QTu7pD5JngnZaIqqj6stXeGpC6xyVOAH51c4ZXt9aZVm3oUaU6QoCkkj0raqHajPLWOd8BbQVZqHnGXOAXYWoP3rSH0okfc7VJIZNBv_kVfdFLaAlty0]--></g></svg>