<svg xmlns="http://www.w3.org/2000/svg" xmlns:xlink="http://www.w3.org/1999/xlink" contentStyleType="text/css" height="693px" preserveAspectRatio="none" style="width:474px;height:693px;background:#FFFFFF;" version="1.1" viewBox="0 0 474 693" width="474px" zoomAndPan="magnify"><defs/><g><!--class MejoraContinua--><g id="elem_MejoraContinua"><rect codeLine="1" fill="#F1F1F1" height="48" id="MejoraContinua" rx="2.5" ry="2.5" style="stroke:#181818;stroke-width:0.5;" width="142.4004" x="82" y="7"/><ellipse cx="97" cy="23" fill="#ADD1B2" rx="11" ry="11" style="stroke:#181818;stroke-width:1.0;"/><path d="M99.9688,28.6406 Q99.3906,28.9375 98.75,29.0781 Q98.1094,29.2344 97.4063,29.2344 Q94.9063,29.2344 93.5781,27.5938 Q92.2656,25.9375 92.2656,22.8125 Q92.2656,19.6875 93.5781,18.0313 Q94.9063,16.375 97.4063,16.375 Q98.1094,16.375 98.75,16.5313 Q99.4063,16.6875 99.9688,16.9844 L99.9688,19.7031 Q99.3438,19.125 98.75,18.8594 Q98.1563,18.5781 97.5313,18.5781 Q96.1875,18.5781 95.5,19.6563 Q94.8125,20.7188 94.8125,22.8125 Q94.8125,24.9063 95.5,25.9844 Q96.1875,27.0469 97.5313,27.0469 Q98.1563,27.0469 98.75,26.7813 Q99.3438,26.5 99.9688,25.9219 L99.9688,28.6406 Z " fill="#000000"/><text fill="#000000" font-family="sans-serif" font-size="14" lengthAdjust="spacing" textLength="110.4004" x="111" y="27.8467">MejoraContinua</text><line style="stroke:#181818;stroke-width:0.5;" x1="83" x2="223.4004" y1="39" y2="39"/><line style="stroke:#181818;stroke-width:0.5;" x1="83" x2="223.4004" y1="47" y2="47"/></g><!--class Proceso--><g id="elem_Proceso"><rect codeLine="4" fill="#F1F1F1" height="80.5938" id="Proceso" rx="2.5" ry="2.5" style="stroke:#181818;stroke-width:0.5;" width="156.9971" x="74.5" y="132"/><ellipse cx="121.2817" cy="148" fill="#ADD1B2" rx="11" ry="11" style="stroke:#181818;stroke-width:1.0;"/><path d="M124.2505,153.6406 Q123.6724,153.9375 123.0317,154.0781 Q122.3911,154.2344 121.688,154.2344 Q119.188,154.2344 117.8599,152.5938 Q116.5474,150.9375 116.5474,147.8125 Q116.5474,144.6875 117.8599,143.0313 Q119.188,141.375 121.688,141.375 Q122.3911,141.375 123.0317,141.5313 Q123.688,141.6875 124.2505,141.9844 L124.2505,144.7031 Q123.6255,144.125 123.0317,143.8594 Q122.438,143.5781 121.813,143.5781 Q120.4692,143.5781 119.7817,144.6563 Q119.0942,145.7188 119.0942,147.8125 Q119.0942,149.9063 119.7817,150.9844 Q120.4692,152.0469 121.813,152.0469 Q122.438,152.0469 123.0317,151.7813 Q123.6255,151.5 124.2505,150.9219 L124.2505,153.6406 Z " fill="#000000"/><text fill="#000000" font-family="sans-serif" font-size="14" lengthAdjust="spacing" textLength="54.9336" x="141.7817" y="152.8467">Proceso</text><line style="stroke:#181818;stroke-width:0.5;" x1="75.5" x2="230.4971" y1="164" y2="164"/><ellipse cx="85.5" cy="177.6484" fill="none" rx="3" ry="3" style="stroke:#038048;stroke-width:1.0;"/><text fill="#000000" font-family="sans-serif" font-size="14" lengthAdjust="spacing" textLength="105.2803" x="94.5" y="180.9951">nombre: String</text><ellipse cx="85.5" cy="193.9453" fill="none" rx="3" ry="3" style="stroke:#038048;stroke-width:1.0;"/><text fill="#000000" font-family="sans-serif" font-size="14" lengthAdjust="spacing" textLength="130.9971" x="94.5" y="197.292">descripci&#243;n: String</text><line style="stroke:#181818;stroke-width:0.5;" x1="75.5" x2="230.4971" y1="204.5938" y2="204.5938"/></g><!--class Rendimiento--><g id="elem_Rendimiento"><rect codeLine="9" fill="#F1F1F1" height="80.5938" id="Rendimiento" rx="2.5" ry="2.5" style="stroke:#181818;stroke-width:0.5;" width="150.1885" x="7" y="290"/><ellipse cx="35.1084" cy="306" fill="#ADD1B2" rx="11" ry="11" style="stroke:#181818;stroke-width:1.0;"/><path d="M38.0772,311.6406 Q37.4991,311.9375 36.8584,312.0781 Q36.2178,312.2344 35.5147,312.2344 Q33.0147,312.2344 31.6866,310.5938 Q30.3741,308.9375 30.3741,305.8125 Q30.3741,302.6875 31.6866,301.0313 Q33.0147,299.375 35.5147,299.375 Q36.2178,299.375 36.8584,299.5313 Q37.5147,299.6875 38.0772,299.9844 L38.0772,302.7031 Q37.4522,302.125 36.8584,301.8594 Q36.2647,301.5781 35.6397,301.5781 Q34.2959,301.5781 33.6084,302.6563 Q32.9209,303.7188 32.9209,305.8125 Q32.9209,307.9063 33.6084,308.9844 Q34.2959,310.0469 35.6397,310.0469 Q36.2647,310.0469 36.8584,309.7813 Q37.4522,309.5 38.0772,308.9219 L38.0772,311.6406 Z " fill="#000000"/><text fill="#000000" font-family="sans-serif" font-size="14" lengthAdjust="spacing" textLength="89.0586" x="52.0214" y="310.8467">Rendimiento</text><line style="stroke:#181818;stroke-width:0.5;" x1="8" x2="156.1885" y1="322" y2="322"/><ellipse cx="18" cy="335.6484" fill="none" rx="3" ry="3" style="stroke:#038048;stroke-width:1.0;"/><text fill="#000000" font-family="sans-serif" font-size="14" lengthAdjust="spacing" textLength="111.9043" x="27" y="338.9951">m&#233;tricas: String</text><ellipse cx="18" cy="351.9453" fill="none" rx="3" ry="3" style="stroke:#038048;stroke-width:1.0;"/><text fill="#000000" font-family="sans-serif" font-size="14" lengthAdjust="spacing" textLength="124.1885" x="27" y="355.292">resultados: String</text><line style="stroke:#181818;stroke-width:0.5;" x1="8" x2="156.1885" y1="362.5938" y2="362.5938"/></g><!--class OportunidadesDeMejora--><g id="elem_OportunidadesDeMejora"><rect codeLine="14" fill="#F1F1F1" height="80.5938" id="OportunidadesDeMejora" rx="2.5" ry="2.5" style="stroke:#181818;stroke-width:0.5;" width="202.4883" x="192" y="290"/><ellipse cx="207" cy="306" fill="#ADD1B2" rx="11" ry="11" style="stroke:#181818;stroke-width:1.0;"/><path d="M209.9688,311.6406 Q209.3906,311.9375 208.75,312.0781 Q208.1094,312.2344 207.4063,312.2344 Q204.9063,312.2344 203.5781,310.5938 Q202.2656,308.9375 202.2656,305.8125 Q202.2656,302.6875 203.5781,301.0313 Q204.9063,299.375 207.4063,299.375 Q208.1094,299.375 208.75,299.5313 Q209.4063,299.6875 209.9688,299.9844 L209.9688,302.7031 Q209.3438,302.125 208.75,301.8594 Q208.1563,301.5781 207.5313,301.5781 Q206.1875,301.5781 205.5,302.6563 Q204.8125,303.7188 204.8125,305.8125 Q204.8125,307.9063 205.5,308.9844 Q206.1875,310.0469 207.5313,310.0469 Q208.1563,310.0469 208.75,309.7813 Q209.3438,309.5 209.9688,308.9219 L209.9688,311.6406 Z " fill="#000000"/><text fill="#000000" font-family="sans-serif" font-size="14" lengthAdjust="spacing" textLength="170.4883" x="221" y="310.8467">OportunidadesDeMejora</text><line style="stroke:#181818;stroke-width:0.5;" x1="193" x2="393.4883" y1="322" y2="322"/><ellipse cx="203" cy="335.6484" fill="none" rx="3" ry="3" style="stroke:#038048;stroke-width:1.0;"/><text fill="#000000" font-family="sans-serif" font-size="14" lengthAdjust="spacing" textLength="144.71" x="212" y="338.9951">identificaci&#243;n: String</text><ellipse cx="203" cy="351.9453" fill="none" rx="3" ry="3" style="stroke:#038048;stroke-width:1.0;"/><text fill="#000000" font-family="sans-serif" font-size="14" lengthAdjust="spacing" textLength="90.5146" x="212" y="355.292">prioridad: int</text><line style="stroke:#181818;stroke-width:0.5;" x1="193" x2="393.4883" y1="362.5938" y2="362.5938"/></g><!--class Cambios--><g id="elem_Cambios"><rect codeLine="19" fill="#F1F1F1" height="80.5938" id="Cambios" rx="2.5" ry="2.5" style="stroke:#181818;stroke-width:0.5;" width="190.083" x="198" y="448"/><ellipse cx="258.4775" cy="464" fill="#ADD1B2" rx="11" ry="11" style="stroke:#181818;stroke-width:1.0;"/><path d="M261.4463,469.6406 Q260.8682,469.9375 260.2275,470.0781 Q259.5869,470.2344 258.8838,470.2344 Q256.3838,470.2344 255.0557,468.5938 Q253.7432,466.9375 253.7432,463.8125 Q253.7432,460.6875 255.0557,459.0313 Q256.3838,457.375 258.8838,457.375 Q259.5869,457.375 260.2275,457.5313 Q260.8838,457.6875 261.4463,457.9844 L261.4463,460.7031 Q260.8213,460.125 260.2275,459.8594 Q259.6338,459.5781 259.0088,459.5781 Q257.665,459.5781 256.9775,460.6563 Q256.29,461.7188 256.29,463.8125 Q256.29,465.9063 256.9775,466.9844 Q257.665,468.0469 259.0088,468.0469 Q259.6338,468.0469 260.2275,467.7813 Q260.8213,467.5 261.4463,466.9219 L261.4463,469.6406 Z " fill="#000000"/><text fill="#000000" font-family="sans-serif" font-size="14" lengthAdjust="spacing" textLength="60.6279" x="278.9775" y="468.8467">Cambios</text><line style="stroke:#181818;stroke-width:0.5;" x1="199" x2="387.083" y1="480" y2="480"/><ellipse cx="209" cy="493.6484" fill="none" rx="3" ry="3" style="stroke:#038048;stroke-width:1.0;"/><text fill="#000000" font-family="sans-serif" font-size="14" lengthAdjust="spacing" textLength="131.1133" x="218" y="496.9951">tipoCambio: String</text><ellipse cx="209" cy="509.9453" fill="none" rx="3" ry="3" style="stroke:#038048;stroke-width:1.0;"/><text fill="#000000" font-family="sans-serif" font-size="14" lengthAdjust="spacing" textLength="164.083" x="218" y="513.292">implementaci&#243;n: String</text><line style="stroke:#181818;stroke-width:0.5;" x1="199" x2="387.083" y1="520.5938" y2="520.5938"/></g><!--class Producto--><g id="elem_Producto"><rect codeLine="24" fill="#F1F1F1" height="80.5938" id="Producto" rx="2.5" ry="2.5" style="stroke:#181818;stroke-width:0.5;" width="133.2832" x="134.5" y="606"/><ellipse cx="167.0535" cy="622" fill="#ADD1B2" rx="11" ry="11" style="stroke:#181818;stroke-width:1.0;"/><path d="M170.0223,627.6406 Q169.4441,627.9375 168.8035,628.0781 Q168.1629,628.2344 167.4598,628.2344 Q164.9598,628.2344 163.6316,626.5938 Q162.3191,624.9375 162.3191,621.8125 Q162.3191,618.6875 163.6316,617.0313 Q164.9598,615.375 167.4598,615.375 Q168.1629,615.375 168.8035,615.5313 Q169.4598,615.6875 170.0223,615.9844 L170.0223,618.7031 Q169.3973,618.125 168.8035,617.8594 Q168.2098,617.5781 167.5848,617.5781 Q166.241,617.5781 165.5535,618.6563 Q164.866,619.7188 164.866,621.8125 Q164.866,623.9063 165.5535,624.9844 Q166.241,626.0469 167.5848,626.0469 Q168.2098,626.0469 168.8035,625.7813 Q169.3973,625.5 170.0223,624.9219 L170.0223,627.6406 Z " fill="#000000"/><text fill="#000000" font-family="sans-serif" font-size="14" lengthAdjust="spacing" textLength="62.2754" x="184.9543" y="626.8467">Producto</text><line style="stroke:#181818;stroke-width:0.5;" x1="135.5" x2="266.7832" y1="638" y2="638"/><ellipse cx="145.5" cy="651.6484" fill="none" rx="3" ry="3" style="stroke:#038048;stroke-width:1.0;"/><text fill="#000000" font-family="sans-serif" font-size="14" lengthAdjust="spacing" textLength="101.3564" x="154.5" y="654.9951">calidad: String</text><ellipse cx="145.5" cy="667.9453" fill="none" rx="3" ry="3" style="stroke:#038048;stroke-width:1.0;"/><text fill="#000000" font-family="sans-serif" font-size="14" lengthAdjust="spacing" textLength="107.2832" x="154.5" y="671.292">mejoras: String</text><line style="stroke:#181818;stroke-width:0.5;" x1="135.5" x2="266.7832" y1="678.5938" y2="678.5938"/></g><!--class Personal--><g id="elem_Personal"><rect codeLine="29" fill="#F1F1F1" height="80.5938" id="Personal" rx="2.5" ry="2.5" style="stroke:#181818;stroke-width:0.5;" width="165.3711" x="302.5" y="606"/><ellipse cx="350.9292" cy="622" fill="#ADD1B2" rx="11" ry="11" style="stroke:#181818;stroke-width:1.0;"/><path d="M353.8979,627.6406 Q353.3198,627.9375 352.6792,628.0781 Q352.0386,628.2344 351.3354,628.2344 Q348.8354,628.2344 347.5073,626.5938 Q346.1948,624.9375 346.1948,621.8125 Q346.1948,618.6875 347.5073,617.0313 Q348.8354,615.375 351.3354,615.375 Q352.0386,615.375 352.6792,615.5313 Q353.3354,615.6875 353.8979,615.9844 L353.8979,618.7031 Q353.2729,618.125 352.6792,617.8594 Q352.0854,617.5781 351.4604,617.5781 Q350.1167,617.5781 349.4292,618.6563 Q348.7417,619.7188 348.7417,621.8125 Q348.7417,623.9063 349.4292,624.9844 Q350.1167,626.0469 351.4604,626.0469 Q352.0854,626.0469 352.6792,625.7813 Q353.2729,625.5 353.8979,624.9219 L353.8979,627.6406 Z " fill="#000000"/><text fill="#000000" font-family="sans-serif" font-size="14" lengthAdjust="spacing" textLength="60.0127" x="371.4292" y="626.8467">Personal</text><line style="stroke:#181818;stroke-width:0.5;" x1="303.5" x2="466.8711" y1="638" y2="638"/><ellipse cx="313.5" cy="651.6484" fill="none" rx="3" ry="3" style="stroke:#038048;stroke-width:1.0;"/><text fill="#000000" font-family="sans-serif" font-size="14" lengthAdjust="spacing" textLength="131.2158" x="322.5" y="654.9951">habilidades: String</text><ellipse cx="313.5" cy="667.9453" fill="none" rx="3" ry="3" style="stroke:#038048;stroke-width:1.0;"/><text fill="#000000" font-family="sans-serif" font-size="14" lengthAdjust="spacing" textLength="139.3711" x="322.5" y="671.292">capacitaci&#243;n: String</text><line style="stroke:#181818;stroke-width:0.5;" x1="303.5" x2="466.8711" y1="678.5938" y2="678.5938"/></g><!--link MejoraContinua to Proceso--><g id="link_MejoraContinua_Proceso"><path codeLine="34" d="M153,55.04 C153,75.85 153,100.94 153,125.77 " fill="none" id="MejoraContinua-to-Proceso" style="stroke:#181818;stroke-width:1.0;"/><polygon fill="#181818" points="153,131.77,157,122.77,153,126.77,149,122.77,153,131.77" style="stroke:#181818;stroke-width:1.0;"/><text fill="#000000" font-family="sans-serif" font-size="13" lengthAdjust="spacing" textLength="38.5557" x="154" y="98.0669">aplica</text></g><!--link Proceso to Rendimiento--><g id="link_Proceso_Rendimiento"><path codeLine="35" d="M134.9,213.27 C124.22,236.74 113.2249,260.8888 102.5549,284.3388 " fill="none" id="Proceso-to-Rendimiento" style="stroke:#181818;stroke-width:1.0;"/><polygon fill="#181818" points="100.07,289.8,107.4382,283.2648,102.1408,285.249,100.1566,279.9515,100.07,289.8" style="stroke:#181818;stroke-width:1.0;"/><text fill="#000000" font-family="sans-serif" font-size="13" lengthAdjust="spacing" textLength="32.5254" x="120" y="256.0669">mide</text></g><!--link Proceso to OportunidadesDeMejora--><g id="link_Proceso_OportunidadesDeMejora"><path codeLine="36" d="M188.69,213.27 C209.75,236.74 232.3109,261.886 253.3709,285.336 " fill="none" id="Proceso-to-OportunidadesDeMejora" style="stroke:#181818;stroke-width:1.0;"/><polygon fill="#181818" points="257.38,289.8,254.3424,280.4313,254.0391,286.08,248.3904,285.7767,257.38,289.8" style="stroke:#181818;stroke-width:1.0;"/><text fill="#000000" font-family="sans-serif" font-size="13" lengthAdjust="spacing" textLength="60.1123" x="228" y="256.0669">identifica</text></g><!--link OportunidadesDeMejora to Cambios--><g id="link_OportunidadesDeMejora_Cambios"><path codeLine="37" d="M293,371.27 C293,394.74 293,418.35 293,441.8 " fill="none" id="OportunidadesDeMejora-to-Cambios" style="stroke:#181818;stroke-width:1.0;"/><polygon fill="#181818" points="293,447.8,297,438.8,293,442.8,289,438.8,293,447.8" style="stroke:#181818;stroke-width:1.0;"/><text fill="#000000" font-family="sans-serif" font-size="13" lengthAdjust="spacing" textLength="43.3228" x="294" y="414.0669">realiza</text></g><!--link Cambios to Producto--><g id="link_Cambios_Producto"><path codeLine="38" d="M269.55,529.27 C255.7,552.74 241.288,577.1819 227.458,600.6319 " fill="none" id="Cambios-to-Producto" style="stroke:#181818;stroke-width:1.0;"/><polygon fill="#181818" points="224.41,605.8,232.4274,600.0798,226.95,601.4932,225.5366,596.0158,224.41,605.8" style="stroke:#181818;stroke-width:1.0;"/><text fill="#000000" font-family="sans-serif" font-size="13" lengthAdjust="spacing" textLength="40.752" x="250" y="572.0669">afecta</text></g><!--link Cambios to Personal--><g id="link_Cambios_Personal"><path codeLine="39" d="M316.45,529.27 C330.3,552.74 344.712,577.1819 358.542,600.6319 " fill="none" id="Cambios-to-Personal" style="stroke:#181818;stroke-width:1.0;"/><polygon fill="#181818" points="361.59,605.8,360.4634,596.0158,359.05,601.4932,353.5726,600.0798,361.59,605.8" style="stroke:#181818;stroke-width:1.0;"/><text fill="#000000" font-family="sans-serif" font-size="13" lengthAdjust="spacing" textLength="55.1548" x="342" y="572.0669">capacita</text></g><!--SRC=[TP4zKWCn38Lxdy8zamkue0ajGmPEeBKL4EE_aRqD30TAdIFaOcZZUBC9I_lazwJtsNeeHJ_ZPsBOfbWfZg2_rOzIzZpPSR9OaaXQFyGK1aQZtofJV9yKXyKoPKkdOvprsVoAqL4WZFKI44u7UMAXB3COo-Whk5J-9hpan7MCv40sFM6xisMHarpQIzhjTXbbfiIJnsYAzPgsXJ1GAirVAQScBAqKiiSWoV1F9m7YHjiBMV1jppKXd6zSwR93BYc2RyuF6CYtNaktXIoRLxRVVT5cypZ_ZT6GlN1GNPY6I_P61w5rCru7AxncgchzoMJk78rc501VeBfoEQiHahlsQElTj5CmkdVz1G00]--></g></svg>