<?xml version="1.0" encoding="us-ascii" standalone="no"?><svg xmlns="http://www.w3.org/2000/svg" xmlns:xlink="http://www.w3.org/1999/xlink" contentStyleType="text/css" height="921px" preserveAspectRatio="none" style="width:719px;height:921px;background:#FFFFFF;" version="1.1" viewBox="0 0 719 921" width="719px" zoomAndPan="magnify"><defs/><g><ellipse cx="356.5" cy="16" fill="#222222" rx="10" ry="10" style="stroke:#222222;stroke-width:1.0;"/><path d="M19.5,104 L693,104 A12.5,12.5 0 0 1 705.5,116.5 L705.5,131.6094 L7,131.6094 L7,116.5 A12.5,12.5 0 0 1 19.5,104 " fill="#F1F1F1" style="stroke:#F1F1F1;stroke-width:1.0;"/><rect fill="none" height="811.2188" rx="12.5" ry="12.5" style="stroke:#181818;stroke-width:0.5;" width="698.5" x="7" y="104"/><line style="stroke:#181818;stroke-width:0.5;" x1="7" x2="705.5" y1="131.6094" y2="131.6094"/><text fill="#000000" font-family="sans-serif" font-size="14" lengthAdjust="spacing" textLength="49" x="331.75" y="123.5332">Emision</text><ellipse cx="357.5" cy="152.6094" fill="#222222" rx="10" ry="10" style="stroke:#222222;stroke-width:1.0;"/><g id="Emision.GenerarOnda"><rect fill="#F1F1F1" height="50" rx="12.5" ry="12.5" style="stroke:#181818;stroke-width:0.5;" width="108" x="303.5" y="199.6094"/><line style="stroke:#181818;stroke-width:0.5;" x1="303.5" x2="411.5" y1="227.2188" y2="227.2188"/><text fill="#000000" font-family="sans-serif" font-size="14" lengthAdjust="spacing" textLength="88" x="313.5" y="219.1426">GenerarOnda</text></g><path d="M31.5,303.6094 L684,303.6094 A12.5,12.5 0 0 1 696.5,316.1094 L696.5,331.2188 L19,331.2188 L19,316.1094 A12.5,12.5 0 0 1 31.5,303.6094 " fill="#F1F1F1" style="stroke:#F1F1F1;stroke-width:1.0;"/><rect fill="none" height="601.6094" rx="12.5" ry="12.5" style="stroke:#181818;stroke-width:0.5;" width="677.5" x="19" y="303.6094"/><line style="stroke:#181818;stroke-width:0.5;" x1="19" x2="696.5" y1="331.2188" y2="331.2188"/><text fill="#000000" font-family="sans-serif" font-size="14" lengthAdjust="spacing" textLength="113" x="301.25" y="323.1426">OndaPropagando</text><!--cluster Impacto--><g id="cluster_Impacto"><path d="M158,405.2188 L675,405.2188 A12.5,12.5 0 0 1 687.5,417.7188 L687.5,427.8281 L145.5,427.8281 L145.5,417.7188 A12.5,12.5 0 0 1 158,405.2188 " fill="#F1F1F1" style="stroke:#F1F1F1;stroke-width:1.0;"/><rect fill="none" height="490" rx="12.5" ry="12.5" style="stroke:#181818;stroke-width:0.5;" width="542" x="145.5" y="405.2188"/><line style="stroke:#181818;stroke-width:0.5;" x1="145.5" x2="687.5" y1="427.8281" y2="427.8281"/><text fill="#000000" font-family="sans-serif" font-size="14" lengthAdjust="spacing" textLength="49" x="392" y="423.752">Impacto</text></g><!--cluster OndaRecibida--><g id="cluster_OndaRecibida"><path d="M316,544.2188 L635,544.2188 A12.5,12.5 0 0 1 647.5,556.7188 L647.5,566.8281 L303.5,566.8281 L303.5,556.7188 A12.5,12.5 0 0 1 316,544.2188 " fill="#F1F1F1" style="stroke:#F1F1F1;stroke-width:1.0;"/><rect fill="none" height="311" rx="12.5" ry="12.5" style="stroke:#181818;stroke-width:0.5;" width="344" x="303.5" y="544.2188"/><line style="stroke:#181818;stroke-width:0.5;" x1="303.5" x2="647.5" y1="566.8281" y2="566.8281"/><text fill="#000000" font-family="sans-serif" font-size="14" lengthAdjust="spacing" textLength="90" x="430.5" y="562.752">OndaRecibida</text></g><ellipse cx="247.5" cy="459.2188" fill="#222222" rx="10" ry="10" style="stroke:#222222;stroke-width:1.0;"/><g id="Emision.OndaPropagando.Impacto.Reflejo"><rect fill="#F1F1F1" height="50" rx="12.5" ry="12.5" style="stroke:#181818;stroke-width:0.5;" width="64" x="215.5" y="573.2188"/><line style="stroke:#181818;stroke-width:0.5;" x1="215.5" x2="279.5" y1="600.8281" y2="600.8281"/><text fill="#000000" font-family="sans-serif" font-size="14" lengthAdjust="spacing" textLength="44" x="225.5" y="592.752">Reflejo</text></g><ellipse cx="503.5" cy="598.2188" fill="#222222" rx="10" ry="10" style="stroke:#222222;stroke-width:1.0;"/><g id="Emision.OndaPropagando.Impacto.OndaRecibida.Percepcion"><rect fill="#F1F1F1" height="50" rx="12.5" ry="12.5" style="stroke:#181818;stroke-width:0.5;" width="91" x="458" y="677.2188"/><line style="stroke:#181818;stroke-width:0.5;" x1="458" x2="549" y1="704.8281" y2="704.8281"/><text fill="#000000" font-family="sans-serif" font-size="14" lengthAdjust="spacing" textLength="71" x="468" y="696.752">Percepcion</text></g><g id="Emision.OndaPropagando.Impacto.OndaRecibida.Eco"><rect fill="#F1F1F1" height="50" rx="12.5" ry="12.5" style="stroke:#181818;stroke-width:0.5;" width="50" x="457.5" y="781.2188"/><line style="stroke:#181818;stroke-width:0.5;" x1="457.5" x2="507.5" y1="808.8281" y2="808.8281"/><text fill="#000000" font-family="sans-serif" font-size="14" lengthAdjust="spacing" textLength="24" x="470.5" y="800.752">Eco</text></g><ellipse cx="56.5" cy="352.2188" fill="#222222" rx="10" ry="10" style="stroke:#222222;stroke-width:1.0;"/><g id="Emision.OndaPropagando.Viaje"><rect fill="#F1F1F1" height="50" rx="12.5" ry="12.5" style="stroke:#181818;stroke-width:0.5;" width="51" x="31" y="434.2188"/><line style="stroke:#181818;stroke-width:0.5;" x1="31" x2="82" y1="461.8281" y2="461.8281"/><text fill="#000000" font-family="sans-serif" font-size="14" lengthAdjust="spacing" textLength="31" x="41" y="453.752">Viaje</text></g><!--link *start*OndaPropagando to Viaje--><g id="link_*start*OndaPropagando_Viaje"><path d="M56.5,362.5388 C56.5,378.3987 56.5,405.1288 56.5,427.8588 " fill="none" id="*start*OndaPropagando-to-Viaje" style="stroke:#181818;stroke-width:1.0;"/><polygon fill="#181818" points="56.5,433.8588,60.5,424.8588,56.5,428.8588,52.5,424.8588,56.5,433.8588" style="stroke:#181818;stroke-width:1.0;"/></g><!--link Viaje to Impacto--><g id="link_Viaje_Impacto"><path d="M57.57,484.3588 C58.99,495.8888 62.05,509.4688 68.5,520.2188 C82.19,543.0038 105.175,562.0138 124.9888,575.445 C129.9422,578.8028 134.6974,581.812 139.0597,584.4442 C141.2408,585.7604 138.1188,583.9974 140.0791,585.1216 " fill="none" id="Viaje-to-Impacto" style="stroke:#181818;stroke-width:1.0;"/><polygon fill="#181818" points="145.2839,588.1065,139.4666,580.1593,140.9466,585.6191,135.4868,587.099,145.2839,588.1065" style="stroke:#181818;stroke-width:1.0;"/><text fill="#000000" font-family="sans-serif" font-size="13" lengthAdjust="spacing" textLength="133" x="69.5" y="516.7139">"Onda en propagaci&#243;n"</text></g><!--link *start*Impacto to Reflejo--><g id="link_*start*Impacto_Reflejo"><path d="M247.5,469.6388 C247.5,490.7288 247.5,536.3488 247.5,567.0788 " fill="none" id="*start*Impacto-to-Reflejo" style="stroke:#181818;stroke-width:1.0;"/><polygon fill="#181818" points="247.5,573.0788,251.5,564.0788,247.5,568.0788,243.5,564.0788,247.5,573.0788" style="stroke:#181818;stroke-width:1.0;"/></g><!--link Reflejo to OndaRecibida--><g id="link_Reflejo_OndaRecibida"><path d="M262.67,623.3888 C271.835,637.9988 283.5775,656.7163 293.25,672.1338 C295.6681,675.9881 297.9569,679.6363 300.0436,682.9624 C301.087,684.6254 302.0799,686.208 303.0132,687.6956 C303.1299,687.8816 300.0569,682.9835 300.1717,683.1665 " fill="none" id="Reflejo-to-OndaRecibida" style="stroke:#181818;stroke-width:1.0;"/><polygon fill="#181818" points="303.3604,688.249,301.9656,678.4994,300.7031,684.0136,295.1889,682.751,303.3604,688.249" style="stroke:#181818;stroke-width:1.0;"/><text fill="#000000" font-family="sans-serif" font-size="13" lengthAdjust="spacing" textLength="147" x="283.5" y="655.7139">"Impacta en la superficie"</text></g><!--link *start*OndaRecibida to Percepcion--><g id="link_*start*OndaRecibida_Percepcion"><path d="M503.5,608.2688 C503.5,623.5788 503.5,649.0688 503.5,671.1388 " fill="none" id="*start*OndaRecibida-to-Percepcion" style="stroke:#181818;stroke-width:1.0;"/><polygon fill="#181818" points="503.5,677.1388,507.5,668.1388,503.5,672.1388,499.5,668.1388,503.5,677.1388" style="stroke:#181818;stroke-width:1.0;"/><text fill="#000000" font-family="sans-serif" font-size="13" lengthAdjust="spacing" textLength="93" x="504.5" y="655.7139">"Onda reflejada"</text></g><!--link Percepcion to Eco--><g id="link_Percepcion_Eco"><path d="M498.52,727.3888 C495.2,743.5288 492.0495,758.8119 488.7195,774.9919 " fill="none" id="Percepcion-to-Eco" style="stroke:#181818;stroke-width:1.0;"/><polygon fill="#181818" points="487.51,780.8688,493.2421,772.8598,488.5179,775.9714,485.4064,771.2472,487.51,780.8688" style="stroke:#181818;stroke-width:1.0;"/><text fill="#000000" font-family="sans-serif" font-size="13" lengthAdjust="spacing" textLength="146" x="494.5" y="759.7139">"Sonido llega al receptor"</text></g><!--link OndaRecibida to Eco--><g id="link_OndaRecibida_Eco"><path d="M311.57,703.3388 C312.98,705.6988 335.95,743.9088 364.5,763.2188 C393.32,782.7088 426.3696,792.8641 451.4796,798.7741 " fill="none" id="OndaRecibida-to-Eco" style="stroke:#181818;stroke-width:1.0;"/><polygon fill="#181818" points="457.32,800.1488,449.4758,794.1932,452.453,799.0032,447.643,801.9804,457.32,800.1488" style="stroke:#181818;stroke-width:1.0;"/><text fill="#000000" font-family="sans-serif" font-size="13" lengthAdjust="spacing" textLength="121" x="365.5" y="759.7139">"Percepci&#243;n del eco"</text></g><!--link Impacto to OndaRecibida--><g id="link_Impacto_OndaRecibida"><path d="M145.1882,608.7026 C144.9657,608.8384 144.7423,608.9754 144.518,609.1135 C144.0693,609.3898 143.617,609.6708 143.1617,609.9563 C142.2509,610.5273 141.3279,611.1164 140.3974,611.7226 C136.6752,614.1471 132.8328,616.8434 129.1738,619.7375 C114.5375,631.3138 102.835,646.0538 113.5,659.2188 C127.435,676.4188 175.6175,686.8612 220.96,693.0313 C243.6313,696.1163 265.5925,698.1331 282.2078,699.3925 C290.5155,700.0222 297.4866,700.4625 302.5418,700.7523 C302.8578,700.7704 297.1757,700.4505 297.4766,700.4674 " fill="none" id="Impacto-to-OndaRecibida" style="stroke:#181818;stroke-width:1.0;"/><polygon fill="#181818" points="303.4671,700.8048,294.7063,696.3051,298.475,700.5237,294.2564,704.2924,303.4671,700.8048" style="stroke:#181818;stroke-width:1.0;"/><text fill="#000000" font-family="sans-serif" font-size="13" lengthAdjust="spacing" textLength="88" x="114.5" y="655.7139">"Onda regresa"</text></g><!--link *start*Emision to GenerarOnda--><g id="link_*start*Emision_GenerarOnda"><path d="M357.5,162.7594 C357.5,172.0294 357.5,180.7494 357.5,193.3894 " fill="none" id="*start*Emision-to-GenerarOnda" style="stroke:#181818;stroke-width:1.0;"/><polygon fill="#181818" points="357.5,199.3894,361.5,190.3894,357.5,194.3894,353.5,190.3894,357.5,199.3894" style="stroke:#181818;stroke-width:1.0;"/></g><!--link GenerarOnda to OndaPropagando--><g id="link_GenerarOnda_OndaPropagando"><path d="M357.5,249.8294 C357.5,263.4394 357.5,276.0094 357.5,297.5794 " fill="none" id="GenerarOnda-to-OndaPropagando" style="stroke:#181818;stroke-width:1.0;"/><polygon fill="#181818" points="357.5,303.5794,361.5,294.5794,357.5,298.5794,353.5,294.5794,357.5,303.5794" style="stroke:#181818;stroke-width:1.0;"/><text fill="#000000" font-family="sans-serif" font-size="13" lengthAdjust="spacing" textLength="96" x="358.5" y="282.1045">"Sonido emitido"</text></g><!--link *start* to Emision--><g id="link_*start*_Emision"><path d="M356.5,26.38 C356.5,40.12 356.5,62 356.5,97.75 " fill="none" id="*start*-to-Emision" style="stroke:#181818;stroke-width:1.0;"/><polygon fill="#181818" points="356.5,103.75,360.5,94.75,356.5,98.75,352.5,94.75,356.5,103.75" style="stroke:#181818;stroke-width:1.0;"/><text fill="#000000" font-family="sans-serif" font-size="13" lengthAdjust="spacing" textLength="78" x="357.5" y="70.4951">Estado inicial</text></g><!--SRC=[RL4xRiCm3Drz2i9ZWLmWGxUWwDGW1Re47LZvnM0WIuAiJ4LFrIFqOcNf3-IWMaHIxqDIvuTtskqUwJ38A37GdWvZuIwI1772lcaqBLZVFnlISvvPJmZ8d5z2nrQlSdl_2uuv9kuvgEQUsjSOH2CCKlHkcw_5u0wwzNaJli8g5bdjUKZiYecQ7mAbYU_avpjKqWjogtd2nUCQhJR7QyydEFaG5LNnYMtwdccy9UIBhWPtlQ-KhSiHsI6vQRLJezdCkEFMa1N2FiBLU_8UFHDx9Icen6ok6x-Aj4Zf-DJ14vnkU9d-lzdcVlgCaTjV]--></g></svg>