<?xml version="1.0" encoding="us-ascii" standalone="no"?><svg xmlns="http://www.w3.org/2000/svg" xmlns:xlink="http://www.w3.org/1999/xlink" contentStyleType="text/css" height="1042px" preserveAspectRatio="none" style="width:355px;height:1042px;background:#FFFFFF;" version="1.1" viewBox="0 0 355 1042" width="355px" zoomAndPan="magnify"><defs/><g><!--cluster Eco--><g id="cluster_Eco"><path d="M8.5,6 L35.5,6 A3.75,3.75 0 0 1 38,8.5 L45,29.6094 L345.5,29.6094 A2.5,2.5 0 0 1 348,32.1094 L348,1032.5 A2.5,2.5 0 0 1 345.5,1035 L8.5,1035 A2.5,2.5 0 0 1 6,1032.5 L6,8.5 A2.5,2.5 0 0 1 8.5,6 " fill="none" style="stroke:#000000;stroke-width:1.5;"/><line style="stroke:#000000;stroke-width:1.5;" x1="6" x2="45" y1="29.6094" y2="29.6094"/><text fill="#000000" font-family="sans-serif" font-size="14" font-weight="bold" lengthAdjust="spacing" textLength="26" x="10" y="22.5332">Eco</text></g><!--class FuenteDeSonido--><g id="elem_FuenteDeSonido"><rect codeLine="2" fill="#F1F1F1" height="83.2188" id="FuenteDeSonido" rx="2.5" ry="2.5" style="stroke:#181818;stroke-width:0.5;" width="139" x="144.5" y="42"/><ellipse cx="159.5" cy="58" fill="#ADD1B2" rx="11" ry="11" style="stroke:#181818;stroke-width:1.0;"/><path d="M162.2656,53.875 Q162.4219,53.6563 162.6094,53.5469 Q162.7969,53.4375 163.0156,53.4375 Q163.3906,53.4375 163.625,53.7031 Q163.8594,53.9531 163.8594,54.5625 L163.8594,56.0156 Q163.8594,56.625 163.625,56.8906 Q163.3906,57.1563 163.0156,57.1563 Q162.6719,57.1563 162.4688,56.9531 Q162.2656,56.7656 162.1563,56.25 Q162.1094,55.8906 161.9219,55.7031 Q161.5938,55.3281 160.9844,55.1094 Q160.375,54.8906 159.75,54.8906 Q158.9844,54.8906 158.3438,55.2188 Q157.7188,55.5469 157.2188,56.2969 Q156.7344,57.0469 156.7344,58.0781 L156.7344,59.1719 Q156.7344,60.4063 157.625,61.2344 Q158.5156,62.0469 160.1094,62.0469 Q161.0469,62.0469 161.7031,61.7969 Q162.0938,61.6406 162.5156,61.2031 Q162.7813,60.9375 162.9219,60.8594 Q163.0781,60.7813 163.2813,60.7813 Q163.6094,60.7813 163.8594,61.0469 Q164.125,61.2969 164.125,61.6406 Q164.125,61.9844 163.7813,62.3906 Q163.2813,62.9688 162.4844,63.2969 Q161.4063,63.75 160.1094,63.75 Q158.5938,63.75 157.3906,63.125 Q156.4063,62.625 155.7188,61.5625 Q155.0313,60.4844 155.0313,59.2031 L155.0313,58.0469 Q155.0313,56.7188 155.6406,55.5781 Q156.2656,54.4219 157.3594,53.8125 Q158.4531,53.1875 159.6875,53.1875 Q160.4219,53.1875 161.0625,53.3594 Q161.7188,53.5156 162.2656,53.875 Z " fill="#000000"/><text fill="#000000" font-family="sans-serif" font-size="14" lengthAdjust="spacing" textLength="107" x="173.5" y="63.7285">FuenteDeSonido</text><line style="stroke:#181818;stroke-width:0.5;" x1="145.5" x2="282.5" y1="74" y2="74"/><ellipse cx="155.5" cy="88.3047" fill="none" rx="3" ry="3" style="stroke:#038048;stroke-width:1.0;"/><text fill="#000000" font-family="sans-serif" font-size="14" lengthAdjust="spacing" textLength="62" x="164.5" y="92.5332">string tipo</text><ellipse cx="155.5" cy="105.9141" fill="none" rx="3" ry="3" style="stroke:#038048;stroke-width:1.0;"/><text fill="#000000" font-family="sans-serif" font-size="14" lengthAdjust="spacing" textLength="85" x="164.5" y="110.1426">float potencia</text><line style="stroke:#181818;stroke-width:0.5;" x1="145.5" x2="282.5" y1="117.2188" y2="117.2188"/></g><!--class OndaSonora--><g id="elem_OndaSonora"><rect codeLine="6" fill="#F1F1F1" height="118.4375" id="OndaSonora" rx="2.5" ry="2.5" style="stroke:#181818;stroke-width:0.5;" width="160" x="134" y="203"/><ellipse cx="170.15" cy="219" fill="#ADD1B2" rx="11" ry="11" style="stroke:#181818;stroke-width:1.0;"/><path d="M172.9156,214.875 Q173.0719,214.6563 173.2594,214.5469 Q173.4469,214.4375 173.6656,214.4375 Q174.0406,214.4375 174.275,214.7031 Q174.5094,214.9531 174.5094,215.5625 L174.5094,217.0156 Q174.5094,217.625 174.275,217.8906 Q174.0406,218.1563 173.6656,218.1563 Q173.3219,218.1563 173.1188,217.9531 Q172.9156,217.7656 172.8063,217.25 Q172.7594,216.8906 172.5719,216.7031 Q172.2438,216.3281 171.6344,216.1094 Q171.025,215.8906 170.4,215.8906 Q169.6344,215.8906 168.9938,216.2188 Q168.3688,216.5469 167.8688,217.2969 Q167.3844,218.0469 167.3844,219.0781 L167.3844,220.1719 Q167.3844,221.4063 168.275,222.2344 Q169.1656,223.0469 170.7594,223.0469 Q171.6969,223.0469 172.3531,222.7969 Q172.7438,222.6406 173.1656,222.2031 Q173.4313,221.9375 173.5719,221.8594 Q173.7281,221.7813 173.9313,221.7813 Q174.2594,221.7813 174.5094,222.0469 Q174.775,222.2969 174.775,222.6406 Q174.775,222.9844 174.4313,223.3906 Q173.9313,223.9688 173.1344,224.2969 Q172.0563,224.75 170.7594,224.75 Q169.2438,224.75 168.0406,224.125 Q167.0563,223.625 166.3688,222.5625 Q165.6813,221.4844 165.6813,220.2031 L165.6813,219.0469 Q165.6813,217.7188 166.2906,216.5781 Q166.9156,215.4219 168.0094,214.8125 Q169.1031,214.1875 170.3375,214.1875 Q171.0719,214.1875 171.7125,214.3594 Q172.3688,214.5156 172.9156,214.875 Z " fill="#000000"/><text fill="#000000" font-family="sans-serif" font-size="14" lengthAdjust="spacing" textLength="81" x="188.85" y="224.7285">OndaSonora</text><line style="stroke:#181818;stroke-width:0.5;" x1="135" x2="293" y1="235" y2="235"/><ellipse cx="145" cy="249.3047" fill="none" rx="3" ry="3" style="stroke:#038048;stroke-width:1.0;"/><text fill="#000000" font-family="sans-serif" font-size="14" lengthAdjust="spacing" textLength="97" x="154" y="253.5332">float frecuencia</text><ellipse cx="145" cy="266.9141" fill="none" rx="3" ry="3" style="stroke:#038048;stroke-width:1.0;"/><text fill="#000000" font-family="sans-serif" font-size="14" lengthAdjust="spacing" textLength="134" x="154" y="271.1426">float longitudDeOnda</text><ellipse cx="145" cy="284.5234" fill="none" rx="3" ry="3" style="stroke:#038048;stroke-width:1.0;"/><text fill="#000000" font-family="sans-serif" font-size="14" lengthAdjust="spacing" textLength="84" x="154" y="288.752">float amplitud</text><ellipse cx="145" cy="302.1328" fill="none" rx="3" ry="3" style="stroke:#038048;stroke-width:1.0;"/><text fill="#000000" font-family="sans-serif" font-size="14" lengthAdjust="spacing" textLength="130" x="154" y="306.3613">boolean esReflejada</text><line style="stroke:#181818;stroke-width:0.5;" x1="135" x2="293" y1="313.4375" y2="313.4375"/></g><!--class MedioDePropagaci?n--><g id="elem_MedioDePropagaci&#243;n"><rect codeLine="12" fill="#F1F1F1" height="83.2188" id="MedioDePropagaci&#243;n" rx="2.5" ry="2.5" style="stroke:#181818;stroke-width:0.5;" width="197" x="46.5" y="399"/><ellipse cx="74.55" cy="415" fill="#ADD1B2" rx="11" ry="11" style="stroke:#181818;stroke-width:1.0;"/><path d="M77.3156,410.875 Q77.4719,410.6563 77.6594,410.5469 Q77.8469,410.4375 78.0656,410.4375 Q78.4406,410.4375 78.675,410.7031 Q78.9094,410.9531 78.9094,411.5625 L78.9094,413.0156 Q78.9094,413.625 78.675,413.8906 Q78.4406,414.1563 78.0656,414.1563 Q77.7219,414.1563 77.5188,413.9531 Q77.3156,413.7656 77.2063,413.25 Q77.1594,412.8906 76.9719,412.7031 Q76.6438,412.3281 76.0344,412.1094 Q75.425,411.8906 74.8,411.8906 Q74.0344,411.8906 73.3938,412.2188 Q72.7688,412.5469 72.2688,413.2969 Q71.7844,414.0469 71.7844,415.0781 L71.7844,416.1719 Q71.7844,417.4063 72.675,418.2344 Q73.5656,419.0469 75.1594,419.0469 Q76.0969,419.0469 76.7531,418.7969 Q77.1438,418.6406 77.5656,418.2031 Q77.8313,417.9375 77.9719,417.8594 Q78.1281,417.7813 78.3313,417.7813 Q78.6594,417.7813 78.9094,418.0469 Q79.175,418.2969 79.175,418.6406 Q79.175,418.9844 78.8313,419.3906 Q78.3313,419.9688 77.5344,420.2969 Q76.4563,420.75 75.1594,420.75 Q73.6438,420.75 72.4406,420.125 Q71.4563,419.625 70.7688,418.5625 Q70.0813,417.4844 70.0813,416.2031 L70.0813,415.0469 Q70.0813,413.7188 70.6906,412.5781 Q71.3156,411.4219 72.4094,410.8125 Q73.5031,410.1875 74.7375,410.1875 Q75.4719,410.1875 76.1125,410.3594 Q76.7688,410.5156 77.3156,410.875 Z " fill="#000000"/><text fill="#000000" font-family="sans-serif" font-size="14" lengthAdjust="spacing" textLength="136" x="91.45" y="420.7285">MedioDePropagaci&#243;n</text><line style="stroke:#181818;stroke-width:0.5;" x1="47.5" x2="242.5" y1="431" y2="431"/><ellipse cx="57.5" cy="445.3047" fill="none" rx="3" ry="3" style="stroke:#038048;stroke-width:1.0;"/><text fill="#000000" font-family="sans-serif" font-size="14" lengthAdjust="spacing" textLength="62" x="66.5" y="449.5332">string tipo</text><ellipse cx="57.5" cy="462.9141" fill="none" rx="3" ry="3" style="stroke:#038048;stroke-width:1.0;"/><text fill="#000000" font-family="sans-serif" font-size="14" lengthAdjust="spacing" textLength="171" x="66.5" y="467.1426">float velocidadPropagacion</text><line style="stroke:#181818;stroke-width:0.5;" x1="47.5" x2="242.5" y1="474.2188" y2="474.2188"/></g><!--class SuperficieReflectora--><g id="elem_SuperficieReflectora"><rect codeLine="16" fill="#F1F1F1" height="100.8281" id="SuperficieReflectora" rx="2.5" ry="2.5" style="stroke:#181818;stroke-width:0.5;" width="199" x="22.5" y="560"/><ellipse cx="55.05" cy="576" fill="#ADD1B2" rx="11" ry="11" style="stroke:#181818;stroke-width:1.0;"/><path d="M57.8156,571.875 Q57.9719,571.6563 58.1594,571.5469 Q58.3469,571.4375 58.5656,571.4375 Q58.9406,571.4375 59.175,571.7031 Q59.4094,571.9531 59.4094,572.5625 L59.4094,574.0156 Q59.4094,574.625 59.175,574.8906 Q58.9406,575.1563 58.5656,575.1563 Q58.2219,575.1563 58.0188,574.9531 Q57.8156,574.7656 57.7063,574.25 Q57.6594,573.8906 57.4719,573.7031 Q57.1438,573.3281 56.5344,573.1094 Q55.925,572.8906 55.3,572.8906 Q54.5344,572.8906 53.8938,573.2188 Q53.2688,573.5469 52.7688,574.2969 Q52.2844,575.0469 52.2844,576.0781 L52.2844,577.1719 Q52.2844,578.4063 53.175,579.2344 Q54.0656,580.0469 55.6594,580.0469 Q56.5969,580.0469 57.2531,579.7969 Q57.6438,579.6406 58.0656,579.2031 Q58.3313,578.9375 58.4719,578.8594 Q58.6281,578.7813 58.8313,578.7813 Q59.1594,578.7813 59.4094,579.0469 Q59.675,579.2969 59.675,579.6406 Q59.675,579.9844 59.3313,580.3906 Q58.8313,580.9688 58.0344,581.2969 Q56.9563,581.75 55.6594,581.75 Q54.1438,581.75 52.9406,581.125 Q51.9563,580.625 51.2688,579.5625 Q50.5813,578.4844 50.5813,577.2031 L50.5813,576.0469 Q50.5813,574.7188 51.1906,573.5781 Q51.8156,572.4219 52.9094,571.8125 Q54.0031,571.1875 55.2375,571.1875 Q55.9719,571.1875 56.6125,571.3594 Q57.2688,571.5156 57.8156,571.875 Z " fill="#000000"/><text fill="#000000" font-family="sans-serif" font-size="14" lengthAdjust="spacing" textLength="128" x="72.95" y="581.7285">SuperficieReflectora</text><line style="stroke:#181818;stroke-width:0.5;" x1="23.5" x2="220.5" y1="592" y2="592"/><ellipse cx="33.5" cy="606.3047" fill="none" rx="3" ry="3" style="stroke:#038048;stroke-width:1.0;"/><text fill="#000000" font-family="sans-serif" font-size="14" lengthAdjust="spacing" textLength="87" x="42.5" y="610.5332">float distancia</text><ellipse cx="33.5" cy="623.9141" fill="none" rx="3" ry="3" style="stroke:#038048;stroke-width:1.0;"/><text fill="#000000" font-family="sans-serif" font-size="14" lengthAdjust="spacing" textLength="157" x="42.5" y="628.1426">float coeficienteReflexion</text><ellipse cx="33.5" cy="641.5234" fill="none" rx="3" ry="3" style="stroke:#038048;stroke-width:1.0;"/><text fill="#000000" font-family="sans-serif" font-size="14" lengthAdjust="spacing" textLength="173" x="42.5" y="645.752">boolean obstaculoPresente</text><line style="stroke:#181818;stroke-width:0.5;" x1="23.5" x2="220.5" y1="652.8281" y2="652.8281"/></g><!--class Receptor--><g id="elem_Receptor"><rect codeLine="21" fill="#F1F1F1" height="100.8281" id="Receptor" rx="2.5" ry="2.5" style="stroke:#181818;stroke-width:0.5;" width="184" x="103" y="918"/><ellipse cx="161.75" cy="934" fill="#ADD1B2" rx="11" ry="11" style="stroke:#181818;stroke-width:1.0;"/><path d="M164.5156,929.875 Q164.6719,929.6563 164.8594,929.5469 Q165.0469,929.4375 165.2656,929.4375 Q165.6406,929.4375 165.875,929.7031 Q166.1094,929.9531 166.1094,930.5625 L166.1094,932.0156 Q166.1094,932.625 165.875,932.8906 Q165.6406,933.1563 165.2656,933.1563 Q164.9219,933.1563 164.7188,932.9531 Q164.5156,932.7656 164.4063,932.25 Q164.3594,931.8906 164.1719,931.7031 Q163.8438,931.3281 163.2344,931.1094 Q162.625,930.8906 162,930.8906 Q161.2344,930.8906 160.5938,931.2188 Q159.9688,931.5469 159.4688,932.2969 Q158.9844,933.0469 158.9844,934.0781 L158.9844,935.1719 Q158.9844,936.4063 159.875,937.2344 Q160.7656,938.0469 162.3594,938.0469 Q163.2969,938.0469 163.9531,937.7969 Q164.3438,937.6406 164.7656,937.2031 Q165.0313,936.9375 165.1719,936.8594 Q165.3281,936.7813 165.5313,936.7813 Q165.8594,936.7813 166.1094,937.0469 Q166.375,937.2969 166.375,937.6406 Q166.375,937.9844 166.0313,938.3906 Q165.5313,938.9688 164.7344,939.2969 Q163.6563,939.75 162.3594,939.75 Q160.8438,939.75 159.6406,939.125 Q158.6563,938.625 157.9688,937.5625 Q157.2813,936.4844 157.2813,935.2031 L157.2813,934.0469 Q157.2813,932.7188 157.8906,931.5781 Q158.5156,930.4219 159.6094,929.8125 Q160.7031,929.1875 161.9375,929.1875 Q162.6719,929.1875 163.3125,929.3594 Q163.9688,929.5156 164.5156,929.875 Z " fill="#000000"/><text fill="#000000" font-family="sans-serif" font-size="14" lengthAdjust="spacing" textLength="58" x="182.25" y="939.7285">Receptor</text><line style="stroke:#181818;stroke-width:0.5;" x1="104" x2="286" y1="950" y2="950"/><ellipse cx="114" cy="964.3047" fill="none" rx="3" ry="3" style="stroke:#038048;stroke-width:1.0;"/><text fill="#000000" font-family="sans-serif" font-size="14" lengthAdjust="spacing" textLength="62" x="123" y="968.5332">string tipo</text><ellipse cx="114" cy="981.9141" fill="none" rx="3" ry="3" style="stroke:#038048;stroke-width:1.0;"/><text fill="#000000" font-family="sans-serif" font-size="14" lengthAdjust="spacing" textLength="105" x="123" y="986.1426">float sensibilidad</text><ellipse cx="114" cy="999.5234" fill="none" rx="3" ry="3" style="stroke:#038048;stroke-width:1.0;"/><text fill="#000000" font-family="sans-serif" font-size="14" lengthAdjust="spacing" textLength="158" x="123" y="1003.752">float distanciaMaximaEco</text><line style="stroke:#181818;stroke-width:0.5;" x1="104" x2="286" y1="1010.8281" y2="1010.8281"/></g><!--class Eco--><g id="elem_Eco"><rect codeLine="26" fill="#F1F1F1" height="100.8281" id="Eco" rx="2.5" ry="2.5" style="stroke:#181818;stroke-width:0.5;" width="155" x="72.5" y="739"/><ellipse cx="133.75" cy="755" fill="#ADD1B2" rx="11" ry="11" style="stroke:#181818;stroke-width:1.0;"/><path d="M136.5156,750.875 Q136.6719,750.6563 136.8594,750.5469 Q137.0469,750.4375 137.2656,750.4375 Q137.6406,750.4375 137.875,750.7031 Q138.1094,750.9531 138.1094,751.5625 L138.1094,753.0156 Q138.1094,753.625 137.875,753.8906 Q137.6406,754.1563 137.2656,754.1563 Q136.9219,754.1563 136.7188,753.9531 Q136.5156,753.7656 136.4063,753.25 Q136.3594,752.8906 136.1719,752.7031 Q135.8438,752.3281 135.2344,752.1094 Q134.625,751.8906 134,751.8906 Q133.2344,751.8906 132.5938,752.2188 Q131.9688,752.5469 131.4688,753.2969 Q130.9844,754.0469 130.9844,755.0781 L130.9844,756.1719 Q130.9844,757.4063 131.875,758.2344 Q132.7656,759.0469 134.3594,759.0469 Q135.2969,759.0469 135.9531,758.7969 Q136.3438,758.6406 136.7656,758.2031 Q137.0313,757.9375 137.1719,757.8594 Q137.3281,757.7813 137.5313,757.7813 Q137.8594,757.7813 138.1094,758.0469 Q138.375,758.2969 138.375,758.6406 Q138.375,758.9844 138.0313,759.3906 Q137.5313,759.9688 136.7344,760.2969 Q135.6563,760.75 134.3594,760.75 Q132.8438,760.75 131.6406,760.125 Q130.6563,759.625 129.9688,758.5625 Q129.2813,757.4844 129.2813,756.2031 L129.2813,755.0469 Q129.2813,753.7188 129.8906,752.5781 Q130.5156,751.4219 131.6094,750.8125 Q132.7031,750.1875 133.9375,750.1875 Q134.6719,750.1875 135.3125,750.3594 Q135.9688,750.5156 136.5156,750.875 Z " fill="#000000"/><text fill="#000000" font-family="sans-serif" font-size="14" lengthAdjust="spacing" textLength="24" x="154.25" y="760.7285">Eco</text><line style="stroke:#181818;stroke-width:0.5;" x1="73.5" x2="226.5" y1="771" y2="771"/><ellipse cx="83.5" cy="785.3047" fill="none" rx="3" ry="3" style="stroke:#038048;stroke-width:1.0;"/><text fill="#000000" font-family="sans-serif" font-size="14" lengthAdjust="spacing" textLength="123" x="92.5" y="789.5332">float tiempoRetraso</text><ellipse cx="83.5" cy="802.9141" fill="none" rx="3" ry="3" style="stroke:#038048;stroke-width:1.0;"/><text fill="#000000" font-family="sans-serif" font-size="14" lengthAdjust="spacing" textLength="96" x="92.5" y="807.1426">float intensidad</text><ellipse cx="83.5" cy="820.5234" fill="none" rx="3" ry="3" style="stroke:#038048;stroke-width:1.0;"/><text fill="#000000" font-family="sans-serif" font-size="14" lengthAdjust="spacing" textLength="129" x="92.5" y="824.752">boolean esPercibido</text><line style="stroke:#181818;stroke-width:0.5;" x1="73.5" x2="226.5" y1="831.8281" y2="831.8281"/></g><!--link FuenteDeSonido to OndaSonora--><g id="link_FuenteDeSonido_OndaSonora"><path codeLine="32" d="M214,125.44 C214,148.45 214,177.56 214,202.9 " fill="none" id="FuenteDeSonido-OndaSonora" style="stroke:#181818;stroke-width:1.0;"/><text fill="#000000" font-family="sans-serif" font-size="13" lengthAdjust="spacing" textLength="39" x="215" y="169.4951">genera</text></g><!--link OndaSonora to MedioDePropagaci?n--><g id="link_OndaSonora_MedioDePropagaci&#243;n"><path codeLine="33" d="M164.66,321.47 C158.8,330.87 153.62,340.86 150,351 C144.62,366.07 142.79,383.51 142.51,398.89 " fill="none" id="OndaSonora-MedioDePropagaci&#243;n" style="stroke:#181818;stroke-width:1.0;"/><text fill="#000000" font-family="sans-serif" font-size="13" lengthAdjust="spacing" textLength="131" x="151" y="365.4951">se propaga a trav&#233;s de</text></g><!--link MedioDePropagaci?n to SuperficieReflectora--><g id="link_MedioDePropagaci&#243;n_SuperficieReflectora"><path codeLine="34" d="M139.43,482.17 C136.23,505.57 132.18,535.15 128.79,559.91 " fill="none" id="MedioDePropagaci&#243;n-SuperficieReflectora" style="stroke:#181818;stroke-width:1.0;"/><text fill="#000000" font-family="sans-serif" font-size="13" lengthAdjust="spacing" textLength="64" x="135" y="526.4951">impacta en</text></g><!--link OndaSonora to Receptor--><g id="link_OndaSonora_Receptor"><path codeLine="35" d="M270.6,321.27 C277.15,330.62 282.93,340.65 287,351 C301.41,387.67 292,400.1 292,439.5 C292,439.5 292,439.5 292,790.5 C292,837.81 265.03,884.44 239.53,917.96 " fill="none" id="OndaSonora-Receptor" style="stroke:#181818;stroke-width:1.0;"/><text fill="#000000" font-family="sans-serif" font-size="13" lengthAdjust="spacing" textLength="38" x="293" y="615.9951">llega a</text></g><!--link SuperficieReflectora to Eco--><g id="link_SuperficieReflectora_Eco"><path codeLine="36" d="M129.87,661.28 C133.71,685.51 138.3,714.57 142.14,738.79 " fill="none" id="SuperficieReflectora-Eco" style="stroke:#181818;stroke-width:1.0;"/><text fill="#000000" font-family="sans-serif" font-size="13" lengthAdjust="spacing" textLength="140" x="137" y="705.4951">refleja la onda causando</text></g><!--link Eco to Receptor--><g id="link_Eco_Receptor"><path codeLine="37" d="M162.65,840.28 C168.82,864.51 176.2,893.57 182.36,917.79 " fill="none" id="Eco-Receptor" style="stroke:#181818;stroke-width:1.0;"/><text fill="#000000" font-family="sans-serif" font-size="13" lengthAdjust="spacing" textLength="42" x="174" y="884.4951">percibe</text></g><!--SRC=[XLCxRiCm3Drx2Y9haGjqJhi53P8Jq19ji9L5GPA304KErBb7oCLAsOWJEmQoQA3UXu-K0fflR0ZUZS3F2u1nc1AiFZhocJPq4CzMLlqLm6lAaNq3cOCCXTe9PWYIoHj6hPrl6f_Uel8buiWVu7Kaqrq9OzM9RpXtTaE5U7-3RN3bPgXL8exG0wKzrOw-qCvyjsHPDhIB4h11mvS__op0aPmOjcX7alYfwA4B56isJBshoO-nBAUCyrH6g6VfD7lYQL2-oo6LqapdP1Sf5TpKU4-6WhezYw3Kn1MxacAngosUk4NTyrHV2xCScQaDigSSCKqiM9jJaz7WjeaTHQFcTj3MO_f-OBs6ssk0DrWrv4a7gCYxkg8MTbVWYI0C9K3GlewNtmIM2d-9eK9B-ofAt0Oq6O7ye_brr0Nd71Mp0bgKKdZvCegCmoi4Xo0g1mQxX5u_ZL8BP2OS-b5fw-T_]--></g></svg>