<?xml version="1.0" encoding="us-ascii" standalone="no"?><svg xmlns="http://www.w3.org/2000/svg" xmlns:xlink="http://www.w3.org/1999/xlink" contentStyleType="text/css" height="314px" preserveAspectRatio="none" style="width:402px;height:314px;background:#FFFFFF;" version="1.1" viewBox="0 0 402 314" width="402px" zoomAndPan="magnify"><defs/><g><!--class Candidato--><g id="elem_Candidato"><rect codeLine="2" fill="#F1F1F1" height="48" id="Candidato" rx="2.5" ry="2.5" style="stroke:#181818;stroke-width:0.5;" width="97" x="7" y="133"/><ellipse cx="22" cy="149" fill="#ADD1B2" rx="11" ry="11" style="stroke:#181818;stroke-width:1.0;"/><path d="M24.7656,144.875 Q24.9219,144.6563 25.1094,144.5469 Q25.2969,144.4375 25.5156,144.4375 Q25.8906,144.4375 26.125,144.7031 Q26.3594,144.9531 26.3594,145.5625 L26.3594,147.0156 Q26.3594,147.625 26.125,147.8906 Q25.8906,148.1563 25.5156,148.1563 Q25.1719,148.1563 24.9688,147.9531 Q24.7656,147.7656 24.6563,147.25 Q24.6094,146.8906 24.4219,146.7031 Q24.0938,146.3281 23.4844,146.1094 Q22.875,145.8906 22.25,145.8906 Q21.4844,145.8906 20.8438,146.2188 Q20.2188,146.5469 19.7188,147.2969 Q19.2344,148.0469 19.2344,149.0781 L19.2344,150.1719 Q19.2344,151.4063 20.125,152.2344 Q21.0156,153.0469 22.6094,153.0469 Q23.5469,153.0469 24.2031,152.7969 Q24.5938,152.6406 25.0156,152.2031 Q25.2813,151.9375 25.4219,151.8594 Q25.5781,151.7813 25.7813,151.7813 Q26.1094,151.7813 26.3594,152.0469 Q26.625,152.2969 26.625,152.6406 Q26.625,152.9844 26.2813,153.3906 Q25.7813,153.9688 24.9844,154.2969 Q23.9063,154.75 22.6094,154.75 Q21.0938,154.75 19.8906,154.125 Q18.9063,153.625 18.2188,152.5625 Q17.5313,151.4844 17.5313,150.2031 L17.5313,149.0469 Q17.5313,147.7188 18.1406,146.5781 Q18.7656,145.4219 19.8594,144.8125 Q20.9531,144.1875 22.1875,144.1875 Q22.9219,144.1875 23.5625,144.3594 Q24.2188,144.5156 24.7656,144.875 Z " fill="#000000"/><text fill="#000000" font-family="sans-serif" font-size="14" lengthAdjust="spacing" textLength="65" x="36" y="154.7285">Candidato</text><line style="stroke:#181818;stroke-width:0.5;" x1="8" x2="103" y1="165" y2="165"/><line style="stroke:#181818;stroke-width:0.5;" x1="8" x2="103" y1="173" y2="173"/></g><!--class Sufragante--><g id="elem_Sufragante"><rect codeLine="3" fill="#F1F1F1" height="48" id="Sufragante" rx="2.5" ry="2.5" style="stroke:#181818;stroke-width:0.5;" width="102" x="139.5" y="133"/><ellipse cx="154.5" cy="149" fill="#ADD1B2" rx="11" ry="11" style="stroke:#181818;stroke-width:1.0;"/><path d="M157.2656,144.875 Q157.4219,144.6563 157.6094,144.5469 Q157.7969,144.4375 158.0156,144.4375 Q158.3906,144.4375 158.625,144.7031 Q158.8594,144.9531 158.8594,145.5625 L158.8594,147.0156 Q158.8594,147.625 158.625,147.8906 Q158.3906,148.1563 158.0156,148.1563 Q157.6719,148.1563 157.4688,147.9531 Q157.2656,147.7656 157.1563,147.25 Q157.1094,146.8906 156.9219,146.7031 Q156.5938,146.3281 155.9844,146.1094 Q155.375,145.8906 154.75,145.8906 Q153.9844,145.8906 153.3438,146.2188 Q152.7188,146.5469 152.2188,147.2969 Q151.7344,148.0469 151.7344,149.0781 L151.7344,150.1719 Q151.7344,151.4063 152.625,152.2344 Q153.5156,153.0469 155.1094,153.0469 Q156.0469,153.0469 156.7031,152.7969 Q157.0938,152.6406 157.5156,152.2031 Q157.7813,151.9375 157.9219,151.8594 Q158.0781,151.7813 158.2813,151.7813 Q158.6094,151.7813 158.8594,152.0469 Q159.125,152.2969 159.125,152.6406 Q159.125,152.9844 158.7813,153.3906 Q158.2813,153.9688 157.4844,154.2969 Q156.4063,154.75 155.1094,154.75 Q153.5938,154.75 152.3906,154.125 Q151.4063,153.625 150.7188,152.5625 Q150.0313,151.4844 150.0313,150.2031 L150.0313,149.0469 Q150.0313,147.7188 150.6406,146.5781 Q151.2656,145.4219 152.3594,144.8125 Q153.4531,144.1875 154.6875,144.1875 Q155.4219,144.1875 156.0625,144.3594 Q156.7188,144.5156 157.2656,144.875 Z " fill="#000000"/><text fill="#000000" font-family="sans-serif" font-size="14" lengthAdjust="spacing" textLength="70" x="168.5" y="154.7285">Sufragante</text><line style="stroke:#181818;stroke-width:0.5;" x1="140.5" x2="240.5" y1="165" y2="165"/><line style="stroke:#181818;stroke-width:0.5;" x1="140.5" x2="240.5" y1="173" y2="173"/></g><!--class Secretario--><g id="elem_Secretario"><rect codeLine="4" fill="#F1F1F1" height="48" id="Secretario" rx="2.5" ry="2.5" style="stroke:#181818;stroke-width:0.5;" width="97" x="283" y="7"/><ellipse cx="298" cy="23" fill="#ADD1B2" rx="11" ry="11" style="stroke:#181818;stroke-width:1.0;"/><path d="M300.7656,18.875 Q300.9219,18.6563 301.1094,18.5469 Q301.2969,18.4375 301.5156,18.4375 Q301.8906,18.4375 302.125,18.7031 Q302.3594,18.9531 302.3594,19.5625 L302.3594,21.0156 Q302.3594,21.625 302.125,21.8906 Q301.8906,22.1563 301.5156,22.1563 Q301.1719,22.1563 300.9688,21.9531 Q300.7656,21.7656 300.6563,21.25 Q300.6094,20.8906 300.4219,20.7031 Q300.0938,20.3281 299.4844,20.1094 Q298.875,19.8906 298.25,19.8906 Q297.4844,19.8906 296.8438,20.2188 Q296.2188,20.5469 295.7188,21.2969 Q295.2344,22.0469 295.2344,23.0781 L295.2344,24.1719 Q295.2344,25.4063 296.125,26.2344 Q297.0156,27.0469 298.6094,27.0469 Q299.5469,27.0469 300.2031,26.7969 Q300.5938,26.6406 301.0156,26.2031 Q301.2813,25.9375 301.4219,25.8594 Q301.5781,25.7813 301.7813,25.7813 Q302.1094,25.7813 302.3594,26.0469 Q302.625,26.2969 302.625,26.6406 Q302.625,26.9844 302.2813,27.3906 Q301.7813,27.9688 300.9844,28.2969 Q299.9063,28.75 298.6094,28.75 Q297.0938,28.75 295.8906,28.125 Q294.9063,27.625 294.2188,26.5625 Q293.5313,25.4844 293.5313,24.2031 L293.5313,23.0469 Q293.5313,21.7188 294.1406,20.5781 Q294.7656,19.4219 295.8594,18.8125 Q296.9531,18.1875 298.1875,18.1875 Q298.9219,18.1875 299.5625,18.3594 Q300.2188,18.5156 300.7656,18.875 Z " fill="#000000"/><text fill="#000000" font-family="sans-serif" font-size="14" lengthAdjust="spacing" textLength="65" x="312" y="28.7285">Secretario</text><line style="stroke:#181818;stroke-width:0.5;" x1="284" x2="379" y1="39" y2="39"/><line style="stroke:#181818;stroke-width:0.5;" x1="284" x2="379" y1="47" y2="47"/></g><!--class Organizador--><g id="elem_Organizador"><rect codeLine="5" fill="#F1F1F1" height="48" id="Organizador" rx="2.5" ry="2.5" style="stroke:#181818;stroke-width:0.5;" width="110" x="276.5" y="133"/><ellipse cx="291.5" cy="149" fill="#ADD1B2" rx="11" ry="11" style="stroke:#181818;stroke-width:1.0;"/><path d="M294.2656,144.875 Q294.4219,144.6563 294.6094,144.5469 Q294.7969,144.4375 295.0156,144.4375 Q295.3906,144.4375 295.625,144.7031 Q295.8594,144.9531 295.8594,145.5625 L295.8594,147.0156 Q295.8594,147.625 295.625,147.8906 Q295.3906,148.1563 295.0156,148.1563 Q294.6719,148.1563 294.4688,147.9531 Q294.2656,147.7656 294.1563,147.25 Q294.1094,146.8906 293.9219,146.7031 Q293.5938,146.3281 292.9844,146.1094 Q292.375,145.8906 291.75,145.8906 Q290.9844,145.8906 290.3438,146.2188 Q289.7188,146.5469 289.2188,147.2969 Q288.7344,148.0469 288.7344,149.0781 L288.7344,150.1719 Q288.7344,151.4063 289.625,152.2344 Q290.5156,153.0469 292.1094,153.0469 Q293.0469,153.0469 293.7031,152.7969 Q294.0938,152.6406 294.5156,152.2031 Q294.7813,151.9375 294.9219,151.8594 Q295.0781,151.7813 295.2813,151.7813 Q295.6094,151.7813 295.8594,152.0469 Q296.125,152.2969 296.125,152.6406 Q296.125,152.9844 295.7813,153.3906 Q295.2813,153.9688 294.4844,154.2969 Q293.4063,154.75 292.1094,154.75 Q290.5938,154.75 289.3906,154.125 Q288.4063,153.625 287.7188,152.5625 Q287.0313,151.4844 287.0313,150.2031 L287.0313,149.0469 Q287.0313,147.7188 287.6406,146.5781 Q288.2656,145.4219 289.3594,144.8125 Q290.4531,144.1875 291.6875,144.1875 Q292.4219,144.1875 293.0625,144.3594 Q293.7188,144.5156 294.2656,144.875 Z " fill="#000000"/><text fill="#000000" font-family="sans-serif" font-size="14" lengthAdjust="spacing" textLength="78" x="305.5" y="154.7285">Organizador</text><line style="stroke:#181818;stroke-width:0.5;" x1="277.5" x2="385.5" y1="165" y2="165"/><line style="stroke:#181818;stroke-width:0.5;" x1="277.5" x2="385.5" y1="173" y2="173"/></g><!--class Elecci?n--><g id="elem_Elecci&#243;n"><rect codeLine="6" fill="#F1F1F1" height="48" id="Elecci&#243;n" rx="2.5" ry="2.5" style="stroke:#181818;stroke-width:0.5;" width="85" x="148" y="259"/><ellipse cx="163" cy="275" fill="#ADD1B2" rx="11" ry="11" style="stroke:#181818;stroke-width:1.0;"/><path d="M165.7656,270.875 Q165.9219,270.6563 166.1094,270.5469 Q166.2969,270.4375 166.5156,270.4375 Q166.8906,270.4375 167.125,270.7031 Q167.3594,270.9531 167.3594,271.5625 L167.3594,273.0156 Q167.3594,273.625 167.125,273.8906 Q166.8906,274.1563 166.5156,274.1563 Q166.1719,274.1563 165.9688,273.9531 Q165.7656,273.7656 165.6563,273.25 Q165.6094,272.8906 165.4219,272.7031 Q165.0938,272.3281 164.4844,272.1094 Q163.875,271.8906 163.25,271.8906 Q162.4844,271.8906 161.8438,272.2188 Q161.2188,272.5469 160.7188,273.2969 Q160.2344,274.0469 160.2344,275.0781 L160.2344,276.1719 Q160.2344,277.4063 161.125,278.2344 Q162.0156,279.0469 163.6094,279.0469 Q164.5469,279.0469 165.2031,278.7969 Q165.5938,278.6406 166.0156,278.2031 Q166.2813,277.9375 166.4219,277.8594 Q166.5781,277.7813 166.7813,277.7813 Q167.1094,277.7813 167.3594,278.0469 Q167.625,278.2969 167.625,278.6406 Q167.625,278.9844 167.2813,279.3906 Q166.7813,279.9688 165.9844,280.2969 Q164.9063,280.75 163.6094,280.75 Q162.0938,280.75 160.8906,280.125 Q159.9063,279.625 159.2188,278.5625 Q158.5313,277.4844 158.5313,276.2031 L158.5313,275.0469 Q158.5313,273.7188 159.1406,272.5781 Q159.7656,271.4219 160.8594,270.8125 Q161.9531,270.1875 163.1875,270.1875 Q163.9219,270.1875 164.5625,270.3594 Q165.2188,270.5156 165.7656,270.875 Z " fill="#000000"/><text fill="#000000" font-family="sans-serif" font-size="14" lengthAdjust="spacing" textLength="53" x="177" y="280.7285">Elecci&#243;n</text><line style="stroke:#181818;stroke-width:0.5;" x1="149" x2="232" y1="291" y2="291"/><line style="stroke:#181818;stroke-width:0.5;" x1="149" x2="232" y1="299" y2="299"/></g><!--link Candidato to Elecci?n--><g id="link_Candidato_Elecci&#243;n"><path codeLine="8" d="M71.39,181.22 C82.05,195.85 96.94,214.63 112.5,229 C124.29,239.88 138.48,250.2 151.51,258.79 " fill="none" id="Candidato-Elecci&#243;n" style="stroke:#181818;stroke-width:1.0;"/><polygon fill="#000000" points="121.0922,223.6537,116.6381,215.2506,112.5496,219.4736,121.0922,223.6537" style="stroke:#000000;stroke-width:1.0;"/><text fill="#000000" font-family="sans-serif" font-size="13" lengthAdjust="spacing" textLength="55" x="126.5" y="225.4951">esVotado</text><text fill="#000000" font-family="sans-serif" font-size="13" lengthAdjust="spacing" textLength="20" x="52.8257" y="202.6116">1..*</text><text fill="#000000" font-family="sans-serif" font-size="13" lengthAdjust="spacing" textLength="20" x="120.1811" y="248.8772">1..*</text></g><!--link Sufragante to Elecci?n--><g id="link_Sufragante_Elecci&#243;n"><path codeLine="9" d="M190.5,181.03 C190.5,203.17 190.5,236.44 190.5,258.67 " fill="none" id="Sufragante-Elecci&#243;n" style="stroke:#181818;stroke-width:1.0;"/><polygon fill="#000000" points="195.5,225.1758,198.4389,216.1307,192.5611,216.1307,195.5,225.1758" style="stroke:#000000;stroke-width:1.0;"/><text fill="#000000" font-family="sans-serif" font-size="13" lengthAdjust="spacing" textLength="32" x="204.5" y="225.4951">emite</text><text fill="#000000" font-family="sans-serif" font-size="13" lengthAdjust="spacing" textLength="20" x="168.0625" y="202.3753">1..*</text><text fill="#000000" font-family="sans-serif" font-size="13" lengthAdjust="spacing" textLength="20" x="168.0625" y="248.3275">1..*</text></g><!--link Secretario to Organizador--><g id="link_Secretario_Organizador"><path codeLine="10" d="M331.5,55.03 C331.5,77.17 331.5,110.44 331.5,132.67 " fill="none" id="Secretario-Organizador" style="stroke:#181818;stroke-width:1.0;"/><polygon fill="#000000" points="336.5,99.1758,339.4389,90.1307,333.5611,90.1307,336.5,99.1758" style="stroke:#000000;stroke-width:1.0;"/><text fill="#000000" font-family="sans-serif" font-size="13" lengthAdjust="spacing" textLength="49" x="345.5" y="99.4951">reportaA</text><text fill="#000000" font-family="sans-serif" font-size="13" lengthAdjust="spacing" textLength="7" x="323.6469" y="76.3753">1</text><text fill="#000000" font-family="sans-serif" font-size="13" lengthAdjust="spacing" textLength="7" x="323.6469" y="122.3275">1</text></g><!--link Organizador to Elecci?n--><g id="link_Organizador_Elecci&#243;n"><path codeLine="11" d="M305.31,181.03 C280.14,203.17 242.31,236.44 217.03,258.67 " fill="none" id="Organizador-Elecci&#243;n" style="stroke:#181818;stroke-width:1.0;"/><polygon fill="#000000" points="269.7455,223.4778,278.4784,219.7113,274.5966,215.2975,269.7455,223.4778" style="stroke:#000000;stroke-width:1.0;"/><text fill="#000000" font-family="sans-serif" font-size="13" lengthAdjust="spacing" textLength="49" x="282.5" y="225.4951">coordina</text><text fill="#000000" font-family="sans-serif" font-size="13" lengthAdjust="spacing" textLength="7" x="291.0731" y="202.3753">1</text><text fill="#000000" font-family="sans-serif" font-size="13" lengthAdjust="spacing" textLength="20" x="201.0592" y="248.3275">1..*</text></g><!--SRC=[XSwn2W8n30RWlKyHRXJkmDL1475s4Dn36YLmDfBMvLxBH_3537Aj1mvkRVBbJsZ4d66FAKh4ee4-_zFZOdZ5LBWMc8mBcbHnD6_BX55jhXn69fBNCuNGug1R3yEgWxwlhwPW0vpFMZm1jk6xyC_8JPouR_Uucd6tFCgjyLsjuCxvij7yJpYfMfI4FX3U]--></g></svg>