<svg xmlns="http://www.w3.org/2000/svg" xmlns:xlink="http://www.w3.org/1999/xlink" contentStyleType="text/css" height="734px" preserveAspectRatio="none" style="width:495px;height:734px;background:#FFFFFF;" version="1.1" viewBox="0 0 495 734" width="495px" zoomAndPan="magnify"><defs/><g><ellipse cx="251.41" cy="16" fill="#222222" rx="10" ry="10" style="stroke:#222222;stroke-width:1.0;"/><g id="Creada"><rect fill="#F1F1F1" height="50.2656" rx="12.5" ry="12.5" style="stroke:#181818;stroke-width:0.5;" width="133.3203" x="184.75" y="87"/><line style="stroke:#181818;stroke-width:0.5;" x1="184.75" x2="318.0703" y1="113.2969" y2="113.2969"/><text fill="#000000" font-family="sans-serif" font-size="14" lengthAdjust="spacing" textLength="50.1895" x="226.3154" y="104.9951">Creada</text><text fill="#000000" font-family="sans-serif" font-size="12" lengthAdjust="spacing" textLength="113.3203" x="189.75" y="129.4355">Inicializar Votaci&#243;n</text></g><g id="Abierta"><rect fill="#F1F1F1" height="50" rx="12.5" ry="12.5" style="stroke:#181818;stroke-width:0.5;" width="70.791" x="216.01" y="214.27"/><line style="stroke:#181818;stroke-width:0.5;" x1="216.01" x2="286.801" y1="240.5669" y2="240.5669"/><text fill="#000000" font-family="sans-serif" font-size="14" lengthAdjust="spacing" textLength="50.791" x="226.01" y="232.2651">Abierta</text></g><g id="Cerrada"><rect fill="#F1F1F1" height="50" rx="12.5" ry="12.5" style="stroke:#181818;stroke-width:0.5;" width="75.9453" x="56.44" y="341.27"/><line style="stroke:#181818;stroke-width:0.5;" x1="56.44" x2="132.3853" y1="367.5669" y2="367.5669"/><text fill="#000000" font-family="sans-serif" font-size="14" lengthAdjust="spacing" textLength="55.9453" x="66.44" y="359.2651">Cerrada</text></g><g id="Pausada"><rect fill="#F1F1F1" height="50" rx="12.5" ry="12.5" style="stroke:#181818;stroke-width:0.5;" width="79.2334" x="284.79" y="341.27"/><line style="stroke:#181818;stroke-width:0.5;" x1="284.79" x2="364.0234" y1="367.5669" y2="367.5669"/><text fill="#000000" font-family="sans-serif" font-size="14" lengthAdjust="spacing" textLength="59.2334" x="294.79" y="359.2651">Pausada</text></g><g id="CalculandoResultados"><rect fill="#F1F1F1" height="50" rx="12.5" ry="12.5" style="stroke:#181818;stroke-width:0.5;" width="174.8203" x="7" y="468.27"/><line style="stroke:#181818;stroke-width:0.5;" x1="7" x2="181.8203" y1="494.5669" y2="494.5669"/><text fill="#000000" font-family="sans-serif" font-size="14" lengthAdjust="spacing" textLength="154.8203" x="17" y="486.2651">CalculandoResultados</text></g><g id="Finalizada"><rect fill="#F1F1F1" height="50" rx="12.5" ry="12.5" style="stroke:#181818;stroke-width:0.5;" width="90.5674" x="49.13" y="595.27"/><line style="stroke:#181818;stroke-width:0.5;" x1="49.13" x2="139.6974" y1="621.5669" y2="621.5669"/><text fill="#000000" font-family="sans-serif" font-size="14" lengthAdjust="spacing" textLength="70.5674" x="59.13" y="613.2651">Finalizada</text></g><ellipse cx="94.41" cy="717.27" fill="none" rx="11" ry="11" style="stroke:#222222;stroke-width:1.0;"/><ellipse cx="94.41" cy="717.27" fill="#222222" rx="6" ry="6" style="stroke:#222222;stroke-width:1.0;"/><!--link *start* to Creada--><g id="link_*start*_Creada"><path d="M251.41,26.37 C251.41,40.33 251.41,61.03 251.41,80.75 " fill="none" id="*start*-to-Creada" style="stroke:#181818;stroke-width:1.0;"/><polygon fill="#181818" points="251.41,86.75,255.41,77.75,251.41,81.75,247.41,77.75,251.41,86.75" style="stroke:#181818;stroke-width:1.0;"/></g><!--link Creada to Abierta--><g id="link_Creada_Abierta"><path d="M251.41,137.56 C251.41,159.61 251.41,185.88 251.41,207.91 " fill="none" id="Creada-to-Abierta" style="stroke:#181818;stroke-width:1.0;"/><polygon fill="#181818" points="251.41,213.91,255.41,204.91,251.41,208.91,247.41,204.91,251.41,213.91" style="stroke:#181818;stroke-width:1.0;"/><text fill="#000000" font-family="sans-serif" font-size="13" lengthAdjust="spacing" textLength="100.75" x="252.41" y="180.3369">Iniciar Votaci&#243;n</text></g><!--link Abierta to Cerrada--><g id="link_Abierta_Cerrada"><path d="M215.66,246.25 C185.85,253.01 144.21,266.88 118.41,294.27 C106.45,306.96 101.6174,319.9367 98.5974,335.0267 " fill="none" id="Abierta-to-Cerrada" style="stroke:#181818;stroke-width:1.0;"/><polygon fill="#181818" points="97.42,340.91,103.1084,332.87,98.4012,336.0072,95.2639,331.3,97.42,340.91" style="stroke:#181818;stroke-width:1.0;"/><text fill="#000000" font-family="sans-serif" font-size="13" lengthAdjust="spacing" textLength="115.6479" x="119.41" y="307.3369">Finalizar Votaci&#243;n</text></g><!--link Abierta to Pausada--><g id="link_Abierta_Pausada"><path d="M244.6,264.58 C241.94,278.93 241.05,297.02 248.41,311.27 C256.21,326.37 265.2853,335.0169 279.3053,343.6769 " fill="none" id="Abierta-to-Pausada" style="stroke:#181818;stroke-width:1.0;"/><polygon fill="#181818" points="284.41,346.83,278.855,338.6972,280.1561,344.2024,274.6509,345.5035,284.41,346.83" style="stroke:#181818;stroke-width:1.0;"/><text fill="#000000" font-family="sans-serif" font-size="13" lengthAdjust="spacing" textLength="105.1235" x="249.41" y="307.3369">Pausar Votaci&#243;n</text></g><!--link Pausada to Abierta--><g id="link_Pausada_Abierta"><path d="M348.85,340.99 C359.91,326.98 368.66,309.23 359.41,294.27 C343.76,268.95 317.9981,256.7864 293.0381,249.4764 " fill="none" id="Pausada-to-Abierta" style="stroke:#181818;stroke-width:1.0;"/><polygon fill="#181818" points="287.28,247.79,294.793,254.1583,292.0784,249.1953,297.0415,246.4808,287.28,247.79" style="stroke:#181818;stroke-width:1.0;"/><text fill="#000000" font-family="sans-serif" font-size="13" lengthAdjust="spacing" textLength="124.0332" x="363.41" y="307.3369">Reanudar Votaci&#243;n</text></g><!--link Cerrada to CalculandoResultados--><g id="link_Cerrada_CalculandoResultados"><path d="M94.41,391.67 C94.41,413.69 94.41,439.93 94.41,461.93 " fill="none" id="Cerrada-to-CalculandoResultados" style="stroke:#181818;stroke-width:1.0;"/><polygon fill="#181818" points="94.41,467.93,98.41,458.93,94.41,462.93,90.41,458.93,94.41,467.93" style="stroke:#181818;stroke-width:1.0;"/><text fill="#000000" font-family="sans-serif" font-size="13" lengthAdjust="spacing" textLength="122.021" x="95.41" y="434.3369">Calcular Resultado</text></g><!--link CalculandoResultados to Finalizada--><g id="link_CalculandoResultados_Finalizada"><path d="M94.41,518.67 C94.41,540.69 94.41,566.93 94.41,588.93 " fill="none" id="CalculandoResultados-to-Finalizada" style="stroke:#181818;stroke-width:1.0;"/><polygon fill="#181818" points="94.41,594.93,98.41,585.93,94.41,589.93,90.41,585.93,94.41,594.93" style="stroke:#181818;stroke-width:1.0;"/><text fill="#000000" font-family="sans-serif" font-size="13" lengthAdjust="spacing" textLength="126.9912" x="95.41" y="561.3369">Delega a Resultado</text></g><!--link Finalizada to *end*--><g id="link_Finalizada_*end*"><path d="M94.41,645.73 C94.41,665.31 94.41,685.76 94.41,700.07 " fill="none" id="Finalizada-to-*end*" style="stroke:#181818;stroke-width:1.0;"/><polygon fill="#181818" points="94.41,706.07,98.41,697.07,94.41,701.07,90.41,697.07,94.41,706.07" style="stroke:#181818;stroke-width:1.0;"/></g><!--SRC=[ROuz2W8n48Nxd6BgXRs0XI2AO2TRs2nRZCaW0o61sQJnMXx1YscIZMRHAc7Uztx6ReA-ty9U20qgLLxOmCcnPhHyHu6B3wZv-N1LJexTbKd25ssngkLa4YcHHtO_WIrvnZWNClzQh4hhue7GHRCUkBJbPhGwMdJ63pH76z3u-UrQpWAVg_fBfeWwEQywaAKR0ZR6Ha_us4ql]--></g></svg>