<svg xmlns="http://www.w3.org/2000/svg" xmlns:xlink="http://www.w3.org/1999/xlink" contentStyleType="text/css" height="724px" preserveAspectRatio="none" style="width:297px;height:724px;background:#FFFFFF;" version="1.1" viewBox="0 0 297 724" width="297px" zoomAndPan="magnify"><defs/><g><!--class Votante--><g id="elem_Votante"><rect codeLine="1" fill="#F1F1F1" height="80.5938" id="Votante" rx="2.5" ry="2.5" style="stroke:#181818;stroke-width:0.5;" width="91.9941" x="33.19" y="7"/><ellipse cx="50.3534" cy="23" fill="#ADD1B2" rx="11" ry="11" style="stroke:#181818;stroke-width:1.0;"/><path d="M53.3222,28.6406 Q52.7441,28.9375 52.1034,29.0781 Q51.4628,29.2344 50.7597,29.2344 Q48.2597,29.2344 46.9316,27.5938 Q45.6191,25.9375 45.6191,22.8125 Q45.6191,19.6875 46.9316,18.0313 Q48.2597,16.375 50.7597,16.375 Q51.4628,16.375 52.1034,16.5313 Q52.7597,16.6875 53.3222,16.9844 L53.3222,19.7031 Q52.6972,19.125 52.1034,18.8594 Q51.5097,18.5781 50.8847,18.5781 Q49.5409,18.5781 48.8534,19.6563 Q48.1659,20.7188 48.1659,22.8125 Q48.1659,24.9063 48.8534,25.9844 Q49.5409,27.0469 50.8847,27.0469 Q51.5097,27.0469 52.1034,26.7813 Q52.6972,26.5 53.3222,25.9219 L53.3222,28.6406 Z " fill="#000000"/><text fill="#000000" font-family="sans-serif" font-size="14" lengthAdjust="spacing" textLength="55.1865" x="64.8342" y="27.8467">Votante</text><line style="stroke:#181818;stroke-width:0.5;" x1="34.19" x2="124.1841" y1="39" y2="39"/><ellipse cx="44.19" cy="52.6484" fill="none" rx="3" ry="3" style="stroke:#038048;stroke-width:1.0;"/><text fill="#000000" font-family="sans-serif" font-size="14" lengthAdjust="spacing" textLength="54.332" x="53.19" y="55.9951">nombre</text><ellipse cx="44.19" cy="68.9453" fill="none" rx="3" ry="3" style="stroke:#038048;stroke-width:1.0;"/><text fill="#000000" font-family="sans-serif" font-size="14" lengthAdjust="spacing" textLength="65.9941" x="53.19" y="72.292">identidad</text><line style="stroke:#181818;stroke-width:0.5;" x1="34.19" x2="124.1841" y1="79.5938" y2="79.5938"/></g><!--class Votacion--><g id="elem_Votacion"><rect codeLine="6" fill="#F1F1F1" height="113.1875" id="Votacion" rx="2.5" ry="2.5" style="stroke:#181818;stroke-width:0.5;" width="144.3643" x="7" y="463.49"/><ellipse cx="45.0076" cy="479.49" fill="#ADD1B2" rx="11" ry="11" style="stroke:#181818;stroke-width:1.0;"/><path d="M47.9763,485.1306 Q47.3982,485.4275 46.7576,485.5681 Q46.1169,485.7244 45.4138,485.7244 Q42.9138,485.7244 41.5857,484.0838 Q40.2732,482.4275 40.2732,479.3025 Q40.2732,476.1775 41.5857,474.5213 Q42.9138,472.865 45.4138,472.865 Q46.1169,472.865 46.7576,473.0213 Q47.4138,473.1775 47.9763,473.4744 L47.9763,476.1931 Q47.3513,475.615 46.7576,475.3494 Q46.1638,475.0681 45.5388,475.0681 Q44.1951,475.0681 43.5076,476.1463 Q42.8201,477.2088 42.8201,479.3025 Q42.8201,481.3963 43.5076,482.4744 Q44.1951,483.5369 45.5388,483.5369 Q46.1638,483.5369 46.7576,483.2713 Q47.3513,482.99 47.9763,482.4119 L47.9763,485.1306 Z " fill="#000000"/><text fill="#000000" font-family="sans-serif" font-size="14" lengthAdjust="spacing" textLength="61.2363" x="64.1204" y="484.3367">Votacion</text><line style="stroke:#181818;stroke-width:0.5;" x1="8" x2="150.3643" y1="495.49" y2="495.49"/><ellipse cx="18" cy="509.1384" fill="none" rx="3" ry="3" style="stroke:#038048;stroke-width:1.0;"/><text fill="#000000" font-family="sans-serif" font-size="14" lengthAdjust="spacing" textLength="118.3643" x="27" y="512.4851">fechaInicio: Date</text><ellipse cx="18" cy="525.4353" fill="none" rx="3" ry="3" style="stroke:#038048;stroke-width:1.0;"/><text fill="#000000" font-family="sans-serif" font-size="14" lengthAdjust="spacing" textLength="102.1357" x="27" y="528.782">fechaFin: Date</text><ellipse cx="18" cy="541.7322" fill="none" rx="3" ry="3" style="stroke:#038048;stroke-width:1.0;"/><text fill="#000000" font-family="sans-serif" font-size="14" lengthAdjust="spacing" textLength="76.7402" x="27" y="545.0789">candidatos</text><ellipse cx="18" cy="558.0291" fill="none" rx="3" ry="3" style="stroke:#038048;stroke-width:1.0;"/><text fill="#000000" font-family="sans-serif" font-size="14" lengthAdjust="spacing" textLength="38.1992" x="27" y="561.3757">votos</text><line style="stroke:#181818;stroke-width:0.5;" x1="8" x2="150.3643" y1="568.6775" y2="568.6775"/></g><!--class Candidato--><g id="elem_Candidato"><rect codeLine="13" fill="#F1F1F1" height="64.2969" id="Candidato" rx="2.5" ry="2.5" style="stroke:#181818;stroke-width:0.5;" width="103.5244" x="187.42" y="322.19"/><ellipse cx="202.42" cy="338.19" fill="#ADD1B2" rx="11" ry="11" style="stroke:#181818;stroke-width:1.0;"/><path d="M205.3888,343.8306 Q204.8106,344.1275 204.17,344.2681 Q203.5294,344.4244 202.8263,344.4244 Q200.3263,344.4244 198.9981,342.7838 Q197.6856,341.1275 197.6856,338.0025 Q197.6856,334.8775 198.9981,333.2213 Q200.3263,331.565 202.8263,331.565 Q203.5294,331.565 204.17,331.7213 Q204.8263,331.8775 205.3888,332.1744 L205.3888,334.8931 Q204.7638,334.315 204.17,334.0494 Q203.5763,333.7681 202.9513,333.7681 Q201.6075,333.7681 200.92,334.8463 Q200.2325,335.9088 200.2325,338.0025 Q200.2325,340.0963 200.92,341.1744 Q201.6075,342.2369 202.9513,342.2369 Q203.5763,342.2369 204.17,341.9713 Q204.7638,341.69 205.3888,341.1119 L205.3888,343.8306 Z " fill="#000000"/><text fill="#000000" font-family="sans-serif" font-size="14" lengthAdjust="spacing" textLength="71.5244" x="216.42" y="343.0367">Candidato</text><line style="stroke:#181818;stroke-width:0.5;" x1="188.42" x2="289.9444" y1="354.19" y2="354.19"/><ellipse cx="198.42" cy="367.8384" fill="none" rx="3" ry="3" style="stroke:#038048;stroke-width:1.0;"/><text fill="#000000" font-family="sans-serif" font-size="14" lengthAdjust="spacing" textLength="54.332" x="207.42" y="371.1851">nombre</text><line style="stroke:#181818;stroke-width:0.5;" x1="188.42" x2="289.9444" y1="378.4869" y2="378.4869"/></g><!--class Voto--><g id="elem_Voto"><rect codeLine="17" fill="#F1F1F1" height="80.5938" id="Voto" rx="2.5" ry="2.5" style="stroke:#181818;stroke-width:0.5;" width="95.4463" x="31.46" y="164.59"/><ellipse cx="60.5221" cy="180.59" fill="#ADD1B2" rx="11" ry="11" style="stroke:#181818;stroke-width:1.0;"/><path d="M63.4908,186.2306 Q62.9127,186.5275 62.2721,186.6681 Q61.6314,186.8244 60.9283,186.8244 Q58.4283,186.8244 57.1002,185.1838 Q55.7877,183.5275 55.7877,180.4025 Q55.7877,177.2775 57.1002,175.6213 Q58.4283,173.965 60.9283,173.965 Q61.6314,173.965 62.2721,174.1213 Q62.9283,174.2775 63.4908,174.5744 L63.4908,177.2931 Q62.8658,176.715 62.2721,176.4494 Q61.6783,176.1681 61.0533,176.1681 Q59.7096,176.1681 59.0221,177.2463 Q58.3346,178.3088 58.3346,180.4025 Q58.3346,182.4963 59.0221,183.5744 Q59.7096,184.6369 61.0533,184.6369 Q61.6783,184.6369 62.2721,184.3713 Q62.8658,184.09 63.4908,183.5119 L63.4908,186.2306 Z " fill="#000000"/><text fill="#000000" font-family="sans-serif" font-size="14" lengthAdjust="spacing" textLength="32.1973" x="77.647" y="185.4367">Voto</text><line style="stroke:#181818;stroke-width:0.5;" x1="32.46" x2="125.9063" y1="196.59" y2="196.59"/><ellipse cx="42.46" cy="210.2384" fill="none" rx="3" ry="3" style="stroke:#038048;stroke-width:1.0;"/><text fill="#000000" font-family="sans-serif" font-size="14" lengthAdjust="spacing" textLength="53.8945" x="51.46" y="213.5851">votante</text><ellipse cx="42.46" cy="226.5353" fill="none" rx="3" ry="3" style="stroke:#038048;stroke-width:1.0;"/><text fill="#000000" font-family="sans-serif" font-size="14" lengthAdjust="spacing" textLength="69.4463" x="51.46" y="229.882">candidato</text><line style="stroke:#181818;stroke-width:0.5;" x1="32.46" x2="125.9063" y1="237.1838" y2="237.1838"/></g><!--class Resultado--><g id="elem_Resultado"><rect codeLine="22" fill="#F1F1F1" height="64.2969" id="Resultado" rx="2.5" ry="2.5" style="stroke:#181818;stroke-width:0.5;" width="101.918" x="28.22" y="653.67"/><ellipse cx="43.22" cy="669.67" fill="#ADD1B2" rx="11" ry="11" style="stroke:#181818;stroke-width:1.0;"/><path d="M46.1888,675.3106 Q45.6106,675.6075 44.97,675.7481 Q44.3294,675.9044 43.6263,675.9044 Q41.1263,675.9044 39.7981,674.2638 Q38.4856,672.6075 38.4856,669.4825 Q38.4856,666.3575 39.7981,664.7013 Q41.1263,663.045 43.6263,663.045 Q44.3294,663.045 44.97,663.2013 Q45.6263,663.3575 46.1888,663.6544 L46.1888,666.3731 Q45.5638,665.795 44.97,665.5294 Q44.3763,665.2481 43.7513,665.2481 Q42.4075,665.2481 41.72,666.3263 Q41.0325,667.3888 41.0325,669.4825 Q41.0325,671.5763 41.72,672.6544 Q42.4075,673.7169 43.7513,673.7169 Q44.3763,673.7169 44.97,673.4513 Q45.5638,673.17 46.1888,672.5919 L46.1888,675.3106 Z " fill="#000000"/><text fill="#000000" font-family="sans-serif" font-size="14" lengthAdjust="spacing" textLength="69.918" x="57.22" y="674.5167">Resultado</text><line style="stroke:#181818;stroke-width:0.5;" x1="29.22" x2="129.138" y1="685.67" y2="685.67"/><ellipse cx="39.22" cy="699.3184" fill="none" rx="3" ry="3" style="stroke:#038048;stroke-width:1.0;"/><text fill="#000000" font-family="sans-serif" font-size="14" lengthAdjust="spacing" textLength="63.5879" x="48.22" y="702.6651">Elegido/s</text><line style="stroke:#181818;stroke-width:0.5;" x1="29.22" x2="129.138" y1="709.9669" y2="709.9669"/></g><!--link Votante to Voto--><g id="link_Votante_Voto"><path codeLine="27" d="M79.18,87.96 C79.18,111.37 79.18,134.9 79.18,158.3 " fill="none" id="Votante-to-Voto" style="stroke:#181818;stroke-width:1.0;"/><polygon fill="#181818" points="79.18,164.3,83.18,155.3,79.18,159.3,75.18,155.3,79.18,164.3" style="stroke:#181818;stroke-width:1.0;"/><text fill="#000000" font-family="sans-serif" font-size="13" lengthAdjust="spacing" textLength="35.7881" x="80.18" y="130.6569">Tiene</text></g><!--link Voto to Candidato--><g id="link_Voto_Candidato"><path codeLine="28" d="M122.06,245.4 C148.07,269.37 176.398,295.4737 200.648,317.8237 " fill="none" id="Voto-to-Candidato" style="stroke:#181818;stroke-width:1.0;"/><polygon fill="#181818" points="205.06,321.89,201.1529,312.8493,201.3834,318.5014,195.7312,318.7319,205.06,321.89" style="stroke:#181818;stroke-width:1.0;"/><text fill="#000000" font-family="sans-serif" font-size="13" lengthAdjust="spacing" textLength="42.0088" x="170.18" y="288.2569">Vota a</text></g><!--link Voto to Votacion--><g id="link_Voto_Votacion"><path codeLine="29" d="M74.49,245.66 C72.07,268.09 69.39,296.66 68.18,322.19 C65.94,369.72 68.8225,417.705 72.4325,457.105 " fill="none" id="Voto-to-Votacion" style="stroke:#181818;stroke-width:1.0;"/><polygon fill="#181818" points="72.98,463.08,76.1421,453.7526,72.5238,458.1009,68.1755,454.4825,72.98,463.08" style="stroke:#181818;stroke-width:1.0;"/><text fill="#000000" font-family="sans-serif" font-size="13" lengthAdjust="spacing" textLength="100.5786" x="69.18" y="358.9069">Forma parte de</text></g><!--link Candidato to Votacion--><g id="link_Candidato_Votacion"><path codeLine="30" d="M208.33,386.91 C187.26,408.47 162.9634,433.3387 138.1034,458.7787 " fill="none" id="Candidato-to-Votacion" style="stroke:#181818;stroke-width:1.0;"/><polygon fill="#181818" points="133.91,463.07,143.061,459.4287,137.4045,459.4939,137.3393,453.8375,133.91,463.07" style="stroke:#181818;stroke-width:1.0;"/><text fill="#000000" font-family="sans-serif" font-size="13" lengthAdjust="spacing" textLength="100.5786" x="179.18" y="429.5569">Forma parte de</text></g><!--link Votacion to Resultado--><g id="link_Votacion_Resultado"><path codeLine="31" d="M79.18,576.97 C79.18,602.54 79.18,625.88 79.18,647.5 " fill="none" id="Votacion-to-Resultado" style="stroke:#181818;stroke-width:1.0;"/><polygon fill="#181818" points="79.18,653.5,83.18,644.5,79.18,648.5,75.18,644.5,79.18,653.5" style="stroke:#181818;stroke-width:1.0;"/><text fill="#000000" font-family="sans-serif" font-size="13" lengthAdjust="spacing" textLength="45.8364" x="80.18" y="619.7369">Delega</text></g><!--SRC=[XP2z3i8m38JtF8NL5LNi7LWebLWHwcuI0v5Q1pMX2-BTSVgJjXERS_VfV8vkq7keNK0E11y5i6FNtZgAapN4mHeqwgkKJgIsZaVqJlg9PxQY551Ye2HMbXT58nk92Sx7L-_Ya1AFixdPlbuuEVrOSXEuS1VoxoQWcU1JGmzht7vOfERxylmm11QGNIqnPMg8ZtAg8Lx40LVcVBLubUjQX1Ts4cSaOAd_1qm_5xdKLi2If2jcFm00]--></g></svg>