<?xml version="1.0" encoding="us-ascii" standalone="no"?><svg xmlns="http://www.w3.org/2000/svg" xmlns:xlink="http://www.w3.org/1999/xlink" contentStyleType="text/css" height="416px" preserveAspectRatio="none" style="width:207px;height:416px;background:#FFFFFF;" version="1.1" viewBox="0 0 207 416" width="207px" zoomAndPan="magnify"><defs/><g><g id="Abierta"><rect fill="#F1F1F1" height="50" rx="12.5" ry="12.5" style="stroke:#181818;stroke-width:0.5;" width="65" x="54.5" y="104"/><line style="stroke:#181818;stroke-width:0.5;" x1="54.5" x2="119.5" y1="131.6094" y2="131.6094"/><text fill="#000000" font-family="sans-serif" font-size="14" lengthAdjust="spacing" textLength="45" x="64.5" y="123.5332">Abierta</text></g><g id="Cerrada"><rect fill="#F1F1F1" height="50" rx="12.5" ry="12.5" style="stroke:#181818;stroke-width:0.5;" width="72" x="51" y="232"/><line style="stroke:#181818;stroke-width:0.5;" x1="51" x2="123" y1="259.6094" y2="259.6094"/><text fill="#000000" font-family="sans-serif" font-size="14" lengthAdjust="spacing" textLength="52" x="61" y="251.5332">Cerrada</text></g><g id="ResultadosPublicados"><rect fill="#F1F1F1" height="50" rx="12.5" ry="12.5" style="stroke:#181818;stroke-width:0.5;" width="160" x="7" y="360"/><line style="stroke:#181818;stroke-width:0.5;" x1="7" x2="167" y1="387.6094" y2="387.6094"/><text fill="#000000" font-family="sans-serif" font-size="14" lengthAdjust="spacing" textLength="140" x="17" y="379.5332">ResultadosPublicados</text></g><ellipse cx="87" cy="16" fill="#222222" rx="10" ry="10" style="stroke:#222222;stroke-width:1.0;"/><!--link *start* to Abierta--><g id="link_*start*_Abierta"><path d="M87,26.08 C87,42.86 87,73.22 87,97.65 " fill="none" id="*start*-to-Abierta" style="stroke:#181818;stroke-width:1.0;"/><polygon fill="#181818" points="87,103.65,91,94.65,87,98.65,83,94.65,87,103.65" style="stroke:#181818;stroke-width:1.0;"/><text fill="#000000" font-family="sans-serif" font-size="13" lengthAdjust="spacing" textLength="34" x="88" y="70.4951">Iniciar</text></g><!--link Abierta to Cerrada--><g id="link_Abierta_Cerrada"><path d="M87,154.29 C87,176.61 87,203.49 87,225.78 " fill="none" id="Abierta-to-Cerrada" style="stroke:#181818;stroke-width:1.0;"/><polygon fill="#181818" points="87,231.78,91,222.78,87,226.78,83,222.78,87,231.78" style="stroke:#181818;stroke-width:1.0;"/><text fill="#000000" font-family="sans-serif" font-size="13" lengthAdjust="spacing" textLength="86" x="88" y="198.4951">Cerrar votacion</text></g><!--link Cerrada to ResultadosPublicados--><g id="link_Cerrada_ResultadosPublicados"><path d="M87,282.29 C87,304.61 87,331.49 87,353.78 " fill="none" id="Cerrada-to-ResultadosPublicados" style="stroke:#181818;stroke-width:1.0;"/><polygon fill="#181818" points="87,359.78,91,350.78,87,354.78,83,350.78,87,359.78" style="stroke:#181818;stroke-width:1.0;"/><text fill="#000000" font-family="sans-serif" font-size="13" lengthAdjust="spacing" textLength="111" x="88" y="326.4951">Publicar resultados</text></g><!--SRC=[Aov9B4bLS4pAJ2qgIUGg1lESKukA4bDWlA3KujASaiIK_EA0qgISp6GGYuihMYjMGLVN3gPJmKh1CoypEJEnY0ic0fA5cWIK1REA5ChoInAJC_Fpk60o85NOR01gWNAA58hWybm0]--></g></svg>