<svg xmlns="http://www.w3.org/2000/svg" xmlns:xlink="http://www.w3.org/1999/xlink" contentStyleType="text/css" height="250px" preserveAspectRatio="none" style="width:238px;height:250px;background:#FFFFFF;" version="1.1" viewBox="0 0 238 250" width="238px" zoomAndPan="magnify"><defs/><g><g id="elem_Foco1"><rect fill="#F1F1F1" height="39.0679" style="stroke:#181818;stroke-width:0.5;" width="52.9339" x="7" y="7"/><text fill="#000000" font-family="sans-serif" font-size="14" lengthAdjust="spacing" textLength="38.9339" x="14" y="23.9659">Foco1</text><line style="stroke:#181818;stroke-width:0.5;" x1="8" x2="58.9339" y1="30.0679" y2="30.0679"/></g><g id="elem_Foco2"><rect fill="#F1F1F1" height="39.0679" style="stroke:#181818;stroke-width:0.5;" width="52.9339" x="142" y="7"/><text fill="#000000" font-family="sans-serif" font-size="14" lengthAdjust="spacing" textLength="38.9339" x="149" y="23.9659">Foco2</text><line style="stroke:#181818;stroke-width:0.5;" x1="143" x2="193.9339" y1="30.0679" y2="30.0679"/></g><g id="elem_Persona1"><rect fill="#F1F1F1" height="39.0679" style="stroke:#181818;stroke-width:0.5;" width="75.8378" x="85.5" y="106"/><text fill="#000000" font-family="sans-serif" font-size="14" lengthAdjust="spacing" textLength="61.8378" x="92.5" y="122.9659">Persona1</text><line style="stroke:#181818;stroke-width:0.5;" x1="86.5" x2="160.3378" y1="129.0679" y2="129.0679"/></g><g id="elem_Sombra1"><rect fill="#F1F1F1" height="39.0679" style="stroke:#181818;stroke-width:0.5;" width="73.4998" x="33" y="205"/><text fill="#000000" font-family="sans-serif" font-size="14" lengthAdjust="spacing" textLength="59.4998" x="40" y="221.9659">Sombra1</text><line style="stroke:#181818;stroke-width:0.5;" x1="34" x2="105.4998" y1="228.0679" y2="228.0679"/></g><g id="elem_Sombra2"><rect fill="#F1F1F1" height="39.0679" style="stroke:#181818;stroke-width:0.5;" width="73.4998" x="159" y="205"/><text fill="#000000" font-family="sans-serif" font-size="14" lengthAdjust="spacing" textLength="59.4998" x="166" y="221.9659">Sombra2</text><line style="stroke:#181818;stroke-width:0.5;" x1="160" x2="231.4998" y1="228.0679" y2="228.0679"/></g><!--link Foco1 to Persona1--><g id="link_Foco1_Persona1"><path codeLine="7" d="M50.85,46.2 C66.79,63.38 90.28,88.7 106.2,105.85 " fill="none" id="Foco1-Persona1" style="stroke:#181818;stroke-width:1.0;"/></g><!--link Foco2 to Persona1--><g id="link_Foco2_Persona1"><path codeLine="8" d="M159.82,46.2 C151.86,63.38 140.11,88.7 132.15,105.85 " fill="none" id="Foco2-Persona1" style="stroke:#181818;stroke-width:1.0;"/></g><!--link Persona1 to Sombra1--><g id="link_Persona1_Sombra1"><path codeLine="9" d="M113.09,145.2 C103.53,162.38 89.43,187.7 79.88,204.85 " fill="none" id="Persona1-Sombra1" style="stroke:#181818;stroke-width:1.0;"/></g><!--link Persona1 to Sombra2--><g id="link_Persona1_Sombra2"><path codeLine="10" d="M137.38,145.2 C150.13,162.38 168.92,187.7 181.66,204.85 " fill="none" id="Persona1-Sombra2" style="stroke:#181818;stroke-width:1.0;"/></g><!--link Foco1 to Sombra1--><g id="link_Foco1_Sombra1"><path codeLine="11" d="M36.95,46.29 C43.83,83.76 59.19,167.35 66.06,204.76 " fill="none" id="Foco1-Sombra1" style="stroke:#181818;stroke-width:1.0;stroke-dasharray:7.0,7.0;"/></g><!--link Foco2 to Sombra2--><g id="link_Foco2_Sombra2"><path codeLine="12" d="M171.14,46.21 C173.38,62.12 176.68,85.55 179.5,106 C184.32,140.87 189.84,181.58 192.97,204.77 " fill="none" id="Foco2-Sombra2" style="stroke:#181818;stroke-width:1.0;stroke-dasharray:7.0,7.0;"/></g><!--SRC=[oq_AIaqkKN3BJyutvCf7S8nWd83KekByl4IuP71-Rb8HEjU8YmjiWeAkBa83s1WK4HW390Wp1rFC26gMdXvS4SGek80H0000]--></g></svg>