<svg xmlns="http://www.w3.org/2000/svg" xmlns:xlink="http://www.w3.org/1999/xlink" contentStyleType="text/css" height="250px" preserveAspectRatio="none" style="width:507px;height:250px;background:#FFFFFF;" version="1.1" viewBox="0 0 507 250" width="507px" zoomAndPan="magnify"><defs/><g><g id="elem_Foco1"><rect fill="#F1F1F1" height="39.0679" style="stroke:#181818;stroke-width:0.5;" width="52.9339" x="127" y="7"/><text fill="#000000" font-family="sans-serif" font-size="14" lengthAdjust="spacing" textLength="38.9339" x="134" y="23.9659">Foco1</text><line style="stroke:#181818;stroke-width:0.5;" x1="128" x2="178.9339" y1="30.0679" y2="30.0679"/></g><g id="elem_Foco2"><rect fill="#F1F1F1" height="39.0679" style="stroke:#181818;stroke-width:0.5;" width="52.9339" x="328" y="7"/><text fill="#000000" font-family="sans-serif" font-size="14" lengthAdjust="spacing" textLength="38.9339" x="335" y="23.9659">Foco2</text><line style="stroke:#181818;stroke-width:0.5;" x1="329" x2="379.9339" y1="30.0679" y2="30.0679"/></g><g id="elem_Persona1"><rect fill="#F1F1F1" height="39.0679" style="stroke:#181818;stroke-width:0.5;" width="75.8378" x="160.5" y="106"/><text fill="#000000" font-family="sans-serif" font-size="14" lengthAdjust="spacing" textLength="61.8378" x="167.5" y="122.9659">Persona1</text><line style="stroke:#181818;stroke-width:0.5;" x1="161.5" x2="235.3378" y1="129.0679" y2="129.0679"/></g><g id="elem_Persona2"><rect fill="#F1F1F1" height="39.0679" style="stroke:#181818;stroke-width:0.5;" width="75.8378" x="271.5" y="106"/><text fill="#000000" font-family="sans-serif" font-size="14" lengthAdjust="spacing" textLength="61.8378" x="278.5" y="122.9659">Persona2</text><line style="stroke:#181818;stroke-width:0.5;" x1="272.5" x2="346.3378" y1="129.0679" y2="129.0679"/></g><g id="elem_Sombra1"><rect fill="#F1F1F1" height="39.0679" style="stroke:#181818;stroke-width:0.5;" width="73.4998" x="7" y="205"/><text fill="#000000" font-family="sans-serif" font-size="14" lengthAdjust="spacing" textLength="59.4998" x="14" y="221.9659">Sombra1</text><line style="stroke:#181818;stroke-width:0.5;" x1="8" x2="79.4998" y1="228.0679" y2="228.0679"/></g><g id="elem_Sombra2"><rect fill="#F1F1F1" height="39.0679" style="stroke:#181818;stroke-width:0.5;" width="73.4998" x="265" y="205"/><text fill="#000000" font-family="sans-serif" font-size="14" lengthAdjust="spacing" textLength="59.4998" x="272" y="221.9659">Sombra2</text><line style="stroke:#181818;stroke-width:0.5;" x1="266" x2="337.4998" y1="228.0679" y2="228.0679"/></g><g id="elem_Sombra3"><rect fill="#F1F1F1" height="39.0679" style="stroke:#181818;stroke-width:0.5;" width="73.4998" x="129" y="205"/><text fill="#000000" font-family="sans-serif" font-size="14" lengthAdjust="spacing" textLength="59.4998" x="136" y="221.9659">Sombra3</text><line style="stroke:#181818;stroke-width:0.5;" x1="130" x2="201.4998" y1="228.0679" y2="228.0679"/></g><g id="elem_Sombra4"><rect fill="#F1F1F1" height="39.0679" style="stroke:#181818;stroke-width:0.5;" width="73.4998" x="428" y="205"/><text fill="#000000" font-family="sans-serif" font-size="14" lengthAdjust="spacing" textLength="59.4998" x="435" y="221.9659">Sombra4</text><line style="stroke:#181818;stroke-width:0.5;" x1="429" x2="500.4998" y1="228.0679" y2="228.0679"/></g><!--link Foco1 to Persona1--><g id="link_Foco1_Persona1"><path codeLine="10" d="M162.18,46.2 C170.14,63.38 181.89,88.7 189.85,105.85 " fill="none" id="Foco1-Persona1" style="stroke:#181818;stroke-width:1.0;"/></g><!--link Foco2 to Persona1--><g id="link_Foco2_Persona1"><path codeLine="11" d="M327.68,44.17 C300.07,61.35 257.13,88.05 228.42,105.89 " fill="none" id="Foco2-Persona1" style="stroke:#181818;stroke-width:1.0;"/></g><!--link Foco1 to Persona2--><g id="link_Foco1_Persona2"><path codeLine="12" d="M180.32,44.17 C207.93,61.35 250.87,88.05 279.58,105.89 " fill="none" id="Foco1-Persona2" style="stroke:#181818;stroke-width:1.0;"/></g><!--link Foco2 to Persona2--><g id="link_Foco2_Persona2"><path codeLine="13" d="M345.82,46.2 C337.86,63.38 326.11,88.7 318.15,105.85 " fill="none" id="Foco2-Persona2" style="stroke:#181818;stroke-width:1.0;"/></g><!--link Persona1 to Sombra1--><g id="link_Persona1_Sombra1"><path codeLine="14" d="M168.61,145.2 C141.17,162.38 100.71,187.7 73.29,204.85 " fill="none" id="Persona1-Sombra1" style="stroke:#181818;stroke-width:1.0;"/></g><!--link Persona1 to Sombra2--><g id="link_Persona1_Sombra2"><path codeLine="15" d="M218.36,145.2 C236.6,162.38 263.48,187.7 281.7,204.85 " fill="none" id="Persona1-Sombra2" style="stroke:#181818;stroke-width:1.0;"/></g><!--link Persona2 to Sombra3--><g id="link_Persona2_Sombra3"><path codeLine="16" d="M281.74,145.2 C256.24,162.38 218.65,187.7 193.18,204.85 " fill="none" id="Persona2-Sombra3" style="stroke:#181818;stroke-width:1.0;"/></g><!--link Persona2 to Sombra4--><g id="link_Persona2_Sombra4"><path codeLine="17" d="M339.39,145.2 C366.83,162.38 407.29,187.7 434.71,204.85 " fill="none" id="Persona2-Sombra4" style="stroke:#181818;stroke-width:1.0;"/></g><!--link Foco1 to Sombra1--><g id="link_Foco1_Sombra1"><path codeLine="18" d="M142.95,46.29 C121.93,83.76 75.01,167.35 54.02,204.76 " fill="none" id="Foco1-Sombra1" style="stroke:#181818;stroke-width:1.0;stroke-dasharray:7.0,7.0;"/></g><!--link Foco2 to Sombra2--><g id="link_Foco2_Sombra2"><path codeLine="19" d="M360.97,46.01 C368.18,69.69 377.39,111.61 365.5,145 C357.07,168.69 338.09,190.41 322.97,204.96 " fill="none" id="Foco2-Sombra2" style="stroke:#181818;stroke-width:1.0;stroke-dasharray:7.0,7.0;"/></g><!--link Foco1 to Sombra3--><g id="link_Foco1_Sombra3"><path codeLine="20" d="M149.35,46.29 C144.8,69.54 138.73,110.32 143.5,145 C146.37,165.89 153.35,189.06 158.69,204.77 " fill="none" id="Foco1-Sombra3" style="stroke:#181818;stroke-width:1.0;stroke-dasharray:7.0,7.0;"/></g><!--link Foco2 to Sombra4--><g id="link_Foco2_Sombra4"><path codeLine="21" d="M365.05,46.29 C386.07,83.76 432.99,167.35 453.98,204.76 " fill="none" id="Foco2-Sombra4" style="stroke:#181818;stroke-width:1.0;stroke-dasharray:7.0,7.0;"/></g><!--SRC=[oq_AIaqkKN3BJyutvCf7S8nWd83KekByl4H3D3vSFZW_Dwa88GtXeiaQet9DkBZ0zYdewYAC1rkA8OAinWX3ZH4NJ3584EOIJ36uEYE4c34MCHEedNfwSCCWLi85ZD1L6AEhC040]--></g></svg>