<svg xmlns="http://www.w3.org/2000/svg" xmlns:xlink="http://www.w3.org/1999/xlink" contentStyleType="text/css" height="278px" preserveAspectRatio="none" style="width:148px;height:278px;background:#FFFFFF;" version="1.1" viewBox="0 0 148 278" width="148px" zoomAndPan="magnify"><defs/><g><!--class FuenteLuz--><g id="elem_FuenteLuz"><rect codeLine="1" fill="#F1F1F1" height="48" id="FuenteLuz" rx="2.5" ry="2.5" style="stroke:#181818;stroke-width:0.5;" width="99.9837" x="41.5" y="7"/><ellipse cx="56.5" cy="23" fill="#ADD1B2" rx="11" ry="11" style="stroke:#181818;stroke-width:1.0;"/><path d="M59.4688,28.6406 Q58.8906,28.9375 58.25,29.0781 Q57.6094,29.2344 56.9063,29.2344 Q54.4063,29.2344 53.0781,27.5938 Q51.7656,25.9375 51.7656,22.8125 Q51.7656,19.6875 53.0781,18.0313 Q54.4063,16.375 56.9063,16.375 Q57.6094,16.375 58.25,16.5313 Q58.9063,16.6875 59.4688,16.9844 L59.4688,19.7031 Q58.8438,19.125 58.25,18.8594 Q57.6563,18.5781 57.0313,18.5781 Q55.6875,18.5781 55,19.6563 Q54.3125,20.7188 54.3125,22.8125 Q54.3125,24.9063 55,25.9844 Q55.6875,27.0469 57.0313,27.0469 Q57.6563,27.0469 58.25,26.7813 Q58.8438,26.5 59.4688,25.9219 L59.4688,28.6406 Z " fill="#000000"/><text fill="#000000" font-family="sans-serif" font-size="14" lengthAdjust="spacing" textLength="67.9837" x="70.5" y="28.432">FuenteLuz</text><line style="stroke:#181818;stroke-width:0.5;" x1="42.5" x2="140.4837" y1="39" y2="39"/><line style="stroke:#181818;stroke-width:0.5;" x1="42.5" x2="140.4837" y1="47" y2="47"/></g><!--class Objeto--><g id="elem_Objeto"><rect codeLine="2" fill="#F1F1F1" height="48" id="Objeto" rx="2.5" ry="2.5" style="stroke:#181818;stroke-width:0.5;" width="76.5758" x="7" y="115"/><ellipse cx="22" cy="131" fill="#ADD1B2" rx="11" ry="11" style="stroke:#181818;stroke-width:1.0;"/><path d="M24.9688,136.6406 Q24.3906,136.9375 23.75,137.0781 Q23.1094,137.2344 22.4063,137.2344 Q19.9063,137.2344 18.5781,135.5938 Q17.2656,133.9375 17.2656,130.8125 Q17.2656,127.6875 18.5781,126.0313 Q19.9063,124.375 22.4063,124.375 Q23.1094,124.375 23.75,124.5313 Q24.4063,124.6875 24.9688,124.9844 L24.9688,127.7031 Q24.3438,127.125 23.75,126.8594 Q23.1563,126.5781 22.5313,126.5781 Q21.1875,126.5781 20.5,127.6563 Q19.8125,128.7188 19.8125,130.8125 Q19.8125,132.9063 20.5,133.9844 Q21.1875,135.0469 22.5313,135.0469 Q23.1563,135.0469 23.75,134.7813 Q24.3438,134.5 24.9688,133.9219 L24.9688,136.6406 Z " fill="#000000"/><text fill="#000000" font-family="sans-serif" font-size="14" lengthAdjust="spacing" textLength="44.5758" x="36" y="136.432">Objeto</text><line style="stroke:#181818;stroke-width:0.5;" x1="8" x2="82.5758" y1="147" y2="147"/><line style="stroke:#181818;stroke-width:0.5;" x1="8" x2="82.5758" y1="155" y2="155"/></g><!--class Sombra--><g id="elem_Sombra"><rect codeLine="3" fill="#F1F1F1" height="48" id="Sombra" rx="2.5" ry="2.5" style="stroke:#181818;stroke-width:0.5;" width="83.4918" x="50" y="223"/><ellipse cx="65" cy="239" fill="#ADD1B2" rx="11" ry="11" style="stroke:#181818;stroke-width:1.0;"/><path d="M67.9688,244.6406 Q67.3906,244.9375 66.75,245.0781 Q66.1094,245.2344 65.4063,245.2344 Q62.9063,245.2344 61.5781,243.5938 Q60.2656,241.9375 60.2656,238.8125 Q60.2656,235.6875 61.5781,234.0313 Q62.9063,232.375 65.4063,232.375 Q66.1094,232.375 66.75,232.5313 Q67.4063,232.6875 67.9688,232.9844 L67.9688,235.7031 Q67.3438,235.125 66.75,234.8594 Q66.1563,234.5781 65.5313,234.5781 Q64.1875,234.5781 63.5,235.6563 Q62.8125,236.7188 62.8125,238.8125 Q62.8125,240.9063 63.5,241.9844 Q64.1875,243.0469 65.5313,243.0469 Q66.1563,243.0469 66.75,242.7813 Q67.3438,242.5 67.9688,241.9219 L67.9688,244.6406 Z " fill="#000000"/><text fill="#000000" font-family="sans-serif" font-size="14" lengthAdjust="spacing" textLength="51.4918" x="79" y="244.432">Sombra</text><line style="stroke:#181818;stroke-width:0.5;" x1="51" x2="132.4918" y1="255" y2="255"/><line style="stroke:#181818;stroke-width:0.5;" x1="51" x2="132.4918" y1="263" y2="263"/></g><!--link FuenteLuz to Objeto--><g id="link_FuenteLuz_Objeto"><path codeLine="5" d="M81.52,55 C73.86,72.66 63.32,96.94 55.62,114.68 " fill="none" id="FuenteLuz-Objeto" style="stroke:#181818;stroke-width:1.0;"/></g><!--link Objeto to Sombra--><g id="link_Objeto_Sombra"><path codeLine="6" d="M55.48,163 C63.14,180.66 73.68,204.94 81.38,222.68 " fill="none" id="Objeto-Sombra" style="stroke:#181818;stroke-width:1.0;"/></g><!--link Sombra to FuenteLuz--><g id="link_Sombra_FuenteLuz"><path codeLine="7" d="M95.05,222.81 C97.41,206.2 100.28,183.28 101.5,163 C102.78,141.7 102.78,136.3 101.5,115 C100.28,94.72 97.41,71.8 95.05,55.19 " fill="none" id="Sombra-FuenteLuz" style="stroke:#181818;stroke-width:1.0;stroke-dasharray:7.0,7.0;"/></g><!--SRC=[Iyv9B2vMS2jDpIj9zIcjuae6y_sJib9Byg6SuFpSfA94BYwu8WLTNPWA20KIWAg2K0fwUWWp0G00]--></g></svg>