<svg xmlns="http://www.w3.org/2000/svg" xmlns:xlink="http://www.w3.org/1999/xlink" contentStyleType="text/css" height="250px" preserveAspectRatio="none" style="width:314px;height:250px;background:#FFFFFF;" version="1.1" viewBox="0 0 314 250" width="314px" zoomAndPan="magnify"><defs/><g><g id="elem_Foco1"><rect fill="#F1F1F1" height="39.0679" style="stroke:#181818;stroke-width:0.5;" width="52.9339" x="154.5" y="7"/><text fill="#000000" font-family="sans-serif" font-size="14" lengthAdjust="spacing" textLength="38.9339" x="161.5" y="23.9659">Foco1</text><line style="stroke:#181818;stroke-width:0.5;" x1="155.5" x2="206.4339" y1="30.0679" y2="30.0679"/></g><g id="elem_Persona1"><rect fill="#F1F1F1" height="39.0679" style="stroke:#181818;stroke-width:0.5;" width="75.8378" x="7" y="106"/><text fill="#000000" font-family="sans-serif" font-size="14" lengthAdjust="spacing" textLength="61.8378" x="14" y="122.9659">Persona1</text><line style="stroke:#181818;stroke-width:0.5;" x1="8" x2="81.8378" y1="129.0679" y2="129.0679"/></g><g id="elem_Persona2"><rect fill="#F1F1F1" height="39.0679" style="stroke:#181818;stroke-width:0.5;" width="75.8378" x="189" y="106"/><text fill="#000000" font-family="sans-serif" font-size="14" lengthAdjust="spacing" textLength="61.8378" x="196" y="122.9659">Persona2</text><line style="stroke:#181818;stroke-width:0.5;" x1="190" x2="263.8378" y1="129.0679" y2="129.0679"/></g><g id="elem_Sombra1"><rect fill="#F1F1F1" height="39.0679" style="stroke:#181818;stroke-width:0.5;" width="73.4998" x="45.5" y="205"/><text fill="#000000" font-family="sans-serif" font-size="14" lengthAdjust="spacing" textLength="59.4998" x="52.5" y="221.9659">Sombra1</text><line style="stroke:#181818;stroke-width:0.5;" x1="46.5" x2="117.9998" y1="228.0679" y2="228.0679"/></g><g id="elem_Sombra2"><rect fill="#F1F1F1" height="39.0679" style="stroke:#181818;stroke-width:0.5;" width="73.4998" x="235.5" y="205"/><text fill="#000000" font-family="sans-serif" font-size="14" lengthAdjust="spacing" textLength="59.4998" x="242.5" y="221.9659">Sombra2</text><line style="stroke:#181818;stroke-width:0.5;" x1="236.5" x2="307.9998" y1="228.0679" y2="228.0679"/></g><!--link Foco1 to Persona1--><g id="link_Foco1_Persona1"><path codeLine="7" d="M154.78,46.2 C130.7,63.38 95.2,88.7 71.14,105.85 " fill="none" id="Foco1-Persona1" style="stroke:#181818;stroke-width:1.0;"/></g><!--link Foco1 to Persona2--><g id="link_Foco1_Persona2"><path codeLine="8" d="M189.87,46.2 C198.01,63.38 210.02,88.7 218.16,105.85 " fill="none" id="Foco1-Persona2" style="stroke:#181818;stroke-width:1.0;"/></g><!--link Persona1 to Sombra1--><g id="link_Persona1_Sombra1"><path codeLine="9" d="M52.13,145.2 C58.69,162.38 68.34,187.7 74.89,204.85 " fill="none" id="Persona1-Sombra1" style="stroke:#181818;stroke-width:1.0;"/></g><!--link Persona2 to Sombra2--><g id="link_Persona2_Sombra2"><path codeLine="10" d="M235.68,145.2 C243.64,162.38 255.39,187.7 263.35,204.85 " fill="none" id="Persona2-Sombra2" style="stroke:#181818;stroke-width:1.0;"/></g><!--link Foco1 to Sombra1--><g id="link_Foco1_Sombra1"><path codeLine="11" d="M171.51,46.29 C152.58,83.76 110.36,167.35 91.46,204.76 " fill="none" id="Foco1-Sombra1" style="stroke:#181818;stroke-width:1.0;stroke-dasharray:7.0,7.0;"/></g><!--link Foco1 to Sombra2--><g id="link_Foco1_Sombra2"><path codeLine="12" d="M207.54,39.28 C232.21,51.85 267.41,74.32 283,106 C298.74,137.98 288,180.77 279.51,204.9 " fill="none" id="Foco1-Sombra2" style="stroke:#181818;stroke-width:1.0;stroke-dasharray:7.0,7.0;"/></g><!--SRC=[oq_AIaqkKN3BJyutvCg7S09IYuhpynBH-KOmVd1-Rb8HGXh2DUBY0XkYeAkBC01Tn8WB9WKIX9a3aqI86K5rwkd15Q496040]--></g></svg>