<svg xmlns="http://www.w3.org/2000/svg" xmlns:xlink="http://www.w3.org/1999/xlink" contentStyleType="text/css" height="602px" preserveAspectRatio="none" style="width:182px;height:602px;background:#FFFFFF;" version="1.1" viewBox="0 0 182 602" width="182px" zoomAndPan="magnify"><defs/><g><!--class Holograma--><g id="elem_Holograma"><rect codeLine="1" fill="#F1F1F1" height="48" id="Holograma" rx="2.5" ry="2.5" style="stroke:#181818;stroke-width:0.5;" width="106.1157" x="69.5" y="115"/><ellipse cx="84.5" cy="131" fill="#ADD1B2" rx="11" ry="11" style="stroke:#181818;stroke-width:1.0;"/><path d="M87.4688,136.6406 Q86.8906,136.9375 86.25,137.0781 Q85.6094,137.2344 84.9063,137.2344 Q82.4063,137.2344 81.0781,135.5938 Q79.7656,133.9375 79.7656,130.8125 Q79.7656,127.6875 81.0781,126.0313 Q82.4063,124.375 84.9063,124.375 Q85.6094,124.375 86.25,124.5313 Q86.9063,124.6875 87.4688,124.9844 L87.4688,127.7031 Q86.8438,127.125 86.25,126.8594 Q85.6563,126.5781 85.0313,126.5781 Q83.6875,126.5781 83,127.6563 Q82.3125,128.7188 82.3125,130.8125 Q82.3125,132.9063 83,133.9844 Q83.6875,135.0469 85.0313,135.0469 Q85.6563,135.0469 86.25,134.7813 Q86.8438,134.5 87.4688,133.9219 L87.4688,136.6406 Z " fill="#000000"/><text fill="#000000" font-family="sans-serif" font-size="14" lengthAdjust="spacing" textLength="74.1157" x="98.5" y="136.432">Holograma</text><line style="stroke:#181818;stroke-width:0.5;" x1="70.5" x2="174.6157" y1="147" y2="147"/><line style="stroke:#181818;stroke-width:0.5;" x1="70.5" x2="174.6157" y1="155" y2="155"/></g><!--class Proyeccion--><g id="elem_Proyeccion"><rect codeLine="3" fill="#F1F1F1" height="48" id="Proyeccion" rx="2.5" ry="2.5" style="stroke:#181818;stroke-width:0.5;" width="103.9317" x="18.5" y="223"/><ellipse cx="33.5" cy="239" fill="#ADD1B2" rx="11" ry="11" style="stroke:#181818;stroke-width:1.0;"/><path d="M36.4688,244.6406 Q35.8906,244.9375 35.25,245.0781 Q34.6094,245.2344 33.9063,245.2344 Q31.4063,245.2344 30.0781,243.5938 Q28.7656,241.9375 28.7656,238.8125 Q28.7656,235.6875 30.0781,234.0313 Q31.4063,232.375 33.9063,232.375 Q34.6094,232.375 35.25,232.5313 Q35.9063,232.6875 36.4688,232.9844 L36.4688,235.7031 Q35.8438,235.125 35.25,234.8594 Q34.6563,234.5781 34.0313,234.5781 Q32.6875,234.5781 32,235.6563 Q31.3125,236.7188 31.3125,238.8125 Q31.3125,240.9063 32,241.9844 Q32.6875,243.0469 34.0313,243.0469 Q34.6563,243.0469 35.25,242.7813 Q35.8438,242.5 36.4688,241.9219 L36.4688,244.6406 Z " fill="#000000"/><text fill="#000000" font-family="sans-serif" font-size="14" lengthAdjust="spacing" textLength="71.9317" x="47.5" y="244.432">Proyeccion</text><line style="stroke:#181818;stroke-width:0.5;" x1="19.5" x2="121.4317" y1="255" y2="255"/><line style="stroke:#181818;stroke-width:0.5;" x1="19.5" x2="121.4317" y1="263" y2="263"/></g><!--class Luz--><g id="elem_Luz"><rect codeLine="5" fill="#F1F1F1" height="48" id="Luz" rx="2.5" ry="2.5" style="stroke:#181818;stroke-width:0.5;" width="54.5679" x="41" y="331"/><ellipse cx="56" cy="347" fill="#ADD1B2" rx="11" ry="11" style="stroke:#181818;stroke-width:1.0;"/><path d="M58.9688,352.6406 Q58.3906,352.9375 57.75,353.0781 Q57.1094,353.2344 56.4063,353.2344 Q53.9063,353.2344 52.5781,351.5938 Q51.2656,349.9375 51.2656,346.8125 Q51.2656,343.6875 52.5781,342.0313 Q53.9063,340.375 56.4063,340.375 Q57.1094,340.375 57.75,340.5313 Q58.4063,340.6875 58.9688,340.9844 L58.9688,343.7031 Q58.3438,343.125 57.75,342.8594 Q57.1563,342.5781 56.5313,342.5781 Q55.1875,342.5781 54.5,343.6563 Q53.8125,344.7188 53.8125,346.8125 Q53.8125,348.9063 54.5,349.9844 Q55.1875,351.0469 56.5313,351.0469 Q57.1563,351.0469 57.75,350.7813 Q58.3438,350.5 58.9688,349.9219 L58.9688,352.6406 Z " fill="#000000"/><text fill="#000000" font-family="sans-serif" font-size="14" lengthAdjust="spacing" textLength="22.5679" x="70" y="352.432">Luz</text><line style="stroke:#181818;stroke-width:0.5;" x1="42" x2="94.5679" y1="363" y2="363"/><line style="stroke:#181818;stroke-width:0.5;" x1="42" x2="94.5679" y1="371" y2="371"/></g><!--class Superficie--><g id="elem_Superficie"><rect codeLine="7" fill="#F1F1F1" height="48" id="Superficie" rx="2.5" ry="2.5" style="stroke:#181818;stroke-width:0.5;" width="97.2817" x="74" y="7"/><ellipse cx="89" cy="23" fill="#ADD1B2" rx="11" ry="11" style="stroke:#181818;stroke-width:1.0;"/><path d="M91.9688,28.6406 Q91.3906,28.9375 90.75,29.0781 Q90.1094,29.2344 89.4063,29.2344 Q86.9063,29.2344 85.5781,27.5938 Q84.2656,25.9375 84.2656,22.8125 Q84.2656,19.6875 85.5781,18.0313 Q86.9063,16.375 89.4063,16.375 Q90.1094,16.375 90.75,16.5313 Q91.4063,16.6875 91.9688,16.9844 L91.9688,19.7031 Q91.3438,19.125 90.75,18.8594 Q90.1563,18.5781 89.5313,18.5781 Q88.1875,18.5781 87.5,19.6563 Q86.8125,20.7188 86.8125,22.8125 Q86.8125,24.9063 87.5,25.9844 Q88.1875,27.0469 89.5313,27.0469 Q90.1563,27.0469 90.75,26.7813 Q91.3438,26.5 91.9688,25.9219 L91.9688,28.6406 Z " fill="#000000"/><text fill="#000000" font-family="sans-serif" font-size="14" lengthAdjust="spacing" textLength="65.2817" x="103" y="28.432">Superficie</text><line style="stroke:#181818;stroke-width:0.5;" x1="75" x2="170.2817" y1="39" y2="39"/><line style="stroke:#181818;stroke-width:0.5;" x1="75" x2="170.2817" y1="47" y2="47"/></g><!--class Interferencia--><g id="elem_Interferencia"><rect codeLine="9" fill="#F1F1F1" height="48" id="Interferencia" rx="2.5" ry="2.5" style="stroke:#181818;stroke-width:0.5;" width="117.3577" x="7" y="439"/><ellipse cx="22" cy="455" fill="#ADD1B2" rx="11" ry="11" style="stroke:#181818;stroke-width:1.0;"/><path d="M24.9688,460.6406 Q24.3906,460.9375 23.75,461.0781 Q23.1094,461.2344 22.4063,461.2344 Q19.9063,461.2344 18.5781,459.5938 Q17.2656,457.9375 17.2656,454.8125 Q17.2656,451.6875 18.5781,450.0313 Q19.9063,448.375 22.4063,448.375 Q23.1094,448.375 23.75,448.5313 Q24.4063,448.6875 24.9688,448.9844 L24.9688,451.7031 Q24.3438,451.125 23.75,450.8594 Q23.1563,450.5781 22.5313,450.5781 Q21.1875,450.5781 20.5,451.6563 Q19.8125,452.7188 19.8125,454.8125 Q19.8125,456.9063 20.5,457.9844 Q21.1875,459.0469 22.5313,459.0469 Q23.1563,459.0469 23.75,458.7813 Q24.3438,458.5 24.9688,457.9219 L24.9688,460.6406 Z " fill="#000000"/><text fill="#000000" font-family="sans-serif" font-size="14" lengthAdjust="spacing" textLength="85.3577" x="36" y="460.432">Interferencia</text><line style="stroke:#181818;stroke-width:0.5;" x1="8" x2="123.3577" y1="471" y2="471"/><line style="stroke:#181818;stroke-width:0.5;" x1="8" x2="123.3577" y1="479" y2="479"/></g><!--class Imagen--><g id="elem_Imagen"><rect codeLine="11" fill="#F1F1F1" height="48" id="Imagen" rx="2.5" ry="2.5" style="stroke:#181818;stroke-width:0.5;" width="82.8478" x="80" y="547"/><ellipse cx="95" cy="563" fill="#ADD1B2" rx="11" ry="11" style="stroke:#181818;stroke-width:1.0;"/><path d="M97.9688,568.6406 Q97.3906,568.9375 96.75,569.0781 Q96.1094,569.2344 95.4063,569.2344 Q92.9063,569.2344 91.5781,567.5938 Q90.2656,565.9375 90.2656,562.8125 Q90.2656,559.6875 91.5781,558.0313 Q92.9063,556.375 95.4063,556.375 Q96.1094,556.375 96.75,556.5313 Q97.4063,556.6875 97.9688,556.9844 L97.9688,559.7031 Q97.3438,559.125 96.75,558.8594 Q96.1563,558.5781 95.5313,558.5781 Q94.1875,558.5781 93.5,559.6563 Q92.8125,560.7188 92.8125,562.8125 Q92.8125,564.9063 93.5,565.9844 Q94.1875,567.0469 95.5313,567.0469 Q96.1563,567.0469 96.75,566.7813 Q97.3438,566.5 97.9688,565.9219 L97.9688,568.6406 Z " fill="#000000"/><text fill="#000000" font-family="sans-serif" font-size="14" lengthAdjust="spacing" textLength="50.8478" x="109" y="568.432">Imagen</text><line style="stroke:#181818;stroke-width:0.5;" x1="81" x2="161.8478" y1="579" y2="579"/><line style="stroke:#181818;stroke-width:0.5;" x1="81" x2="161.8478" y1="587" y2="587"/></g><!--link Holograma to Proyeccion--><g id="link_Holograma_Proyeccion"><path codeLine="13" d="M111.22,163 C102.55,180.66 90.64,204.94 81.94,222.68 " fill="none" id="Holograma-Proyeccion" style="stroke:#181818;stroke-width:1.0;"/></g><!--link Proyeccion to Luz--><g id="link_Proyeccion_Luz"><path codeLine="14" d="M70.07,271 C69.73,288.66 69.27,312.94 68.94,330.68 " fill="none" id="Proyeccion-Luz" style="stroke:#181818;stroke-width:1.0;"/></g><!--link Luz to Interferencia--><g id="link_Luz_Interferencia"><path codeLine="15" d="M67.85,379 C67.35,396.66 66.66,420.94 66.16,438.68 " fill="none" id="Luz-Interferencia" style="stroke:#181818;stroke-width:1.0;"/></g><!--link Interferencia to Imagen--><g id="link_Interferencia_Imagen"><path codeLine="16" d="M77.65,487 C86.98,504.66 99.81,528.94 109.18,546.68 " fill="none" id="Interferencia-Imagen" style="stroke:#181818;stroke-width:1.0;"/></g><!--link Superficie to Holograma--><g id="link_Superficie_Holograma"><path codeLine="17" d="M122.5,55 C122.5,72.66 122.5,96.94 122.5,114.68 " fill="none" id="Superficie-Holograma" style="stroke:#181818;stroke-width:1.0;"/></g><!--link Imagen to Holograma--><g id="link_Imagen_Holograma"><path codeLine="18" d="M128.69,546.66 C133.38,530.17 139.07,507.46 141.5,487 C155.34,370.48 151.87,339.68 139.5,223 C137.33,202.52 132.45,179.62 128.47,163.07 " fill="none" id="Imagen-Holograma" style="stroke:#181818;stroke-width:1.0;stroke-dasharray:7.0,7.0;"/></g><!--SRC=[Iyv9B2vMyCZFoKylIinDvE9A1Wi45ELNfYOdP-RdmKHyIgjWpE3IWjIYjCpap5IOY6TU2L0ajIWrBpaJRePdRc9wAb0_t705NLraWn5Ca0J8V206CL5DG-61fI7c8bm14aJu02AjeAU740C0]--></g></svg>