<svg xmlns="http://www.w3.org/2000/svg" xmlns:xlink="http://www.w3.org/1999/xlink" contentStyleType="text/css" height="763px" preserveAspectRatio="none" style="width:308px;height:763px;background:#FFFFFF;" version="1.1" viewBox="0 0 308 763" width="308px" zoomAndPan="magnify"><defs/><g><!--cluster Liga--><g id="cluster_Liga"><path d="M8.5,6.602 L38.9979,6.602 A3.75,3.75 0 0 1 41.4979,9.102 L48.4979,31.6699 L298.5,31.6699 A2.5,2.5 0 0 1 301,34.1699 L301,754.102 A2.5,2.5 0 0 1 298.5,756.602 L8.5,756.602 A2.5,2.5 0 0 1 6,754.102 L6,9.102 A2.5,2.5 0 0 1 8.5,6.602 " fill="none" style="stroke:#000000;stroke-width:1.5;"/><line style="stroke:#000000;stroke-width:1.5;" x1="6" x2="48.4979" y1="31.6699" y2="31.6699"/><text fill="#000000" font-family="sans-serif" font-size="14" font-weight="bold" lengthAdjust="spacing" textLength="29.4979" x="10" y="23.5679">Liga</text></g><!--class Estadio--><g id="elem_Estadio"><rect fill="#F1F1F1" height="48" id="Estadio" rx="2.5" ry="2.5" style="stroke:#181818;stroke-width:0.5;" width="80.0898" x="185" y="44.602"/><ellipse cx="200" cy="60.602" fill="#ADD1B2" rx="11" ry="11" style="stroke:#181818;stroke-width:1.0;"/><path d="M202.9688,66.2426 Q202.3906,66.5395 201.75,66.6801 Q201.1094,66.8364 200.4063,66.8364 Q197.9063,66.8364 196.5781,65.1957 Q195.2656,63.5395 195.2656,60.4145 Q195.2656,57.2895 196.5781,55.6332 Q197.9063,53.977 200.4063,53.977 Q201.1094,53.977 201.75,54.1332 Q202.4063,54.2895 202.9688,54.5864 L202.9688,57.3051 Q202.3438,56.727 201.75,56.4614 Q201.1563,56.1801 200.5313,56.1801 Q199.1875,56.1801 198.5,57.2582 Q197.8125,58.3207 197.8125,60.4145 Q197.8125,62.5082 198.5,63.5864 Q199.1875,64.6489 200.5313,64.6489 Q201.1563,64.6489 201.75,64.3832 Q202.3438,64.102 202.9688,63.5239 L202.9688,66.2426 Z " fill="#000000"/><text fill="#000000" font-family="sans-serif" font-size="14" lengthAdjust="spacing" textLength="48.0898" x="214" y="66.034">Estadio</text><line style="stroke:#181818;stroke-width:0.5;" x1="186" x2="264.0898" y1="76.602" y2="76.602"/><line style="stroke:#181818;stroke-width:0.5;" x1="186" x2="264.0898" y1="84.602" y2="84.602"/></g><!--class Jornada--><g id="elem_Jornada"><rect fill="#F1F1F1" height="48" id="Jornada" rx="2.5" ry="2.5" style="stroke:#181818;stroke-width:0.5;" width="83.0438" x="139.5" y="152.602"/><ellipse cx="154.5" cy="168.602" fill="#ADD1B2" rx="11" ry="11" style="stroke:#181818;stroke-width:1.0;"/><path d="M157.4688,174.2426 Q156.8906,174.5395 156.25,174.6801 Q155.6094,174.8364 154.9063,174.8364 Q152.4063,174.8364 151.0781,173.1957 Q149.7656,171.5395 149.7656,168.4145 Q149.7656,165.2895 151.0781,163.6332 Q152.4063,161.977 154.9063,161.977 Q155.6094,161.977 156.25,162.1332 Q156.9063,162.2895 157.4688,162.5864 L157.4688,165.3051 Q156.8438,164.727 156.25,164.4614 Q155.6563,164.1801 155.0313,164.1801 Q153.6875,164.1801 153,165.2582 Q152.3125,166.3207 152.3125,168.4145 Q152.3125,170.5082 153,171.5864 Q153.6875,172.6489 155.0313,172.6489 Q155.6563,172.6489 156.25,172.3832 Q156.8438,172.102 157.4688,171.5239 L157.4688,174.2426 Z " fill="#000000"/><text fill="#000000" font-family="sans-serif" font-size="14" lengthAdjust="spacing" textLength="51.0438" x="168.5" y="174.034">Jornada</text><line style="stroke:#181818;stroke-width:0.5;" x1="140.5" x2="221.5438" y1="184.602" y2="184.602"/><line style="stroke:#181818;stroke-width:0.5;" x1="140.5" x2="221.5438" y1="192.602" y2="192.602"/></g><!--class Arbitro--><g id="elem_Arbitro"><rect fill="#F1F1F1" height="48" id="Arbitro" rx="2.5" ry="2.5" style="stroke:#181818;stroke-width:0.5;" width="78.2558" x="26" y="260.602"/><ellipse cx="41" cy="276.602" fill="#ADD1B2" rx="11" ry="11" style="stroke:#181818;stroke-width:1.0;"/><path d="M43.9688,282.2426 Q43.3906,282.5395 42.75,282.6801 Q42.1094,282.8364 41.4063,282.8364 Q38.9063,282.8364 37.5781,281.1957 Q36.2656,279.5395 36.2656,276.4145 Q36.2656,273.2895 37.5781,271.6332 Q38.9063,269.977 41.4063,269.977 Q42.1094,269.977 42.75,270.1332 Q43.4063,270.2895 43.9688,270.5864 L43.9688,273.3051 Q43.3438,272.727 42.75,272.4614 Q42.1563,272.1801 41.5313,272.1801 Q40.1875,272.1801 39.5,273.2582 Q38.8125,274.3207 38.8125,276.4145 Q38.8125,278.5082 39.5,279.5864 Q40.1875,280.6489 41.5313,280.6489 Q42.1563,280.6489 42.75,280.3832 Q43.3438,280.102 43.9688,279.5239 L43.9688,282.2426 Z " fill="#000000"/><text fill="#000000" font-family="sans-serif" font-size="14" lengthAdjust="spacing" textLength="46.2558" x="55" y="282.034">Arbitro</text><line style="stroke:#181818;stroke-width:0.5;" x1="27" x2="103.2558" y1="292.602" y2="292.602"/><line style="stroke:#181818;stroke-width:0.5;" x1="27" x2="103.2558" y1="300.602" y2="300.602"/></g><!--class Reglas--><g id="elem_Reglas"><rect fill="#F1F1F1" height="48" id="Reglas" rx="2.5" ry="2.5" style="stroke:#181818;stroke-width:0.5;" width="75.3858" x="21.5" y="368.602"/><ellipse cx="36.5" cy="384.602" fill="#ADD1B2" rx="11" ry="11" style="stroke:#181818;stroke-width:1.0;"/><path d="M39.4688,390.2426 Q38.8906,390.5395 38.25,390.6801 Q37.6094,390.8364 36.9063,390.8364 Q34.4063,390.8364 33.0781,389.1957 Q31.7656,387.5395 31.7656,384.4145 Q31.7656,381.2895 33.0781,379.6332 Q34.4063,377.977 36.9063,377.977 Q37.6094,377.977 38.25,378.1332 Q38.9063,378.2895 39.4688,378.5864 L39.4688,381.3051 Q38.8438,380.727 38.25,380.4614 Q37.6563,380.1801 37.0313,380.1801 Q35.6875,380.1801 35,381.2582 Q34.3125,382.3207 34.3125,384.4145 Q34.3125,386.5082 35,387.5864 Q35.6875,388.6489 37.0313,388.6489 Q37.6563,388.6489 38.25,388.3832 Q38.8438,388.102 39.4688,387.5239 L39.4688,390.2426 Z " fill="#000000"/><text fill="#000000" font-family="sans-serif" font-size="14" lengthAdjust="spacing" textLength="43.3858" x="50.5" y="390.034">Reglas</text><line style="stroke:#181818;stroke-width:0.5;" x1="22.5" x2="95.8858" y1="400.602" y2="400.602"/><line style="stroke:#181818;stroke-width:0.5;" x1="22.5" x2="95.8858" y1="408.602" y2="408.602"/></g><!--class Equipo--><g id="elem_Equipo"><rect fill="#F1F1F1" height="48" id="Equipo" rx="2.5" ry="2.5" style="stroke:#181818;stroke-width:0.5;" width="77.7378" x="94" y="476.602"/><ellipse cx="109" cy="492.602" fill="#ADD1B2" rx="11" ry="11" style="stroke:#181818;stroke-width:1.0;"/><path d="M111.9688,498.2426 Q111.3906,498.5395 110.75,498.6801 Q110.1094,498.8364 109.4063,498.8364 Q106.9063,498.8364 105.5781,497.1957 Q104.2656,495.5395 104.2656,492.4145 Q104.2656,489.2895 105.5781,487.6332 Q106.9063,485.977 109.4063,485.977 Q110.1094,485.977 110.75,486.1332 Q111.4063,486.2895 111.9688,486.5864 L111.9688,489.3051 Q111.3438,488.727 110.75,488.4614 Q110.1563,488.1801 109.5313,488.1801 Q108.1875,488.1801 107.5,489.2582 Q106.8125,490.3207 106.8125,492.4145 Q106.8125,494.5082 107.5,495.5864 Q108.1875,496.6489 109.5313,496.6489 Q110.1563,496.6489 110.75,496.3832 Q111.3438,496.102 111.9688,495.5239 L111.9688,498.2426 Z " fill="#000000"/><text fill="#000000" font-family="sans-serif" font-size="14" lengthAdjust="spacing" textLength="45.7378" x="123" y="498.034">Equipo</text><line style="stroke:#181818;stroke-width:0.5;" x1="95" x2="170.7378" y1="508.602" y2="508.602"/><line style="stroke:#181818;stroke-width:0.5;" x1="95" x2="170.7378" y1="516.602" y2="516.602"/></g><!--class Entrenador--><g id="elem_Entrenador"><rect fill="#F1F1F1" height="48" id="Entrenador" rx="2.5" ry="2.5" style="stroke:#181818;stroke-width:0.5;" width="106.5357" x="178.5" y="584.602"/><ellipse cx="193.5" cy="600.602" fill="#ADD1B2" rx="11" ry="11" style="stroke:#181818;stroke-width:1.0;"/><path d="M196.4688,606.2426 Q195.8906,606.5395 195.25,606.6801 Q194.6094,606.8364 193.9063,606.8364 Q191.4063,606.8364 190.0781,605.1957 Q188.7656,603.5395 188.7656,600.4145 Q188.7656,597.2895 190.0781,595.6332 Q191.4063,593.977 193.9063,593.977 Q194.6094,593.977 195.25,594.1332 Q195.9063,594.2895 196.4688,594.5864 L196.4688,597.3051 Q195.8438,596.727 195.25,596.4614 Q194.6563,596.1801 194.0313,596.1801 Q192.6875,596.1801 192,597.2582 Q191.3125,598.3207 191.3125,600.4145 Q191.3125,602.5082 192,603.5864 Q192.6875,604.6489 194.0313,604.6489 Q194.6563,604.6489 195.25,604.3832 Q195.8438,604.102 196.4688,603.5239 L196.4688,606.2426 Z " fill="#000000"/><text fill="#000000" font-family="sans-serif" font-size="14" lengthAdjust="spacing" textLength="74.5357" x="207.5" y="606.034">Entrenador</text><line style="stroke:#181818;stroke-width:0.5;" x1="179.5" x2="284.0357" y1="616.602" y2="616.602"/><line style="stroke:#181818;stroke-width:0.5;" x1="179.5" x2="284.0357" y1="624.602" y2="624.602"/></g><!--class Jugador--><g id="elem_Jugador"><rect fill="#F1F1F1" height="48" id="Jugador" rx="2.5" ry="2.5" style="stroke:#181818;stroke-width:0.5;" width="83.7998" x="59" y="584.602"/><ellipse cx="74" cy="600.602" fill="#ADD1B2" rx="11" ry="11" style="stroke:#181818;stroke-width:1.0;"/><path d="M76.9688,606.2426 Q76.3906,606.5395 75.75,606.6801 Q75.1094,606.8364 74.4063,606.8364 Q71.9063,606.8364 70.5781,605.1957 Q69.2656,603.5395 69.2656,600.4145 Q69.2656,597.2895 70.5781,595.6332 Q71.9063,593.977 74.4063,593.977 Q75.1094,593.977 75.75,594.1332 Q76.4063,594.2895 76.9688,594.5864 L76.9688,597.3051 Q76.3438,596.727 75.75,596.4614 Q75.1563,596.1801 74.5313,596.1801 Q73.1875,596.1801 72.5,597.2582 Q71.8125,598.3207 71.8125,600.4145 Q71.8125,602.5082 72.5,603.5864 Q73.1875,604.6489 74.5313,604.6489 Q75.1563,604.6489 75.75,604.3832 Q76.3438,604.102 76.9688,603.5239 L76.9688,606.2426 Z " fill="#000000"/><text fill="#000000" font-family="sans-serif" font-size="14" lengthAdjust="spacing" textLength="51.7998" x="88" y="606.034">Jugador</text><line style="stroke:#181818;stroke-width:0.5;" x1="60" x2="141.7998" y1="616.602" y2="616.602"/><line style="stroke:#181818;stroke-width:0.5;" x1="60" x2="141.7998" y1="624.602" y2="624.602"/></g><!--class Partido--><g id="elem_Partido"><rect fill="#F1F1F1" height="48" id="Partido" rx="2.5" ry="2.5" style="stroke:#181818;stroke-width:0.5;" width="79.8518" x="141" y="260.602"/><ellipse cx="156" cy="276.602" fill="#ADD1B2" rx="11" ry="11" style="stroke:#181818;stroke-width:1.0;"/><path d="M158.9688,282.2426 Q158.3906,282.5395 157.75,282.6801 Q157.1094,282.8364 156.4063,282.8364 Q153.9063,282.8364 152.5781,281.1957 Q151.2656,279.5395 151.2656,276.4145 Q151.2656,273.2895 152.5781,271.6332 Q153.9063,269.977 156.4063,269.977 Q157.1094,269.977 157.75,270.1332 Q158.4063,270.2895 158.9688,270.5864 L158.9688,273.3051 Q158.3438,272.727 157.75,272.4614 Q157.1563,272.1801 156.5313,272.1801 Q155.1875,272.1801 154.5,273.2582 Q153.8125,274.3207 153.8125,276.4145 Q153.8125,278.5082 154.5,279.5864 Q155.1875,280.6489 156.5313,280.6489 Q157.1563,280.6489 157.75,280.3832 Q158.3438,280.102 158.9688,279.5239 L158.9688,282.2426 Z " fill="#000000"/><text fill="#000000" font-family="sans-serif" font-size="14" lengthAdjust="spacing" textLength="47.8518" x="170" y="282.034">Partido</text><line style="stroke:#181818;stroke-width:0.5;" x1="142" x2="219.8518" y1="292.602" y2="292.602"/><line style="stroke:#181818;stroke-width:0.5;" x1="142" x2="219.8518" y1="300.602" y2="300.602"/></g><!--class Gol--><g id="elem_Gol"><rect fill="#F1F1F1" height="48" id="Gol" rx="2.5" ry="2.5" style="stroke:#181818;stroke-width:0.5;" width="54.2739" x="169" y="368.602"/><ellipse cx="184" cy="384.602" fill="#ADD1B2" rx="11" ry="11" style="stroke:#181818;stroke-width:1.0;"/><path d="M186.9688,390.2426 Q186.3906,390.5395 185.75,390.6801 Q185.1094,390.8364 184.4063,390.8364 Q181.9063,390.8364 180.5781,389.1957 Q179.2656,387.5395 179.2656,384.4145 Q179.2656,381.2895 180.5781,379.6332 Q181.9063,377.977 184.4063,377.977 Q185.1094,377.977 185.75,378.1332 Q186.4063,378.2895 186.9688,378.5864 L186.9688,381.3051 Q186.3438,380.727 185.75,380.4614 Q185.1563,380.1801 184.5313,380.1801 Q183.1875,380.1801 182.5,381.2582 Q181.8125,382.3207 181.8125,384.4145 Q181.8125,386.5082 182.5,387.5864 Q183.1875,388.6489 184.5313,388.6489 Q185.1563,388.6489 185.75,388.3832 Q186.3438,388.102 186.9688,387.5239 L186.9688,390.2426 Z " fill="#000000"/><text fill="#000000" font-family="sans-serif" font-size="14" lengthAdjust="spacing" textLength="22.2739" x="198" y="390.034">Gol</text><line style="stroke:#181818;stroke-width:0.5;" x1="170" x2="222.2739" y1="400.602" y2="400.602"/><line style="stroke:#181818;stroke-width:0.5;" x1="170" x2="222.2739" y1="408.602" y2="408.602"/></g><!--class Tarjeta--><g id="elem_Tarjeta"><rect fill="#F1F1F1" height="48" id="Tarjeta" rx="2.5" ry="2.5" style="stroke:#181818;stroke-width:0.5;" width="77.8358" x="42" y="692.602"/><ellipse cx="57" cy="708.602" fill="#ADD1B2" rx="11" ry="11" style="stroke:#181818;stroke-width:1.0;"/><path d="M59.9688,714.2426 Q59.3906,714.5395 58.75,714.6801 Q58.1094,714.8364 57.4063,714.8364 Q54.9063,714.8364 53.5781,713.1957 Q52.2656,711.5395 52.2656,708.4145 Q52.2656,705.2895 53.5781,703.6332 Q54.9063,701.977 57.4063,701.977 Q58.1094,701.977 58.75,702.1332 Q59.4063,702.2895 59.9688,702.5864 L59.9688,705.3051 Q59.3438,704.727 58.75,704.4614 Q58.1563,704.1801 57.5313,704.1801 Q56.1875,704.1801 55.5,705.2582 Q54.8125,706.3207 54.8125,708.4145 Q54.8125,710.5082 55.5,711.5864 Q56.1875,712.6489 57.5313,712.6489 Q58.1563,712.6489 58.75,712.3832 Q59.3438,712.102 59.9688,711.5239 L59.9688,714.2426 Z " fill="#000000"/><text fill="#000000" font-family="sans-serif" font-size="14" lengthAdjust="spacing" textLength="45.8358" x="71" y="714.034">Tarjeta</text><line style="stroke:#181818;stroke-width:0.5;" x1="43" x2="118.8358" y1="724.602" y2="724.602"/><line style="stroke:#181818;stroke-width:0.5;" x1="43" x2="118.8358" y1="732.602" y2="732.602"/></g><!--class Temporada--><g id="elem_Temporada"><rect fill="#F1F1F1" height="48" id="Temporada" rx="2.5" ry="2.5" style="stroke:#181818;stroke-width:0.5;" width="107.9497" x="42" y="44.602"/><ellipse cx="57" cy="60.602" fill="#ADD1B2" rx="11" ry="11" style="stroke:#181818;stroke-width:1.0;"/><path d="M59.9688,66.2426 Q59.3906,66.5395 58.75,66.6801 Q58.1094,66.8364 57.4063,66.8364 Q54.9063,66.8364 53.5781,65.1957 Q52.2656,63.5395 52.2656,60.4145 Q52.2656,57.2895 53.5781,55.6332 Q54.9063,53.977 57.4063,53.977 Q58.1094,53.977 58.75,54.1332 Q59.4063,54.2895 59.9688,54.5864 L59.9688,57.3051 Q59.3438,56.727 58.75,56.4614 Q58.1563,56.1801 57.5313,56.1801 Q56.1875,56.1801 55.5,57.2582 Q54.8125,58.3207 54.8125,60.4145 Q54.8125,62.5082 55.5,63.5864 Q56.1875,64.6489 57.5313,64.6489 Q58.1563,64.6489 58.75,64.3832 Q59.3438,64.102 59.9688,63.5239 L59.9688,66.2426 Z " fill="#000000"/><text fill="#000000" font-family="sans-serif" font-size="14" lengthAdjust="spacing" textLength="75.9497" x="71" y="66.034">Temporada</text><line style="stroke:#181818;stroke-width:0.5;" x1="43" x2="148.9497" y1="76.602" y2="76.602"/><line style="stroke:#181818;stroke-width:0.5;" x1="43" x2="148.9497" y1="84.602" y2="84.602"/></g><!--link Estadio to Jornada--><g id="link_Estadio_Jornada"><path codeLine="3" d="M215.45,92.602 C208.12,110.262 198.04,134.542 190.68,152.282 " fill="none" id="Estadio-Jornada" style="stroke:#181818;stroke-width:1.0;"/></g><!--link Jornada to Arbitro--><g id="link_Jornada_Arbitro"><path codeLine="4" d="M155.83,200.602 C136.51,218.262 109.93,242.542 90.52,260.282 " fill="none" id="Jornada-Arbitro" style="stroke:#181818;stroke-width:1.0;"/></g><!--link Arbitro to Reglas--><g id="link_Arbitro_Reglas"><path codeLine="5" d="M63.7,308.602 C62.7,326.262 61.32,350.542 60.32,368.282 " fill="none" id="Arbitro-Reglas" style="stroke:#181818;stroke-width:1.0;"/></g><!--link Equipo to Entrenador--><g id="link_Equipo_Entrenador"><path codeLine="6" d="M154.48,524.602 C170.97,542.262 193.65,566.542 210.22,584.282 " fill="none" id="Equipo-Entrenador" style="stroke:#181818;stroke-width:1.0;"/></g><!--link Equipo to Jugador--><g id="link_Equipo_Jugador"><path codeLine="7" d="M126.06,524.602 C120.73,542.262 113.4,566.542 108.04,584.282 " fill="none" id="Equipo-Jugador" style="stroke:#181818;stroke-width:1.0;"/></g><!--link Equipo to Jornada--><g id="link_Equipo_Jornada"><path codeLine="8" d="M172.03,481.312 C196.76,467.392 226.68,445.662 241,416.602 C271.64,354.402 260.43,326.542 239,260.602 C231.72,238.202 216.17,216.512 203,200.922 " fill="none" id="Equipo-Jornada" style="stroke:#181818;stroke-width:1.0;"/></g><!--link Reglas to Equipo--><g id="link_Reglas_Equipo"><path codeLine="9" d="M75.06,416.602 C87.38,434.262 104.34,458.542 116.72,476.282 " fill="none" id="Reglas-Equipo" style="stroke:#181818;stroke-width:1.0;stroke-dasharray:7.0,7.0;"/></g><!--link Jornada to Partido--><g id="link_Jornada_Partido"><path codeLine="10" d="M181,200.602 C181,218.262 181,242.542 181,260.282 " fill="none" id="Jornada-Partido" style="stroke:#181818;stroke-width:1.0;"/></g><!--link Partido to Equipo--><g id="link_Partido_Equipo"><path codeLine="11" d="M171.53,308.852 C165.16,325.292 157.05,347.992 152,368.602 C142.93,405.652 137.63,449.742 135.03,476.152 " fill="none" id="Partido-Equipo" style="stroke:#181818;stroke-width:1.0;"/></g><!--link Partido to Gol--><g id="link_Partido_Gol"><path codeLine="12" d="M184.25,308.602 C186.75,326.262 190.19,350.542 192.7,368.282 " fill="none" id="Partido-Gol" style="stroke:#181818;stroke-width:1.0;"/></g><!--link Jugador to Tarjeta--><g id="link_Jugador_Tarjeta"><path codeLine="13" d="M96.66,632.602 C93.33,650.262 88.75,674.542 85.4,692.282 " fill="none" id="Jugador-Tarjeta" style="stroke:#181818;stroke-width:1.0;"/></g><!--link Reglas to Tarjeta--><g id="link_Reglas_Tarjeta"><path codeLine="14" d="M53,416.662 C42.77,459.682 24.64,554.852 42,632.602 C46.75,653.892 57.59,676.162 66.63,692.272 " fill="none" id="Reglas-Tarjeta" style="stroke:#181818;stroke-width:1.0;stroke-dasharray:7.0,7.0;"/></g><!--link Temporada to Jornada--><g id="link_Temporada_Jornada"><path codeLine="15" d="M114.44,92.602 C128.6,110.262 148.08,134.542 162.3,152.282 " fill="none" id="Temporada-Jornada" style="stroke:#181818;stroke-width:1.0;"/></g><!--SRC=[PSv13e8m40NGFQUOi8Sxk20an8KnN62qawQAJ1tAodXtEr3GnjtFQtz_FLxlQ0dAexDOmgi0QAQ0nZ5K5NGi8ngCc9BYGIuk24TCIV5CTi19sy_P-OMQCGZ54al6tMp_RTzPtu6wJgVvz0abEAEOqhApNVonbWTjhbCAFSgDGhxmjPuUdYMDR9zv5ny0]--></g></svg>