<svg xmlns="http://www.w3.org/2000/svg" xmlns:xlink="http://www.w3.org/1999/xlink" contentStyleType="text/css" height="394px" preserveAspectRatio="none" style="width:239px;height:394px;background:#FFFFFF;" version="1.1" viewBox="0 0 239 394" width="239px" zoomAndPan="magnify"><defs/><g><g id="elem_Meta"><rect fill="#F1F1F1" height="50.1358" style="stroke:#181818;stroke-width:0.5;" width="74.1738" x="112" y="7"/><text fill="#000000" font-family="sans-serif" font-size="14" lengthAdjust="spacing" textLength="33.5019" x="132.3359" y="23.9659">Meta</text><line style="stroke:#181818;stroke-width:0.5;" x1="113" x2="185.1738" y1="30.0679" y2="30.0679"/><text fill="#000000" font-family="sans-serif" font-size="14" lengthAdjust="spacing" textLength="62.1738" x="118" y="49.0339">Aprender</text></g><g id="elem_Motivacion"><rect fill="#F1F1F1" height="50.1358" style="stroke:#181818;stroke-width:0.5;" width="86.2537" x="147" y="337"/><text fill="#000000" font-family="sans-serif" font-size="14" lengthAdjust="spacing" textLength="72.2537" x="154" y="353.9659">Motivacion</text><line style="stroke:#181818;stroke-width:0.5;" x1="148" x2="232.2537" y1="360.0679" y2="360.0679"/><text fill="#000000" font-family="sans-serif" font-size="14" lengthAdjust="spacing" textLength="68.3617" x="153" y="379.0339">Dopamina</text></g><g id="elem_Accion"><rect fill="#F1F1F1" height="50.1358" style="stroke:#181818;stroke-width:0.5;" width="66.0538" x="7" y="117"/><text fill="#000000" font-family="sans-serif" font-size="14" lengthAdjust="spacing" textLength="43.1198" x="18.467" y="133.9659">Accion</text><line style="stroke:#181818;stroke-width:0.5;" x1="8" x2="72.0538" y1="140.0679" y2="140.0679"/><text fill="#000000" font-family="sans-serif" font-size="14" lengthAdjust="spacing" textLength="54.0538" x="13" y="159.0339">Estudiar</text></g><g id="elem_Obstaculo"><rect fill="#F1F1F1" height="50.1358" style="stroke:#181818;stroke-width:0.5;" width="80.6118" x="108.5" y="117"/><text fill="#000000" font-family="sans-serif" font-size="14" lengthAdjust="spacing" textLength="66.6118" x="115.5" y="133.9659">Obstaculo</text><line style="stroke:#181818;stroke-width:0.5;" x1="109.5" x2="188.1118" y1="140.0679" y2="140.0679"/><text fill="#000000" font-family="sans-serif" font-size="14" lengthAdjust="spacing" textLength="68.3897" x="114.5" y="159.0339">Descansar</text></g><g id="elem_Recompensa"><rect fill="#F1F1F1" height="50.1358" style="stroke:#181818;stroke-width:0.5;" width="103.5456" x="86" y="227"/><text fill="#000000" font-family="sans-serif" font-size="14" lengthAdjust="spacing" textLength="84.6017" x="95.472" y="243.9659">Recompensa</text><line style="stroke:#181818;stroke-width:0.5;" x1="87" x2="188.5456" y1="250.0679" y2="250.0679"/><text fill="#000000" font-family="sans-serif" font-size="14" lengthAdjust="spacing" textLength="91.5456" x="92" y="269.0339">Conocimiento</text></g><!--link Motivacion to Meta--><g id="link_Motivacion_Meta"><path codeLine="16" d="M197.4,336.77 C209.79,292.14 231.14,194.43 207,117 C200.04,94.67 184.84,73.03 171.74,57.31 " fill="none" id="Motivacion-Meta" style="stroke:#181818;stroke-width:1.0;"/></g><!--link Meta to Accion--><g id="link_Meta_Accion"><path codeLine="17" d="M124.54,57.24 C106.59,75.02 82.31,99.08 64.38,116.84 " fill="none" id="Meta-Accion" style="stroke:#181818;stroke-width:1.0;"/></g><!--link Accion to Recompensa--><g id="link_Accion_Recompensa"><path codeLine="18" d="M61.99,167.24 C78.13,185.02 99.96,209.08 116.08,226.84 " fill="none" id="Accion-Recompensa" style="stroke:#181818;stroke-width:1.0;"/></g><!--link Recompensa to Motivacion--><g id="link_Recompensa_Motivacion"><path codeLine="19" d="M149.67,277.24 C158.23,295.02 169.81,319.08 178.37,336.84 " fill="none" id="Recompensa-Motivacion" style="stroke:#181818;stroke-width:1.0;stroke-dasharray:7.0,7.0;"/></g><!--link Meta to Obstaculo--><g id="link_Meta_Obstaculo"><path codeLine="20" d="M149,57.24 C149,75.02 149,99.08 149,116.84 " fill="none" id="Meta-Obstaculo" style="stroke:#181818;stroke-width:1.0;"/></g><!--link Obstaculo to Recompensa--><g id="link_Obstaculo_Recompensa"><path codeLine="21" d="M146.53,167.24 C144.72,185.02 142.27,209.08 140.46,226.84 " fill="none" id="Obstaculo-Recompensa" style="stroke:#181818;stroke-width:1.0;"/></g><!--SRC=[ROyn3i8m34Ltdo8NQ0_0LW4ZGk86hkl1YCHHat9-t58rYTJ5-R6VlxvrV3Dbz-2Ci1PtSKESEKmy0-W-r2nV9D40HHfuquXU0XxWG1lqVmoufxnCWiNfEQQCj7mK3hNwS28CgU9UJEeZMm-ADFAgGKcySCWATPYkgqwmJvl46kUEVTySjo-VfMmiVW00]--></g></svg>