<svg xmlns="http://www.w3.org/2000/svg" xmlns:xlink="http://www.w3.org/1999/xlink" contentStyleType="text/css" height="386px" preserveAspectRatio="none" style="width:272px;height:386px;background:#FFFFFF;" version="1.1" viewBox="0 0 272 386" width="272px" zoomAndPan="magnify"><defs/><g><!--class Meta--><g id="elem_Meta"><rect codeLine="1" fill="#F1F1F1" height="48" id="Meta" rx="2.5" ry="2.5" style="stroke:#181818;stroke-width:0.5;" width="65.5019" x="133.5" y="7"/><ellipse cx="148.5" cy="23" fill="#ADD1B2" rx="11" ry="11" style="stroke:#181818;stroke-width:1.0;"/><path d="M151.4688,28.6406 Q150.8906,28.9375 150.25,29.0781 Q149.6094,29.2344 148.9063,29.2344 Q146.4063,29.2344 145.0781,27.5938 Q143.7656,25.9375 143.7656,22.8125 Q143.7656,19.6875 145.0781,18.0313 Q146.4063,16.375 148.9063,16.375 Q149.6094,16.375 150.25,16.5313 Q150.9063,16.6875 151.4688,16.9844 L151.4688,19.7031 Q150.8438,19.125 150.25,18.8594 Q149.6563,18.5781 149.0313,18.5781 Q147.6875,18.5781 147,19.6563 Q146.3125,20.7188 146.3125,22.8125 Q146.3125,24.9063 147,25.9844 Q147.6875,27.0469 149.0313,27.0469 Q149.6563,27.0469 150.25,26.7813 Q150.8438,26.5 151.4688,25.9219 L151.4688,28.6406 Z " fill="#000000"/><text fill="#000000" font-family="sans-serif" font-size="14" lengthAdjust="spacing" textLength="33.5019" x="162.5" y="28.432">Meta</text><line style="stroke:#181818;stroke-width:0.5;" x1="134.5" x2="198.0019" y1="39" y2="39"/><line style="stroke:#181818;stroke-width:0.5;" x1="134.5" x2="198.0019" y1="47" y2="47"/></g><!--class Motivacion--><g id="elem_Motivacion"><rect codeLine="3" fill="#F1F1F1" height="48" id="Motivacion" rx="2.5" ry="2.5" style="stroke:#181818;stroke-width:0.5;" width="104.2537" x="161.5" y="331"/><ellipse cx="176.5" cy="347" fill="#ADD1B2" rx="11" ry="11" style="stroke:#181818;stroke-width:1.0;"/><path d="M179.4688,352.6406 Q178.8906,352.9375 178.25,353.0781 Q177.6094,353.2344 176.9063,353.2344 Q174.4063,353.2344 173.0781,351.5938 Q171.7656,349.9375 171.7656,346.8125 Q171.7656,343.6875 173.0781,342.0313 Q174.4063,340.375 176.9063,340.375 Q177.6094,340.375 178.25,340.5313 Q178.9063,340.6875 179.4688,340.9844 L179.4688,343.7031 Q178.8438,343.125 178.25,342.8594 Q177.6563,342.5781 177.0313,342.5781 Q175.6875,342.5781 175,343.6563 Q174.3125,344.7188 174.3125,346.8125 Q174.3125,348.9063 175,349.9844 Q175.6875,351.0469 177.0313,351.0469 Q177.6563,351.0469 178.25,350.7813 Q178.8438,350.5 179.4688,349.9219 L179.4688,352.6406 Z " fill="#000000"/><text fill="#000000" font-family="sans-serif" font-size="14" lengthAdjust="spacing" textLength="72.2537" x="190.5" y="352.432">Motivacion</text><line style="stroke:#181818;stroke-width:0.5;" x1="162.5" x2="264.7537" y1="363" y2="363"/><line style="stroke:#181818;stroke-width:0.5;" x1="162.5" x2="264.7537" y1="371" y2="371"/></g><!--class Accion--><g id="elem_Accion"><rect codeLine="5" fill="#F1F1F1" height="48" id="Accion" rx="2.5" ry="2.5" style="stroke:#181818;stroke-width:0.5;" width="75.1198" x="7" y="115"/><ellipse cx="22" cy="131" fill="#ADD1B2" rx="11" ry="11" style="stroke:#181818;stroke-width:1.0;"/><path d="M24.9688,136.6406 Q24.3906,136.9375 23.75,137.0781 Q23.1094,137.2344 22.4063,137.2344 Q19.9063,137.2344 18.5781,135.5938 Q17.2656,133.9375 17.2656,130.8125 Q17.2656,127.6875 18.5781,126.0313 Q19.9063,124.375 22.4063,124.375 Q23.1094,124.375 23.75,124.5313 Q24.4063,124.6875 24.9688,124.9844 L24.9688,127.7031 Q24.3438,127.125 23.75,126.8594 Q23.1563,126.5781 22.5313,126.5781 Q21.1875,126.5781 20.5,127.6563 Q19.8125,128.7188 19.8125,130.8125 Q19.8125,132.9063 20.5,133.9844 Q21.1875,135.0469 22.5313,135.0469 Q23.1563,135.0469 23.75,134.7813 Q24.3438,134.5 24.9688,133.9219 L24.9688,136.6406 Z " fill="#000000"/><text fill="#000000" font-family="sans-serif" font-size="14" lengthAdjust="spacing" textLength="43.1198" x="36" y="136.432">Accion</text><line style="stroke:#181818;stroke-width:0.5;" x1="8" x2="81.1198" y1="147" y2="147"/><line style="stroke:#181818;stroke-width:0.5;" x1="8" x2="81.1198" y1="155" y2="155"/></g><!--class Obstaculo--><g id="elem_Obstaculo"><rect codeLine="7" fill="#F1F1F1" height="48" id="Obstaculo" rx="2.5" ry="2.5" style="stroke:#181818;stroke-width:0.5;" width="98.6118" x="117" y="115"/><ellipse cx="132" cy="131" fill="#ADD1B2" rx="11" ry="11" style="stroke:#181818;stroke-width:1.0;"/><path d="M134.9688,136.6406 Q134.3906,136.9375 133.75,137.0781 Q133.1094,137.2344 132.4063,137.2344 Q129.9063,137.2344 128.5781,135.5938 Q127.2656,133.9375 127.2656,130.8125 Q127.2656,127.6875 128.5781,126.0313 Q129.9063,124.375 132.4063,124.375 Q133.1094,124.375 133.75,124.5313 Q134.4063,124.6875 134.9688,124.9844 L134.9688,127.7031 Q134.3438,127.125 133.75,126.8594 Q133.1563,126.5781 132.5313,126.5781 Q131.1875,126.5781 130.5,127.6563 Q129.8125,128.7188 129.8125,130.8125 Q129.8125,132.9063 130.5,133.9844 Q131.1875,135.0469 132.5313,135.0469 Q133.1563,135.0469 133.75,134.7813 Q134.3438,134.5 134.9688,133.9219 L134.9688,136.6406 Z " fill="#000000"/><text fill="#000000" font-family="sans-serif" font-size="14" lengthAdjust="spacing" textLength="66.6118" x="146" y="136.432">Obstaculo</text><line style="stroke:#181818;stroke-width:0.5;" x1="118" x2="214.6118" y1="147" y2="147"/><line style="stroke:#181818;stroke-width:0.5;" x1="118" x2="214.6118" y1="155" y2="155"/></g><!--class Recompensa--><g id="elem_Recompensa"><rect codeLine="9" fill="#F1F1F1" height="48" id="Recompensa" rx="2.5" ry="2.5" style="stroke:#181818;stroke-width:0.5;" width="116.6017" x="99" y="223"/><ellipse cx="114" cy="239" fill="#ADD1B2" rx="11" ry="11" style="stroke:#181818;stroke-width:1.0;"/><path d="M116.9688,244.6406 Q116.3906,244.9375 115.75,245.0781 Q115.1094,245.2344 114.4063,245.2344 Q111.9063,245.2344 110.5781,243.5938 Q109.2656,241.9375 109.2656,238.8125 Q109.2656,235.6875 110.5781,234.0313 Q111.9063,232.375 114.4063,232.375 Q115.1094,232.375 115.75,232.5313 Q116.4063,232.6875 116.9688,232.9844 L116.9688,235.7031 Q116.3438,235.125 115.75,234.8594 Q115.1563,234.5781 114.5313,234.5781 Q113.1875,234.5781 112.5,235.6563 Q111.8125,236.7188 111.8125,238.8125 Q111.8125,240.9063 112.5,241.9844 Q113.1875,243.0469 114.5313,243.0469 Q115.1563,243.0469 115.75,242.7813 Q116.3438,242.5 116.9688,241.9219 L116.9688,244.6406 Z " fill="#000000"/><text fill="#000000" font-family="sans-serif" font-size="14" lengthAdjust="spacing" textLength="84.6017" x="128" y="244.432">Recompensa</text><line style="stroke:#181818;stroke-width:0.5;" x1="100" x2="214.6017" y1="255" y2="255"/><line style="stroke:#181818;stroke-width:0.5;" x1="100" x2="214.6017" y1="263" y2="263"/></g><!--link Motivacion to Meta--><g id="link_Motivacion_Meta"><path codeLine="11" d="M221.62,330.79 C235.56,287.13 260.13,190.38 233.5,115 C225.36,91.95 207.8,70.6 192.7,55.33 " fill="none" id="Motivacion-Meta" style="stroke:#181818;stroke-width:1.0;"/></g><!--link Meta to Accion--><g id="link_Meta_Accion"><path codeLine="12" d="M140.03,55 C119.7,72.66 91.76,96.94 71.34,114.68 " fill="none" id="Meta-Accion" style="stroke:#181818;stroke-width:1.0;"/></g><!--link Accion to Recompensa--><g id="link_Accion_Recompensa"><path codeLine="13" d="M69.02,163 C87.84,180.66 113.73,204.94 132.64,222.68 " fill="none" id="Accion-Recompensa" style="stroke:#181818;stroke-width:1.0;"/></g><!--link Recompensa to Motivacion--><g id="link_Recompensa_Motivacion"><path codeLine="14" d="M169.65,271 C178.98,288.66 191.81,312.94 201.18,330.68 " fill="none" id="Recompensa-Motivacion" style="stroke:#181818;stroke-width:1.0;stroke-dasharray:7.0,7.0;"/></g><!--link Meta to Obstaculo--><g id="link_Meta_Obstaculo"><path codeLine="15" d="M166.5,55 C166.5,72.66 166.5,96.94 166.5,114.68 " fill="none" id="Meta-Obstaculo" style="stroke:#181818;stroke-width:1.0;"/></g><!--link Obstaculo to Recompensa--><g id="link_Obstaculo_Recompensa"><path codeLine="16" d="M164.55,163 C163.05,180.66 160.99,204.94 159.48,222.68 " fill="none" id="Obstaculo-Recompensa" style="stroke:#181818;stroke-width:1.0;"/></g><!--SRC=[Iyv9B2vMy4qjIUJYIeQmyqioonAJC_FpO2AEoSWy_wJYaiJaqfnyc41GQd9-Ra5gNZ7G28Hc1LrTYB4W0iI1cWAXG098-X1C1JqzP1V0D2CiXRDGZG00]--></g></svg>