<?xml version="1.0" encoding="us-ascii" standalone="no"?><svg xmlns="http://www.w3.org/2000/svg" xmlns:xlink="http://www.w3.org/1999/xlink" contentStyleType="text/css" height="1053px" preserveAspectRatio="none" style="width:328px;height:1053px;background:#FFFFFF;" version="1.1" viewBox="0 0 328 1053" width="328px" zoomAndPan="magnify"><defs/><g><!--cluster Eco--><g id="cluster_Eco"><path d="M8.5,6 L35.5,6 A3.75,3.75 0 0 1 38,8.5 L45,29.6094 L318.5,29.6094 A2.5,2.5 0 0 1 321,32.1094 L321,1043.5 A2.5,2.5 0 0 1 318.5,1046 L8.5,1046 A2.5,2.5 0 0 1 6,1043.5 L6,8.5 A2.5,2.5 0 0 1 8.5,6 " fill="none" style="stroke:#000000;stroke-width:1.5;"/><line style="stroke:#000000;stroke-width:1.5;" x1="6" x2="45" y1="29.6094" y2="29.6094"/><text fill="#000000" font-family="sans-serif" font-size="14" font-weight="bold" lengthAdjust="spacing" textLength="26" x="10" y="22.5332">Eco</text></g><!--class FuenteDeSonido--><g id="elem_FuenteDeSonido"><rect codeLine="3" fill="#F1F1F1" height="48" id="FuenteDeSonido" rx="2.5" ry="2.5" style="stroke:#181818;stroke-width:0.5;" width="139" x="101.5" y="42"/><ellipse cx="116.5" cy="58" fill="#ADD1B2" rx="11" ry="11" style="stroke:#181818;stroke-width:1.0;"/><path d="M119.2656,53.875 Q119.4219,53.6563 119.6094,53.5469 Q119.7969,53.4375 120.0156,53.4375 Q120.3906,53.4375 120.625,53.7031 Q120.8594,53.9531 120.8594,54.5625 L120.8594,56.0156 Q120.8594,56.625 120.625,56.8906 Q120.3906,57.1563 120.0156,57.1563 Q119.6719,57.1563 119.4688,56.9531 Q119.2656,56.7656 119.1563,56.25 Q119.1094,55.8906 118.9219,55.7031 Q118.5938,55.3281 117.9844,55.1094 Q117.375,54.8906 116.75,54.8906 Q115.9844,54.8906 115.3438,55.2188 Q114.7188,55.5469 114.2188,56.2969 Q113.7344,57.0469 113.7344,58.0781 L113.7344,59.1719 Q113.7344,60.4063 114.625,61.2344 Q115.5156,62.0469 117.1094,62.0469 Q118.0469,62.0469 118.7031,61.7969 Q119.0938,61.6406 119.5156,61.2031 Q119.7813,60.9375 119.9219,60.8594 Q120.0781,60.7813 120.2813,60.7813 Q120.6094,60.7813 120.8594,61.0469 Q121.125,61.2969 121.125,61.6406 Q121.125,61.9844 120.7813,62.3906 Q120.2813,62.9688 119.4844,63.2969 Q118.4063,63.75 117.1094,63.75 Q115.5938,63.75 114.3906,63.125 Q113.4063,62.625 112.7188,61.5625 Q112.0313,60.4844 112.0313,59.2031 L112.0313,58.0469 Q112.0313,56.7188 112.6406,55.5781 Q113.2656,54.4219 114.3594,53.8125 Q115.4531,53.1875 116.6875,53.1875 Q117.4219,53.1875 118.0625,53.3594 Q118.7188,53.5156 119.2656,53.875 Z " fill="#000000"/><text fill="#000000" font-family="sans-serif" font-size="14" lengthAdjust="spacing" textLength="107" x="130.5" y="63.7285">FuenteDeSonido</text><line style="stroke:#181818;stroke-width:0.5;" x1="102.5" x2="239.5" y1="74" y2="74"/><line style="stroke:#181818;stroke-width:0.5;" x1="102.5" x2="239.5" y1="82" y2="82"/></g><!--class OndaSonora--><g id="elem_OndaSonora"><rect codeLine="4" fill="#F1F1F1" height="48" id="OndaSonora" rx="2.5" ry="2.5" style="stroke:#181818;stroke-width:0.5;" width="113" x="114.5" y="230"/><ellipse cx="129.5" cy="246" fill="#ADD1B2" rx="11" ry="11" style="stroke:#181818;stroke-width:1.0;"/><path d="M132.2656,241.875 Q132.4219,241.6563 132.6094,241.5469 Q132.7969,241.4375 133.0156,241.4375 Q133.3906,241.4375 133.625,241.7031 Q133.8594,241.9531 133.8594,242.5625 L133.8594,244.0156 Q133.8594,244.625 133.625,244.8906 Q133.3906,245.1563 133.0156,245.1563 Q132.6719,245.1563 132.4688,244.9531 Q132.2656,244.7656 132.1563,244.25 Q132.1094,243.8906 131.9219,243.7031 Q131.5938,243.3281 130.9844,243.1094 Q130.375,242.8906 129.75,242.8906 Q128.9844,242.8906 128.3438,243.2188 Q127.7188,243.5469 127.2188,244.2969 Q126.7344,245.0469 126.7344,246.0781 L126.7344,247.1719 Q126.7344,248.4063 127.625,249.2344 Q128.5156,250.0469 130.1094,250.0469 Q131.0469,250.0469 131.7031,249.7969 Q132.0938,249.6406 132.5156,249.2031 Q132.7813,248.9375 132.9219,248.8594 Q133.0781,248.7813 133.2813,248.7813 Q133.6094,248.7813 133.8594,249.0469 Q134.125,249.2969 134.125,249.6406 Q134.125,249.9844 133.7813,250.3906 Q133.2813,250.9688 132.4844,251.2969 Q131.4063,251.75 130.1094,251.75 Q128.5938,251.75 127.3906,251.125 Q126.4063,250.625 125.7188,249.5625 Q125.0313,248.4844 125.0313,247.2031 L125.0313,246.0469 Q125.0313,244.7188 125.6406,243.5781 Q126.2656,242.4219 127.3594,241.8125 Q128.4531,241.1875 129.6875,241.1875 Q130.4219,241.1875 131.0625,241.3594 Q131.7188,241.5156 132.2656,241.875 Z " fill="#000000"/><text fill="#000000" font-family="sans-serif" font-size="14" lengthAdjust="spacing" textLength="81" x="143.5" y="251.7285">OndaSonora</text><line style="stroke:#181818;stroke-width:0.5;" x1="115.5" x2="226.5" y1="262" y2="262"/><line style="stroke:#181818;stroke-width:0.5;" x1="115.5" x2="226.5" y1="270" y2="270"/></g><!--class MedioDePropagaci?n--><g id="elem_MedioDePropagaci&#243;n"><rect codeLine="5" fill="#F1F1F1" height="48" id="MedioDePropagaci&#243;n" rx="2.5" ry="2.5" style="stroke:#181818;stroke-width:0.5;" width="168" x="23" y="418"/><ellipse cx="38" cy="434" fill="#ADD1B2" rx="11" ry="11" style="stroke:#181818;stroke-width:1.0;"/><path d="M40.7656,429.875 Q40.9219,429.6563 41.1094,429.5469 Q41.2969,429.4375 41.5156,429.4375 Q41.8906,429.4375 42.125,429.7031 Q42.3594,429.9531 42.3594,430.5625 L42.3594,432.0156 Q42.3594,432.625 42.125,432.8906 Q41.8906,433.1563 41.5156,433.1563 Q41.1719,433.1563 40.9688,432.9531 Q40.7656,432.7656 40.6563,432.25 Q40.6094,431.8906 40.4219,431.7031 Q40.0938,431.3281 39.4844,431.1094 Q38.875,430.8906 38.25,430.8906 Q37.4844,430.8906 36.8438,431.2188 Q36.2188,431.5469 35.7188,432.2969 Q35.2344,433.0469 35.2344,434.0781 L35.2344,435.1719 Q35.2344,436.4063 36.125,437.2344 Q37.0156,438.0469 38.6094,438.0469 Q39.5469,438.0469 40.2031,437.7969 Q40.5938,437.6406 41.0156,437.2031 Q41.2813,436.9375 41.4219,436.8594 Q41.5781,436.7813 41.7813,436.7813 Q42.1094,436.7813 42.3594,437.0469 Q42.625,437.2969 42.625,437.6406 Q42.625,437.9844 42.2813,438.3906 Q41.7813,438.9688 40.9844,439.2969 Q39.9063,439.75 38.6094,439.75 Q37.0938,439.75 35.8906,439.125 Q34.9063,438.625 34.2188,437.5625 Q33.5313,436.4844 33.5313,435.2031 L33.5313,434.0469 Q33.5313,432.7188 34.1406,431.5781 Q34.7656,430.4219 35.8594,429.8125 Q36.9531,429.1875 38.1875,429.1875 Q38.9219,429.1875 39.5625,429.3594 Q40.2188,429.5156 40.7656,429.875 Z " fill="#000000"/><text fill="#000000" font-family="sans-serif" font-size="14" lengthAdjust="spacing" textLength="136" x="52" y="439.7285">MedioDePropagaci&#243;n</text><line style="stroke:#181818;stroke-width:0.5;" x1="24" x2="190" y1="450" y2="450"/><line style="stroke:#181818;stroke-width:0.5;" x1="24" x2="190" y1="458" y2="458"/></g><!--class SuperficieReflectora--><g id="elem_SuperficieReflectora"><rect codeLine="6" fill="#F1F1F1" height="48" id="SuperficieReflectora" rx="2.5" ry="2.5" style="stroke:#181818;stroke-width:0.5;" width="160" x="22" y="606"/><ellipse cx="37" cy="622" fill="#ADD1B2" rx="11" ry="11" style="stroke:#181818;stroke-width:1.0;"/><path d="M39.7656,617.875 Q39.9219,617.6563 40.1094,617.5469 Q40.2969,617.4375 40.5156,617.4375 Q40.8906,617.4375 41.125,617.7031 Q41.3594,617.9531 41.3594,618.5625 L41.3594,620.0156 Q41.3594,620.625 41.125,620.8906 Q40.8906,621.1563 40.5156,621.1563 Q40.1719,621.1563 39.9688,620.9531 Q39.7656,620.7656 39.6563,620.25 Q39.6094,619.8906 39.4219,619.7031 Q39.0938,619.3281 38.4844,619.1094 Q37.875,618.8906 37.25,618.8906 Q36.4844,618.8906 35.8438,619.2188 Q35.2188,619.5469 34.7188,620.2969 Q34.2344,621.0469 34.2344,622.0781 L34.2344,623.1719 Q34.2344,624.4063 35.125,625.2344 Q36.0156,626.0469 37.6094,626.0469 Q38.5469,626.0469 39.2031,625.7969 Q39.5938,625.6406 40.0156,625.2031 Q40.2813,624.9375 40.4219,624.8594 Q40.5781,624.7813 40.7813,624.7813 Q41.1094,624.7813 41.3594,625.0469 Q41.625,625.2969 41.625,625.6406 Q41.625,625.9844 41.2813,626.3906 Q40.7813,626.9688 39.9844,627.2969 Q38.9063,627.75 37.6094,627.75 Q36.0938,627.75 34.8906,627.125 Q33.9063,626.625 33.2188,625.5625 Q32.5313,624.4844 32.5313,623.2031 L32.5313,622.0469 Q32.5313,620.7188 33.1406,619.5781 Q33.7656,618.4219 34.8594,617.8125 Q35.9531,617.1875 37.1875,617.1875 Q37.9219,617.1875 38.5625,617.3594 Q39.2188,617.5156 39.7656,617.875 Z " fill="#000000"/><text fill="#000000" font-family="sans-serif" font-size="14" lengthAdjust="spacing" textLength="128" x="51" y="627.7285">SuperficieReflectora</text><line style="stroke:#181818;stroke-width:0.5;" x1="23" x2="181" y1="638" y2="638"/><line style="stroke:#181818;stroke-width:0.5;" x1="23" x2="181" y1="646" y2="646"/></g><!--class Receptor--><g id="elem_Receptor"><rect codeLine="7" fill="#F1F1F1" height="48" id="Receptor" rx="2.5" ry="2.5" style="stroke:#181818;stroke-width:0.5;" width="90" x="148" y="982"/><ellipse cx="163" cy="998" fill="#ADD1B2" rx="11" ry="11" style="stroke:#181818;stroke-width:1.0;"/><path d="M165.7656,993.875 Q165.9219,993.6563 166.1094,993.5469 Q166.2969,993.4375 166.5156,993.4375 Q166.8906,993.4375 167.125,993.7031 Q167.3594,993.9531 167.3594,994.5625 L167.3594,996.0156 Q167.3594,996.625 167.125,996.8906 Q166.8906,997.1563 166.5156,997.1563 Q166.1719,997.1563 165.9688,996.9531 Q165.7656,996.7656 165.6563,996.25 Q165.6094,995.8906 165.4219,995.7031 Q165.0938,995.3281 164.4844,995.1094 Q163.875,994.8906 163.25,994.8906 Q162.4844,994.8906 161.8438,995.2188 Q161.2188,995.5469 160.7188,996.2969 Q160.2344,997.0469 160.2344,998.0781 L160.2344,999.1719 Q160.2344,1000.4063 161.125,1001.2344 Q162.0156,1002.0469 163.6094,1002.0469 Q164.5469,1002.0469 165.2031,1001.7969 Q165.5938,1001.6406 166.0156,1001.2031 Q166.2813,1000.9375 166.4219,1000.8594 Q166.5781,1000.7813 166.7813,1000.7813 Q167.1094,1000.7813 167.3594,1001.0469 Q167.625,1001.2969 167.625,1001.6406 Q167.625,1001.9844 167.2813,1002.3906 Q166.7813,1002.9688 165.9844,1003.2969 Q164.9063,1003.75 163.6094,1003.75 Q162.0938,1003.75 160.8906,1003.125 Q159.9063,1002.625 159.2188,1001.5625 Q158.5313,1000.4844 158.5313,999.2031 L158.5313,998.0469 Q158.5313,996.7188 159.1406,995.5781 Q159.7656,994.4219 160.8594,993.8125 Q161.9531,993.1875 163.1875,993.1875 Q163.9219,993.1875 164.5625,993.3594 Q165.2188,993.5156 165.7656,993.875 Z " fill="#000000"/><text fill="#000000" font-family="sans-serif" font-size="14" lengthAdjust="spacing" textLength="58" x="177" y="1003.7285">Receptor</text><line style="stroke:#181818;stroke-width:0.5;" x1="149" x2="237" y1="1014" y2="1014"/><line style="stroke:#181818;stroke-width:0.5;" x1="149" x2="237" y1="1022" y2="1022"/></g><!--class Eco--><g id="elem_Eco"><rect codeLine="8" fill="#F1F1F1" height="48" id="Eco" rx="2.5" ry="2.5" style="stroke:#181818;stroke-width:0.5;" width="56" x="90" y="794"/><ellipse cx="105" cy="810" fill="#ADD1B2" rx="11" ry="11" style="stroke:#181818;stroke-width:1.0;"/><path d="M107.7656,805.875 Q107.9219,805.6563 108.1094,805.5469 Q108.2969,805.4375 108.5156,805.4375 Q108.8906,805.4375 109.125,805.7031 Q109.3594,805.9531 109.3594,806.5625 L109.3594,808.0156 Q109.3594,808.625 109.125,808.8906 Q108.8906,809.1563 108.5156,809.1563 Q108.1719,809.1563 107.9688,808.9531 Q107.7656,808.7656 107.6563,808.25 Q107.6094,807.8906 107.4219,807.7031 Q107.0938,807.3281 106.4844,807.1094 Q105.875,806.8906 105.25,806.8906 Q104.4844,806.8906 103.8438,807.2188 Q103.2188,807.5469 102.7188,808.2969 Q102.2344,809.0469 102.2344,810.0781 L102.2344,811.1719 Q102.2344,812.4063 103.125,813.2344 Q104.0156,814.0469 105.6094,814.0469 Q106.5469,814.0469 107.2031,813.7969 Q107.5938,813.6406 108.0156,813.2031 Q108.2813,812.9375 108.4219,812.8594 Q108.5781,812.7813 108.7813,812.7813 Q109.1094,812.7813 109.3594,813.0469 Q109.625,813.2969 109.625,813.6406 Q109.625,813.9844 109.2813,814.3906 Q108.7813,814.9688 107.9844,815.2969 Q106.9063,815.75 105.6094,815.75 Q104.0938,815.75 102.8906,815.125 Q101.9063,814.625 101.2188,813.5625 Q100.5313,812.4844 100.5313,811.2031 L100.5313,810.0469 Q100.5313,808.7188 101.1406,807.5781 Q101.7656,806.4219 102.8594,805.8125 Q103.9531,805.1875 105.1875,805.1875 Q105.9219,805.1875 106.5625,805.3594 Q107.2188,805.5156 107.7656,805.875 Z " fill="#000000"/><text fill="#000000" font-family="sans-serif" font-size="14" lengthAdjust="spacing" textLength="24" x="119" y="815.7285">Eco</text><line style="stroke:#181818;stroke-width:0.5;" x1="91" x2="145" y1="826" y2="826"/><line style="stroke:#181818;stroke-width:0.5;" x1="91" x2="145" y1="834" y2="834"/></g><!--link FuenteDeSonido to OndaSonora--><g id="link_FuenteDeSonido_OndaSonora"><path codeLine="11" d="M171,90.18 C171,125.92 171,194.08 171,229.82 " fill="none" id="FuenteDeSonido-OndaSonora" style="stroke:#181818;stroke-width:1.0;"/><polygon fill="#000000" points="176,165.1758,178.9389,156.1307,173.0611,156.1307,176,165.1758" style="stroke:#000000;stroke-width:1.0;"/><text fill="#000000" font-family="sans-serif" font-size="13" lengthAdjust="spacing" textLength="39" x="185" y="165.4951">genera</text></g><!--link OndaSonora to MedioDePropagaci?n--><g id="link_OndaSonora_MedioDePropagaci&#243;n"><path codeLine="12" d="M160.44,278.25 C153.07,294.95 143.29,318.12 136,339 C126.72,365.59 118.17,396.83 112.8,417.67 " fill="none" id="OndaSonora-MedioDePropagaci&#243;n" style="stroke:#181818;stroke-width:1.0;"/><polygon fill="#000000" points="139.3833,352.9072,145.089,345.2983,139.5269,343.3977,139.3833,352.9072" style="stroke:#000000;stroke-width:1.0;"/><text fill="#000000" font-family="sans-serif" font-size="13" lengthAdjust="spacing" textLength="92" x="150" y="353.4951">viaja a trav&#233;s de</text></g><!--link MedioDePropagaci?n to SuperficieReflectora--><g id="link_MedioDePropagaci&#243;n_SuperficieReflectora"><path codeLine="13" d="M106.38,466.18 C105.42,501.92 103.58,570.08 102.62,605.82 " fill="none" id="MedioDePropagaci&#243;n-SuperficieReflectora" style="stroke:#181818;stroke-width:1.0;"/><polygon fill="#000000" points="108.8654,541.174,112.0467,532.2113,106.171,532.0531,108.8654,541.174" style="stroke:#000000;stroke-width:1.0;"/><text fill="#000000" font-family="sans-serif" font-size="13" lengthAdjust="spacing" textLength="64" x="118" y="541.4951">impacta en</text></g><!--link OndaSonora to Receptor--><g id="link_OndaSonora_Receptor"><path codeLine="14" d="M208.65,278.34 C229.81,294.61 252,318.48 252,347 C252,347 252,347 252,913 C252,939.56 234.35,964.59 218.36,981.81 " fill="none" id="OndaSonora-Receptor" style="stroke:#181818;stroke-width:1.0;"/><polygon fill="#000000" points="257.069,635.1753,259.8828,626.0905,254.0055,626.1716,257.069,635.1753" style="stroke:#000000;stroke-width:1.0;"/><text fill="#000000" font-family="sans-serif" font-size="13" lengthAdjust="spacing" textLength="38" x="266" y="635.4951">llega a</text></g><!--link Eco to Receptor--><g id="link_Eco_Receptor"><path codeLine="15" d="M127.35,842.18 C141.76,877.92 169.24,946.08 183.65,981.82 " fill="none" id="Eco-Receptor" style="stroke:#181818;stroke-width:1.0;"/><polygon fill="#000000" points="163.8697,916.8131,163.2131,907.3252,157.7617,909.5231,163.8697,916.8131" style="stroke:#000000;stroke-width:1.0;"/><text fill="#000000" font-family="sans-serif" font-size="13" lengthAdjust="spacing" textLength="38" x="171" y="917.4951">llega a</text></g><!--link SuperficieReflectora to Eco--><g id="link_SuperficieReflectora_Eco"><path codeLine="16" d="M103.99,654.18 C107.07,689.92 112.93,758.08 116.01,793.82 " fill="none" id="SuperficieReflectora-Eco" style="stroke:#181818;stroke-width:1.0;"/><polygon fill="#000000" points="115.4288,729.1574,117.5812,719.8936,111.725,720.3976,115.4288,729.1574" style="stroke:#000000;stroke-width:1.0;"/><text fill="#000000" font-family="sans-serif" font-size="13" lengthAdjust="spacing" textLength="84" x="124" y="729.4951">refleja y causa</text></g><!--SRC=[VP4nRiCm34LtduBmxWjqw9HsArea9o3e7qEjAmcI7Q0eUg3CEK8kLbA5eGGGEadyV9_KXoBB1q-W9mdqtH79p3bJ_xp2BzZX4BmRGq-SwLwgwAiVMRMGk62rhCWBHXTsU4iXyiJYhXTVs8PUJOSr8XsTEEnnd27Bjg7LgBOz156bWcv5RMlEqj6pwrI-JqN3CDmae0Vg9tZexR5N-APZOEFvvZWvVcTYMXAVhkTC8_xSBTp6jFBO7FSPMHOc-ERsBPkXyup9LXREll9VeBdG7EPKE9cg4Rv8UCt5zFCB]--></g></svg>