<?xml version="1.0" encoding="us-ascii" standalone="no"?><svg xmlns="http://www.w3.org/2000/svg" xmlns:xlink="http://www.w3.org/1999/xlink" contentStyleType="text/css" height="743px" preserveAspectRatio="none" style="width:315px;height:743px;background:#FFFFFF;" version="1.1" viewBox="0 0 315 743" width="315px" zoomAndPan="magnify"><defs/><g><!--cluster Eco--><g id="cluster_Eco"><path d="M8.5,6 L35.5,6 A3.75,3.75 0 0 1 38,8.5 L45,29.6094 L305.5,29.6094 A2.5,2.5 0 0 1 308,32.1094 L308,733.5 A2.5,2.5 0 0 1 305.5,736 L8.5,736 A2.5,2.5 0 0 1 6,733.5 L6,8.5 A2.5,2.5 0 0 1 8.5,6 " fill="none" style="stroke:#000000;stroke-width:1.5;"/><line style="stroke:#000000;stroke-width:1.5;" x1="6" x2="45" y1="29.6094" y2="29.6094"/><text fill="#000000" font-family="sans-serif" font-size="14" font-weight="bold" lengthAdjust="spacing" textLength="26" x="10" y="22.5332">Eco</text></g><!--class FuenteDeSonido--><g id="elem_FuenteDeSonido"><rect codeLine="2" fill="#F1F1F1" height="48" id="FuenteDeSonido" rx="2.5" ry="2.5" style="stroke:#181818;stroke-width:0.5;" width="139" x="99.5" y="42"/><ellipse cx="114.5" cy="58" fill="#ADD1B2" rx="11" ry="11" style="stroke:#181818;stroke-width:1.0;"/><path d="M117.2656,53.875 Q117.4219,53.6563 117.6094,53.5469 Q117.7969,53.4375 118.0156,53.4375 Q118.3906,53.4375 118.625,53.7031 Q118.8594,53.9531 118.8594,54.5625 L118.8594,56.0156 Q118.8594,56.625 118.625,56.8906 Q118.3906,57.1563 118.0156,57.1563 Q117.6719,57.1563 117.4688,56.9531 Q117.2656,56.7656 117.1563,56.25 Q117.1094,55.8906 116.9219,55.7031 Q116.5938,55.3281 115.9844,55.1094 Q115.375,54.8906 114.75,54.8906 Q113.9844,54.8906 113.3438,55.2188 Q112.7188,55.5469 112.2188,56.2969 Q111.7344,57.0469 111.7344,58.0781 L111.7344,59.1719 Q111.7344,60.4063 112.625,61.2344 Q113.5156,62.0469 115.1094,62.0469 Q116.0469,62.0469 116.7031,61.7969 Q117.0938,61.6406 117.5156,61.2031 Q117.7813,60.9375 117.9219,60.8594 Q118.0781,60.7813 118.2813,60.7813 Q118.6094,60.7813 118.8594,61.0469 Q119.125,61.2969 119.125,61.6406 Q119.125,61.9844 118.7813,62.3906 Q118.2813,62.9688 117.4844,63.2969 Q116.4063,63.75 115.1094,63.75 Q113.5938,63.75 112.3906,63.125 Q111.4063,62.625 110.7188,61.5625 Q110.0313,60.4844 110.0313,59.2031 L110.0313,58.0469 Q110.0313,56.7188 110.6406,55.5781 Q111.2656,54.4219 112.3594,53.8125 Q113.4531,53.1875 114.6875,53.1875 Q115.4219,53.1875 116.0625,53.3594 Q116.7188,53.5156 117.2656,53.875 Z " fill="#000000"/><text fill="#000000" font-family="sans-serif" font-size="14" lengthAdjust="spacing" textLength="107" x="128.5" y="63.7285">FuenteDeSonido</text><line style="stroke:#181818;stroke-width:0.5;" x1="100.5" x2="237.5" y1="74" y2="74"/><line style="stroke:#181818;stroke-width:0.5;" x1="100.5" x2="237.5" y1="82" y2="82"/></g><!--class OndaSonora--><g id="elem_OndaSonora"><rect codeLine="3" fill="#F1F1F1" height="48" id="OndaSonora" rx="2.5" ry="2.5" style="stroke:#181818;stroke-width:0.5;" width="113" x="112.5" y="168"/><ellipse cx="127.5" cy="184" fill="#ADD1B2" rx="11" ry="11" style="stroke:#181818;stroke-width:1.0;"/><path d="M130.2656,179.875 Q130.4219,179.6563 130.6094,179.5469 Q130.7969,179.4375 131.0156,179.4375 Q131.3906,179.4375 131.625,179.7031 Q131.8594,179.9531 131.8594,180.5625 L131.8594,182.0156 Q131.8594,182.625 131.625,182.8906 Q131.3906,183.1563 131.0156,183.1563 Q130.6719,183.1563 130.4688,182.9531 Q130.2656,182.7656 130.1563,182.25 Q130.1094,181.8906 129.9219,181.7031 Q129.5938,181.3281 128.9844,181.1094 Q128.375,180.8906 127.75,180.8906 Q126.9844,180.8906 126.3438,181.2188 Q125.7188,181.5469 125.2188,182.2969 Q124.7344,183.0469 124.7344,184.0781 L124.7344,185.1719 Q124.7344,186.4063 125.625,187.2344 Q126.5156,188.0469 128.1094,188.0469 Q129.0469,188.0469 129.7031,187.7969 Q130.0938,187.6406 130.5156,187.2031 Q130.7813,186.9375 130.9219,186.8594 Q131.0781,186.7813 131.2813,186.7813 Q131.6094,186.7813 131.8594,187.0469 Q132.125,187.2969 132.125,187.6406 Q132.125,187.9844 131.7813,188.3906 Q131.2813,188.9688 130.4844,189.2969 Q129.4063,189.75 128.1094,189.75 Q126.5938,189.75 125.3906,189.125 Q124.4063,188.625 123.7188,187.5625 Q123.0313,186.4844 123.0313,185.2031 L123.0313,184.0469 Q123.0313,182.7188 123.6406,181.5781 Q124.2656,180.4219 125.3594,179.8125 Q126.4531,179.1875 127.6875,179.1875 Q128.4219,179.1875 129.0625,179.3594 Q129.7188,179.5156 130.2656,179.875 Z " fill="#000000"/><text fill="#000000" font-family="sans-serif" font-size="14" lengthAdjust="spacing" textLength="81" x="141.5" y="189.7285">OndaSonora</text><line style="stroke:#181818;stroke-width:0.5;" x1="113.5" x2="224.5" y1="200" y2="200"/><line style="stroke:#181818;stroke-width:0.5;" x1="113.5" x2="224.5" y1="208" y2="208"/></g><!--class MedioDePropagaci?n--><g id="elem_MedioDePropagaci&#243;n"><rect codeLine="4" fill="#F1F1F1" height="48" id="MedioDePropagaci&#243;n" rx="2.5" ry="2.5" style="stroke:#181818;stroke-width:0.5;" width="168" x="25" y="294"/><ellipse cx="40" cy="310" fill="#ADD1B2" rx="11" ry="11" style="stroke:#181818;stroke-width:1.0;"/><path d="M42.7656,305.875 Q42.9219,305.6563 43.1094,305.5469 Q43.2969,305.4375 43.5156,305.4375 Q43.8906,305.4375 44.125,305.7031 Q44.3594,305.9531 44.3594,306.5625 L44.3594,308.0156 Q44.3594,308.625 44.125,308.8906 Q43.8906,309.1563 43.5156,309.1563 Q43.1719,309.1563 42.9688,308.9531 Q42.7656,308.7656 42.6563,308.25 Q42.6094,307.8906 42.4219,307.7031 Q42.0938,307.3281 41.4844,307.1094 Q40.875,306.8906 40.25,306.8906 Q39.4844,306.8906 38.8438,307.2188 Q38.2188,307.5469 37.7188,308.2969 Q37.2344,309.0469 37.2344,310.0781 L37.2344,311.1719 Q37.2344,312.4063 38.125,313.2344 Q39.0156,314.0469 40.6094,314.0469 Q41.5469,314.0469 42.2031,313.7969 Q42.5938,313.6406 43.0156,313.2031 Q43.2813,312.9375 43.4219,312.8594 Q43.5781,312.7813 43.7813,312.7813 Q44.1094,312.7813 44.3594,313.0469 Q44.625,313.2969 44.625,313.6406 Q44.625,313.9844 44.2813,314.3906 Q43.7813,314.9688 42.9844,315.2969 Q41.9063,315.75 40.6094,315.75 Q39.0938,315.75 37.8906,315.125 Q36.9063,314.625 36.2188,313.5625 Q35.5313,312.4844 35.5313,311.2031 L35.5313,310.0469 Q35.5313,308.7188 36.1406,307.5781 Q36.7656,306.4219 37.8594,305.8125 Q38.9531,305.1875 40.1875,305.1875 Q40.9219,305.1875 41.5625,305.3594 Q42.2188,305.5156 42.7656,305.875 Z " fill="#000000"/><text fill="#000000" font-family="sans-serif" font-size="14" lengthAdjust="spacing" textLength="136" x="54" y="315.7285">MedioDePropagaci&#243;n</text><line style="stroke:#181818;stroke-width:0.5;" x1="26" x2="192" y1="326" y2="326"/><line style="stroke:#181818;stroke-width:0.5;" x1="26" x2="192" y1="334" y2="334"/></g><!--class SuperficieReflectora--><g id="elem_SuperficieReflectora"><rect codeLine="5" fill="#F1F1F1" height="48" id="SuperficieReflectora" rx="2.5" ry="2.5" style="stroke:#181818;stroke-width:0.5;" width="160" x="22" y="420"/><ellipse cx="37" cy="436" fill="#ADD1B2" rx="11" ry="11" style="stroke:#181818;stroke-width:1.0;"/><path d="M39.7656,431.875 Q39.9219,431.6563 40.1094,431.5469 Q40.2969,431.4375 40.5156,431.4375 Q40.8906,431.4375 41.125,431.7031 Q41.3594,431.9531 41.3594,432.5625 L41.3594,434.0156 Q41.3594,434.625 41.125,434.8906 Q40.8906,435.1563 40.5156,435.1563 Q40.1719,435.1563 39.9688,434.9531 Q39.7656,434.7656 39.6563,434.25 Q39.6094,433.8906 39.4219,433.7031 Q39.0938,433.3281 38.4844,433.1094 Q37.875,432.8906 37.25,432.8906 Q36.4844,432.8906 35.8438,433.2188 Q35.2188,433.5469 34.7188,434.2969 Q34.2344,435.0469 34.2344,436.0781 L34.2344,437.1719 Q34.2344,438.4063 35.125,439.2344 Q36.0156,440.0469 37.6094,440.0469 Q38.5469,440.0469 39.2031,439.7969 Q39.5938,439.6406 40.0156,439.2031 Q40.2813,438.9375 40.4219,438.8594 Q40.5781,438.7813 40.7813,438.7813 Q41.1094,438.7813 41.3594,439.0469 Q41.625,439.2969 41.625,439.6406 Q41.625,439.9844 41.2813,440.3906 Q40.7813,440.9688 39.9844,441.2969 Q38.9063,441.75 37.6094,441.75 Q36.0938,441.75 34.8906,441.125 Q33.9063,440.625 33.2188,439.5625 Q32.5313,438.4844 32.5313,437.2031 L32.5313,436.0469 Q32.5313,434.7188 33.1406,433.5781 Q33.7656,432.4219 34.8594,431.8125 Q35.9531,431.1875 37.1875,431.1875 Q37.9219,431.1875 38.5625,431.3594 Q39.2188,431.5156 39.7656,431.875 Z " fill="#000000"/><text fill="#000000" font-family="sans-serif" font-size="14" lengthAdjust="spacing" textLength="128" x="51" y="441.7285">SuperficieReflectora</text><line style="stroke:#181818;stroke-width:0.5;" x1="23" x2="181" y1="452" y2="452"/><line style="stroke:#181818;stroke-width:0.5;" x1="23" x2="181" y1="460" y2="460"/></g><!--class Receptor--><g id="elem_Receptor"><rect codeLine="6" fill="#F1F1F1" height="48" id="Receptor" rx="2.5" ry="2.5" style="stroke:#181818;stroke-width:0.5;" width="90" x="179" y="672"/><ellipse cx="194" cy="688" fill="#ADD1B2" rx="11" ry="11" style="stroke:#181818;stroke-width:1.0;"/><path d="M196.7656,683.875 Q196.9219,683.6563 197.1094,683.5469 Q197.2969,683.4375 197.5156,683.4375 Q197.8906,683.4375 198.125,683.7031 Q198.3594,683.9531 198.3594,684.5625 L198.3594,686.0156 Q198.3594,686.625 198.125,686.8906 Q197.8906,687.1563 197.5156,687.1563 Q197.1719,687.1563 196.9688,686.9531 Q196.7656,686.7656 196.6563,686.25 Q196.6094,685.8906 196.4219,685.7031 Q196.0938,685.3281 195.4844,685.1094 Q194.875,684.8906 194.25,684.8906 Q193.4844,684.8906 192.8438,685.2188 Q192.2188,685.5469 191.7188,686.2969 Q191.2344,687.0469 191.2344,688.0781 L191.2344,689.1719 Q191.2344,690.4063 192.125,691.2344 Q193.0156,692.0469 194.6094,692.0469 Q195.5469,692.0469 196.2031,691.7969 Q196.5938,691.6406 197.0156,691.2031 Q197.2813,690.9375 197.4219,690.8594 Q197.5781,690.7813 197.7813,690.7813 Q198.1094,690.7813 198.3594,691.0469 Q198.625,691.2969 198.625,691.6406 Q198.625,691.9844 198.2813,692.3906 Q197.7813,692.9688 196.9844,693.2969 Q195.9063,693.75 194.6094,693.75 Q193.0938,693.75 191.8906,693.125 Q190.9063,692.625 190.2188,691.5625 Q189.5313,690.4844 189.5313,689.2031 L189.5313,688.0469 Q189.5313,686.7188 190.1406,685.5781 Q190.7656,684.4219 191.8594,683.8125 Q192.9531,683.1875 194.1875,683.1875 Q194.9219,683.1875 195.5625,683.3594 Q196.2188,683.5156 196.7656,683.875 Z " fill="#000000"/><text fill="#000000" font-family="sans-serif" font-size="14" lengthAdjust="spacing" textLength="58" x="208" y="693.7285">Receptor</text><line style="stroke:#181818;stroke-width:0.5;" x1="180" x2="268" y1="704" y2="704"/><line style="stroke:#181818;stroke-width:0.5;" x1="180" x2="268" y1="712" y2="712"/></g><!--class Eco--><g id="elem_Eco"><rect codeLine="7" fill="#F1F1F1" height="48" id="Eco" rx="2.5" ry="2.5" style="stroke:#181818;stroke-width:0.5;" width="56" x="99" y="546"/><ellipse cx="114" cy="562" fill="#ADD1B2" rx="11" ry="11" style="stroke:#181818;stroke-width:1.0;"/><path d="M116.7656,557.875 Q116.9219,557.6563 117.1094,557.5469 Q117.2969,557.4375 117.5156,557.4375 Q117.8906,557.4375 118.125,557.7031 Q118.3594,557.9531 118.3594,558.5625 L118.3594,560.0156 Q118.3594,560.625 118.125,560.8906 Q117.8906,561.1563 117.5156,561.1563 Q117.1719,561.1563 116.9688,560.9531 Q116.7656,560.7656 116.6563,560.25 Q116.6094,559.8906 116.4219,559.7031 Q116.0938,559.3281 115.4844,559.1094 Q114.875,558.8906 114.25,558.8906 Q113.4844,558.8906 112.8438,559.2188 Q112.2188,559.5469 111.7188,560.2969 Q111.2344,561.0469 111.2344,562.0781 L111.2344,563.1719 Q111.2344,564.4063 112.125,565.2344 Q113.0156,566.0469 114.6094,566.0469 Q115.5469,566.0469 116.2031,565.7969 Q116.5938,565.6406 117.0156,565.2031 Q117.2813,564.9375 117.4219,564.8594 Q117.5781,564.7813 117.7813,564.7813 Q118.1094,564.7813 118.3594,565.0469 Q118.625,565.2969 118.625,565.6406 Q118.625,565.9844 118.2813,566.3906 Q117.7813,566.9688 116.9844,567.2969 Q115.9063,567.75 114.6094,567.75 Q113.0938,567.75 111.8906,567.125 Q110.9063,566.625 110.2188,565.5625 Q109.5313,564.4844 109.5313,563.2031 L109.5313,562.0469 Q109.5313,560.7188 110.1406,559.5781 Q110.7656,558.4219 111.8594,557.8125 Q112.9531,557.1875 114.1875,557.1875 Q114.9219,557.1875 115.5625,557.3594 Q116.2188,557.5156 116.7656,557.875 Z " fill="#000000"/><text fill="#000000" font-family="sans-serif" font-size="14" lengthAdjust="spacing" textLength="24" x="128" y="567.7285">Eco</text><line style="stroke:#181818;stroke-width:0.5;" x1="100" x2="154" y1="578" y2="578"/><line style="stroke:#181818;stroke-width:0.5;" x1="100" x2="154" y1="586" y2="586"/></g><!--link FuenteDeSonido to OndaSonora--><g id="link_FuenteDeSonido_OndaSonora"><path codeLine="9" d="M169,90.03 C169,112.17 169,145.44 169,167.67 " fill="none" id="FuenteDeSonido-OndaSonora" style="stroke:#181818;stroke-width:1.0;"/><text fill="#000000" font-family="sans-serif" font-size="13" lengthAdjust="spacing" textLength="39" x="170" y="134.4951">genera</text></g><!--link OndaSonora to MedioDePropagaci?n--><g id="link_OndaSonora_MedioDePropagaci&#243;n"><path codeLine="10" d="M133.83,216.19 C124.33,224.38 115.24,234.47 110,246 C103.22,260.93 103.21,279.51 104.77,293.92 " fill="none" id="OndaSonora-MedioDePropagaci&#243;n" style="stroke:#181818;stroke-width:1.0;"/><text fill="#000000" font-family="sans-serif" font-size="13" lengthAdjust="spacing" textLength="131" x="111" y="260.4951">se propaga a trav&#233;s de</text></g><!--link MedioDePropagaci?n to SuperficieReflectora--><g id="link_MedioDePropagaci&#243;n_SuperficieReflectora"><path codeLine="11" d="M107.7,342.03 C106.45,364.17 104.57,397.44 103.32,419.67 " fill="none" id="MedioDePropagaci&#243;n-SuperficieReflectora" style="stroke:#181818;stroke-width:1.0;"/><text fill="#000000" font-family="sans-serif" font-size="13" lengthAdjust="spacing" textLength="64" x="106" y="386.4951">impacta en</text></g><!--link OndaSonora to Receptor--><g id="link_OndaSonora_Receptor"><path codeLine="12" d="M217.62,216.21 C229.13,224.04 240.06,233.94 247,246 C262.78,273.42 252,285.37 252,317 C252,317 252,317 252,571 C252,606.75 240.79,646.91 232.55,671.58 " fill="none" id="OndaSonora-Receptor" style="stroke:#181818;stroke-width:1.0;"/><text fill="#000000" font-family="sans-serif" font-size="13" lengthAdjust="spacing" textLength="38" x="253" y="449.4951">llega a</text></g><!--link SuperficieReflectora to Eco--><g id="link_SuperficieReflectora_Eco"><path codeLine="13" d="M98.91,468 C97.7,482.05 97.35,500.27 101,516 C103.39,526.28 108.06,536.87 112.8,545.85 " fill="none" id="SuperficieReflectora-Eco" style="stroke:#181818;stroke-width:1.0;"/><text fill="#000000" font-family="sans-serif" font-size="13" lengthAdjust="spacing" textLength="140" x="102" y="512.4951">refleja la onda causando</text></g><!--link Eco to Receptor--><g id="link_Eco_Receptor"><path codeLine="14" d="M145.02,594.03 C162.33,616.17 188.36,649.44 205.75,671.67 " fill="none" id="Eco-Receptor" style="stroke:#181818;stroke-width:1.0;"/><text fill="#000000" font-family="sans-serif" font-size="13" lengthAdjust="spacing" textLength="42" x="182" y="638.4951">percibe</text></g><!--SRC=[RP11JiCm44NtFSLNzhq0wy8EWTeJ39FVo61ioqwwGHo8TO_GYtL64MeAMVhF_s- -fuX-o40yQiRN1j0ehQ5xcfX6xdZ8AVIvkmrUKYycvYeByPbzo3k-rbna40sNSrfC3rDXFGODtFCOgUDzU4zbCMqXMPbkOy_x5jXkSLkF1tG34sVMGZVNIX-tDwBC4WHZbTFbfw6dvzSI1bghxgJmMKH70TF_vR__SL-Cz6LkMaMPtGzlpkhYko0Aik6WCZL9y-dTyWTiB0rlLltx2W00]--></g></svg>