<svg xmlns="http://www.w3.org/2000/svg" xmlns:xlink="http://www.w3.org/1999/xlink" contentStyleType="text/css" height="599px" preserveAspectRatio="none" style="width:311px;height:599px;background:#FFFFFF;" version="1.1" viewBox="0 0 311 599" width="311px" zoomAndPan="magnify"><title>Modelo de Dominio del Eco (sonido)</title><defs/><g><text fill="#000000" font-family="sans-serif" font-size="14" font-weight="bold" lengthAdjust="spacing" textLength="283.3291" x="10" y="22.9951">Modelo de Dominio del Eco (sonido)</text><!--class FuenteSonido--><g id="elem_FuenteSonido"><rect codeLine="3" fill="#F1F1F1" height="48" id="FuenteSonido" rx="2.5" ry="2.5" style="stroke:#181818;stroke-width:0.5;" width="128.1816" x="112.4291" y="44.2969"/><ellipse cx="127.4291" cy="60.2969" fill="#ADD1B2" rx="11" ry="11" style="stroke:#181818;stroke-width:1.0;"/><path d="M130.3979,65.9375 Q129.8197,66.2344 129.1791,66.375 Q128.5385,66.5313 127.8354,66.5313 Q125.3354,66.5313 124.0072,64.8906 Q122.6947,63.2344 122.6947,60.1094 Q122.6947,56.9844 124.0072,55.3281 Q125.3354,53.6719 127.8354,53.6719 Q128.5385,53.6719 129.1791,53.8281 Q129.8354,53.9844 130.3979,54.2813 L130.3979,57 Q129.7729,56.4219 129.1791,56.1563 Q128.5854,55.875 127.9604,55.875 Q126.6166,55.875 125.9291,56.9531 Q125.2416,58.0156 125.2416,60.1094 Q125.2416,62.2031 125.9291,63.2813 Q126.6166,64.3438 127.9604,64.3438 Q128.5854,64.3438 129.1791,64.0781 Q129.7729,63.7969 130.3979,63.2188 L130.3979,65.9375 Z " fill="#000000"/><text fill="#000000" font-family="sans-serif" font-size="14" lengthAdjust="spacing" textLength="96.1816" x="141.4291" y="65.1436">FuenteSonido</text><line style="stroke:#181818;stroke-width:0.5;" x1="113.4291" x2="239.6108" y1="76.2969" y2="76.2969"/><line style="stroke:#181818;stroke-width:0.5;" x1="113.4291" x2="239.6108" y1="84.2969" y2="84.2969"/></g><!--class Sonido--><g id="elem_Sonido"><rect codeLine="5" fill="#F1F1F1" height="48" id="Sonido" rx="2.5" ry="2.5" style="stroke:#181818;stroke-width:0.5;" width="79.667" x="136.6791" y="169.2969"/><ellipse cx="151.6791" cy="185.2969" fill="#ADD1B2" rx="11" ry="11" style="stroke:#181818;stroke-width:1.0;"/><path d="M154.6479,190.9375 Q154.0697,191.2344 153.4291,191.375 Q152.7885,191.5313 152.0854,191.5313 Q149.5854,191.5313 148.2572,189.8906 Q146.9447,188.2344 146.9447,185.1094 Q146.9447,181.9844 148.2572,180.3281 Q149.5854,178.6719 152.0854,178.6719 Q152.7885,178.6719 153.4291,178.8281 Q154.0854,178.9844 154.6479,179.2813 L154.6479,182 Q154.0229,181.4219 153.4291,181.1563 Q152.8354,180.875 152.2104,180.875 Q150.8666,180.875 150.1791,181.9531 Q149.4916,183.0156 149.4916,185.1094 Q149.4916,187.2031 150.1791,188.2813 Q150.8666,189.3438 152.2104,189.3438 Q152.8354,189.3438 153.4291,189.0781 Q154.0229,188.7969 154.6479,188.2188 L154.6479,190.9375 Z " fill="#000000"/><text fill="#000000" font-family="sans-serif" font-size="14" lengthAdjust="spacing" textLength="47.667" x="165.6791" y="190.1436">Sonido</text><line style="stroke:#181818;stroke-width:0.5;" x1="137.6791" x2="215.3461" y1="201.2969" y2="201.2969"/><line style="stroke:#181818;stroke-width:0.5;" x1="137.6791" x2="215.3461" y1="209.2969" y2="209.2969"/></g><!--class Superficie--><g id="elem_Superficie"><rect codeLine="7" fill="#F1F1F1" height="48" id="Superficie" rx="2.5" ry="2.5" style="stroke:#181818;stroke-width:0.5;" width="102.0342" x="21.4991" y="294.2969"/><ellipse cx="36.4991" cy="310.2969" fill="#ADD1B2" rx="11" ry="11" style="stroke:#181818;stroke-width:1.0;"/><path d="M39.4679,315.9375 Q38.8897,316.2344 38.2491,316.375 Q37.6085,316.5313 36.9054,316.5313 Q34.4054,316.5313 33.0772,314.8906 Q31.7647,313.2344 31.7647,310.1094 Q31.7647,306.9844 33.0772,305.3281 Q34.4054,303.6719 36.9054,303.6719 Q37.6085,303.6719 38.2491,303.8281 Q38.9054,303.9844 39.4679,304.2813 L39.4679,307 Q38.8429,306.4219 38.2491,306.1563 Q37.6554,305.875 37.0304,305.875 Q35.6866,305.875 34.9991,306.9531 Q34.3116,308.0156 34.3116,310.1094 Q34.3116,312.2031 34.9991,313.2813 Q35.6866,314.3438 37.0304,314.3438 Q37.6554,314.3438 38.2491,314.0781 Q38.8429,313.7969 39.4679,313.2188 L39.4679,315.9375 Z " fill="#000000"/><text fill="#000000" font-family="sans-serif" font-size="14" lengthAdjust="spacing" textLength="70.0342" x="50.4991" y="315.1436">Superficie</text><line style="stroke:#181818;stroke-width:0.5;" x1="22.4991" x2="122.5333" y1="326.2969" y2="326.2969"/><line style="stroke:#181818;stroke-width:0.5;" x1="22.4991" x2="122.5333" y1="334.2969" y2="334.2969"/></g><!--class MedioDeTransmision--><g id="elem_MedioDeTransmision"><rect codeLine="8" fill="#F1F1F1" height="48" id="MedioDeTransmision" rx="2.5" ry="2.5" style="stroke:#181818;stroke-width:0.5;" width="178.6309" x="117.1991" y="544.2969"/><ellipse cx="132.1991" cy="560.2969" fill="#ADD1B2" rx="11" ry="11" style="stroke:#181818;stroke-width:1.0;"/><path d="M135.1679,565.9375 Q134.5897,566.2344 133.9491,566.375 Q133.3085,566.5313 132.6054,566.5313 Q130.1054,566.5313 128.7772,564.8906 Q127.4647,563.2344 127.4647,560.1094 Q127.4647,556.9844 128.7772,555.3281 Q130.1054,553.6719 132.6054,553.6719 Q133.3085,553.6719 133.9491,553.8281 Q134.6054,553.9844 135.1679,554.2813 L135.1679,557 Q134.5429,556.4219 133.9491,556.1563 Q133.3554,555.875 132.7304,555.875 Q131.3866,555.875 130.6991,556.9531 Q130.0116,558.0156 130.0116,560.1094 Q130.0116,562.2031 130.6991,563.2813 Q131.3866,564.3438 132.7304,564.3438 Q133.3554,564.3438 133.9491,564.0781 Q134.5429,563.7969 135.1679,563.2188 L135.1679,565.9375 Z " fill="#000000"/><text fill="#000000" font-family="sans-serif" font-size="14" lengthAdjust="spacing" textLength="146.6309" x="146.1991" y="565.1436">MedioDeTransmision</text><line style="stroke:#181818;stroke-width:0.5;" x1="118.1991" x2="294.83" y1="576.2969" y2="576.2969"/><line style="stroke:#181818;stroke-width:0.5;" x1="118.1991" x2="294.83" y1="584.2969" y2="584.2969"/></g><!--class Eco--><g id="elem_Eco"><rect codeLine="10" fill="#F1F1F1" height="48" id="Eco" rx="2.5" ry="2.5" style="stroke:#181818;stroke-width:0.5;" width="57.1084" x="136.9591" y="419.2969"/><ellipse cx="151.9591" cy="435.2969" fill="#ADD1B2" rx="11" ry="11" style="stroke:#181818;stroke-width:1.0;"/><path d="M154.9279,440.9375 Q154.3497,441.2344 153.7091,441.375 Q153.0685,441.5313 152.3654,441.5313 Q149.8654,441.5313 148.5372,439.8906 Q147.2247,438.2344 147.2247,435.1094 Q147.2247,431.9844 148.5372,430.3281 Q149.8654,428.6719 152.3654,428.6719 Q153.0685,428.6719 153.7091,428.8281 Q154.3654,428.9844 154.9279,429.2813 L154.9279,432 Q154.3029,431.4219 153.7091,431.1563 Q153.1154,430.875 152.4904,430.875 Q151.1466,430.875 150.4591,431.9531 Q149.7716,433.0156 149.7716,435.1094 Q149.7716,437.2031 150.4591,438.2813 Q151.1466,439.3438 152.4904,439.3438 Q153.1154,439.3438 153.7091,439.0781 Q154.3029,438.7969 154.9279,438.2188 L154.9279,440.9375 Z " fill="#000000"/><text fill="#000000" font-family="sans-serif" font-size="14" lengthAdjust="spacing" textLength="25.1084" x="165.9591" y="440.1436">Eco</text><line style="stroke:#181818;stroke-width:0.5;" x1="137.9591" x2="193.0675" y1="451.2969" y2="451.2969"/><line style="stroke:#181818;stroke-width:0.5;" x1="137.9591" x2="193.0675" y1="459.2969" y2="459.2969"/></g><!--reverse link Sonido to Eco--><g id="link_Sonido_Eco"><path d="M174.684,235.6093 C172.594,282.8793 168.6591,371.4769 166.5591,418.8469 " fill="none" id="Sonido-backto-Eco" style="stroke:#181818;stroke-width:1.0;"/><polygon fill="none" points="175.4791,217.6269,168.6899,235.3443,180.6782,235.8743,175.4791,217.6269" style="stroke:#181818;stroke-width:1.0;"/></g><!--link FuenteSonido to Sonido--><g id="link_FuenteSonido_Sonido"><path codeLine="12" d="M176.5191,92.7169 C176.5191,114.6069 176.5191,141.0969 176.5191,162.9569 " fill="none" id="FuenteSonido-to-Sonido" style="stroke:#181818;stroke-width:1.0;"/><polygon fill="#181818" points="176.5191,168.9569,180.5191,159.9569,176.5191,163.9569,172.5191,159.9569,176.5191,168.9569" style="stroke:#181818;stroke-width:1.0;"/><text fill="#000000" font-family="sans-serif" font-size="13" lengthAdjust="spacing" textLength="52.7744" x="177.5191" y="135.3638">Produce</text></g><!--link Sonido to Superficie--><g id="link_Sonido_Superficie"><path codeLine="13" d="M136.3391,207.3569 C117.0091,215.7169 95.3091,228.5869 82.5191,247.2969 C73.2291,260.8769 70.9661,273.417 70.8761,288.007 " fill="none" id="Sonido-to-Superficie" style="stroke:#181818;stroke-width:1.0;"/><polygon fill="#181818" points="70.8391,294.0069,74.8946,285.0317,70.87,289.007,66.8947,284.9824,70.8391,294.0069" style="stroke:#181818;stroke-width:1.0;"/><text fill="#000000" font-family="sans-serif" font-size="13" lengthAdjust="spacing" textLength="66.6694" x="83.5191" y="260.3638">Rebota en</text></g><!--link Sonido to MedioDeTransmision--><g id="link_Sonido_MedioDeTransmision"><path codeLine="14" d="M188.5291,217.7569 C192.6591,226.7769 196.8991,237.3069 199.5191,247.2969 C227.8591,355.3469 219.7291,385.7369 225.5191,497.2969 C225.9091,504.8469 226.8091,506.8569 225.5191,514.2969 C223.7791,524.3169 222.4597,529.3355 218.9697,538.4255 " fill="none" id="Sonido-to-MedioDeTransmision" style="stroke:#181818;stroke-width:1.0;"/><polygon fill="#181818" points="216.8191,544.0269,223.7792,537.0586,218.6113,539.3591,216.3107,534.1911,216.8191,544.0269" style="stroke:#181818;stroke-width:1.0;"/><text fill="#000000" font-family="sans-serif" font-size="13" lengthAdjust="spacing" textLength="57.7319" x="222.5191" y="385.3638">Viaja por</text></g><!--link Superficie to Eco--><g id="link_Superficie_Eco"><path codeLine="15" d="M80.3291,342.7169 C85.7791,357.0069 93.9491,375.1669 104.5191,389.2969 C113.5091,401.3169 120.9819,408.764 132.0619,417.764 " fill="none" id="Superficie-to-Eco" style="stroke:#181818;stroke-width:1.0;"/><polygon fill="#181818" points="136.7191,421.5469,132.2553,412.7677,132.8381,418.3944,127.2114,418.9773,136.7191,421.5469" style="stroke:#181818;stroke-width:1.0;"/><text fill="#000000" font-family="sans-serif" font-size="13" lengthAdjust="spacing" textLength="44.7954" x="105.5191" y="385.3638">Refleja</text></g><!--link Eco to MedioDeTransmision--><g id="link_Eco_MedioDeTransmision"><path codeLine="16" d="M160.1491,467.6669 C158.0091,481.6069 157.1491,499.4269 162.5191,514.2969 C166.4591,525.2069 169.7643,530.9535 177.2743,539.4835 " fill="none" id="Eco-to-MedioDeTransmision" style="stroke:#181818;stroke-width:1.0;"/><polygon fill="#181818" points="181.2391,543.9869,178.2941,534.5886,177.9351,540.2341,172.2896,539.8751,181.2391,543.9869" style="stroke:#181818;stroke-width:1.0;"/><text fill="#000000" font-family="sans-serif" font-size="13" lengthAdjust="spacing" textLength="57.7319" x="163.5191" y="510.3638">Viaja por</text></g><!--SRC=[ZOwn3i8m44FtVCMf4mpz0GQcmbO90M8FYIjTbUQg9fNuV9AgXG8BsvtzP3joTA1QB9oG1LNIiUTyEZeOeKqGprQsIXcdGw3Z21zncSH5-_h67aF3Xa6pKiEoLBWEseUE0ujVsDo0HuItImefjQwWijpFpewAqo1sD2ZKsdpL9U2CkqHDy1_8Rtz2RwnRJRqC2NqlpdWQDKKr3gqkLDxuHyeJ]--></g></svg>