<svg xmlns="http://www.w3.org/2000/svg" xmlns:xlink="http://www.w3.org/1999/xlink" contentStyleType="text/css" height="958px" preserveAspectRatio="none" style="width:655px;height:958px;background:#FFFFFF;" version="1.1" viewBox="0 0 655 958" width="655px" zoomAndPan="magnify"><title>Diagrama de Estados del Eco (sonido)</title><defs/><g><text fill="#000000" font-family="sans-serif" font-size="14" font-weight="bold" lengthAdjust="spacing" textLength="299.1201" x="170.9674" y="22.9951">Diagrama de Estados del Eco (sonido)</text><ellipse cx="342.2" cy="53.2969" fill="#222222" rx="10" ry="10" style="stroke:#222222;stroke-width:1.0;"/><g id="EstadoSilencio"><rect fill="#F1F1F1" height="50" rx="12.5" ry="12.5" style="stroke:#181818;stroke-width:0.5;" width="121.9648" x="281.22" y="140.2969"/><line style="stroke:#181818;stroke-width:0.5;" x1="281.22" x2="403.1848" y1="166.5938" y2="166.5938"/><text fill="#000000" font-family="sans-serif" font-size="14" lengthAdjust="spacing" textLength="101.9648" x="291.22" y="158.292">EstadoSilencio</text></g><g id="SonidoGenerado"><rect fill="#F1F1F1" height="50" rx="12.5" ry="12.5" style="stroke:#181818;stroke-width:0.5;" width="136.4023" x="7" y="267.2969"/><line style="stroke:#181818;stroke-width:0.5;" x1="7" x2="143.4023" y1="293.5938" y2="293.5938"/><text fill="#000000" font-family="sans-serif" font-size="14" lengthAdjust="spacing" textLength="116.4023" x="17" y="285.292">SonidoGenerado</text></g><g id="ViajeMedioTransmision"><rect fill="#F1F1F1" height="50" rx="12.5" ry="12.5" style="stroke:#181818;stroke-width:0.5;" width="181.7861" x="112.31" y="394.2969"/><line style="stroke:#181818;stroke-width:0.5;" x1="112.31" x2="294.0961" y1="420.5938" y2="420.5938"/><text fill="#000000" font-family="sans-serif" font-size="14" lengthAdjust="spacing" textLength="161.7861" x="122.31" y="412.292">ViajeMedioTransmision</text></g><g id="ReboteSuperficie"><rect fill="#F1F1F1" height="50" rx="12.5" ry="12.5" style="stroke:#181818;stroke-width:0.5;" width="139.9297" x="145.24" y="521.2969"/><line style="stroke:#181818;stroke-width:0.5;" x1="145.24" x2="285.1697" y1="547.5938" y2="547.5938"/><text fill="#000000" font-family="sans-serif" font-size="14" lengthAdjust="spacing" textLength="119.9297" x="155.24" y="539.292">ReboteSuperficie</text></g><g id="EcoGenerado"><rect fill="#F1F1F1" height="50" rx="12.5" ry="12.5" style="stroke:#181818;stroke-width:0.5;" width="113.8438" x="289.28" y="648.2969"/><line style="stroke:#181818;stroke-width:0.5;" x1="289.28" x2="403.1238" y1="674.5938" y2="674.5938"/><text fill="#000000" font-family="sans-serif" font-size="14" lengthAdjust="spacing" textLength="93.8438" x="299.28" y="666.292">EcoGenerado</text></g><g id="ViajeEco"><rect fill="#F1F1F1" height="50" rx="12.5" ry="12.5" style="stroke:#181818;stroke-width:0.5;" width="79.6572" x="306.37" y="775.2969"/><line style="stroke:#181818;stroke-width:0.5;" x1="306.37" x2="386.0272" y1="801.5938" y2="801.5938"/><text fill="#000000" font-family="sans-serif" font-size="14" lengthAdjust="spacing" textLength="59.6572" x="316.37" y="793.292">ViajeEco</text></g><g id="EcoPerdida"><rect fill="#F1F1F1" height="50" rx="12.5" ry="12.5" style="stroke:#181818;stroke-width:0.5;" width="98.1621" x="410.12" y="902.2969"/><line style="stroke:#181818;stroke-width:0.5;" x1="410.12" x2="508.2821" y1="928.5938" y2="928.5938"/><text fill="#000000" font-family="sans-serif" font-size="14" lengthAdjust="spacing" textLength="78.1621" x="420.12" y="920.292">EcoPerdida</text></g><!--link *start* to EstadoSilencio--><g id="link_*start*_EstadoSilencio"><path d="M342.2,63.6769 C342.2,80.4069 342.2,109.8869 342.2,133.9269 " fill="none" id="*start*-to-EstadoSilencio" style="stroke:#181818;stroke-width:1.0;"/><polygon fill="#181818" points="342.2,139.9269,346.2,130.9269,342.2,134.9269,338.2,130.9269,342.2,139.9269" style="stroke:#181818;stroke-width:1.0;"/><text fill="#000000" font-family="sans-serif" font-size="13" lengthAdjust="spacing" textLength="34.4106" x="343.2" y="106.3638">Inicia</text></g><!--link EstadoSilencio to SonidoGenerado--><g id="link_EstadoSilencio_SonidoGenerado"><path d="M280.95,170.4169 C211.63,176.4569 104.98,190.4369 79.2,220.2969 C68.39,232.8169 67.0568,245.7331 68.9468,260.8731 " fill="none" id="EstadoSilencio-to-SonidoGenerado" style="stroke:#181818;stroke-width:1.0;"/><polygon fill="#181818" points="69.69,266.8269,72.5443,257.4007,69.0706,261.8654,64.6059,258.3917,69.69,266.8269" style="stroke:#181818;stroke-width:1.0;"/><text fill="#000000" font-family="sans-serif" font-size="13" lengthAdjust="spacing" textLength="155.9619" x="80.2" y="233.3638">Fuente de sonido activa</text></g><!--link SonidoGenerado to ViajeMedioTransmision--><g id="link_SonidoGenerado_ViajeMedioTransmision"><path d="M65.91,317.6069 C61.94,332.3069 60.06,350.7669 69.2,364.2969 C79.59,379.6769 89.7308,388.144 106.6308,396.014 " fill="none" id="SonidoGenerado-to-ViajeMedioTransmision" style="stroke:#181818;stroke-width:1.0;"/><polygon fill="#181818" points="112.07,398.5469,105.5999,391.1214,107.5374,396.4361,102.2227,398.3736,112.07,398.5469" style="stroke:#181818;stroke-width:1.0;"/><text fill="#000000" font-family="sans-serif" font-size="13" lengthAdjust="spacing" textLength="165.2803" x="70.2" y="360.3638">Sonido viaja por el medio</text></g><!--link ViajeMedioTransmision to ReboteSuperficie--><g id="link_ViajeMedioTransmision_ReboteSuperficie"><path d="M200.04,444.7169 C198.8,458.4569 198.1,475.8969 200.2,491.2969 C201.54,501.1269 202.5036,505.9417 205.2036,515.1017 " fill="none" id="ViajeMedioTransmision-to-ReboteSuperficie" style="stroke:#181818;stroke-width:1.0;"/><polygon fill="#181818" points="206.9,520.8569,208.1922,511.0932,205.4863,516.0609,200.5186,513.355,206.9,520.8569" style="stroke:#181818;stroke-width:1.0;"/><text fill="#000000" font-family="sans-serif" font-size="13" lengthAdjust="spacing" textLength="194.3779" x="201.2" y="487.3638">Sonido alcanza una superficie</text></g><!--link ReboteSuperficie to EcoGenerado--><g id="link_ReboteSuperficie_EcoGenerado"><path d="M221.01,571.6169 C225.57,586.4969 233.2,605.1469 245.2,618.2969 C257.2,631.4369 267.829,639.2244 283.509,647.3944 " fill="none" id="ReboteSuperficie-to-EcoGenerado" style="stroke:#181818;stroke-width:1.0;"/><polygon fill="#181818" points="288.83,650.1669,282.6968,642.4608,284.3958,647.8565,279.0001,649.5555,288.83,650.1669" style="stroke:#181818;stroke-width:1.0;"/><text fill="#000000" font-family="sans-serif" font-size="13" lengthAdjust="spacing" textLength="149.5825" x="246.2" y="614.3638">Superficie produce eco</text></g><!--link EcoGenerado to ViajeEco--><g id="link_EcoGenerado_ViajeEco"><path d="M346.2,698.6969 C346.2,720.7169 346.2,746.9569 346.2,768.9569 " fill="none" id="EcoGenerado-to-ViajeEco" style="stroke:#181818;stroke-width:1.0;"/><polygon fill="#181818" points="346.2,774.9569,350.2,765.9569,346.2,769.9569,342.2,765.9569,346.2,774.9569" style="stroke:#181818;stroke-width:1.0;"/><text fill="#000000" font-family="sans-serif" font-size="13" lengthAdjust="spacing" textLength="160.0752" x="347.2" y="741.3638">El eco viaja por el medio</text></g><!--link ViajeEco to EcoPerdida--><g id="link_ViajeEco_EcoPerdida"><path d="M338.61,825.4669 C335.52,840.1169 334.45,858.5669 343.2,872.2969 C357.89,895.3369 379.5142,906.9138 403.9742,914.5738 " fill="none" id="ViajeEco-to-EcoPerdida" style="stroke:#181818;stroke-width:1.0;"/><polygon fill="#181818" points="409.7,916.3669,402.3067,909.86,404.9285,914.8726,399.9159,917.4944,409.7,916.3669" style="stroke:#181818;stroke-width:1.0;"/><text fill="#000000" font-family="sans-serif" font-size="13" lengthAdjust="spacing" textLength="201.0557" x="344.2" y="868.3638">El eco va perdiendo intensidad</text></g><!--link EcoPerdida to EstadoSilencio--><g id="link_EcoPerdida_EstadoSilencio"><path d="M508.61,905.6069 C523.75,897.1969 539.28,886.1469 550.2,872.2969 C570.66,846.3569 572.2,834.3369 572.2,801.2969 C572.2,291.2969 572.2,291.2969 572.2,291.2969 C572.2,214.3769 477.5879,185.5161 409.4479,174.1261 " fill="none" id="EcoPerdida-to-EstadoSilencio" style="stroke:#181818;stroke-width:1.0;"/><polygon fill="#181818" points="403.53,173.1369,411.7474,178.566,408.4616,173.9612,413.0663,170.6754,403.53,173.1369" style="stroke:#181818;stroke-width:1.0;"/><text fill="#000000" font-family="sans-serif" font-size="13" lengthAdjust="spacing" textLength="73.855" x="573.2" y="550.8638">Eco finaliza</text></g><!--link ViajeMedioTransmision to EstadoSilencio--><g id="link_ViajeMedioTransmision_EstadoSilencio"><path d="M220.85,394.0169 C227.23,384.8769 234.3,374.2769 240.2,364.2969 C264.79,322.7269 267.09,310.2369 289.2,267.2969 C302.71,241.0669 315.6469,216.4618 326.4369,196.0418 " fill="none" id="ViajeMedioTransmision-to-EstadoSilencio" style="stroke:#181818;stroke-width:1.0;"/><polygon fill="#181818" points="329.24,190.7369,321.4987,196.8255,326.904,195.1577,328.5719,200.563,329.24,190.7369" style="stroke:#181818;stroke-width:1.0;"/><text fill="#000000" font-family="sans-serif" font-size="13" lengthAdjust="spacing" textLength="105.7646" x="290.2" y="296.8638">Sonido se disipa</text></g><!--link EcoGenerado to EstadoSilencio--><g id="link_EcoGenerado_EstadoSilencio"><path d="M375.69,647.8869 C384.58,639.2969 393.69,629.0769 400.2,618.2969 C417.27,590.0169 422.2,580.3369 422.2,547.2969 C422.2,291.2969 422.2,291.2969 422.2,291.2969 C422.2,251.3569 397.0989,218.2132 373.9589,194.9232 " fill="none" id="EcoGenerado-to-EstadoSilencio" style="stroke:#181818;stroke-width:1.0;"/><polygon fill="#181818" points="369.73,190.6669,373.2358,199.8706,373.2541,194.2138,378.9109,194.2321,369.73,190.6669" style="stroke:#181818;stroke-width:1.0;"/><text fill="#000000" font-family="sans-serif" font-size="13" lengthAdjust="spacing" textLength="95.5449" x="423.2" y="423.8638">Eco se detiene</text></g><!--SRC=[VP4zJWCn48Lxds9AGCe5Kb2n80ean28QH37O4pJ8ErxPtXGvFJF9AbZPXSxo-zwRlyer4jmnVcKS4091Log6LFGPeVC9haeI3kdQkVUR3zXiRcUYvqZYES4M7eKzexluDxG_UXz8AAkawFr4Kidgd681VUKzkWlGl6-Ct_H4WTDhHYa35qwY4ISKzYeZZ2c3DZeOvjOTblL2dwbIFusKTzeh_SPWz2W7X4aGobbt2yDnSD-EqeXZJc7o1EIJQw7p6BR8BNJHY3yxDsWkyqmvSC36emRx8z5OrXLAKJsuXbqzZMNkM33o0V_Ppy8tRwVegPGQSJ7MQYN3gMgJz0C0]--></g></svg>