<svg xmlns="http://www.w3.org/2000/svg" xmlns:xlink="http://www.w3.org/1999/xlink" contentStyleType="text/css" height="696px" preserveAspectRatio="none" style="width:311px;height:696px;background:#FFFFFF;" version="1.1" viewBox="0 0 311 696" width="311px" zoomAndPan="magnify"><title>Modelo de Objetos del Eco (sonido)</title><defs/><g><text fill="#000000" font-family="sans-serif" font-size="14" font-weight="bold" lengthAdjust="spacing" textLength="279.1797" x="10" y="22.9951">Modelo de Objetos del Eco (sonido)</text><g id="elem_FuenteSonido"><rect fill="#F1F1F1" height="44.5938" style="stroke:#181818;stroke-width:0.5;" width="160.1484" x="107.5039" y="44.2969"/><text fill="#000000" font-family="sans-serif" font-size="14" lengthAdjust="spacing" textLength="96.1816" x="139.4873" y="59.292">FuenteSonido</text><line style="stroke:#181818;stroke-width:0.5;" x1="108.5039" x2="266.6523" y1="64.5938" y2="64.5938"/><ellipse cx="118.5039" cy="78.2422" fill="none" rx="3" ry="3" style="stroke:#038048;stroke-width:1.0;"/><text fill="#000000" font-family="sans-serif" font-size="14" lengthAdjust="spacing" textLength="134.1484" x="127.5039" y="81.5889">nombre: "Guitarra"</text></g><g id="elem_Sonido"><rect fill="#F1F1F1" height="77.1875" style="stroke:#181818;stroke-width:0.5;" width="153.2852" x="110.9339" y="165.8969"/><text fill="#000000" font-family="sans-serif" font-size="14" lengthAdjust="spacing" textLength="47.667" x="163.743" y="180.892">Sonido</text><line style="stroke:#181818;stroke-width:0.5;" x1="111.9339" x2="263.219" y1="186.1937" y2="186.1937"/><ellipse cx="121.9339" cy="199.8422" fill="none" rx="3" ry="3" style="stroke:#038048;stroke-width:1.0;"/><text fill="#000000" font-family="sans-serif" font-size="14" lengthAdjust="spacing" textLength="127.2852" x="130.9339" y="203.1889">frecuencia: 440Hz</text><ellipse cx="121.9339" cy="216.1391" fill="none" rx="3" ry="3" style="stroke:#038048;stroke-width:1.0;"/><text fill="#000000" font-family="sans-serif" font-size="14" lengthAdjust="spacing" textLength="86.4883" x="130.9339" y="219.4857">duracion: 2s</text><ellipse cx="121.9339" cy="232.4359" fill="none" rx="3" ry="3" style="stroke:#038048;stroke-width:1.0;"/><text fill="#000000" font-family="sans-serif" font-size="14" lengthAdjust="spacing" textLength="104.7061" x="130.9339" y="235.7826">intensidad: 0.8</text></g><g id="elem_Superficie"><rect fill="#F1F1F1" height="77.1875" style="stroke:#181818;stroke-width:0.5;" width="203.4063" x="8.8739" y="320.0769"/><text fill="#000000" font-family="sans-serif" font-size="14" lengthAdjust="spacing" textLength="70.0342" x="75.5599" y="335.072">Superficie</text><line style="stroke:#181818;stroke-width:0.5;" x1="9.8739" x2="211.2801" y1="340.3738" y2="340.3738"/><ellipse cx="19.8739" cy="354.0222" fill="none" rx="3" ry="3" style="stroke:#038048;stroke-width:1.0;"/><text fill="#000000" font-family="sans-serif" font-size="14" lengthAdjust="spacing" textLength="109.915" x="28.8739" y="357.3689">tipo: "Monta&#241;a"</text><ellipse cx="19.8739" cy="370.3191" fill="none" rx="3" ry="3" style="stroke:#038048;stroke-width:1.0;"/><text fill="#000000" font-family="sans-serif" font-size="14" lengthAdjust="spacing" textLength="173.6875" x="28.8739" y="373.6657">coeficienteReflexion: 0.8</text><ellipse cx="19.8739" cy="386.6159" fill="none" rx="3" ry="3" style="stroke:#038048;stroke-width:1.0;"/><text fill="#000000" font-family="sans-serif" font-size="14" lengthAdjust="spacing" textLength="177.4063" x="28.8739" y="389.9626">coeficienteAbsorcion: 0.2</text></g><g id="elem_MedioDeTransmision"><rect fill="#F1F1F1" height="60.8906" style="stroke:#181818;stroke-width:0.5;" width="160.6309" x="117.2639" y="628.4569"/><text fill="#000000" font-family="sans-serif" font-size="14" lengthAdjust="spacing" textLength="146.6309" x="124.2639" y="643.452">MedioDeTransmision</text><line style="stroke:#181818;stroke-width:0.5;" x1="118.2639" x2="276.8947" y1="648.7538" y2="648.7538"/><ellipse cx="128.2639" cy="662.4022" fill="none" rx="3" ry="3" style="stroke:#038048;stroke-width:1.0;"/><text fill="#000000" font-family="sans-serif" font-size="14" lengthAdjust="spacing" textLength="104.2139" x="137.2639" y="665.7489">nombre: "Aire"</text><ellipse cx="128.2639" cy="678.6991" fill="none" rx="3" ry="3" style="stroke:#038048;stroke-width:1.0;"/><text fill="#000000" font-family="sans-serif" font-size="14" lengthAdjust="spacing" textLength="128.8301" x="137.2639" y="682.0457">velocidad: 343m/s</text></g><g id="elem_Eco"><rect fill="#F1F1F1" height="77.1875" style="stroke:#181818;stroke-width:0.5;" width="153.2852" x="52.9339" y="474.2669"/><text fill="#000000" font-family="sans-serif" font-size="14" lengthAdjust="spacing" textLength="25.1084" x="117.0223" y="489.262">Eco</text><line style="stroke:#181818;stroke-width:0.5;" x1="53.9339" x2="205.219" y1="494.5637" y2="494.5637"/><ellipse cx="63.9339" cy="508.2122" fill="none" rx="3" ry="3" style="stroke:#038048;stroke-width:1.0;"/><text fill="#000000" font-family="sans-serif" font-size="14" lengthAdjust="spacing" textLength="127.2852" x="72.9339" y="511.5589">frecuencia: 440Hz</text><ellipse cx="63.9339" cy="524.5091" fill="none" rx="3" ry="3" style="stroke:#038048;stroke-width:1.0;"/><text fill="#000000" font-family="sans-serif" font-size="14" lengthAdjust="spacing" textLength="104.7061" x="72.9339" y="527.8557">intensidad: 0.5</text><ellipse cx="63.9339" cy="540.8059" fill="none" rx="3" ry="3" style="stroke:#038048;stroke-width:1.0;"/><text fill="#000000" font-family="sans-serif" font-size="14" lengthAdjust="spacing" textLength="88.7783" x="72.9339" y="544.1526">retraso: 2.5s</text></g><!--link FuenteSonido to Sonido--><g id="link_FuenteSonido_Sonido"><path codeLine="30" d="M187.5739,89.1269 C187.5739,109.6369 187.5739,134.9469 187.5739,159.6169 " fill="none" id="FuenteSonido-to-Sonido" style="stroke:#181818;stroke-width:1.0;"/><polygon fill="#181818" points="187.5739,165.6169,191.5739,156.6169,187.5739,160.6169,183.5739,156.6169,187.5739,165.6169" style="stroke:#181818;stroke-width:1.0;"/><text fill="#000000" font-family="sans-serif" font-size="13" lengthAdjust="spacing" textLength="52.7744" x="188.5739" y="131.9638">Produce</text></g><!--link Sonido to MedioDeTransmision--><g id="link_Sonido_MedioDeTransmision"><path codeLine="31" d="M214.3139,243.2869 C219.6539,252.6269 224.5539,262.8869 227.5739,273.0769 C233.5239,293.1269 228.8939,299.1869 229.5739,320.0769 C233.6239,443.7669 270.2939,479.6769 235.5739,598.4569 C232.5539,608.8069 230.3734,614.0195 224.5434,623.0295 " fill="none" id="Sonido-to-MedioDeTransmision" style="stroke:#181818;stroke-width:1.0;"/><polygon fill="#181818" points="221.2839,628.0669,229.5314,622.6837,224.0001,623.869,222.8149,618.3377,221.2839,628.0669" style="stroke:#181818;stroke-width:1.0;"/><text fill="#000000" font-family="sans-serif" font-size="13" lengthAdjust="spacing" textLength="57.7319" x="245.5739" y="440.3338">Viaja por</text></g><!--link Sonido to Superficie--><g id="link_Sonido_Superficie"><path codeLine="32" d="M168.3439,243.4969 C156.5839,266.7369 144.302,291.0128 132.542,314.2628 " fill="none" id="Sonido-to-Superficie" style="stroke:#181818;stroke-width:1.0;"/><polygon fill="#181818" points="129.8339,319.6169,137.4654,313.3912,132.0906,315.1551,130.3267,309.7804,129.8339,319.6169" style="stroke:#181818;stroke-width:1.0;"/><text fill="#000000" font-family="sans-serif" font-size="13" lengthAdjust="spacing" textLength="66.6694" x="152.5739" y="286.1438">Rebota en</text></g><!--link Superficie to Eco--><g id="link_Superficie_Eco"><path codeLine="33" d="M115.3239,397.6869 C118.2239,420.9269 121.1812,444.603 124.0812,467.853 " fill="none" id="Superficie-to-Eco" style="stroke:#181818;stroke-width:1.0;"/><polygon fill="#181818" points="124.8239,473.8069,127.6792,464.381,124.205,468.8453,119.7407,465.3712,124.8239,473.8069" style="stroke:#181818;stroke-width:1.0;"/><text fill="#000000" font-family="sans-serif" font-size="13" lengthAdjust="spacing" textLength="44.7954" x="122.5739" y="440.3338">Refleja</text></g><!--link Eco to MedioDeTransmision--><g id="link_Eco_MedioDeTransmision"><path codeLine="34" d="M147.4439,551.7069 C158.6939,575.5469 170.4628,600.4609 180.9128,622.6009 " fill="none" id="Eco-to-MedioDeTransmision" style="stroke:#181818;stroke-width:1.0;"/><polygon fill="#181818" points="183.4739,628.0269,183.2496,618.1806,181.3397,623.5052,176.015,621.5953,183.4739,628.0269" style="stroke:#181818;stroke-width:1.0;"/><text fill="#000000" font-family="sans-serif" font-size="13" lengthAdjust="spacing" textLength="57.7319" x="169.5739" y="594.5238">Viaja por</text></g><!--SRC=[ZL3RIiD047tFLmnzKgIrz0AI1w7WxQKeLNpVx4vWGh9JPZSYYX_bD_XZpgR59XN1j-oSatEB56k4DJki6Hp2VL5XvA2VDLnRXfF0dXoVPXahOYFSjEWZFdPNUCy0pZmtXM0EezkMeX4ne-pZXzudbe9M_xPaSbWifdTlwUXQCPROvp0BwKsgxWCvutAOJYxwKkqMfIHBk9EBj6LrNREFvkjJNVLc6Jk6YcomhF6rKquwGt1L11Qx1sSzapKwuYjy4kD3Gq4PHoLN9DXPlUXYTfTplfWtvw6dafRxk_AmuZAT1AEOe7LcasKdD9XvFBxS3wa17eHTQpL33_oTMedFP2e3MvO1zR2YKZPOS3I0NYc7THDD6tIuRbZfjAdGFuo-0G00]--></g></svg>