<svg xmlns="http://www.w3.org/2000/svg" xmlns:xlink="http://www.w3.org/1999/xlink" contentStyleType="text/css" height="209px" preserveAspectRatio="none" style="width:2490px;height:209px;background:#FFFFFF;" version="1.1" viewBox="0 0 2490 209" width="2490px" zoomAndPan="magnify"><defs/><g><!--cluster Visual Studio Code--><g id="cluster_Visual Studio Code"><rect fill="none" height="97" rx="2.5" ry="2.5" style="stroke:#181818;stroke-width:1.0;" width="2477" x="7" y="106.5"/><text fill="#000000" font-family="sans-serif" font-size="14" font-weight="bold" lengthAdjust="spacing" textLength="148.5176" x="1171.2412" y="121.4951">Visual Studio Code</text></g><!--entity Escritura y edicion de codigo de la aplicacion--><g id="elem_Escritura y edicion de codigo de la aplicacion"><rect fill="#F1F1F1" height="46.2969" rx="2.5" ry="2.5" style="stroke:#181818;stroke-width:0.5;" width="356.5381" x="386.5" y="141.5"/><rect fill="#F1F1F1" height="10" style="stroke:#181818;stroke-width:0.5;" width="15" x="723.0381" y="146.5"/><rect fill="#F1F1F1" height="2" style="stroke:#181818;stroke-width:0.5;" width="4" x="721.0381" y="148.5"/><rect fill="#F1F1F1" height="2" style="stroke:#181818;stroke-width:0.5;" width="4" x="721.0381" y="152.5"/><text fill="#000000" font-family="sans-serif" font-size="14" lengthAdjust="spacing" textLength="316.5381" x="401.5" y="174.4951">Escritura y edicion de codigo de la aplicacion</text></g><!--entity Pruebas y depuracion de funcionalidades--><g id="elem_Pruebas y depuracion de funcionalidades"><rect fill="#F1F1F1" height="46.2969" rx="2.5" ry="2.5" style="stroke:#181818;stroke-width:0.5;" width="328.9688" x="22.5" y="141.5"/><rect fill="#F1F1F1" height="10" style="stroke:#181818;stroke-width:0.5;" width="15" x="331.4688" y="146.5"/><rect fill="#F1F1F1" height="2" style="stroke:#181818;stroke-width:0.5;" width="4" x="329.4688" y="148.5"/><rect fill="#F1F1F1" height="2" style="stroke:#181818;stroke-width:0.5;" width="4" x="329.4688" y="152.5"/><text fill="#000000" font-family="sans-serif" font-size="14" lengthAdjust="spacing" textLength="288.9688" x="37.5" y="174.4951">Pruebas y depuracion de funcionalidades</text></g><!--entity Configuracion de permisos y accesos--><g id="elem_Configuracion de permisos y accesos"><rect fill="#F1F1F1" height="46.2969" rx="2.5" ry="2.5" style="stroke:#181818;stroke-width:0.5;" width="300.415" x="1147" y="141.5"/><rect fill="#F1F1F1" height="10" style="stroke:#181818;stroke-width:0.5;" width="15" x="1427.415" y="146.5"/><rect fill="#F1F1F1" height="2" style="stroke:#181818;stroke-width:0.5;" width="4" x="1425.415" y="148.5"/><rect fill="#F1F1F1" height="2" style="stroke:#181818;stroke-width:0.5;" width="4" x="1425.415" y="152.5"/><text fill="#000000" font-family="sans-serif" font-size="14" lengthAdjust="spacing" textLength="260.415" x="1162" y="174.4951">Configuracion de permisos y accesos</text></g><!--entity Gestion de configuraciones y extensiones--><g id="elem_Gestion de configuraciones y extensiones"><rect fill="#F1F1F1" height="46.2969" rx="2.5" ry="2.5" style="stroke:#181818;stroke-width:0.5;" width="332.5439" x="778.5" y="141.5"/><rect fill="#F1F1F1" height="10" style="stroke:#181818;stroke-width:0.5;" width="15" x="1091.0439" y="146.5"/><rect fill="#F1F1F1" height="2" style="stroke:#181818;stroke-width:0.5;" width="4" x="1089.0439" y="148.5"/><rect fill="#F1F1F1" height="2" style="stroke:#181818;stroke-width:0.5;" width="4" x="1089.0439" y="152.5"/><text fill="#000000" font-family="sans-serif" font-size="14" lengthAdjust="spacing" textLength="292.5439" x="793.5" y="174.4951">Gestion de configuraciones y extensiones</text></g><!--entity Creacion y edicion de su propio codigo--><g id="elem_Creacion y edicion de su propio codigo"><rect fill="#F1F1F1" height="46.2969" rx="2.5" ry="2.5" style="stroke:#181818;stroke-width:0.5;" width="311.8584" x="1813" y="141.5"/><rect fill="#F1F1F1" height="10" style="stroke:#181818;stroke-width:0.5;" width="15" x="2104.8584" y="146.5"/><rect fill="#F1F1F1" height="2" style="stroke:#181818;stroke-width:0.5;" width="4" x="2102.8584" y="148.5"/><rect fill="#F1F1F1" height="2" style="stroke:#181818;stroke-width:0.5;" width="4" x="2102.8584" y="152.5"/><text fill="#000000" font-family="sans-serif" font-size="14" lengthAdjust="spacing" textLength="271.8584" x="1828" y="174.4951">Creacion y edicion de su propio codigo</text></g><!--entity Ejecucion y depuracion de su codigo--><g id="elem_Ejecucion y depuracion de su codigo"><rect fill="#F1F1F1" height="46.2969" rx="2.5" ry="2.5" style="stroke:#181818;stroke-width:0.5;" width="296.2588" x="1482" y="141.5"/><rect fill="#F1F1F1" height="10" style="stroke:#181818;stroke-width:0.5;" width="15" x="1758.2588" y="146.5"/><rect fill="#F1F1F1" height="2" style="stroke:#181818;stroke-width:0.5;" width="4" x="1756.2588" y="148.5"/><rect fill="#F1F1F1" height="2" style="stroke:#181818;stroke-width:0.5;" width="4" x="1756.2588" y="152.5"/><text fill="#000000" font-family="sans-serif" font-size="14" lengthAdjust="spacing" textLength="256.2588" x="1497" y="174.4951">Ejecucion y depuracion de su codigo</text></g><!--entity Control de versiones para su proyecto--><g id="elem_Control de versiones para su proyecto"><rect fill="#F1F1F1" height="46.2969" rx="2.5" ry="2.5" style="stroke:#181818;stroke-width:0.5;" width="307.6748" x="2160" y="141.5"/><rect fill="#F1F1F1" height="10" style="stroke:#181818;stroke-width:0.5;" width="15" x="2447.6748" y="146.5"/><rect fill="#F1F1F1" height="2" style="stroke:#181818;stroke-width:0.5;" width="4" x="2445.6748" y="148.5"/><rect fill="#F1F1F1" height="2" style="stroke:#181818;stroke-width:0.5;" width="4" x="2445.6748" y="152.5"/><text fill="#000000" font-family="sans-serif" font-size="14" lengthAdjust="spacing" textLength="267.6748" x="2175" y="174.4951">Control de versiones para su proyecto</text></g><!--entity DevApp--><g id="elem_DevApp"><ellipse cx="375.8882" cy="14" fill="#F1F1F1" rx="8" ry="8" style="stroke:#181818;stroke-width:0.5;"/><path d="M375.8882,22 L375.8882,49 M362.8882,30 L388.8882,30 M375.8882,49 L362.8882,64 M375.8882,49 L388.8882,64 " fill="none" style="stroke:#181818;stroke-width:0.5;"/><text fill="#000000" font-family="sans-serif" font-size="14" lengthAdjust="spacing" textLength="208.7764" x="271.5" y="78.4951">Desarrollador de la aplicacion</text></g><!--entity AdminApp--><g id="elem_AdminApp"><ellipse cx="1120.9731" cy="14" fill="#F1F1F1" rx="8" ry="8" style="stroke:#181818;stroke-width:0.5;"/><path d="M1120.9731,22 L1120.9731,49 M1107.9731,30 L1133.9731,30 M1120.9731,49 L1107.9731,64 M1120.9731,49 L1133.9731,64 " fill="none" style="stroke:#181818;stroke-width:0.5;"/><text fill="#000000" font-family="sans-serif" font-size="14" lengthAdjust="spacing" textLength="212.9463" x="1014.5" y="78.4951">Administrador de la aplicacion</text></g><!--entity User--><g id="elem_User"><ellipse cx="1969.1021" cy="14" fill="#F1F1F1" rx="8" ry="8" style="stroke:#181818;stroke-width:0.5;"/><path d="M1969.1021,22 L1969.1021,49 M1956.1021,30 L1982.1021,30 M1969.1021,49 L1956.1021,64 M1969.1021,49 L1982.1021,64 " fill="none" style="stroke:#181818;stroke-width:0.5;"/><text fill="#000000" font-family="sans-serif" font-size="14" lengthAdjust="spacing" textLength="53.2041" x="1942.5" y="78.4951">Usuario</text></g><!--link DevApp to Escritura y edicion de codigo de la aplicacion--><g id="link_DevApp_Escritura y edicion de codigo de la aplicacion"><path d="M434.76,81.5 C465.97,101.15 498.2024,121.4434 524.8724,138.2334 " fill="none" id="DevApp-to-Escritura y edicion de codigo de la aplicacion" style="stroke:#181818;stroke-width:1.0;"/><polygon fill="#181818" points="529.95,141.43,524.4647,133.2501,525.7187,138.7662,520.2026,140.0202,529.95,141.43" style="stroke:#181818;stroke-width:1.0;"/></g><!--link DevApp to Pruebas y depuracion de funcionalidades--><g id="link_DevApp_Pruebas y depuracion de funcionalidades"><path d="M317.24,81.5 C286.03,101.15 253.7976,121.4434 227.1276,138.2334 " fill="none" id="DevApp-to-Pruebas y depuracion de funcionalidades" style="stroke:#181818;stroke-width:1.0;"/><polygon fill="#181818" points="222.05,141.43,231.7974,140.0202,226.2813,138.7662,227.5353,133.2501,222.05,141.43" style="stroke:#181818;stroke-width:1.0;"/></g><!--link AdminApp to Configuracion de permisos y accesos--><g id="link_AdminApp_Configuracion de permisos y accesos"><path d="M1175.72,81.5 C1204.78,101.15 1234.549,121.28 1259.389,138.07 " fill="none" id="AdminApp-to-Configuracion de permisos y accesos" style="stroke:#181818;stroke-width:1.0;"/><polygon fill="#181818" points="1264.36,141.43,1259.1436,133.076,1260.2175,138.63,1254.6636,139.704,1264.36,141.43" style="stroke:#181818;stroke-width:1.0;"/></g><!--link AdminApp to Gestion de configuraciones y extensiones--><g id="link_AdminApp_Gestion de configuraciones y extensiones"><path d="M1066.28,81.5 C1037.22,101.15 1007.451,121.28 982.611,138.07 " fill="none" id="AdminApp-to-Gestion de configuraciones y extensiones" style="stroke:#181818;stroke-width:1.0;"/><polygon fill="#181818" points="977.64,141.43,987.3364,139.704,981.7825,138.63,982.8564,133.076,977.64,141.43" style="stroke:#181818;stroke-width:1.0;"/></g><!--link User to Creacion y edicion de su propio codigo--><g id="link_User_Creacion y edicion de su propio codigo"><path d="M1969,81.5 C1969,101.15 1969,118.64 1969,135.43 " fill="none" id="User-to-Creacion y edicion de su propio codigo" style="stroke:#181818;stroke-width:1.0;"/><polygon fill="#181818" points="1969,141.43,1973,132.43,1969,136.43,1965,132.43,1969,141.43" style="stroke:#181818;stroke-width:1.0;"/></g><!--link User to Ejecucion y depuracion de su codigo--><g id="link_User_Ejecucion y depuracion de su codigo"><path d="M1942.43,52.16 C1908.31,62.14 1847.35,80.46 1796,98.5 C1758.04,111.84 1721.394,126.1445 1689.034,139.2045 " fill="none" id="User-to-Ejecucion y depuracion de su codigo" style="stroke:#181818;stroke-width:1.0;"/><polygon fill="#181818" points="1683.47,141.45,1693.313,141.791,1688.1066,139.5787,1690.3189,134.3724,1683.47,141.45" style="stroke:#181818;stroke-width:1.0;"/></g><!--link User to Control de versiones para su proyecto--><g id="link_User_Control de versiones para su proyecto"><path d="M1995.7,52.22 C2029.99,62.27 2091.27,80.66 2143,98.5 C2181.88,111.91 2219.5914,126.1966 2252.8914,139.2066 " fill="none" id="User-to-Control de versiones para su proyecto" style="stroke:#181818;stroke-width:1.0;"/><polygon fill="#181818" points="2258.48,141.39,2251.5527,134.3891,2253.8228,139.5705,2248.6415,141.8406,2258.48,141.39" style="stroke:#181818;stroke-width:1.0;"/></g><!--SRC=[TP71QiCm38RlUGgHUrzXKDgows1qbv63Pgj1mxMDR9U6iNUV7BSZNJkVPAHFltu9JGu2_POIYWJdqEhN4ZW4Z8uD6Ww-1qomfTCwnWuRiBP7zfoo_0_C9GjadmeAXpctJoHT9sGo-j4Hz6-iMGUlkLWEi0cMUlZgG5_JXTNg2TvtoGZd8WWJaEKgLRLDi3o6koc6E_v52dse_AIrKTjS6noAho4wjcWf3TrCNWqqTXFyWSS554cEd4BjXiQGHiC3x9bI_XrpqO4gH-TCFis_YsPTp4LFg4dTM4q5eeIeEsgcXp_KxfDCkM2t7fLyZAYnhAUlDIUIDWr4r2KtiKclfD3t3m00]--></g></svg>