<svg xmlns="http://www.w3.org/2000/svg" xmlns:xlink="http://www.w3.org/1999/xlink" contentStyleType="text/css" height="228px" preserveAspectRatio="none" style="width:2489px;height:228px;background:#FFFFFF;" version="1.1" viewBox="0 0 2489 228" width="2489px" zoomAndPan="magnify"><defs/><g><!--entity DevApp--><g id="elem_DevApp"><ellipse cx="610.3882" cy="14" fill="#F1F1F1" rx="8" ry="8" style="stroke:#181818;stroke-width:0.5;"/><path d="M610.3882,22 L610.3882,49 M597.3882,30 L623.3882,30 M610.3882,49 L597.3882,64 M610.3882,49 L623.3882,64 " fill="none" style="stroke:#181818;stroke-width:0.5;"/><text fill="#000000" font-family="sans-serif" font-size="14" lengthAdjust="spacing" textLength="208.7764" x="506" y="78.4951">Desarrollador de la aplicacion</text></g><!--entity AdminApp--><g id="elem_AdminApp"><ellipse cx="2103.4731" cy="14" fill="#F1F1F1" rx="8" ry="8" style="stroke:#181818;stroke-width:0.5;"/><path d="M2103.4731,22 L2103.4731,49 M2090.4731,30 L2116.4731,30 M2103.4731,49 L2090.4731,64 M2103.4731,49 L2116.4731,64 " fill="none" style="stroke:#181818;stroke-width:0.5;"/><text fill="#000000" font-family="sans-serif" font-size="14" lengthAdjust="spacing" textLength="212.9463" x="1997" y="78.4951">Administrador de la aplicacion</text></g><!--entity User--><g id="elem_User"><ellipse cx="1236.6021" cy="14" fill="#F1F1F1" rx="8" ry="8" style="stroke:#181818;stroke-width:0.5;"/><path d="M1236.6021,22 L1236.6021,49 M1223.6021,30 L1249.6021,30 M1236.6021,49 L1223.6021,64 M1236.6021,49 L1249.6021,64 " fill="none" style="stroke:#181818;stroke-width:0.5;"/><text fill="#000000" font-family="sans-serif" font-size="14" lengthAdjust="spacing" textLength="53.2041" x="1210" y="78.4951">Usuario</text></g><g id="elem_UC1"><ellipse cx="322.3174" cy="190.6635" fill="#F1F1F1" rx="73.8174" ry="17.1635" style="stroke:#181818;stroke-width:0.5;"/><text fill="#000000" font-family="sans-serif" font-size="14" lengthAdjust="spacing" textLength="102.9561" x="267.8394" y="194.411">Escribir codigo</text></g><g id="elem_UC2"><ellipse cx="1506.573" cy="190.6146" fill="#F1F1F1" rx="148.573" ry="32.1146" style="stroke:#181818;stroke-width:0.5;"/><text fill="#000000" font-family="sans-serif" font-size="14" lengthAdjust="spacing" textLength="267.5107" x="1372.8176" y="193.4613">Ejecucion de comandos en el terminal</text></g><g id="elem_UC3"><ellipse cx="1812.278" cy="190.3556" fill="#F1F1F1" rx="122.278" ry="26.8556" style="stroke:#181818;stroke-width:0.5;"/><text fill="#000000" font-family="sans-serif" font-size="14" lengthAdjust="spacing" textLength="212.208" x="1706.174" y="193.2023">Previsualizacion del contenido</text></g><g id="elem_UC4"><ellipse cx="1225.4452" cy="190.289" fill="#F1F1F1" rx="96.9452" ry="21.789" style="stroke:#181818;stroke-width:0.5;"/><text fill="#000000" font-family="sans-serif" font-size="14" lengthAdjust="spacing" textLength="157.3018" x="1146.7943" y="193.1357">Creacion de proyectos</text></g><g id="elem_UC5"><ellipse cx="2103.6535" cy="190.5307" fill="#F1F1F1" rx="133.1535" ry="29.0307" style="stroke:#181818;stroke-width:0.5;"/><text fill="#000000" font-family="sans-serif" font-size="14" lengthAdjust="spacing" textLength="235.2246" x="1986.0412" y="193.3774">Explorador de proyectos/archivos</text></g><g id="elem_UC6"><ellipse cx="2377.4036" cy="190.5807" fill="#F1F1F1" rx="105.9036" ry="23.5807" style="stroke:#181818;stroke-width:0.5;"/><text fill="#000000" font-family="sans-serif" font-size="14" lengthAdjust="spacing" textLength="176.9893" x="2288.909" y="193.4274">Descarga de extensiones</text></g><g id="elem_UC7"><ellipse cx="1024.507" cy="190.7014" fill="#F1F1F1" rx="69.007" ry="16.2014" style="stroke:#181818;stroke-width:0.5;"/><text fill="#000000" font-family="sans-serif" font-size="14" lengthAdjust="spacing" textLength="90.1182" x="976.448" y="194.449">Conexion Git</text></g><g id="elem_UC8"><ellipse cx="825.6936" cy="190.4387" fill="#F1F1F1" rx="95.1936" ry="21.4387" style="stroke:#181818;stroke-width:0.5;"/><text fill="#000000" font-family="sans-serif" font-size="14" lengthAdjust="spacing" textLength="153.4053" x="748.9909" y="193.2854">Depuracion de codigo</text></g><g id="elem_UC9"><ellipse cx="109.6579" cy="190.6316" fill="#F1F1F1" rx="103.6579" ry="23.1316" style="stroke:#181818;stroke-width:0.5;"/><text fill="#000000" font-family="sans-serif" font-size="14" lengthAdjust="spacing" textLength="172.0879" x="23.614" y="193.4783">Configuracion de testing</text></g><g id="elem_UC10"><ellipse cx="563.5931" cy="190.7186" fill="#F1F1F1" rx="131.5931" ry="28.7186" style="stroke:#181818;stroke-width:0.5;"/><text fill="#000000" font-family="sans-serif" font-size="14" lengthAdjust="spacing" textLength="231.9365" x="447.6248" y="193.5653">Correccion de errores de sintaxis</text></g><!--link DevApp to UC1--><g id="link_DevApp_UC1"><path d="M527.01,81.56 C506.43,91.04 484.55,101.41 464.5,111.5 C423.3,132.24 381.82,155.4442 353.58,171.5742 " fill="none" id="DevApp-to-UC1" style="stroke:#181818;stroke-width:1.0;"/><polygon fill="#181818" points="348.37,174.55,358.1689,173.5596,352.7117,172.0701,354.2011,166.6129,348.37,174.55" style="stroke:#181818;stroke-width:1.0;"/><text fill="#000000" font-family="sans-serif" font-size="13" lengthAdjust="spacing" textLength="43.3228" x="465.5" y="124.5669">realiza</text></g><!--link DevApp to UC4--><g id="link_DevApp_UC4"><path d="M715.27,51.14 C803.36,59 931.65,75.88 1038.5,111.5 C1053.78,116.59 1055.87,121.76 1070.5,128.5 C1105.04,144.41 1139.3695,157.9701 1170.0695,169.4401 " fill="none" id="DevApp-to-UC4" style="stroke:#181818;stroke-width:1.0;"/><polygon fill="#181818" points="1175.69,171.54,1168.6592,164.6431,1171.0062,169.7901,1165.8593,172.1371,1175.69,171.54" style="stroke:#181818;stroke-width:1.0;"/><text fill="#000000" font-family="sans-serif" font-size="13" lengthAdjust="spacing" textLength="64.8223" x="1071.5" y="124.5669">desarrolla</text></g><!--link DevApp to UC7--><g id="link_DevApp_UC7"><path d="M715.23,72.58 C751.58,83.4 792.29,96.75 828.5,111.5 C843.78,117.73 846.41,121.82 861.5,128.5 C884.85,138.84 942.7567,160.072 983.2667,174.702 " fill="none" id="DevApp-to-UC7" style="stroke:#181818;stroke-width:1.0;"/><polygon fill="#181818" points="988.91,176.74,981.8038,169.9208,984.2073,175.0416,979.0864,177.4451,988.91,176.74" style="stroke:#181818;stroke-width:1.0;"/><text fill="#000000" font-family="sans-serif" font-size="13" lengthAdjust="spacing" textLength="78.1016" x="862.5" y="124.5669">implementa</text></g><!--link DevApp to UC8--><g id="link_DevApp_UC8"><path d="M641.44,81.86 C655.81,97.63 673.84,115.35 692.5,128.5 C718.25,146.64 744.6933,159.2814 770.8533,169.8014 " fill="none" id="DevApp-to-UC8" style="stroke:#181818;stroke-width:1.0;"/><polygon fill="#181818" points="776.42,172.04,769.5623,164.9709,771.781,170.1745,766.5775,172.3932,776.42,172.04" style="stroke:#181818;stroke-width:1.0;"/><text fill="#000000" font-family="sans-serif" font-size="13" lengthAdjust="spacing" textLength="43.3228" x="693.5" y="124.5669">realiza</text></g><!--link DevApp to UC9--><g id="link_DevApp_UC9"><path d="M505.77,71.75 C461.19,83.59 408.7,97.85 361.5,111.5 C294.19,130.97 223.0379,153.2119 172.0879,169.4119 " fill="none" id="DevApp-to-UC9" style="stroke:#181818;stroke-width:1.0;"/><polygon fill="#181818" points="166.37,171.23,176.1589,172.3149,171.1349,169.7149,173.7348,164.691,166.37,171.23" style="stroke:#181818;stroke-width:1.0;"/><text fill="#000000" font-family="sans-serif" font-size="13" lengthAdjust="spacing" textLength="61.3311" x="362.5" y="124.5669">configura</text></g><!--link DevApp to UC10--><g id="link_DevApp_UC10"><path d="M545.61,81.56 C535.87,90.09 527.2,100.08 521.5,111.5 C512.92,128.7 518.9183,143.0664 531.2083,158.0064 " fill="none" id="DevApp-to-UC10" style="stroke:#181818;stroke-width:1.0;"/><polygon fill="#181818" points="535.02,162.64,532.3915,153.1484,531.8435,158.7786,526.2133,158.2307,535.02,162.64" style="stroke:#181818;stroke-width:1.0;"/><text fill="#000000" font-family="sans-serif" font-size="13" lengthAdjust="spacing" textLength="39.6538" x="522.5" y="124.5669">ajusta</text></g><!--link AdminApp to UC6--><g id="link_AdminApp_UC6"><path d="M2173.71,81.65 C2225.87,109.26 2289.8367,143.1137 2332.6967,165.7937 " fill="none" id="AdminApp-to-UC6" style="stroke:#181818;stroke-width:1.0;"/><polygon fill="#181818" points="2338,168.6,2331.916,160.855,2333.5806,166.2614,2328.1742,167.9261,2338,168.6" style="stroke:#181818;stroke-width:1.0;"/><text fill="#000000" font-family="sans-serif" font-size="13" lengthAdjust="spacing" textLength="69.5259" x="2257.5" y="124.5669">administra</text></g><!--link AdminApp to UC4--><g id="link_AdminApp_UC4"><path d="M2004.61,81.55 C1954.13,98.84 1891.32,117.91 1833.5,128.5 C1617.58,168.06 1557.14,123.08 1340.5,158.5 C1320.6,161.75 1304.9579,165.4028 1286.0579,170.6928 " fill="none" id="AdminApp-to-UC4" style="stroke:#181818;stroke-width:1.0;"/><polygon fill="#181818" points="1280.28,172.31,1290.0251,173.7361,1285.095,170.9623,1287.8688,166.0322,1280.28,172.31" style="stroke:#181818;stroke-width:1.0;"/><text fill="#000000" font-family="sans-serif" font-size="13" lengthAdjust="spacing" textLength="61.3311" x="1901.5" y="124.5669">configura</text></g><!--link AdminApp to UC5--><g id="link_AdminApp_UC5"><path d="M2103.5,81.84 C2103.5,106.68 2103.5,132.78 2103.5,155.45 " fill="none" id="AdminApp-to-UC5" style="stroke:#181818;stroke-width:1.0;"/><polygon fill="#181818" points="2103.5,161.45,2107.5,152.45,2103.5,156.45,2099.5,152.45,2103.5,161.45" style="stroke:#181818;stroke-width:1.0;"/><text fill="#000000" font-family="sans-serif" font-size="13" lengthAdjust="spacing" textLength="56.1577" x="2104.5" y="124.5669">organiza</text></g><!--link User to UC1--><g id="link_User_UC1"><path d="M1209.71,45.09 C1122.61,47.51 840.05,59.15 613.5,111.5 C591.86,116.5 587.9,122.55 566.5,128.5 C500.15,146.93 481.05,140.8 414.5,158.5 C396.26,163.35 382.0325,167.9059 365.4225,173.7259 " fill="none" id="User-to-UC1" style="stroke:#181818;stroke-width:1.0;"/><polygon fill="#181818" points="359.76,175.71,369.5764,176.5089,364.4787,174.0566,366.931,168.9589,359.76,175.71" style="stroke:#181818;stroke-width:1.0;"/><text fill="#000000" font-family="sans-serif" font-size="13" lengthAdjust="spacing" textLength="48.4897" x="614.5" y="124.5669">emplea</text></g><!--link User to UC2--><g id="link_User_UC2"><path d="M1263.38,58.93 C1307.33,82.54 1390.1141,127.0011 1447.3141,157.7211 " fill="none" id="User-to-UC2" style="stroke:#181818;stroke-width:1.0;"/><polygon fill="#181818" points="1452.6,160.56,1446.5637,152.7778,1448.1951,158.1943,1442.7786,159.8256,1452.6,160.56" style="stroke:#181818;stroke-width:1.0;"/><text fill="#000000" font-family="sans-serif" font-size="13" lengthAdjust="spacing" textLength="48.0581" x="1388.5" y="124.5669">ejecuta</text></g><!--link User to UC3--><g id="link_User_UC3"><path d="M1263.13,51.2 C1346.21,72.12 1597.1015,135.2753 1728.0715,168.2453 " fill="none" id="User-to-UC3" style="stroke:#181818;stroke-width:1.0;"/><polygon fill="#181818" points="1733.89,169.71,1726.1388,163.6339,1729.0413,168.4894,1724.1858,171.3919,1733.89,169.71" style="stroke:#181818;stroke-width:1.0;"/><text fill="#000000" font-family="sans-serif" font-size="13" lengthAdjust="spacing" textLength="55.0278" x="1559.5" y="124.5669">consulta</text></g><!--link User to UC4--><g id="link_User_UC4"><path d="M1249.25,81.79 C1252.65,96.39 1254.61,113.26 1251.5,128.5 C1248.67,142.37 1245.1785,151.6064 1239.5985,163.0564 " fill="none" id="User-to-UC4" style="stroke:#181818;stroke-width:1.0;"/><polygon fill="#181818" points="1236.97,168.45,1244.5085,162.1119,1239.1604,163.9553,1237.317,158.6073,1236.97,168.45" style="stroke:#181818;stroke-width:1.0;"/><text fill="#000000" font-family="sans-serif" font-size="13" lengthAdjust="spacing" textLength="38.9619" x="1253.5" y="124.5669">utiliza</text></g><!--link User to UC5--><g id="link_User_UC5"><path d="M1263.23,48.32 C1357.67,61.89 1684.4,109.66 1952.5,158.5 C1971.33,161.93 1985.5297,164.6674 2004.7097,168.5574 " fill="none" id="User-to-UC5" style="stroke:#181818;stroke-width:1.0;"/><polygon fill="#181818" points="2010.59,169.75,2002.5647,164.0409,2005.6898,168.7562,2000.9745,171.8813,2010.59,169.75" style="stroke:#181818;stroke-width:1.0;"/><text fill="#000000" font-family="sans-serif" font-size="13" lengthAdjust="spacing" textLength="48.1152" x="1776.5" y="124.5669">navega</text></g><!--link User to UC7--><g id="link_User_UC7"><path d="M1209.97,72.32 C1192.43,89.77 1168.34,112.01 1144.5,128.5 C1116.34,147.98 1086.5914,162.6999 1061.6114,173.8199 " fill="none" id="User-to-UC7" style="stroke:#181818;stroke-width:1.0;"/><polygon fill="#181818" points="1056.13,176.26,1065.9789,176.2541,1060.6979,174.2266,1062.7254,168.9456,1056.13,176.26" style="stroke:#181818;stroke-width:1.0;"/><text fill="#000000" font-family="sans-serif" font-size="13" lengthAdjust="spacing" textLength="65.7109" x="1166.5" y="124.5669">sincroniza</text></g><!--link User to UC8--><g id="link_User_UC8"><path d="M1209.85,49.78 C1163.28,59.41 1064.42,81.6 984.5,111.5 C978.29,113.82 913.6354,145.7644 868.6054,168.0944 " fill="none" id="User-to-UC8" style="stroke:#181818;stroke-width:1.0;"/><polygon fill="#181818" points="863.23,170.76,873.0701,170.3452,867.7095,168.5387,869.516,163.178,863.23,170.76" style="stroke:#181818;stroke-width:1.0;"/><text fill="#000000" font-family="sans-serif" font-size="13" lengthAdjust="spacing" textLength="48.0581" x="985.5" y="124.5669">ejecuta</text></g><!--link User to UC10--><g id="link_User_UC10"><path d="M1209.93,45.17 C1137.89,47.66 933.49,59.19 773.5,111.5 C758.19,116.51 756.27,122.09 741.5,128.5 C708.23,142.93 676.053,154.4456 643.813,164.9856 " fill="none" id="User-to-UC10" style="stroke:#181818;stroke-width:1.0;"/><polygon fill="#181818" points="638.11,166.85,647.9074,167.8553,642.8625,165.2963,645.4215,160.2514,638.11,166.85" style="stroke:#181818;stroke-width:1.0;"/><text fill="#000000" font-family="sans-serif" font-size="13" lengthAdjust="spacing" textLength="45.6523" x="774.5" y="124.5669">corrige</text></g><!--SRC=[TLAxRiCm3Dpz5KBse6dUwL0WI8gkNV81hCow36J9e6J3xTUNIcn73fhDvjtnZXH11yTgSaGFpCuOoEKtHsL0GML8WoPd9mgyEcAphweChe9zNf8b7_Ynu49992TV0vExO2UFd6MrHmqUrUJDQwPFOgLTJaL7EJmdX3FgEdQELjgLO7Fd5Lg5HWLaCGBJgUOtrGTZG-9gw1SwiH6r3MWfxrqMD_w1iUUfYjqFId3VqPP9cBOoRXXy83u1wszg1iNgff3rQk028XzRiVVYWZrndIIGSXiJl5Feq4tQfgePRcj8ThKTzVYY8Y46z85iqJ5tAPCPTKz3EG167pyzsG0jzG6VPrbsVNurdRx6WdfHigkurp6m520VRccCRGIZiZ9OedGVOzj73NS2w7wWkn0pmU1SUscMzSVMOUi83ITwZov7JU_0bO1Etih6B5ayr6HeZFaXhSvZDLvd69KNLmjVct4zMjU1BeCcvMXgeS5YL8qRawVGxEmTV_k_wsKbMbwL2lm3]--></g></svg>