<svg xmlns="http://www.w3.org/2000/svg" xmlns:xlink="http://www.w3.org/1999/xlink" contentStyleType="text/css" height="874px" preserveAspectRatio="none" style="width:428px;height:874px;background:#FFFFFF;" version="1.1" viewBox="0 0 428 874" width="428px" zoomAndPan="magnify"><defs/><g><ellipse cx="226.53" cy="16" fill="#222222" rx="10" ry="10" style="stroke:#222222;stroke-width:1.0;"/><path d="M19.5,103 L213.5647,103 A12.5,12.5 0 0 1 226.0647,115.5 L226.0647,129.2969 L7,129.2969 L7,115.5 A12.5,12.5 0 0 1 19.5,103 " fill="#F1F1F1" style="stroke:#F1F1F1;stroke-width:1.0;"/><rect fill="none" height="257.2969" rx="12.5" ry="12.5" style="stroke:#181818;stroke-width:0.5;" width="219.0647" x="7" y="103"/><line style="stroke:#181818;stroke-width:0.5;" x1="7" x2="226.0647" y1="129.2969" y2="129.2969"/><text fill="#000000" font-family="sans-serif" font-size="14" lengthAdjust="spacing" textLength="132.9521" x="50.0563" y="120.9951">Emisi&#243;n del Sonido</text><ellipse cx="93.78" cy="150.2969" fill="#222222" rx="10" ry="10" style="stroke:#222222;stroke-width:1.0;"/><g id="EmisionSonido.GenerandoSonido"><rect fill="#F1F1F1" height="50" rx="12.5" ry="12.5" style="stroke:#181818;stroke-width:0.5;" width="145.2754" x="21.14" y="197.2969"/><line style="stroke:#181818;stroke-width:0.5;" x1="21.14" x2="166.4154" y1="223.5938" y2="223.5938"/><text fill="#000000" font-family="sans-serif" font-size="14" lengthAdjust="spacing" textLength="125.2754" x="31.14" y="215.292">GenerandoSonido</text></g><g id="EmisionSonido.MovimientoSonido"><rect fill="#F1F1F1" height="50" rx="12.5" ry="12.5" style="stroke:#181818;stroke-width:0.5;" width="149.5547" x="19" y="300.2969"/><line style="stroke:#181818;stroke-width:0.5;" x1="19" x2="168.5547" y1="326.5938" y2="326.5938"/><text fill="#000000" font-family="sans-serif" font-size="14" lengthAdjust="spacing" textLength="129.5547" x="29" y="318.292">MovimientoSonido</text></g><!--link *start*EmisionSonido to GenerandoSonido--><g id="link_*start*EmisionSonido_GenerandoSonido"><path d="M93.78,160.7369 C93.78,169.9969 93.78,178.4869 93.78,190.9769 " fill="none" id="*start*EmisionSonido-to-GenerandoSonido" style="stroke:#181818;stroke-width:1.0;"/><polygon fill="#181818" points="93.78,196.9769,97.78,187.9769,93.78,191.9769,89.78,187.9769,93.78,196.9769" style="stroke:#181818;stroke-width:1.0;"/></g><!--link GenerandoSonido to MovimientoSonido--><g id="link_GenerandoSonido_MovimientoSonido"><path d="M93.78,247.7469 C93.78,263.6269 93.78,278.2369 93.78,294.0769 " fill="none" id="GenerandoSonido-to-MovimientoSonido" style="stroke:#181818;stroke-width:1.0;"/><polygon fill="#181818" points="93.78,300.0769,97.78,291.0769,93.78,295.0769,89.78,291.0769,93.78,300.0769" style="stroke:#181818;stroke-width:1.0;"/><text fill="#000000" font-family="sans-serif" font-size="13" lengthAdjust="spacing" textLength="121.2847" x="94.78" y="278.3638">Sonido se propaga</text></g><g id="RebotandoSuperficie"><rect fill="#F1F1F1" height="50" rx="12.5" ry="12.5" style="stroke:#181818;stroke-width:0.5;" width="166.2207" x="11.42" y="437.3"/><line style="stroke:#181818;stroke-width:0.5;" x1="11.42" x2="177.6407" y1="463.5969" y2="463.5969"/><text fill="#000000" font-family="sans-serif" font-size="14" lengthAdjust="spacing" textLength="146.2207" x="21.42" y="455.2951">RebotandoSuperficie</text></g><g id="RetornoSonido"><rect fill="#F1F1F1" height="50" rx="12.5" ry="12.5" style="stroke:#181818;stroke-width:0.5;" width="123.2568" x="68.9" y="564.3"/><line style="stroke:#181818;stroke-width:0.5;" x1="68.9" x2="192.1568" y1="590.5969" y2="590.5969"/><text fill="#000000" font-family="sans-serif" font-size="14" lengthAdjust="spacing" textLength="103.2568" x="78.9" y="582.2951">RetornoSonido</text></g><g id="PercibiendoSonido"><rect fill="#F1F1F1" height="50" rx="12.5" ry="12.5" style="stroke:#181818;stroke-width:0.5;" width="149.7803" x="69.64" y="691.3"/><line style="stroke:#181818;stroke-width:0.5;" x1="69.64" x2="219.4203" y1="717.5969" y2="717.5969"/><text fill="#000000" font-family="sans-serif" font-size="14" lengthAdjust="spacing" textLength="129.7803" x="79.64" y="709.2951">PercibiendoSonido</text></g><g id="Fin"><rect fill="#F1F1F1" height="50" rx="12.5" ry="12.5" style="stroke:#181818;stroke-width:0.5;" width="50" x="201.53" y="818.3"/><line style="stroke:#181818;stroke-width:0.5;" x1="201.53" x2="251.53" y1="844.5969" y2="844.5969"/><text fill="#000000" font-family="sans-serif" font-size="14" lengthAdjust="spacing" textLength="20.8154" x="216.1223" y="836.2951">Fin</text></g><!--link *start* to EmisionSonido--><g id="link_*start*_EmisionSonido"><path d="M218.31,22.41 C208.55,29.21 192.38,41.71 182.53,56 C172.6,70.42 166.4131,81.0625 158.9031,97.5025 " fill="none" id="*start*-to-EmisionSonido" style="stroke:#181818;stroke-width:1.0;"/><polygon fill="#181818" points="156.41,102.96,163.788,96.4358,158.4876,98.4121,156.5112,93.1117,156.41,102.96" style="stroke:#181818;stroke-width:1.0;"/><text fill="#000000" font-family="sans-serif" font-size="13" lengthAdjust="spacing" textLength="97.0684" x="183.53" y="69.0669">Inicia el sonido</text></g><!--link EmisionSonido to RebotandoSuperficie--><g id="link_EmisionSonido_RebotandoSuperficie"><path d="M86.11,360.58 C84.66,376.26 84.28,392.11 85.53,407.3 C86.34,417.06 86.8953,421.7934 88.5453,431.0334 " fill="none" id="EmisionSonido-to-RebotandoSuperficie" style="stroke:#181818;stroke-width:1.0;"/><polygon fill="#181818" points="89.6,436.94,91.9556,427.377,88.721,432.0179,84.0802,428.7833,89.6,436.94" style="stroke:#181818;stroke-width:1.0;"/><text fill="#000000" font-family="sans-serif" font-size="13" lengthAdjust="spacing" textLength="194.3779" x="86.53" y="403.3669">Sonido alcanza una superficie</text></g><!--link RebotandoSuperficie to RetornoSonido--><g id="link_RebotandoSuperficie_RetornoSonido"><path d="M101.56,487.7 C107.9,509.72 115.5309,536.1939 121.8609,558.1939 " fill="none" id="RebotandoSuperficie-to-RetornoSonido" style="stroke:#181818;stroke-width:1.0;"/><polygon fill="#181818" points="123.52,563.96,124.8755,554.2049,122.1375,559.1549,117.1874,556.4169,123.52,563.96" style="stroke:#181818;stroke-width:1.0;"/><text fill="#000000" font-family="sans-serif" font-size="13" lengthAdjust="spacing" textLength="91.0063" x="116.53" y="530.3669">Sonido rebota</text></g><!--link RetornoSonido to PercibiendoSonido--><g id="link_RetornoSonido_PercibiendoSonido"><path d="M131.14,614.68 C131.68,628.41 132.67,645.86 134.53,661.3 C135.7,671.05 136.4089,675.8095 138.1989,685.0495 " fill="none" id="RetornoSonido-to-PercibiendoSonido" style="stroke:#181818;stroke-width:1.0;"/><polygon fill="#181818" points="139.34,690.94,141.5553,681.3435,138.3891,686.0313,133.7013,682.865,139.34,690.94" style="stroke:#181818;stroke-width:1.0;"/><text fill="#000000" font-family="sans-serif" font-size="13" lengthAdjust="spacing" textLength="145.6851" x="135.53" y="657.3669">Sonido regresa al o&#237;do</text></g><!--link PercibiendoSonido to Fin--><g id="link_PercibiendoSonido_Fin"><path d="M143.42,741.51 C143.81,756 146.24,774.26 154.53,788.3 C165.42,806.73 180.0691,817.9256 196.1691,827.1156 " fill="none" id="PercibiendoSonido-to-Fin" style="stroke:#181818;stroke-width:1.0;"/><polygon fill="#181818" points="201.38,830.09,195.5467,822.1545,197.0376,827.6113,191.5808,829.1023,201.38,830.09" style="stroke:#181818;stroke-width:1.0;"/><text fill="#000000" font-family="sans-serif" font-size="13" lengthAdjust="spacing" textLength="125.7598" x="155.53" y="784.3669">O&#237;do percibe el eco</text></g><!--link *start* to Fin--><g id="link_*start*_Fin"><path d="M235.96,20.31 C249.44,25.58 273.87,37.23 285.53,56 C326.82,122.45 307.53,152.42 307.53,230.65 C307.53,230.65 307.53,230.65 307.53,717.3 C307.53,750.34 303.22,760.4 285.53,788.3 C276.76,802.14 268.1956,810.9051 256.4856,820.4251 " fill="none" id="*start*-to-Fin" style="stroke:#181818;stroke-width:1.0;"/><polygon fill="#181818" points="251.83,824.21,261.3367,821.6364,255.7097,821.0559,256.2901,815.4289,251.83,824.21" style="stroke:#181818;stroke-width:1.0;"/><text fill="#000000" font-family="sans-serif" font-size="13" lengthAdjust="spacing" textLength="111.8901" x="308.53" y="530.3669">Sin eco percibido</text></g><!--SRC=[RP0nRW9134LxdyAYZBGNI94kYIWGKIXH2hFh84kBlPePKWHn92gEmCNYcLqsWgKPZVpV__F7wwSlhAeNVDr95DELgJI6ppXNgOMGMunb110J9SPP0IzdnSQr7fyXnRk00o2kX-XtLWwaZVMQAtUJGYtiHtR2ccpiC5mYOnUieot14U3sdUpyv8sbahRlE7nxR_utKrkJ_XBkbJ2EEZpoz5d9WaugX883tChPyC6XbettRXwOje4ZUGMqoya_FcLpmfkeUvQPmAuGdDVEjU_ykiAUMVdfuu5o_ny0]--></g></svg>