<?xml version="1.0" encoding="us-ascii" standalone="no"?><svg xmlns="http://www.w3.org/2000/svg" xmlns:xlink="http://www.w3.org/1999/xlink" contentStyleType="text/css" height="440px" preserveAspectRatio="none" style="width:353px;height:440px;background:#FFFFFF;" version="1.1" viewBox="0 0 353 440" width="353px" zoomAndPan="magnify"><defs/><g><!--class Inventor--><g id="elem_Inventor"><rect codeLine="1" fill="#F1F1F1" height="48" id="Inventor" rx="2.5" ry="2.5" style="stroke:#181818;stroke-width:0.5;" width="83" x="111" y="7"/><ellipse cx="126" cy="23" fill="#ADD1B2" rx="11" ry="11" style="stroke:#181818;stroke-width:1.0;"/><path d="M128.7656,18.875 Q128.9219,18.6563 129.1094,18.5469 Q129.2969,18.4375 129.5156,18.4375 Q129.8906,18.4375 130.125,18.7031 Q130.3594,18.9531 130.3594,19.5625 L130.3594,21.0156 Q130.3594,21.625 130.125,21.8906 Q129.8906,22.1563 129.5156,22.1563 Q129.1719,22.1563 128.9688,21.9531 Q128.7656,21.7656 128.6563,21.25 Q128.6094,20.8906 128.4219,20.7031 Q128.0938,20.3281 127.4844,20.1094 Q126.875,19.8906 126.25,19.8906 Q125.4844,19.8906 124.8438,20.2188 Q124.2188,20.5469 123.7188,21.2969 Q123.2344,22.0469 123.2344,23.0781 L123.2344,24.1719 Q123.2344,25.4063 124.125,26.2344 Q125.0156,27.0469 126.6094,27.0469 Q127.5469,27.0469 128.2031,26.7969 Q128.5938,26.6406 129.0156,26.2031 Q129.2813,25.9375 129.4219,25.8594 Q129.5781,25.7813 129.7813,25.7813 Q130.1094,25.7813 130.3594,26.0469 Q130.625,26.2969 130.625,26.6406 Q130.625,26.9844 130.2813,27.3906 Q129.7813,27.9688 128.9844,28.2969 Q127.9063,28.75 126.6094,28.75 Q125.0938,28.75 123.8906,28.125 Q122.9063,27.625 122.2188,26.5625 Q121.5313,25.4844 121.5313,24.2031 L121.5313,23.0469 Q121.5313,21.7188 122.1406,20.5781 Q122.7656,19.4219 123.8594,18.8125 Q124.9531,18.1875 126.1875,18.1875 Q126.9219,18.1875 127.5625,18.3594 Q128.2188,18.5156 128.7656,18.875 Z " fill="#000000"/><text fill="#000000" font-family="sans-serif" font-size="14" lengthAdjust="spacing" textLength="51" x="140" y="28.7285">Inventor</text><line style="stroke:#181818;stroke-width:0.5;" x1="112" x2="193" y1="39" y2="39"/><line style="stroke:#181818;stroke-width:0.5;" x1="112" x2="193" y1="47" y2="47"/></g><!--class Idea--><g id="elem_Idea"><rect codeLine="3" fill="#F1F1F1" height="48" id="Idea" rx="2.5" ry="2.5" style="stroke:#181818;stroke-width:0.5;" width="59" x="7" y="133"/><ellipse cx="22" cy="149" fill="#ADD1B2" rx="11" ry="11" style="stroke:#181818;stroke-width:1.0;"/><path d="M24.7656,144.875 Q24.9219,144.6563 25.1094,144.5469 Q25.2969,144.4375 25.5156,144.4375 Q25.8906,144.4375 26.125,144.7031 Q26.3594,144.9531 26.3594,145.5625 L26.3594,147.0156 Q26.3594,147.625 26.125,147.8906 Q25.8906,148.1563 25.5156,148.1563 Q25.1719,148.1563 24.9688,147.9531 Q24.7656,147.7656 24.6563,147.25 Q24.6094,146.8906 24.4219,146.7031 Q24.0938,146.3281 23.4844,146.1094 Q22.875,145.8906 22.25,145.8906 Q21.4844,145.8906 20.8438,146.2188 Q20.2188,146.5469 19.7188,147.2969 Q19.2344,148.0469 19.2344,149.0781 L19.2344,150.1719 Q19.2344,151.4063 20.125,152.2344 Q21.0156,153.0469 22.6094,153.0469 Q23.5469,153.0469 24.2031,152.7969 Q24.5938,152.6406 25.0156,152.2031 Q25.2813,151.9375 25.4219,151.8594 Q25.5781,151.7813 25.7813,151.7813 Q26.1094,151.7813 26.3594,152.0469 Q26.625,152.2969 26.625,152.6406 Q26.625,152.9844 26.2813,153.3906 Q25.7813,153.9688 24.9844,154.2969 Q23.9063,154.75 22.6094,154.75 Q21.0938,154.75 19.8906,154.125 Q18.9063,153.625 18.2188,152.5625 Q17.5313,151.4844 17.5313,150.2031 L17.5313,149.0469 Q17.5313,147.7188 18.1406,146.5781 Q18.7656,145.4219 19.8594,144.8125 Q20.9531,144.1875 22.1875,144.1875 Q22.9219,144.1875 23.5625,144.3594 Q24.2188,144.5156 24.7656,144.875 Z " fill="#000000"/><text fill="#000000" font-family="sans-serif" font-size="14" lengthAdjust="spacing" textLength="27" x="36" y="154.7285">Idea</text><line style="stroke:#181818;stroke-width:0.5;" x1="8" x2="65" y1="165" y2="165"/><line style="stroke:#181818;stroke-width:0.5;" x1="8" x2="65" y1="173" y2="173"/></g><!--class Tecnologia--><g id="elem_Tecnologia"><rect codeLine="5" fill="#F1F1F1" height="48" id="Tecnologia" rx="2.5" ry="2.5" style="stroke:#181818;stroke-width:0.5;" width="102" x="101.5" y="133"/><ellipse cx="116.5" cy="149" fill="#ADD1B2" rx="11" ry="11" style="stroke:#181818;stroke-width:1.0;"/><path d="M119.2656,144.875 Q119.4219,144.6563 119.6094,144.5469 Q119.7969,144.4375 120.0156,144.4375 Q120.3906,144.4375 120.625,144.7031 Q120.8594,144.9531 120.8594,145.5625 L120.8594,147.0156 Q120.8594,147.625 120.625,147.8906 Q120.3906,148.1563 120.0156,148.1563 Q119.6719,148.1563 119.4688,147.9531 Q119.2656,147.7656 119.1563,147.25 Q119.1094,146.8906 118.9219,146.7031 Q118.5938,146.3281 117.9844,146.1094 Q117.375,145.8906 116.75,145.8906 Q115.9844,145.8906 115.3438,146.2188 Q114.7188,146.5469 114.2188,147.2969 Q113.7344,148.0469 113.7344,149.0781 L113.7344,150.1719 Q113.7344,151.4063 114.625,152.2344 Q115.5156,153.0469 117.1094,153.0469 Q118.0469,153.0469 118.7031,152.7969 Q119.0938,152.6406 119.5156,152.2031 Q119.7813,151.9375 119.9219,151.8594 Q120.0781,151.7813 120.2813,151.7813 Q120.6094,151.7813 120.8594,152.0469 Q121.125,152.2969 121.125,152.6406 Q121.125,152.9844 120.7813,153.3906 Q120.2813,153.9688 119.4844,154.2969 Q118.4063,154.75 117.1094,154.75 Q115.5938,154.75 114.3906,154.125 Q113.4063,153.625 112.7188,152.5625 Q112.0313,151.4844 112.0313,150.2031 L112.0313,149.0469 Q112.0313,147.7188 112.6406,146.5781 Q113.2656,145.4219 114.3594,144.8125 Q115.4531,144.1875 116.6875,144.1875 Q117.4219,144.1875 118.0625,144.3594 Q118.7188,144.5156 119.2656,144.875 Z " fill="#000000"/><text fill="#000000" font-family="sans-serif" font-size="14" lengthAdjust="spacing" textLength="70" x="130.5" y="154.7285">Tecnologia</text><line style="stroke:#181818;stroke-width:0.5;" x1="102.5" x2="202.5" y1="165" y2="165"/><line style="stroke:#181818;stroke-width:0.5;" x1="102.5" x2="202.5" y1="173" y2="173"/></g><!--class Prototipo--><g id="elem_Prototipo"><rect codeLine="7" fill="#F1F1F1" height="48" id="Prototipo" rx="2.5" ry="2.5" style="stroke:#181818;stroke-width:0.5;" width="89" x="239" y="133"/><ellipse cx="254" cy="149" fill="#ADD1B2" rx="11" ry="11" style="stroke:#181818;stroke-width:1.0;"/><path d="M256.7656,144.875 Q256.9219,144.6563 257.1094,144.5469 Q257.2969,144.4375 257.5156,144.4375 Q257.8906,144.4375 258.125,144.7031 Q258.3594,144.9531 258.3594,145.5625 L258.3594,147.0156 Q258.3594,147.625 258.125,147.8906 Q257.8906,148.1563 257.5156,148.1563 Q257.1719,148.1563 256.9688,147.9531 Q256.7656,147.7656 256.6563,147.25 Q256.6094,146.8906 256.4219,146.7031 Q256.0938,146.3281 255.4844,146.1094 Q254.875,145.8906 254.25,145.8906 Q253.4844,145.8906 252.8438,146.2188 Q252.2188,146.5469 251.7188,147.2969 Q251.2344,148.0469 251.2344,149.0781 L251.2344,150.1719 Q251.2344,151.4063 252.125,152.2344 Q253.0156,153.0469 254.6094,153.0469 Q255.5469,153.0469 256.2031,152.7969 Q256.5938,152.6406 257.0156,152.2031 Q257.2813,151.9375 257.4219,151.8594 Q257.5781,151.7813 257.7813,151.7813 Q258.1094,151.7813 258.3594,152.0469 Q258.625,152.2969 258.625,152.6406 Q258.625,152.9844 258.2813,153.3906 Q257.7813,153.9688 256.9844,154.2969 Q255.9063,154.75 254.6094,154.75 Q253.0938,154.75 251.8906,154.125 Q250.9063,153.625 250.2188,152.5625 Q249.5313,151.4844 249.5313,150.2031 L249.5313,149.0469 Q249.5313,147.7188 250.1406,146.5781 Q250.7656,145.4219 251.8594,144.8125 Q252.9531,144.1875 254.1875,144.1875 Q254.9219,144.1875 255.5625,144.3594 Q256.2188,144.5156 256.7656,144.875 Z " fill="#000000"/><text fill="#000000" font-family="sans-serif" font-size="14" lengthAdjust="spacing" textLength="57" x="268" y="154.7285">Prototipo</text><line style="stroke:#181818;stroke-width:0.5;" x1="240" x2="327" y1="165" y2="165"/><line style="stroke:#181818;stroke-width:0.5;" x1="240" x2="327" y1="173" y2="173"/></g><!--class Mercado--><g id="elem_Mercado"><rect codeLine="9" fill="#F1F1F1" height="48" id="Mercado" rx="2.5" ry="2.5" style="stroke:#181818;stroke-width:0.5;" width="87" x="240" y="259"/><ellipse cx="255" cy="275" fill="#ADD1B2" rx="11" ry="11" style="stroke:#181818;stroke-width:1.0;"/><path d="M257.7656,270.875 Q257.9219,270.6563 258.1094,270.5469 Q258.2969,270.4375 258.5156,270.4375 Q258.8906,270.4375 259.125,270.7031 Q259.3594,270.9531 259.3594,271.5625 L259.3594,273.0156 Q259.3594,273.625 259.125,273.8906 Q258.8906,274.1563 258.5156,274.1563 Q258.1719,274.1563 257.9688,273.9531 Q257.7656,273.7656 257.6563,273.25 Q257.6094,272.8906 257.4219,272.7031 Q257.0938,272.3281 256.4844,272.1094 Q255.875,271.8906 255.25,271.8906 Q254.4844,271.8906 253.8438,272.2188 Q253.2188,272.5469 252.7188,273.2969 Q252.2344,274.0469 252.2344,275.0781 L252.2344,276.1719 Q252.2344,277.4063 253.125,278.2344 Q254.0156,279.0469 255.6094,279.0469 Q256.5469,279.0469 257.2031,278.7969 Q257.5938,278.6406 258.0156,278.2031 Q258.2813,277.9375 258.4219,277.8594 Q258.5781,277.7813 258.7813,277.7813 Q259.1094,277.7813 259.3594,278.0469 Q259.625,278.2969 259.625,278.6406 Q259.625,278.9844 259.2813,279.3906 Q258.7813,279.9688 257.9844,280.2969 Q256.9063,280.75 255.6094,280.75 Q254.0938,280.75 252.8906,280.125 Q251.9063,279.625 251.2188,278.5625 Q250.5313,277.4844 250.5313,276.2031 L250.5313,275.0469 Q250.5313,273.7188 251.1406,272.5781 Q251.7656,271.4219 252.8594,270.8125 Q253.9531,270.1875 255.1875,270.1875 Q255.9219,270.1875 256.5625,270.3594 Q257.2188,270.5156 257.7656,270.875 Z " fill="#000000"/><text fill="#000000" font-family="sans-serif" font-size="14" lengthAdjust="spacing" textLength="55" x="269" y="280.7285">Mercado</text><line style="stroke:#181818;stroke-width:0.5;" x1="241" x2="326" y1="291" y2="291"/><line style="stroke:#181818;stroke-width:0.5;" x1="241" x2="326" y1="299" y2="299"/></g><!--class Innovacion--><g id="elem_Innovacion"><rect codeLine="11" fill="#F1F1F1" height="48" id="Innovacion" rx="2.5" ry="2.5" style="stroke:#181818;stroke-width:0.5;" width="100" x="233.5" y="385"/><ellipse cx="248.5" cy="401" fill="#ADD1B2" rx="11" ry="11" style="stroke:#181818;stroke-width:1.0;"/><path d="M251.2656,396.875 Q251.4219,396.6563 251.6094,396.5469 Q251.7969,396.4375 252.0156,396.4375 Q252.3906,396.4375 252.625,396.7031 Q252.8594,396.9531 252.8594,397.5625 L252.8594,399.0156 Q252.8594,399.625 252.625,399.8906 Q252.3906,400.1563 252.0156,400.1563 Q251.6719,400.1563 251.4688,399.9531 Q251.2656,399.7656 251.1563,399.25 Q251.1094,398.8906 250.9219,398.7031 Q250.5938,398.3281 249.9844,398.1094 Q249.375,397.8906 248.75,397.8906 Q247.9844,397.8906 247.3438,398.2188 Q246.7188,398.5469 246.2188,399.2969 Q245.7344,400.0469 245.7344,401.0781 L245.7344,402.1719 Q245.7344,403.4063 246.625,404.2344 Q247.5156,405.0469 249.1094,405.0469 Q250.0469,405.0469 250.7031,404.7969 Q251.0938,404.6406 251.5156,404.2031 Q251.7813,403.9375 251.9219,403.8594 Q252.0781,403.7813 252.2813,403.7813 Q252.6094,403.7813 252.8594,404.0469 Q253.125,404.2969 253.125,404.6406 Q253.125,404.9844 252.7813,405.3906 Q252.2813,405.9688 251.4844,406.2969 Q250.4063,406.75 249.1094,406.75 Q247.5938,406.75 246.3906,406.125 Q245.4063,405.625 244.7188,404.5625 Q244.0313,403.4844 244.0313,402.2031 L244.0313,401.0469 Q244.0313,399.7188 244.6406,398.5781 Q245.2656,397.4219 246.3594,396.8125 Q247.4531,396.1875 248.6875,396.1875 Q249.4219,396.1875 250.0625,396.3594 Q250.7188,396.5156 251.2656,396.875 Z " fill="#000000"/><text fill="#000000" font-family="sans-serif" font-size="14" lengthAdjust="spacing" textLength="68" x="262.5" y="406.7285">Innovacion</text><line style="stroke:#181818;stroke-width:0.5;" x1="234.5" x2="332.5" y1="417" y2="417"/><line style="stroke:#181818;stroke-width:0.5;" x1="234.5" x2="332.5" y1="425" y2="425"/></g><!--link Inventor to Idea--><g id="link_Inventor_Idea"><path codeLine="13" d="M130.95,55.03 C110.25,77.17 83.2183,106.0578 62.4283,128.2878 " fill="none" id="Inventor-to-Idea" style="stroke:#181818;stroke-width:1.0;"/><polygon fill="#181818" points="58.33,132.67,67.399,128.8289,61.7453,129.0182,61.556,123.3645,58.33,132.67" style="stroke:#181818;stroke-width:1.0;"/><text fill="#000000" font-family="sans-serif" font-size="13" lengthAdjust="spacing" textLength="25" x="102.5" y="99.4951">crea</text></g><!--link Inventor to Tecnologia--><g id="link_Inventor_Tecnologia"><path codeLine="14" d="M152.5,55.03 C152.5,77.17 152.5,104.44 152.5,126.67 " fill="none" id="Inventor-to-Tecnologia" style="stroke:#181818;stroke-width:1.0;"/><polygon fill="#181818" points="152.5,132.67,156.5,123.67,152.5,127.67,148.5,123.67,152.5,132.67" style="stroke:#181818;stroke-width:1.0;"/><text fill="#000000" font-family="sans-serif" font-size="13" lengthAdjust="spacing" textLength="34" x="153.5" y="99.4951">utiliza</text></g><!--link Inventor to Prototipo--><g id="link_Inventor_Prototipo"><path codeLine="15" d="M176.83,55.03 C200.21,77.17 231.013,106.3149 254.493,128.5449 " fill="none" id="Inventor-to-Prototipo" style="stroke:#181818;stroke-width:1.0;"/><polygon fill="#181818" points="258.85,132.67,255.0645,123.5777,255.2191,129.2324,249.5644,129.3871,258.85,132.67" style="stroke:#181818;stroke-width:1.0;"/><text fill="#000000" font-family="sans-serif" font-size="13" lengthAdjust="spacing" textLength="56" x="226.5" y="99.4951">desarrolla</text></g><!--link Prototipo to Mercado--><g id="link_Prototipo_Mercado"><path codeLine="16" d="M283.5,181.03 C283.5,203.17 283.5,230.44 283.5,252.67 " fill="none" id="Prototipo-to-Mercado" style="stroke:#181818;stroke-width:1.0;"/><polygon fill="#181818" points="283.5,258.67,287.5,249.67,283.5,253.67,279.5,249.67,283.5,258.67" style="stroke:#181818;stroke-width:1.0;"/><text fill="#000000" font-family="sans-serif" font-size="13" lengthAdjust="spacing" textLength="61" x="284.5" y="225.4951">presenta a</text></g><!--link Mercado to Innovacion--><g id="link_Mercado_Innovacion"><path codeLine="17" d="M283.5,307.03 C283.5,329.17 283.5,356.44 283.5,378.67 " fill="none" id="Mercado-to-Innovacion" style="stroke:#181818;stroke-width:1.0;"/><polygon fill="#181818" points="283.5,384.67,287.5,375.67,283.5,379.67,279.5,375.67,283.5,384.67" style="stroke:#181818;stroke-width:1.0;"/><text fill="#000000" font-family="sans-serif" font-size="13" lengthAdjust="spacing" textLength="39" x="284.5" y="351.4951">genera</text></g><!--SRC=[NOun2iCm34Ltdy9upmKwTCzGo90B25a4Wv62x6RewMkbjKExILzF_t_CK8gV-I2keixXPuy4VLu9MR9iQIYBIfMQTkd2WnGXZdLcbWCm2JlNdVqqtKzRV_C1bI3ydguK0vurvVJwPqQk8P4Ag4hEZReEXdtR6BGhbVOFla5TFekCXaPjnAGGtW00]--></g></svg>