<svg xmlns="http://www.w3.org/2000/svg" xmlns:xlink="http://www.w3.org/1999/xlink" contentStyleType="text/css" height="312px" preserveAspectRatio="none" style="width:247px;height:312px;background:#FFFFFF;" version="1.1" viewBox="0 0 247 312" width="247px" zoomAndPan="magnify"><defs/><g><!--class Producto--><g id="elem_Producto"><rect codeLine="1" fill="#F1F1F1" height="48" id="Producto" rx="2.5" ry="2.5" style="stroke:#181818;stroke-width:0.5;" width="94.2754" x="72.95" y="132"/><ellipse cx="87.95" cy="148" fill="#ADD1B2" rx="11" ry="11" style="stroke:#181818;stroke-width:1.0;"/><path d="M90.9188,153.6406 Q90.3406,153.9375 89.7,154.0781 Q89.0594,154.2344 88.3563,154.2344 Q85.8563,154.2344 84.5281,152.5938 Q83.2156,150.9375 83.2156,147.8125 Q83.2156,144.6875 84.5281,143.0313 Q85.8563,141.375 88.3563,141.375 Q89.0594,141.375 89.7,141.5313 Q90.3563,141.6875 90.9188,141.9844 L90.9188,144.7031 Q90.2938,144.125 89.7,143.8594 Q89.1063,143.5781 88.4813,143.5781 Q87.1375,143.5781 86.45,144.6563 Q85.7625,145.7188 85.7625,147.8125 Q85.7625,149.9063 86.45,150.9844 Q87.1375,152.0469 88.4813,152.0469 Q89.1063,152.0469 89.7,151.7813 Q90.2938,151.5 90.9188,150.9219 L90.9188,153.6406 Z " fill="#000000"/><text fill="#000000" font-family="sans-serif" font-size="14" lengthAdjust="spacing" textLength="62.2754" x="101.95" y="152.8467">Producto</text><line style="stroke:#181818;stroke-width:0.5;" x1="73.95" x2="166.2254" y1="164" y2="164"/><line style="stroke:#181818;stroke-width:0.5;" x1="73.95" x2="166.2254" y1="172" y2="172"/></g><!--class Comprador--><g id="elem_Comprador"><rect codeLine="3" fill="#F1F1F1" height="48" id="Comprador" rx="2.5" ry="2.5" style="stroke:#181818;stroke-width:0.5;" width="110.4082" x="64.88" y="257"/><ellipse cx="79.88" cy="273" fill="#ADD1B2" rx="11" ry="11" style="stroke:#181818;stroke-width:1.0;"/><path d="M82.8488,278.6406 Q82.2706,278.9375 81.63,279.0781 Q80.9894,279.2344 80.2863,279.2344 Q77.7863,279.2344 76.4581,277.5938 Q75.1456,275.9375 75.1456,272.8125 Q75.1456,269.6875 76.4581,268.0313 Q77.7863,266.375 80.2863,266.375 Q80.9894,266.375 81.63,266.5313 Q82.2863,266.6875 82.8488,266.9844 L82.8488,269.7031 Q82.2238,269.125 81.63,268.8594 Q81.0363,268.5781 80.4113,268.5781 Q79.0675,268.5781 78.38,269.6563 Q77.6925,270.7188 77.6925,272.8125 Q77.6925,274.9063 78.38,275.9844 Q79.0675,277.0469 80.4113,277.0469 Q81.0363,277.0469 81.63,276.7813 Q82.2238,276.5 82.8488,275.9219 L82.8488,278.6406 Z " fill="#000000"/><text fill="#000000" font-family="sans-serif" font-size="14" lengthAdjust="spacing" textLength="78.4082" x="93.88" y="277.8467">Comprador</text><line style="stroke:#181818;stroke-width:0.5;" x1="65.88" x2="174.2882" y1="289" y2="289"/><line style="stroke:#181818;stroke-width:0.5;" x1="65.88" x2="174.2882" y1="297" y2="297"/></g><!--class Mercado--><g id="elem_Mercado"><rect codeLine="5" fill="#F1F1F1" height="48" id="Mercado" rx="2.5" ry="2.5" style="stroke:#181818;stroke-width:0.5;" width="92.1768" x="7" y="7"/><ellipse cx="22" cy="23" fill="#ADD1B2" rx="11" ry="11" style="stroke:#181818;stroke-width:1.0;"/><path d="M24.9688,28.6406 Q24.3906,28.9375 23.75,29.0781 Q23.1094,29.2344 22.4063,29.2344 Q19.9063,29.2344 18.5781,27.5938 Q17.2656,25.9375 17.2656,22.8125 Q17.2656,19.6875 18.5781,18.0313 Q19.9063,16.375 22.4063,16.375 Q23.1094,16.375 23.75,16.5313 Q24.4063,16.6875 24.9688,16.9844 L24.9688,19.7031 Q24.3438,19.125 23.75,18.8594 Q23.1563,18.5781 22.5313,18.5781 Q21.1875,18.5781 20.5,19.6563 Q19.8125,20.7188 19.8125,22.8125 Q19.8125,24.9063 20.5,25.9844 Q21.1875,27.0469 22.5313,27.0469 Q23.1563,27.0469 23.75,26.7813 Q24.3438,26.5 24.9688,25.9219 L24.9688,28.6406 Z " fill="#000000"/><text fill="#000000" font-family="sans-serif" font-size="14" lengthAdjust="spacing" textLength="60.1768" x="36" y="27.8467">Mercado</text><line style="stroke:#181818;stroke-width:0.5;" x1="8" x2="98.1768" y1="39" y2="39"/><line style="stroke:#181818;stroke-width:0.5;" x1="8" x2="98.1768" y1="47" y2="47"/></g><!--class Fabricante--><g id="elem_Fabricante"><rect codeLine="7" fill="#F1F1F1" height="48" id="Fabricante" rx="2.5" ry="2.5" style="stroke:#181818;stroke-width:0.5;" width="106.416" x="133.88" y="7"/><ellipse cx="148.88" cy="23" fill="#ADD1B2" rx="11" ry="11" style="stroke:#181818;stroke-width:1.0;"/><path d="M151.8488,28.6406 Q151.2706,28.9375 150.63,29.0781 Q149.9894,29.2344 149.2863,29.2344 Q146.7863,29.2344 145.4581,27.5938 Q144.1456,25.9375 144.1456,22.8125 Q144.1456,19.6875 145.4581,18.0313 Q146.7863,16.375 149.2863,16.375 Q149.9894,16.375 150.63,16.5313 Q151.2863,16.6875 151.8488,16.9844 L151.8488,19.7031 Q151.2238,19.125 150.63,18.8594 Q150.0363,18.5781 149.4113,18.5781 Q148.0675,18.5781 147.38,19.6563 Q146.6925,20.7188 146.6925,22.8125 Q146.6925,24.9063 147.38,25.9844 Q148.0675,27.0469 149.4113,27.0469 Q150.0363,27.0469 150.63,26.7813 Q151.2238,26.5 151.8488,25.9219 L151.8488,28.6406 Z " fill="#000000"/><text fill="#000000" font-family="sans-serif" font-size="14" lengthAdjust="spacing" textLength="74.416" x="162.88" y="27.8467">Fabricante</text><line style="stroke:#181818;stroke-width:0.5;" x1="134.88" x2="239.296" y1="39" y2="39"/><line style="stroke:#181818;stroke-width:0.5;" x1="134.88" x2="239.296" y1="47" y2="47"/></g><!--link Producto to Comprador--><g id="link_Producto_Comprador"><path codeLine="9" d="M120.09,180.42 C120.09,202.31 120.09,228.8 120.09,250.66 " fill="none" id="Producto-to-Comprador" style="stroke:#181818;stroke-width:1.0;"/><polygon fill="#181818" points="120.09,256.66,124.09,247.66,120.09,251.66,116.09,247.66,120.09,256.66" style="stroke:#181818;stroke-width:1.0;"/><text fill="#000000" font-family="sans-serif" font-size="13" lengthAdjust="spacing" textLength="110.1191" x="121.09" y="223.0669">es comprado por</text></g><!--link Mercado to Producto--><g id="link_Mercado_Producto"><path codeLine="10" d="M65.85,55.42 C77.77,77.31 92.5994,104.5312 104.5094,126.3912 " fill="none" id="Mercado-to-Producto" style="stroke:#181818;stroke-width:1.0;"/><polygon fill="#181818" points="107.38,131.66,106.5866,121.8431,104.9879,127.2694,99.5616,125.6706,107.38,131.66" style="stroke:#181818;stroke-width:1.0;"/><text fill="#000000" font-family="sans-serif" font-size="13" lengthAdjust="spacing" textLength="40.1807" x="92.09" y="98.0669">vende</text></g><!--link Fabricante to Producto--><g id="link_Fabricante_Producto"><path codeLine="11" d="M174.33,55.42 C162.41,77.31 147.5806,104.5312 135.6706,126.3912 " fill="none" id="Fabricante-to-Producto" style="stroke:#181818;stroke-width:1.0;"/><polygon fill="#181818" points="132.8,131.66,140.6184,125.6706,135.1921,127.2694,133.5934,121.8431,132.8,131.66" style="stroke:#181818;stroke-width:1.0;"/><text fill="#000000" font-family="sans-serif" font-size="13" lengthAdjust="spacing" textLength="44.8652" x="158.09" y="98.0669">fabrica</text></g><!--SRC=[Iyv9B2vM22ZAJobDBibNuE9A1Wiuv-SM52Mcv1V117nJYvA1VBW2jyIaeipanBoIL2ukk6vTNJk4JYk5r6A5P2XFeG1e5CmCa3A4bLOAPQbvAQbS21F12f3aqo0o0000]--></g></svg>