<svg xmlns="http://www.w3.org/2000/svg" xmlns:xlink="http://www.w3.org/1999/xlink" contentStyleType="text/css" height="734px" preserveAspectRatio="none" style="width:591px;height:734px;background:#FFFFFF;" version="1.1" viewBox="0 0 591 734" width="591px" zoomAndPan="magnify"><defs/><g><ellipse cx="240.16" cy="16" fill="#222222" rx="10" ry="10" style="stroke:#222222;stroke-width:1.0;"/><g id="Concepto"><rect fill="#F1F1F1" height="50" rx="12.5" ry="12.5" style="stroke:#181818;stroke-width:0.5;" width="86.4658" x="196.93" y="87"/><line style="stroke:#181818;stroke-width:0.5;" x1="196.93" x2="283.3958" y1="113.2969" y2="113.2969"/><text fill="#000000" font-family="sans-serif" font-size="14" lengthAdjust="spacing" textLength="66.4658" x="206.93" y="104.9951">Concepto</text></g><g id="Dise&#241;o"><rect fill="#F1F1F1" height="50" rx="12.5" ry="12.5" style="stroke:#181818;stroke-width:0.5;" width="68.0156" x="206.15" y="214"/><line style="stroke:#181818;stroke-width:0.5;" x1="206.15" x2="274.1656" y1="240.2969" y2="240.2969"/><text fill="#000000" font-family="sans-serif" font-size="14" lengthAdjust="spacing" textLength="48.0156" x="216.15" y="231.9951">Dise&#241;o</text></g><g id="Producci&#243;n"><rect fill="#F1F1F1" height="50" rx="12.5" ry="12.5" style="stroke:#181818;stroke-width:0.5;" width="97.2461" x="191.54" y="341"/><line style="stroke:#181818;stroke-width:0.5;" x1="191.54" x2="288.7861" y1="367.2969" y2="367.2969"/><text fill="#000000" font-family="sans-serif" font-size="14" lengthAdjust="spacing" textLength="77.2461" x="201.54" y="358.9951">Producci&#243;n</text></g><g id="EnVenta"><rect fill="#F1F1F1" height="50" rx="12.5" ry="12.5" style="stroke:#181818;stroke-width:0.5;" width="78.8506" x="200.74" y="468"/><line style="stroke:#181818;stroke-width:0.5;" x1="200.74" x2="279.5906" y1="494.2969" y2="494.2969"/><text fill="#000000" font-family="sans-serif" font-size="14" lengthAdjust="spacing" textLength="58.8506" x="210.74" y="485.9951">EnVenta</text></g><g id="Obsoleto"><rect fill="#F1F1F1" height="50" rx="12.5" ry="12.5" style="stroke:#181818;stroke-width:0.5;" width="82.3232" x="7" y="595"/><line style="stroke:#181818;stroke-width:0.5;" x1="7" x2="89.3232" y1="621.2969" y2="621.2969"/><text fill="#000000" font-family="sans-serif" font-size="14" lengthAdjust="spacing" textLength="62.3232" x="17" y="612.9951">Obsoleto</text></g><ellipse cx="105.16" cy="717" fill="none" rx="11" ry="11" style="stroke:#222222;stroke-width:1.0;"/><ellipse cx="105.16" cy="717" fill="#222222" rx="6" ry="6" style="stroke:#222222;stroke-width:1.0;"/><g id="Retirado"><rect fill="#F1F1F1" height="50" rx="12.5" ry="12.5" style="stroke:#181818;stroke-width:0.5;" width="79.5068" x="124.41" y="595"/><line style="stroke:#181818;stroke-width:0.5;" x1="124.41" x2="203.9168" y1="621.2969" y2="621.2969"/><text fill="#000000" font-family="sans-serif" font-size="14" lengthAdjust="spacing" textLength="59.5068" x="134.41" y="612.9951">Retirado</text></g><g id="Actualizaci&#243;n"><rect fill="#F1F1F1" height="50" rx="12.5" ry="12.5" style="stroke:#181818;stroke-width:0.5;" width="112.9482" x="327.69" y="595"/><line style="stroke:#181818;stroke-width:0.5;" x1="327.69" x2="440.6382" y1="621.2969" y2="621.2969"/><text fill="#000000" font-family="sans-serif" font-size="14" lengthAdjust="spacing" textLength="92.9482" x="337.69" y="612.9951">Actualizaci&#243;n</text></g><!--link *start* to Concepto--><g id="link_*start*_Concepto"><path d="M240.16,26.36 C240.16,40.29 240.16,60.95 240.16,80.65 " fill="none" id="*start*-to-Concepto" style="stroke:#181818;stroke-width:1.0;"/><polygon fill="#181818" points="240.16,86.65,244.16,77.65,240.16,81.65,236.16,77.65,240.16,86.65" style="stroke:#181818;stroke-width:1.0;"/></g><!--link Concepto to Dise?o--><g id="link_Concepto_Dise&#241;o"><path d="M240.16,137.4 C240.16,159.42 240.16,185.66 240.16,207.66 " fill="none" id="Concepto-to-Dise&#241;o" style="stroke:#181818;stroke-width:1.0;"/><polygon fill="#181818" points="240.16,213.66,244.16,204.66,240.16,208.66,236.16,204.66,240.16,213.66" style="stroke:#181818;stroke-width:1.0;"/><text fill="#000000" font-family="sans-serif" font-size="13" lengthAdjust="spacing" textLength="72.687" x="241.16" y="180.0669">aprobaci&#243;n</text></g><!--link Dise?o to Producci?n--><g id="link_Dise&#241;o_Producci&#243;n"><path d="M240.16,264.4 C240.16,286.42 240.16,312.66 240.16,334.66 " fill="none" id="Dise&#241;o-to-Producci&#243;n" style="stroke:#181818;stroke-width:1.0;"/><polygon fill="#181818" points="240.16,340.66,244.16,331.66,240.16,335.66,236.16,331.66,240.16,340.66" style="stroke:#181818;stroke-width:1.0;"/><text fill="#000000" font-family="sans-serif" font-size="13" lengthAdjust="spacing" textLength="120.3198" x="241.16" y="307.0669">finalizaci&#243;n dise&#241;o</text></g><!--link Producci?n to EnVenta--><g id="link_Producci&#243;n_EnVenta"><path d="M240.16,391.4 C240.16,413.42 240.16,439.66 240.16,461.66 " fill="none" id="Producci&#243;n-to-EnVenta" style="stroke:#181818;stroke-width:1.0;"/><polygon fill="#181818" points="240.16,467.66,244.16,458.66,240.16,462.66,236.16,458.66,240.16,467.66" style="stroke:#181818;stroke-width:1.0;"/><text fill="#000000" font-family="sans-serif" font-size="13" lengthAdjust="spacing" textLength="170.0156" x="241.16" y="434.0669">finalizaci&#243;n de producci&#243;n</text></g><!--link EnVenta to Obsoleto--><g id="link_EnVenta_Obsoleto"><path d="M200.58,497.33 C163.7,502.43 109.4,515.34 75.16,548 C62.28,560.29 56.8406,573.5163 53.2806,588.8063 " fill="none" id="EnVenta-to-Obsoleto" style="stroke:#181818;stroke-width:1.0;"/><polygon fill="#181818" points="51.92,594.65,57.8567,586.7915,53.0538,589.7803,50.0651,584.9774,51.92,594.65" style="stroke:#181818;stroke-width:1.0;"/><text fill="#000000" font-family="sans-serif" font-size="13" lengthAdjust="spacing" textLength="70.4146" x="76.16" y="561.0669">fin de ciclo</text></g><!--link Obsoleto to *end*--><g id="link_Obsoleto_*end*"><path d="M62.84,645.46 C74.98,665.7 88.4436,688.1347 96.7936,702.0547 " fill="none" id="Obsoleto-to-*end*" style="stroke:#181818;stroke-width:1.0;"/><polygon fill="#181818" points="99.88,707.2,98.6805,697.4245,97.308,702.9123,91.8202,701.5397,99.88,707.2" style="stroke:#181818;stroke-width:1.0;"/></g><!--link EnVenta to Retirado--><g id="link_EnVenta_Retirado"><path d="M200.64,510.54 C185.09,519.24 168.89,531.58 160.16,548 C152.63,562.17 152.5734,574.3826 155.5234,588.7526 " fill="none" id="EnVenta-to-Retirado" style="stroke:#181818;stroke-width:1.0;"/><polygon fill="#181818" points="156.73,594.63,158.8384,585.0095,155.7245,589.7321,151.0019,586.6182,156.73,594.63" style="stroke:#181818;stroke-width:1.0;"/><text fill="#000000" font-family="sans-serif" font-size="13" lengthAdjust="spacing" textLength="113.4517" x="161.16" y="561.0669">decisi&#243;n de retiro</text></g><!--link Retirado to *end*--><g id="link_Retirado_*end*"><path d="M148.97,645.46 C136.4,665.7 122.4342,688.1822 113.7942,702.1022 " fill="none" id="Retirado-to-*end*" style="stroke:#181818;stroke-width:1.0;"/><polygon fill="#181818" points="110.63,707.2,118.7748,701.6627,113.2668,702.9518,111.9777,697.4438,110.63,707.2" style="stroke:#181818;stroke-width:1.0;"/></g><!--link EnVenta to Actualizaci?n--><g id="link_EnVenta_Actualizaci&#243;n"><path d="M264.62,518.27 C279.02,532.27 297.77,550.02 315.16,565 C326.8,575.03 335.2545,581.8784 346.9645,590.9384 " fill="none" id="EnVenta-to-Actualizaci&#243;n" style="stroke:#181818;stroke-width:1.0;"/><polygon fill="#181818" points="351.71,594.61,347.0395,585.939,347.7554,591.5504,342.1441,592.2663,351.71,594.61" style="stroke:#181818;stroke-width:1.0;"/><text fill="#000000" font-family="sans-serif" font-size="13" lengthAdjust="spacing" textLength="91.8823" x="316.16" y="561.0669">nueva versi&#243;n</text></g><!--link Actualizaci?n to EnVenta--><g id="link_Actualizaci&#243;n_EnVenta"><path d="M405.02,594.76 C414.86,580.26 422.43,561.99 412.16,548 C381.97,506.88 326.4803,496.5702 285.8003,494.2602 " fill="none" id="Actualizaci&#243;n-to-EnVenta" style="stroke:#181818;stroke-width:1.0;"/><polygon fill="#181818" points="279.81,493.92,288.5688,498.4238,284.802,494.2035,289.0223,490.4367,279.81,493.92" style="stroke:#181818;stroke-width:1.0;"/><text fill="#000000" font-family="sans-serif" font-size="13" lengthAdjust="spacing" textLength="166.4229" x="417.16" y="561.0669">actualizaci&#243;n completada</text></g><!--SRC=[ROyn3i8m34Ltdy9pfLwW0n82PX032-hW9aQALE8eJJjmAyGHUZ6QLYaji4N_l-VOrwp4FD_WJgnY5mJIOqptfk7-ALWWEIyLATE_BAGq4YSlkbLZFb0tOwasZub3FN6mPA9pi1UsWNvvHlT18M5HELQDr1naSYAfZAe5vZn2rwo4bNNcO3pfQ6bMfac_-9WBpFLVUQj2krYkGDjoHzYn7-V0Lxy-ZDQbahiRrYHDRm00]--></g></svg>