<?xml version="1.0" encoding="us-ascii" standalone="no"?><svg xmlns="http://www.w3.org/2000/svg" xmlns:xlink="http://www.w3.org/1999/xlink" contentStyleType="text/css" height="566px" preserveAspectRatio="none" style="width:135px;height:566px;background:#FFFFFF;" version="1.1" viewBox="0 0 135 566" width="135px" zoomAndPan="magnify"><defs/><g><!--class Decisi?n--><g id="elem_Decisi&#243;n"><rect codeLine="2" fill="#F1F1F1" height="48" id="Decisi&#243;n" rx="2.5" ry="2.5" style="stroke:#181818;stroke-width:0.5;" width="86" x="12" y="511"/><ellipse cx="27" cy="527" fill="#ADD1B2" rx="11" ry="11" style="stroke:#181818;stroke-width:1.0;"/><path d="M29.7656,522.875 Q29.9219,522.6563 30.1094,522.5469 Q30.2969,522.4375 30.5156,522.4375 Q30.8906,522.4375 31.125,522.7031 Q31.3594,522.9531 31.3594,523.5625 L31.3594,525.0156 Q31.3594,525.625 31.125,525.8906 Q30.8906,526.1563 30.5156,526.1563 Q30.1719,526.1563 29.9688,525.9531 Q29.7656,525.7656 29.6563,525.25 Q29.6094,524.8906 29.4219,524.7031 Q29.0938,524.3281 28.4844,524.1094 Q27.875,523.8906 27.25,523.8906 Q26.4844,523.8906 25.8438,524.2188 Q25.2188,524.5469 24.7188,525.2969 Q24.2344,526.0469 24.2344,527.0781 L24.2344,528.1719 Q24.2344,529.4063 25.125,530.2344 Q26.0156,531.0469 27.6094,531.0469 Q28.5469,531.0469 29.2031,530.7969 Q29.5938,530.6406 30.0156,530.2031 Q30.2813,529.9375 30.4219,529.8594 Q30.5781,529.7813 30.7813,529.7813 Q31.1094,529.7813 31.3594,530.0469 Q31.625,530.2969 31.625,530.6406 Q31.625,530.9844 31.2813,531.3906 Q30.7813,531.9688 29.9844,532.2969 Q28.9063,532.75 27.6094,532.75 Q26.0938,532.75 24.8906,532.125 Q23.9063,531.625 23.2188,530.5625 Q22.5313,529.4844 22.5313,528.2031 L22.5313,527.0469 Q22.5313,525.7188 23.1406,524.5781 Q23.7656,523.4219 24.8594,522.8125 Q25.9531,522.1875 27.1875,522.1875 Q27.9219,522.1875 28.5625,522.3594 Q29.2188,522.5156 29.7656,522.875 Z " fill="#000000"/><text fill="#000000" font-family="sans-serif" font-size="14" lengthAdjust="spacing" textLength="54" x="41" y="532.7285">Decisi&#243;n</text><line style="stroke:#181818;stroke-width:0.5;" x1="13" x2="97" y1="543" y2="543"/><line style="stroke:#181818;stroke-width:0.5;" x1="13" x2="97" y1="551" y2="551"/></g><!--class Decisor--><g id="elem_Decisor"><rect codeLine="3" fill="#F1F1F1" height="48" id="Decisor" rx="2.5" ry="2.5" style="stroke:#181818;stroke-width:0.5;" width="80" x="15" y="7"/><ellipse cx="30" cy="23" fill="#ADD1B2" rx="11" ry="11" style="stroke:#181818;stroke-width:1.0;"/><path d="M32.7656,18.875 Q32.9219,18.6563 33.1094,18.5469 Q33.2969,18.4375 33.5156,18.4375 Q33.8906,18.4375 34.125,18.7031 Q34.3594,18.9531 34.3594,19.5625 L34.3594,21.0156 Q34.3594,21.625 34.125,21.8906 Q33.8906,22.1563 33.5156,22.1563 Q33.1719,22.1563 32.9688,21.9531 Q32.7656,21.7656 32.6563,21.25 Q32.6094,20.8906 32.4219,20.7031 Q32.0938,20.3281 31.4844,20.1094 Q30.875,19.8906 30.25,19.8906 Q29.4844,19.8906 28.8438,20.2188 Q28.2188,20.5469 27.7188,21.2969 Q27.2344,22.0469 27.2344,23.0781 L27.2344,24.1719 Q27.2344,25.4063 28.125,26.2344 Q29.0156,27.0469 30.6094,27.0469 Q31.5469,27.0469 32.2031,26.7969 Q32.5938,26.6406 33.0156,26.2031 Q33.2813,25.9375 33.4219,25.8594 Q33.5781,25.7813 33.7813,25.7813 Q34.1094,25.7813 34.3594,26.0469 Q34.625,26.2969 34.625,26.6406 Q34.625,26.9844 34.2813,27.3906 Q33.7813,27.9688 32.9844,28.2969 Q31.9063,28.75 30.6094,28.75 Q29.0938,28.75 27.8906,28.125 Q26.9063,27.625 26.2188,26.5625 Q25.5313,25.4844 25.5313,24.2031 L25.5313,23.0469 Q25.5313,21.7188 26.1406,20.5781 Q26.7656,19.4219 27.8594,18.8125 Q28.9531,18.1875 30.1875,18.1875 Q30.9219,18.1875 31.5625,18.3594 Q32.2188,18.5156 32.7656,18.875 Z " fill="#000000"/><text fill="#000000" font-family="sans-serif" font-size="14" lengthAdjust="spacing" textLength="48" x="44" y="28.7285">Decisor</text><line style="stroke:#181818;stroke-width:0.5;" x1="16" x2="94" y1="39" y2="39"/><line style="stroke:#181818;stroke-width:0.5;" x1="16" x2="94" y1="47" y2="47"/></g><!--class Opciones--><g id="elem_Opciones"><rect codeLine="4" fill="#F1F1F1" height="48" id="Opciones" rx="2.5" ry="2.5" style="stroke:#181818;stroke-width:0.5;" width="92" x="9" y="133"/><ellipse cx="24" cy="149" fill="#ADD1B2" rx="11" ry="11" style="stroke:#181818;stroke-width:1.0;"/><path d="M26.7656,144.875 Q26.9219,144.6563 27.1094,144.5469 Q27.2969,144.4375 27.5156,144.4375 Q27.8906,144.4375 28.125,144.7031 Q28.3594,144.9531 28.3594,145.5625 L28.3594,147.0156 Q28.3594,147.625 28.125,147.8906 Q27.8906,148.1563 27.5156,148.1563 Q27.1719,148.1563 26.9688,147.9531 Q26.7656,147.7656 26.6563,147.25 Q26.6094,146.8906 26.4219,146.7031 Q26.0938,146.3281 25.4844,146.1094 Q24.875,145.8906 24.25,145.8906 Q23.4844,145.8906 22.8438,146.2188 Q22.2188,146.5469 21.7188,147.2969 Q21.2344,148.0469 21.2344,149.0781 L21.2344,150.1719 Q21.2344,151.4063 22.125,152.2344 Q23.0156,153.0469 24.6094,153.0469 Q25.5469,153.0469 26.2031,152.7969 Q26.5938,152.6406 27.0156,152.2031 Q27.2813,151.9375 27.4219,151.8594 Q27.5781,151.7813 27.7813,151.7813 Q28.1094,151.7813 28.3594,152.0469 Q28.625,152.2969 28.625,152.6406 Q28.625,152.9844 28.2813,153.3906 Q27.7813,153.9688 26.9844,154.2969 Q25.9063,154.75 24.6094,154.75 Q23.0938,154.75 21.8906,154.125 Q20.9063,153.625 20.2188,152.5625 Q19.5313,151.4844 19.5313,150.2031 L19.5313,149.0469 Q19.5313,147.7188 20.1406,146.5781 Q20.7656,145.4219 21.8594,144.8125 Q22.9531,144.1875 24.1875,144.1875 Q24.9219,144.1875 25.5625,144.3594 Q26.2188,144.5156 26.7656,144.875 Z " fill="#000000"/><text fill="#000000" font-family="sans-serif" font-size="14" lengthAdjust="spacing" textLength="60" x="38" y="154.7285">Opciones</text><line style="stroke:#181818;stroke-width:0.5;" x1="10" x2="100" y1="165" y2="165"/><line style="stroke:#181818;stroke-width:0.5;" x1="10" x2="100" y1="173" y2="173"/></g><!--class Criterios--><g id="elem_Criterios"><rect codeLine="5" fill="#F1F1F1" height="48" id="Criterios" rx="2.5" ry="2.5" style="stroke:#181818;stroke-width:0.5;" width="85" x="12.5" y="259"/><ellipse cx="27.5" cy="275" fill="#ADD1B2" rx="11" ry="11" style="stroke:#181818;stroke-width:1.0;"/><path d="M30.2656,270.875 Q30.4219,270.6563 30.6094,270.5469 Q30.7969,270.4375 31.0156,270.4375 Q31.3906,270.4375 31.625,270.7031 Q31.8594,270.9531 31.8594,271.5625 L31.8594,273.0156 Q31.8594,273.625 31.625,273.8906 Q31.3906,274.1563 31.0156,274.1563 Q30.6719,274.1563 30.4688,273.9531 Q30.2656,273.7656 30.1563,273.25 Q30.1094,272.8906 29.9219,272.7031 Q29.5938,272.3281 28.9844,272.1094 Q28.375,271.8906 27.75,271.8906 Q26.9844,271.8906 26.3438,272.2188 Q25.7188,272.5469 25.2188,273.2969 Q24.7344,274.0469 24.7344,275.0781 L24.7344,276.1719 Q24.7344,277.4063 25.625,278.2344 Q26.5156,279.0469 28.1094,279.0469 Q29.0469,279.0469 29.7031,278.7969 Q30.0938,278.6406 30.5156,278.2031 Q30.7813,277.9375 30.9219,277.8594 Q31.0781,277.7813 31.2813,277.7813 Q31.6094,277.7813 31.8594,278.0469 Q32.125,278.2969 32.125,278.6406 Q32.125,278.9844 31.7813,279.3906 Q31.2813,279.9688 30.4844,280.2969 Q29.4063,280.75 28.1094,280.75 Q26.5938,280.75 25.3906,280.125 Q24.4063,279.625 23.7188,278.5625 Q23.0313,277.4844 23.0313,276.2031 L23.0313,275.0469 Q23.0313,273.7188 23.6406,272.5781 Q24.2656,271.4219 25.3594,270.8125 Q26.4531,270.1875 27.6875,270.1875 Q28.4219,270.1875 29.0625,270.3594 Q29.7188,270.5156 30.2656,270.875 Z " fill="#000000"/><text fill="#000000" font-family="sans-serif" font-size="14" lengthAdjust="spacing" textLength="53" x="41.5" y="280.7285">Criterios</text><line style="stroke:#181818;stroke-width:0.5;" x1="13.5" x2="96.5" y1="291" y2="291"/><line style="stroke:#181818;stroke-width:0.5;" x1="13.5" x2="96.5" y1="299" y2="299"/></g><!--class Resultado--><g id="elem_Resultado"><rect codeLine="6" fill="#F1F1F1" height="48" id="Resultado" rx="2.5" ry="2.5" style="stroke:#181818;stroke-width:0.5;" width="96" x="7" y="385"/><ellipse cx="22" cy="401" fill="#ADD1B2" rx="11" ry="11" style="stroke:#181818;stroke-width:1.0;"/><path d="M24.7656,396.875 Q24.9219,396.6563 25.1094,396.5469 Q25.2969,396.4375 25.5156,396.4375 Q25.8906,396.4375 26.125,396.7031 Q26.3594,396.9531 26.3594,397.5625 L26.3594,399.0156 Q26.3594,399.625 26.125,399.8906 Q25.8906,400.1563 25.5156,400.1563 Q25.1719,400.1563 24.9688,399.9531 Q24.7656,399.7656 24.6563,399.25 Q24.6094,398.8906 24.4219,398.7031 Q24.0938,398.3281 23.4844,398.1094 Q22.875,397.8906 22.25,397.8906 Q21.4844,397.8906 20.8438,398.2188 Q20.2188,398.5469 19.7188,399.2969 Q19.2344,400.0469 19.2344,401.0781 L19.2344,402.1719 Q19.2344,403.4063 20.125,404.2344 Q21.0156,405.0469 22.6094,405.0469 Q23.5469,405.0469 24.2031,404.7969 Q24.5938,404.6406 25.0156,404.2031 Q25.2813,403.9375 25.4219,403.8594 Q25.5781,403.7813 25.7813,403.7813 Q26.1094,403.7813 26.3594,404.0469 Q26.625,404.2969 26.625,404.6406 Q26.625,404.9844 26.2813,405.3906 Q25.7813,405.9688 24.9844,406.2969 Q23.9063,406.75 22.6094,406.75 Q21.0938,406.75 19.8906,406.125 Q18.9063,405.625 18.2188,404.5625 Q17.5313,403.4844 17.5313,402.2031 L17.5313,401.0469 Q17.5313,399.7188 18.1406,398.5781 Q18.7656,397.4219 19.8594,396.8125 Q20.9531,396.1875 22.1875,396.1875 Q22.9219,396.1875 23.5625,396.3594 Q24.2188,396.5156 24.7656,396.875 Z " fill="#000000"/><text fill="#000000" font-family="sans-serif" font-size="14" lengthAdjust="spacing" textLength="64" x="36" y="406.7285">Resultado</text><line style="stroke:#181818;stroke-width:0.5;" x1="8" x2="102" y1="417" y2="417"/><line style="stroke:#181818;stroke-width:0.5;" x1="8" x2="102" y1="425" y2="425"/></g><!--link Decisor to Opciones--><g id="link_Decisor_Opciones"><path codeLine="8" d="M55,55.03 C55,77.17 55,110.44 55,132.67 " fill="none" id="Decisor-Opciones" style="stroke:#181818;stroke-width:1.0;"/><text fill="#000000" font-family="sans-serif" font-size="13" lengthAdjust="spacing" textLength="36" x="56" y="99.4951">eval&#250;a</text></g><!--link Opciones to Criterios--><g id="link_Opciones_Criterios"><path codeLine="9" d="M55,181.03 C55,203.17 55,236.44 55,258.67 " fill="none" id="Opciones-Criterios" style="stroke:#181818;stroke-width:1.0;"/><text fill="#000000" font-family="sans-serif" font-size="13" lengthAdjust="spacing" textLength="71" x="56" y="225.4951">se filtran por</text></g><!--link Criterios to Resultado--><g id="link_Criterios_Resultado"><path codeLine="10" d="M55,307.03 C55,329.17 55,362.44 55,384.67 " fill="none" id="Criterios-Resultado" style="stroke:#181818;stroke-width:1.0;"/><text fill="#000000" font-family="sans-serif" font-size="13" lengthAdjust="spacing" textLength="64" x="56" y="351.4951">determinan</text></g><!--link Resultado to Decisi?n--><g id="link_Resultado_Decisi&#243;n"><path codeLine="11" d="M55,433.03 C55,455.17 55,488.44 55,510.67 " fill="none" id="Resultado-Decisi&#243;n" style="stroke:#181818;stroke-width:1.0;"/><text fill="#000000" font-family="sans-serif" font-size="13" lengthAdjust="spacing" textLength="46" x="56" y="477.4951">produce</text></g><!--SRC=[HOwn3SCm30HxJi45l43Qf0-G3GYA0GWeaa3ANinTMYyM5efK_l_zavp97H_2wdgT1NZfQaCz6sijuaFUJRkOrhz-YU-vKwe0euVRDajuGpaeNr-2QKKyHo9tmRVcRbImnT4L1JV7WqiI_aSB5LXsCFFxO9hLjBF03m00]--></g></svg>