<svg xmlns="http://www.w3.org/2000/svg" xmlns:xlink="http://www.w3.org/1999/xlink" contentStyleType="text/css" height="593px" preserveAspectRatio="none" style="width:451px;height:593px;background:#FFFFFF;" version="1.1" viewBox="0 0 451 593" width="451px" zoomAndPan="magnify"><defs/><g><!--class Votante--><g id="elem_Votante"><rect codeLine="1" fill="#F1F1F1" height="48" id="Votante" rx="2.5" ry="2.5" style="stroke:#181818;stroke-width:0.5;" width="87.1865" x="85.82" y="7"/><ellipse cx="100.82" cy="23" fill="#ADD1B2" rx="11" ry="11" style="stroke:#181818;stroke-width:1.0;"/><path d="M103.7888,28.6406 Q103.2106,28.9375 102.57,29.0781 Q101.9294,29.2344 101.2263,29.2344 Q98.7263,29.2344 97.3981,27.5938 Q96.0856,25.9375 96.0856,22.8125 Q96.0856,19.6875 97.3981,18.0313 Q98.7263,16.375 101.2263,16.375 Q101.9294,16.375 102.57,16.5313 Q103.2263,16.6875 103.7888,16.9844 L103.7888,19.7031 Q103.1638,19.125 102.57,18.8594 Q101.9763,18.5781 101.3513,18.5781 Q100.0075,18.5781 99.32,19.6563 Q98.6325,20.7188 98.6325,22.8125 Q98.6325,24.9063 99.32,25.9844 Q100.0075,27.0469 101.3513,27.0469 Q101.9763,27.0469 102.57,26.7813 Q103.1638,26.5 103.7888,25.9219 L103.7888,28.6406 Z " fill="#000000"/><text fill="#000000" font-family="sans-serif" font-size="14" lengthAdjust="spacing" textLength="55.1865" x="114.82" y="27.8467">Votante</text><line style="stroke:#181818;stroke-width:0.5;" x1="86.82" x2="172.0065" y1="39" y2="39"/><line style="stroke:#181818;stroke-width:0.5;" x1="86.82" x2="172.0065" y1="47" y2="47"/></g><!--class Candidatos--><g id="elem_Candidatos"><rect codeLine="2" fill="#F1F1F1" height="48" id="Candidatos" rx="2.5" ry="2.5" style="stroke:#181818;stroke-width:0.5;" width="110.8184" x="7" y="257"/><ellipse cx="22" cy="273" fill="#ADD1B2" rx="11" ry="11" style="stroke:#181818;stroke-width:1.0;"/><path d="M24.9688,278.6406 Q24.3906,278.9375 23.75,279.0781 Q23.1094,279.2344 22.4063,279.2344 Q19.9063,279.2344 18.5781,277.5938 Q17.2656,275.9375 17.2656,272.8125 Q17.2656,269.6875 18.5781,268.0313 Q19.9063,266.375 22.4063,266.375 Q23.1094,266.375 23.75,266.5313 Q24.4063,266.6875 24.9688,266.9844 L24.9688,269.7031 Q24.3438,269.125 23.75,268.8594 Q23.1563,268.5781 22.5313,268.5781 Q21.1875,268.5781 20.5,269.6563 Q19.8125,270.7188 19.8125,272.8125 Q19.8125,274.9063 20.5,275.9844 Q21.1875,277.0469 22.5313,277.0469 Q23.1563,277.0469 23.75,276.7813 Q24.3438,276.5 24.9688,275.9219 L24.9688,278.6406 Z " fill="#000000"/><text fill="#000000" font-family="sans-serif" font-size="14" lengthAdjust="spacing" textLength="78.8184" x="36" y="277.8467">Candidatos</text><line style="stroke:#181818;stroke-width:0.5;" x1="8" x2="116.8184" y1="289" y2="289"/><line style="stroke:#181818;stroke-width:0.5;" x1="8" x2="116.8184" y1="297" y2="297"/></g><!--class Voto--><g id="elem_Voto"><rect codeLine="3" fill="#F1F1F1" height="48" id="Voto" rx="2.5" ry="2.5" style="stroke:#181818;stroke-width:0.5;" width="64.1973" x="159.31" y="132"/><ellipse cx="174.31" cy="148" fill="#ADD1B2" rx="11" ry="11" style="stroke:#181818;stroke-width:1.0;"/><path d="M177.2788,153.6406 Q176.7006,153.9375 176.06,154.0781 Q175.4194,154.2344 174.7163,154.2344 Q172.2163,154.2344 170.8881,152.5938 Q169.5756,150.9375 169.5756,147.8125 Q169.5756,144.6875 170.8881,143.0313 Q172.2163,141.375 174.7163,141.375 Q175.4194,141.375 176.06,141.5313 Q176.7163,141.6875 177.2788,141.9844 L177.2788,144.7031 Q176.6538,144.125 176.06,143.8594 Q175.4663,143.5781 174.8413,143.5781 Q173.4975,143.5781 172.81,144.6563 Q172.1225,145.7188 172.1225,147.8125 Q172.1225,149.9063 172.81,150.9844 Q173.4975,152.0469 174.8413,152.0469 Q175.4663,152.0469 176.06,151.7813 Q176.6538,151.5 177.2788,150.9219 L177.2788,153.6406 Z " fill="#000000"/><text fill="#000000" font-family="sans-serif" font-size="14" lengthAdjust="spacing" textLength="32.1973" x="188.31" y="152.8467">Voto</text><line style="stroke:#181818;stroke-width:0.5;" x1="160.31" x2="222.5073" y1="164" y2="164"/><line style="stroke:#181818;stroke-width:0.5;" x1="160.31" x2="222.5073" y1="172" y2="172"/></g><!--class MesaDeVotacion--><g id="elem_MesaDeVotacion"><rect codeLine="4" fill="#F1F1F1" height="48" id="MesaDeVotacion" rx="2.5" ry="2.5" style="stroke:#181818;stroke-width:0.5;" width="149.1953" x="258.81" y="335"/><ellipse cx="273.81" cy="351" fill="#ADD1B2" rx="11" ry="11" style="stroke:#181818;stroke-width:1.0;"/><path d="M276.7788,356.6406 Q276.2006,356.9375 275.56,357.0781 Q274.9194,357.2344 274.2163,357.2344 Q271.7163,357.2344 270.3881,355.5938 Q269.0756,353.9375 269.0756,350.8125 Q269.0756,347.6875 270.3881,346.0313 Q271.7163,344.375 274.2163,344.375 Q274.9194,344.375 275.56,344.5313 Q276.2163,344.6875 276.7788,344.9844 L276.7788,347.7031 Q276.1538,347.125 275.56,346.8594 Q274.9663,346.5781 274.3413,346.5781 Q272.9975,346.5781 272.31,347.6563 Q271.6225,348.7188 271.6225,350.8125 Q271.6225,352.9063 272.31,353.9844 Q272.9975,355.0469 274.3413,355.0469 Q274.9663,355.0469 275.56,354.7813 Q276.1538,354.5 276.7788,353.9219 L276.7788,356.6406 Z " fill="#000000"/><text fill="#000000" font-family="sans-serif" font-size="14" lengthAdjust="spacing" textLength="117.1953" x="287.81" y="355.8467">MesaDeVotacion</text><line style="stroke:#181818;stroke-width:0.5;" x1="259.81" x2="407.0053" y1="367" y2="367"/><line style="stroke:#181818;stroke-width:0.5;" x1="259.81" x2="407.0053" y1="375" y2="375"/></g><!--class Resultado--><g id="elem_Resultado"><rect codeLine="5" fill="#F1F1F1" height="48" id="Resultado" rx="2.5" ry="2.5" style="stroke:#181818;stroke-width:0.5;" width="101.918" x="152.45" y="257"/><ellipse cx="167.45" cy="273" fill="#ADD1B2" rx="11" ry="11" style="stroke:#181818;stroke-width:1.0;"/><path d="M170.4188,278.6406 Q169.8406,278.9375 169.2,279.0781 Q168.5594,279.2344 167.8563,279.2344 Q165.3563,279.2344 164.0281,277.5938 Q162.7156,275.9375 162.7156,272.8125 Q162.7156,269.6875 164.0281,268.0313 Q165.3563,266.375 167.8563,266.375 Q168.5594,266.375 169.2,266.5313 Q169.8563,266.6875 170.4188,266.9844 L170.4188,269.7031 Q169.7938,269.125 169.2,268.8594 Q168.6063,268.5781 167.9813,268.5781 Q166.6375,268.5781 165.95,269.6563 Q165.2625,270.7188 165.2625,272.8125 Q165.2625,274.9063 165.95,275.9844 Q166.6375,277.0469 167.9813,277.0469 Q168.6063,277.0469 169.2,276.7813 Q169.7938,276.5 170.4188,275.9219 L170.4188,278.6406 Z " fill="#000000"/><text fill="#000000" font-family="sans-serif" font-size="14" lengthAdjust="spacing" textLength="69.918" x="181.45" y="277.8467">Resultado</text><line style="stroke:#181818;stroke-width:0.5;" x1="153.45" x2="253.368" y1="289" y2="289"/><line style="stroke:#181818;stroke-width:0.5;" x1="153.45" x2="253.368" y1="297" y2="297"/></g><!--class Eleccion--><g id="elem_Eleccion"><rect codeLine="6" fill="#F1F1F1" height="48" id="Eleccion" rx="2.5" ry="2.5" style="stroke:#181818;stroke-width:0.5;" width="90.0713" x="124.37" y="413"/><ellipse cx="139.37" cy="429" fill="#ADD1B2" rx="11" ry="11" style="stroke:#181818;stroke-width:1.0;"/><path d="M142.3388,434.6406 Q141.7606,434.9375 141.12,435.0781 Q140.4794,435.2344 139.7763,435.2344 Q137.2763,435.2344 135.9481,433.5938 Q134.6356,431.9375 134.6356,428.8125 Q134.6356,425.6875 135.9481,424.0313 Q137.2763,422.375 139.7763,422.375 Q140.4794,422.375 141.12,422.5313 Q141.7763,422.6875 142.3388,422.9844 L142.3388,425.7031 Q141.7138,425.125 141.12,424.8594 Q140.5263,424.5781 139.9013,424.5781 Q138.5575,424.5781 137.87,425.6563 Q137.1825,426.7188 137.1825,428.8125 Q137.1825,430.9063 137.87,431.9844 Q138.5575,433.0469 139.9013,433.0469 Q140.5263,433.0469 141.12,432.7813 Q141.7138,432.5 142.3388,431.9219 L142.3388,434.6406 Z " fill="#000000"/><text fill="#000000" font-family="sans-serif" font-size="14" lengthAdjust="spacing" textLength="58.0713" x="153.37" y="433.8467">Eleccion</text><line style="stroke:#181818;stroke-width:0.5;" x1="125.37" x2="213.4413" y1="445" y2="445"/><line style="stroke:#181818;stroke-width:0.5;" x1="125.37" x2="213.4413" y1="453" y2="453"/></g><!--class Observador--><g id="elem_Observador"><rect codeLine="7" fill="#F1F1F1" height="48" id="Observador" rx="2.5" ry="2.5" style="stroke:#181818;stroke-width:0.5;" width="113.6416" x="194.59" y="538"/><ellipse cx="209.59" cy="554" fill="#ADD1B2" rx="11" ry="11" style="stroke:#181818;stroke-width:1.0;"/><path d="M212.5588,559.6406 Q211.9806,559.9375 211.34,560.0781 Q210.6994,560.2344 209.9963,560.2344 Q207.4963,560.2344 206.1681,558.5938 Q204.8556,556.9375 204.8556,553.8125 Q204.8556,550.6875 206.1681,549.0313 Q207.4963,547.375 209.9963,547.375 Q210.6994,547.375 211.34,547.5313 Q211.9963,547.6875 212.5588,547.9844 L212.5588,550.7031 Q211.9338,550.125 211.34,549.8594 Q210.7463,549.5781 210.1213,549.5781 Q208.7775,549.5781 208.09,550.6563 Q207.4025,551.7188 207.4025,553.8125 Q207.4025,555.9063 208.09,556.9844 Q208.7775,558.0469 210.1213,558.0469 Q210.7463,558.0469 211.34,557.7813 Q211.9338,557.5 212.5588,556.9219 L212.5588,559.6406 Z " fill="#000000"/><text fill="#000000" font-family="sans-serif" font-size="14" lengthAdjust="spacing" textLength="81.6416" x="223.59" y="558.8467">Observador</text><line style="stroke:#181818;stroke-width:0.5;" x1="195.59" x2="307.2316" y1="570" y2="570"/><line style="stroke:#181818;stroke-width:0.5;" x1="195.59" x2="307.2316" y1="578" y2="578"/></g><!--class Decisi?n--><g id="elem_Decisi&#243;n"><rect codeLine="8" fill="#F1F1F1" height="48" id="Decisi&#243;n" rx="2.5" ry="2.5" style="stroke:#181818;stroke-width:0.5;" width="91.6025" x="207.61" y="7"/><ellipse cx="222.61" cy="23" fill="#ADD1B2" rx="11" ry="11" style="stroke:#181818;stroke-width:1.0;"/><path d="M225.5788,28.6406 Q225.0006,28.9375 224.36,29.0781 Q223.7194,29.2344 223.0163,29.2344 Q220.5163,29.2344 219.1881,27.5938 Q217.8756,25.9375 217.8756,22.8125 Q217.8756,19.6875 219.1881,18.0313 Q220.5163,16.375 223.0163,16.375 Q223.7194,16.375 224.36,16.5313 Q225.0163,16.6875 225.5788,16.9844 L225.5788,19.7031 Q224.9538,19.125 224.36,18.8594 Q223.7663,18.5781 223.1413,18.5781 Q221.7975,18.5781 221.11,19.6563 Q220.4225,20.7188 220.4225,22.8125 Q220.4225,24.9063 221.11,25.9844 Q221.7975,27.0469 223.1413,27.0469 Q223.7663,27.0469 224.36,26.7813 Q224.9538,26.5 225.5788,25.9219 L225.5788,28.6406 Z " fill="#000000"/><text fill="#000000" font-family="sans-serif" font-size="14" lengthAdjust="spacing" textLength="59.6025" x="236.61" y="27.8467">Decisi&#243;n</text><line style="stroke:#181818;stroke-width:0.5;" x1="208.61" x2="298.2125" y1="39" y2="39"/><line style="stroke:#181818;stroke-width:0.5;" x1="208.61" x2="298.2125" y1="47" y2="47"/></g><!--link Votante to Voto--><g id="link_Votante_Voto"><path codeLine="10" d="M141.22,55.42 C152.25,77.31 168.63,109.8 179.65,131.66 " fill="none" id="Votante-Voto" style="stroke:#181818;stroke-width:1.0;"/><text fill="#000000" font-family="sans-serif" font-size="13" lengthAdjust="spacing" textLength="37.3687" x="165.41" y="98.0669">emite</text></g><!--link Voto to Candidatos--><g id="link_Voto_Candidatos"><path codeLine="11" d="M166.84,180.42 C143.89,202.31 114.1519,230.6589 91.2319,252.5189 " fill="none" id="Voto-to-Candidatos" style="stroke:#181818;stroke-width:1.0;"/><polygon fill="#181818" points="86.89,256.66,96.1635,253.343,90.5082,253.2091,90.6421,247.5539,86.89,256.66" style="stroke:#181818;stroke-width:1.0;"/><text fill="#000000" font-family="sans-serif" font-size="13" lengthAdjust="spacing" textLength="68.4468" x="136.41" y="223.0669">selecciona</text></g><!--link Voto to MesaDeVotacion--><g id="link_Voto_MesaDeVotacion"><path codeLine="12" d="M211.33,180.2 C228.06,200.07 252.23,229.72 271.41,257 C289.51,282.75 305.1134,308.6077 317.1634,329.4177 " fill="none" id="Voto-to-MesaDeVotacion" style="stroke:#181818;stroke-width:1.0;"/><polygon fill="#181818" points="320.17,334.61,319.1216,324.8171,317.6645,330.2831,312.1985,328.8259,320.17,334.61" style="stroke:#181818;stroke-width:1.0;"/><text fill="#000000" font-family="sans-serif" font-size="13" lengthAdjust="spacing" textLength="86.9629" x="249.41" y="223.0669">registrado en</text></g><!--link Resultado to Eleccion--><g id="link_Resultado_Eleccion"><path codeLine="13" d="M195.15,305.28 C192.1,314.45 188.81,325.14 186.41,335 C180.02,361.26 175.23,391.94 172.38,412.54 " fill="none" id="Resultado-Eleccion" style="stroke:#181818;stroke-width:1.0;"/><text fill="#000000" font-family="sans-serif" font-size="13" lengthAdjust="spacing" textLength="53.5552" x="187.41" y="363.5669">tiene un</text></g><!--link Eleccion to Observador--><g id="link_Eleccion_Observador"><path codeLine="14" d="M162.5,461.48 C159.66,475.79 158.62,493.96 166.41,508 C173.16,520.16 178.9649,526.6215 190.6749,534.2615 " fill="none" id="Eleccion-to-Observador" style="stroke:#181818;stroke-width:1.0;"/><polygon fill="#181818" points="195.7,537.54,190.3481,529.2722,191.5124,534.8079,185.9767,535.9723,195.7,537.54" style="stroke:#181818;stroke-width:1.0;"/><text fill="#000000" font-family="sans-serif" font-size="13" lengthAdjust="spacing" textLength="139.2485" x="167.41" y="504.0669">asegura una correcta</text></g><!--link Decisi?n to Voto--><g id="link_Decisi&#243;n_Voto"><path codeLine="15" d="M241.6,55.42 C230.57,77.31 214.19,109.8 203.17,131.66 " fill="none" id="Decisi&#243;n-Voto" style="stroke:#181818;stroke-width:1.0;"/><text fill="#000000" font-family="sans-serif" font-size="13" lengthAdjust="spacing" textLength="63.2417" x="226.41" y="98.0669">influencia</text></g><!--link MesaDeVotacion to Observador--><g id="link_MesaDeVotacion_Observador"><path codeLine="16" d="M334.72,383.34 C335.4,413.87 333.04,468.16 311.41,508 C305.24,519.36 295.64,529.46 285.91,537.72 " fill="none" id="MesaDeVotacion-Observador" style="stroke:#181818;stroke-width:1.0;"/><text fill="#000000" font-family="sans-serif" font-size="13" lengthAdjust="spacing" textLength="108.729" x="334.41" y="441.5669">monitoreada por</text></g><!--link Candidatos to Eleccion--><g id="link_Candidatos_Eleccion"><path codeLine="17" d="M62.75,305.29 C64.14,327.19 69.1,359.95 85.41,383 C95.17,396.79 109.77,407.79 124.07,416.12 " fill="none" id="Candidatos-Eleccion" style="stroke:#181818;stroke-width:1.0;"/><text fill="#000000" font-family="sans-serif" font-size="13" lengthAdjust="spacing" textLength="81.3325" x="86.41" y="363.5669">compiten en</text></g><!--SRC=[NP0nRiCm34LtdKBmxWjqwD9qB0faoCxAR4309WEIxiLoX5mibA6uIZRn_mV-JvKPpF997DWnbMtw09ve0XThGjZIdbzeSC3A5n9kuX5jdHsc1_GvO-dixnz3_GjRct30GaQtAwVKalCuRYdvBG-uaEEGjd4StxiwrJLiow53dbjLJF5CvXgX6Nb8UyCQzAXNEITap6iWkreN_bUk41YULuN081THnUAHlb_HboV-dLVaGW6yj0hgUUqYJ2wAC46-Y0wfk_IbPf7b4h_2zPWx]--></g></svg>