<?xml version="1.0" encoding="us-ascii" standalone="no"?><svg xmlns="http://www.w3.org/2000/svg" xmlns:xlink="http://www.w3.org/1999/xlink" contentStyleType="text/css" height="971px" preserveAspectRatio="none" style="width:339px;height:971px;background:#FFFFFF;" version="1.1" viewBox="0 0 339 971" width="339px" zoomAndPan="magnify"><defs/><g><!--cluster Eco--><g id="cluster_Eco"><path d="M8.5,6 L35.5,6 A3.75,3.75 0 0 1 38,8.5 L45,29.6094 L329.5,29.6094 A2.5,2.5 0 0 1 332,32.1094 L332,961.5 A2.5,2.5 0 0 1 329.5,964 L8.5,964 A2.5,2.5 0 0 1 6,961.5 L6,8.5 A2.5,2.5 0 0 1 8.5,6 " fill="none" style="stroke:#000000;stroke-width:1.5;"/><line style="stroke:#000000;stroke-width:1.5;" x1="6" x2="45" y1="29.6094" y2="29.6094"/><text fill="#000000" font-family="sans-serif" font-size="14" font-weight="bold" lengthAdjust="spacing" textLength="26" x="10" y="22.5332">Eco</text></g><!--class FuenteDeSonido--><g id="elem_FuenteDeSonido"><rect codeLine="2" fill="#F1F1F1" height="83.2188" id="FuenteDeSonido" rx="2.5" ry="2.5" style="stroke:#181818;stroke-width:0.5;" width="139" x="120.5" y="42"/><ellipse cx="135.5" cy="58" fill="#ADD1B2" rx="11" ry="11" style="stroke:#181818;stroke-width:1.0;"/><path d="M138.2656,53.875 Q138.4219,53.6563 138.6094,53.5469 Q138.7969,53.4375 139.0156,53.4375 Q139.3906,53.4375 139.625,53.7031 Q139.8594,53.9531 139.8594,54.5625 L139.8594,56.0156 Q139.8594,56.625 139.625,56.8906 Q139.3906,57.1563 139.0156,57.1563 Q138.6719,57.1563 138.4688,56.9531 Q138.2656,56.7656 138.1563,56.25 Q138.1094,55.8906 137.9219,55.7031 Q137.5938,55.3281 136.9844,55.1094 Q136.375,54.8906 135.75,54.8906 Q134.9844,54.8906 134.3438,55.2188 Q133.7188,55.5469 133.2188,56.2969 Q132.7344,57.0469 132.7344,58.0781 L132.7344,59.1719 Q132.7344,60.4063 133.625,61.2344 Q134.5156,62.0469 136.1094,62.0469 Q137.0469,62.0469 137.7031,61.7969 Q138.0938,61.6406 138.5156,61.2031 Q138.7813,60.9375 138.9219,60.8594 Q139.0781,60.7813 139.2813,60.7813 Q139.6094,60.7813 139.8594,61.0469 Q140.125,61.2969 140.125,61.6406 Q140.125,61.9844 139.7813,62.3906 Q139.2813,62.9688 138.4844,63.2969 Q137.4063,63.75 136.1094,63.75 Q134.5938,63.75 133.3906,63.125 Q132.4063,62.625 131.7188,61.5625 Q131.0313,60.4844 131.0313,59.2031 L131.0313,58.0469 Q131.0313,56.7188 131.6406,55.5781 Q132.2656,54.4219 133.3594,53.8125 Q134.4531,53.1875 135.6875,53.1875 Q136.4219,53.1875 137.0625,53.3594 Q137.7188,53.5156 138.2656,53.875 Z " fill="#000000"/><text fill="#000000" font-family="sans-serif" font-size="14" lengthAdjust="spacing" textLength="107" x="149.5" y="63.7285">FuenteDeSonido</text><line style="stroke:#181818;stroke-width:0.5;" x1="121.5" x2="258.5" y1="74" y2="74"/><ellipse cx="131.5" cy="88.3047" fill="none" rx="3" ry="3" style="stroke:#038048;stroke-width:1.0;"/><text fill="#000000" font-family="sans-serif" font-size="14" lengthAdjust="spacing" textLength="62" x="140.5" y="92.5332">string tipo</text><ellipse cx="131.5" cy="105.9141" fill="none" rx="3" ry="3" style="stroke:#038048;stroke-width:1.0;"/><text fill="#000000" font-family="sans-serif" font-size="14" lengthAdjust="spacing" textLength="85" x="140.5" y="110.1426">float potencia</text><line style="stroke:#181818;stroke-width:0.5;" x1="121.5" x2="258.5" y1="117.2188" y2="117.2188"/></g><!--class OndaSonora--><g id="elem_OndaSonora"><rect codeLine="6" fill="#F1F1F1" height="100.8281" id="OndaSonora" rx="2.5" ry="2.5" style="stroke:#181818;stroke-width:0.5;" width="160" x="110" y="203"/><ellipse cx="146.15" cy="219" fill="#ADD1B2" rx="11" ry="11" style="stroke:#181818;stroke-width:1.0;"/><path d="M148.9156,214.875 Q149.0719,214.6563 149.2594,214.5469 Q149.4469,214.4375 149.6656,214.4375 Q150.0406,214.4375 150.275,214.7031 Q150.5094,214.9531 150.5094,215.5625 L150.5094,217.0156 Q150.5094,217.625 150.275,217.8906 Q150.0406,218.1563 149.6656,218.1563 Q149.3219,218.1563 149.1188,217.9531 Q148.9156,217.7656 148.8063,217.25 Q148.7594,216.8906 148.5719,216.7031 Q148.2438,216.3281 147.6344,216.1094 Q147.025,215.8906 146.4,215.8906 Q145.6344,215.8906 144.9938,216.2188 Q144.3688,216.5469 143.8688,217.2969 Q143.3844,218.0469 143.3844,219.0781 L143.3844,220.1719 Q143.3844,221.4063 144.275,222.2344 Q145.1656,223.0469 146.7594,223.0469 Q147.6969,223.0469 148.3531,222.7969 Q148.7438,222.6406 149.1656,222.2031 Q149.4313,221.9375 149.5719,221.8594 Q149.7281,221.7813 149.9313,221.7813 Q150.2594,221.7813 150.5094,222.0469 Q150.775,222.2969 150.775,222.6406 Q150.775,222.9844 150.4313,223.3906 Q149.9313,223.9688 149.1344,224.2969 Q148.0563,224.75 146.7594,224.75 Q145.2438,224.75 144.0406,224.125 Q143.0563,223.625 142.3688,222.5625 Q141.6813,221.4844 141.6813,220.2031 L141.6813,219.0469 Q141.6813,217.7188 142.2906,216.5781 Q142.9156,215.4219 144.0094,214.8125 Q145.1031,214.1875 146.3375,214.1875 Q147.0719,214.1875 147.7125,214.3594 Q148.3688,214.5156 148.9156,214.875 Z " fill="#000000"/><text fill="#000000" font-family="sans-serif" font-size="14" lengthAdjust="spacing" textLength="81" x="164.85" y="224.7285">OndaSonora</text><line style="stroke:#181818;stroke-width:0.5;" x1="111" x2="269" y1="235" y2="235"/><ellipse cx="121" cy="249.3047" fill="none" rx="3" ry="3" style="stroke:#038048;stroke-width:1.0;"/><text fill="#000000" font-family="sans-serif" font-size="14" lengthAdjust="spacing" textLength="97" x="130" y="253.5332">float frecuencia</text><ellipse cx="121" cy="266.9141" fill="none" rx="3" ry="3" style="stroke:#038048;stroke-width:1.0;"/><text fill="#000000" font-family="sans-serif" font-size="14" lengthAdjust="spacing" textLength="134" x="130" y="271.1426">float longitudDeOnda</text><ellipse cx="121" cy="284.5234" fill="none" rx="3" ry="3" style="stroke:#038048;stroke-width:1.0;"/><text fill="#000000" font-family="sans-serif" font-size="14" lengthAdjust="spacing" textLength="84" x="130" y="288.752">float amplitud</text><line style="stroke:#181818;stroke-width:0.5;" x1="111" x2="269" y1="295.8281" y2="295.8281"/></g><!--class MedioDePropagaci?n--><g id="elem_MedioDePropagaci&#243;n"><rect codeLine="11" fill="#F1F1F1" height="83.2188" id="MedioDePropagaci&#243;n" rx="2.5" ry="2.5" style="stroke:#181818;stroke-width:0.5;" width="197" x="30.5" y="382"/><ellipse cx="58.55" cy="398" fill="#ADD1B2" rx="11" ry="11" style="stroke:#181818;stroke-width:1.0;"/><path d="M61.3156,393.875 Q61.4719,393.6563 61.6594,393.5469 Q61.8469,393.4375 62.0656,393.4375 Q62.4406,393.4375 62.675,393.7031 Q62.9094,393.9531 62.9094,394.5625 L62.9094,396.0156 Q62.9094,396.625 62.675,396.8906 Q62.4406,397.1563 62.0656,397.1563 Q61.7219,397.1563 61.5188,396.9531 Q61.3156,396.7656 61.2063,396.25 Q61.1594,395.8906 60.9719,395.7031 Q60.6438,395.3281 60.0344,395.1094 Q59.425,394.8906 58.8,394.8906 Q58.0344,394.8906 57.3938,395.2188 Q56.7688,395.5469 56.2688,396.2969 Q55.7844,397.0469 55.7844,398.0781 L55.7844,399.1719 Q55.7844,400.4063 56.675,401.2344 Q57.5656,402.0469 59.1594,402.0469 Q60.0969,402.0469 60.7531,401.7969 Q61.1438,401.6406 61.5656,401.2031 Q61.8313,400.9375 61.9719,400.8594 Q62.1281,400.7813 62.3313,400.7813 Q62.6594,400.7813 62.9094,401.0469 Q63.175,401.2969 63.175,401.6406 Q63.175,401.9844 62.8313,402.3906 Q62.3313,402.9688 61.5344,403.2969 Q60.4563,403.75 59.1594,403.75 Q57.6438,403.75 56.4406,403.125 Q55.4563,402.625 54.7688,401.5625 Q54.0813,400.4844 54.0813,399.2031 L54.0813,398.0469 Q54.0813,396.7188 54.6906,395.5781 Q55.3156,394.4219 56.4094,393.8125 Q57.5031,393.1875 58.7375,393.1875 Q59.4719,393.1875 60.1125,393.3594 Q60.7688,393.5156 61.3156,393.875 Z " fill="#000000"/><text fill="#000000" font-family="sans-serif" font-size="14" lengthAdjust="spacing" textLength="136" x="75.45" y="403.7285">MedioDePropagaci&#243;n</text><line style="stroke:#181818;stroke-width:0.5;" x1="31.5" x2="226.5" y1="414" y2="414"/><ellipse cx="41.5" cy="428.3047" fill="none" rx="3" ry="3" style="stroke:#038048;stroke-width:1.0;"/><text fill="#000000" font-family="sans-serif" font-size="14" lengthAdjust="spacing" textLength="62" x="50.5" y="432.5332">string tipo</text><ellipse cx="41.5" cy="445.9141" fill="none" rx="3" ry="3" style="stroke:#038048;stroke-width:1.0;"/><text fill="#000000" font-family="sans-serif" font-size="14" lengthAdjust="spacing" textLength="171" x="50.5" y="450.1426">float velocidadPropagacion</text><line style="stroke:#181818;stroke-width:0.5;" x1="31.5" x2="226.5" y1="457.2188" y2="457.2188"/></g><!--class SuperficieReflectora--><g id="elem_SuperficieReflectora"><rect codeLine="15" fill="#F1F1F1" height="83.2188" id="SuperficieReflectora" rx="2.5" ry="2.5" style="stroke:#181818;stroke-width:0.5;" width="183" x="22.5" y="543"/><ellipse cx="47.85" cy="559" fill="#ADD1B2" rx="11" ry="11" style="stroke:#181818;stroke-width:1.0;"/><path d="M50.6156,554.875 Q50.7719,554.6563 50.9594,554.5469 Q51.1469,554.4375 51.3656,554.4375 Q51.7406,554.4375 51.975,554.7031 Q52.2094,554.9531 52.2094,555.5625 L52.2094,557.0156 Q52.2094,557.625 51.975,557.8906 Q51.7406,558.1563 51.3656,558.1563 Q51.0219,558.1563 50.8188,557.9531 Q50.6156,557.7656 50.5063,557.25 Q50.4594,556.8906 50.2719,556.7031 Q49.9438,556.3281 49.3344,556.1094 Q48.725,555.8906 48.1,555.8906 Q47.3344,555.8906 46.6938,556.2188 Q46.0688,556.5469 45.5688,557.2969 Q45.0844,558.0469 45.0844,559.0781 L45.0844,560.1719 Q45.0844,561.4063 45.975,562.2344 Q46.8656,563.0469 48.4594,563.0469 Q49.3969,563.0469 50.0531,562.7969 Q50.4438,562.6406 50.8656,562.2031 Q51.1313,561.9375 51.2719,561.8594 Q51.4281,561.7813 51.6313,561.7813 Q51.9594,561.7813 52.2094,562.0469 Q52.475,562.2969 52.475,562.6406 Q52.475,562.9844 52.1313,563.3906 Q51.6313,563.9688 50.8344,564.2969 Q49.7563,564.75 48.4594,564.75 Q46.9438,564.75 45.7406,564.125 Q44.7563,563.625 44.0688,562.5625 Q43.3813,561.4844 43.3813,560.2031 L43.3813,559.0469 Q43.3813,557.7188 43.9906,556.5781 Q44.6156,555.4219 45.7094,554.8125 Q46.8031,554.1875 48.0375,554.1875 Q48.7719,554.1875 49.4125,554.3594 Q50.0688,554.5156 50.6156,554.875 Z " fill="#000000"/><text fill="#000000" font-family="sans-serif" font-size="14" lengthAdjust="spacing" textLength="128" x="64.15" y="564.7285">SuperficieReflectora</text><line style="stroke:#181818;stroke-width:0.5;" x1="23.5" x2="204.5" y1="575" y2="575"/><ellipse cx="33.5" cy="589.3047" fill="none" rx="3" ry="3" style="stroke:#038048;stroke-width:1.0;"/><text fill="#000000" font-family="sans-serif" font-size="14" lengthAdjust="spacing" textLength="87" x="42.5" y="593.5332">float distancia</text><ellipse cx="33.5" cy="606.9141" fill="none" rx="3" ry="3" style="stroke:#038048;stroke-width:1.0;"/><text fill="#000000" font-family="sans-serif" font-size="14" lengthAdjust="spacing" textLength="157" x="42.5" y="611.1426">float coeficienteReflexion</text><line style="stroke:#181818;stroke-width:0.5;" x1="23.5" x2="204.5" y1="618.2188" y2="618.2188"/></g><!--class Receptor--><g id="elem_Receptor"><rect codeLine="19" fill="#F1F1F1" height="83.2188" id="Receptor" rx="2.5" ry="2.5" style="stroke:#181818;stroke-width:0.5;" width="131" x="156.5" y="865"/><ellipse cx="189.95" cy="881" fill="#ADD1B2" rx="11" ry="11" style="stroke:#181818;stroke-width:1.0;"/><path d="M192.7156,876.875 Q192.8719,876.6563 193.0594,876.5469 Q193.2469,876.4375 193.4656,876.4375 Q193.8406,876.4375 194.075,876.7031 Q194.3094,876.9531 194.3094,877.5625 L194.3094,879.0156 Q194.3094,879.625 194.075,879.8906 Q193.8406,880.1563 193.4656,880.1563 Q193.1219,880.1563 192.9188,879.9531 Q192.7156,879.7656 192.6063,879.25 Q192.5594,878.8906 192.3719,878.7031 Q192.0438,878.3281 191.4344,878.1094 Q190.825,877.8906 190.2,877.8906 Q189.4344,877.8906 188.7938,878.2188 Q188.1688,878.5469 187.6688,879.2969 Q187.1844,880.0469 187.1844,881.0781 L187.1844,882.1719 Q187.1844,883.4063 188.075,884.2344 Q188.9656,885.0469 190.5594,885.0469 Q191.4969,885.0469 192.1531,884.7969 Q192.5438,884.6406 192.9656,884.2031 Q193.2313,883.9375 193.3719,883.8594 Q193.5281,883.7813 193.7313,883.7813 Q194.0594,883.7813 194.3094,884.0469 Q194.575,884.2969 194.575,884.6406 Q194.575,884.9844 194.2313,885.3906 Q193.7313,885.9688 192.9344,886.2969 Q191.8563,886.75 190.5594,886.75 Q189.0438,886.75 187.8406,886.125 Q186.8563,885.625 186.1688,884.5625 Q185.4813,883.4844 185.4813,882.2031 L185.4813,881.0469 Q185.4813,879.7188 186.0906,878.5781 Q186.7156,877.4219 187.8094,876.8125 Q188.9031,876.1875 190.1375,876.1875 Q190.8719,876.1875 191.5125,876.3594 Q192.1688,876.5156 192.7156,876.875 Z " fill="#000000"/><text fill="#000000" font-family="sans-serif" font-size="14" lengthAdjust="spacing" textLength="58" x="208.05" y="886.7285">Receptor</text><line style="stroke:#181818;stroke-width:0.5;" x1="157.5" x2="286.5" y1="897" y2="897"/><ellipse cx="167.5" cy="911.3047" fill="none" rx="3" ry="3" style="stroke:#038048;stroke-width:1.0;"/><text fill="#000000" font-family="sans-serif" font-size="14" lengthAdjust="spacing" textLength="62" x="176.5" y="915.5332">string tipo</text><ellipse cx="167.5" cy="928.9141" fill="none" rx="3" ry="3" style="stroke:#038048;stroke-width:1.0;"/><text fill="#000000" font-family="sans-serif" font-size="14" lengthAdjust="spacing" textLength="105" x="176.5" y="933.1426">float sensibilidad</text><line style="stroke:#181818;stroke-width:0.5;" x1="157.5" x2="286.5" y1="940.2188" y2="940.2188"/></g><!--class Eco--><g id="elem_Eco"><rect codeLine="23" fill="#F1F1F1" height="83.2188" id="Eco" rx="2.5" ry="2.5" style="stroke:#181818;stroke-width:0.5;" width="149" x="65.5" y="704"/><ellipse cx="123.75" cy="720" fill="#ADD1B2" rx="11" ry="11" style="stroke:#181818;stroke-width:1.0;"/><path d="M126.5156,715.875 Q126.6719,715.6563 126.8594,715.5469 Q127.0469,715.4375 127.2656,715.4375 Q127.6406,715.4375 127.875,715.7031 Q128.1094,715.9531 128.1094,716.5625 L128.1094,718.0156 Q128.1094,718.625 127.875,718.8906 Q127.6406,719.1563 127.2656,719.1563 Q126.9219,719.1563 126.7188,718.9531 Q126.5156,718.7656 126.4063,718.25 Q126.3594,717.8906 126.1719,717.7031 Q125.8438,717.3281 125.2344,717.1094 Q124.625,716.8906 124,716.8906 Q123.2344,716.8906 122.5938,717.2188 Q121.9688,717.5469 121.4688,718.2969 Q120.9844,719.0469 120.9844,720.0781 L120.9844,721.1719 Q120.9844,722.4063 121.875,723.2344 Q122.7656,724.0469 124.3594,724.0469 Q125.2969,724.0469 125.9531,723.7969 Q126.3438,723.6406 126.7656,723.2031 Q127.0313,722.9375 127.1719,722.8594 Q127.3281,722.7813 127.5313,722.7813 Q127.8594,722.7813 128.1094,723.0469 Q128.375,723.2969 128.375,723.6406 Q128.375,723.9844 128.0313,724.3906 Q127.5313,724.9688 126.7344,725.2969 Q125.6563,725.75 124.3594,725.75 Q122.8438,725.75 121.6406,725.125 Q120.6563,724.625 119.9688,723.5625 Q119.2813,722.4844 119.2813,721.2031 L119.2813,720.0469 Q119.2813,718.7188 119.8906,717.5781 Q120.5156,716.4219 121.6094,715.8125 Q122.7031,715.1875 123.9375,715.1875 Q124.6719,715.1875 125.3125,715.3594 Q125.9688,715.5156 126.5156,715.875 Z " fill="#000000"/><text fill="#000000" font-family="sans-serif" font-size="14" lengthAdjust="spacing" textLength="24" x="144.25" y="725.7285">Eco</text><line style="stroke:#181818;stroke-width:0.5;" x1="66.5" x2="213.5" y1="736" y2="736"/><ellipse cx="76.5" cy="750.3047" fill="none" rx="3" ry="3" style="stroke:#038048;stroke-width:1.0;"/><text fill="#000000" font-family="sans-serif" font-size="14" lengthAdjust="spacing" textLength="123" x="85.5" y="754.5332">float tiempoRetraso</text><ellipse cx="76.5" cy="767.9141" fill="none" rx="3" ry="3" style="stroke:#038048;stroke-width:1.0;"/><text fill="#000000" font-family="sans-serif" font-size="14" lengthAdjust="spacing" textLength="96" x="85.5" y="772.1426">float intensidad</text><line style="stroke:#181818;stroke-width:0.5;" x1="66.5" x2="213.5" y1="779.2188" y2="779.2188"/></g><!--link FuenteDeSonido to OndaSonora--><g id="link_FuenteDeSonido_OndaSonora"><path codeLine="28" d="M190,125.17 C190,148.57 190,178.15 190,202.91 " fill="none" id="FuenteDeSonido-OndaSonora" style="stroke:#181818;stroke-width:1.0;"/><text fill="#000000" font-family="sans-serif" font-size="13" lengthAdjust="spacing" textLength="39" x="191" y="169.4951">genera</text></g><!--link OndaSonora to MedioDePropagaci?n--><g id="link_OndaSonora_MedioDePropagaci&#243;n"><path codeLine="29" d="M148.75,304.36 C142.83,313.73 137.55,323.8 134,334 C128.74,349.11 126.93,366.55 126.63,381.94 " fill="none" id="OndaSonora-MedioDePropagaci&#243;n" style="stroke:#181818;stroke-width:1.0;"/><text fill="#000000" font-family="sans-serif" font-size="13" lengthAdjust="spacing" textLength="131" x="135" y="348.4951">se propaga a trav&#233;s de</text></g><!--link MedioDePropagaci?n to SuperficieReflectora--><g id="link_MedioDePropagaci&#243;n_SuperficieReflectora"><path codeLine="30" d="M125.18,465.03 C122.93,488.86 120.09,518.9 117.84,542.76 " fill="none" id="MedioDePropagaci&#243;n-SuperficieReflectora" style="stroke:#181818;stroke-width:1.0;"/><text fill="#000000" font-family="sans-serif" font-size="13" lengthAdjust="spacing" textLength="64" x="122" y="509.4951">impacta en</text></g><!--link OndaSonora to Receptor--><g id="link_OndaSonora_Receptor"><path codeLine="31" d="M251.15,304.01 C259.08,313.14 266.12,323.23 271,334 C287.27,369.88 276,383.1 276,422.5 C276,422.5 276,422.5 276,746.5 C276,788.48 258.91,833.54 243.96,864.93 " fill="none" id="OndaSonora-Receptor" style="stroke:#181818;stroke-width:1.0;"/><text fill="#000000" font-family="sans-serif" font-size="13" lengthAdjust="spacing" textLength="38" x="277" y="589.9951">llega a</text></g><!--link SuperficieReflectora to Eco--><g id="link_SuperficieReflectora_Eco"><path codeLine="32" d="M118.31,626.14 C120.1,641.21 122.38,658.43 125,674 C126.64,683.75 128.7,694.19 130.76,703.98 " fill="none" id="SuperficieReflectora-Eco" style="stroke:#181818;stroke-width:1.0;"/><text fill="#000000" font-family="sans-serif" font-size="13" lengthAdjust="spacing" textLength="140" x="126" y="670.4951">refleja la onda causando</text></g><!--link Eco to Receptor--><g id="link_Eco_Receptor"><path codeLine="33" d="M160.9,787.03 C173.19,810.86 188.68,840.9 200.99,864.76 " fill="none" id="Eco-Receptor" style="stroke:#181818;stroke-width:1.0;"/><text fill="#000000" font-family="sans-serif" font-size="13" lengthAdjust="spacing" textLength="42" x="184" y="831.4951">percibe</text></g><!--SRC=[XP91Ri9034NtFOMLRSK5kgRTLQtW1CRZH6w7yMXcWf0g3jHrZy35wY4Y48Z49Wlx_-SVUoBIDtOChwJmymH07dE6vgtdK7Z9QmtYj3cr09vpIH8wA19rABHUiK3Kme44hNQuC3w2G_Dhmj4_oDl4r9yDOzLhwAJqRidLUDt1RVIrCyM_inDTycVIY1sI7F_2evmxzahYq8qc3LFeke-SMY7X5RUUgTodTv8BteOdvPFBbdOoxk_8AoQEXdkKCNF8iX5VOqu9TgARA4Lu6tN59M6UGCHo6EQCiC_qeB1OmEKyy09Dnu7jLqrvLJVLp9QhF3F4eGG8Ddvt_CtWkFhd70QQssmboJOY5GGEzyFFEwiwxxaEgw9PbCdh6pPbgiKl18-WXWF2FcEmLspMAha16ujaOz4F_m00]--></g></svg>