<?xml version="1.0" encoding="us-ascii" standalone="no"?><svg xmlns="http://www.w3.org/2000/svg" xmlns:xlink="http://www.w3.org/1999/xlink" contentStyleType="text/css" height="443px" preserveAspectRatio="none" style="width:2294px;height:443px;background:#FFFFFF;" version="1.1" viewBox="0 0 2294 443" width="2294px" zoomAndPan="magnify"><defs/><g><!--class Productor--><g id="elem_Productor"><rect codeLine="2" fill="#F1F1F1" height="48" id="Productor" rx="2.5" ry="2.5" style="stroke:#181818;stroke-width:0.5;" width="94" x="70.26" y="7"/><ellipse cx="85.26" cy="23" fill="#ADD1B2" rx="11" ry="11" style="stroke:#181818;stroke-width:1.0;"/><path d="M88.0256,18.875 Q88.1819,18.6563 88.3694,18.5469 Q88.5569,18.4375 88.7756,18.4375 Q89.1506,18.4375 89.385,18.7031 Q89.6194,18.9531 89.6194,19.5625 L89.6194,21.0156 Q89.6194,21.625 89.385,21.8906 Q89.1506,22.1563 88.7756,22.1563 Q88.4319,22.1563 88.2287,21.9531 Q88.0256,21.7656 87.9162,21.25 Q87.8694,20.8906 87.6819,20.7031 Q87.3537,20.3281 86.7444,20.1094 Q86.135,19.8906 85.51,19.8906 Q84.7444,19.8906 84.1037,20.2188 Q83.4787,20.5469 82.9787,21.2969 Q82.4944,22.0469 82.4944,23.0781 L82.4944,24.1719 Q82.4944,25.4063 83.385,26.2344 Q84.2756,27.0469 85.8694,27.0469 Q86.8069,27.0469 87.4631,26.7969 Q87.8537,26.6406 88.2756,26.2031 Q88.5412,25.9375 88.6819,25.8594 Q88.8381,25.7813 89.0412,25.7813 Q89.3694,25.7813 89.6194,26.0469 Q89.885,26.2969 89.885,26.6406 Q89.885,26.9844 89.5412,27.3906 Q89.0412,27.9688 88.2444,28.2969 Q87.1662,28.75 85.8694,28.75 Q84.3537,28.75 83.1506,28.125 Q82.1662,27.625 81.4787,26.5625 Q80.7912,25.4844 80.7912,24.2031 L80.7912,23.0469 Q80.7912,21.7188 81.4006,20.5781 Q82.0256,19.4219 83.1194,18.8125 Q84.2131,18.1875 85.4475,18.1875 Q86.1819,18.1875 86.8225,18.3594 Q87.4787,18.5156 88.0256,18.875 Z " fill="#000000"/><text fill="#000000" font-family="sans-serif" font-size="14" lengthAdjust="spacing" textLength="62" x="99.26" y="28.7969">Productor</text><line style="stroke:#181818;stroke-width:0.5;" x1="71.26" x2="163.26" y1="39" y2="39"/><line style="stroke:#181818;stroke-width:0.5;" x1="71.26" x2="163.26" y1="47" y2="47"/></g><!--class consumidor--><g id="elem_consumidor"><rect codeLine="3" fill="#F1F1F1" height="48" id="consumidor" rx="2.5" ry="2.5" style="stroke:#181818;stroke-width:0.5;" width="105" x="199.76" y="7"/><ellipse cx="214.76" cy="23" fill="#ADD1B2" rx="11" ry="11" style="stroke:#181818;stroke-width:1.0;"/><path d="M217.5256,18.875 Q217.6819,18.6563 217.8694,18.5469 Q218.0569,18.4375 218.2756,18.4375 Q218.6506,18.4375 218.885,18.7031 Q219.1194,18.9531 219.1194,19.5625 L219.1194,21.0156 Q219.1194,21.625 218.885,21.8906 Q218.6506,22.1563 218.2756,22.1563 Q217.9319,22.1563 217.7288,21.9531 Q217.5256,21.7656 217.4163,21.25 Q217.3694,20.8906 217.1819,20.7031 Q216.8538,20.3281 216.2444,20.1094 Q215.635,19.8906 215.01,19.8906 Q214.2444,19.8906 213.6038,20.2188 Q212.9788,20.5469 212.4788,21.2969 Q211.9944,22.0469 211.9944,23.0781 L211.9944,24.1719 Q211.9944,25.4063 212.885,26.2344 Q213.7756,27.0469 215.3694,27.0469 Q216.3069,27.0469 216.9631,26.7969 Q217.3538,26.6406 217.7756,26.2031 Q218.0413,25.9375 218.1819,25.8594 Q218.3381,25.7813 218.5413,25.7813 Q218.8694,25.7813 219.1194,26.0469 Q219.385,26.2969 219.385,26.6406 Q219.385,26.9844 219.0413,27.3906 Q218.5413,27.9688 217.7444,28.2969 Q216.6663,28.75 215.3694,28.75 Q213.8538,28.75 212.6506,28.125 Q211.6663,27.625 210.9788,26.5625 Q210.2913,25.4844 210.2913,24.2031 L210.2913,23.0469 Q210.2913,21.7188 210.9006,20.5781 Q211.5256,19.4219 212.6194,18.8125 Q213.7131,18.1875 214.9475,18.1875 Q215.6819,18.1875 216.3225,18.3594 Q216.9788,18.5156 217.5256,18.875 Z " fill="#000000"/><text fill="#000000" font-family="sans-serif" font-size="14" lengthAdjust="spacing" textLength="73" x="228.76" y="28.7969">consumidor</text><line style="stroke:#181818;stroke-width:0.5;" x1="200.76" x2="303.76" y1="39" y2="39"/><line style="stroke:#181818;stroke-width:0.5;" x1="200.76" x2="303.76" y1="47" y2="47"/></g><!--class repartidor--><g id="elem_repartidor"><rect codeLine="4" fill="#F1F1F1" height="48" id="repartidor" rx="2.5" ry="2.5" style="stroke:#181818;stroke-width:0.5;" width="94" x="1239.26" y="7"/><ellipse cx="1254.26" cy="23" fill="#ADD1B2" rx="11" ry="11" style="stroke:#181818;stroke-width:1.0;"/><path d="M1257.0256,18.875 Q1257.1819,18.6563 1257.3694,18.5469 Q1257.5569,18.4375 1257.7756,18.4375 Q1258.1506,18.4375 1258.385,18.7031 Q1258.6194,18.9531 1258.6194,19.5625 L1258.6194,21.0156 Q1258.6194,21.625 1258.385,21.8906 Q1258.1506,22.1563 1257.7756,22.1563 Q1257.4319,22.1563 1257.2288,21.9531 Q1257.0256,21.7656 1256.9163,21.25 Q1256.8694,20.8906 1256.6819,20.7031 Q1256.3538,20.3281 1255.7444,20.1094 Q1255.135,19.8906 1254.51,19.8906 Q1253.7444,19.8906 1253.1038,20.2188 Q1252.4788,20.5469 1251.9788,21.2969 Q1251.4944,22.0469 1251.4944,23.0781 L1251.4944,24.1719 Q1251.4944,25.4063 1252.385,26.2344 Q1253.2756,27.0469 1254.8694,27.0469 Q1255.8069,27.0469 1256.4631,26.7969 Q1256.8538,26.6406 1257.2756,26.2031 Q1257.5413,25.9375 1257.6819,25.8594 Q1257.8381,25.7813 1258.0413,25.7813 Q1258.3694,25.7813 1258.6194,26.0469 Q1258.885,26.2969 1258.885,26.6406 Q1258.885,26.9844 1258.5413,27.3906 Q1258.0413,27.9688 1257.2444,28.2969 Q1256.1663,28.75 1254.8694,28.75 Q1253.3538,28.75 1252.1506,28.125 Q1251.1663,27.625 1250.4788,26.5625 Q1249.7913,25.4844 1249.7913,24.2031 L1249.7913,23.0469 Q1249.7913,21.7188 1250.4006,20.5781 Q1251.0256,19.4219 1252.1194,18.8125 Q1253.2131,18.1875 1254.4475,18.1875 Q1255.1819,18.1875 1255.8225,18.3594 Q1256.4788,18.5156 1257.0256,18.875 Z " fill="#000000"/><text fill="#000000" font-family="sans-serif" font-size="14" lengthAdjust="spacing" textLength="62" x="1268.26" y="28.7969">repartidor</text><line style="stroke:#181818;stroke-width:0.5;" x1="1240.26" x2="1332.26" y1="39" y2="39"/><line style="stroke:#181818;stroke-width:0.5;" x1="1240.26" x2="1332.26" y1="47" y2="47"/></g><!--class almacen--><g id="elem_almacen"><rect codeLine="5" fill="#F1F1F1" height="48" id="almacen" rx="2.5" ry="2.5" style="stroke:#181818;stroke-width:0.5;" width="85" x="713.76" y="261"/><ellipse cx="728.76" cy="277" fill="#ADD1B2" rx="11" ry="11" style="stroke:#181818;stroke-width:1.0;"/><path d="M731.5256,272.875 Q731.6819,272.6563 731.8694,272.5469 Q732.0569,272.4375 732.2756,272.4375 Q732.6506,272.4375 732.885,272.7031 Q733.1194,272.9531 733.1194,273.5625 L733.1194,275.0156 Q733.1194,275.625 732.885,275.8906 Q732.6506,276.1563 732.2756,276.1563 Q731.9319,276.1563 731.7288,275.9531 Q731.5256,275.7656 731.4163,275.25 Q731.3694,274.8906 731.1819,274.7031 Q730.8538,274.3281 730.2444,274.1094 Q729.635,273.8906 729.01,273.8906 Q728.2444,273.8906 727.6038,274.2188 Q726.9788,274.5469 726.4788,275.2969 Q725.9944,276.0469 725.9944,277.0781 L725.9944,278.1719 Q725.9944,279.4063 726.885,280.2344 Q727.7756,281.0469 729.3694,281.0469 Q730.3069,281.0469 730.9631,280.7969 Q731.3538,280.6406 731.7756,280.2031 Q732.0413,279.9375 732.1819,279.8594 Q732.3381,279.7813 732.5413,279.7813 Q732.8694,279.7813 733.1194,280.0469 Q733.385,280.2969 733.385,280.6406 Q733.385,280.9844 733.0413,281.3906 Q732.5413,281.9688 731.7444,282.2969 Q730.6663,282.75 729.3694,282.75 Q727.8538,282.75 726.6506,282.125 Q725.6663,281.625 724.9788,280.5625 Q724.2913,279.4844 724.2913,278.2031 L724.2913,277.0469 Q724.2913,275.7188 724.9006,274.5781 Q725.5256,273.4219 726.6194,272.8125 Q727.7131,272.1875 728.9475,272.1875 Q729.6819,272.1875 730.3225,272.3594 Q730.9788,272.5156 731.5256,272.875 Z " fill="#000000"/><text fill="#000000" font-family="sans-serif" font-size="14" lengthAdjust="spacing" textLength="53" x="742.76" y="282.7969">almacen</text><line style="stroke:#181818;stroke-width:0.5;" x1="714.76" x2="797.76" y1="293" y2="293"/><line style="stroke:#181818;stroke-width:0.5;" x1="714.76" x2="797.76" y1="301" y2="301"/></g><!--class pedido--><g id="elem_pedido"><rect codeLine="6" fill="#F1F1F1" height="48" id="pedido" rx="2.5" ry="2.5" style="stroke:#181818;stroke-width:0.5;" width="75" x="1583.76" y="261"/><ellipse cx="1598.76" cy="277" fill="#ADD1B2" rx="11" ry="11" style="stroke:#181818;stroke-width:1.0;"/><path d="M1601.5256,272.875 Q1601.6819,272.6563 1601.8694,272.5469 Q1602.0569,272.4375 1602.2756,272.4375 Q1602.6506,272.4375 1602.885,272.7031 Q1603.1194,272.9531 1603.1194,273.5625 L1603.1194,275.0156 Q1603.1194,275.625 1602.885,275.8906 Q1602.6506,276.1563 1602.2756,276.1563 Q1601.9319,276.1563 1601.7288,275.9531 Q1601.5256,275.7656 1601.4163,275.25 Q1601.3694,274.8906 1601.1819,274.7031 Q1600.8538,274.3281 1600.2444,274.1094 Q1599.635,273.8906 1599.01,273.8906 Q1598.2444,273.8906 1597.6038,274.2188 Q1596.9788,274.5469 1596.4788,275.2969 Q1595.9944,276.0469 1595.9944,277.0781 L1595.9944,278.1719 Q1595.9944,279.4063 1596.885,280.2344 Q1597.7756,281.0469 1599.3694,281.0469 Q1600.3069,281.0469 1600.9631,280.7969 Q1601.3538,280.6406 1601.7756,280.2031 Q1602.0413,279.9375 1602.1819,279.8594 Q1602.3381,279.7813 1602.5413,279.7813 Q1602.8694,279.7813 1603.1194,280.0469 Q1603.385,280.2969 1603.385,280.6406 Q1603.385,280.9844 1603.0413,281.3906 Q1602.5413,281.9688 1601.7444,282.2969 Q1600.6663,282.75 1599.3694,282.75 Q1597.8538,282.75 1596.6506,282.125 Q1595.6663,281.625 1594.9788,280.5625 Q1594.2913,279.4844 1594.2913,278.2031 L1594.2913,277.0469 Q1594.2913,275.7188 1594.9006,274.5781 Q1595.5256,273.4219 1596.6194,272.8125 Q1597.7131,272.1875 1598.9475,272.1875 Q1599.6819,272.1875 1600.3225,272.3594 Q1600.9788,272.5156 1601.5256,272.875 Z " fill="#000000"/><text fill="#000000" font-family="sans-serif" font-size="14" lengthAdjust="spacing" textLength="43" x="1612.76" y="282.7969">pedido</text><line style="stroke:#181818;stroke-width:0.5;" x1="1584.76" x2="1657.76" y1="293" y2="293"/><line style="stroke:#181818;stroke-width:0.5;" x1="1584.76" x2="1657.76" y1="301" y2="301"/></g><!--class producto--><g id="elem_producto"><rect codeLine="7" fill="#F1F1F1" height="48" id="producto" rx="2.5" ry="2.5" style="stroke:#181818;stroke-width:0.5;" width="88" x="516.26" y="388"/><ellipse cx="531.26" cy="404" fill="#ADD1B2" rx="11" ry="11" style="stroke:#181818;stroke-width:1.0;"/><path d="M534.0256,399.875 Q534.1819,399.6563 534.3694,399.5469 Q534.5569,399.4375 534.7756,399.4375 Q535.1506,399.4375 535.385,399.7031 Q535.6194,399.9531 535.6194,400.5625 L535.6194,402.0156 Q535.6194,402.625 535.385,402.8906 Q535.1506,403.1563 534.7756,403.1563 Q534.4319,403.1563 534.2288,402.9531 Q534.0256,402.7656 533.9163,402.25 Q533.8694,401.8906 533.6819,401.7031 Q533.3538,401.3281 532.7444,401.1094 Q532.135,400.8906 531.51,400.8906 Q530.7444,400.8906 530.1038,401.2188 Q529.4788,401.5469 528.9788,402.2969 Q528.4944,403.0469 528.4944,404.0781 L528.4944,405.1719 Q528.4944,406.4063 529.385,407.2344 Q530.2756,408.0469 531.8694,408.0469 Q532.8069,408.0469 533.4631,407.7969 Q533.8538,407.6406 534.2756,407.2031 Q534.5413,406.9375 534.6819,406.8594 Q534.8381,406.7813 535.0413,406.7813 Q535.3694,406.7813 535.6194,407.0469 Q535.885,407.2969 535.885,407.6406 Q535.885,407.9844 535.5413,408.3906 Q535.0413,408.9688 534.2444,409.2969 Q533.1663,409.75 531.8694,409.75 Q530.3538,409.75 529.1506,409.125 Q528.1663,408.625 527.4788,407.5625 Q526.7913,406.4844 526.7913,405.2031 L526.7913,404.0469 Q526.7913,402.7188 527.4006,401.5781 Q528.0256,400.4219 529.1194,399.8125 Q530.2131,399.1875 531.4475,399.1875 Q532.1819,399.1875 532.8225,399.3594 Q533.4788,399.5156 534.0256,399.875 Z " fill="#000000"/><text fill="#000000" font-family="sans-serif" font-size="14" lengthAdjust="spacing" textLength="56" x="545.26" y="409.7969">producto</text><line style="stroke:#181818;stroke-width:0.5;" x1="517.26" x2="603.26" y1="420" y2="420"/><line style="stroke:#181818;stroke-width:0.5;" x1="517.26" x2="603.26" y1="428" y2="428"/></g><!--class establecimiento--><g id="elem_establecimiento"><rect codeLine="8" fill="#F1F1F1" height="48" id="establecimiento" rx="2.5" ry="2.5" style="stroke:#181818;stroke-width:0.5;" width="130" x="553.26" y="134"/><ellipse cx="568.26" cy="150" fill="#ADD1B2" rx="11" ry="11" style="stroke:#181818;stroke-width:1.0;"/><path d="M571.0256,145.875 Q571.1819,145.6563 571.3694,145.5469 Q571.5569,145.4375 571.7756,145.4375 Q572.1506,145.4375 572.385,145.7031 Q572.6194,145.9531 572.6194,146.5625 L572.6194,148.0156 Q572.6194,148.625 572.385,148.8906 Q572.1506,149.1563 571.7756,149.1563 Q571.4319,149.1563 571.2288,148.9531 Q571.0256,148.7656 570.9163,148.25 Q570.8694,147.8906 570.6819,147.7031 Q570.3538,147.3281 569.7444,147.1094 Q569.135,146.8906 568.51,146.8906 Q567.7444,146.8906 567.1038,147.2188 Q566.4788,147.5469 565.9788,148.2969 Q565.4944,149.0469 565.4944,150.0781 L565.4944,151.1719 Q565.4944,152.4063 566.385,153.2344 Q567.2756,154.0469 568.8694,154.0469 Q569.8069,154.0469 570.4631,153.7969 Q570.8538,153.6406 571.2756,153.2031 Q571.5413,152.9375 571.6819,152.8594 Q571.8381,152.7813 572.0413,152.7813 Q572.3694,152.7813 572.6194,153.0469 Q572.885,153.2969 572.885,153.6406 Q572.885,153.9844 572.5413,154.3906 Q572.0413,154.9688 571.2444,155.2969 Q570.1663,155.75 568.8694,155.75 Q567.3538,155.75 566.1506,155.125 Q565.1663,154.625 564.4788,153.5625 Q563.7913,152.4844 563.7913,151.2031 L563.7913,150.0469 Q563.7913,148.7188 564.4006,147.5781 Q565.0256,146.4219 566.1194,145.8125 Q567.2131,145.1875 568.4475,145.1875 Q569.1819,145.1875 569.8225,145.3594 Q570.4788,145.5156 571.0256,145.875 Z " fill="#000000"/><text fill="#000000" font-family="sans-serif" font-size="14" lengthAdjust="spacing" textLength="98" x="582.26" y="155.7969">establecimiento</text><line style="stroke:#181818;stroke-width:0.5;" x1="554.26" x2="682.26" y1="166" y2="166"/><line style="stroke:#181818;stroke-width:0.5;" x1="554.26" x2="682.26" y1="174" y2="174"/></g><!--class empresa_secundaria--><g id="elem_empresa_secundaria"><rect codeLine="9" fill="#F1F1F1" height="48" id="empresa_secundaria" rx="2.5" ry="2.5" style="stroke:#181818;stroke-width:0.5;" width="165" x="1203.76" y="134"/><ellipse cx="1218.76" cy="150" fill="#ADD1B2" rx="11" ry="11" style="stroke:#181818;stroke-width:1.0;"/><path d="M1221.5256,145.875 Q1221.6819,145.6563 1221.8694,145.5469 Q1222.0569,145.4375 1222.2756,145.4375 Q1222.6506,145.4375 1222.885,145.7031 Q1223.1194,145.9531 1223.1194,146.5625 L1223.1194,148.0156 Q1223.1194,148.625 1222.885,148.8906 Q1222.6506,149.1563 1222.2756,149.1563 Q1221.9319,149.1563 1221.7288,148.9531 Q1221.5256,148.7656 1221.4163,148.25 Q1221.3694,147.8906 1221.1819,147.7031 Q1220.8538,147.3281 1220.2444,147.1094 Q1219.635,146.8906 1219.01,146.8906 Q1218.2444,146.8906 1217.6038,147.2188 Q1216.9788,147.5469 1216.4788,148.2969 Q1215.9944,149.0469 1215.9944,150.0781 L1215.9944,151.1719 Q1215.9944,152.4063 1216.885,153.2344 Q1217.7756,154.0469 1219.3694,154.0469 Q1220.3069,154.0469 1220.9631,153.7969 Q1221.3538,153.6406 1221.7756,153.2031 Q1222.0413,152.9375 1222.1819,152.8594 Q1222.3381,152.7813 1222.5413,152.7813 Q1222.8694,152.7813 1223.1194,153.0469 Q1223.385,153.2969 1223.385,153.6406 Q1223.385,153.9844 1223.0413,154.3906 Q1222.5413,154.9688 1221.7444,155.2969 Q1220.6663,155.75 1219.3694,155.75 Q1217.8538,155.75 1216.6506,155.125 Q1215.6663,154.625 1214.9788,153.5625 Q1214.2913,152.4844 1214.2913,151.2031 L1214.2913,150.0469 Q1214.2913,148.7188 1214.9006,147.5781 Q1215.5256,146.4219 1216.6194,145.8125 Q1217.7131,145.1875 1218.9475,145.1875 Q1219.6819,145.1875 1220.3225,145.3594 Q1220.9788,145.5156 1221.5256,145.875 Z " fill="#000000"/><text fill="#000000" font-family="sans-serif" font-size="14" lengthAdjust="spacing" textLength="133" x="1232.76" y="155.7969">empresa_secundaria</text><line style="stroke:#181818;stroke-width:0.5;" x1="1204.76" x2="1367.76" y1="166" y2="166"/><line style="stroke:#181818;stroke-width:0.5;" x1="1204.76" x2="1367.76" y1="174" y2="174"/></g><!--class Establecimiento--><g id="elem_Establecimiento"><rect fill="#F1F1F1" height="48" id="Establecimiento" rx="2.5" ry="2.5" style="stroke:#181818;stroke-width:0.5;" width="131" x="1817.76" y="134"/><ellipse cx="1832.76" cy="150" fill="#ADD1B2" rx="11" ry="11" style="stroke:#181818;stroke-width:1.0;"/><path d="M1835.5256,145.875 Q1835.6819,145.6563 1835.8694,145.5469 Q1836.0569,145.4375 1836.2756,145.4375 Q1836.6506,145.4375 1836.885,145.7031 Q1837.1194,145.9531 1837.1194,146.5625 L1837.1194,148.0156 Q1837.1194,148.625 1836.885,148.8906 Q1836.6506,149.1563 1836.2756,149.1563 Q1835.9319,149.1563 1835.7288,148.9531 Q1835.5256,148.7656 1835.4163,148.25 Q1835.3694,147.8906 1835.1819,147.7031 Q1834.8538,147.3281 1834.2444,147.1094 Q1833.635,146.8906 1833.01,146.8906 Q1832.2444,146.8906 1831.6038,147.2188 Q1830.9788,147.5469 1830.4788,148.2969 Q1829.9944,149.0469 1829.9944,150.0781 L1829.9944,151.1719 Q1829.9944,152.4063 1830.885,153.2344 Q1831.7756,154.0469 1833.3694,154.0469 Q1834.3069,154.0469 1834.9631,153.7969 Q1835.3538,153.6406 1835.7756,153.2031 Q1836.0413,152.9375 1836.1819,152.8594 Q1836.3381,152.7813 1836.5413,152.7813 Q1836.8694,152.7813 1837.1194,153.0469 Q1837.385,153.2969 1837.385,153.6406 Q1837.385,153.9844 1837.0413,154.3906 Q1836.5413,154.9688 1835.7444,155.2969 Q1834.6663,155.75 1833.3694,155.75 Q1831.8538,155.75 1830.6506,155.125 Q1829.6663,154.625 1828.9788,153.5625 Q1828.2913,152.4844 1828.2913,151.2031 L1828.2913,150.0469 Q1828.2913,148.7188 1828.9006,147.5781 Q1829.5256,146.4219 1830.6194,145.8125 Q1831.7131,145.1875 1832.9475,145.1875 Q1833.6819,145.1875 1834.3225,145.3594 Q1834.9788,145.5156 1835.5256,145.875 Z " fill="#000000"/><text fill="#000000" font-family="sans-serif" font-size="14" lengthAdjust="spacing" textLength="99" x="1846.76" y="155.7969">Establecimiento</text><line style="stroke:#181818;stroke-width:0.5;" x1="1818.76" x2="1947.76" y1="166" y2="166"/><line style="stroke:#181818;stroke-width:0.5;" x1="1818.76" x2="1947.76" y1="174" y2="174"/></g><!--class productor--><g id="elem_productor"><rect fill="#F1F1F1" height="48" id="productor" rx="2.5" ry="2.5" style="stroke:#181818;stroke-width:0.5;" width="93" x="2077.76" y="134"/><ellipse cx="2092.76" cy="150" fill="#ADD1B2" rx="11" ry="11" style="stroke:#181818;stroke-width:1.0;"/><path d="M2095.5256,145.875 Q2095.6819,145.6563 2095.8694,145.5469 Q2096.0569,145.4375 2096.2756,145.4375 Q2096.6506,145.4375 2096.885,145.7031 Q2097.1194,145.9531 2097.1194,146.5625 L2097.1194,148.0156 Q2097.1194,148.625 2096.885,148.8906 Q2096.6506,149.1563 2096.2756,149.1563 Q2095.9319,149.1563 2095.7287,148.9531 Q2095.5256,148.7656 2095.4162,148.25 Q2095.3694,147.8906 2095.1819,147.7031 Q2094.8537,147.3281 2094.2444,147.1094 Q2093.635,146.8906 2093.01,146.8906 Q2092.2444,146.8906 2091.6037,147.2188 Q2090.9787,147.5469 2090.4787,148.2969 Q2089.9944,149.0469 2089.9944,150.0781 L2089.9944,151.1719 Q2089.9944,152.4063 2090.885,153.2344 Q2091.7756,154.0469 2093.3694,154.0469 Q2094.3069,154.0469 2094.9631,153.7969 Q2095.3537,153.6406 2095.7756,153.2031 Q2096.0412,152.9375 2096.1819,152.8594 Q2096.3381,152.7813 2096.5412,152.7813 Q2096.8694,152.7813 2097.1194,153.0469 Q2097.385,153.2969 2097.385,153.6406 Q2097.385,153.9844 2097.0412,154.3906 Q2096.5412,154.9688 2095.7444,155.2969 Q2094.6662,155.75 2093.3694,155.75 Q2091.8537,155.75 2090.6506,155.125 Q2089.6662,154.625 2088.9787,153.5625 Q2088.2912,152.4844 2088.2912,151.2031 L2088.2912,150.0469 Q2088.2912,148.7188 2088.9006,147.5781 Q2089.5256,146.4219 2090.6194,145.8125 Q2091.7131,145.1875 2092.9475,145.1875 Q2093.6819,145.1875 2094.3225,145.3594 Q2094.9787,145.5156 2095.5256,145.875 Z " fill="#000000"/><text fill="#000000" font-family="sans-serif" font-size="14" lengthAdjust="spacing" textLength="61" x="2106.76" y="155.7969">productor</text><line style="stroke:#181818;stroke-width:0.5;" x1="2078.76" x2="2169.76" y1="166" y2="166"/><line style="stroke:#181818;stroke-width:0.5;" x1="2078.76" x2="2169.76" y1="174" y2="174"/></g><!--link consumidor to producto--><g id="link_consumidor_producto"><path codeLine="12" d="M199.48,52.56 C125.92,84.6 6,151.13 47.26,231 C92.03,317.66 135.94,321.17 226.26,358 C324.52,398.07 444.5339,407.7643 510.1239,410.1243 " fill="none" id="consumidor-to-producto" style="stroke:#181818;stroke-width:1.0;"/><polygon fill="#181818" points="516.12,410.34,507.2697,406.019,511.1232,410.1602,506.982,414.0138,516.12,410.34" style="stroke:#181818;stroke-width:1.0;"/><text fill="#000000" font-family="sans-serif" font-size="13" lengthAdjust="spacing" textLength="160" x="48.26" y="227.0283">se quiere producto acabado</text></g><!--link consumidor to producto--><g id="link_consumidor_producto"><path codeLine="33" d="M254.75,55.3 C262.64,116.39 292.93,281.73 395.26,358 C430.96,384.61 474.6343,397.0563 510.1043,403.7563 " fill="none" id="consumidor-to-producto-1" style="stroke:#181818;stroke-width:1.0;"/><polygon fill="#181818" points="516,404.87,507.8988,399.269,511.0869,403.942,506.4139,407.13,516,404.87" style="stroke:#181818;stroke-width:1.0;"/><text fill="#000000" font-family="sans-serif" font-size="13" lengthAdjust="spacing" textLength="89" x="302.26" y="227.0283">recibe producto</text></g><!--link establecimiento to producto--><g id="link_establecimiento_producto"><path codeLine="13" d="M553.17,167.15 C496.76,178.03 418.37,203.2 380.26,261 C339,323.57 444.7132,371.7798 510.3832,394.9998 " fill="none" id="establecimiento-to-producto" style="stroke:#181818;stroke-width:1.0;"/><polygon fill="#181818" points="516.04,397,508.8882,390.2286,511.326,395.3332,506.2214,397.771,516.04,397" style="stroke:#181818;stroke-width:1.0;"/><text fill="#000000" font-family="sans-serif" font-size="13" lengthAdjust="spacing" textLength="135" x="381.26" y="290.5283">tiene producto acabado</text></g><!--link establecimiento to producto--><g id="link_establecimiento_producto"><path codeLine="29" d="M607.41,182.09 C603.44,191.25 599.21,201.96 596.26,212 C577.92,274.31 568.0041,344.5326 563.5141,381.9926 " fill="none" id="establecimiento-to-producto-1" style="stroke:#181818;stroke-width:1.0;"/><polygon fill="#181818" points="562.8,387.95,567.8427,379.49,563.395,382.9855,559.8995,378.5379,562.8,387.95" style="stroke:#181818;stroke-width:1.0;"/><text fill="#000000" font-family="sans-serif" font-size="13" lengthAdjust="spacing" textLength="82" x="584.26" y="290.5283">tiene producto</text></g><!--link establecimiento to almacen--><g id="link_establecimiento_almacen"><path codeLine="14" d="M674.75,182.02 C689.78,189.97 705.17,199.97 717.26,212 C731.07,225.74 738.9152,239.8671 745.4152,255.1771 " fill="none" id="establecimiento-to-almacen" style="stroke:#181818;stroke-width:1.0;"/><polygon fill="#181818" points="747.76,260.7,747.9247,250.8525,745.806,256.0976,740.5609,253.9789,747.76,260.7" style="stroke:#181818;stroke-width:1.0;"/><text fill="#000000" font-family="sans-serif" font-size="13" lengthAdjust="spacing" textLength="96" x="731.26" y="227.0283">mira en almacen</text></g><!--link establecimiento to almacen--><g id="link_establecimiento_almacen"><path codeLine="31" d="M608.74,182.07 C604.1,197.27 601.4,216.9 611.26,231 C623.35,248.3 669.6376,262.8812 707.9376,272.6912 " fill="none" id="establecimiento-to-almacen-1" style="stroke:#181818;stroke-width:1.0;"/><polygon fill="#181818" points="713.75,274.18,706.024,268.072,708.9064,272.9394,704.0389,275.8218,713.75,274.18" style="stroke:#181818;stroke-width:1.0;"/><text fill="#000000" font-family="sans-serif" font-size="13" lengthAdjust="spacing" textLength="96" x="612.26" y="227.0283">mira en almacen</text></g><!--link almacen to producto--><g id="link_almacen_producto"><path codeLine="15" d="M762.94,309.06 C765.93,324.45 766.75,344.3 756.26,358 C737.94,381.93 662.5747,396.6571 610.6147,404.3871 " fill="none" id="almacen-to-producto" style="stroke:#181818;stroke-width:1.0;"/><polygon fill="#181818" points="604.68,405.27,614.1706,407.9021,609.6256,404.5343,612.9934,399.9892,604.68,405.27" style="stroke:#181818;stroke-width:1.0;"/><text fill="#000000" font-family="sans-serif" font-size="13" lengthAdjust="spacing" textLength="135" x="764.26" y="354.0283">tiene producto acabado</text></g><!--link almacen to producto--><g id="link_almacen_producto"><path codeLine="19" d="M713.6,294.42 C682.81,302.11 641.5,315.89 611.26,339 C594.34,351.93 583.7153,366.8183 574.8353,382.5083 " fill="none" id="almacen-to-producto-1" style="stroke:#181818;stroke-width:1.0;"/><polygon fill="#181818" points="571.88,387.73,579.7941,381.8676,574.3428,383.3786,572.8318,377.9272,571.88,387.73" style="stroke:#181818;stroke-width:1.0;"/><text fill="#000000" font-family="sans-serif" font-size="13" lengthAdjust="spacing" textLength="135" x="612.26" y="354.0283">tiene producto acabado</text></g><!--link Establecimiento to pedido--><g id="link_Establecimiento_pedido"><path codeLine="16" d="M1826.18,182.01 C1804.71,190.97 1780.19,201.59 1758.26,212 C1741.92,219.76 1738.27,222.57 1722.26,231 C1701.41,241.97 1683.434,251.4141 1664.474,261.3541 " fill="none" id="Establecimiento-to-pedido" style="stroke:#181818;stroke-width:1.0;"/><polygon fill="#181818" points="1659.16,264.14,1668.9883,263.5038,1663.5883,261.8184,1665.2737,256.4184,1659.16,264.14" style="stroke:#181818;stroke-width:1.0;"/><text fill="#000000" font-family="sans-serif" font-size="13" lengthAdjust="spacing" textLength="202" x="1759.26" y="227.0283">hace pedido a empresa secundaria</text></g><!--link empresa_secundaria to pedido--><g id="link_empresa_secundaria_pedido"><path codeLine="17" d="M1327.76,182.13 C1364.33,202.46 1412.53,229.12 1417.26,231 C1473.37,253.3 1536.0045,267.7036 1577.6345,275.9536 " fill="none" id="empresa_secundaria-to-pedido" style="stroke:#181818;stroke-width:1.0;"/><polygon fill="#181818" points="1583.52,277.12,1575.4693,271.4468,1578.6154,276.148,1573.9141,279.2941,1583.52,277.12" style="stroke:#181818;stroke-width:1.0;"/><text fill="#000000" font-family="sans-serif" font-size="13" lengthAdjust="spacing" textLength="77" x="1418.26" y="227.0283">recibe pedido</text></g><!--link empresa_secundaria to pedido--><g id="link_empresa_secundaria_pedido"><path codeLine="20" d="M1368.84,173.53 C1409.34,182.13 1458.31,194.77 1500.26,212 C1517.27,218.99 1551.0207,239.4562 1580.1407,257.7662 " fill="none" id="empresa_secundaria-to-pedido-1" style="stroke:#181818;stroke-width:1.0;"/><polygon fill="#181818" points="1585.22,260.96,1579.7302,252.7831,1580.9872,258.2985,1575.4718,259.5556,1585.22,260.96" style="stroke:#181818;stroke-width:1.0;"/><text fill="#000000" font-family="sans-serif" font-size="13" lengthAdjust="spacing" textLength="139" x="1536.26" y="227.0283">hace pedido a productor</text></g><!--link empresa_secundaria to pedido--><g id="link_empresa_secundaria_pedido"><path codeLine="26" d="M1203.42,173.67 C1159.62,184.97 1119.56,203.4 1144.26,231 C1173.43,263.59 1469.7247,278.1429 1577.4247,282.4029 " fill="none" id="empresa_secundaria-to-pedido-2" style="stroke:#181818;stroke-width:1.0;"/><polygon fill="#181818" points="1583.42,282.64,1574.5851,278.2874,1578.4239,282.4424,1574.2689,286.2812,1583.42,282.64" style="stroke:#181818;stroke-width:1.0;"/><text fill="#000000" font-family="sans-serif" font-size="13" lengthAdjust="spacing" textLength="227" x="1145.26" y="227.0283">recibe pedido y envia a establecimiento</text></g><!--link empresa_secundaria to almacen--><g id="link_empresa_secundaria_almacen"><path codeLine="18" d="M1203.51,173.46 C1153.07,182.93 1087.52,196.42 1030.26,212 C1004.9,218.9 999.5,223.67 974.26,231 C914.04,248.5 849.1976,263.6507 805.0176,273.4507 " fill="none" id="empresa_secundaria-to-almacen" style="stroke:#181818;stroke-width:1.0;"/><polygon fill="#181818" points="799.16,274.75,808.8127,276.7061,804.0414,273.6672,807.0802,268.8959,799.16,274.75" style="stroke:#181818;stroke-width:1.0;"/><text fill="#000000" font-family="sans-serif" font-size="13" lengthAdjust="spacing" textLength="96" x="1031.26" y="227.0283">mira en almacen</text></g><!--link productor to pedido--><g id="link_productor_pedido"><path codeLine="21" d="M2077.54,178.32 C2054.66,188.02 2026.82,200.2 2002.26,212 C1985.95,219.83 1983.44,225.33 1966.26,231 C1858.37,266.64 1729.4396,278.147 1664.9596,281.947 " fill="none" id="productor-to-pedido" style="stroke:#181818;stroke-width:1.0;"/><polygon fill="#181818" points="1658.97,282.3,1668.1897,285.7636,1663.9613,282.0058,1667.7191,277.7774,1658.97,282.3" style="stroke:#181818;stroke-width:1.0;"/><text fill="#000000" font-family="sans-serif" font-size="13" lengthAdjust="spacing" textLength="77" x="2003.26" y="227.0283">recibe pedido</text></g><!--link productor to pedido--><g id="link_productor_pedido"><path codeLine="23" d="M2118.02,182.05 C2112.3,198.49 2102.11,219.62 2085.26,231 C2015.89,277.86 1762.5199,283.5811 1664.8099,284.0511 " fill="none" id="productor-to-pedido-1" style="stroke:#181818;stroke-width:1.0;"/><polygon fill="#181818" points="1658.81,284.08,1667.8291,288.0367,1663.8099,284.0559,1667.7907,280.0368,1658.81,284.08" style="stroke:#181818;stroke-width:1.0;"/><text fill="#000000" font-family="sans-serif" font-size="13" lengthAdjust="spacing" textLength="144" x="2104.26" y="227.0283">enviar pedido a repartidor</text></g><!--link productor to producto--><g id="link_productor_producto"><path codeLine="22" d="M2170.9,166.9 C2219.95,177.17 2286.3,197.8 2257.26,231 C2144.92,359.43 866.4975,402.3083 610.4875,409.6383 " fill="none" id="productor-to-producto" style="stroke:#181818;stroke-width:1.0;"/><polygon fill="#181818" points="604.49,409.81,613.6008,413.5508,609.488,409.6669,613.3718,405.5541,604.49,409.81" style="stroke:#181818;stroke-width:1.0;"/><text fill="#000000" font-family="sans-serif" font-size="13" lengthAdjust="spacing" textLength="82" x="2204.26" y="290.5283">tiene producto</text></g><!--link repartidor to pedido--><g id="link_repartidor_pedido"><path codeLine="24" d="M1333.3,37.31 C1419.93,49.9 1602.98,90.31 1681.26,212 C1692.7,229.79 1681.843,244.4707 1663.663,258.1607 " fill="none" id="repartidor-to-pedido" style="stroke:#181818;stroke-width:1.0;"/><polygon fill="#181818" points="1658.87,261.77,1668.4657,259.5514,1662.8642,258.7623,1663.6534,253.1607,1658.87,261.77" style="stroke:#181818;stroke-width:1.0;"/><text fill="#000000" font-family="sans-serif" font-size="13" lengthAdjust="spacing" textLength="77" x="1658.26" y="163.5283">recibe pedido</text></g><!--link repartidor to empresa_secundaria--><g id="link_repartidor_empresa_secundaria"><path codeLine="25" d="M1286.26,55.22 C1286.26,77.67 1286.26,105.5 1286.26,127.91 " fill="none" id="repartidor-to-empresa_secundaria" style="stroke:#181818;stroke-width:1.0;"/><polygon fill="#181818" points="1286.26,133.91,1290.26,124.91,1286.26,128.91,1282.26,124.91,1286.26,133.91" style="stroke:#181818;stroke-width:1.0;"/><text fill="#000000" font-family="sans-serif" font-size="13" lengthAdjust="spacing" textLength="71" x="1287.26" y="100.0283">envia pedido</text></g><!--link repartidor to establecimiento--><g id="link_repartidor_establecimiento"><path codeLine="27" d="M1239.02,40.84 C1121.8,62.78 823.2876,118.6365 689.1976,143.7265 " fill="none" id="repartidor-to-establecimiento" style="stroke:#181818;stroke-width:1.0;"/><polygon fill="#181818" points="683.3,144.83,692.8822,147.1065,688.2147,143.9104,691.4108,139.2429,683.3,144.83" style="stroke:#181818;stroke-width:1.0;"/><text fill="#000000" font-family="sans-serif" font-size="13" lengthAdjust="spacing" textLength="213" x="992.26" y="100.0283">envia pedido de empresa_secundaria</text></g><!--link establecimiento to pedido--><g id="link_establecimiento_pedido"><path codeLine="28" d="M683.67,172.78 C727.26,182.48 785.62,196.47 836.26,212 C859.39,219.09 863.62,225.85 887.26,231 C1022.24,260.38 1446.934,277.7218 1577.434,282.4718 " fill="none" id="establecimiento-to-pedido" style="stroke:#181818;stroke-width:1.0;"/><polygon fill="#181818" points="1583.43,282.69,1574.5815,278.3653,1578.4333,282.5081,1574.2905,286.36,1583.43,282.69" style="stroke:#181818;stroke-width:1.0;"/><text fill="#000000" font-family="sans-serif" font-size="13" lengthAdjust="spacing" textLength="77" x="888.26" y="227.0283">recibe pedido</text></g><!--link establecimiento to establecimiento--><g id="link_establecimiento_establecimiento"><path codeLine="30" d="M683.66,146.4 C703.12,146.75 718.26,150.61 718.26,158 C718.26,165.39 709.119,169.1421 689.659,169.4921 " fill="none" id="establecimiento-to-establecimiento" style="stroke:#181818;stroke-width:1.0;"/><polygon fill="#181818" points="683.66,169.6,692.7305,173.4375,688.6592,169.5101,692.5866,165.4388,683.66,169.6" style="stroke:#181818;stroke-width:1.0;"/><text fill="#000000" font-family="sans-serif" font-size="13" lengthAdjust="spacing" textLength="75" x="724.26" y="163.5283">hace restock</text></g><!--link consumidor to establecimiento--><g id="link_consumidor_establecimiento"><path codeLine="32" d="M305.09,50.04 C370.61,72.42 476.6219,108.631 547.4019,132.801 " fill="none" id="consumidor-to-establecimiento" style="stroke:#181818;stroke-width:1.0;"/><polygon fill="#181818" points="553.08,134.74,545.8555,128.0462,548.3483,133.1242,543.2703,135.617,553.08,134.74" style="stroke:#181818;stroke-width:1.0;"/><text fill="#000000" font-family="sans-serif" font-size="13" lengthAdjust="spacing" textLength="97" x="457.26" y="100.0283">compra producto</text></g><!--SRC=[hLH1ZiCW3Bpd5NoW7-YXjxtl3rQEiRHe0wI6hBI_Nok2a12Ijb9pmiQUyJWsE408wfEzdZ1wxd2sqRimMQCN1zC875SE62mWkMIDfEKk6maicHGYz0EXiOPSyTgHAS1N89oS1ZRGTLsXLPVBRG5ILnL8tIT3JCK923q8QOLVPqRnFfcLD4cIDGnAJbbbldaE-wDLqTmXoVaMe6n1ReDQjM7VcIq02t2V8OwYtoNbKJ5RDUCoHilfhFOgwAYO8p1olmQuiAzcj1pF-AkeXjP4yg3PRNZrbv9Xjm8rSJKlMrQbgRKjT3ParOoyiY7Dw7s5yu-NcgB7dnUNgThoFJPwaGkhT-JmMSWwS-Jy_GC0]--></g></svg>