<svg xmlns="http://www.w3.org/2000/svg" xmlns:xlink="http://www.w3.org/1999/xlink" contentStyleType="text/css" height="437px" preserveAspectRatio="none" style="width:214px;height:437px;background:#1B1B1B;" version="1.1" viewBox="0 0 214 437" width="214px" zoomAndPan="magnify"><defs/><g><rect fill="#1B1B1B" height="437" style="stroke:none;stroke-width:1.0;" width="214" x="0" y="0"/><!--class Sonido--><g id="elem_Sonido"><rect fill="#313139" height="48" id="Sonido" rx="2.5" ry="2.5" style="stroke:#E7E7E7;stroke-width:0.5;" width="79.667" x="78.98" y="7"/><ellipse cx="93.98" cy="23" fill="#2E5233" rx="11" ry="11" style="stroke:#E7E7E7;stroke-width:1.0;"/><path d="M96.9488,28.6406 Q96.3706,28.9375 95.73,29.0781 Q95.0894,29.2344 94.3863,29.2344 Q91.8863,29.2344 90.5581,27.5938 Q89.2456,25.9375 89.2456,22.8125 Q89.2456,19.6875 90.5581,18.0313 Q91.8863,16.375 94.3863,16.375 Q95.0894,16.375 95.73,16.5313 Q96.3863,16.6875 96.9488,16.9844 L96.9488,19.7031 Q96.3238,19.125 95.73,18.8594 Q95.1363,18.5781 94.5113,18.5781 Q93.1675,18.5781 92.48,19.6563 Q91.7925,20.7188 91.7925,22.8125 Q91.7925,24.9063 92.48,25.9844 Q93.1675,27.0469 94.5113,27.0469 Q95.1363,27.0469 95.73,26.7813 Q96.3238,26.5 96.9488,25.9219 L96.9488,28.6406 Z " fill="#FFFFFF"/><text fill="#FFFFFF" font-family="sans-serif" font-size="14" lengthAdjust="spacing" textLength="47.667" x="107.98" y="27.8467">Sonido</text><line style="stroke:#E7E7E7;stroke-width:0.5;" x1="79.98" x2="157.647" y1="39" y2="39"/><line style="stroke:#E7E7E7;stroke-width:0.5;" x1="79.98" x2="157.647" y1="47" y2="47"/></g><!--class Vibraciones--><g id="elem_Vibraciones"><rect fill="#313139" height="48" id="Vibraciones" rx="2.5" ry="2.5" style="stroke:#E7E7E7;stroke-width:0.5;" width="113.6211" x="7" y="132"/><ellipse cx="22" cy="148" fill="#2E5233" rx="11" ry="11" style="stroke:#E7E7E7;stroke-width:1.0;"/><path d="M24.9688,153.6406 Q24.3906,153.9375 23.75,154.0781 Q23.1094,154.2344 22.4063,154.2344 Q19.9063,154.2344 18.5781,152.5938 Q17.2656,150.9375 17.2656,147.8125 Q17.2656,144.6875 18.5781,143.0313 Q19.9063,141.375 22.4063,141.375 Q23.1094,141.375 23.75,141.5313 Q24.4063,141.6875 24.9688,141.9844 L24.9688,144.7031 Q24.3438,144.125 23.75,143.8594 Q23.1563,143.5781 22.5313,143.5781 Q21.1875,143.5781 20.5,144.6563 Q19.8125,145.7188 19.8125,147.8125 Q19.8125,149.9063 20.5,150.9844 Q21.1875,152.0469 22.5313,152.0469 Q23.1563,152.0469 23.75,151.7813 Q24.3438,151.5 24.9688,150.9219 L24.9688,153.6406 Z " fill="#FFFFFF"/><text fill="#FFFFFF" font-family="sans-serif" font-size="14" lengthAdjust="spacing" textLength="81.6211" x="36" y="152.8467">Vibraciones</text><line style="stroke:#E7E7E7;stroke-width:0.5;" x1="8" x2="119.6211" y1="164" y2="164"/><line style="stroke:#E7E7E7;stroke-width:0.5;" x1="8" x2="119.6211" y1="172" y2="172"/></g><!--class Barrera--><g id="elem_Barrera"><rect fill="#313139" height="48" id="Barrera" rx="2.5" ry="2.5" style="stroke:#E7E7E7;stroke-width:0.5;" width="84.6436" x="29.49" y="257"/><ellipse cx="44.49" cy="273" fill="#2E5233" rx="11" ry="11" style="stroke:#E7E7E7;stroke-width:1.0;"/><path d="M47.4587,278.6406 Q46.8806,278.9375 46.24,279.0781 Q45.5994,279.2344 44.8962,279.2344 Q42.3962,279.2344 41.0681,277.5938 Q39.7556,275.9375 39.7556,272.8125 Q39.7556,269.6875 41.0681,268.0313 Q42.3962,266.375 44.8962,266.375 Q45.5994,266.375 46.24,266.5313 Q46.8962,266.6875 47.4587,266.9844 L47.4587,269.7031 Q46.8337,269.125 46.24,268.8594 Q45.6462,268.5781 45.0212,268.5781 Q43.6775,268.5781 42.99,269.6563 Q42.3025,270.7188 42.3025,272.8125 Q42.3025,274.9063 42.99,275.9844 Q43.6775,277.0469 45.0212,277.0469 Q45.6462,277.0469 46.24,276.7813 Q46.8337,276.5 47.4587,275.9219 L47.4587,278.6406 Z " fill="#FFFFFF"/><text fill="#FFFFFF" font-family="sans-serif" font-size="14" lengthAdjust="spacing" textLength="52.6436" x="58.49" y="277.8467">Barrera</text><line style="stroke:#E7E7E7;stroke-width:0.5;" x1="30.49" x2="113.1336" y1="289" y2="289"/><line style="stroke:#E7E7E7;stroke-width:0.5;" x1="30.49" x2="113.1336" y1="297" y2="297"/></g><!--class Eco--><g id="elem_Eco"><rect fill="#313139" height="48" id="Eco" rx="2.5" ry="2.5" style="stroke:#E7E7E7;stroke-width:0.5;" width="57.1084" x="94.26" y="382"/><ellipse cx="109.26" cy="398" fill="#2E5233" rx="11" ry="11" style="stroke:#E7E7E7;stroke-width:1.0;"/><path d="M112.2288,403.6406 Q111.6506,403.9375 111.01,404.0781 Q110.3694,404.2344 109.6663,404.2344 Q107.1663,404.2344 105.8381,402.5938 Q104.5256,400.9375 104.5256,397.8125 Q104.5256,394.6875 105.8381,393.0313 Q107.1663,391.375 109.6663,391.375 Q110.3694,391.375 111.01,391.5313 Q111.6663,391.6875 112.2288,391.9844 L112.2288,394.7031 Q111.6038,394.125 111.01,393.8594 Q110.4163,393.5781 109.7913,393.5781 Q108.4475,393.5781 107.76,394.6563 Q107.0725,395.7188 107.0725,397.8125 Q107.0725,399.9063 107.76,400.9844 Q108.4475,402.0469 109.7913,402.0469 Q110.4163,402.0469 111.01,401.7813 Q111.6038,401.5 112.2288,400.9219 L112.2288,403.6406 Z " fill="#FFFFFF"/><text fill="#FFFFFF" font-family="sans-serif" font-size="14" lengthAdjust="spacing" textLength="25.1084" x="123.26" y="402.8467">Eco</text><line style="stroke:#E7E7E7;stroke-width:0.5;" x1="95.26" x2="150.3684" y1="414" y2="414"/><line style="stroke:#E7E7E7;stroke-width:0.5;" x1="95.26" x2="150.3684" y1="422" y2="422"/></g><!--link Sonido to Vibraciones--><g id="link_Sonido_Vibraciones"><path codeLine="1" d="M108.34,55.42 C98.55,77.31 84.02,109.8 74.25,131.66 " fill="none" id="Sonido-Vibraciones" style="stroke:#E7E7E7;stroke-width:1.0;"/><text fill="#FFFFFF" font-family="sans-serif" font-size="13" lengthAdjust="spacing" textLength="45.7983" x="95.81" y="98.0669">genera</text></g><!--link Vibraciones to Barrera--><g id="link_Vibraciones_Barrera"><path codeLine="2" d="M61.12,180.38 C59.97,194.01 59.22,211.51 60.81,227 C61.82,236.82 62.5423,241.6442 64.5923,250.8242 " fill="none" id="Vibraciones-to-Barrera" style="stroke:#E7E7E7;stroke-width:1.0;"/><polygon fill="#E7E7E7" points="65.9,256.68,67.8424,247.0246,64.8103,251.8002,60.0347,248.7681,65.9,256.68" style="stroke:#E7E7E7;stroke-width:1.0;"/><text fill="#FFFFFF" font-family="sans-serif" font-size="13" lengthAdjust="spacing" textLength="68.25" x="61.81" y="223.0669">se reflejan</text></g><!--link Barrera to Eco--><g id="link_Barrera_Eco"><path codeLine="3" d="M77.45,305.47 C81.11,319.29 86.39,336.95 92.81,352 C97.08,362.02 102.78,372.55 108.05,381.57 " fill="none" id="Barrera-Eco" style="stroke:#E7E7E7;stroke-width:1.0;"/><text fill="#FFFFFF" font-family="sans-serif" font-size="13" lengthAdjust="spacing" textLength="53.187" x="93.81" y="348.0669">produce</text></g><!--link Eco to Sonido--><g id="link_Eco_Sonido"><path codeLine="4" d="M138.94,381.53 C144.12,372.68 149.19,362.26 151.81,352 C153.68,344.68 151.84,342.56 151.81,335 C151.37,223.89 179.3,192.13 149.81,85 C146.95,74.62 141.53,64.18 136,55.34 " fill="none" id="Eco-Sonido" style="stroke:#E7E7E7;stroke-width:1.0;stroke-dasharray:7.0,7.0;"/><text fill="#FFFFFF" font-family="sans-serif" font-size="13" lengthAdjust="spacing" textLength="43.9702" x="162.81" y="223.0669">influye</text></g><!--SRC=[2yxFoqp9Lz3LLGZBJ2fAJCxCpqijLh1II4_DIorAv48MrDMrKt1AB2e2YWCL5ASg5AMcvQHc9UPnmKI1fhWcvmCb2uhoKqgJKxb0F3qzXM289LOAcNbfEQMLgG00]--></g></svg>