<svg xmlns="http://www.w3.org/2000/svg" xmlns:xlink="http://www.w3.org/1999/xlink" contentStyleType="text/css" height="437px" preserveAspectRatio="none" style="width:253px;height:437px;background:#1B1B1B;" version="1.1" viewBox="0 0 253 437" width="253px" zoomAndPan="magnify"><defs/><g><rect fill="#1B1B1B" height="437" style="stroke:none;stroke-width:1.0;" width="253" x="0" y="0"/><!--class Grito--><g id="elem_Grito"><rect fill="#313139" height="48" id="Grito" rx="2.5" ry="2.5" style="stroke:#E7E7E7;stroke-width:0.5;" width="66.5488" x="138.81" y="7"/><ellipse cx="153.81" cy="23" fill="#2E5233" rx="11" ry="11" style="stroke:#E7E7E7;stroke-width:1.0;"/><path d="M156.7788,28.6406 Q156.2006,28.9375 155.56,29.0781 Q154.9194,29.2344 154.2163,29.2344 Q151.7163,29.2344 150.3881,27.5938 Q149.0756,25.9375 149.0756,22.8125 Q149.0756,19.6875 150.3881,18.0313 Q151.7163,16.375 154.2163,16.375 Q154.9194,16.375 155.56,16.5313 Q156.2163,16.6875 156.7788,16.9844 L156.7788,19.7031 Q156.1538,19.125 155.56,18.8594 Q154.9663,18.5781 154.3413,18.5781 Q152.9975,18.5781 152.31,19.6563 Q151.6225,20.7188 151.6225,22.8125 Q151.6225,24.9063 152.31,25.9844 Q152.9975,27.0469 154.3413,27.0469 Q154.9663,27.0469 155.56,26.7813 Q156.1538,26.5 156.7788,25.9219 L156.7788,28.6406 Z " fill="#FFFFFF"/><text fill="#FFFFFF" font-family="sans-serif" font-size="14" lengthAdjust="spacing" textLength="34.5488" x="167.81" y="27.8467">Grito</text><line style="stroke:#E7E7E7;stroke-width:0.5;" x1="139.81" x2="204.3588" y1="39" y2="39"/><line style="stroke:#E7E7E7;stroke-width:0.5;" x1="139.81" x2="204.3588" y1="47" y2="47"/></g><!--class VibracionesGrito--><g id="elem_VibracionesGrito"><rect fill="#313139" height="48" id="VibracionesGrito" rx="2.5" ry="2.5" style="stroke:#E7E7E7;stroke-width:0.5;" width="148.1699" x="7" y="132"/><ellipse cx="22" cy="148" fill="#2E5233" rx="11" ry="11" style="stroke:#E7E7E7;stroke-width:1.0;"/><path d="M24.9688,153.6406 Q24.3906,153.9375 23.75,154.0781 Q23.1094,154.2344 22.4063,154.2344 Q19.9063,154.2344 18.5781,152.5938 Q17.2656,150.9375 17.2656,147.8125 Q17.2656,144.6875 18.5781,143.0313 Q19.9063,141.375 22.4063,141.375 Q23.1094,141.375 23.75,141.5313 Q24.4063,141.6875 24.9688,141.9844 L24.9688,144.7031 Q24.3438,144.125 23.75,143.8594 Q23.1563,143.5781 22.5313,143.5781 Q21.1875,143.5781 20.5,144.6563 Q19.8125,145.7188 19.8125,147.8125 Q19.8125,149.9063 20.5,150.9844 Q21.1875,152.0469 22.5313,152.0469 Q23.1563,152.0469 23.75,151.7813 Q24.3438,151.5 24.9688,150.9219 L24.9688,153.6406 Z " fill="#FFFFFF"/><text fill="#FFFFFF" font-family="sans-serif" font-size="14" lengthAdjust="spacing" textLength="116.1699" x="36" y="152.8467">VibracionesGrito</text><line style="stroke:#E7E7E7;stroke-width:0.5;" x1="8" x2="154.1699" y1="164" y2="164"/><line style="stroke:#E7E7E7;stroke-width:0.5;" x1="8" x2="154.1699" y1="172" y2="172"/></g><!--class Pared--><g id="elem_Pared"><rect fill="#313139" height="48" id="Pared" rx="2.5" ry="2.5" style="stroke:#E7E7E7;stroke-width:0.5;" width="72.2773" x="72.95" y="257"/><ellipse cx="87.95" cy="273" fill="#2E5233" rx="11" ry="11" style="stroke:#E7E7E7;stroke-width:1.0;"/><path d="M90.9188,278.6406 Q90.3406,278.9375 89.7,279.0781 Q89.0594,279.2344 88.3563,279.2344 Q85.8563,279.2344 84.5281,277.5938 Q83.2156,275.9375 83.2156,272.8125 Q83.2156,269.6875 84.5281,268.0313 Q85.8563,266.375 88.3563,266.375 Q89.0594,266.375 89.7,266.5313 Q90.3563,266.6875 90.9188,266.9844 L90.9188,269.7031 Q90.2938,269.125 89.7,268.8594 Q89.1063,268.5781 88.4813,268.5781 Q87.1375,268.5781 86.45,269.6563 Q85.7625,270.7188 85.7625,272.8125 Q85.7625,274.9063 86.45,275.9844 Q87.1375,277.0469 88.4813,277.0469 Q89.1063,277.0469 89.7,276.7813 Q90.2938,276.5 90.9188,275.9219 L90.9188,278.6406 Z " fill="#FFFFFF"/><text fill="#FFFFFF" font-family="sans-serif" font-size="14" lengthAdjust="spacing" textLength="40.2773" x="101.95" y="277.8467">Pared</text><line style="stroke:#E7E7E7;stroke-width:0.5;" x1="73.95" x2="144.2273" y1="289" y2="289"/><line style="stroke:#E7E7E7;stroke-width:0.5;" x1="73.95" x2="144.2273" y1="297" y2="297"/></g><!--class EcoGrito--><g id="elem_EcoGrito"><rect fill="#313139" height="48" id="EcoGrito" rx="2.5" ry="2.5" style="stroke:#E7E7E7;stroke-width:0.5;" width="91.6572" x="118.26" y="382"/><ellipse cx="133.26" cy="398" fill="#2E5233" rx="11" ry="11" style="stroke:#E7E7E7;stroke-width:1.0;"/><path d="M136.2288,403.6406 Q135.6506,403.9375 135.01,404.0781 Q134.3694,404.2344 133.6663,404.2344 Q131.1663,404.2344 129.8381,402.5938 Q128.5256,400.9375 128.5256,397.8125 Q128.5256,394.6875 129.8381,393.0313 Q131.1663,391.375 133.6663,391.375 Q134.3694,391.375 135.01,391.5313 Q135.6663,391.6875 136.2288,391.9844 L136.2288,394.7031 Q135.6038,394.125 135.01,393.8594 Q134.4163,393.5781 133.7913,393.5781 Q132.4475,393.5781 131.76,394.6563 Q131.0725,395.7188 131.0725,397.8125 Q131.0725,399.9063 131.76,400.9844 Q132.4475,402.0469 133.7913,402.0469 Q134.4163,402.0469 135.01,401.7813 Q135.6038,401.5 136.2288,400.9219 L136.2288,403.6406 Z " fill="#FFFFFF"/><text fill="#FFFFFF" font-family="sans-serif" font-size="14" lengthAdjust="spacing" textLength="59.6572" x="147.26" y="402.8467">EcoGrito</text><line style="stroke:#E7E7E7;stroke-width:0.5;" x1="119.26" x2="208.9172" y1="414" y2="414"/><line style="stroke:#E7E7E7;stroke-width:0.5;" x1="119.26" x2="208.9172" y1="422" y2="422"/></g><!--link Grito to VibracionesGrito--><g id="link_Grito_VibracionesGrito"><path codeLine="1" d="M154.75,55.42 C138.56,77.31 114.52,109.8 98.35,131.66 " fill="none" id="Grito-VibracionesGrito" style="stroke:#E7E7E7;stroke-width:1.0;"/><text fill="#FFFFFF" font-family="sans-serif" font-size="13" lengthAdjust="spacing" textLength="45.7983" x="133.08" y="98.0669">genera</text></g><!--link VibracionesGrito to Pared--><g id="link_VibracionesGrito_Pared"><path codeLine="2" d="M85.4,180.41 C88,194.05 91.5,211.55 95.08,227 C97.34,236.73 98.5426,241.6056 101.0126,250.7956 " fill="none" id="VibracionesGrito-to-Pared" style="stroke:#E7E7E7;stroke-width:1.0;"/><polygon fill="#E7E7E7" points="102.57,256.59,104.0969,246.8602,101.2722,251.7614,96.3711,248.9367,102.57,256.59" style="stroke:#E7E7E7;stroke-width:1.0;"/><text fill="#FFFFFF" font-family="sans-serif" font-size="13" lengthAdjust="spacing" textLength="68.25" x="96.08" y="223.0669">se reflejan</text></g><!--link Pared to EcoGrito--><g id="link_Pared_EcoGrito"><path codeLine="3" d="M112.93,305.41 C115.74,319.36 120.28,337.18 127.08,352 C131.82,362.3 138.57,372.72 145.02,381.57 " fill="none" id="Pared-EcoGrito" style="stroke:#E7E7E7;stroke-width:1.0;"/><text fill="#FFFFFF" font-family="sans-serif" font-size="13" lengthAdjust="spacing" textLength="53.187" x="128.08" y="348.0669">produce</text></g><!--link EcoGrito to Grito--><g id="link_EcoGrito_Grito"><path codeLine="4" d="M176.12,381.62 C180.13,372.61 184.08,362.06 186.08,352 C209.28,235.62 201.37,202.68 186.08,85 C184.81,75.18 182.26,64.6 179.68,55.48 " fill="none" id="EcoGrito-Grito" style="stroke:#E7E7E7;stroke-width:1.0;stroke-dasharray:7.0,7.0;"/><text fill="#FFFFFF" font-family="sans-serif" font-size="13" lengthAdjust="spacing" textLength="43.9702" x="201.08" y="223.0669">influye</text></g><!--SRC=[So_ABCbNqDLL2CjCAafCpipFIors1ujPAQIdvgKM9N9XoEZgsYa491QbfW3L5ASg5AMcvQHc9UPnGSI0PhacvyFCA2ZAJobDJkM22-dfAS3aClFISaehKm40]--></g></svg>