<svg xmlns="http://www.w3.org/2000/svg" xmlns:xlink="http://www.w3.org/1999/xlink" contentStyleType="text/css" height="639px" preserveAspectRatio="none" style="width:882px;height:639px;background:#1B1B1B;" version="1.1" viewBox="0 0 882 639" width="882px" zoomAndPan="magnify"><defs/><g><rect fill="#1B1B1B" height="639" style="stroke:none;stroke-width:1.0;" width="882" x="0" y="0"/><!--class Entrenador--><g id="elem_Entrenador"><rect codeLine="1" fill="#313139" height="48" id="Entrenador" rx="2.5" ry="2.5" style="stroke:#E7E7E7;stroke-width:0.5;" width="110.2373" x="173.86" y="225"/><ellipse cx="188.86" cy="241" fill="#2E5233" rx="11" ry="11" style="stroke:#E7E7E7;stroke-width:1.0;"/><path d="M191.8287,246.6406 Q191.2506,246.9375 190.61,247.0781 Q189.9694,247.2344 189.2662,247.2344 Q186.7662,247.2344 185.4381,245.5938 Q184.1256,243.9375 184.1256,240.8125 Q184.1256,237.6875 185.4381,236.0313 Q186.7662,234.375 189.2662,234.375 Q189.9694,234.375 190.61,234.5313 Q191.2662,234.6875 191.8287,234.9844 L191.8287,237.7031 Q191.2037,237.125 190.61,236.8594 Q190.0162,236.5781 189.3912,236.5781 Q188.0475,236.5781 187.36,237.6563 Q186.6725,238.7188 186.6725,240.8125 Q186.6725,242.9063 187.36,243.9844 Q188.0475,245.0469 189.3912,245.0469 Q190.0162,245.0469 190.61,244.7813 Q191.2037,244.5 191.8287,243.9219 L191.8287,246.6406 Z " fill="#FFFFFF"/><text fill="#FFFFFF" font-family="sans-serif" font-size="14" lengthAdjust="spacing" textLength="78.2373" x="202.86" y="245.8467">Entrenador</text><line style="stroke:#E7E7E7;stroke-width:0.5;" x1="174.86" x2="283.0973" y1="257" y2="257"/><line style="stroke:#E7E7E7;stroke-width:0.5;" x1="174.86" x2="283.0973" y1="265" y2="265"/></g><!--class Jugador--><g id="elem_Jugador"><rect codeLine="4" fill="#313139" height="48" id="Jugador" rx="2.5" ry="2.5" style="stroke:#E7E7E7;stroke-width:0.5;" width="85.6758" x="53.14" y="225"/><ellipse cx="68.14" cy="241" fill="#2E5233" rx="11" ry="11" style="stroke:#E7E7E7;stroke-width:1.0;"/><path d="M71.1088,246.6406 Q70.5306,246.9375 69.89,247.0781 Q69.2494,247.2344 68.5463,247.2344 Q66.0463,247.2344 64.7181,245.5938 Q63.4056,243.9375 63.4056,240.8125 Q63.4056,237.6875 64.7181,236.0313 Q66.0463,234.375 68.5463,234.375 Q69.2494,234.375 69.89,234.5313 Q70.5463,234.6875 71.1088,234.9844 L71.1088,237.7031 Q70.4838,237.125 69.89,236.8594 Q69.2963,236.5781 68.6713,236.5781 Q67.3275,236.5781 66.64,237.6563 Q65.9525,238.7188 65.9525,240.8125 Q65.9525,242.9063 66.64,243.9844 Q67.3275,245.0469 68.6713,245.0469 Q69.2963,245.0469 69.89,244.7813 Q70.4838,244.5 71.1088,243.9219 L71.1088,246.6406 Z " fill="#FFFFFF"/><text fill="#FFFFFF" font-family="sans-serif" font-size="14" lengthAdjust="spacing" textLength="53.6758" x="82.14" y="245.8467">Jugador</text><line style="stroke:#E7E7E7;stroke-width:0.5;" x1="54.14" x2="137.8158" y1="257" y2="257"/><line style="stroke:#E7E7E7;stroke-width:0.5;" x1="54.14" x2="137.8158" y1="265" y2="265"/></g><!--class Equipo--><g id="elem_Equipo"><rect codeLine="7" fill="#313139" height="48" id="Equipo" rx="2.5" ry="2.5" style="stroke:#E7E7E7;stroke-width:0.5;" width="79.9473" x="422" y="350"/><ellipse cx="437" cy="366" fill="#2E5233" rx="11" ry="11" style="stroke:#E7E7E7;stroke-width:1.0;"/><path d="M439.9688,371.6406 Q439.3906,371.9375 438.75,372.0781 Q438.1094,372.2344 437.4063,372.2344 Q434.9063,372.2344 433.5781,370.5938 Q432.2656,368.9375 432.2656,365.8125 Q432.2656,362.6875 433.5781,361.0313 Q434.9063,359.375 437.4063,359.375 Q438.1094,359.375 438.75,359.5313 Q439.4063,359.6875 439.9688,359.9844 L439.9688,362.7031 Q439.3438,362.125 438.75,361.8594 Q438.1563,361.5781 437.5313,361.5781 Q436.1875,361.5781 435.5,362.6563 Q434.8125,363.7188 434.8125,365.8125 Q434.8125,367.9063 435.5,368.9844 Q436.1875,370.0469 437.5313,370.0469 Q438.1563,370.0469 438.75,369.7813 Q439.3438,369.5 439.9688,368.9219 L439.9688,371.6406 Z " fill="#FFFFFF"/><text fill="#FFFFFF" font-family="sans-serif" font-size="14" lengthAdjust="spacing" textLength="47.9473" x="451" y="370.8467">Equipo</text><line style="stroke:#E7E7E7;stroke-width:0.5;" x1="423" x2="500.9473" y1="382" y2="382"/><line style="stroke:#E7E7E7;stroke-width:0.5;" x1="423" x2="500.9473" y1="390" y2="390"/></g><!--class Estadio--><g id="elem_Estadio"><rect codeLine="10" fill="#313139" height="48" id="Estadio" rx="2.5" ry="2.5" style="stroke:#E7E7E7;stroke-width:0.5;" width="83.5498" x="534.2" y="475"/><ellipse cx="549.2" cy="491" fill="#2E5233" rx="11" ry="11" style="stroke:#E7E7E7;stroke-width:1.0;"/><path d="M552.1688,496.6406 Q551.5906,496.9375 550.95,497.0781 Q550.3094,497.2344 549.6063,497.2344 Q547.1063,497.2344 545.7781,495.5938 Q544.4656,493.9375 544.4656,490.8125 Q544.4656,487.6875 545.7781,486.0313 Q547.1063,484.375 549.6063,484.375 Q550.3094,484.375 550.95,484.5313 Q551.6063,484.6875 552.1688,484.9844 L552.1688,487.7031 Q551.5438,487.125 550.95,486.8594 Q550.3563,486.5781 549.7313,486.5781 Q548.3875,486.5781 547.7,487.6563 Q547.0125,488.7188 547.0125,490.8125 Q547.0125,492.9063 547.7,493.9844 Q548.3875,495.0469 549.7313,495.0469 Q550.3563,495.0469 550.95,494.7813 Q551.5438,494.5 552.1688,493.9219 L552.1688,496.6406 Z " fill="#FFFFFF"/><text fill="#FFFFFF" font-family="sans-serif" font-size="14" lengthAdjust="spacing" textLength="51.5498" x="563.2" y="495.8467">Estadio</text><line style="stroke:#E7E7E7;stroke-width:0.5;" x1="535.2" x2="616.7498" y1="507" y2="507"/><line style="stroke:#E7E7E7;stroke-width:0.5;" x1="535.2" x2="616.7498" y1="515" y2="515"/></g><!--class Jornada--><g id="elem_Jornada"><rect codeLine="13" fill="#313139" height="48" id="Jornada" rx="2.5" ry="2.5" style="stroke:#E7E7E7;stroke-width:0.5;" width="85.3682" x="473.29" y="116"/><ellipse cx="488.29" cy="132" fill="#2E5233" rx="11" ry="11" style="stroke:#E7E7E7;stroke-width:1.0;"/><path d="M491.2587,137.6406 Q490.6806,137.9375 490.04,138.0781 Q489.3994,138.2344 488.6962,138.2344 Q486.1962,138.2344 484.8681,136.5938 Q483.5556,134.9375 483.5556,131.8125 Q483.5556,128.6875 484.8681,127.0313 Q486.1962,125.375 488.6962,125.375 Q489.3994,125.375 490.04,125.5313 Q490.6962,125.6875 491.2587,125.9844 L491.2587,128.7031 Q490.6337,128.125 490.04,127.8594 Q489.4462,127.5781 488.8212,127.5781 Q487.4775,127.5781 486.79,128.6563 Q486.1025,129.7188 486.1025,131.8125 Q486.1025,133.9063 486.79,134.9844 Q487.4775,136.0469 488.8212,136.0469 Q489.4462,136.0469 490.04,135.7813 Q490.6337,135.5 491.2587,134.9219 L491.2587,137.6406 Z " fill="#FFFFFF"/><text fill="#FFFFFF" font-family="sans-serif" font-size="14" lengthAdjust="spacing" textLength="53.3682" x="502.29" y="136.8467">Jornada</text><line style="stroke:#E7E7E7;stroke-width:0.5;" x1="474.29" x2="557.6582" y1="148" y2="148"/><line style="stroke:#E7E7E7;stroke-width:0.5;" x1="474.29" x2="557.6582" y1="156" y2="156"/></g><!--class Arbitro--><g id="elem_Arbitro"><rect codeLine="16" fill="#313139" height="48" id="Arbitro" rx="2.5" ry="2.5" style="stroke:#E7E7E7;stroke-width:0.5;" width="79.9199" x="476.02" y="7"/><ellipse cx="491.02" cy="23" fill="#2E5233" rx="11" ry="11" style="stroke:#E7E7E7;stroke-width:1.0;"/><path d="M493.9888,28.6406 Q493.4106,28.9375 492.77,29.0781 Q492.1294,29.2344 491.4263,29.2344 Q488.9263,29.2344 487.5981,27.5938 Q486.2856,25.9375 486.2856,22.8125 Q486.2856,19.6875 487.5981,18.0313 Q488.9263,16.375 491.4263,16.375 Q492.1294,16.375 492.77,16.5313 Q493.4263,16.6875 493.9888,16.9844 L493.9888,19.7031 Q493.3638,19.125 492.77,18.8594 Q492.1763,18.5781 491.5513,18.5781 Q490.2075,18.5781 489.52,19.6563 Q488.8325,20.7188 488.8325,22.8125 Q488.8325,24.9063 489.52,25.9844 Q490.2075,27.0469 491.5513,27.0469 Q492.1763,27.0469 492.77,26.7813 Q493.3638,26.5 493.9888,25.9219 L493.9888,28.6406 Z " fill="#FFFFFF"/><text fill="#FFFFFF" font-family="sans-serif" font-size="14" lengthAdjust="spacing" textLength="47.9199" x="505.02" y="27.8467">Arbitro</text><line style="stroke:#E7E7E7;stroke-width:0.5;" x1="477.02" x2="554.9399" y1="39" y2="39"/><line style="stroke:#E7E7E7;stroke-width:0.5;" x1="477.02" x2="554.9399" y1="47" y2="47"/></g><!--class Reglas--><g id="elem_Reglas"><rect codeLine="19" fill="#313139" height="48" id="Reglas" rx="2.5" ry="2.5" style="stroke:#E7E7E7;stroke-width:0.5;" width="78.9902" x="593.48" y="116"/><ellipse cx="608.48" cy="132" fill="#2E5233" rx="11" ry="11" style="stroke:#E7E7E7;stroke-width:1.0;"/><path d="M611.4488,137.6406 Q610.8706,137.9375 610.23,138.0781 Q609.5894,138.2344 608.8863,138.2344 Q606.3863,138.2344 605.0581,136.5938 Q603.7456,134.9375 603.7456,131.8125 Q603.7456,128.6875 605.0581,127.0313 Q606.3863,125.375 608.8863,125.375 Q609.5894,125.375 610.23,125.5313 Q610.8863,125.6875 611.4488,125.9844 L611.4488,128.7031 Q610.8238,128.125 610.23,127.8594 Q609.6363,127.5781 609.0113,127.5781 Q607.6675,127.5781 606.98,128.6563 Q606.2925,129.7188 606.2925,131.8125 Q606.2925,133.9063 606.98,134.9844 Q607.6675,136.0469 609.0113,136.0469 Q609.6363,136.0469 610.23,135.7813 Q610.8238,135.5 611.4488,134.9219 L611.4488,137.6406 Z " fill="#FFFFFF"/><text fill="#FFFFFF" font-family="sans-serif" font-size="14" lengthAdjust="spacing" textLength="46.9902" x="622.48" y="136.8467">Reglas</text><line style="stroke:#E7E7E7;stroke-width:0.5;" x1="594.48" x2="671.4702" y1="148" y2="148"/><line style="stroke:#E7E7E7;stroke-width:0.5;" x1="594.48" x2="671.4702" y1="156" y2="156"/></g><!--class Liga--><g id="elem_Liga"><rect codeLine="22" fill="#313139" height="48" id="Liga" rx="2.5" ry="2.5" style="stroke:#E7E7E7;stroke-width:0.5;" width="61.1553" x="428.4" y="584"/><ellipse cx="443.4" cy="600" fill="#2E5233" rx="11" ry="11" style="stroke:#E7E7E7;stroke-width:1.0;"/><path d="M446.3688,605.6406 Q445.7906,605.9375 445.15,606.0781 Q444.5094,606.2344 443.8063,606.2344 Q441.3063,606.2344 439.9781,604.5938 Q438.6656,602.9375 438.6656,599.8125 Q438.6656,596.6875 439.9781,595.0313 Q441.3063,593.375 443.8063,593.375 Q444.5094,593.375 445.15,593.5313 Q445.8063,593.6875 446.3688,593.9844 L446.3688,596.7031 Q445.7438,596.125 445.15,595.8594 Q444.5563,595.5781 443.9313,595.5781 Q442.5875,595.5781 441.9,596.6563 Q441.2125,597.7188 441.2125,599.8125 Q441.2125,601.9063 441.9,602.9844 Q442.5875,604.0469 443.9313,604.0469 Q444.5563,604.0469 445.15,603.7813 Q445.7438,603.5 446.3688,602.9219 L446.3688,605.6406 Z " fill="#FFFFFF"/><text fill="#FFFFFF" font-family="sans-serif" font-size="14" lengthAdjust="spacing" textLength="29.1553" x="457.4" y="604.8467">Liga</text><line style="stroke:#E7E7E7;stroke-width:0.5;" x1="429.4" x2="488.5553" y1="616" y2="616"/><line style="stroke:#E7E7E7;stroke-width:0.5;" x1="429.4" x2="488.5553" y1="624" y2="624"/></g><!--class Posicion--><g id="elem_Posicion"><rect codeLine="25" fill="#313139" height="48" id="Posicion" rx="2.5" ry="2.5" style="stroke:#E7E7E7;stroke-width:0.5;" width="89.2168" x="220.37" y="350"/><ellipse cx="235.37" cy="366" fill="#2E5233" rx="11" ry="11" style="stroke:#E7E7E7;stroke-width:1.0;"/><path d="M238.3387,371.6406 Q237.7606,371.9375 237.12,372.0781 Q236.4794,372.2344 235.7762,372.2344 Q233.2762,372.2344 231.9481,370.5938 Q230.6356,368.9375 230.6356,365.8125 Q230.6356,362.6875 231.9481,361.0313 Q233.2762,359.375 235.7762,359.375 Q236.4794,359.375 237.12,359.5313 Q237.7762,359.6875 238.3387,359.9844 L238.3387,362.7031 Q237.7137,362.125 237.12,361.8594 Q236.5262,361.5781 235.9012,361.5781 Q234.5575,361.5781 233.87,362.6563 Q233.1825,363.7188 233.1825,365.8125 Q233.1825,367.9063 233.87,368.9844 Q234.5575,370.0469 235.9012,370.0469 Q236.5262,370.0469 237.12,369.7813 Q237.7137,369.5 238.3387,368.9219 L238.3387,371.6406 Z " fill="#FFFFFF"/><text fill="#FFFFFF" font-family="sans-serif" font-size="14" lengthAdjust="spacing" textLength="57.2168" x="249.37" y="370.8467">Posicion</text><line style="stroke:#E7E7E7;stroke-width:0.5;" x1="221.37" x2="308.5868" y1="382" y2="382"/><line style="stroke:#E7E7E7;stroke-width:0.5;" x1="221.37" x2="308.5868" y1="390" y2="390"/></g><!--class Partido--><g id="elem_Partido"><rect codeLine="28" fill="#313139" height="48" id="Partido" rx="2.5" ry="2.5" style="stroke:#E7E7E7;stroke-width:0.5;" width="81.6084" x="475.17" y="225"/><ellipse cx="490.17" cy="241" fill="#2E5233" rx="11" ry="11" style="stroke:#E7E7E7;stroke-width:1.0;"/><path d="M493.1388,246.6406 Q492.5606,246.9375 491.92,247.0781 Q491.2794,247.2344 490.5763,247.2344 Q488.0763,247.2344 486.7481,245.5938 Q485.4356,243.9375 485.4356,240.8125 Q485.4356,237.6875 486.7481,236.0313 Q488.0763,234.375 490.5763,234.375 Q491.2794,234.375 491.92,234.5313 Q492.5763,234.6875 493.1388,234.9844 L493.1388,237.7031 Q492.5138,237.125 491.92,236.8594 Q491.3263,236.5781 490.7013,236.5781 Q489.3575,236.5781 488.67,237.6563 Q487.9825,238.7188 487.9825,240.8125 Q487.9825,242.9063 488.67,243.9844 Q489.3575,245.0469 490.7013,245.0469 Q491.3263,245.0469 491.92,244.7813 Q492.5138,244.5 493.1388,243.9219 L493.1388,246.6406 Z " fill="#FFFFFF"/><text fill="#FFFFFF" font-family="sans-serif" font-size="14" lengthAdjust="spacing" textLength="49.6084" x="504.17" y="245.8467">Partido</text><line style="stroke:#E7E7E7;stroke-width:0.5;" x1="476.17" x2="555.7784" y1="257" y2="257"/><line style="stroke:#E7E7E7;stroke-width:0.5;" x1="476.17" x2="555.7784" y1="265" y2="265"/></g><!--class Gol--><g id="elem_Gol"><rect codeLine="31" fill="#313139" height="48" id="Gol" rx="2.5" ry="2.5" style="stroke:#E7E7E7;stroke-width:0.5;" width="55.3037" x="651.32" y="350"/><ellipse cx="666.32" cy="366" fill="#2E5233" rx="11" ry="11" style="stroke:#E7E7E7;stroke-width:1.0;"/><path d="M669.2888,371.6406 Q668.7106,371.9375 668.07,372.0781 Q667.4294,372.2344 666.7263,372.2344 Q664.2263,372.2344 662.8981,370.5938 Q661.5856,368.9375 661.5856,365.8125 Q661.5856,362.6875 662.8981,361.0313 Q664.2263,359.375 666.7263,359.375 Q667.4294,359.375 668.07,359.5313 Q668.7263,359.6875 669.2888,359.9844 L669.2888,362.7031 Q668.6638,362.125 668.07,361.8594 Q667.4763,361.5781 666.8513,361.5781 Q665.5075,361.5781 664.82,362.6563 Q664.1325,363.7188 664.1325,365.8125 Q664.1325,367.9063 664.82,368.9844 Q665.5075,370.0469 666.8513,370.0469 Q667.4763,370.0469 668.07,369.7813 Q668.6638,369.5 669.2888,368.9219 L669.2888,371.6406 Z " fill="#FFFFFF"/><text fill="#FFFFFF" font-family="sans-serif" font-size="14" lengthAdjust="spacing" textLength="23.3037" x="680.32" y="370.8467">Gol</text><line style="stroke:#E7E7E7;stroke-width:0.5;" x1="652.32" x2="705.6237" y1="382" y2="382"/><line style="stroke:#E7E7E7;stroke-width:0.5;" x1="652.32" x2="705.6237" y1="390" y2="390"/></g><!--class Tarjeta--><g id="elem_Tarjeta"><rect codeLine="34" fill="#313139" height="48" id="Tarjeta" rx="2.5" ry="2.5" style="stroke:#E7E7E7;stroke-width:0.5;" width="81.458" x="741.25" y="350"/><ellipse cx="756.25" cy="366" fill="#2E5233" rx="11" ry="11" style="stroke:#E7E7E7;stroke-width:1.0;"/><path d="M759.2188,371.6406 Q758.6406,371.9375 758,372.0781 Q757.3594,372.2344 756.6563,372.2344 Q754.1563,372.2344 752.8281,370.5938 Q751.5156,368.9375 751.5156,365.8125 Q751.5156,362.6875 752.8281,361.0313 Q754.1563,359.375 756.6563,359.375 Q757.3594,359.375 758,359.5313 Q758.6563,359.6875 759.2188,359.9844 L759.2188,362.7031 Q758.5938,362.125 758,361.8594 Q757.4063,361.5781 756.7813,361.5781 Q755.4375,361.5781 754.75,362.6563 Q754.0625,363.7188 754.0625,365.8125 Q754.0625,367.9063 754.75,368.9844 Q755.4375,370.0469 756.7813,370.0469 Q757.4063,370.0469 758,369.7813 Q758.5938,369.5 759.2188,368.9219 L759.2188,371.6406 Z " fill="#FFFFFF"/><text fill="#FFFFFF" font-family="sans-serif" font-size="14" lengthAdjust="spacing" textLength="49.458" x="770.25" y="370.8467">Tarjeta</text><line style="stroke:#E7E7E7;stroke-width:0.5;" x1="742.25" x2="821.708" y1="382" y2="382"/><line style="stroke:#E7E7E7;stroke-width:0.5;" x1="742.25" x2="821.708" y1="390" y2="390"/></g><!--class Contrato--><g id="elem_Contrato"><rect codeLine="37" fill="#313139" height="48" id="Contrato" rx="2.5" ry="2.5" style="stroke:#E7E7E7;stroke-width:0.5;" width="93.0928" x="92.43" y="350"/><ellipse cx="107.43" cy="366" fill="#2E5233" rx="11" ry="11" style="stroke:#E7E7E7;stroke-width:1.0;"/><path d="M110.3988,371.6406 Q109.8206,371.9375 109.18,372.0781 Q108.5394,372.2344 107.8363,372.2344 Q105.3363,372.2344 104.0081,370.5938 Q102.6956,368.9375 102.6956,365.8125 Q102.6956,362.6875 104.0081,361.0313 Q105.3363,359.375 107.8363,359.375 Q108.5394,359.375 109.18,359.5313 Q109.8363,359.6875 110.3988,359.9844 L110.3988,362.7031 Q109.7738,362.125 109.18,361.8594 Q108.5863,361.5781 107.9613,361.5781 Q106.6175,361.5781 105.93,362.6563 Q105.2425,363.7188 105.2425,365.8125 Q105.2425,367.9063 105.93,368.9844 Q106.6175,370.0469 107.9613,370.0469 Q108.5863,370.0469 109.18,369.7813 Q109.7738,369.5 110.3988,368.9219 L110.3988,371.6406 Z " fill="#FFFFFF"/><text fill="#FFFFFF" font-family="sans-serif" font-size="14" lengthAdjust="spacing" textLength="61.0928" x="121.43" y="370.8467">Contrato</text><line style="stroke:#E7E7E7;stroke-width:0.5;" x1="93.43" x2="184.5228" y1="382" y2="382"/><line style="stroke:#E7E7E7;stroke-width:0.5;" x1="93.43" x2="184.5228" y1="390" y2="390"/></g><!--class Estadisticas--><g id="elem_Estadisticas"><rect codeLine="40" fill="#313139" height="48" id="Estadisticas" rx="2.5" ry="2.5" style="stroke:#E7E7E7;stroke-width:0.5;" width="115.2275" x="290.36" y="475"/><ellipse cx="305.36" cy="491" fill="#2E5233" rx="11" ry="11" style="stroke:#E7E7E7;stroke-width:1.0;"/><path d="M308.3288,496.6406 Q307.7506,496.9375 307.11,497.0781 Q306.4694,497.2344 305.7663,497.2344 Q303.2663,497.2344 301.9381,495.5938 Q300.6256,493.9375 300.6256,490.8125 Q300.6256,487.6875 301.9381,486.0313 Q303.2663,484.375 305.7663,484.375 Q306.4694,484.375 307.11,484.5313 Q307.7663,484.6875 308.3288,484.9844 L308.3288,487.7031 Q307.7038,487.125 307.11,486.8594 Q306.5163,486.5781 305.8913,486.5781 Q304.5475,486.5781 303.86,487.6563 Q303.1725,488.7188 303.1725,490.8125 Q303.1725,492.9063 303.86,493.9844 Q304.5475,495.0469 305.8913,495.0469 Q306.5163,495.0469 307.11,494.7813 Q307.7038,494.5 308.3288,493.9219 L308.3288,496.6406 Z " fill="#FFFFFF"/><text fill="#FFFFFF" font-family="sans-serif" font-size="14" lengthAdjust="spacing" textLength="83.2275" x="319.36" y="495.8467">Estadisticas</text><line style="stroke:#E7E7E7;stroke-width:0.5;" x1="291.36" x2="404.5875" y1="507" y2="507"/><line style="stroke:#E7E7E7;stroke-width:0.5;" x1="291.36" x2="404.5875" y1="515" y2="515"/></g><!--link Jugador to Posicion--><g id="link_Jugador_Posicion"><path codeLine="43" d="M128.16,273.42 C158.23,295.31 202.88,327.8 232.91,349.66 " fill="none" id="Jugador-Posicion" style="stroke:#E7E7E7;stroke-width:1.0;"/></g><!--link Jugador to Equipo--><g id="link_Jugador_Equipo"><path codeLine="44" d="M139.14,266.84 C144.79,268.96 150.51,271.06 155.98,273 C250.52,306.55 362.92,342.21 421.66,360.53 " fill="none" id="Jugador-Equipo" style="stroke:#E7E7E7;stroke-width:1.0;"/></g><!--link Jugador to Contrato--><g id="link_Jugador_Contrato"><path codeLine="45" d="M102.89,273.47 C107.02,287.13 112.52,304.63 117.98,320 C121.45,329.79 125.61,340.47 129.3,349.66 " fill="none" id="Jugador-Contrato" style="stroke:#E7E7E7;stroke-width:1.0;"/></g><!--link Jugador to Estadisticas--><g id="link_Jugador_Estadisticas"><path codeLine="46" d="M83.44,273.36 C68.55,304.65 48.82,360.56 74.98,398 C123.4,467.31 225.33,488.73 290.02,495.26 " fill="none" id="Jugador-Estadisticas" style="stroke:#E7E7E7;stroke-width:1.0;"/></g><!--link Equipo to Estadio--><g id="link_Equipo_Estadio"><path codeLine="47" d="M477.38,398.4 C487.14,412.52 500.44,430.51 513.98,445 C523.74,455.45 535.45,465.91 546.05,474.74 " fill="none" id="Equipo-Estadio" style="stroke:#E7E7E7;stroke-width:1.0;"/><text fill="#FFFFFF" font-family="sans-serif" font-size="13" lengthAdjust="spacing" textLength="56.6592" x="514.98" y="441.0669">Juega en</text></g><!--link Equipo to Liga--><g id="link_Equipo_Liga"><path codeLine="48" d="M461.68,398.09 C461.1,442.45 459.85,539.1 459.28,583.66 " fill="none" id="Equipo-Liga" style="stroke:#E7E7E7;stroke-width:1.0;"/></g><!--link Equipo to Estadisticas--><g id="link_Equipo_Estadisticas"><path codeLine="49" d="M440.26,398.42 C419.98,420.31 389.86,452.8 369.61,474.66 " fill="none" id="Equipo-Estadisticas" style="stroke:#E7E7E7;stroke-width:1.0;"/></g><!--link Entrenador to Equipo--><g id="link_Entrenador_Equipo"><path codeLine="50" d="M273.35,273.42 C316.13,296.01 380.3,329.88 421.66,351.72 " fill="none" id="Entrenador-Equipo" style="stroke:#E7E7E7;stroke-width:1.0;"/></g><!--link Entrenador to Contrato--><g id="link_Entrenador_Contrato"><path codeLine="51" d="M211.84,273.42 C195.82,295.31 172.05,327.8 156.05,349.66 " fill="none" id="Entrenador-Contrato" style="stroke:#E7E7E7;stroke-width:1.0;"/></g><!--link Entrenador to Posicion--><g id="link_Entrenador_Posicion"><path codeLine="52" d="M235.83,273.42 C242.24,295.31 251.75,327.8 258.14,349.66 " fill="none" id="Entrenador-Posicion" style="stroke:#E7E7E7;stroke-width:1.0;"/></g><!--link Jornada to Partido--><g id="link_Jornada_Partido"><path codeLine="53" d="M515.98,164.48 C515.98,182.32 515.98,206.75 515.98,224.57 " fill="none" id="Jornada-Partido" style="stroke:#E7E7E7;stroke-width:1.0;"/></g><!--link Arbitro to Jornada--><g id="link_Arbitro_Jornada"><path codeLine="54" d="M515.98,55.48 C515.98,73.32 515.98,97.75 515.98,115.57 " fill="none" id="Arbitro-Jornada" style="stroke:#E7E7E7;stroke-width:1.0;"/></g><!--link Arbitro to Reglas--><g id="link_Arbitro_Reglas"><path codeLine="55" d="M541.65,55.48 C561.16,73.32 587.87,97.75 607.36,115.57 " fill="none" id="Arbitro-Reglas" style="stroke:#E7E7E7;stroke-width:1.0;"/></g><!--link Partido to Equipo--><g id="link_Partido_Equipo"><path codeLine="56" d="M474.97,267.71 C460.59,276.16 446.02,287.81 437.98,303 C430.16,317.76 436.47,335.58 444.58,349.55 " fill="none" id="Partido-Equipo" style="stroke:#E7E7E7;stroke-width:1.0;"/><text fill="#FFFFFF" font-family="sans-serif" font-size="13" lengthAdjust="spacing" textLength="33.9219" x="438.98" y="316.0669">Local</text></g><!--link Partido to Equipo--><g id="link_Partido_Equipo"><path codeLine="57" d="M505.69,273.42 C496.08,295.31 481.82,327.8 472.22,349.66 " fill="none" id="Partido-Equipo-1" style="stroke:#E7E7E7;stroke-width:1.0;"/><text fill="#FFFFFF" font-family="sans-serif" font-size="13" lengthAdjust="spacing" textLength="57.2876" x="493.98" y="316.0669">Visitante</text></g><!--link Partido to Gol--><g id="link_Partido_Gol"><path codeLine="58" d="M557.23,265.07 C578.51,274.07 604.09,286.9 623.98,303 C640.19,316.13 654.6,334.88 664.6,349.67 " fill="none" id="Partido-Gol" style="stroke:#E7E7E7;stroke-width:1.0;"/></g><!--link Partido to Tarjeta--><g id="link_Partido_Tarjeta"><path codeLine="59" d="M557.07,263.24 C586.04,273.06 625.5,287.4 658.98,303 C688.59,316.81 720.64,335.16 744.59,349.61 " fill="none" id="Partido-Tarjeta" style="stroke:#E7E7E7;stroke-width:1.0;"/></g><!--link Partido to Estadisticas--><g id="link_Partido_Estadisticas"><path codeLine="60" d="M475.11,267.74 C458.55,276.49 440.25,288.33 426.98,303 C380.89,353.91 359.89,435.21 351.98,474.81 " fill="none" id="Partido-Estadisticas" style="stroke:#E7E7E7;stroke-width:1.0;"/></g><!--link Partido to Estadio--><g id="link_Partido_Estadio"><path codeLine="61" d="M540.23,273.36 C547.76,281.97 555.3,292.25 559.98,303 C585.03,360.63 582.23,436.8 578.75,474.62 " fill="none" id="Partido-Estadio" style="stroke:#E7E7E7;stroke-width:1.0;"/></g><!--link Partido to Posicion--><g id="link_Partido_Posicion"><path codeLine="62" d="M474.7,260.98 C443.38,270.11 399.76,284.58 363.98,303 C338.71,316.01 312.56,334.76 293.49,349.59 " fill="none" id="Partido-Posicion" style="stroke:#E7E7E7;stroke-width:1.0;"/></g><!--link Jornada to Liga--><g id="link_Jornada_Liga"><path codeLine="63" d="M559.06,158.07 C564.72,160.15 570.47,162.18 575.98,164 C707.43,207.49 875.98,109.54 875.98,248 C875.98,248 875.98,248 875.98,500 C875.98,579.69 586.62,600.86 489.98,605.71 " fill="none" id="Jornada-Liga" style="stroke:#E7E7E7;stroke-width:1.0;"/></g><!--link Estadisticas to Liga--><g id="link_Estadisticas_Liga"><path codeLine="64" d="M372.33,523.48 C390.84,541.32 416.18,565.75 434.67,583.57 " fill="none" id="Estadisticas-Liga" style="stroke:#E7E7E7;stroke-width:1.0;"/></g><!--link Arbitro to Contrato--><g id="link_Arbitro_Contrato"><path codeLine="65" d="M475.54,33.99 C379.47,41.17 137.93,74.11 35.98,225 C6,269.35 62.03,320.49 102.54,349.56 " fill="none" id="Arbitro-Contrato" style="stroke:#E7E7E7;stroke-width:1.0;"/></g><!--SRC=[RP712i8m38RlVOgzW2_WJMG8OmSHyHwxCYAZqJOxYUzkvzOjSJkLVadJ_FzlEuYnA3q7vw6XKBpDnnZxerNV_gForUEJ58aC3IfKKKYpGA93k2C7rNLnRJebgR5LZyuKqI9vnI0mDchGYJfvlK9uE5Q3ZfJq0M_i7HbjNYBBtUtcdoKRfKkInwekCTPCRisOYdqorIMLpelYe7lLcqSioImxQ3YleV6YOOfZOADx9iUHq5ILQ4p6PAldVzFsDLdeDYitZCZWsSbgYaPUfsZKUobsnKcYBK6ZTJBA38MURD0N]--></g></svg>