<svg xmlns="http://www.w3.org/2000/svg" xmlns:xlink="http://www.w3.org/1999/xlink" contentStyleType="text/css" height="386px" preserveAspectRatio="none" style="width:239px;height:386px;background:#1B1B1B;" version="1.1" viewBox="0 0 239 386" width="239px" zoomAndPan="magnify"><defs/><g><rect fill="#1B1B1B" height="386" style="stroke:none;stroke-width:1.0;" width="239" x="0" y="0"/><!--class Foco1--><g id="elem_Foco1"><rect fill="#313139" height="48" id="Foco1" rx="2.5" ry="2.5" style="stroke:#E7E7E7;stroke-width:0.5;" width="73.7881" x="28.72" y="7"/><ellipse cx="43.72" cy="23" fill="#2E5233" rx="11" ry="11" style="stroke:#E7E7E7;stroke-width:1.0;"/><path d="M46.6888,28.6406 Q46.1106,28.9375 45.47,29.0781 Q44.8294,29.2344 44.1263,29.2344 Q41.6263,29.2344 40.2981,27.5938 Q38.9856,25.9375 38.9856,22.8125 Q38.9856,19.6875 40.2981,18.0313 Q41.6263,16.375 44.1263,16.375 Q44.8294,16.375 45.47,16.5313 Q46.1263,16.6875 46.6888,16.9844 L46.6888,19.7031 Q46.0638,19.125 45.47,18.8594 Q44.8763,18.5781 44.2513,18.5781 Q42.9075,18.5781 42.22,19.6563 Q41.5325,20.7188 41.5325,22.8125 Q41.5325,24.9063 42.22,25.9844 Q42.9075,27.0469 44.2513,27.0469 Q44.8763,27.0469 45.47,26.7813 Q46.0638,26.5 46.6888,25.9219 L46.6888,28.6406 Z " fill="#FFFFFF"/><text fill="#FFFFFF" font-family="sans-serif" font-size="14" lengthAdjust="spacing" textLength="41.7881" x="57.72" y="27.8467">Foco1</text><line style="stroke:#E7E7E7;stroke-width:0.5;" x1="29.72" x2="101.5081" y1="39" y2="39"/><line style="stroke:#E7E7E7;stroke-width:0.5;" x1="29.72" x2="101.5081" y1="47" y2="47"/></g><!--class Persona--><g id="elem_Persona"><rect fill="#313139" height="48" id="Persona" rx="2.5" ry="2.5" style="stroke:#E7E7E7;stroke-width:0.5;" width="88.123" x="75.55" y="115"/><ellipse cx="90.55" cy="131" fill="#2E5233" rx="11" ry="11" style="stroke:#E7E7E7;stroke-width:1.0;"/><path d="M93.5188,136.6406 Q92.9406,136.9375 92.3,137.0781 Q91.6594,137.2344 90.9563,137.2344 Q88.4563,137.2344 87.1281,135.5938 Q85.8156,133.9375 85.8156,130.8125 Q85.8156,127.6875 87.1281,126.0313 Q88.4563,124.375 90.9563,124.375 Q91.6594,124.375 92.3,124.5313 Q92.9563,124.6875 93.5188,124.9844 L93.5188,127.7031 Q92.8938,127.125 92.3,126.8594 Q91.7063,126.5781 91.0813,126.5781 Q89.7375,126.5781 89.05,127.6563 Q88.3625,128.7188 88.3625,130.8125 Q88.3625,132.9063 89.05,133.9844 Q89.7375,135.0469 91.0813,135.0469 Q91.7063,135.0469 92.3,134.7813 Q92.8938,134.5 93.5188,133.9219 L93.5188,136.6406 Z " fill="#FFFFFF"/><text fill="#FFFFFF" font-family="sans-serif" font-size="14" lengthAdjust="spacing" textLength="56.123" x="104.55" y="135.8467">Persona</text><line style="stroke:#E7E7E7;stroke-width:0.5;" x1="76.55" x2="162.673" y1="147" y2="147"/><line style="stroke:#E7E7E7;stroke-width:0.5;" x1="76.55" x2="162.673" y1="155" y2="155"/></g><!--class Foco2--><g id="elem_Foco2"><rect fill="#313139" height="48" id="Foco2" rx="2.5" ry="2.5" style="stroke:#E7E7E7;stroke-width:0.5;" width="73.7881" x="137.72" y="7"/><ellipse cx="152.72" cy="23" fill="#2E5233" rx="11" ry="11" style="stroke:#E7E7E7;stroke-width:1.0;"/><path d="M155.6888,28.6406 Q155.1106,28.9375 154.47,29.0781 Q153.8294,29.2344 153.1263,29.2344 Q150.6263,29.2344 149.2981,27.5938 Q147.9856,25.9375 147.9856,22.8125 Q147.9856,19.6875 149.2981,18.0313 Q150.6263,16.375 153.1263,16.375 Q153.8294,16.375 154.47,16.5313 Q155.1263,16.6875 155.6888,16.9844 L155.6888,19.7031 Q155.0638,19.125 154.47,18.8594 Q153.8763,18.5781 153.2513,18.5781 Q151.9075,18.5781 151.22,19.6563 Q150.5325,20.7188 150.5325,22.8125 Q150.5325,24.9063 151.22,25.9844 Q151.9075,27.0469 153.2513,27.0469 Q153.8763,27.0469 154.47,26.7813 Q155.0638,26.5 155.6888,25.9219 L155.6888,28.6406 Z " fill="#FFFFFF"/><text fill="#FFFFFF" font-family="sans-serif" font-size="14" lengthAdjust="spacing" textLength="41.7881" x="166.72" y="27.8467">Foco2</text><line style="stroke:#E7E7E7;stroke-width:0.5;" x1="138.72" x2="210.5081" y1="39" y2="39"/><line style="stroke:#E7E7E7;stroke-width:0.5;" x1="138.72" x2="210.5081" y1="47" y2="47"/></g><!--class Sombra1--><g id="elem_Sombra1"><rect fill="#313139" height="48" id="Sombra1" rx="2.5" ry="2.5" style="stroke:#E7E7E7;stroke-width:0.5;" width="95.2188" x="7" y="223"/><ellipse cx="22" cy="239" fill="#2E5233" rx="11" ry="11" style="stroke:#E7E7E7;stroke-width:1.0;"/><path d="M24.9688,244.6406 Q24.3906,244.9375 23.75,245.0781 Q23.1094,245.2344 22.4063,245.2344 Q19.9063,245.2344 18.5781,243.5938 Q17.2656,241.9375 17.2656,238.8125 Q17.2656,235.6875 18.5781,234.0313 Q19.9063,232.375 22.4063,232.375 Q23.1094,232.375 23.75,232.5313 Q24.4063,232.6875 24.9688,232.9844 L24.9688,235.7031 Q24.3438,235.125 23.75,234.8594 Q23.1563,234.5781 22.5313,234.5781 Q21.1875,234.5781 20.5,235.6563 Q19.8125,236.7188 19.8125,238.8125 Q19.8125,240.9063 20.5,241.9844 Q21.1875,243.0469 22.5313,243.0469 Q23.1563,243.0469 23.75,242.7813 Q24.3438,242.5 24.9688,241.9219 L24.9688,244.6406 Z " fill="#FFFFFF"/><text fill="#FFFFFF" font-family="sans-serif" font-size="14" lengthAdjust="spacing" textLength="63.2188" x="36" y="243.8467">Sombra1</text><line style="stroke:#E7E7E7;stroke-width:0.5;" x1="8" x2="101.2188" y1="255" y2="255"/><line style="stroke:#E7E7E7;stroke-width:0.5;" x1="8" x2="101.2188" y1="263" y2="263"/></g><!--class Sombra2--><g id="elem_Sombra2"><rect fill="#313139" height="48" id="Sombra2" rx="2.5" ry="2.5" style="stroke:#E7E7E7;stroke-width:0.5;" width="95.2188" x="137" y="223"/><ellipse cx="152" cy="239" fill="#2E5233" rx="11" ry="11" style="stroke:#E7E7E7;stroke-width:1.0;"/><path d="M154.9688,244.6406 Q154.3906,244.9375 153.75,245.0781 Q153.1094,245.2344 152.4063,245.2344 Q149.9063,245.2344 148.5781,243.5938 Q147.2656,241.9375 147.2656,238.8125 Q147.2656,235.6875 148.5781,234.0313 Q149.9063,232.375 152.4063,232.375 Q153.1094,232.375 153.75,232.5313 Q154.4063,232.6875 154.9688,232.9844 L154.9688,235.7031 Q154.3438,235.125 153.75,234.8594 Q153.1563,234.5781 152.5313,234.5781 Q151.1875,234.5781 150.5,235.6563 Q149.8125,236.7188 149.8125,238.8125 Q149.8125,240.9063 150.5,241.9844 Q151.1875,243.0469 152.5313,243.0469 Q153.1563,243.0469 153.75,242.7813 Q154.3438,242.5 154.9688,241.9219 L154.9688,244.6406 Z " fill="#FFFFFF"/><text fill="#FFFFFF" font-family="sans-serif" font-size="14" lengthAdjust="spacing" textLength="63.2188" x="166" y="243.8467">Sombra2</text><line style="stroke:#E7E7E7;stroke-width:0.5;" x1="138" x2="231.2188" y1="255" y2="255"/><line style="stroke:#E7E7E7;stroke-width:0.5;" x1="138" x2="231.2188" y1="263" y2="263"/></g><!--class Superficie--><g id="elem_Superficie"><rect fill="#313139" height="48" id="Superficie" rx="2.5" ry="2.5" style="stroke:#E7E7E7;stroke-width:0.5;" width="102.0342" x="68.59" y="331"/><ellipse cx="83.59" cy="347" fill="#2E5233" rx="11" ry="11" style="stroke:#E7E7E7;stroke-width:1.0;"/><path d="M86.5588,352.6406 Q85.9806,352.9375 85.34,353.0781 Q84.6994,353.2344 83.9963,353.2344 Q81.4963,353.2344 80.1681,351.5938 Q78.8556,349.9375 78.8556,346.8125 Q78.8556,343.6875 80.1681,342.0313 Q81.4963,340.375 83.9963,340.375 Q84.6994,340.375 85.34,340.5313 Q85.9963,340.6875 86.5588,340.9844 L86.5588,343.7031 Q85.9338,343.125 85.34,342.8594 Q84.7463,342.5781 84.1213,342.5781 Q82.7775,342.5781 82.09,343.6563 Q81.4025,344.7188 81.4025,346.8125 Q81.4025,348.9063 82.09,349.9844 Q82.7775,351.0469 84.1213,351.0469 Q84.7463,351.0469 85.34,350.7813 Q85.9338,350.5 86.5588,349.9219 L86.5588,352.6406 Z " fill="#FFFFFF"/><text fill="#FFFFFF" font-family="sans-serif" font-size="14" lengthAdjust="spacing" textLength="70.0342" x="97.59" y="351.8467">Superficie</text><line style="stroke:#E7E7E7;stroke-width:0.5;" x1="69.59" x2="169.6242" y1="363" y2="363"/><line style="stroke:#E7E7E7;stroke-width:0.5;" x1="69.59" x2="169.6242" y1="371" y2="371"/></g><!--link Foco1 to Persona--><g id="link_Foco1_Persona"><path codeLine="1" d="M77.46,55.26 C86.46,72.94 98.79,97.13 107.79,114.79 " fill="none" id="Foco1-Persona" style="stroke:#E7E7E7;stroke-width:1.0;"/></g><!--link Foco2 to Persona--><g id="link_Foco2_Persona"><path codeLine="2" d="M162.54,55.26 C153.37,72.94 140.81,97.13 131.65,114.79 " fill="none" id="Foco2-Persona" style="stroke:#E7E7E7;stroke-width:1.0;"/></g><!--link Persona to Sombra1--><g id="link_Persona_Sombra1"><path codeLine="3" d="M105.34,163.26 C94.51,180.94 79.67,205.13 68.84,222.79 " fill="none" id="Persona-Sombra1" style="stroke:#E7E7E7;stroke-width:1.0;"/></g><!--link Persona to Sombra2--><g id="link_Persona_Sombra2"><path codeLine="4" d="M133.87,163.26 C144.71,180.94 159.55,205.13 170.38,222.79 " fill="none" id="Persona-Sombra2" style="stroke:#E7E7E7;stroke-width:1.0;"/></g><!--link Sombra1 to Superficie--><g id="link_Sombra1_Superficie"><path codeLine="5" d="M68.87,271.26 C79.71,288.94 94.55,313.13 105.38,330.79 " fill="none" id="Sombra1-Superficie" style="stroke:#E7E7E7;stroke-width:1.0;"/></g><!--link Sombra2 to Superficie--><g id="link_Sombra2_Superficie"><path codeLine="6" d="M170.34,271.26 C159.51,288.94 144.67,313.13 133.84,330.79 " fill="none" id="Sombra2-Superficie" style="stroke:#E7E7E7;stroke-width:1.0;"/></g><!--SRC=[SyjFpZTKqDLL24WjAixFI-Ho0meO8Gj0QP1GS7vkKb6Y8QQG4HTK2YnKMf1Qb9QPd9aA5JL25GK0]--></g></svg>