<svg xmlns="http://www.w3.org/2000/svg" xmlns:xlink="http://www.w3.org/1999/xlink" contentStyleType="text/css" height="386px" preserveAspectRatio="none" style="width:137px;height:386px;background:#1B1B1B;" version="1.1" viewBox="0 0 137 386" width="137px" zoomAndPan="magnify"><defs/><g><rect fill="#1B1B1B" height="386" style="stroke:none;stroke-width:1.0;" width="137" x="0" y="0"/><!--class FuenteDeLuz--><g id="elem_FuenteDeLuz"><rect fill="#313139" height="48" id="FuenteDeLuz" rx="2.5" ry="2.5" style="stroke:#E7E7E7;stroke-width:0.5;" width="123.9297" x="7" y="7"/><ellipse cx="22" cy="23" fill="#2E5233" rx="11" ry="11" style="stroke:#E7E7E7;stroke-width:1.0;"/><path d="M24.9688,28.6406 Q24.3906,28.9375 23.75,29.0781 Q23.1094,29.2344 22.4063,29.2344 Q19.9063,29.2344 18.5781,27.5938 Q17.2656,25.9375 17.2656,22.8125 Q17.2656,19.6875 18.5781,18.0313 Q19.9063,16.375 22.4063,16.375 Q23.1094,16.375 23.75,16.5313 Q24.4063,16.6875 24.9688,16.9844 L24.9688,19.7031 Q24.3438,19.125 23.75,18.8594 Q23.1563,18.5781 22.5313,18.5781 Q21.1875,18.5781 20.5,19.6563 Q19.8125,20.7188 19.8125,22.8125 Q19.8125,24.9063 20.5,25.9844 Q21.1875,27.0469 22.5313,27.0469 Q23.1563,27.0469 23.75,26.7813 Q24.3438,26.5 24.9688,25.9219 L24.9688,28.6406 Z " fill="#FFFFFF"/><text fill="#FFFFFF" font-family="sans-serif" font-size="14" lengthAdjust="spacing" textLength="91.9297" x="36" y="27.8467">FuenteDeLuz</text><line style="stroke:#E7E7E7;stroke-width:0.5;" x1="8" x2="129.9297" y1="39" y2="39"/><line style="stroke:#E7E7E7;stroke-width:0.5;" x1="8" x2="129.9297" y1="47" y2="47"/></g><!--class Objeto--><g id="elem_Objeto"><rect fill="#313139" height="48" id="Objeto" rx="2.5" ry="2.5" style="stroke:#E7E7E7;stroke-width:0.5;" width="78.4639" x="29.73" y="115"/><ellipse cx="44.73" cy="131" fill="#2E5233" rx="11" ry="11" style="stroke:#E7E7E7;stroke-width:1.0;"/><path d="M47.6988,136.6406 Q47.1206,136.9375 46.48,137.0781 Q45.8394,137.2344 45.1363,137.2344 Q42.6363,137.2344 41.3081,135.5938 Q39.9956,133.9375 39.9956,130.8125 Q39.9956,127.6875 41.3081,126.0313 Q42.6363,124.375 45.1363,124.375 Q45.8394,124.375 46.48,124.5313 Q47.1363,124.6875 47.6988,124.9844 L47.6988,127.7031 Q47.0738,127.125 46.48,126.8594 Q45.8863,126.5781 45.2613,126.5781 Q43.9175,126.5781 43.23,127.6563 Q42.5425,128.7188 42.5425,130.8125 Q42.5425,132.9063 43.23,133.9844 Q43.9175,135.0469 45.2613,135.0469 Q45.8863,135.0469 46.48,134.7813 Q47.0738,134.5 47.6988,133.9219 L47.6988,136.6406 Z " fill="#FFFFFF"/><text fill="#FFFFFF" font-family="sans-serif" font-size="14" lengthAdjust="spacing" textLength="46.4639" x="58.73" y="135.8467">Objeto</text><line style="stroke:#E7E7E7;stroke-width:0.5;" x1="30.73" x2="107.1939" y1="147" y2="147"/><line style="stroke:#E7E7E7;stroke-width:0.5;" x1="30.73" x2="107.1939" y1="155" y2="155"/></g><!--class Sombra--><g id="elem_Sombra"><rect fill="#313139" height="48" id="Sombra" rx="2.5" ry="2.5" style="stroke:#E7E7E7;stroke-width:0.5;" width="86.3115" x="25.81" y="223"/><ellipse cx="40.81" cy="239" fill="#2E5233" rx="11" ry="11" style="stroke:#E7E7E7;stroke-width:1.0;"/><path d="M43.7788,244.6406 Q43.2006,244.9375 42.56,245.0781 Q41.9194,245.2344 41.2163,245.2344 Q38.7163,245.2344 37.3881,243.5938 Q36.0756,241.9375 36.0756,238.8125 Q36.0756,235.6875 37.3881,234.0313 Q38.7163,232.375 41.2163,232.375 Q41.9194,232.375 42.56,232.5313 Q43.2163,232.6875 43.7788,232.9844 L43.7788,235.7031 Q43.1538,235.125 42.56,234.8594 Q41.9663,234.5781 41.3413,234.5781 Q39.9975,234.5781 39.31,235.6563 Q38.6225,236.7188 38.6225,238.8125 Q38.6225,240.9063 39.31,241.9844 Q39.9975,243.0469 41.3413,243.0469 Q41.9663,243.0469 42.56,242.7813 Q43.1538,242.5 43.7788,241.9219 L43.7788,244.6406 Z " fill="#FFFFFF"/><text fill="#FFFFFF" font-family="sans-serif" font-size="14" lengthAdjust="spacing" textLength="54.3115" x="54.81" y="243.8467">Sombra</text><line style="stroke:#E7E7E7;stroke-width:0.5;" x1="26.81" x2="111.1215" y1="255" y2="255"/><line style="stroke:#E7E7E7;stroke-width:0.5;" x1="26.81" x2="111.1215" y1="263" y2="263"/></g><!--class Superficie--><g id="elem_Superficie"><rect fill="#313139" height="48" id="Superficie" rx="2.5" ry="2.5" style="stroke:#E7E7E7;stroke-width:0.5;" width="102.0342" x="17.95" y="331"/><ellipse cx="32.95" cy="347" fill="#2E5233" rx="11" ry="11" style="stroke:#E7E7E7;stroke-width:1.0;"/><path d="M35.9188,352.6406 Q35.3406,352.9375 34.7,353.0781 Q34.0594,353.2344 33.3563,353.2344 Q30.8563,353.2344 29.5281,351.5938 Q28.2156,349.9375 28.2156,346.8125 Q28.2156,343.6875 29.5281,342.0313 Q30.8563,340.375 33.3563,340.375 Q34.0594,340.375 34.7,340.5313 Q35.3563,340.6875 35.9188,340.9844 L35.9188,343.7031 Q35.2938,343.125 34.7,342.8594 Q34.1063,342.5781 33.4813,342.5781 Q32.1375,342.5781 31.45,343.6563 Q30.7625,344.7188 30.7625,346.8125 Q30.7625,348.9063 31.45,349.9844 Q32.1375,351.0469 33.4813,351.0469 Q34.1063,351.0469 34.7,350.7813 Q35.2938,350.5 35.9188,349.9219 L35.9188,352.6406 Z " fill="#FFFFFF"/><text fill="#FFFFFF" font-family="sans-serif" font-size="14" lengthAdjust="spacing" textLength="70.0342" x="46.95" y="351.8467">Superficie</text><line style="stroke:#E7E7E7;stroke-width:0.5;" x1="18.95" x2="118.9842" y1="363" y2="363"/><line style="stroke:#E7E7E7;stroke-width:0.5;" x1="18.95" x2="118.9842" y1="371" y2="371"/></g><!--link FuenteDeLuz to Objeto--><g id="link_FuenteDeLuz_Objeto"><path codeLine="1" d="M68.96,55.26 C68.96,72.94 68.96,97.13 68.96,114.79 " fill="none" id="FuenteDeLuz-Objeto" style="stroke:#E7E7E7;stroke-width:1.0;"/></g><!--link Objeto to Sombra--><g id="link_Objeto_Sombra"><path codeLine="2" d="M68.96,163.26 C68.96,180.94 68.96,205.13 68.96,222.79 " fill="none" id="Objeto-Sombra" style="stroke:#E7E7E7;stroke-width:1.0;"/></g><!--link Sombra to Superficie--><g id="link_Sombra_Superficie"><path codeLine="3" d="M68.96,271.26 C68.96,288.94 68.96,313.13 68.96,330.79 " fill="none" id="Sombra-Superficie" style="stroke:#E7E7E7;stroke-width:1.0;"/></g><!--SRC=[SojDpIj9TKdrAQrIqDLLy4_AIYt9vu9G887W_DoaeaGk20KMA2r8BKhBJCvC1G00]--></g></svg>