<svg xmlns="http://www.w3.org/2000/svg" xmlns:xlink="http://www.w3.org/1999/xlink" contentStyleType="text/css" height="386px" preserveAspectRatio="none" style="width:499px;height:386px;background:#1B1B1B;" version="1.1" viewBox="0 0 499 386" width="499px" zoomAndPan="magnify"><defs/><g><rect fill="#1B1B1B" height="386" style="stroke:none;stroke-width:1.0;" width="499" x="0" y="0"/><!--class Foco1--><g id="elem_Foco1"><rect fill="#313139" height="48" id="Foco1" rx="2.5" ry="2.5" style="stroke:#E7E7E7;stroke-width:0.5;" width="73.7881" x="157.72" y="7"/><ellipse cx="172.72" cy="23" fill="#2E5233" rx="11" ry="11" style="stroke:#E7E7E7;stroke-width:1.0;"/><path d="M175.6888,28.6406 Q175.1106,28.9375 174.47,29.0781 Q173.8294,29.2344 173.1263,29.2344 Q170.6263,29.2344 169.2981,27.5938 Q167.9856,25.9375 167.9856,22.8125 Q167.9856,19.6875 169.2981,18.0313 Q170.6263,16.375 173.1263,16.375 Q173.8294,16.375 174.47,16.5313 Q175.1263,16.6875 175.6888,16.9844 L175.6888,19.7031 Q175.0638,19.125 174.47,18.8594 Q173.8763,18.5781 173.2513,18.5781 Q171.9075,18.5781 171.22,19.6563 Q170.5325,20.7188 170.5325,22.8125 Q170.5325,24.9063 171.22,25.9844 Q171.9075,27.0469 173.2513,27.0469 Q173.8763,27.0469 174.47,26.7813 Q175.0638,26.5 175.6888,25.9219 L175.6888,28.6406 Z " fill="#FFFFFF"/><text fill="#FFFFFF" font-family="sans-serif" font-size="14" lengthAdjust="spacing" textLength="41.7881" x="186.72" y="27.8467">Foco1</text><line style="stroke:#E7E7E7;stroke-width:0.5;" x1="158.72" x2="230.5081" y1="39" y2="39"/><line style="stroke:#E7E7E7;stroke-width:0.5;" x1="158.72" x2="230.5081" y1="47" y2="47"/></g><!--class Persona1--><g id="elem_Persona1"><rect fill="#313139" height="48" id="Persona1" rx="2.5" ry="2.5" style="stroke:#E7E7E7;stroke-width:0.5;" width="97.0303" x="135.09" y="115"/><ellipse cx="150.09" cy="131" fill="#2E5233" rx="11" ry="11" style="stroke:#E7E7E7;stroke-width:1.0;"/><path d="M153.0588,136.6406 Q152.4806,136.9375 151.84,137.0781 Q151.1994,137.2344 150.4963,137.2344 Q147.9963,137.2344 146.6681,135.5938 Q145.3556,133.9375 145.3556,130.8125 Q145.3556,127.6875 146.6681,126.0313 Q147.9963,124.375 150.4963,124.375 Q151.1994,124.375 151.84,124.5313 Q152.4963,124.6875 153.0588,124.9844 L153.0588,127.7031 Q152.4338,127.125 151.84,126.8594 Q151.2463,126.5781 150.6213,126.5781 Q149.2775,126.5781 148.59,127.6563 Q147.9025,128.7188 147.9025,130.8125 Q147.9025,132.9063 148.59,133.9844 Q149.2775,135.0469 150.6213,135.0469 Q151.2463,135.0469 151.84,134.7813 Q152.4338,134.5 153.0588,133.9219 L153.0588,136.6406 Z " fill="#FFFFFF"/><text fill="#FFFFFF" font-family="sans-serif" font-size="14" lengthAdjust="spacing" textLength="65.0303" x="164.09" y="135.8467">Persona1</text><line style="stroke:#E7E7E7;stroke-width:0.5;" x1="136.09" x2="231.1203" y1="147" y2="147"/><line style="stroke:#E7E7E7;stroke-width:0.5;" x1="136.09" x2="231.1203" y1="155" y2="155"/></g><!--class Persona2--><g id="elem_Persona2"><rect fill="#313139" height="48" id="Persona2" rx="2.5" ry="2.5" style="stroke:#E7E7E7;stroke-width:0.5;" width="97.0303" x="267.09" y="115"/><ellipse cx="282.09" cy="131" fill="#2E5233" rx="11" ry="11" style="stroke:#E7E7E7;stroke-width:1.0;"/><path d="M285.0588,136.6406 Q284.4806,136.9375 283.84,137.0781 Q283.1994,137.2344 282.4963,137.2344 Q279.9963,137.2344 278.6681,135.5938 Q277.3556,133.9375 277.3556,130.8125 Q277.3556,127.6875 278.6681,126.0313 Q279.9963,124.375 282.4963,124.375 Q283.1994,124.375 283.84,124.5313 Q284.4963,124.6875 285.0588,124.9844 L285.0588,127.7031 Q284.4338,127.125 283.84,126.8594 Q283.2463,126.5781 282.6213,126.5781 Q281.2775,126.5781 280.59,127.6563 Q279.9025,128.7188 279.9025,130.8125 Q279.9025,132.9063 280.59,133.9844 Q281.2775,135.0469 282.6213,135.0469 Q283.2463,135.0469 283.84,134.7813 Q284.4338,134.5 285.0588,133.9219 L285.0588,136.6406 Z " fill="#FFFFFF"/><text fill="#FFFFFF" font-family="sans-serif" font-size="14" lengthAdjust="spacing" textLength="65.0303" x="296.09" y="135.8467">Persona2</text><line style="stroke:#E7E7E7;stroke-width:0.5;" x1="268.09" x2="363.1203" y1="147" y2="147"/><line style="stroke:#E7E7E7;stroke-width:0.5;" x1="268.09" x2="363.1203" y1="155" y2="155"/></g><!--class Foco2--><g id="elem_Foco2"><rect fill="#313139" height="48" id="Foco2" rx="2.5" ry="2.5" style="stroke:#E7E7E7;stroke-width:0.5;" width="73.7881" x="272.72" y="7"/><ellipse cx="287.72" cy="23" fill="#2E5233" rx="11" ry="11" style="stroke:#E7E7E7;stroke-width:1.0;"/><path d="M290.6888,28.6406 Q290.1106,28.9375 289.47,29.0781 Q288.8294,29.2344 288.1263,29.2344 Q285.6263,29.2344 284.2981,27.5938 Q282.9856,25.9375 282.9856,22.8125 Q282.9856,19.6875 284.2981,18.0313 Q285.6263,16.375 288.1263,16.375 Q288.8294,16.375 289.47,16.5313 Q290.1263,16.6875 290.6888,16.9844 L290.6888,19.7031 Q290.0638,19.125 289.47,18.8594 Q288.8763,18.5781 288.2513,18.5781 Q286.9075,18.5781 286.22,19.6563 Q285.5325,20.7188 285.5325,22.8125 Q285.5325,24.9063 286.22,25.9844 Q286.9075,27.0469 288.2513,27.0469 Q288.8763,27.0469 289.47,26.7813 Q290.0638,26.5 290.6888,25.9219 L290.6888,28.6406 Z " fill="#FFFFFF"/><text fill="#FFFFFF" font-family="sans-serif" font-size="14" lengthAdjust="spacing" textLength="41.7881" x="301.72" y="27.8467">Foco2</text><line style="stroke:#E7E7E7;stroke-width:0.5;" x1="273.72" x2="345.5081" y1="39" y2="39"/><line style="stroke:#E7E7E7;stroke-width:0.5;" x1="273.72" x2="345.5081" y1="47" y2="47"/></g><!--class Sombra1--><g id="elem_Sombra1"><rect fill="#313139" height="48" id="Sombra1" rx="2.5" ry="2.5" style="stroke:#E7E7E7;stroke-width:0.5;" width="95.2188" x="7" y="223"/><ellipse cx="22" cy="239" fill="#2E5233" rx="11" ry="11" style="stroke:#E7E7E7;stroke-width:1.0;"/><path d="M24.9688,244.6406 Q24.3906,244.9375 23.75,245.0781 Q23.1094,245.2344 22.4063,245.2344 Q19.9063,245.2344 18.5781,243.5938 Q17.2656,241.9375 17.2656,238.8125 Q17.2656,235.6875 18.5781,234.0313 Q19.9063,232.375 22.4063,232.375 Q23.1094,232.375 23.75,232.5313 Q24.4063,232.6875 24.9688,232.9844 L24.9688,235.7031 Q24.3438,235.125 23.75,234.8594 Q23.1563,234.5781 22.5313,234.5781 Q21.1875,234.5781 20.5,235.6563 Q19.8125,236.7188 19.8125,238.8125 Q19.8125,240.9063 20.5,241.9844 Q21.1875,243.0469 22.5313,243.0469 Q23.1563,243.0469 23.75,242.7813 Q24.3438,242.5 24.9688,241.9219 L24.9688,244.6406 Z " fill="#FFFFFF"/><text fill="#FFFFFF" font-family="sans-serif" font-size="14" lengthAdjust="spacing" textLength="63.2188" x="36" y="243.8467">Sombra1</text><line style="stroke:#E7E7E7;stroke-width:0.5;" x1="8" x2="101.2188" y1="255" y2="255"/><line style="stroke:#E7E7E7;stroke-width:0.5;" x1="8" x2="101.2188" y1="263" y2="263"/></g><!--class Sombra2--><g id="elem_Sombra2"><rect fill="#313139" height="48" id="Sombra2" rx="2.5" ry="2.5" style="stroke:#E7E7E7;stroke-width:0.5;" width="95.2188" x="137" y="223"/><ellipse cx="152" cy="239" fill="#2E5233" rx="11" ry="11" style="stroke:#E7E7E7;stroke-width:1.0;"/><path d="M154.9688,244.6406 Q154.3906,244.9375 153.75,245.0781 Q153.1094,245.2344 152.4063,245.2344 Q149.9063,245.2344 148.5781,243.5938 Q147.2656,241.9375 147.2656,238.8125 Q147.2656,235.6875 148.5781,234.0313 Q149.9063,232.375 152.4063,232.375 Q153.1094,232.375 153.75,232.5313 Q154.4063,232.6875 154.9688,232.9844 L154.9688,235.7031 Q154.3438,235.125 153.75,234.8594 Q153.1563,234.5781 152.5313,234.5781 Q151.1875,234.5781 150.5,235.6563 Q149.8125,236.7188 149.8125,238.8125 Q149.8125,240.9063 150.5,241.9844 Q151.1875,243.0469 152.5313,243.0469 Q153.1563,243.0469 153.75,242.7813 Q154.3438,242.5 154.9688,241.9219 L154.9688,244.6406 Z " fill="#FFFFFF"/><text fill="#FFFFFF" font-family="sans-serif" font-size="14" lengthAdjust="spacing" textLength="63.2188" x="166" y="243.8467">Sombra2</text><line style="stroke:#E7E7E7;stroke-width:0.5;" x1="138" x2="231.2188" y1="255" y2="255"/><line style="stroke:#E7E7E7;stroke-width:0.5;" x1="138" x2="231.2188" y1="263" y2="263"/></g><!--class Sombra3--><g id="elem_Sombra3"><rect fill="#313139" height="48" id="Sombra3" rx="2.5" ry="2.5" style="stroke:#E7E7E7;stroke-width:0.5;" width="95.2188" x="267" y="223"/><ellipse cx="282" cy="239" fill="#2E5233" rx="11" ry="11" style="stroke:#E7E7E7;stroke-width:1.0;"/><path d="M284.9688,244.6406 Q284.3906,244.9375 283.75,245.0781 Q283.1094,245.2344 282.4063,245.2344 Q279.9063,245.2344 278.5781,243.5938 Q277.2656,241.9375 277.2656,238.8125 Q277.2656,235.6875 278.5781,234.0313 Q279.9063,232.375 282.4063,232.375 Q283.1094,232.375 283.75,232.5313 Q284.4063,232.6875 284.9688,232.9844 L284.9688,235.7031 Q284.3438,235.125 283.75,234.8594 Q283.1563,234.5781 282.5313,234.5781 Q281.1875,234.5781 280.5,235.6563 Q279.8125,236.7188 279.8125,238.8125 Q279.8125,240.9063 280.5,241.9844 Q281.1875,243.0469 282.5313,243.0469 Q283.1563,243.0469 283.75,242.7813 Q284.3438,242.5 284.9688,241.9219 L284.9688,244.6406 Z " fill="#FFFFFF"/><text fill="#FFFFFF" font-family="sans-serif" font-size="14" lengthAdjust="spacing" textLength="63.2188" x="296" y="243.8467">Sombra3</text><line style="stroke:#E7E7E7;stroke-width:0.5;" x1="268" x2="361.2188" y1="255" y2="255"/><line style="stroke:#E7E7E7;stroke-width:0.5;" x1="268" x2="361.2188" y1="263" y2="263"/></g><!--class Sombra4--><g id="elem_Sombra4"><rect fill="#313139" height="48" id="Sombra4" rx="2.5" ry="2.5" style="stroke:#E7E7E7;stroke-width:0.5;" width="95.2188" x="397" y="223"/><ellipse cx="412" cy="239" fill="#2E5233" rx="11" ry="11" style="stroke:#E7E7E7;stroke-width:1.0;"/><path d="M414.9688,244.6406 Q414.3906,244.9375 413.75,245.0781 Q413.1094,245.2344 412.4063,245.2344 Q409.9063,245.2344 408.5781,243.5938 Q407.2656,241.9375 407.2656,238.8125 Q407.2656,235.6875 408.5781,234.0313 Q409.9063,232.375 412.4063,232.375 Q413.1094,232.375 413.75,232.5313 Q414.4063,232.6875 414.9688,232.9844 L414.9688,235.7031 Q414.3438,235.125 413.75,234.8594 Q413.1563,234.5781 412.5313,234.5781 Q411.1875,234.5781 410.5,235.6563 Q409.8125,236.7188 409.8125,238.8125 Q409.8125,240.9063 410.5,241.9844 Q411.1875,243.0469 412.5313,243.0469 Q413.1563,243.0469 413.75,242.7813 Q414.3438,242.5 414.9688,241.9219 L414.9688,244.6406 Z " fill="#FFFFFF"/><text fill="#FFFFFF" font-family="sans-serif" font-size="14" lengthAdjust="spacing" textLength="63.2188" x="426" y="243.8467">Sombra4</text><line style="stroke:#E7E7E7;stroke-width:0.5;" x1="398" x2="491.2188" y1="255" y2="255"/><line style="stroke:#E7E7E7;stroke-width:0.5;" x1="398" x2="491.2188" y1="263" y2="263"/></g><!--class Superficie--><g id="elem_Superficie"><rect fill="#313139" height="48" id="Superficie" rx="2.5" ry="2.5" style="stroke:#E7E7E7;stroke-width:0.5;" width="102.0342" x="198.59" y="331"/><ellipse cx="213.59" cy="347" fill="#2E5233" rx="11" ry="11" style="stroke:#E7E7E7;stroke-width:1.0;"/><path d="M216.5588,352.6406 Q215.9806,352.9375 215.34,353.0781 Q214.6994,353.2344 213.9963,353.2344 Q211.4963,353.2344 210.1681,351.5938 Q208.8556,349.9375 208.8556,346.8125 Q208.8556,343.6875 210.1681,342.0313 Q211.4963,340.375 213.9963,340.375 Q214.6994,340.375 215.34,340.5313 Q215.9963,340.6875 216.5588,340.9844 L216.5588,343.7031 Q215.9338,343.125 215.34,342.8594 Q214.7463,342.5781 214.1213,342.5781 Q212.7775,342.5781 212.09,343.6563 Q211.4025,344.7188 211.4025,346.8125 Q211.4025,348.9063 212.09,349.9844 Q212.7775,351.0469 214.1213,351.0469 Q214.7463,351.0469 215.34,350.7813 Q215.9338,350.5 216.5588,349.9219 L216.5588,352.6406 Z " fill="#FFFFFF"/><text fill="#FFFFFF" font-family="sans-serif" font-size="14" lengthAdjust="spacing" textLength="70.0342" x="227.59" y="351.8467">Superficie</text><line style="stroke:#E7E7E7;stroke-width:0.5;" x1="199.59" x2="299.6242" y1="363" y2="363"/><line style="stroke:#E7E7E7;stroke-width:0.5;" x1="199.59" x2="299.6242" y1="371" y2="371"/></g><!--link Foco1 to Persona1--><g id="link_Foco1_Persona1"><path codeLine="1" d="M192.2,55.26 C190.36,72.94 187.85,97.13 186.02,114.79 " fill="none" id="Foco1-Persona1" style="stroke:#E7E7E7;stroke-width:1.0;"/></g><!--link Foco1 to Persona2--><g id="link_Foco1_Persona2"><path codeLine="2" d="M221.16,55.26 C241.34,72.94 268.96,97.13 289.12,114.79 " fill="none" id="Foco1-Persona2" style="stroke:#E7E7E7;stroke-width:1.0;"/></g><!--link Foco2 to Persona1--><g id="link_Foco2_Persona1"><path codeLine="3" d="M281.96,55.26 C260.95,72.94 232.19,97.13 211.2,114.79 " fill="none" id="Foco2-Persona1" style="stroke:#E7E7E7;stroke-width:1.0;"/></g><!--link Foco2 to Persona2--><g id="link_Foco2_Persona2"><path codeLine="4" d="M310.93,55.26 C311.93,72.94 313.3,97.13 314.3,114.79 " fill="none" id="Foco2-Persona2" style="stroke:#E7E7E7;stroke-width:1.0;"/></g><!--link Persona1 to Sombra1--><g id="link_Persona1_Sombra1"><path codeLine="5" d="M155.3,163.26 C133.79,180.94 104.34,205.13 82.85,222.79 " fill="none" id="Persona1-Sombra1" style="stroke:#E7E7E7;stroke-width:1.0;"/></g><!--link Persona1 to Sombra2--><g id="link_Persona1_Sombra2"><path codeLine="6" d="M183.83,163.26 C184,180.94 184.22,205.13 184.39,222.79 " fill="none" id="Persona1-Sombra2" style="stroke:#E7E7E7;stroke-width:1.0;"/></g><!--link Persona2 to Sombra3--><g id="link_Persona2_Sombra3"><path codeLine="7" d="M315.39,163.26 C315.22,180.94 314.99,205.13 314.83,222.79 " fill="none" id="Persona2-Sombra3" style="stroke:#E7E7E7;stroke-width:1.0;"/></g><!--link Persona2 to Sombra4--><g id="link_Persona2_Sombra4"><path codeLine="8" d="M343.92,163.26 C365.43,180.94 394.87,205.13 416.37,222.79 " fill="none" id="Persona2-Sombra4" style="stroke:#E7E7E7;stroke-width:1.0;"/></g><!--link Sombra1 to Superficie--><g id="link_Sombra1_Superficie"><path codeLine="9" d="M97.4,271.26 C129.8,288.87 174.12,312.97 206.58,330.61 " fill="none" id="Sombra1-Superficie" style="stroke:#E7E7E7;stroke-width:1.0;"/></g><!--link Sombra2 to Superficie--><g id="link_Sombra2_Superficie"><path codeLine="10" d="M198.87,271.26 C209.71,288.94 224.55,313.13 235.38,330.79 " fill="none" id="Sombra2-Superficie" style="stroke:#E7E7E7;stroke-width:1.0;"/></g><!--link Sombra3 to Superficie--><g id="link_Sombra3_Superficie"><path codeLine="11" d="M300.34,271.26 C289.51,288.94 274.67,313.13 263.84,330.79 " fill="none" id="Sombra3-Superficie" style="stroke:#E7E7E7;stroke-width:1.0;"/></g><!--link Sombra4 to Superficie--><g id="link_Sombra4_Superficie"><path codeLine="12" d="M401.82,271.26 C369.42,288.87 325.1,312.97 292.64,330.61 " fill="none" id="Sombra4-Superficie" style="stroke:#E7E7E7;stroke-width:1.0;"/></g><!--SRC=[SyjFpZTKqDLL24WjAixFIpJaSaCJCGAB666eCK9H0vC22GRdvoOL0LLXYi7L6I74ZB68cN11pG0BbHQa5gLb9cUcGaMDi8eQOnKrGHK50000]--></g></svg>