<svg xmlns="http://www.w3.org/2000/svg" xmlns:xlink="http://www.w3.org/1999/xlink" contentStyleType="text/css" height="386px" preserveAspectRatio="none" style="width:243px;height:386px;background:#1B1B1B;" version="1.1" viewBox="0 0 243 386" width="243px" zoomAndPan="magnify"><defs/><g><rect fill="#1B1B1B" height="386" style="stroke:none;stroke-width:1.0;" width="243" x="0" y="0"/><!--class Foco--><g id="elem_Foco"><rect fill="#313139" height="48" id="Foco" rx="2.5" ry="2.5" style="stroke:#E7E7E7;stroke-width:0.5;" width="64.8809" x="89.07" y="7"/><ellipse cx="104.07" cy="23" fill="#2E5233" rx="11" ry="11" style="stroke:#E7E7E7;stroke-width:1.0;"/><path d="M107.0388,28.6406 Q106.4606,28.9375 105.82,29.0781 Q105.1794,29.2344 104.4763,29.2344 Q101.9763,29.2344 100.6481,27.5938 Q99.3356,25.9375 99.3356,22.8125 Q99.3356,19.6875 100.6481,18.0313 Q101.9763,16.375 104.4763,16.375 Q105.1794,16.375 105.82,16.5313 Q106.4763,16.6875 107.0388,16.9844 L107.0388,19.7031 Q106.4138,19.125 105.82,18.8594 Q105.2263,18.5781 104.6013,18.5781 Q103.2575,18.5781 102.57,19.6563 Q101.8825,20.7188 101.8825,22.8125 Q101.8825,24.9063 102.57,25.9844 Q103.2575,27.0469 104.6013,27.0469 Q105.2263,27.0469 105.82,26.7813 Q106.4138,26.5 107.0388,25.9219 L107.0388,28.6406 Z " fill="#FFFFFF"/><text fill="#FFFFFF" font-family="sans-serif" font-size="14" lengthAdjust="spacing" textLength="32.8809" x="118.07" y="27.8467">Foco</text><line style="stroke:#E7E7E7;stroke-width:0.5;" x1="90.07" x2="152.9509" y1="39" y2="39"/><line style="stroke:#E7E7E7;stroke-width:0.5;" x1="90.07" x2="152.9509" y1="47" y2="47"/></g><!--class Persona1--><g id="elem_Persona1"><rect fill="#313139" height="48" id="Persona1" rx="2.5" ry="2.5" style="stroke:#E7E7E7;stroke-width:0.5;" width="97.0303" x="7" y="115"/><ellipse cx="22" cy="131" fill="#2E5233" rx="11" ry="11" style="stroke:#E7E7E7;stroke-width:1.0;"/><path d="M24.9688,136.6406 Q24.3906,136.9375 23.75,137.0781 Q23.1094,137.2344 22.4063,137.2344 Q19.9063,137.2344 18.5781,135.5938 Q17.2656,133.9375 17.2656,130.8125 Q17.2656,127.6875 18.5781,126.0313 Q19.9063,124.375 22.4063,124.375 Q23.1094,124.375 23.75,124.5313 Q24.4063,124.6875 24.9688,124.9844 L24.9688,127.7031 Q24.3438,127.125 23.75,126.8594 Q23.1563,126.5781 22.5313,126.5781 Q21.1875,126.5781 20.5,127.6563 Q19.8125,128.7188 19.8125,130.8125 Q19.8125,132.9063 20.5,133.9844 Q21.1875,135.0469 22.5313,135.0469 Q23.1563,135.0469 23.75,134.7813 Q24.3438,134.5 24.9688,133.9219 L24.9688,136.6406 Z " fill="#FFFFFF"/><text fill="#FFFFFF" font-family="sans-serif" font-size="14" lengthAdjust="spacing" textLength="65.0303" x="36" y="135.8467">Persona1</text><line style="stroke:#E7E7E7;stroke-width:0.5;" x1="8" x2="103.0303" y1="147" y2="147"/><line style="stroke:#E7E7E7;stroke-width:0.5;" x1="8" x2="103.0303" y1="155" y2="155"/></g><!--class Persona2--><g id="elem_Persona2"><rect fill="#313139" height="48" id="Persona2" rx="2.5" ry="2.5" style="stroke:#E7E7E7;stroke-width:0.5;" width="97.0303" x="139" y="115"/><ellipse cx="154" cy="131" fill="#2E5233" rx="11" ry="11" style="stroke:#E7E7E7;stroke-width:1.0;"/><path d="M156.9688,136.6406 Q156.3906,136.9375 155.75,137.0781 Q155.1094,137.2344 154.4063,137.2344 Q151.9063,137.2344 150.5781,135.5938 Q149.2656,133.9375 149.2656,130.8125 Q149.2656,127.6875 150.5781,126.0313 Q151.9063,124.375 154.4063,124.375 Q155.1094,124.375 155.75,124.5313 Q156.4063,124.6875 156.9688,124.9844 L156.9688,127.7031 Q156.3438,127.125 155.75,126.8594 Q155.1563,126.5781 154.5313,126.5781 Q153.1875,126.5781 152.5,127.6563 Q151.8125,128.7188 151.8125,130.8125 Q151.8125,132.9063 152.5,133.9844 Q153.1875,135.0469 154.5313,135.0469 Q155.1563,135.0469 155.75,134.7813 Q156.3438,134.5 156.9688,133.9219 L156.9688,136.6406 Z " fill="#FFFFFF"/><text fill="#FFFFFF" font-family="sans-serif" font-size="14" lengthAdjust="spacing" textLength="65.0303" x="168" y="135.8467">Persona2</text><line style="stroke:#E7E7E7;stroke-width:0.5;" x1="140" x2="235.0303" y1="147" y2="147"/><line style="stroke:#E7E7E7;stroke-width:0.5;" x1="140" x2="235.0303" y1="155" y2="155"/></g><!--class Sombra1--><g id="elem_Sombra1"><rect fill="#313139" height="48" id="Sombra1" rx="2.5" ry="2.5" style="stroke:#E7E7E7;stroke-width:0.5;" width="95.2188" x="7.91" y="223"/><ellipse cx="22.91" cy="239" fill="#2E5233" rx="11" ry="11" style="stroke:#E7E7E7;stroke-width:1.0;"/><path d="M25.8788,244.6406 Q25.3006,244.9375 24.66,245.0781 Q24.0194,245.2344 23.3163,245.2344 Q20.8163,245.2344 19.4881,243.5938 Q18.1756,241.9375 18.1756,238.8125 Q18.1756,235.6875 19.4881,234.0313 Q20.8163,232.375 23.3163,232.375 Q24.0194,232.375 24.66,232.5313 Q25.3163,232.6875 25.8788,232.9844 L25.8788,235.7031 Q25.2538,235.125 24.66,234.8594 Q24.0663,234.5781 23.4413,234.5781 Q22.0975,234.5781 21.41,235.6563 Q20.7225,236.7188 20.7225,238.8125 Q20.7225,240.9063 21.41,241.9844 Q22.0975,243.0469 23.4413,243.0469 Q24.0663,243.0469 24.66,242.7813 Q25.2538,242.5 25.8788,241.9219 L25.8788,244.6406 Z " fill="#FFFFFF"/><text fill="#FFFFFF" font-family="sans-serif" font-size="14" lengthAdjust="spacing" textLength="63.2188" x="36.91" y="243.8467">Sombra1</text><line style="stroke:#E7E7E7;stroke-width:0.5;" x1="8.91" x2="102.1288" y1="255" y2="255"/><line style="stroke:#E7E7E7;stroke-width:0.5;" x1="8.91" x2="102.1288" y1="263" y2="263"/></g><!--class Sombra2--><g id="elem_Sombra2"><rect fill="#313139" height="48" id="Sombra2" rx="2.5" ry="2.5" style="stroke:#E7E7E7;stroke-width:0.5;" width="95.2188" x="138.91" y="223"/><ellipse cx="153.91" cy="239" fill="#2E5233" rx="11" ry="11" style="stroke:#E7E7E7;stroke-width:1.0;"/><path d="M156.8788,244.6406 Q156.3006,244.9375 155.66,245.0781 Q155.0194,245.2344 154.3163,245.2344 Q151.8163,245.2344 150.4881,243.5938 Q149.1756,241.9375 149.1756,238.8125 Q149.1756,235.6875 150.4881,234.0313 Q151.8163,232.375 154.3163,232.375 Q155.0194,232.375 155.66,232.5313 Q156.3163,232.6875 156.8788,232.9844 L156.8788,235.7031 Q156.2538,235.125 155.66,234.8594 Q155.0663,234.5781 154.4413,234.5781 Q153.0975,234.5781 152.41,235.6563 Q151.7225,236.7188 151.7225,238.8125 Q151.7225,240.9063 152.41,241.9844 Q153.0975,243.0469 154.4413,243.0469 Q155.0663,243.0469 155.66,242.7813 Q156.2538,242.5 156.8788,241.9219 L156.8788,244.6406 Z " fill="#FFFFFF"/><text fill="#FFFFFF" font-family="sans-serif" font-size="14" lengthAdjust="spacing" textLength="63.2188" x="167.91" y="243.8467">Sombra2</text><line style="stroke:#E7E7E7;stroke-width:0.5;" x1="139.91" x2="233.1288" y1="255" y2="255"/><line style="stroke:#E7E7E7;stroke-width:0.5;" x1="139.91" x2="233.1288" y1="263" y2="263"/></g><!--class Superficie--><g id="elem_Superficie"><rect fill="#313139" height="48" id="Superficie" rx="2.5" ry="2.5" style="stroke:#E7E7E7;stroke-width:0.5;" width="102.0342" x="69.5" y="331"/><ellipse cx="84.5" cy="347" fill="#2E5233" rx="11" ry="11" style="stroke:#E7E7E7;stroke-width:1.0;"/><path d="M87.4688,352.6406 Q86.8906,352.9375 86.25,353.0781 Q85.6094,353.2344 84.9063,353.2344 Q82.4063,353.2344 81.0781,351.5938 Q79.7656,349.9375 79.7656,346.8125 Q79.7656,343.6875 81.0781,342.0313 Q82.4063,340.375 84.9063,340.375 Q85.6094,340.375 86.25,340.5313 Q86.9063,340.6875 87.4688,340.9844 L87.4688,343.7031 Q86.8438,343.125 86.25,342.8594 Q85.6563,342.5781 85.0313,342.5781 Q83.6875,342.5781 83,343.6563 Q82.3125,344.7188 82.3125,346.8125 Q82.3125,348.9063 83,349.9844 Q83.6875,351.0469 85.0313,351.0469 Q85.6563,351.0469 86.25,350.7813 Q86.8438,350.5 87.4688,349.9219 L87.4688,352.6406 Z " fill="#FFFFFF"/><text fill="#FFFFFF" font-family="sans-serif" font-size="14" lengthAdjust="spacing" textLength="70.0342" x="98.5" y="351.8467">Superficie</text><line style="stroke:#E7E7E7;stroke-width:0.5;" x1="70.5" x2="170.5342" y1="363" y2="363"/><line style="stroke:#E7E7E7;stroke-width:0.5;" x1="70.5" x2="170.5342" y1="371" y2="371"/></g><!--link Foco to Persona1--><g id="link_Foco_Persona1"><path codeLine="1" d="M107.03,55.26 C96.03,72.94 80.96,97.13 69.97,114.79 " fill="none" id="Foco-Persona1" style="stroke:#E7E7E7;stroke-width:1.0;"/></g><!--link Foco to Persona2--><g id="link_Foco_Persona2"><path codeLine="2" d="M136,55.26 C147,72.94 162.07,97.13 173.06,114.79 " fill="none" id="Foco-Persona2" style="stroke:#E7E7E7;stroke-width:1.0;"/></g><!--link Persona1 to Sombra1--><g id="link_Persona1_Sombra1"><path codeLine="3" d="M55.52,163.26 C55.52,180.94 55.52,205.13 55.52,222.79 " fill="none" id="Persona1-Sombra1" style="stroke:#E7E7E7;stroke-width:1.0;"/></g><!--link Persona2 to Sombra2--><g id="link_Persona2_Sombra2"><path codeLine="4" d="M187.3,163.26 C187.13,180.94 186.9,205.13 186.73,222.79 " fill="none" id="Persona2-Sombra2" style="stroke:#E7E7E7;stroke-width:1.0;"/></g><!--link Sombra1 to Superficie--><g id="link_Sombra1_Superficie"><path codeLine="5" d="M69.78,271.26 C80.62,288.94 95.45,313.13 106.28,330.79 " fill="none" id="Sombra1-Superficie" style="stroke:#E7E7E7;stroke-width:1.0;"/></g><!--link Sombra2 to Superficie--><g id="link_Sombra2_Superficie"><path codeLine="6" d="M172.03,271.26 C161.03,288.94 145.96,313.13 134.97,330.79 " fill="none" id="Sombra2-Superficie" style="stroke:#E7E7E7;stroke-width:1.0;"/></g><!--SRC=[SyjFpbVGrLK8I2qgpizBDEHoGnKmueB9W0I3ytEJYe2AO988CICkg1nOgBGWjIWjCpap5IfgX2eA0000]--></g></svg>