<svg xmlns="http://www.w3.org/2000/svg" xmlns:xlink="http://www.w3.org/1999/xlink" contentStyleType="text/css" height="562px" preserveAspectRatio="none" style="width:344px;height:562px;background:#1B1B1B;" version="1.1" viewBox="0 0 344 562" width="344px" zoomAndPan="magnify"><defs/><g><rect fill="#1B1B1B" height="562" style="stroke:none;stroke-width:1.0;" width="344" x="0" y="0"/><!--class Decisor--><g id="elem_Decisor"><rect codeLine="1" fill="#313139" height="48" id="Decisor" rx="2.5" ry="2.5" style="stroke:#E7E7E7;stroke-width:0.5;" width="84.5957" x="190.54" y="7"/><ellipse cx="205.54" cy="23" fill="#2E5233" rx="11" ry="11" style="stroke:#E7E7E7;stroke-width:1.0;"/><path d="M208.5088,28.6406 Q207.9306,28.9375 207.29,29.0781 Q206.6494,29.2344 205.9463,29.2344 Q203.4463,29.2344 202.1181,27.5938 Q200.8056,25.9375 200.8056,22.8125 Q200.8056,19.6875 202.1181,18.0313 Q203.4463,16.375 205.9463,16.375 Q206.6494,16.375 207.29,16.5313 Q207.9463,16.6875 208.5088,16.9844 L208.5088,19.7031 Q207.8838,19.125 207.29,18.8594 Q206.6963,18.5781 206.0713,18.5781 Q204.7275,18.5781 204.04,19.6563 Q203.3525,20.7188 203.3525,22.8125 Q203.3525,24.9063 204.04,25.9844 Q204.7275,27.0469 206.0713,27.0469 Q206.6963,27.0469 207.29,26.7813 Q207.8838,26.5 208.5088,25.9219 L208.5088,28.6406 Z " fill="#FFFFFF"/><text fill="#FFFFFF" font-family="sans-serif" font-size="14" lengthAdjust="spacing" textLength="52.5957" x="219.54" y="27.8467">Decisor</text><line style="stroke:#E7E7E7;stroke-width:0.5;" x1="191.54" x2="274.1357" y1="39" y2="39"/><line style="stroke:#E7E7E7;stroke-width:0.5;" x1="191.54" x2="274.1357" y1="47" y2="47"/></g><!--class Conflicto--><g id="elem_Conflicto"><rect codeLine="2" fill="#313139" height="48" id="Conflicto" rx="2.5" ry="2.5" style="stroke:#E7E7E7;stroke-width:0.5;" width="93.6738" x="118.01" y="132"/><ellipse cx="133.01" cy="148" fill="#2E5233" rx="11" ry="11" style="stroke:#E7E7E7;stroke-width:1.0;"/><path d="M135.9788,153.6406 Q135.4006,153.9375 134.76,154.0781 Q134.1194,154.2344 133.4163,154.2344 Q130.9163,154.2344 129.5881,152.5938 Q128.2756,150.9375 128.2756,147.8125 Q128.2756,144.6875 129.5881,143.0313 Q130.9163,141.375 133.4163,141.375 Q134.1194,141.375 134.76,141.5313 Q135.4163,141.6875 135.9788,141.9844 L135.9788,144.7031 Q135.3538,144.125 134.76,143.8594 Q134.1663,143.5781 133.5413,143.5781 Q132.1975,143.5781 131.51,144.6563 Q130.8225,145.7188 130.8225,147.8125 Q130.8225,149.9063 131.51,150.9844 Q132.1975,152.0469 133.5413,152.0469 Q134.1663,152.0469 134.76,151.7813 Q135.3538,151.5 135.9788,150.9219 L135.9788,153.6406 Z " fill="#FFFFFF"/><text fill="#FFFFFF" font-family="sans-serif" font-size="14" lengthAdjust="spacing" textLength="61.6738" x="147.01" y="152.8467">Conflicto</text><line style="stroke:#E7E7E7;stroke-width:0.5;" x1="119.01" x2="210.6838" y1="164" y2="164"/><line style="stroke:#E7E7E7;stroke-width:0.5;" x1="119.01" x2="210.6838" y1="172" y2="172"/></g><!--class Idea--><g id="elem_Idea"><rect codeLine="3" fill="#313139" height="48" id="Idea" rx="2.5" ry="2.5" style="stroke:#E7E7E7;stroke-width:0.5;" width="62.208" x="78.74" y="257"/><ellipse cx="93.74" cy="273" fill="#2E5233" rx="11" ry="11" style="stroke:#E7E7E7;stroke-width:1.0;"/><path d="M96.7088,278.6406 Q96.1306,278.9375 95.49,279.0781 Q94.8494,279.2344 94.1463,279.2344 Q91.6463,279.2344 90.3181,277.5938 Q89.0056,275.9375 89.0056,272.8125 Q89.0056,269.6875 90.3181,268.0313 Q91.6463,266.375 94.1463,266.375 Q94.8494,266.375 95.49,266.5313 Q96.1463,266.6875 96.7088,266.9844 L96.7088,269.7031 Q96.0838,269.125 95.49,268.8594 Q94.8963,268.5781 94.2713,268.5781 Q92.9275,268.5781 92.24,269.6563 Q91.5525,270.7188 91.5525,272.8125 Q91.5525,274.9063 92.24,275.9844 Q92.9275,277.0469 94.2713,277.0469 Q94.8963,277.0469 95.49,276.7813 Q96.0838,276.5 96.7088,275.9219 L96.7088,278.6406 Z " fill="#FFFFFF"/><text fill="#FFFFFF" font-family="sans-serif" font-size="14" lengthAdjust="spacing" textLength="30.208" x="107.74" y="277.8467">Idea</text><line style="stroke:#E7E7E7;stroke-width:0.5;" x1="79.74" x2="139.948" y1="289" y2="289"/><line style="stroke:#E7E7E7;stroke-width:0.5;" x1="79.74" x2="139.948" y1="297" y2="297"/></g><!--class Analisis--><g id="elem_Analisis"><rect codeLine="4" fill="#313139" height="48" id="Analisis" rx="2.5" ry="2.5" style="stroke:#E7E7E7;stroke-width:0.5;" width="85.2861" x="67.2" y="382"/><ellipse cx="82.2" cy="398" fill="#2E5233" rx="11" ry="11" style="stroke:#E7E7E7;stroke-width:1.0;"/><path d="M85.1688,403.6406 Q84.5906,403.9375 83.95,404.0781 Q83.3094,404.2344 82.6063,404.2344 Q80.1063,404.2344 78.7781,402.5938 Q77.4656,400.9375 77.4656,397.8125 Q77.4656,394.6875 78.7781,393.0313 Q80.1063,391.375 82.6063,391.375 Q83.3094,391.375 83.95,391.5313 Q84.6063,391.6875 85.1688,391.9844 L85.1688,394.7031 Q84.5438,394.125 83.95,393.8594 Q83.3563,393.5781 82.7313,393.5781 Q81.3875,393.5781 80.7,394.6563 Q80.0125,395.7188 80.0125,397.8125 Q80.0125,399.9063 80.7,400.9844 Q81.3875,402.0469 82.7313,402.0469 Q83.3563,402.0469 83.95,401.7813 Q84.5438,401.5 85.1688,400.9219 L85.1688,403.6406 Z " fill="#FFFFFF"/><text fill="#FFFFFF" font-family="sans-serif" font-size="14" lengthAdjust="spacing" textLength="53.2861" x="96.2" y="402.8467">Analisis</text><line style="stroke:#E7E7E7;stroke-width:0.5;" x1="68.2" x2="151.4861" y1="414" y2="414"/><line style="stroke:#E7E7E7;stroke-width:0.5;" x1="68.2" x2="151.4861" y1="422" y2="422"/></g><!--class Decision--><g id="elem_Decision"><rect codeLine="5" fill="#313139" height="48" id="Decision" rx="2.5" ry="2.5" style="stroke:#E7E7E7;stroke-width:0.5;" width="91.6025" x="151.04" y="507"/><ellipse cx="166.04" cy="523" fill="#2E5233" rx="11" ry="11" style="stroke:#E7E7E7;stroke-width:1.0;"/><path d="M169.0088,528.6406 Q168.4306,528.9375 167.79,529.0781 Q167.1494,529.2344 166.4463,529.2344 Q163.9463,529.2344 162.6181,527.5938 Q161.3056,525.9375 161.3056,522.8125 Q161.3056,519.6875 162.6181,518.0313 Q163.9463,516.375 166.4463,516.375 Q167.1494,516.375 167.79,516.5313 Q168.4463,516.6875 169.0088,516.9844 L169.0088,519.7031 Q168.3838,519.125 167.79,518.8594 Q167.1963,518.5781 166.5713,518.5781 Q165.2275,518.5781 164.54,519.6563 Q163.8525,520.7188 163.8525,522.8125 Q163.8525,524.9063 164.54,525.9844 Q165.2275,527.0469 166.5713,527.0469 Q167.1963,527.0469 167.79,526.7813 Q168.3838,526.5 169.0088,525.9219 L169.0088,528.6406 Z " fill="#FFFFFF"/><text fill="#FFFFFF" font-family="sans-serif" font-size="14" lengthAdjust="spacing" textLength="59.6025" x="180.04" y="527.8467">Decision</text><line style="stroke:#E7E7E7;stroke-width:0.5;" x1="152.04" x2="241.6425" y1="539" y2="539"/><line style="stroke:#E7E7E7;stroke-width:0.5;" x1="152.04" x2="241.6425" y1="547" y2="547"/></g><!--link Decisor to Conflicto--><g id="link_Decisor_Conflicto"><path codeLine="7" d="M217.58,55.46 C211.83,64.57 205.35,75.16 199.84,85 C191.28,100.29 182.46,117.95 175.82,131.7 " fill="none" id="Decisor-Conflicto" style="stroke:#E7E7E7;stroke-width:1.0;"/><text fill="#FFFFFF" font-family="sans-serif" font-size="13" lengthAdjust="spacing" textLength="55.4595" x="200.84" y="98.0669">enfrenta</text></g><!--link Conflicto to Idea--><g id="link_Conflicto_Idea"><path codeLine="8" d="M154.37,180.42 C144.58,202.31 132.4982,229.3222 122.7282,251.1822 " fill="none" id="Conflicto-to-Idea" style="stroke:#E7E7E7;stroke-width:1.0;"/><polygon fill="#E7E7E7" points="120.28,256.66,127.6042,250.0755,122.3202,252.0952,120.3005,246.8112,120.28,256.66" style="stroke:#E7E7E7;stroke-width:1.0;"/><text fill="#FFFFFF" font-family="sans-serif" font-size="13" lengthAdjust="spacing" textLength="40.8662" x="141.84" y="223.0669">deriva</text></g><!--link Idea to Analisis--><g id="link_Idea_Analisis"><path codeLine="9" d="M78.38,291.62 C47.13,302.98 6,323.96 21.84,352 C31.67,369.39 44.3412,379.0921 61.5612,387.4421 " fill="none" id="Idea-to-Analisis" style="stroke:#E7E7E7;stroke-width:1.0;"/><polygon fill="#E7E7E7" points="66.96,390.06,60.6071,382.534,62.461,387.8784,57.1166,389.7324,66.96,390.06" style="stroke:#E7E7E7;stroke-width:1.0;"/><text fill="#FFFFFF" font-family="sans-serif" font-size="13" lengthAdjust="spacing" textLength="43.4751" x="22.84" y="348.0669">eval&#250;a</text></g><!--link Analisis to Idea--><g id="link_Analisis_Idea"><path codeLine="10" d="M108.01,381.67 C107.15,368.06 106.4,350.56 106.84,335 C107.12,325.33 107.3055,320.6589 107.8655,311.4589 " fill="none" id="Analisis-to-Idea" style="stroke:#E7E7E7;stroke-width:1.0;"/><polygon fill="#E7E7E7" points="108.23,305.47,103.6906,314.2103,107.9262,310.4608,111.6758,314.6964,108.23,305.47" style="stroke:#E7E7E7;stroke-width:1.0;"/><text fill="#FFFFFF" font-family="sans-serif" font-size="13" lengthAdjust="spacing" textLength="148.4653" x="107.84" y="348.0669">rechaza si no es v&#225;lida</text></g><!--link Analisis to Decision--><g id="link_Analisis_Decision"><path codeLine="11" d="M114.45,430.19 C118.08,444.56 124.18,462.91 133.84,477 C141.44,488.08 151.95,498.17 162.21,506.5 " fill="none" id="Analisis-Decision" style="stroke:#E7E7E7;stroke-width:1.0;"/><text fill="#FFFFFF" font-family="sans-serif" font-size="13" lengthAdjust="spacing" textLength="121.0815" x="134.84" y="473.0669">acepta si es v&#225;lida</text></g><!--link Decision to Decisor--><g id="link_Decision_Decisor"><path codeLine="12" d="M232.2,506.71 C242.64,498.39 253.28,488.25 260.84,477 C279.04,449.93 282.84,439.61 282.84,407 C282.84,155 282.84,155 282.84,155 C282.84,118.12 266.4428,84.4072 251.7928,60.4772 " fill="none" id="Decision-to-Decisor" style="stroke:#E7E7E7;stroke-width:1.0;stroke-dasharray:7.0,7.0;"/><polygon fill="#E7E7E7" points="248.66,55.36,249.9477,65.1243,251.2706,59.6243,256.7706,60.9473,248.66,55.36" style="stroke:#E7E7E7;stroke-width:1.0;"/><text fill="#FFFFFF" font-family="sans-serif" font-size="13" lengthAdjust="spacing" textLength="52.7046" x="283.84" y="285.5669">impacta</text></g><!--SRC=[LO_13SCW34NlJE45o00zHAhQIyUm74UrH272Y4EtwHgzPh4IH4Xwy_z-_yicXwfmPn8DqL1Lj-1d9vH2qu-9iOrNZqvKjCcQa-2DQGrWxH672x2V8_k4vZ2j7MjZsKuS9QEfQhFtzYsOqQrVDDqwnIBJ4zy8Ak03i49UFqwcFxYVLdWaNbB5JspV3yEu_rzOUIr82Ny0]--></g></svg>