<svg xmlns="http://www.w3.org/2000/svg" xmlns:xlink="http://www.w3.org/1999/xlink" contentStyleType="text/css" height="562px" preserveAspectRatio="none" style="width:329px;height:562px;background:#1B1B1B;" version="1.1" viewBox="0 0 329 562" width="329px" zoomAndPan="magnify"><defs/><g><rect fill="#1B1B1B" height="562" style="stroke:none;stroke-width:1.0;" width="329" x="0" y="0"/><!--class Persona--><g id="elem_Persona"><rect fill="#313139" height="48" id="Persona" rx="2.5" ry="2.5" style="stroke:#E7E7E7;stroke-width:0.5;" width="88.123" x="188.34" y="7"/><ellipse cx="203.34" cy="23" fill="#2E5233" rx="11" ry="11" style="stroke:#E7E7E7;stroke-width:1.0;"/><path d="M206.3088,28.6406 Q205.7306,28.9375 205.09,29.0781 Q204.4494,29.2344 203.7463,29.2344 Q201.2463,29.2344 199.9181,27.5938 Q198.6056,25.9375 198.6056,22.8125 Q198.6056,19.6875 199.9181,18.0313 Q201.2463,16.375 203.7463,16.375 Q204.4494,16.375 205.09,16.5313 Q205.7463,16.6875 206.3088,16.9844 L206.3088,19.7031 Q205.6838,19.125 205.09,18.8594 Q204.4963,18.5781 203.8713,18.5781 Q202.5275,18.5781 201.84,19.6563 Q201.1525,20.7188 201.1525,22.8125 Q201.1525,24.9063 201.84,25.9844 Q202.5275,27.0469 203.8713,27.0469 Q204.4963,27.0469 205.09,26.7813 Q205.6838,26.5 206.3088,25.9219 L206.3088,28.6406 Z " fill="#FFFFFF"/><text fill="#FFFFFF" font-family="sans-serif" font-size="14" lengthAdjust="spacing" textLength="56.123" x="217.34" y="27.8467">Persona</text><line style="stroke:#E7E7E7;stroke-width:0.5;" x1="189.34" x2="275.463" y1="39" y2="39"/><line style="stroke:#E7E7E7;stroke-width:0.5;" x1="189.34" x2="275.463" y1="47" y2="47"/></g><!--class Dilema--><g id="elem_Dilema"><rect fill="#313139" height="48" id="Dilema" rx="2.5" ry="2.5" style="stroke:#E7E7E7;stroke-width:0.5;" width="81.3896" x="123.71" y="132"/><ellipse cx="138.71" cy="148" fill="#2E5233" rx="11" ry="11" style="stroke:#E7E7E7;stroke-width:1.0;"/><path d="M141.6788,153.6406 Q141.1006,153.9375 140.46,154.0781 Q139.8194,154.2344 139.1163,154.2344 Q136.6163,154.2344 135.2881,152.5938 Q133.9756,150.9375 133.9756,147.8125 Q133.9756,144.6875 135.2881,143.0313 Q136.6163,141.375 139.1163,141.375 Q139.8194,141.375 140.46,141.5313 Q141.1163,141.6875 141.6788,141.9844 L141.6788,144.7031 Q141.0538,144.125 140.46,143.8594 Q139.8663,143.5781 139.2413,143.5781 Q137.8975,143.5781 137.21,144.6563 Q136.5225,145.7188 136.5225,147.8125 Q136.5225,149.9063 137.21,150.9844 Q137.8975,152.0469 139.2413,152.0469 Q139.8663,152.0469 140.46,151.7813 Q141.0538,151.5 141.6788,150.9219 L141.6788,153.6406 Z " fill="#FFFFFF"/><text fill="#FFFFFF" font-family="sans-serif" font-size="14" lengthAdjust="spacing" textLength="49.3896" x="152.71" y="152.8467">Dilema</text><line style="stroke:#E7E7E7;stroke-width:0.5;" x1="124.71" x2="204.0996" y1="164" y2="164"/><line style="stroke:#E7E7E7;stroke-width:0.5;" x1="124.71" x2="204.0996" y1="172" y2="172"/></g><!--class IdeaSolucion--><g id="elem_IdeaSolucion"><rect fill="#313139" height="48" id="IdeaSolucion" rx="2.5" ry="2.5" style="stroke:#E7E7E7;stroke-width:0.5;" width="121.4482" x="39.68" y="257"/><ellipse cx="54.68" cy="273" fill="#2E5233" rx="11" ry="11" style="stroke:#E7E7E7;stroke-width:1.0;"/><path d="M57.6488,278.6406 Q57.0706,278.9375 56.43,279.0781 Q55.7894,279.2344 55.0863,279.2344 Q52.5863,279.2344 51.2581,277.5938 Q49.9456,275.9375 49.9456,272.8125 Q49.9456,269.6875 51.2581,268.0313 Q52.5863,266.375 55.0863,266.375 Q55.7894,266.375 56.43,266.5313 Q57.0863,266.6875 57.6488,266.9844 L57.6488,269.7031 Q57.0238,269.125 56.43,268.8594 Q55.8363,268.5781 55.2113,268.5781 Q53.8675,268.5781 53.18,269.6563 Q52.4925,270.7188 52.4925,272.8125 Q52.4925,274.9063 53.18,275.9844 Q53.8675,277.0469 55.2113,277.0469 Q55.8363,277.0469 56.43,276.7813 Q57.0238,276.5 57.6488,275.9219 L57.6488,278.6406 Z " fill="#FFFFFF"/><text fill="#FFFFFF" font-family="sans-serif" font-size="14" lengthAdjust="spacing" textLength="89.4482" x="68.68" y="277.8467">IdeaSolucion</text><line style="stroke:#E7E7E7;stroke-width:0.5;" x1="40.68" x2="160.1282" y1="289" y2="289"/><line style="stroke:#E7E7E7;stroke-width:0.5;" x1="40.68" x2="160.1282" y1="297" y2="297"/></g><!--class AnalisisSolucion--><g id="elem_AnalisisSolucion"><rect fill="#313139" height="48" id="AnalisisSolucion" rx="2.5" ry="2.5" style="stroke:#E7E7E7;stroke-width:0.5;" width="144.5264" x="28.14" y="382"/><ellipse cx="43.14" cy="398" fill="#2E5233" rx="11" ry="11" style="stroke:#E7E7E7;stroke-width:1.0;"/><path d="M46.1088,403.6406 Q45.5306,403.9375 44.89,404.0781 Q44.2494,404.2344 43.5463,404.2344 Q41.0463,404.2344 39.7181,402.5938 Q38.4056,400.9375 38.4056,397.8125 Q38.4056,394.6875 39.7181,393.0313 Q41.0463,391.375 43.5463,391.375 Q44.2494,391.375 44.89,391.5313 Q45.5463,391.6875 46.1088,391.9844 L46.1088,394.7031 Q45.4838,394.125 44.89,393.8594 Q44.2963,393.5781 43.6713,393.5781 Q42.3275,393.5781 41.64,394.6563 Q40.9525,395.7188 40.9525,397.8125 Q40.9525,399.9063 41.64,400.9844 Q42.3275,402.0469 43.6713,402.0469 Q44.2963,402.0469 44.89,401.7813 Q45.4838,401.5 46.1088,400.9219 L46.1088,403.6406 Z " fill="#FFFFFF"/><text fill="#FFFFFF" font-family="sans-serif" font-size="14" lengthAdjust="spacing" textLength="112.5264" x="57.14" y="402.8467">AnalisisSolucion</text><line style="stroke:#E7E7E7;stroke-width:0.5;" x1="29.14" x2="171.6664" y1="414" y2="414"/><line style="stroke:#E7E7E7;stroke-width:0.5;" x1="29.14" x2="171.6664" y1="422" y2="422"/></g><!--class Eleccion--><g id="elem_Eleccion"><rect fill="#313139" height="48" id="Eleccion" rx="2.5" ry="2.5" style="stroke:#E7E7E7;stroke-width:0.5;" width="90.0713" x="145.37" y="507"/><ellipse cx="160.37" cy="523" fill="#2E5233" rx="11" ry="11" style="stroke:#E7E7E7;stroke-width:1.0;"/><path d="M163.3388,528.6406 Q162.7606,528.9375 162.12,529.0781 Q161.4794,529.2344 160.7763,529.2344 Q158.2763,529.2344 156.9481,527.5938 Q155.6356,525.9375 155.6356,522.8125 Q155.6356,519.6875 156.9481,518.0313 Q158.2763,516.375 160.7763,516.375 Q161.4794,516.375 162.12,516.5313 Q162.7763,516.6875 163.3388,516.9844 L163.3388,519.7031 Q162.7138,519.125 162.12,518.8594 Q161.5263,518.5781 160.9013,518.5781 Q159.5575,518.5781 158.87,519.6563 Q158.1825,520.7188 158.1825,522.8125 Q158.1825,524.9063 158.87,525.9844 Q159.5575,527.0469 160.9013,527.0469 Q161.5263,527.0469 162.12,526.7813 Q162.7138,526.5 163.3388,525.9219 L163.3388,528.6406 Z " fill="#FFFFFF"/><text fill="#FFFFFF" font-family="sans-serif" font-size="14" lengthAdjust="spacing" textLength="58.0713" x="174.37" y="527.8467">Eleccion</text><line style="stroke:#E7E7E7;stroke-width:0.5;" x1="146.37" x2="234.4413" y1="539" y2="539"/><line style="stroke:#E7E7E7;stroke-width:0.5;" x1="146.37" x2="234.4413" y1="547" y2="547"/></g><!--link Persona to Dilema--><g id="link_Persona_Dilema"><path codeLine="1" d="M215.22,55.47 C208.95,64.49 202.02,75.02 196.4,85 C187.95,100.02 179.89,117.68 173.97,131.5 " fill="none" id="Persona-Dilema" style="stroke:#E7E7E7;stroke-width:1.0;"/><text fill="#FFFFFF" font-family="sans-serif" font-size="13" lengthAdjust="spacing" textLength="55.4595" x="197.4" y="98.0669">enfrenta</text></g><!--link Dilema to IdeaSolucion--><g id="link_Dilema_IdeaSolucion"><path codeLine="2" d="M152.22,180.42 C140.83,202.31 126.6887,229.477 115.3187,251.337 " fill="none" id="Dilema-to-IdeaSolucion" style="stroke:#E7E7E7;stroke-width:1.0;"/><polygon fill="#E7E7E7" points="112.55,256.66,120.2517,250.5212,114.8572,252.2241,113.1543,246.8297,112.55,256.66" style="stroke:#E7E7E7;stroke-width:1.0;"/><text fill="#FFFFFF" font-family="sans-serif" font-size="13" lengthAdjust="spacing" textLength="45.7983" x="137.4" y="223.0669">genera</text></g><!--link IdeaSolucion to AnalisisSolucion--><g id="link_IdeaSolucion_AnalisisSolucion"><path codeLine="3" d="M45.77,305.29 C34.03,312.97 23.15,322.77 16.4,335 C6,353.87 16.1494,366.7333 36.4494,378.5933 " fill="none" id="IdeaSolucion-to-AnalisisSolucion" style="stroke:#E7E7E7;stroke-width:1.0;"/><polygon fill="#E7E7E7" points="41.63,381.62,35.8769,373.6262,37.3128,379.0977,31.8412,380.5337,41.63,381.62" style="stroke:#E7E7E7;stroke-width:1.0;"/><text fill="#FFFFFF" font-family="sans-serif" font-size="13" lengthAdjust="spacing" textLength="39.3872" x="17.4" y="348.0669">revisa</text></g><!--link AnalisisSolucion to IdeaSolucion--><g id="link_AnalisisSolucion_IdeaSolucion"><path codeLine="4" d="M98.57,381.67 C97.71,368.06 96.96,350.56 97.4,335 C97.68,325.33 97.8655,320.6589 98.4255,311.4589 " fill="none" id="AnalisisSolucion-to-IdeaSolucion" style="stroke:#E7E7E7;stroke-width:1.0;"/><polygon fill="#E7E7E7" points="98.79,305.47,94.2506,314.2103,98.4862,310.4608,102.2358,314.6964,98.79,305.47" style="stroke:#E7E7E7;stroke-width:1.0;"/><text fill="#FFFFFF" font-family="sans-serif" font-size="13" lengthAdjust="spacing" textLength="154.8892" x="98.4" y="348.0669">rechaza si es incorrecta</text></g><!--link AnalisisSolucion to Eleccion--><g id="link_AnalisisSolucion_Eleccion"><path codeLine="5" d="M101.58,430.39 C103.26,444.84 107.22,463.2 116.4,477 C124.19,488.71 135.51,498.68 146.96,506.71 " fill="none" id="AnalisisSolucion-Eleccion" style="stroke:#E7E7E7;stroke-width:1.0;"/><text fill="#FFFFFF" font-family="sans-serif" font-size="13" lengthAdjust="spacing" textLength="135.9795" x="117.4" y="473.0669">acepta si es correcta</text></g><!--link Eleccion to Persona--><g id="link_Eleccion_Persona"><path codeLine="6" d="M227.79,506.72 C238.6,498.46 249.58,488.36 257.4,477 C275.9,450.14 279.4,439.61 279.4,407 C279.4,155 279.4,155 279.4,155 C279.4,118.42 261.04,79.52 247.27,55.49 " fill="none" id="Eleccion-Persona" style="stroke:#E7E7E7;stroke-width:1.0;stroke-dasharray:7.0,7.0;"/><text fill="#FFFFFF" font-family="sans-serif" font-size="13" lengthAdjust="spacing" textLength="40.752" x="280.4" y="285.5669">afecta</text></g><!--SRC=[ROz12W8n34NtFKKkq3c02q7GXRi1Jn3g7mtKL9BgmjFRWJeeplRzzm8POLwKAKRQIyQDQKFGoQ2LGoSnRkbu1fzAVYGfsfGB5CRXXyxQJZcBYt-fXgSuXxzbvQeXNVd5v49m4at56gghCHqoKkyuuLu_sH8jmZ3GsDzixZIFRm00]--></g></svg>