<svg xmlns="http://www.w3.org/2000/svg" xmlns:xlink="http://www.w3.org/1999/xlink" contentStyleType="text/css" height="671px" preserveAspectRatio="none" style="width:740px;height:671px;background:#FFFFFF;" version="1.1" viewBox="0 0 740 671" width="740px" zoomAndPan="magnify"><defs/><g><!--class Decisi?n--><g id="elem_Decisi&#243;n"><rect codeLine="1" fill="#F1F1F1" height="48" id="Decisi&#243;n" rx="2.5" ry="2.5" style="stroke:#181818;stroke-width:0.5;" width="91.6025" x="334.94" y="116"/><ellipse cx="349.94" cy="132" fill="#ADD1B2" rx="11" ry="11" style="stroke:#181818;stroke-width:1.0;"/><path d="M352.9088,137.6406 Q352.3306,137.9375 351.69,138.0781 Q351.0494,138.2344 350.3463,138.2344 Q347.8463,138.2344 346.5181,136.5938 Q345.2056,134.9375 345.2056,131.8125 Q345.2056,128.6875 346.5181,127.0313 Q347.8463,125.375 350.3463,125.375 Q351.0494,125.375 351.69,125.5313 Q352.3463,125.6875 352.9088,125.9844 L352.9088,128.7031 Q352.2838,128.125 351.69,127.8594 Q351.0963,127.5781 350.4713,127.5781 Q349.1275,127.5781 348.44,128.6563 Q347.7525,129.7188 347.7525,131.8125 Q347.7525,133.9063 348.44,134.9844 Q349.1275,136.0469 350.4713,136.0469 Q351.0963,136.0469 351.69,135.7813 Q352.2838,135.5 352.9088,134.9219 L352.9088,137.6406 Z " fill="#000000"/><text fill="#000000" font-family="sans-serif" font-size="14" lengthAdjust="spacing" textLength="59.6025" x="363.94" y="136.8467">Decisi&#243;n</text><line style="stroke:#181818;stroke-width:0.5;" x1="335.94" x2="425.5425" y1="148" y2="148"/><line style="stroke:#181818;stroke-width:0.5;" x1="335.94" x2="425.5425" y1="156" y2="156"/></g><!--class Alternativa--><g id="elem_Alternativa"><rect codeLine="2" fill="#F1F1F1" height="48" id="Alternativa" rx="2.5" ry="2.5" style="stroke:#181818;stroke-width:0.5;" width="109.0205" x="107.24" y="241"/><ellipse cx="122.24" cy="257" fill="#ADD1B2" rx="11" ry="11" style="stroke:#181818;stroke-width:1.0;"/><path d="M125.2088,262.6406 Q124.6306,262.9375 123.99,263.0781 Q123.3494,263.2344 122.6463,263.2344 Q120.1463,263.2344 118.8181,261.5938 Q117.5056,259.9375 117.5056,256.8125 Q117.5056,253.6875 118.8181,252.0313 Q120.1463,250.375 122.6463,250.375 Q123.3494,250.375 123.99,250.5313 Q124.6463,250.6875 125.2088,250.9844 L125.2088,253.7031 Q124.5838,253.125 123.99,252.8594 Q123.3963,252.5781 122.7713,252.5781 Q121.4275,252.5781 120.74,253.6563 Q120.0525,254.7188 120.0525,256.8125 Q120.0525,258.9063 120.74,259.9844 Q121.4275,261.0469 122.7713,261.0469 Q123.3963,261.0469 123.99,260.7813 Q124.5838,260.5 125.2088,259.9219 L125.2088,262.6406 Z " fill="#000000"/><text fill="#000000" font-family="sans-serif" font-size="14" lengthAdjust="spacing" textLength="77.0205" x="136.24" y="261.8467">Alternativa</text><line style="stroke:#181818;stroke-width:0.5;" x1="108.24" x2="215.2605" y1="273" y2="273"/><line style="stroke:#181818;stroke-width:0.5;" x1="108.24" x2="215.2605" y1="281" y2="281"/></g><!--class Criterio--><g id="elem_Criterio"><rect codeLine="3" fill="#F1F1F1" height="48" id="Criterio" rx="2.5" ry="2.5" style="stroke:#181818;stroke-width:0.5;" width="83.7344" x="149.88" y="491"/><ellipse cx="164.88" cy="507" fill="#ADD1B2" rx="11" ry="11" style="stroke:#181818;stroke-width:1.0;"/><path d="M167.8488,512.6406 Q167.2706,512.9375 166.63,513.0781 Q165.9894,513.2344 165.2863,513.2344 Q162.7863,513.2344 161.4581,511.5938 Q160.1456,509.9375 160.1456,506.8125 Q160.1456,503.6875 161.4581,502.0313 Q162.7863,500.375 165.2863,500.375 Q165.9894,500.375 166.63,500.5313 Q167.2863,500.6875 167.8488,500.9844 L167.8488,503.7031 Q167.2238,503.125 166.63,502.8594 Q166.0363,502.5781 165.4113,502.5781 Q164.0675,502.5781 163.38,503.6563 Q162.6925,504.7188 162.6925,506.8125 Q162.6925,508.9063 163.38,509.9844 Q164.0675,511.0469 165.4113,511.0469 Q166.0363,511.0469 166.63,510.7813 Q167.2238,510.5 167.8488,509.9219 L167.8488,512.6406 Z " fill="#000000"/><text fill="#000000" font-family="sans-serif" font-size="14" lengthAdjust="spacing" textLength="51.7344" x="178.88" y="511.8467">Criterio</text><line style="stroke:#181818;stroke-width:0.5;" x1="150.88" x2="232.6144" y1="523" y2="523"/><line style="stroke:#181818;stroke-width:0.5;" x1="150.88" x2="232.6144" y1="531" y2="531"/></g><!--class Informaci?n--><g id="elem_Informaci&#243;n"><rect codeLine="4" fill="#F1F1F1" height="48" id="Informaci&#243;n" rx="2.5" ry="2.5" style="stroke:#181818;stroke-width:0.5;" width="115.4941" x="323" y="241"/><ellipse cx="338" cy="257" fill="#ADD1B2" rx="11" ry="11" style="stroke:#181818;stroke-width:1.0;"/><path d="M340.9688,262.6406 Q340.3906,262.9375 339.75,263.0781 Q339.1094,263.2344 338.4063,263.2344 Q335.9063,263.2344 334.5781,261.5938 Q333.2656,259.9375 333.2656,256.8125 Q333.2656,253.6875 334.5781,252.0313 Q335.9063,250.375 338.4063,250.375 Q339.1094,250.375 339.75,250.5313 Q340.4063,250.6875 340.9688,250.9844 L340.9688,253.7031 Q340.3438,253.125 339.75,252.8594 Q339.1563,252.5781 338.5313,252.5781 Q337.1875,252.5781 336.5,253.6563 Q335.8125,254.7188 335.8125,256.8125 Q335.8125,258.9063 336.5,259.9844 Q337.1875,261.0469 338.5313,261.0469 Q339.1563,261.0469 339.75,260.7813 Q340.3438,260.5 340.9688,259.9219 L340.9688,262.6406 Z " fill="#000000"/><text fill="#000000" font-family="sans-serif" font-size="14" lengthAdjust="spacing" textLength="83.4941" x="352" y="261.8467">Informaci&#243;n</text><line style="stroke:#181818;stroke-width:0.5;" x1="324" x2="437.4941" y1="273" y2="273"/><line style="stroke:#181818;stroke-width:0.5;" x1="324" x2="437.4941" y1="281" y2="281"/></g><!--class Persona--><g id="elem_Persona"><rect codeLine="5" fill="#F1F1F1" height="48" id="Persona" rx="2.5" ry="2.5" style="stroke:#181818;stroke-width:0.5;" width="88.123" x="336.68" y="7"/><ellipse cx="351.68" cy="23" fill="#ADD1B2" rx="11" ry="11" style="stroke:#181818;stroke-width:1.0;"/><path d="M354.6488,28.6406 Q354.0706,28.9375 353.43,29.0781 Q352.7894,29.2344 352.0863,29.2344 Q349.5863,29.2344 348.2581,27.5938 Q346.9456,25.9375 346.9456,22.8125 Q346.9456,19.6875 348.2581,18.0313 Q349.5863,16.375 352.0863,16.375 Q352.7894,16.375 353.43,16.5313 Q354.0863,16.6875 354.6488,16.9844 L354.6488,19.7031 Q354.0238,19.125 353.43,18.8594 Q352.8363,18.5781 352.2113,18.5781 Q350.8675,18.5781 350.18,19.6563 Q349.4925,20.7188 349.4925,22.8125 Q349.4925,24.9063 350.18,25.9844 Q350.8675,27.0469 352.2113,27.0469 Q352.8363,27.0469 353.43,26.7813 Q354.0238,26.5 354.6488,25.9219 L354.6488,28.6406 Z " fill="#000000"/><text fill="#000000" font-family="sans-serif" font-size="14" lengthAdjust="spacing" textLength="56.123" x="365.68" y="27.8467">Persona</text><line style="stroke:#181818;stroke-width:0.5;" x1="337.68" x2="423.803" y1="39" y2="39"/><line style="stroke:#181818;stroke-width:0.5;" x1="337.68" x2="423.803" y1="47" y2="47"/></g><!--class Consecuencia--><g id="elem_Consecuencia"><rect codeLine="6" fill="#F1F1F1" height="48" id="Consecuencia" rx="2.5" ry="2.5" style="stroke:#181818;stroke-width:0.5;" width="129.3438" x="473.07" y="241"/><ellipse cx="488.07" cy="257" fill="#ADD1B2" rx="11" ry="11" style="stroke:#181818;stroke-width:1.0;"/><path d="M491.0388,262.6406 Q490.4606,262.9375 489.82,263.0781 Q489.1794,263.2344 488.4763,263.2344 Q485.9763,263.2344 484.6481,261.5938 Q483.3356,259.9375 483.3356,256.8125 Q483.3356,253.6875 484.6481,252.0313 Q485.9763,250.375 488.4763,250.375 Q489.1794,250.375 489.82,250.5313 Q490.4763,250.6875 491.0388,250.9844 L491.0388,253.7031 Q490.4138,253.125 489.82,252.8594 Q489.2263,252.5781 488.6013,252.5781 Q487.2575,252.5781 486.57,253.6563 Q485.8825,254.7188 485.8825,256.8125 Q485.8825,258.9063 486.57,259.9844 Q487.2575,261.0469 488.6013,261.0469 Q489.2263,261.0469 489.82,260.7813 Q490.4138,260.5 491.0388,259.9219 L491.0388,262.6406 Z " fill="#000000"/><text fill="#000000" font-family="sans-serif" font-size="14" lengthAdjust="spacing" textLength="97.3438" x="502.07" y="261.8467">Consecuencia</text><line style="stroke:#181818;stroke-width:0.5;" x1="474.07" x2="601.4137" y1="273" y2="273"/><line style="stroke:#181818;stroke-width:0.5;" x1="474.07" x2="601.4137" y1="281" y2="281"/></g><!--class Objetivo--><g id="elem_Objetivo"><rect codeLine="7" fill="#F1F1F1" height="48" id="Objetivo" rx="2.5" ry="2.5" style="stroke:#181818;stroke-width:0.5;" width="90.6387" x="156.43" y="616"/><ellipse cx="171.43" cy="632" fill="#ADD1B2" rx="11" ry="11" style="stroke:#181818;stroke-width:1.0;"/><path d="M174.3988,637.6406 Q173.8206,637.9375 173.18,638.0781 Q172.5394,638.2344 171.8363,638.2344 Q169.3363,638.2344 168.0081,636.5938 Q166.6956,634.9375 166.6956,631.8125 Q166.6956,628.6875 168.0081,627.0313 Q169.3363,625.375 171.8363,625.375 Q172.5394,625.375 173.18,625.5313 Q173.8363,625.6875 174.3988,625.9844 L174.3988,628.7031 Q173.7738,628.125 173.18,627.8594 Q172.5863,627.5781 171.9613,627.5781 Q170.6175,627.5781 169.93,628.6563 Q169.2425,629.7188 169.2425,631.8125 Q169.2425,633.9063 169.93,634.9844 Q170.6175,636.0469 171.9613,636.0469 Q172.5863,636.0469 173.18,635.7813 Q173.7738,635.5 174.3988,634.9219 L174.3988,637.6406 Z " fill="#000000"/><text fill="#000000" font-family="sans-serif" font-size="14" lengthAdjust="spacing" textLength="58.6387" x="185.43" y="636.8467">Objetivo</text><line style="stroke:#181818;stroke-width:0.5;" x1="157.43" x2="246.0687" y1="648" y2="648"/><line style="stroke:#181818;stroke-width:0.5;" x1="157.43" x2="246.0687" y1="656" y2="656"/></g><!--class Contexto--><g id="elem_Contexto"><rect codeLine="8" fill="#F1F1F1" height="48" id="Contexto" rx="2.5" ry="2.5" style="stroke:#181818;stroke-width:0.5;" width="95.6563" x="637.92" y="241"/><ellipse cx="652.92" cy="257" fill="#ADD1B2" rx="11" ry="11" style="stroke:#181818;stroke-width:1.0;"/><path d="M655.8888,262.6406 Q655.3106,262.9375 654.67,263.0781 Q654.0294,263.2344 653.3263,263.2344 Q650.8263,263.2344 649.4981,261.5938 Q648.1856,259.9375 648.1856,256.8125 Q648.1856,253.6875 649.4981,252.0313 Q650.8263,250.375 653.3263,250.375 Q654.0294,250.375 654.67,250.5313 Q655.3263,250.6875 655.8888,250.9844 L655.8888,253.7031 Q655.2638,253.125 654.67,252.8594 Q654.0763,252.5781 653.4513,252.5781 Q652.1075,252.5781 651.42,253.6563 Q650.7325,254.7188 650.7325,256.8125 Q650.7325,258.9063 651.42,259.9844 Q652.1075,261.0469 653.4513,261.0469 Q654.0763,261.0469 654.67,260.7813 Q655.2638,260.5 655.8888,259.9219 L655.8888,262.6406 Z " fill="#000000"/><text fill="#000000" font-family="sans-serif" font-size="14" lengthAdjust="spacing" textLength="63.6563" x="666.92" y="261.8467">Contexto</text><line style="stroke:#181818;stroke-width:0.5;" x1="638.92" x2="732.5763" y1="273" y2="273"/><line style="stroke:#181818;stroke-width:0.5;" x1="638.92" x2="732.5763" y1="281" y2="281"/></g><!--class Restricci?n--><g id="elem_Restricci&#243;n"><rect codeLine="9" fill="#F1F1F1" height="48" id="Restricci&#243;n" rx="2.5" ry="2.5" style="stroke:#181818;stroke-width:0.5;" width="109.4922" x="7" y="616"/><ellipse cx="22" cy="632" fill="#ADD1B2" rx="11" ry="11" style="stroke:#181818;stroke-width:1.0;"/><path d="M24.9688,637.6406 Q24.3906,637.9375 23.75,638.0781 Q23.1094,638.2344 22.4063,638.2344 Q19.9063,638.2344 18.5781,636.5938 Q17.2656,634.9375 17.2656,631.8125 Q17.2656,628.6875 18.5781,627.0313 Q19.9063,625.375 22.4063,625.375 Q23.1094,625.375 23.75,625.5313 Q24.4063,625.6875 24.9688,625.9844 L24.9688,628.7031 Q24.3438,628.125 23.75,627.8594 Q23.1563,627.5781 22.5313,627.5781 Q21.1875,627.5781 20.5,628.6563 Q19.8125,629.7188 19.8125,631.8125 Q19.8125,633.9063 20.5,634.9844 Q21.1875,636.0469 22.5313,636.0469 Q23.1563,636.0469 23.75,635.7813 Q24.3438,635.5 24.9688,634.9219 L24.9688,637.6406 Z " fill="#000000"/><text fill="#000000" font-family="sans-serif" font-size="14" lengthAdjust="spacing" textLength="77.4922" x="36" y="636.8467">Restricci&#243;n</text><line style="stroke:#181818;stroke-width:0.5;" x1="8" x2="115.4922" y1="648" y2="648"/><line style="stroke:#181818;stroke-width:0.5;" x1="8" x2="115.4922" y1="656" y2="656"/></g><!--class Evaluaci?n--><g id="elem_Evaluaci&#243;n"><rect codeLine="10" fill="#F1F1F1" height="48" id="Evaluaci&#243;n" rx="2.5" ry="2.5" style="stroke:#181818;stroke-width:0.5;" width="108.0771" x="108.71" y="366"/><ellipse cx="123.71" cy="382" fill="#ADD1B2" rx="11" ry="11" style="stroke:#181818;stroke-width:1.0;"/><path d="M126.6788,387.6406 Q126.1006,387.9375 125.46,388.0781 Q124.8194,388.2344 124.1163,388.2344 Q121.6163,388.2344 120.2881,386.5938 Q118.9756,384.9375 118.9756,381.8125 Q118.9756,378.6875 120.2881,377.0313 Q121.6163,375.375 124.1163,375.375 Q124.8194,375.375 125.46,375.5313 Q126.1163,375.6875 126.6788,375.9844 L126.6788,378.7031 Q126.0538,378.125 125.46,377.8594 Q124.8663,377.5781 124.2413,377.5781 Q122.8975,377.5781 122.21,378.6563 Q121.5225,379.7188 121.5225,381.8125 Q121.5225,383.9063 122.21,384.9844 Q122.8975,386.0469 124.2413,386.0469 Q124.8663,386.0469 125.46,385.7813 Q126.0538,385.5 126.6788,384.9219 L126.6788,387.6406 Z " fill="#000000"/><text fill="#000000" font-family="sans-serif" font-size="14" lengthAdjust="spacing" textLength="76.0771" x="137.71" y="386.8467">Evaluaci&#243;n</text><line style="stroke:#181818;stroke-width:0.5;" x1="109.71" x2="215.7871" y1="398" y2="398"/><line style="stroke:#181818;stroke-width:0.5;" x1="109.71" x2="215.7871" y1="406" y2="406"/></g><!--link Decisi?n to Alternativa--><g id="link_Decisi&#243;n_Alternativa"><path codeLine="12" d="M334.63,144.43 C294.78,149.55 237.65,162.29 198.75,194 C184.04,205.99 174.44,225.39 168.71,240.73 " fill="none" id="Decisi&#243;n-Alternativa" style="stroke:#181818;stroke-width:1.0;"/><text fill="#000000" font-family="sans-serif" font-size="13" lengthAdjust="spacing" textLength="43.9702" x="199.75" y="207.0669">influye</text></g><!--link Decisi?n to Criterio--><g id="link_Decisi&#243;n_Criterio"><path codeLine="13" d="M360.07,164.26 C343.62,183.69 320.92,212.69 305.75,241 C256.73,332.43 274.61,368.45 227.75,461 C222.62,471.12 215.86,481.59 209.59,490.53 " fill="none" id="Decisi&#243;n-Criterio" style="stroke:#181818;stroke-width:1.0;"/></g><!--link Decisi?n to Informaci?n--><g id="link_Decisi&#243;n_Informaci&#243;n"><path codeLine="14" d="M380.75,164.42 C380.75,186.31 380.75,218.8 380.75,240.66 " fill="none" id="Decisi&#243;n-Informaci&#243;n" style="stroke:#181818;stroke-width:1.0;"/></g><!--link Decisi?n to Consecuencia--><g id="link_Decisi&#243;n_Consecuencia"><path codeLine="15" d="M410.65,164.42 C438.58,186.31 480.06,218.8 507.96,240.66 " fill="none" id="Decisi&#243;n-Consecuencia" style="stroke:#181818;stroke-width:1.0;"/></g><!--link Decisi?n to Contexto--><g id="link_Decisi&#243;n_Contexto"><path codeLine="16" d="M426.74,159.55 C483.57,182.47 579.82,221.28 637.61,244.59 " fill="none" id="Decisi&#243;n-Contexto" style="stroke:#181818;stroke-width:1.0;"/></g><!--link Persona to Decisi?n--><g id="link_Persona_Decisi&#243;n"><path codeLine="17" d="M380.75,55.48 C380.75,73.32 380.75,97.75 380.75,115.57 " fill="none" id="Persona-Decisi&#243;n" style="stroke:#181818;stroke-width:1.0;"/></g><!--link Criterio to Objetivo--><g id="link_Criterio_Objetivo"><path codeLine="18" d="M193.65,539.42 C195.43,561.31 198.07,593.8 199.85,615.66 " fill="none" id="Criterio-Objetivo" style="stroke:#181818;stroke-width:1.0;"/></g><!--link Criterio to Restricci?n--><g id="link_Criterio_Restricci&#243;n"><path codeLine="19" d="M159.27,539.38 C147.68,548.22 134.77,558.65 123.75,569 C108.24,583.56 92.37,601.55 80.57,615.64 " fill="none" id="Criterio-Restricci&#243;n" style="stroke:#181818;stroke-width:1.0;"/><text fill="#000000" font-family="sans-serif" font-size="13" lengthAdjust="spacing" textLength="63.2861" x="124.75" y="582.0669">considera</text></g><!--link Alternativa to Evaluaci?n--><g id="link_Alternativa_Evaluaci&#243;n"><path codeLine="20" d="M161.94,289.42 C162.11,311.31 162.38,343.8 162.56,365.66 " fill="none" id="Alternativa-Evaluaci&#243;n" style="stroke:#181818;stroke-width:1.0;"/><text fill="#000000" font-family="sans-serif" font-size="13" lengthAdjust="spacing" textLength="79.4854" x="163.75" y="332.0669">se somete a</text></g><!--link Evaluaci?n to Criterio--><g id="link_Evaluaci&#243;n_Criterio"><path codeLine="21" d="M168.27,414.42 C173.43,436.31 181.09,468.8 186.24,490.66 " fill="none" id="Evaluaci&#243;n-Criterio" style="stroke:#181818;stroke-width:1.0;"/><text fill="#000000" font-family="sans-serif" font-size="13" lengthAdjust="spacing" textLength="38.9619" x="180.75" y="457.0669">utiliza</text></g><!--link Restricci?n to Alternativa--><g id="link_Restricci&#243;n_Alternativa"><path codeLine="22" d="M60.35,615.81 C58.26,567.57 57.61,453.6 90.75,366 C101.74,336.92 119.3655,313.0285 135.8555,293.9585 " fill="none" id="Restricci&#243;n-to-Alternativa" style="stroke:#181818;stroke-width:1.0;"/><polygon fill="#181818" points="139.78,289.42,130.8676,293.6115,136.5096,293.2021,136.9189,298.8441,139.78,289.42" style="stroke:#181818;stroke-width:1.0;"/><text fill="#000000" font-family="sans-serif" font-size="13" lengthAdjust="spacing" textLength="36.5625" x="70.75" y="457.0669">limita</text></g><!--SRC=[NP113i8W44NtFGLXpmLSc1XruKhZ3H2doHWA2KEDUYsFuCK4fNJeSZwF-V-FiPf8xC0WuUVjElERDpP2S3hYNHTb6p19wCjuSBqFWpRipma2ULTvxmZC2CxW91qlDqWR_Kn4UCHfF0F5W8PltD-r7Oj7LoCAfNW-iH8INM_79yWMgf4RjKdUyZpoykKVjNJCsdoooIUhjICNURKSroGZl4BGikD54iaQPv10a1yWWaWeVsFjCZT6jFXAJEEar7fvA8i3HYs_]--></g></svg>