<svg xmlns="http://www.w3.org/2000/svg" xmlns:xlink="http://www.w3.org/1999/xlink" contentStyleType="text/css" height="437px" preserveAspectRatio="none" style="width:408px;height:437px;background:#FFFFFF;" version="1.1" viewBox="0 0 408 437" width="408px" zoomAndPan="magnify"><defs/><g><!--class Votante--><g id="elem_Votante"><rect codeLine="1" fill="#F1F1F1" height="48" id="Votante" rx="2.5" ry="2.5" style="stroke:#181818;stroke-width:0.5;" width="87.1865" x="314.46" y="132"/><ellipse cx="329.46" cy="148" fill="#ADD1B2" rx="11" ry="11" style="stroke:#181818;stroke-width:1.0;"/><path d="M332.4288,153.6406 Q331.8506,153.9375 331.21,154.0781 Q330.5694,154.2344 329.8663,154.2344 Q327.3663,154.2344 326.0381,152.5938 Q324.7256,150.9375 324.7256,147.8125 Q324.7256,144.6875 326.0381,143.0313 Q327.3663,141.375 329.8663,141.375 Q330.5694,141.375 331.21,141.5313 Q331.8663,141.6875 332.4288,141.9844 L332.4288,144.7031 Q331.8038,144.125 331.21,143.8594 Q330.6163,143.5781 329.9913,143.5781 Q328.6475,143.5781 327.96,144.6563 Q327.2725,145.7188 327.2725,147.8125 Q327.2725,149.9063 327.96,150.9844 Q328.6475,152.0469 329.9913,152.0469 Q330.6163,152.0469 331.21,151.7813 Q331.8038,151.5 332.4288,150.9219 L332.4288,153.6406 Z " fill="#000000"/><text fill="#000000" font-family="sans-serif" font-size="14" lengthAdjust="spacing" textLength="55.1865" x="343.46" y="152.8467">Votante</text><line style="stroke:#181818;stroke-width:0.5;" x1="315.46" x2="400.6465" y1="164" y2="164"/><line style="stroke:#181818;stroke-width:0.5;" x1="315.46" x2="400.6465" y1="172" y2="172"/></g><!--class Postulante--><g id="elem_Postulante"><rect codeLine="4" fill="#F1F1F1" height="48" id="Postulante" rx="2.5" ry="2.5" style="stroke:#181818;stroke-width:0.5;" width="106.1084" x="7" y="382"/><ellipse cx="22" cy="398" fill="#ADD1B2" rx="11" ry="11" style="stroke:#181818;stroke-width:1.0;"/><path d="M24.9688,403.6406 Q24.3906,403.9375 23.75,404.0781 Q23.1094,404.2344 22.4063,404.2344 Q19.9063,404.2344 18.5781,402.5938 Q17.2656,400.9375 17.2656,397.8125 Q17.2656,394.6875 18.5781,393.0313 Q19.9063,391.375 22.4063,391.375 Q23.1094,391.375 23.75,391.5313 Q24.4063,391.6875 24.9688,391.9844 L24.9688,394.7031 Q24.3438,394.125 23.75,393.8594 Q23.1563,393.5781 22.5313,393.5781 Q21.1875,393.5781 20.5,394.6563 Q19.8125,395.7188 19.8125,397.8125 Q19.8125,399.9063 20.5,400.9844 Q21.1875,402.0469 22.5313,402.0469 Q23.1563,402.0469 23.75,401.7813 Q24.3438,401.5 24.9688,400.9219 L24.9688,403.6406 Z " fill="#000000"/><text fill="#000000" font-family="sans-serif" font-size="14" lengthAdjust="spacing" textLength="74.1084" x="36" y="402.8467">Postulante</text><line style="stroke:#181818;stroke-width:0.5;" x1="8" x2="112.1084" y1="414" y2="414"/><line style="stroke:#181818;stroke-width:0.5;" x1="8" x2="112.1084" y1="422" y2="422"/></g><!--class Voto--><g id="elem_Voto"><rect codeLine="7" fill="#F1F1F1" height="48" id="Voto" rx="2.5" ry="2.5" style="stroke:#181818;stroke-width:0.5;" width="64.1973" x="161.96" y="257"/><ellipse cx="176.96" cy="273" fill="#ADD1B2" rx="11" ry="11" style="stroke:#181818;stroke-width:1.0;"/><path d="M179.9288,278.6406 Q179.3506,278.9375 178.71,279.0781 Q178.0694,279.2344 177.3663,279.2344 Q174.8663,279.2344 173.5381,277.5938 Q172.2256,275.9375 172.2256,272.8125 Q172.2256,269.6875 173.5381,268.0313 Q174.8663,266.375 177.3663,266.375 Q178.0694,266.375 178.71,266.5313 Q179.3663,266.6875 179.9288,266.9844 L179.9288,269.7031 Q179.3038,269.125 178.71,268.8594 Q178.1163,268.5781 177.4913,268.5781 Q176.1475,268.5781 175.46,269.6563 Q174.7725,270.7188 174.7725,272.8125 Q174.7725,274.9063 175.46,275.9844 Q176.1475,277.0469 177.4913,277.0469 Q178.1163,277.0469 178.71,276.7813 Q179.3038,276.5 179.9288,275.9219 L179.9288,278.6406 Z " fill="#000000"/><text fill="#000000" font-family="sans-serif" font-size="14" lengthAdjust="spacing" textLength="32.1973" x="190.96" y="277.8467">Voto</text><line style="stroke:#181818;stroke-width:0.5;" x1="162.96" x2="225.1573" y1="289" y2="289"/><line style="stroke:#181818;stroke-width:0.5;" x1="162.96" x2="225.1573" y1="297" y2="297"/></g><!--class Elecci?n--><g id="elem_Elecci&#243;n"><rect codeLine="10" fill="#F1F1F1" height="48" id="Elecci&#243;n" rx="2.5" ry="2.5" style="stroke:#181818;stroke-width:0.5;" width="90.0713" x="15.02" y="7"/><ellipse cx="30.02" cy="23" fill="#ADD1B2" rx="11" ry="11" style="stroke:#181818;stroke-width:1.0;"/><path d="M32.9887,28.6406 Q32.4106,28.9375 31.77,29.0781 Q31.1294,29.2344 30.4263,29.2344 Q27.9263,29.2344 26.5981,27.5938 Q25.2856,25.9375 25.2856,22.8125 Q25.2856,19.6875 26.5981,18.0313 Q27.9263,16.375 30.4263,16.375 Q31.1294,16.375 31.77,16.5313 Q32.4262,16.6875 32.9887,16.9844 L32.9887,19.7031 Q32.3637,19.125 31.77,18.8594 Q31.1763,18.5781 30.5513,18.5781 Q29.2075,18.5781 28.52,19.6563 Q27.8325,20.7188 27.8325,22.8125 Q27.8325,24.9063 28.52,25.9844 Q29.2075,27.0469 30.5513,27.0469 Q31.1763,27.0469 31.77,26.7813 Q32.3637,26.5 32.9887,25.9219 L32.9887,28.6406 Z " fill="#000000"/><text fill="#000000" font-family="sans-serif" font-size="14" lengthAdjust="spacing" textLength="58.0713" x="44.02" y="27.8467">Elecci&#243;n</text><line style="stroke:#181818;stroke-width:0.5;" x1="16.02" x2="104.0913" y1="39" y2="39"/><line style="stroke:#181818;stroke-width:0.5;" x1="16.02" x2="104.0913" y1="47" y2="47"/></g><!--class Urna--><g id="elem_Urna"><rect codeLine="13" fill="#F1F1F1" height="48" id="Urna" rx="2.5" ry="2.5" style="stroke:#181818;stroke-width:0.5;" width="65.4551" x="104.33" y="132"/><ellipse cx="119.33" cy="148" fill="#ADD1B2" rx="11" ry="11" style="stroke:#181818;stroke-width:1.0;"/><path d="M122.2988,153.6406 Q121.7206,153.9375 121.08,154.0781 Q120.4394,154.2344 119.7363,154.2344 Q117.2363,154.2344 115.9081,152.5938 Q114.5956,150.9375 114.5956,147.8125 Q114.5956,144.6875 115.9081,143.0313 Q117.2363,141.375 119.7363,141.375 Q120.4394,141.375 121.08,141.5313 Q121.7363,141.6875 122.2988,141.9844 L122.2988,144.7031 Q121.6738,144.125 121.08,143.8594 Q120.4863,143.5781 119.8613,143.5781 Q118.5175,143.5781 117.83,144.6563 Q117.1425,145.7188 117.1425,147.8125 Q117.1425,149.9063 117.83,150.9844 Q118.5175,152.0469 119.8613,152.0469 Q120.4863,152.0469 121.08,151.7813 Q121.6738,151.5 122.2988,150.9219 L122.2988,153.6406 Z " fill="#000000"/><text fill="#000000" font-family="sans-serif" font-size="14" lengthAdjust="spacing" textLength="33.4551" x="133.33" y="152.8467">Urna</text><line style="stroke:#181818;stroke-width:0.5;" x1="105.33" x2="168.7851" y1="164" y2="164"/><line style="stroke:#181818;stroke-width:0.5;" x1="105.33" x2="168.7851" y1="172" y2="172"/></g><!--class Supervisor--><g id="elem_Supervisor"><rect codeLine="16" fill="#F1F1F1" height="48" id="Supervisor" rx="2.5" ry="2.5" style="stroke:#181818;stroke-width:0.5;" width="106.8057" x="162.65" y="7"/><ellipse cx="177.65" cy="23" fill="#ADD1B2" rx="11" ry="11" style="stroke:#181818;stroke-width:1.0;"/><path d="M180.6188,28.6406 Q180.0406,28.9375 179.4,29.0781 Q178.7594,29.2344 178.0563,29.2344 Q175.5563,29.2344 174.2281,27.5938 Q172.9156,25.9375 172.9156,22.8125 Q172.9156,19.6875 174.2281,18.0313 Q175.5563,16.375 178.0563,16.375 Q178.7594,16.375 179.4,16.5313 Q180.0563,16.6875 180.6188,16.9844 L180.6188,19.7031 Q179.9938,19.125 179.4,18.8594 Q178.8063,18.5781 178.1813,18.5781 Q176.8375,18.5781 176.15,19.6563 Q175.4625,20.7188 175.4625,22.8125 Q175.4625,24.9063 176.15,25.9844 Q176.8375,27.0469 178.1813,27.0469 Q178.8063,27.0469 179.4,26.7813 Q179.9938,26.5 180.6188,25.9219 L180.6188,28.6406 Z " fill="#000000"/><text fill="#000000" font-family="sans-serif" font-size="14" lengthAdjust="spacing" textLength="74.8057" x="191.65" y="27.8467">Supervisor</text><line style="stroke:#181818;stroke-width:0.5;" x1="163.65" x2="268.4557" y1="39" y2="39"/><line style="stroke:#181818;stroke-width:0.5;" x1="163.65" x2="268.4557" y1="47" y2="47"/></g><!--link Votante to Voto--><g id="link_Votante_Voto"><path codeLine="19" d="M327.48,180.46 C309.62,194.11 286.62,211.61 266.05,227 C253.01,236.77 238.55,247.44 226.03,256.63 " fill="none" id="Votante-Voto" style="stroke:#181818;stroke-width:1.0;"/><text fill="#000000" font-family="sans-serif" font-size="13" lengthAdjust="spacing" textLength="37.3687" x="287.05" y="223.0669">emite</text></g><!--link Voto to Postulante--><g id="link_Voto_Postulante"><path codeLine="20" d="M168.53,305.42 C144.69,327.31 109.29,359.8 85.48,381.66 " fill="none" id="Voto-Postulante" style="stroke:#181818;stroke-width:1.0;"/><text fill="#000000" font-family="sans-serif" font-size="13" lengthAdjust="spacing" textLength="48.4326" x="137.05" y="348.0669">es para</text></g><!--link Urna to Voto--><g id="link_Urna_Voto"><path codeLine="21" d="M141.23,180.43 C144.24,194.39 149.03,212.21 156.05,227 C160.96,237.33 167.91,247.76 174.53,256.6 " fill="none" id="Urna-Voto" style="stroke:#181818;stroke-width:1.0;"/><text fill="#000000" font-family="sans-serif" font-size="13" lengthAdjust="spacing" textLength="56.2847" x="157.05" y="223.0669">contiene</text></g><!--link Elecci?n to Urna--><g id="link_Elecci&#243;n_Urna"><path codeLine="22" d="M66.14,55.48 C70.42,69.63 77.02,87.62 86.05,102 C92.78,112.7 101.93,123.06 110.62,131.73 " fill="none" id="Elecci&#243;n-Urna" style="stroke:#181818;stroke-width:1.0;"/><text fill="#000000" font-family="sans-serif" font-size="13" lengthAdjust="spacing" textLength="22.9785" x="87.05" y="98.0669">usa</text></g><!--link Elecci?n to Postulante--><g id="link_Elecci&#243;n_Postulante"><path codeLine="23" d="M60.05,55.33 C60.05,122.32 60.05,314.7 60.05,381.68 " fill="none" id="Elecci&#243;n-Postulante" style="stroke:#181818;stroke-width:1.0;"/><text fill="#000000" font-family="sans-serif" font-size="13" lengthAdjust="spacing" textLength="46.541" x="61.05" y="223.0669">incluye</text></g><!--link Supervisor to Urna--><g id="link_Supervisor_Urna"><path codeLine="24" d="M177.7,55.37 C167.24,63.51 156.92,73.52 150.05,85 C141.62,99.11 138.44,117.45 137.33,131.82 " fill="none" id="Supervisor-Urna" style="stroke:#181818;stroke-width:1.0;"/><text fill="#000000" font-family="sans-serif" font-size="13" lengthAdjust="spacing" textLength="62.6514" x="151.05" y="98.0669">supervisa</text></g><!--link Supervisor to Voto--><g id="link_Supervisor_Voto"><path codeLine="25" d="M219.6,55.45 C224.45,92.41 231.16,166.27 218.05,227 C215.86,237.17 211.55,247.74 207.17,256.73 " fill="none" id="Supervisor-Voto" style="stroke:#181818;stroke-width:1.0;"/><text fill="#000000" font-family="sans-serif" font-size="13" lengthAdjust="spacing" textLength="37.3687" x="227.05" y="160.5669">emite</text></g><!--SRC=[NOv12W8n34NtEKKlC1UOlNj1T1z25e6Q3aqhY7WgZ-35B9sHPcRvt__v-HJHBDnIGIqSNl06e8xEoKgDHzg2oUjJP2BvVjJ3QrRq-b8NpW-nb5Vw_pPDQzyS-2w5eOi6tUjcMLWm8_JISK59Yx0oZ0NDxA4vLCCztpMAKgnF1ZThdDe6yM3xeJy0]--></g></svg>