<svg xmlns="http://www.w3.org/2000/svg" xmlns:xlink="http://www.w3.org/1999/xlink" contentStyleType="text/css" height="488px" preserveAspectRatio="none" style="width:498px;height:488px;background:#FFFFFF;" version="1.1" viewBox="0 0 498 488" width="498px" zoomAndPan="magnify"><defs/><g><g id="elem_Votante"><rect fill="#F1F1F1" height="44.5938" style="stroke:#181818;stroke-width:0.5;" width="112.2695" x="379.38" y="128.59"/><text fill="#000000" font-family="sans-serif" font-size="14" lengthAdjust="spacing" textLength="55.1865" x="407.9215" y="143.5851">Votante</text><line style="stroke:#181818;stroke-width:0.5;" x1="380.38" x2="490.6495" y1="148.8869" y2="148.8869"/><rect fill="none" height="6" style="stroke:#C82930;stroke-width:1.0;" width="6" x="387.38" y="159.5353"/><text fill="#000000" font-family="sans-serif" font-size="14" lengthAdjust="spacing" textLength="86.2695" x="399.38" y="165.882">AlvaroLostal</text></g><g id="elem_Postulante"><rect fill="#F1F1F1" height="109.7813" style="stroke:#181818;stroke-width:0.5;" width="132.0527" x="55.49" y="371.78"/><text fill="#000000" font-family="sans-serif" font-size="14" lengthAdjust="spacing" textLength="74.1084" x="84.4622" y="386.7751">Postulante</text><line style="stroke:#181818;stroke-width:0.5;" x1="56.49" x2="186.5427" y1="392.0769" y2="392.0769"/><rect fill="none" height="6" style="stroke:#C82930;stroke-width:1.0;" width="6" x="63.49" y="402.7253"/><text fill="#000000" font-family="sans-serif" font-size="14" lengthAdjust="spacing" textLength="82.4414" x="75.49" y="409.072">MariodelRio</text><rect fill="none" height="6" style="stroke:#C82930;stroke-width:1.0;" width="6" x="63.49" y="419.0222"/><text fill="#000000" font-family="sans-serif" font-size="14" lengthAdjust="spacing" textLength="86.085" x="75.49" y="425.3689">DiegoGarc&#237;a</text><rect fill="none" height="6" style="stroke:#C82930;stroke-width:1.0;" width="6" x="63.49" y="435.3191"/><text fill="#000000" font-family="sans-serif" font-size="14" lengthAdjust="spacing" textLength="104.4941" x="75.49" y="441.6657">MauraMart&#237;nez</text><rect fill="none" height="6" style="stroke:#C82930;stroke-width:1.0;" width="6" x="63.49" y="451.6159"/><text fill="#000000" font-family="sans-serif" font-size="14" lengthAdjust="spacing" textLength="106.0527" x="75.49" y="457.9626">JavierSalmer&#243;n</text><rect fill="none" height="6" style="stroke:#C82930;stroke-width:1.0;" width="6" x="63.49" y="467.9128"/><text fill="#000000" font-family="sans-serif" font-size="14" lengthAdjust="spacing" textLength="93.1191" x="75.49" y="474.2595">El&#237;asAlcorc&#243;n</text></g><g id="elem_Voto"><rect fill="#F1F1F1" height="44.5938" style="stroke:#181818;stroke-width:0.5;" width="102.8496" x="199.09" y="250.18"/><text fill="#000000" font-family="sans-serif" font-size="14" lengthAdjust="spacing" textLength="32.1973" x="234.4162" y="265.1751">Voto</text><line style="stroke:#181818;stroke-width:0.5;" x1="200.09" x2="300.9396" y1="270.4769" y2="270.4769"/><rect fill="none" height="6" style="stroke:#C82930;stroke-width:1.0;" width="6" x="207.09" y="281.1253"/><text fill="#000000" font-family="sans-serif" font-size="14" lengthAdjust="spacing" textLength="76.8496" x="219.09" y="287.472">VotoAlvaro</text></g><g id="elem_Elecci&#243;n"><rect fill="#F1F1F1" height="44.5938" style="stroke:#181818;stroke-width:0.5;" width="189.0371" x="7" y="7"/><text fill="#000000" font-family="sans-serif" font-size="14" lengthAdjust="spacing" textLength="58.0713" x="72.4829" y="21.9951">Elecci&#243;n</text><line style="stroke:#181818;stroke-width:0.5;" x1="8" x2="195.0371" y1="27.2969" y2="27.2969"/><rect fill="none" height="6" style="stroke:#C82930;stroke-width:1.0;" width="6" x="15" y="37.9453"/><text fill="#000000" font-family="sans-serif" font-size="14" lengthAdjust="spacing" textLength="163.0371" x="27" y="44.292">EleccionDelegadoClase</text></g><g id="elem_Urna"><rect fill="#F1F1F1" height="44.5938" style="stroke:#181818;stroke-width:0.5;" width="90.374" x="145.33" y="128.59"/><text fill="#000000" font-family="sans-serif" font-size="14" lengthAdjust="spacing" textLength="33.4551" x="173.7895" y="143.5851">Urna</text><line style="stroke:#181818;stroke-width:0.5;" x1="146.33" x2="234.704" y1="148.8869" y2="148.8869"/><rect fill="none" height="6" style="stroke:#C82930;stroke-width:1.0;" width="6" x="153.33" y="159.5353"/><text fill="#000000" font-family="sans-serif" font-size="14" lengthAdjust="spacing" textLength="64.374" x="165.33" y="165.882">UrnaAula</text></g><g id="elem_Supervisor"><rect fill="#F1F1F1" height="44.5938" style="stroke:#181818;stroke-width:0.5;" width="130.8428" x="235.1" y="7"/><text fill="#000000" font-family="sans-serif" font-size="14" lengthAdjust="spacing" textLength="74.8057" x="263.1186" y="21.9951">Supervisor</text><line style="stroke:#181818;stroke-width:0.5;" x1="236.1" x2="364.9428" y1="27.2969" y2="27.2969"/><rect fill="none" height="6" style="stroke:#C82930;stroke-width:1.0;" width="6" x="243.1" y="37.9453"/><text fill="#000000" font-family="sans-serif" font-size="14" lengthAdjust="spacing" textLength="104.8428" x="255.1" y="44.292">AlejandroVi&#241;as</text></g><!--link Votante to Voto--><g id="link_Votante_Voto"><path codeLine="29" d="M402.82,173.56 C382.38,187.06 355.48,204.73 331.52,220.18 C316.27,230.02 299.32,240.78 284.89,249.89 " fill="none" id="Votante-Voto" style="stroke:#181818;stroke-width:1.0;"/><text fill="#000000" font-family="sans-serif" font-size="13" lengthAdjust="spacing" textLength="37.3687" x="357.52" y="216.2469">emite</text></g><!--link Voto to Postulante--><g id="link_Voto_Postulante"><path codeLine="30" d="M232.31,294.96 C215.5,314.79 189.83,345.08 167.43,371.5 " fill="none" id="Voto-Postulante" style="stroke:#181818;stroke-width:1.0;"/><text fill="#000000" font-family="sans-serif" font-size="13" lengthAdjust="spacing" textLength="48.4326" x="206.52" y="337.8469">es para</text></g><!--link Urna to Voto--><g id="link_Urna_Voto"><path codeLine="31" d="M199.81,173.65 C205.73,187.18 213.73,204.86 221.52,220.18 C226.53,230.03 232.47,240.7 237.67,249.75 " fill="none" id="Urna-Voto" style="stroke:#181818;stroke-width:1.0;"/><text fill="#000000" font-family="sans-serif" font-size="13" lengthAdjust="spacing" textLength="56.2847" x="222.52" y="216.2469">contiene</text></g><!--link Elecci?n to Urna--><g id="link_Elecci&#243;n_Urna"><path codeLine="32" d="M116.75,51.99 C126.31,65.49 138.98,83.17 150.52,98.59 C157.89,108.45 166.24,119.21 173.39,128.32 " fill="none" id="Elecci&#243;n-Urna" style="stroke:#181818;stroke-width:1.0;"/><text fill="#000000" font-family="sans-serif" font-size="13" lengthAdjust="spacing" textLength="22.9785" x="151.52" y="94.6569">usa</text></g><!--link Elecci?n to Postulante--><g id="link_Elecci&#243;n_Postulante"><path codeLine="33" d="M102.61,51.83 C105.65,112.02 114.32,283.34 118.78,371.62 " fill="none" id="Elecci&#243;n-Postulante" style="stroke:#181818;stroke-width:1.0;"/><text fill="#000000" font-family="sans-serif" font-size="13" lengthAdjust="spacing" textLength="46.541" x="112.52" y="216.2469">incluye</text></g><!--link Supervisor to Urna--><g id="link_Supervisor_Urna"><path codeLine="34" d="M252.09,51.93 C238.82,59.73 225.39,69.62 215.52,81.59 C204.44,95.04 198.04,113.83 194.49,128.3 " fill="none" id="Supervisor-Urna" style="stroke:#181818;stroke-width:1.0;"/><text fill="#000000" font-family="sans-serif" font-size="13" lengthAdjust="spacing" textLength="62.6514" x="216.52" y="94.6569">supervisa</text></g><!--link Supervisor to Voto--><g id="link_Supervisor_Voto"><path codeLine="35" d="M301.88,52.06 C303.42,88.1 303.5,161.95 283.52,220.18 C279.94,230.6 273.83,241.02 267.83,249.72 " fill="none" id="Supervisor-Voto" style="stroke:#181818;stroke-width:1.0;"/><text fill="#000000" font-family="sans-serif" font-size="13" lengthAdjust="spacing" textLength="37.3687" x="302.52" y="155.4569">emite</text></g><!--SRC=[NP11QWCn34NtEiLSm1V8RcX2eBHG6fgzwX71GR62x1beIu-KHUWHvcALPnh6wKhe_oVfs_9-99-RlMICcPelS2qFgF8aAIF3Du3Cn8i9FT-WPzGW7V5h473hG0VPelhnWiNg5StFuoNI9xX770Bf3lb4Elv4S1isBhNinIPCM6vO2YdRIvrZLEQ6oVjW0uMO6ubhOZfW9m-CYIhuJICMhjJMObVMhZ-J3Y69pg-b8yPEPH_6AwR2tVx2kJdGgg5Jo0HJOsBr4sQbveoAC1rS9hp472WIBAdDdA1LqoUyr-ysXkYv_o2eSYwZwK_4VtOTz1S0]--></g></svg>