<?xml version="1.0" encoding="us-ascii" standalone="no"?><svg xmlns="http://www.w3.org/2000/svg" xmlns:xlink="http://www.w3.org/1999/xlink" contentStyleType="text/css" height="398px" preserveAspectRatio="none" style="width:978px;height:398px;background:#FFFFFF;" version="1.1" viewBox="0 0 978 398" width="978px" zoomAndPan="magnify"><defs/><g><g id="elem_F1"><rect fill="#F1F1F1" height="37.6094" style="stroke:#181818;stroke-width:0.5;" width="131" x="226" y="7"/><text fill="#000000" font-family="sans-serif" font-size="14" lengthAdjust="spacing" textLength="117" x="233" y="23.5332">foco_1 : Luminaria</text><line style="stroke:#181818;stroke-width:0.5;" x1="227" x2="356" y1="28.6094" y2="28.6094"/></g><g id="elem_F2"><rect fill="#F1F1F1" height="37.6094" style="stroke:#181818;stroke-width:0.5;" width="131" x="650" y="7"/><text fill="#000000" font-family="sans-serif" font-size="14" lengthAdjust="spacing" textLength="117" x="657" y="23.5332">foco_2 : Luminaria</text><line style="stroke:#181818;stroke-width:0.5;" x1="651" x2="780" y1="28.6094" y2="28.6094"/></g><g id="elem_P1"><rect fill="#F1F1F1" height="37.6094" style="stroke:#181818;stroke-width:0.5;" width="133" x="225" y="123"/><text fill="#000000" font-family="sans-serif" font-size="14" lengthAdjust="spacing" textLength="119" x="232" y="139.5332">persona_1 : objeto</text><line style="stroke:#181818;stroke-width:0.5;" x1="226" x2="357" y1="144.6094" y2="144.6094"/></g><g id="elem_P2"><rect fill="#F1F1F1" height="37.6094" style="stroke:#181818;stroke-width:0.5;" width="133" x="649" y="123"/><text fill="#000000" font-family="sans-serif" font-size="14" lengthAdjust="spacing" textLength="119" x="656" y="139.5332">persona_2 : objeto</text><line style="stroke:#181818;stroke-width:0.5;" x1="650" x2="781" y1="144.6094" y2="144.6094"/></g><g id="elem_S11"><rect fill="#F1F1F1" height="37.6094" style="stroke:#181818;stroke-width:0.5;" width="215" x="7" y="239"/><text fill="#000000" font-family="sans-serif" font-size="14" lengthAdjust="spacing" textLength="201" x="14" y="255.5332">sombraDePersona1_1 : sombra</text><line style="stroke:#181818;stroke-width:0.5;" x1="8" x2="221" y1="260.6094" y2="260.6094"/></g><g id="elem_S12"><rect fill="#F1F1F1" height="37.6094" style="stroke:#181818;stroke-width:0.5;" width="215" x="257" y="239"/><text fill="#000000" font-family="sans-serif" font-size="14" lengthAdjust="spacing" textLength="201" x="264" y="255.5332">sombraDePersona1_2 : sombra</text><line style="stroke:#181818;stroke-width:0.5;" x1="258" x2="471" y1="260.6094" y2="260.6094"/></g><g id="elem_S21"><rect fill="#F1F1F1" height="37.6094" style="stroke:#181818;stroke-width:0.5;" width="215" x="507" y="239"/><text fill="#000000" font-family="sans-serif" font-size="14" lengthAdjust="spacing" textLength="201" x="514" y="255.5332">sombraDePersona2_1 : sombra</text><line style="stroke:#181818;stroke-width:0.5;" x1="508" x2="721" y1="260.6094" y2="260.6094"/></g><g id="elem_S22"><rect fill="#F1F1F1" height="37.6094" style="stroke:#181818;stroke-width:0.5;" width="215" x="757" y="239"/><text fill="#000000" font-family="sans-serif" font-size="14" lengthAdjust="spacing" textLength="201" x="764" y="255.5332">sombraDePersona2_2 : sombra</text><line style="stroke:#181818;stroke-width:0.5;" x1="758" x2="971" y1="260.6094" y2="260.6094"/></g><g id="elem_W"><rect fill="#F1F1F1" height="37.6094" style="stroke:#181818;stroke-width:0.5;" width="102" x="398.5" y="355"/><text fill="#000000" font-family="sans-serif" font-size="14" lengthAdjust="spacing" textLength="88" x="405.5" y="371.5332">pared : objeto</text><line style="stroke:#181818;stroke-width:0.5;" x1="399.5" x2="499.5" y1="376.6094" y2="376.6094"/></g><!--link F1 to P1--><g id="link_F1_P1"><path codeLine="11" d="M291.5,45.06 C291.5,66.28 291.5,95.3 291.5,116.64 " fill="none" id="F1-to-P1" style="stroke:#181818;stroke-width:1.0;"/><polygon fill="#181818" points="291.5,122.64,295.5,113.64,291.5,117.64,287.5,113.64,291.5,122.64" style="stroke:#181818;stroke-width:1.0;"/><text fill="#000000" font-family="sans-serif" font-size="13" lengthAdjust="spacing" textLength="41" x="292.5" y="89.4951">ilumina</text></g><!--link F2 to P2--><g id="link_F2_P2"><path codeLine="12" d="M715.5,45.06 C715.5,66.28 715.5,95.3 715.5,116.64 " fill="none" id="F2-to-P2" style="stroke:#181818;stroke-width:1.0;"/><polygon fill="#181818" points="715.5,122.64,719.5,113.64,715.5,117.64,711.5,113.64,715.5,122.64" style="stroke:#181818;stroke-width:1.0;"/><text fill="#000000" font-family="sans-serif" font-size="13" lengthAdjust="spacing" textLength="41" x="716.5" y="89.4951">ilumina</text></g><!--link F1 to S11--><g id="link_F1_S11"><path codeLine="13" d="M255.28,45.12 C225.64,61.66 184.64,88.73 159.5,123 C133.08,159.01 122.4538,205.6295 117.9538,232.9895 " fill="none" id="F1-to-S11" style="stroke:#181818;stroke-width:1.0;stroke-dasharray:7.0,7.0;"/><polygon fill="#181818" points="116.98,238.91,122.3876,230.6785,117.7915,233.9763,114.4937,229.3801,116.98,238.91" style="stroke:#181818;stroke-width:1.0;"/><text fill="#000000" font-family="sans-serif" font-size="13" lengthAdjust="spacing" textLength="46" x="160.5" y="147.4951">produce</text></g><!--link F1 to S21--><g id="link_F1_S21"><path codeLine="14" d="M341.1,45.08 C382.94,61.68 443.24,88.86 489.5,123 C536.34,157.57 576.4557,206.4159 597.5957,234.1859 " fill="none" id="F1-to-S21" style="stroke:#181818;stroke-width:1.0;stroke-dasharray:7.0,7.0;"/><polygon fill="#181818" points="601.23,238.96,598.9613,229.376,598.2014,234.9816,592.5958,234.2217,601.23,238.96" style="stroke:#181818;stroke-width:1.0;"/><text fill="#000000" font-family="sans-serif" font-size="13" lengthAdjust="spacing" textLength="46" x="532.5" y="147.4951">produce</text></g><!--link F2 to S12--><g id="link_F2_S12"><path codeLine="15" d="M649.78,35.07 C587.71,45.72 495.18,69.8 433.5,123 C428.66,127.18 393.6176,197.7357 376.0776,233.4057 " fill="none" id="F2-to-S12" style="stroke:#181818;stroke-width:1.0;stroke-dasharray:7.0,7.0;"/><polygon fill="#181818" points="373.43,238.79,380.9909,232.4787,375.6363,234.3031,373.8119,228.9485,373.43,238.79" style="stroke:#181818;stroke-width:1.0;"/><text fill="#000000" font-family="sans-serif" font-size="13" lengthAdjust="spacing" textLength="46" x="434.5" y="147.4951">produce</text></g><!--link F2 to S22--><g id="link_F2_S22"><path codeLine="16" d="M736.84,45.21 C746.37,53.81 757.48,64.48 766.5,75 C811.59,127.57 842.2312,198.7257 855.6412,233.3157 " fill="none" id="F2-to-S22" style="stroke:#181818;stroke-width:1.0;stroke-dasharray:7.0,7.0;"/><polygon fill="#181818" points="857.81,238.91,858.2863,229.0727,856.0026,234.2481,850.8272,231.9644,857.81,238.91" style="stroke:#181818;stroke-width:1.0;"/><text fill="#000000" font-family="sans-serif" font-size="13" lengthAdjust="spacing" textLength="46" x="821.5" y="147.4951">produce</text></g><!--link P1 to S11--><g id="link_P1_S11"><path codeLine="17" d="M263.45,161.06 C230.41,182.35 180.864,214.2506 147.754,235.5806 " fill="none" id="P1-to-S11" style="stroke:#181818;stroke-width:1.0;"/><polygon fill="#181818" points="142.71,238.83,152.4422,237.3185,146.9133,236.1222,148.1097,230.5933,142.71,238.83" style="stroke:#181818;stroke-width:1.0;"/><text fill="#000000" font-family="sans-serif" font-size="13" lengthAdjust="spacing" textLength="46" x="215.5" y="205.4951">produce</text></g><!--link P1 to S12--><g id="link_P1_S12"><path codeLine="18" d="M303.07,161.06 C316.66,182.28 335.8436,212.2477 349.5136,233.5877 " fill="none" id="P1-to-S12" style="stroke:#181818;stroke-width:1.0;"/><polygon fill="#181818" points="352.75,238.64,351.2636,228.904,350.053,234.4298,344.5272,233.2192,352.75,238.64" style="stroke:#181818;stroke-width:1.0;"/><text fill="#000000" font-family="sans-serif" font-size="13" lengthAdjust="spacing" textLength="46" x="332.5" y="205.4951">produce</text></g><!--link P2 to S21--><g id="link_P2_S21"><path codeLine="19" d="M698.66,161.12 C690.41,170.06 680.37,181.03 671.5,191 C657.21,207.06 645.126,221.047 633.736,234.387 " fill="none" id="P2-to-S21" style="stroke:#181818;stroke-width:1.0;"/><polygon fill="#181818" points="629.84,238.95,638.726,234.7028,633.0867,235.1475,632.642,229.5081,629.84,238.95" style="stroke:#181818;stroke-width:1.0;"/><text fill="#000000" font-family="sans-serif" font-size="13" lengthAdjust="spacing" textLength="46" x="672.5" y="205.4951">produce</text></g><!--link P2 to S22--><g id="link_P2_S22"><path codeLine="20" d="M732.39,161.24 C745.79,175.18 765.39,194.42 784.5,209 C798.92,220 810.8314,227.5916 825.5214,235.9916 " fill="none" id="P2-to-S22" style="stroke:#181818;stroke-width:1.0;"/><polygon fill="#181818" points="830.73,238.97,824.9027,231.0301,826.3895,236.488,820.9315,237.9748,830.73,238.97" style="stroke:#181818;stroke-width:1.0;"/><text fill="#000000" font-family="sans-serif" font-size="13" lengthAdjust="spacing" textLength="46" x="785.5" y="205.4951">produce</text></g><!--link S11 to W--><g id="link_S11_W"><path codeLine="21" d="M167.58,277.06 C230.86,298.6 330.1997,332.4075 392.6297,353.6475 " fill="none" id="S11-to-W" style="stroke:#181818;stroke-width:1.0;stroke-dasharray:7.0,7.0;"/><polygon fill="#181818" points="398.31,355.58,391.078,348.8944,393.5765,353.9695,388.5013,356.468,398.31,355.58" style="stroke:#181818;stroke-width:1.0;"/><text fill="#000000" font-family="sans-serif" font-size="13" lengthAdjust="spacing" textLength="50" x="302.5" y="321.4951">proyecta</text></g><!--link S12 to W--><g id="link_S12_W"><path codeLine="22" d="M377.97,277.06 C393.79,298.28 416.3137,328.4897 432.2237,349.8297 " fill="none" id="S12-to-W" style="stroke:#181818;stroke-width:1.0;stroke-dasharray:7.0,7.0;"/><polygon fill="#181818" points="435.81,354.64,433.6374,345.0338,432.8214,350.6315,427.2237,349.8155,435.81,354.64" style="stroke:#181818;stroke-width:1.0;"/><text fill="#000000" font-family="sans-serif" font-size="13" lengthAdjust="spacing" textLength="50" x="412.5" y="321.4951">proyecta</text></g><!--link S21 to W--><g id="link_S21_W"><path codeLine="23" d="M588.36,277.06 C557.55,298.35 511.6063,330.0892 480.7363,351.4192 " fill="none" id="S21-to-W" style="stroke:#181818;stroke-width:1.0;stroke-dasharray:7.0,7.0;"/><polygon fill="#181818" points="475.8,354.83,485.4782,353.0047,479.9135,351.9877,480.9305,346.423,475.8,354.83" style="stroke:#181818;stroke-width:1.0;"/><text fill="#000000" font-family="sans-serif" font-size="13" lengthAdjust="spacing" textLength="50" x="542.5" y="321.4951">proyecta</text></g><!--link S22 to W--><g id="link_S22_W"><path codeLine="24" d="M798.74,277.06 C716.01,299.79 581.4658,336.7511 506.3458,357.3811 " fill="none" id="S22-to-W" style="stroke:#181818;stroke-width:1.0;stroke-dasharray:7.0,7.0;"/><polygon fill="#181818" points="500.56,358.97,510.298,360.4438,505.3815,357.6459,508.1794,352.7294,500.56,358.97" style="stroke:#181818;stroke-width:1.0;"/><text fill="#000000" font-family="sans-serif" font-size="13" lengthAdjust="spacing" textLength="50" x="682.5" y="321.4951">proyecta</text></g><!--SRC=[TP2x3eCm34NtV8N53f8zTc2gc3eWTM2i0gGILI4emD2_Rnu8I0WPJuwkVIthZsXcIDwoaI-46poMlXkuwdW2V882cJmQT3PeCqQX9Zbm6sFOBArHuicWmDWp9jdNYjz5wKoqOGvQzObuxLBeNkRIAPSGzBlsmsmwzEPAj7wZYh428KrptLx_9DtN7YrX1JbAFaN8ijoKCtXKibqQiMCACAqsHJ7vk7HxXDaR3cotNpXomxvjGitCQgK_VGzkC4KnnMsAsNy0]--></g></svg>