<svg xmlns="http://www.w3.org/2000/svg" xmlns:xlink="http://www.w3.org/1999/xlink" contentStyleType="text/css" height="1147px" preserveAspectRatio="none" style="width:302px;height:1147px;background:#FFFFFF;" version="1.1" viewBox="0 0 302 1147" width="302px" zoomAndPan="magnify"><defs/><g><ellipse cx="121.91" cy="16" fill="#222222" rx="10" ry="10" style="stroke:#222222;stroke-width:1.0;"/><g id="Definicion_del_Contexto"><rect fill="#F1F1F1" height="50" rx="12.5" ry="12.5" style="stroke:#181818;stroke-width:0.5;" width="189.0459" x="27.38" y="103"/><line style="stroke:#181818;stroke-width:0.5;" x1="27.38" x2="216.4259" y1="129.2969" y2="129.2969"/><text fill="#000000" font-family="sans-serif" font-size="14" lengthAdjust="spacing" textLength="169.0459" x="37.38" y="120.9951">Definicion_del_Contexto</text></g><g id="Identificacion_de_Alternativas"><rect fill="#F1F1F1" height="50" rx="12.5" ry="12.5" style="stroke:#181818;stroke-width:0.5;" width="229.8154" x="7" y="230"/><line style="stroke:#181818;stroke-width:0.5;" x1="7" x2="236.8154" y1="256.2969" y2="256.2969"/><text fill="#000000" font-family="sans-serif" font-size="14" lengthAdjust="spacing" textLength="209.8154" x="17" y="247.9951">Identificacion_de_Alternativas</text></g><g id="Evaluacion_de_Criterios"><rect fill="#F1F1F1" height="50" rx="12.5" ry="12.5" style="stroke:#181818;stroke-width:0.5;" width="186.6055" x="28.6" y="357"/><line style="stroke:#181818;stroke-width:0.5;" x1="28.6" x2="215.2055" y1="383.2969" y2="383.2969"/><text fill="#000000" font-family="sans-serif" font-size="14" lengthAdjust="spacing" textLength="166.6055" x="38.6" y="374.9951">Evaluacion_de_Criterios</text></g><g id="Analisis_de_Consecuencias"><rect fill="#F1F1F1" height="50" rx="12.5" ry="12.5" style="stroke:#181818;stroke-width:0.5;" width="209.4238" x="17.2" y="484"/><line style="stroke:#181818;stroke-width:0.5;" x1="17.2" x2="226.6238" y1="510.2969" y2="510.2969"/><text fill="#000000" font-family="sans-serif" font-size="14" lengthAdjust="spacing" textLength="189.4238" x="27.2" y="501.9951">Analisis_de_Consecuencias</text></g><g id="Toma_de_Decision"><rect fill="#F1F1F1" height="50" rx="12.5" ry="12.5" style="stroke:#181818;stroke-width:0.5;" width="150.4365" x="46.69" y="611"/><line style="stroke:#181818;stroke-width:0.5;" x1="46.69" x2="197.1265" y1="637.2969" y2="637.2969"/><text fill="#000000" font-family="sans-serif" font-size="14" lengthAdjust="spacing" textLength="130.4365" x="56.69" y="628.9951">Toma_de_Decision</text></g><g id="Implementacion"><rect fill="#F1F1F1" height="50" rx="12.5" ry="12.5" style="stroke:#181818;stroke-width:0.5;" width="133.374" x="55.22" y="738"/><line style="stroke:#181818;stroke-width:0.5;" x1="55.22" x2="188.594" y1="764.2969" y2="764.2969"/><text fill="#000000" font-family="sans-serif" font-size="14" lengthAdjust="spacing" textLength="113.374" x="65.22" y="755.9951">Implementacion</text></g><g id="Evaluacion"><rect fill="#F1F1F1" height="50" rx="12.5" ry="12.5" style="stroke:#181818;stroke-width:0.5;" width="96.0771" x="73.87" y="865"/><line style="stroke:#181818;stroke-width:0.5;" x1="73.87" x2="169.9471" y1="891.2969" y2="891.2969"/><text fill="#000000" font-family="sans-serif" font-size="14" lengthAdjust="spacing" textLength="76.0771" x="83.87" y="882.9951">Evaluacion</text></g><g id="Revision_de_Resultados"><rect fill="#F1F1F1" height="50" rx="12.5" ry="12.5" style="stroke:#181818;stroke-width:0.5;" width="187.8496" x="27.98" y="992"/><line style="stroke:#181818;stroke-width:0.5;" x1="27.98" x2="215.8296" y1="1018.2969" y2="1018.2969"/><text fill="#000000" font-family="sans-serif" font-size="14" lengthAdjust="spacing" textLength="167.8496" x="37.98" y="1009.9951">Revision_de_Resultados</text></g><ellipse cx="121.91" cy="1130" fill="none" rx="11" ry="11" style="stroke:#222222;stroke-width:1.0;"/><ellipse cx="121.91" cy="1130" fill="#222222" rx="6" ry="6" style="stroke:#222222;stroke-width:1.0;"/><!--link *start* to Definicion_del_Contexto--><g id="link_*start*_Definicion_del_Contexto"><path d="M121.91,26.38 C121.91,43.11 121.91,72.59 121.91,96.63 " fill="none" id="*start*-to-Definicion_del_Contexto" style="stroke:#181818;stroke-width:1.0;"/><polygon fill="#181818" points="121.91,102.63,125.91,93.63,121.91,97.63,117.91,93.63,121.91,102.63" style="stroke:#181818;stroke-width:1.0;"/><text fill="#000000" font-family="sans-serif" font-size="13" lengthAdjust="spacing" textLength="34.4106" x="122.91" y="69.0669">Inicia</text></g><!--link Definicion_del_Contexto to Identificacion_de_Alternativas--><g id="link_Definicion_del_Contexto_Identificacion_de_Alternativas"><path d="M121.91,153.4 C121.91,175.42 121.91,201.66 121.91,223.66 " fill="none" id="Definicion_del_Contexto-to-Identificacion_de_Alternativas" style="stroke:#181818;stroke-width:1.0;"/><polygon fill="#181818" points="121.91,229.66,125.91,220.66,121.91,224.66,117.91,220.66,121.91,229.66" style="stroke:#181818;stroke-width:1.0;"/><text fill="#000000" font-family="sans-serif" font-size="13" lengthAdjust="spacing" textLength="117.4951" x="122.91" y="196.0669">Contexto Definido</text></g><!--link Identificacion_de_Alternativas to Evaluacion_de_Criterios--><g id="link_Identificacion_de_Alternativas_Evaluacion_de_Criterios"><path d="M121.91,280.4 C121.91,302.42 121.91,328.66 121.91,350.66 " fill="none" id="Identificacion_de_Alternativas-to-Evaluacion_de_Criterios" style="stroke:#181818;stroke-width:1.0;"/><polygon fill="#181818" points="121.91,356.66,125.91,347.66,121.91,351.66,117.91,347.66,121.91,356.66" style="stroke:#181818;stroke-width:1.0;"/><text fill="#000000" font-family="sans-serif" font-size="13" lengthAdjust="spacing" textLength="143.4634" x="122.91" y="323.0669">Alternativas Definidas</text></g><!--link Evaluacion_de_Criterios to Analisis_de_Consecuencias--><g id="link_Evaluacion_de_Criterios_Analisis_de_Consecuencias"><path d="M121.91,407.4 C121.91,429.42 121.91,455.66 121.91,477.66 " fill="none" id="Evaluacion_de_Criterios-to-Analisis_de_Consecuencias" style="stroke:#181818;stroke-width:1.0;"/><polygon fill="#181818" points="121.91,483.66,125.91,474.66,121.91,478.66,117.91,474.66,121.91,483.66" style="stroke:#181818;stroke-width:1.0;"/><text fill="#000000" font-family="sans-serif" font-size="13" lengthAdjust="spacing" textLength="125.6138" x="122.91" y="450.0669">Criterios Evaluados</text></g><!--link Analisis_de_Consecuencias to Toma_de_Decision--><g id="link_Analisis_de_Consecuencias_Toma_de_Decision"><path d="M121.91,534.4 C121.91,556.42 121.91,582.66 121.91,604.66 " fill="none" id="Analisis_de_Consecuencias-to-Toma_de_Decision" style="stroke:#181818;stroke-width:1.0;"/><polygon fill="#181818" points="121.91,610.66,125.91,601.66,121.91,605.66,117.91,601.66,121.91,610.66" style="stroke:#181818;stroke-width:1.0;"/><text fill="#000000" font-family="sans-serif" font-size="13" lengthAdjust="spacing" textLength="171.3994" x="122.91" y="577.0669">Consecuencias Analizadas</text></g><!--link Toma_de_Decision to Implementacion--><g id="link_Toma_de_Decision_Implementacion"><path d="M121.91,661.4 C121.91,683.42 121.91,709.66 121.91,731.66 " fill="none" id="Toma_de_Decision-to-Implementacion" style="stroke:#181818;stroke-width:1.0;"/><polygon fill="#181818" points="121.91,737.66,125.91,728.66,121.91,732.66,117.91,728.66,121.91,737.66" style="stroke:#181818;stroke-width:1.0;"/><text fill="#000000" font-family="sans-serif" font-size="13" lengthAdjust="spacing" textLength="112.2202" x="122.91" y="704.0669">Decisi&#243;n Tomada</text></g><!--link Implementacion to Evaluacion--><g id="link_Implementacion_Evaluacion"><path d="M121.91,788.4 C121.91,810.42 121.91,836.66 121.91,858.66 " fill="none" id="Implementacion-to-Evaluacion" style="stroke:#181818;stroke-width:1.0;"/><polygon fill="#181818" points="121.91,864.66,125.91,855.66,121.91,859.66,117.91,855.66,121.91,864.66" style="stroke:#181818;stroke-width:1.0;"/><text fill="#000000" font-family="sans-serif" font-size="13" lengthAdjust="spacing" textLength="154.0195" x="122.91" y="831.0669">Decisi&#243;n Implementada</text></g><!--link Evaluacion to Revision_de_Resultados--><g id="link_Evaluacion_Revision_de_Resultados"><path d="M121.91,915.4 C121.91,937.42 121.91,963.66 121.91,985.66 " fill="none" id="Evaluacion-to-Revision_de_Resultados" style="stroke:#181818;stroke-width:1.0;"/><polygon fill="#181818" points="121.91,991.66,125.91,982.66,121.91,986.66,117.91,982.66,121.91,991.66" style="stroke:#181818;stroke-width:1.0;"/><text fill="#000000" font-family="sans-serif" font-size="13" lengthAdjust="spacing" textLength="115.0386" x="122.91" y="958.0669">Proceso Evaluado</text></g><!--link Revision_de_Resultados to *end*--><g id="link_Revision_de_Resultados_*end*"><path d="M121.91,1042.36 C121.91,1066.23 121.91,1095.46 121.91,1112.71 " fill="none" id="Revision_de_Resultados-to-*end*" style="stroke:#181818;stroke-width:1.0;"/><polygon fill="#181818" points="121.91,1118.71,125.91,1109.71,121.91,1113.71,117.91,1109.71,121.91,1118.71" style="stroke:#181818;stroke-width:1.0;"/><text fill="#000000" font-family="sans-serif" font-size="13" lengthAdjust="spacing" textLength="120.6563" x="122.91" y="1085.0669">Proceso Finalizado</text></g><!--SRC=[XP91QiD034NtSmgl2xb05uMGj91T2Ts5OCIC0eAnL3nZ4tAj724NgpGsJfnWklL_xriIStWxLglLHxN54p5v4gu3ndeZdF6SfNglTlOPt19WyYuWPpgHXp6lrp5Zov2fXwGT4psq177_ADRwsKFifdZJakOaLZT3nqf8RacmiZL3f4If9C89VOUiUvNf9d9e29BSCczjFzA09Llq2WaFApv0HR-0JVN2beirln4RFK4PL_KXlLsvT0TmJyJy83FXJghsm9Yonxxyr0ROO-fYjkrK_sx5Ov9fOxT0Mib1tyZT-A9nD_a3]--></g></svg>