<svg xmlns="http://www.w3.org/2000/svg" xmlns:xlink="http://www.w3.org/1999/xlink" contentStyleType="text/css" height="481px" preserveAspectRatio="none" style="width:827px;height:481px;background:#FFFFFF;" version="1.1" viewBox="0 0 827 481" width="827px" zoomAndPan="magnify"><defs/><g><g id="elem_AlumnosII3"><rect fill="#F1F1F1" height="50.1358" style="stroke:#181818;stroke-width:0.5;" width="201.4473" x="330.5" y="7"/><text fill="#000000" font-family="sans-serif" font-size="14" lengthAdjust="spacing" textLength="75.6277" x="393.4098" y="23.9659">AlumnosII3</text><line style="stroke:#181818;stroke-width:0.5;" x1="331.5" x2="530.9473" y1="30.0679" y2="30.0679"/><text fill="#000000" font-family="sans-serif" font-size="14" lengthAdjust="spacing" textLength="189.4473" x="336.5" y="49.0339">grado = "3 Ing. Informatica""</text></g><g id="elem_Votos"><rect fill="#F1F1F1" height="39.0679" style="stroke:#181818;stroke-width:0.5;" width="51.0999" x="405.5" y="117"/><text fill="#000000" font-family="sans-serif" font-size="14" lengthAdjust="spacing" textLength="37.0999" x="412.5" y="133.9659">Votos</text><line style="stroke:#181818;stroke-width:0.5;" x1="406.5" x2="455.5999" y1="140.0679" y2="140.0679"/></g><g id="elem_CandidatoJavier"><rect fill="#F1F1F1" height="50.1358" style="stroke:#181818;stroke-width:0.5;" width="134.0515" x="7" y="326"/><text fill="#000000" font-family="sans-serif" font-size="14" lengthAdjust="spacing" textLength="103.6416" x="22.205" y="342.9659">CandidatoJavier</text><line style="stroke:#181818;stroke-width:0.5;" x1="8" x2="140.0515" y1="349.0679" y2="349.0679"/><text fill="#000000" font-family="sans-serif" font-size="14" lengthAdjust="spacing" textLength="122.0515" x="13" y="368.0339">votosRecibidos = 3</text></g><g id="elem_CandidatoMario"><rect fill="#F1F1F1" height="50.1358" style="stroke:#181818;stroke-width:0.5;" width="134.0515" x="176" y="326"/><text fill="#000000" font-family="sans-serif" font-size="14" lengthAdjust="spacing" textLength="105.9796" x="190.036" y="342.9659">CandidatoMario</text><line style="stroke:#181818;stroke-width:0.5;" x1="177" x2="309.0515" y1="349.0679" y2="349.0679"/><text fill="#000000" font-family="sans-serif" font-size="14" lengthAdjust="spacing" textLength="122.0515" x="182" y="368.0339">votosRecibidos = 6</text></g><g id="elem_CandidatoElias"><rect fill="#F1F1F1" height="50.1358" style="stroke:#181818;stroke-width:0.5;" width="134.0515" x="345" y="326"/><text fill="#000000" font-family="sans-serif" font-size="14" lengthAdjust="spacing" textLength="97.1316" x="363.4599" y="342.9659">CandidatoElias</text><line style="stroke:#181818;stroke-width:0.5;" x1="346" x2="478.0515" y1="349.0679" y2="349.0679"/><text fill="#000000" font-family="sans-serif" font-size="14" lengthAdjust="spacing" textLength="122.0515" x="351" y="368.0339">votosRecibidos = 3</text></g><g id="elem_CandidatoDiego"><rect fill="#F1F1F1" height="50.1358" style="stroke:#181818;stroke-width:0.5;" width="134.0515" x="514" y="326"/><text fill="#000000" font-family="sans-serif" font-size="14" lengthAdjust="spacing" textLength="106.3716" x="527.84" y="342.9659">CandidatoDiego</text><line style="stroke:#181818;stroke-width:0.5;" x1="515" x2="647.0515" y1="349.0679" y2="349.0679"/><text fill="#000000" font-family="sans-serif" font-size="14" lengthAdjust="spacing" textLength="122.0515" x="520" y="368.0339">votosRecibidos = 9</text></g><g id="elem_CandidatoMaura"><rect fill="#F1F1F1" height="50.1358" style="stroke:#181818;stroke-width:0.5;" width="134.0515" x="683" y="326"/><text fill="#000000" font-family="sans-serif" font-size="14" lengthAdjust="spacing" textLength="110.4036" x="694.824" y="342.9659">CandidatoMaura</text><line style="stroke:#181818;stroke-width:0.5;" x1="684" x2="816.0515" y1="349.0679" y2="349.0679"/><text fill="#000000" font-family="sans-serif" font-size="14" lengthAdjust="spacing" textLength="122.0515" x="689" y="368.0339">votosRecibidos = 7</text></g><g id="elem_DelegadoDiego"><rect fill="#F1F1F1" height="39.0679" style="stroke:#181818;stroke-width:0.5;" width="115.9756" x="523" y="436"/><text fill="#000000" font-family="sans-serif" font-size="14" lengthAdjust="spacing" textLength="101.9756" x="530" y="452.9659">DelegadoDiego</text><line style="stroke:#181818;stroke-width:0.5;" x1="524" x2="637.9756" y1="459.0679" y2="459.0679"/></g><g id="elem_SubdelegadoMaura"><rect fill="#F1F1F1" height="39.0679" style="stroke:#181818;stroke-width:0.5;" width="143.3455" x="678.5" y="436"/><text fill="#000000" font-family="sans-serif" font-size="14" lengthAdjust="spacing" textLength="129.3455" x="685.5" y="452.9659">SubdelegadoMaura</text><line style="stroke:#181818;stroke-width:0.5;" x1="679.5" x2="820.8455" y1="459.0679" y2="459.0679"/></g><g id="elem_SupervisorUrna"><rect fill="#F1F1F1" height="39.0679" style="stroke:#181818;stroke-width:0.5;" width="116.8296" x="253.5" y="117"/><text fill="#000000" font-family="sans-serif" font-size="14" lengthAdjust="spacing" textLength="102.8296" x="260.5" y="133.9659">SupervisorUrna</text><line style="stroke:#181818;stroke-width:0.5;" x1="254.5" x2="369.3296" y1="140.0679" y2="140.0679"/></g><g id="elem_Urna"><rect fill="#F1F1F1" height="50.1358" style="stroke:#181818;stroke-width:0.5;" width="79.1157" x="372.5" y="216"/><text fill="#000000" font-family="sans-serif" font-size="14" lengthAdjust="spacing" textLength="32.5219" x="395.7969" y="232.9659">Urna</text><line style="stroke:#181818;stroke-width:0.5;" x1="373.5" x2="450.6157" y1="239.0679" y2="239.0679"/><text fill="#000000" font-family="sans-serif" font-size="14" lengthAdjust="spacing" textLength="67.1157" x="378.5" y="258.0339">votos = 28</text></g><!--link AlumnosII3 to CandidatoJavier--><g id="link_AlumnosII3_CandidatoJavier"><path codeLine="42" d="M330.29,56.14 C290.24,69.07 245.76,88.5 212,117 C142.31,175.84 98.99,279.31 82.1,325.97 " fill="none" id="AlumnosII3-CandidatoJavier" style="stroke:#181818;stroke-width:1.0;"/></g><!--link AlumnosII3 to CandidatoMario--><g id="link_AlumnosII3_CandidatoMario"><path codeLine="43" d="M330.48,52.19 C294.43,64.44 257.43,84.44 236,117 C193.29,181.91 218.58,280.52 233.9,325.76 " fill="none" id="AlumnosII3-CandidatoMario" style="stroke:#181818;stroke-width:1.0;"/></g><!--link AlumnosII3 to CandidatoElias--><g id="link_AlumnosII3_CandidatoElias"><path codeLine="44" d="M447.26,57.15 C457.14,73.32 468.82,95.5 474,117 C481.1,146.44 481.59,228.12 469,266 C461.61,288.24 446.51,310.05 433.71,325.86 " fill="none" id="AlumnosII3-CandidatoElias" style="stroke:#181818;stroke-width:1.0;"/></g><!--link AlumnosII3 to CandidatoDiego--><g id="link_AlumnosII3_CandidatoDiego"><path codeLine="45" d="M456.17,57.15 C471.46,72.97 490.4,94.78 503,117 C543.08,187.69 566.7,282.2 576.17,325.93 " fill="none" id="AlumnosII3-CandidatoDiego" style="stroke:#181818;stroke-width:1.0;"/></g><!--link AlumnosII3 to CandidatoMaura--><g id="link_AlumnosII3_CandidatoMaura"><path codeLine="46" d="M465.31,57.3 C487.17,73.35 515.67,95.35 539,117 C615.21,187.71 694.84,282.21 730.6,325.93 " fill="none" id="AlumnosII3-CandidatoMaura" style="stroke:#181818;stroke-width:1.0;"/></g><!--link AlumnosII3 to SupervisorUrna--><g id="link_AlumnosII3_SupervisorUrna"><path codeLine="48" d="M403.1,57.03 C381.94,75.26 353.27,99.95 333.79,116.74 " fill="none" id="AlumnosII3-SupervisorUrna" style="stroke:#181818;stroke-width:1.0;stroke-dasharray:7.0,7.0;"/></g><!--link SupervisorUrna to Urna--><g id="link_SupervisorUrna_Urna"><path codeLine="49" d="M330.34,156.3 C346.69,173.06 370.72,197.69 388.48,215.89 " fill="none" id="SupervisorUrna-Urna" style="stroke:#181818;stroke-width:1.0;"/></g><!--link AlumnosII3 to Votos--><g id="link_AlumnosII3_Votos"><path codeLine="51" d="M431,57.03 C431,75.26 431,99.95 431,116.74 " fill="none" id="AlumnosII3-Votos" style="stroke:#181818;stroke-width:1.0;"/></g><!--link Votos to Urna--><g id="link_Votos_Urna"><path codeLine="52" d="M427.52,156.3 C424.41,173.06 419.84,197.69 416.47,215.89 " fill="none" id="Votos-Urna" style="stroke:#181818;stroke-width:1.0;"/></g><!--link Urna to CandidatoJavier--><g id="link_Urna_CandidatoJavier"><path codeLine="54" d="M372.23,254.71 C315.43,272.86 210.32,306.44 141.27,328.5 " fill="none" id="Urna-CandidatoJavier" style="stroke:#181818;stroke-width:1.0;stroke-dasharray:7.0,7.0;"/></g><!--link Urna to CandidatoMario--><g id="link_Urna_CandidatoMario"><path codeLine="55" d="M374.07,266.24 C346.24,284.02 308.6,308.08 280.8,325.84 " fill="none" id="Urna-CandidatoMario" style="stroke:#181818;stroke-width:1.0;stroke-dasharray:7.0,7.0;"/></g><!--link Urna to CandidatoElias--><g id="link_Urna_CandidatoElias"><path codeLine="56" d="M412,266.24 C412,284.02 412,308.08 412,325.84 " fill="none" id="Urna-CandidatoElias" style="stroke:#181818;stroke-width:1.0;stroke-dasharray:7.0,7.0;"/></g><!--link Urna to CandidatoDiego--><g id="link_Urna_CandidatoDiego"><path codeLine="57" d="M449.93,266.24 C477.76,284.02 515.4,308.08 543.2,325.84 " fill="none" id="Urna-CandidatoDiego" style="stroke:#181818;stroke-width:1.0;stroke-dasharray:7.0,7.0;"/></g><!--link Urna to CandidatoMaura--><g id="link_Urna_CandidatoMaura"><path codeLine="58" d="M451.77,254.71 C508.57,272.86 613.68,306.44 682.73,328.5 " fill="none" id="Urna-CandidatoMaura" style="stroke:#181818;stroke-width:1.0;stroke-dasharray:7.0,7.0;"/></g><!--link CandidatoDiego to DelegadoDiego--><g id="link_CandidatoDiego_DelegadoDiego"><path codeLine="60" d="M581,376.03 C581,394.26 581,418.95 581,435.74 " fill="none" id="CandidatoDiego-DelegadoDiego" style="stroke:#181818;stroke-width:1.0;"/></g><!--link CandidatoMaura to SubdelegadoMaura--><g id="link_CandidatoMaura_SubdelegadoMaura"><path codeLine="61" d="M750,376.03 C750,394.26 750,418.95 750,435.74 " fill="none" id="CandidatoMaura-SubdelegadoMaura" style="stroke:#181818;stroke-width:1.0;"/></g><!--SRC=[bLAxRiCm3Dpr5OBtU8Y1jXao14q75-ZIejbfIp5Os6OXFvQY_rv6SX9RbeOk6kwE9nv9AhvqsSj3FJGjTNcUoHyXPML0aTpB99DvMwNydCaqq6C9II9-XI1NTgAUEgwu8y_GAbJGqokCg8rr6o-gTrrYWOhbUvc52jx088Nr3o7zIutG_SF_YBgA-E_2_Gm6mlh7cVweQrtnjAxsT-PZADH4NhtcvBSs8tPaFasxf2PW-fU_spvTsDcADXj_pZ7M3ZL6sWd6I9idRijv5YsbgHT9U0cvtCAUfRqWuUxe9h45xEY7NE4ktWfsmLQmYnGmiM6yG-5c5giLtc4mxozO_040]--></g></svg>