<svg xmlns="http://www.w3.org/2000/svg" xmlns:xlink="http://www.w3.org/1999/xlink" contentStyleType="text/css" height="856px" preserveAspectRatio="none" style="width:401px;height:856px;background:#FFFFFF;" version="1.1" viewBox="0 0 401 856" width="401px" zoomAndPan="magnify"><defs/><g><ellipse cx="197.5" cy="16" fill="#222222" rx="10" ry="10" style="stroke:#222222;stroke-width:1.0;"/><path d="M66.5,86 L328.5282,86 A12.5,12.5 0 0 1 341.0282,98.5 L341.0282,115.0679 L54,115.0679 L54,98.5 A12.5,12.5 0 0 1 66.5,86 " fill="#F1F1F1" style="stroke:#F1F1F1;stroke-width:1.0;"/><rect fill="none" height="311.0679" rx="12.5" ry="12.5" style="stroke:#181818;stroke-width:0.5;" width="287.0282" x="54" y="86"/><line style="stroke:#181818;stroke-width:0.5;" x1="54" x2="341.0282" y1="115.0679" y2="115.0679"/><text fill="#000000" font-family="sans-serif" font-size="14" lengthAdjust="spacing" textLength="57.2318" x="168.8982" y="105.9659">Votaci&#243;n</text><g id="ProcesoVotacion.AlumnosVotan"><rect fill="#F1F1F1" height="50" rx="12.5" ry="12.5" style="stroke:#181818;stroke-width:0.5;" width="116.5576" x="68" y="127.0679"/><line style="stroke:#181818;stroke-width:0.5;" x1="68" x2="184.5576" y1="156.1358" y2="156.1358"/><text fill="#000000" font-family="sans-serif" font-size="14" lengthAdjust="spacing" textLength="96.5576" x="78" y="147.0339">AlumnosVotan</text></g><g id="ProcesoVotacion.DepositarVotos"><rect fill="#F1F1F1" height="50" rx="12.5" ry="12.5" style="stroke:#181818;stroke-width:0.5;" width="121.3036" x="66" y="232.0679"/><line style="stroke:#181818;stroke-width:0.5;" x1="66" x2="187.3036" y1="261.1358" y2="261.1358"/><text fill="#000000" font-family="sans-serif" font-size="14" lengthAdjust="spacing" textLength="101.3036" x="76" y="252.0339">DepositarVotos</text></g><g id="ProcesoVotacion.FinVotacion"><rect fill="#F1F1F1" height="50" rx="12.5" ry="12.5" style="stroke:#181818;stroke-width:0.5;" width="96.7617" x="78" y="337.0679"/><line style="stroke:#181818;stroke-width:0.5;" x1="78" x2="174.7617" y1="366.1358" y2="366.1358"/><text fill="#000000" font-family="sans-serif" font-size="14" lengthAdjust="spacing" textLength="76.7617" x="88" y="357.0339">FinVotacion</text></g><!--link AlumnosVotan to DepositarVotos--><g id="link_AlumnosVotan_DepositarVotos"><path d="M126.5,177.2179 C126.5,193.6279 126.5,209.2579 126.5,225.7179 " fill="none" id="AlumnosVotan-to-DepositarVotos" style="stroke:#181818;stroke-width:1.0;"/><polygon fill="#181818" points="126.5,231.7179,130.5,222.7179,126.5,226.7179,122.5,222.7179,126.5,231.7179" style="stroke:#181818;stroke-width:1.0;"/><text fill="#000000" font-family="sans-serif" font-size="13" lengthAdjust="spacing" textLength="203.5282" x="127.5" y="209.9649">Los votos se depositan en la urna</text></g><!--link DepositarVotos to FinVotacion--><g id="link_DepositarVotos_FinVotacion"><path d="M126.5,282.2179 C126.5,298.6279 126.5,314.2579 126.5,330.7179 " fill="none" id="DepositarVotos-to-FinVotacion" style="stroke:#181818;stroke-width:1.0;"/><polygon fill="#181818" points="126.5,336.7179,130.5,327.7179,126.5,331.7179,122.5,327.7179,126.5,336.7179" style="stroke:#181818;stroke-width:1.0;"/><text fill="#000000" font-family="sans-serif" font-size="13" lengthAdjust="spacing" textLength="186.7842" x="127.5" y="314.9649">Todos los alumnos han votado</text></g><path d="M19.5,457 L375.0382,457 A12.5,12.5 0 0 1 387.5382,469.5 L387.5382,486.0679 L7,486.0679 L7,469.5 A12.5,12.5 0 0 1 19.5,457 " fill="#F1F1F1" style="stroke:#F1F1F1;stroke-width:1.0;"/><rect fill="none" height="311.0679" rx="12.5" ry="12.5" style="stroke:#181818;stroke-width:0.5;" width="380.5382" x="7" y="457"/><line style="stroke:#181818;stroke-width:0.5;" x1="7" x2="387.5382" y1="486.0679" y2="486.0679"/><text fill="#000000" font-family="sans-serif" font-size="14" lengthAdjust="spacing" textLength="62.0477" x="166.2452" y="476.9659">Recuento</text><g id="Recuento.RecuentoVotos"><rect fill="#F1F1F1" height="50" rx="12.5" ry="12.5" style="stroke:#181818;stroke-width:0.5;" width="119.1476" x="97" y="498.0679"/><line style="stroke:#181818;stroke-width:0.5;" x1="97" x2="216.1476" y1="527.1358" y2="527.1358"/><text fill="#000000" font-family="sans-serif" font-size="14" lengthAdjust="spacing" textLength="99.1476" x="107" y="518.0339">RecuentoVotos</text></g><g id="Recuento.IdentificarGanador"><rect fill="#F1F1F1" height="50" rx="12.5" ry="12.5" style="stroke:#181818;stroke-width:0.5;" width="144.7675" x="84" y="603.0679"/><line style="stroke:#181818;stroke-width:0.5;" x1="84" x2="228.7675" y1="632.1358" y2="632.1358"/><text fill="#000000" font-family="sans-serif" font-size="14" lengthAdjust="spacing" textLength="124.7675" x="94" y="623.0339">IdentificarGanador</text></g><g id="Recuento.DelegadoElecto"><rect fill="#F1F1F1" height="50" rx="12.5" ry="12.5" style="stroke:#181818;stroke-width:0.5;" width="122.7036" x="19" y="708.0679"/><line style="stroke:#181818;stroke-width:0.5;" x1="19" x2="141.7036" y1="737.1358" y2="737.1358"/><text fill="#000000" font-family="sans-serif" font-size="14" lengthAdjust="spacing" textLength="102.7036" x="29" y="728.0339">DelegadoElecto</text></g><g id="Recuento.SubdelegadoElecto"><rect fill="#F1F1F1" height="50" rx="12.5" ry="12.5" style="stroke:#181818;stroke-width:0.5;" width="146.0415" x="160.5" y="708.0679"/><line style="stroke:#181818;stroke-width:0.5;" x1="160.5" x2="306.5415" y1="737.1358" y2="737.1358"/><text fill="#000000" font-family="sans-serif" font-size="14" lengthAdjust="spacing" textLength="126.0415" x="170.5" y="728.0339">SubdelegadoElecto</text></g><!--link RecuentoVotos to IdentificarGanador--><g id="link_RecuentoVotos_IdentificarGanador"><path d="M156.5,548.2179 C156.5,564.6279 156.5,580.2579 156.5,596.7179 " fill="none" id="RecuentoVotos-to-IdentificarGanador" style="stroke:#181818;stroke-width:1.0;"/><polygon fill="#181818" points="156.5,602.7179,160.5,593.7179,156.5,597.7179,152.5,593.7179,156.5,602.7179" style="stroke:#181818;stroke-width:1.0;"/><text fill="#000000" font-family="sans-serif" font-size="13" lengthAdjust="spacing" textLength="220.0382" x="157.5" y="580.9649">Supervisor de Urna cuenta los votos</text></g><!--link IdentificarGanador to DelegadoElecto--><g id="link_IdentificarGanador_DelegadoElecto"><path d="M105.57,653.1879 C98.95,658.2579 92.95,664.1979 88.5,671.0679 C81.54,681.8279 79.5362,689.9108 79.1662,701.8308 " fill="none" id="IdentificarGanador-to-DelegadoElecto" style="stroke:#181818;stroke-width:1.0;"/><polygon fill="#181818" points="78.98,707.8279,83.2573,698.9564,79.1351,702.8303,75.2612,698.7081,78.98,707.8279" style="stroke:#181818;stroke-width:1.0;"/><text fill="#000000" font-family="sans-serif" font-size="13" lengthAdjust="spacing" textLength="121.7841" x="89.5" y="685.9649">Se elige al delegado</text></g><!--link IdentificarGanador to SubdelegadoElecto--><g id="link_IdentificarGanador_SubdelegadoElecto"><path d="M194.11,653.0879 C200.53,658.4279 206.67,664.4779 211.5,671.0679 C219.49,681.9679 223.1659,690.2804 226.5759,702.1704 " fill="none" id="IdentificarGanador-to-SubdelegadoElecto" style="stroke:#181818;stroke-width:1.0;"/><polygon fill="#181818" points="228.23,707.9379,229.5939,698.1839,226.8516,703.1317,221.9039,700.3894,228.23,707.9379" style="stroke:#181818;stroke-width:1.0;"/><text fill="#000000" font-family="sans-serif" font-size="13" lengthAdjust="spacing" textLength="144.0401" x="222.5" y="685.9649">Se elige al subdelegado</text></g><ellipse cx="197.5" cy="839" fill="none" rx="11" ry="11" style="stroke:#222222;stroke-width:1.0;"/><ellipse cx="197.5" cy="839" fill="#222222" rx="6" ry="6" style="stroke:#222222;stroke-width:1.0;"/><!--link *start* to ProcesoVotacion--><g id="link_*start*_ProcesoVotacion"><path d="M197.5,26.04 C197.5,37.84 197.5,54.06 197.5,79.88 " fill="none" id="*start*-to-ProcesoVotacion" style="stroke:#181818;stroke-width:1.0;"/><polygon fill="#181818" points="197.5,85.88,201.5,76.88,197.5,80.88,193.5,76.88,197.5,85.88" style="stroke:#181818;stroke-width:1.0;"/></g><!--link ProcesoVotacion to Recuento--><g id="link_ProcesoVotacion_Recuento"><path d="M197.5,397.12 C197.5,416.85 197.5,431.06 197.5,450.8 " fill="none" id="ProcesoVotacion-to-Recuento" style="stroke:#181818;stroke-width:1.0;"/><polygon fill="#181818" points="197.5,456.8,201.5,447.8,197.5,451.8,193.5,447.8,197.5,456.8" style="stroke:#181818;stroke-width:1.0;"/></g><!--link Recuento to *end*--><g id="link_Recuento_*end*"><path d="M197.5,768.2 C197.5,793.72 197.5,809.8 197.5,821.97 " fill="none" id="Recuento-to-*end*" style="stroke:#181818;stroke-width:1.0;"/><polygon fill="#181818" points="197.5,827.97,201.5,818.97,197.5,822.97,193.5,818.97,197.5,827.97" style="stroke:#181818;stroke-width:1.0;"/></g><!--SRC=[VP1DQWCn38NtFeN8Cf0BP54e92s5BahJPXEoK6qrDJXIy4ysfQVA4NAno9xC18QIWHdcFLcVzBoPRc4sUu2tA9QIh2MZzSB6f8oPOD8PvnDF0DFu5FmQqESnb3rBgYuts88Eadp6g9OacCEhVe_jFn6uQvM16092YOoDCsghf2VFmx0vV8XJF-YBtKZuKOg2qOdvCsQyNYMyaot4MOP4lT42zUAQf9Ut1LwSQl_jBSPdP9qJTOzLEL0y-gJ24Npg_j3wiEtMWZRSFytTzGJQgLe6iZfQUGGK_8uqbWAxuZt0gdovUunqgzTh6KBMtirqQou0]--></g></svg>