<svg xmlns="http://www.w3.org/2000/svg" xmlns:xlink="http://www.w3.org/1999/xlink" contentStyleType="text/css" height="561px" preserveAspectRatio="none" style="width:1283px;height:561px;background:#FFFFFF;" version="1.1" viewBox="0 0 1283 561" width="1283px" zoomAndPan="magnify"><defs/><g><line style="stroke:#181818;stroke-width:0.5;stroke-dasharray:5.0,5.0;" x1="37" x2="37" y1="84.0679" y2="477.5579"/><line style="stroke:#181818;stroke-width:0.5;stroke-dasharray:5.0,5.0;" x1="159.395" x2="159.395" y1="84.0679" y2="477.5579"/><line style="stroke:#181818;stroke-width:0.5;stroke-dasharray:5.0,5.0;" x1="296.1983" x2="296.1983" y1="84.0679" y2="477.5579"/><line style="stroke:#181818;stroke-width:0.5;stroke-dasharray:5.0,5.0;" x1="423.0279" x2="423.0279" y1="84.0679" y2="477.5579"/><line style="stroke:#181818;stroke-width:0.5;stroke-dasharray:5.0,5.0;" x1="551.6695" x2="551.6695" y1="84.0679" y2="477.5579"/><line style="stroke:#181818;stroke-width:0.5;stroke-dasharray:5.0,5.0;" x1="677.6491" x2="677.6491" y1="84.0679" y2="477.5579"/><line style="stroke:#181818;stroke-width:0.5;stroke-dasharray:5.0,5.0;" x1="803.7808" x2="803.7808" y1="84.0679" y2="477.5579"/><line style="stroke:#181818;stroke-width:0.5;stroke-dasharray:5.0,5.0;" x1="936.1524" x2="936.1524" y1="84.0679" y2="477.5579"/><line style="stroke:#181818;stroke-width:0.5;stroke-dasharray:5.0,5.0;" x1="1065.556" x2="1065.556" y1="379.75" y2="477.5579"/><line style="stroke:#181818;stroke-width:0.5;stroke-dasharray:5.0,5.0;" x1="1205.5316" x2="1205.5316" y1="455.5239" y2="477.5579"/><text fill="#000000" font-family="sans-serif" font-size="14" lengthAdjust="spacing" textLength="58.1278" x="5" y="79.9659">Alumnos</text><ellipse cx="37.0639" cy="13.5" fill="#E2E2F0" rx="8" ry="8" style="stroke:#181818;stroke-width:0.5;"/><path d="M37.0639,21.5 L37.0639,48.5 M24.0639,29.5 L50.0639,29.5 M37.0639,48.5 L24.0639,63.5 M37.0639,48.5 L50.0639,63.5 " fill="none" style="stroke:#181818;stroke-width:0.5;"/><text fill="#000000" font-family="sans-serif" font-size="14" lengthAdjust="spacing" textLength="58.1278" x="5" y="491.5238">Alumnos</text><ellipse cx="37.0639" cy="504.1258" fill="#E2E2F0" rx="8" ry="8" style="stroke:#181818;stroke-width:0.5;"/><path d="M37.0639,512.1258 L37.0639,539.1258 M24.0639,520.1258 L50.0639,520.1258 M37.0639,539.1258 L24.0639,554.1258 M37.0639,539.1258 L50.0639,554.1258 " fill="none" style="stroke:#181818;stroke-width:0.5;"/><rect fill="#E2E2F0" height="33.0679" rx="2.5" ry="2.5" style="stroke:#181818;stroke-width:0.5;" width="46.5219" x="136.395" y="50"/><text fill="#000000" font-family="sans-serif" font-size="14" lengthAdjust="spacing" textLength="32.5219" x="143.395" y="71.9659">Urna</text><rect fill="#E2E2F0" height="33.0679" rx="2.5" ry="2.5" style="stroke:#181818;stroke-width:0.5;" width="46.5219" x="136.395" y="476.5579"/><text fill="#000000" font-family="sans-serif" font-size="14" lengthAdjust="spacing" textLength="32.5219" x="143.395" y="498.5238">Urna</text><rect fill="#E2E2F0" height="33.0679" rx="2.5" ry="2.5" style="stroke:#181818;stroke-width:0.5;" width="116.8296" x="238.1983" y="50"/><text fill="#000000" font-family="sans-serif" font-size="14" lengthAdjust="spacing" textLength="102.8296" x="245.1983" y="71.9659">SupervisorUrna</text><rect fill="#E2E2F0" height="33.0679" rx="2.5" ry="2.5" style="stroke:#181818;stroke-width:0.5;" width="116.8296" x="238.1983" y="476.5579"/><text fill="#000000" font-family="sans-serif" font-size="14" lengthAdjust="spacing" textLength="102.8296" x="245.1983" y="498.5238">SupervisorUrna</text><rect fill="#E2E2F0" height="33.0679" rx="2.5" ry="2.5" style="stroke:#181818;stroke-width:0.5;" width="117.6416" x="365.0279" y="50"/><text fill="#000000" font-family="sans-serif" font-size="14" lengthAdjust="spacing" textLength="103.6416" x="372.0279" y="71.9659">CandidatoJavier</text><rect fill="#E2E2F0" height="33.0679" rx="2.5" ry="2.5" style="stroke:#181818;stroke-width:0.5;" width="117.6416" x="365.0279" y="476.5579"/><text fill="#000000" font-family="sans-serif" font-size="14" lengthAdjust="spacing" textLength="103.6416" x="372.0279" y="498.5238">CandidatoJavier</text><rect fill="#E2E2F0" height="33.0679" rx="2.5" ry="2.5" style="stroke:#181818;stroke-width:0.5;" width="119.9796" x="492.6695" y="50"/><text fill="#000000" font-family="sans-serif" font-size="14" lengthAdjust="spacing" textLength="105.9796" x="499.6695" y="71.9659">CandidatoMario</text><rect fill="#E2E2F0" height="33.0679" rx="2.5" ry="2.5" style="stroke:#181818;stroke-width:0.5;" width="119.9796" x="492.6695" y="476.5579"/><text fill="#000000" font-family="sans-serif" font-size="14" lengthAdjust="spacing" textLength="105.9796" x="499.6695" y="498.5238">CandidatoMario</text><rect fill="#E2E2F0" height="33.0679" rx="2.5" ry="2.5" style="stroke:#181818;stroke-width:0.5;" width="111.1316" x="622.6491" y="50"/><text fill="#000000" font-family="sans-serif" font-size="14" lengthAdjust="spacing" textLength="97.1316" x="629.6491" y="71.9659">CandidatoElias</text><rect fill="#E2E2F0" height="33.0679" rx="2.5" ry="2.5" style="stroke:#181818;stroke-width:0.5;" width="111.1316" x="622.6491" y="476.5579"/><text fill="#000000" font-family="sans-serif" font-size="14" lengthAdjust="spacing" textLength="97.1316" x="629.6491" y="498.5238">CandidatoElias</text><rect fill="#E2E2F0" height="33.0679" rx="2.5" ry="2.5" style="stroke:#181818;stroke-width:0.5;" width="120.3716" x="743.7808" y="50"/><text fill="#000000" font-family="sans-serif" font-size="14" lengthAdjust="spacing" textLength="106.3716" x="750.7808" y="71.9659">CandidatoDiego</text><rect fill="#E2E2F0" height="33.0679" rx="2.5" ry="2.5" style="stroke:#181818;stroke-width:0.5;" width="120.3716" x="743.7808" y="476.5579"/><text fill="#000000" font-family="sans-serif" font-size="14" lengthAdjust="spacing" textLength="106.3716" x="750.7808" y="498.5238">CandidatoDiego</text><rect fill="#E2E2F0" height="33.0679" rx="2.5" ry="2.5" style="stroke:#181818;stroke-width:0.5;" width="124.4036" x="874.1524" y="50"/><text fill="#000000" font-family="sans-serif" font-size="14" lengthAdjust="spacing" textLength="110.4036" x="881.1524" y="71.9659">CandidatoMaura</text><rect fill="#E2E2F0" height="33.0679" rx="2.5" ry="2.5" style="stroke:#181818;stroke-width:0.5;" width="124.4036" x="874.1524" y="476.5579"/><text fill="#000000" font-family="sans-serif" font-size="14" lengthAdjust="spacing" textLength="110.4036" x="881.1524" y="498.5238">CandidatoMaura</text><rect fill="#E2E2F0" height="33.0679" rx="2.5" ry="2.5" style="stroke:#181818;stroke-width:0.5;" width="115.9756" x="1008.556" y="476.5579"/><text fill="#000000" font-family="sans-serif" font-size="14" lengthAdjust="spacing" textLength="101.9756" x="1015.556" y="498.5238">DelegadoDiego</text><rect fill="#E2E2F0" height="33.0679" rx="2.5" ry="2.5" style="stroke:#181818;stroke-width:0.5;" width="143.3455" x="1134.5316" y="476.5579"/><text fill="#000000" font-family="sans-serif" font-size="14" lengthAdjust="spacing" textLength="129.3455" x="1141.5316" y="498.5238">SubdelegadoMaura</text><polygon fill="#181818" points="147.656,113.7739,157.656,117.7739,147.656,121.7739,151.656,117.7739" style="stroke:#181818;stroke-width:1.0;"/><line style="stroke:#181818;stroke-width:1.0;" x1="37.0639" x2="153.656" y1="117.7739" y2="117.7739"/><text fill="#000000" font-family="sans-serif" font-size="13" lengthAdjust="spacing" textLength="98.5921" x="44.0639" y="111.9649">Voto candidatos</text><polygon fill="#181818" points="170.656,145.4799,160.656,149.4799,170.656,153.4799,166.656,149.4799" style="stroke:#181818;stroke-width:1.0;"/><line style="stroke:#181818;stroke-width:1.0;" x1="164.656" x2="295.6131" y1="149.4799" y2="149.4799"/><text fill="#000000" font-family="sans-serif" font-size="13" lengthAdjust="spacing" textLength="112.9571" x="176.656" y="143.6709">Recuento de votos</text><polygon fill="#181818" points="411.8487,177.186,421.8487,181.186,411.8487,185.186,415.8487,181.186" style="stroke:#181818;stroke-width:1.0;"/><line style="stroke:#181818;stroke-width:1.0;" x1="159.656" x2="417.8487" y1="181.186" y2="181.186"/><text fill="#000000" font-family="sans-serif" font-size="13" lengthAdjust="spacing" textLength="115.1931" x="166.656" y="175.377">Votos recibidos = 3</text><polygon fill="#181818" points="540.6593,208.892,550.6593,212.892,540.6593,216.892,544.6593,212.892" style="stroke:#181818;stroke-width:1.0;"/><line style="stroke:#181818;stroke-width:1.0;" x1="159.656" x2="546.6593" y1="212.892" y2="212.892"/><text fill="#000000" font-family="sans-serif" font-size="13" lengthAdjust="spacing" textLength="115.1931" x="166.656" y="207.083">Votos recibidos = 6</text><polygon fill="#181818" points="666.2149,240.598,676.2149,244.598,666.2149,248.598,670.2149,244.598" style="stroke:#181818;stroke-width:1.0;"/><line style="stroke:#181818;stroke-width:1.0;" x1="159.656" x2="672.2149" y1="244.598" y2="244.598"/><text fill="#000000" font-family="sans-serif" font-size="13" lengthAdjust="spacing" textLength="115.1931" x="166.656" y="238.789">Votos recibidos = 3</text><polygon fill="#181818" points="791.9666,272.304,801.9666,276.304,791.9666,280.304,795.9666,276.304" style="stroke:#181818;stroke-width:1.0;"/><line style="stroke:#181818;stroke-width:1.0;" x1="159.656" x2="797.9666" y1="276.304" y2="276.304"/><text fill="#000000" font-family="sans-serif" font-size="13" lengthAdjust="spacing" textLength="115.1931" x="166.656" y="270.495">Votos recibidos = 9</text><polygon fill="#181818" points="924.3542,304.01,934.3542,308.01,924.3542,312.01,928.3542,308.01" style="stroke:#181818;stroke-width:1.0;"/><line style="stroke:#181818;stroke-width:1.0;" x1="159.656" x2="930.3542" y1="308.01" y2="308.01"/><text fill="#000000" font-family="sans-serif" font-size="13" lengthAdjust="spacing" textLength="115.1931" x="166.656" y="302.201">Votos recibidos = 7</text><polygon fill="#181818" points="791.9666,335.716,801.9666,339.716,791.9666,343.716,795.9666,339.716" style="stroke:#181818;stroke-width:1.0;"/><line style="stroke:#181818;stroke-width:1.0;" x1="296.6131" x2="797.9666" y1="339.716" y2="339.716"/><text fill="#000000" font-family="sans-serif" font-size="13" lengthAdjust="spacing" textLength="61.9451" x="303.6131" y="333.907">M&#225;s votos</text><polygon fill="#181818" points="996.556,367.4221,1006.556,371.4221,996.556,375.4221,1000.556,371.4221" style="stroke:#181818;stroke-width:1.0;"/><line style="stroke:#181818;stroke-width:1.0;" x1="803.9666" x2="1002.556" y1="371.4221" y2="371.4221"/><text fill="#000000" font-family="sans-serif" font-size="13" lengthAdjust="spacing" textLength="117.2601" x="810.9666" y="365.6131">Delegado de grado</text><rect fill="#E2E2F0" height="33.0679" rx="2.5" ry="2.5" style="stroke:#181818;stroke-width:0.5;" width="115.9756" x="1008.556" y="347.716"/><text fill="#000000" font-family="sans-serif" font-size="14" lengthAdjust="spacing" textLength="101.9756" x="1015.556" y="369.682">DelegadoDiego</text><polygon fill="#181818" points="924.3542,411.49,934.3542,415.49,924.3542,419.49,928.3542,415.49" style="stroke:#181818;stroke-width:1.0;"/><line style="stroke:#181818;stroke-width:1.0;" x1="296.6131" x2="930.3542" y1="415.49" y2="415.49"/><text fill="#000000" font-family="sans-serif" font-size="13" lengthAdjust="spacing" textLength="120.0811" x="303.6131" y="409.681">Segundo m&#225;s votos</text><polygon fill="#181818" points="1122.5316,443.196,1132.5316,447.196,1122.5316,451.196,1126.5316,447.196" style="stroke:#181818;stroke-width:1.0;"/><line style="stroke:#181818;stroke-width:1.0;" x1="936.3542" x2="1128.5316" y1="447.196" y2="447.196"/><text fill="#000000" font-family="sans-serif" font-size="13" lengthAdjust="spacing" textLength="138.3591" x="943.3542" y="441.387">Subdelegada de grado</text><rect fill="#E2E2F0" height="33.0679" rx="2.5" ry="2.5" style="stroke:#181818;stroke-width:0.5;" width="143.3455" x="1134.5316" y="423.49"/><text fill="#000000" font-family="sans-serif" font-size="14" lengthAdjust="spacing" textLength="129.3455" x="1141.5316" y="445.4559">SubdelegadoMaura</text><!--SRC=[ZP51JiGm34NtEOKlm0e9H2MG4CC6QJPKmzwJM9MbJb8vIU_3MUPYf9cM8Mr0x9Byv-zl1tLm0izzF5ddrO0IMFE0Di11B1OFRHn8HlPEDj8BMiC6Wtl3aKdgsXw5NLrwxHbzNTenTUutmoYer1mURfvovWO-N72W5yehLIQ_Wk-a8za46uBHPNG1LXDTJ3q8QJwoIQT7kDt2USGQUxTbyyp_zCrBgB4FjGnfApNslhQ8TOlz-TClkz1260Xsr5E7Plw9ic2oAFJc-pejjPDq-BFjdBQbBjfKSzgsR-FHp9QN3ozh9xSrqlnumMkEBm00]--></g></svg>