<svg xmlns="http://www.w3.org/2000/svg" xmlns:xlink="http://www.w3.org/1999/xlink" contentStyleType="text/css" height="482px" preserveAspectRatio="none" style="width:446px;height:482px;background:#FFFFFF;" version="1.1" viewBox="0 0 446 482" width="446px" zoomAndPan="magnify"><defs/><g><!--class Alumno--><g id="elem_Alumno"><rect codeLine="2" fill="#F1F1F1" height="67.0679" id="Alumno" rx="2.5" ry="2.5" style="stroke:#181818;stroke-width:0.5;" width="83.4218" x="149" y="7"/><ellipse cx="164" cy="23" fill="#ADD1B2" rx="11" ry="11" style="stroke:#181818;stroke-width:1.0;"/><path d="M166.9688,28.6406 Q166.3906,28.9375 165.75,29.0781 Q165.1094,29.2344 164.4063,29.2344 Q161.9063,29.2344 160.5781,27.5938 Q159.2656,25.9375 159.2656,22.8125 Q159.2656,19.6875 160.5781,18.0313 Q161.9063,16.375 164.4063,16.375 Q165.1094,16.375 165.75,16.5313 Q166.4063,16.6875 166.9688,16.9844 L166.9688,19.7031 Q166.3438,19.125 165.75,18.8594 Q165.1563,18.5781 164.5313,18.5781 Q163.1875,18.5781 162.5,19.6563 Q161.8125,20.7188 161.8125,22.8125 Q161.8125,24.9063 162.5,25.9844 Q163.1875,27.0469 164.5313,27.0469 Q165.1563,27.0469 165.75,26.7813 Q166.3438,26.5 166.9688,25.9219 L166.9688,28.6406 Z " fill="#000000"/><text fill="#000000" font-family="sans-serif" font-size="14" lengthAdjust="spacing" textLength="51.4218" x="178" y="28.432">Alumno</text><line style="stroke:#181818;stroke-width:0.5;" x1="150" x2="231.4218" y1="39" y2="39"/><rect fill="none" height="6" style="stroke:#C82930;stroke-width:1.0;" width="6" x="157" y="51.034"/><text fill="#000000" font-family="sans-serif" font-size="14" lengthAdjust="spacing" textLength="52.4998" x="169" y="57.9659">nombre</text><line style="stroke:#181818;stroke-width:0.5;" x1="150" x2="231.4218" y1="66.0679" y2="66.0679"/></g><!--class Candidato--><g id="elem_Candidato"><rect codeLine="6" fill="#F1F1F1" height="67.0679" id="Candidato" rx="2.5" ry="2.5" style="stroke:#181818;stroke-width:0.5;" width="124.7556" x="7" y="281"/><ellipse cx="33.3363" cy="297" fill="#ADD1B2" rx="11" ry="11" style="stroke:#181818;stroke-width:1.0;"/><path d="M36.3051,302.6406 Q35.727,302.9375 35.0863,303.0781 Q34.4457,303.2344 33.7426,303.2344 Q31.2426,303.2344 29.9145,301.5938 Q28.602,299.9375 28.602,296.8125 Q28.602,293.6875 29.9145,292.0313 Q31.2426,290.375 33.7426,290.375 Q34.4457,290.375 35.0863,290.5313 Q35.7426,290.6875 36.3051,290.9844 L36.3051,293.7031 Q35.6801,293.125 35.0863,292.8594 Q34.4926,292.5781 33.8676,292.5781 Q32.5238,292.5781 31.8363,293.6563 Q31.1488,294.7188 31.1488,296.8125 Q31.1488,298.9063 31.8363,299.9844 Q32.5238,301.0469 33.8676,301.0469 Q34.4926,301.0469 35.0863,300.7813 Q35.6801,300.5 36.3051,299.9219 L36.3051,302.6406 Z " fill="#000000"/><text fill="#000000" font-family="sans-serif" font-size="14" lengthAdjust="spacing" textLength="67.5638" x="49.8555" y="302.432">Candidato</text><line style="stroke:#181818;stroke-width:0.5;" x1="8" x2="130.7556" y1="313" y2="313"/><rect fill="none" height="6" style="stroke:#C82930;stroke-width:1.0;" width="6" x="15" y="325.034"/><text fill="#000000" font-family="sans-serif" font-size="14" lengthAdjust="spacing" textLength="98.7556" x="27" y="331.9659">votosRecibidos</text><line style="stroke:#181818;stroke-width:0.5;" x1="8" x2="130.7556" y1="340.0679" y2="340.0679"/></g><!--class Voto--><g id="elem_Voto"><rect codeLine="10" fill="#F1F1F1" height="67.0679" id="Voto" rx="2.5" ry="2.5" style="stroke:#181818;stroke-width:0.5;" width="146.0636" x="293.5" y="153"/><ellipse cx="347.0848" cy="169" fill="#ADD1B2" rx="11" ry="11" style="stroke:#181818;stroke-width:1.0;"/><path d="M350.0536,174.6406 Q349.4755,174.9375 348.8348,175.0781 Q348.1942,175.2344 347.4911,175.2344 Q344.9911,175.2344 343.663,173.5938 Q342.3505,171.9375 342.3505,168.8125 Q342.3505,165.6875 343.663,164.0313 Q344.9911,162.375 347.4911,162.375 Q348.1942,162.375 348.8348,162.5313 Q349.4911,162.6875 350.0536,162.9844 L350.0536,165.7031 Q349.4286,165.125 348.8348,164.8594 Q348.2411,164.5781 347.6161,164.5781 Q346.2723,164.5781 345.5848,165.6563 Q344.8973,166.7188 344.8973,168.8125 Q344.8973,170.9063 345.5848,171.9844 Q346.2723,173.0469 347.6161,173.0469 Q348.2411,173.0469 348.8348,172.7813 Q349.4286,172.5 350.0536,171.9219 L350.0536,174.6406 Z " fill="#000000"/><text fill="#000000" font-family="sans-serif" font-size="14" lengthAdjust="spacing" textLength="30.3939" x="367.5848" y="174.432">Voto</text><line style="stroke:#181818;stroke-width:0.5;" x1="294.5" x2="438.5636" y1="185" y2="185"/><rect fill="none" height="6" style="stroke:#C82930;stroke-width:1.0;" width="6" x="301.5" y="197.034"/><text fill="#000000" font-family="sans-serif" font-size="14" lengthAdjust="spacing" textLength="120.0636" x="313.5" y="203.9659">nombreCandidato</text><line style="stroke:#181818;stroke-width:0.5;" x1="294.5" x2="438.5636" y1="212.0679" y2="212.0679"/></g><!--class Urna--><g id="elem_Urna"><rect codeLine="14" fill="#F1F1F1" height="67.0679" id="Urna" rx="2.5" ry="2.5" style="stroke:#181818;stroke-width:0.5;" width="64.5219" x="168" y="281"/><ellipse cx="183" cy="297" fill="#ADD1B2" rx="11" ry="11" style="stroke:#181818;stroke-width:1.0;"/><path d="M185.9688,302.6406 Q185.3906,302.9375 184.75,303.0781 Q184.1094,303.2344 183.4063,303.2344 Q180.9063,303.2344 179.5781,301.5938 Q178.2656,299.9375 178.2656,296.8125 Q178.2656,293.6875 179.5781,292.0313 Q180.9063,290.375 183.4063,290.375 Q184.1094,290.375 184.75,290.5313 Q185.4063,290.6875 185.9688,290.9844 L185.9688,293.7031 Q185.3438,293.125 184.75,292.8594 Q184.1563,292.5781 183.5313,292.5781 Q182.1875,292.5781 181.5,293.6563 Q180.8125,294.7188 180.8125,296.8125 Q180.8125,298.9063 181.5,299.9844 Q182.1875,301.0469 183.5313,301.0469 Q184.1563,301.0469 184.75,300.7813 Q185.3438,300.5 185.9688,299.9219 L185.9688,302.6406 Z " fill="#000000"/><text fill="#000000" font-family="sans-serif" font-size="14" lengthAdjust="spacing" textLength="32.5219" x="197" y="302.432">Urna</text><line style="stroke:#181818;stroke-width:0.5;" x1="169" x2="231.5219" y1="313" y2="313"/><rect fill="none" height="6" style="stroke:#C82930;stroke-width:1.0;" width="6" x="176" y="325.034"/><text fill="#000000" font-family="sans-serif" font-size="14" lengthAdjust="spacing" textLength="35.8119" x="188" y="331.9659">votos</text><line style="stroke:#181818;stroke-width:0.5;" x1="169" x2="231.5219" y1="340.0679" y2="340.0679"/></g><!--class SupervisorUrna--><g id="elem_SupervisorUrna"><rect codeLine="18" fill="#F1F1F1" height="48" id="SupervisorUrna" rx="2.5" ry="2.5" style="stroke:#181818;stroke-width:0.5;" width="134.8296" x="123" y="162.5"/><ellipse cx="138" cy="178.5" fill="#ADD1B2" rx="11" ry="11" style="stroke:#181818;stroke-width:1.0;"/><path d="M140.9688,184.1406 Q140.3906,184.4375 139.75,184.5781 Q139.1094,184.7344 138.4063,184.7344 Q135.9063,184.7344 134.5781,183.0938 Q133.2656,181.4375 133.2656,178.3125 Q133.2656,175.1875 134.5781,173.5313 Q135.9063,171.875 138.4063,171.875 Q139.1094,171.875 139.75,172.0313 Q140.4063,172.1875 140.9688,172.4844 L140.9688,175.2031 Q140.3438,174.625 139.75,174.3594 Q139.1563,174.0781 138.5313,174.0781 Q137.1875,174.0781 136.5,175.1563 Q135.8125,176.2188 135.8125,178.3125 Q135.8125,180.4063 136.5,181.4844 Q137.1875,182.5469 138.5313,182.5469 Q139.1563,182.5469 139.75,182.2813 Q140.3438,182 140.9688,181.4219 L140.9688,184.1406 Z " fill="#000000"/><text fill="#000000" font-family="sans-serif" font-size="14" lengthAdjust="spacing" textLength="102.8296" x="152" y="183.932">SupervisorUrna</text><line style="stroke:#181818;stroke-width:0.5;" x1="124" x2="256.8296" y1="194.5" y2="194.5"/><line style="stroke:#181818;stroke-width:0.5;" x1="124" x2="256.8296" y1="202.5" y2="202.5"/></g><!--class Delegado--><g id="elem_Delegado"><rect codeLine="21" fill="#F1F1F1" height="48" id="Delegado" rx="2.5" ry="2.5" style="stroke:#181818;stroke-width:0.5;" width="95.1678" x="13" y="427"/><ellipse cx="28" cy="443" fill="#ADD1B2" rx="11" ry="11" style="stroke:#181818;stroke-width:1.0;"/><path d="M30.9688,448.6406 Q30.3906,448.9375 29.75,449.0781 Q29.1094,449.2344 28.4063,449.2344 Q25.9063,449.2344 24.5781,447.5938 Q23.2656,445.9375 23.2656,442.8125 Q23.2656,439.6875 24.5781,438.0313 Q25.9063,436.375 28.4063,436.375 Q29.1094,436.375 29.75,436.5313 Q30.4063,436.6875 30.9688,436.9844 L30.9688,439.7031 Q30.3438,439.125 29.75,438.8594 Q29.1563,438.5781 28.5313,438.5781 Q27.1875,438.5781 26.5,439.6563 Q25.8125,440.7188 25.8125,442.8125 Q25.8125,444.9063 26.5,445.9844 Q27.1875,447.0469 28.5313,447.0469 Q29.1563,447.0469 29.75,446.7813 Q30.3438,446.5 30.9688,445.9219 L30.9688,448.6406 Z " fill="#000000"/><text fill="#000000" font-family="sans-serif" font-size="14" lengthAdjust="spacing" textLength="63.1678" x="42" y="448.432">Delegado</text><line style="stroke:#181818;stroke-width:0.5;" x1="14" x2="107.1678" y1="459" y2="459"/><line style="stroke:#181818;stroke-width:0.5;" x1="14" x2="107.1678" y1="467" y2="467"/></g><!--class Subdelegado--><g id="elem_Subdelegado"><rect codeLine="24" fill="#F1F1F1" height="48" id="Subdelegado" rx="2.5" ry="2.5" style="stroke:#181818;stroke-width:0.5;" width="118.5057" x="143" y="427"/><ellipse cx="158" cy="443" fill="#ADD1B2" rx="11" ry="11" style="stroke:#181818;stroke-width:1.0;"/><path d="M160.9688,448.6406 Q160.3906,448.9375 159.75,449.0781 Q159.1094,449.2344 158.4063,449.2344 Q155.9063,449.2344 154.5781,447.5938 Q153.2656,445.9375 153.2656,442.8125 Q153.2656,439.6875 154.5781,438.0313 Q155.9063,436.375 158.4063,436.375 Q159.1094,436.375 159.75,436.5313 Q160.4063,436.6875 160.9688,436.9844 L160.9688,439.7031 Q160.3438,439.125 159.75,438.8594 Q159.1563,438.5781 158.5313,438.5781 Q157.1875,438.5781 156.5,439.6563 Q155.8125,440.7188 155.8125,442.8125 Q155.8125,444.9063 156.5,445.9844 Q157.1875,447.0469 158.5313,447.0469 Q159.1563,447.0469 159.75,446.7813 Q160.3438,446.5 160.9688,445.9219 L160.9688,448.6406 Z " fill="#000000"/><text fill="#000000" font-family="sans-serif" font-size="14" lengthAdjust="spacing" textLength="86.5057" x="172" y="448.432">Subdelegado</text><line style="stroke:#181818;stroke-width:0.5;" x1="144" x2="260.5057" y1="459" y2="459"/><line style="stroke:#181818;stroke-width:0.5;" x1="144" x2="260.5057" y1="467" y2="467"/></g><!--link Alumno to Voto--><g id="link_Alumno_Voto"><path codeLine="27" d="M230.44,74.18 C259.24,97.74 293.3055,125.6215 322.0755,149.1515 " fill="none" id="Alumno-to-Voto" style="stroke:#181818;stroke-width:1.0;"/><polygon fill="#181818" points="326.72,152.95,322.2857,144.1559,322.8496,149.7845,317.2209,150.3485,326.72,152.95" style="stroke:#181818;stroke-width:1.0;"/></g><!--link Voto to Urna--><g id="link_Voto_Urna"><path codeLine="28" d="M323.32,220.28 C295.17,241.64 263.799,265.4522 238.019,285.0222 " fill="none" id="Voto-to-Urna" style="stroke:#181818;stroke-width:1.0;"/><polygon fill="#181818" points="233.24,288.65,242.8271,286.3943,237.2225,285.6268,237.99,280.0223,233.24,288.65" style="stroke:#181818;stroke-width:1.0;"/></g><!--link SupervisorUrna to Urna--><g id="link_SupervisorUrna_Urna"><path codeLine="29" d="M192.33,210.61 C193.89,230.22 196.14,258.59 197.89,280.57 " fill="none" id="SupervisorUrna-Urna" style="stroke:#181818;stroke-width:1.0;"/></g><!--reverse link Alumno to SupervisorUrna--><g id="link_Alumno_SupervisorUrna"><path codeLine="30" d="M190.5,86.18 C190.5,113.06 190.5,138.5 190.5,162.37 " fill="none" id="Alumno-backto-SupervisorUrna" style="stroke:#181818;stroke-width:1.0;stroke-dasharray:7.0,7.0;"/><polygon fill="#181818" points="190.5,74.18,186.5,80.18,190.5,86.18,194.5,80.18,190.5,74.18" style="stroke:#181818;stroke-width:1.0;"/><text fill="#000000" font-family="sans-serif" font-size="13" lengthAdjust="spacing" textLength="7.436" x="191.5" y="118.897">1</text></g><!--link Urna to Delegado--><g id="link_Urna_Delegado"><path codeLine="32" d="M177.74,348.24 C166.06,363.88 151.03,382.34 135.5,397 C124.02,407.83 110.2,418.21 97.57,426.87 " fill="none" id="Urna-Delegado" style="stroke:#181818;stroke-width:1.0;stroke-dasharray:7.0,7.0;"/></g><!--link Urna to Subdelegado--><g id="link_Urna_Subdelegado"><path codeLine="33" d="M200.98,348.06 C201.34,372.32 201.83,404.86 202.15,426.59 " fill="none" id="Urna-Subdelegado" style="stroke:#181818;stroke-width:1.0;stroke-dasharray:7.0,7.0;"/></g><!--link Alumno to Candidato--><g id="link_Alumno_Candidato"><path codeLine="35" d="M159.54,74.14 C141.24,95.14 119.07,123.88 105.5,153 C86.08,194.68 76.85,247.41 72.67,280.81 " fill="none" id="Alumno-Candidato" style="stroke:#181818;stroke-width:1.0;"/></g><!--reverse link Candidato to Delegado--><g id="link_Candidato_Delegado"><path codeLine="36" d="M66.5205,360.0333 C64.9005,384.2933 63.52,404.86 62.07,426.59 " fill="none" id="Candidato-backto-Delegado" style="stroke:#181818;stroke-width:1.0;"/><polygon fill="#181818" points="67.32,348.06,62.9291,353.7802,66.5205,360.0333,70.9113,354.3132,67.32,348.06" style="stroke:#181818;stroke-width:1.0;"/><text fill="#000000" font-family="sans-serif" font-size="13" lengthAdjust="spacing" textLength="7.436" x="66.5" y="392.897">1</text></g><!--reverse link Candidato to Subdelegado--><g id="link_Candidato_Subdelegado"><path codeLine="37" d="M110.1359,356.5944 C134.1159,380.8544 157.87,404.86 179.35,426.59 " fill="none" id="Candidato-backto-Subdelegado" style="stroke:#181818;stroke-width:1.0;"/><polygon fill="#181818" points="101.7,348.06,103.0731,355.1392,110.1359,356.5944,108.7627,349.5152,101.7,348.06" style="stroke:#181818;stroke-width:1.0;"/><text fill="#000000" font-family="sans-serif" font-size="13" lengthAdjust="spacing" textLength="7.436" x="149.5" y="392.897">1</text></g><!--SRC=[NP0n3iCW34Ltdy9p929rxL2fQa_GgDqXe0g9u0f2bgXtRw09a6pmd_s_xTvmx_5gmc09Pq1aQ6aGJi4Ne4_mngtKaeyRdsWa_r2z5bgIBtKl6lSMkR7KF9tbjKqXNVWeDsbFRgt9vAwCUdD9jTO58NVokW5ZbpG7f67YBxh1mPonlxmsDMrxZ3_Z2I2z5hODa8KglKekXu9oicRHymBHTO_gFIBz0G00]--></g></svg>