<svg xmlns="http://www.w3.org/2000/svg" xmlns:xlink="http://www.w3.org/1999/xlink" contentStyleType="text/css" height="629px" preserveAspectRatio="none" style="width:426px;height:629px;background:#FFFFFF;" version="1.1" viewBox="0 0 426 629" width="426px" zoomAndPan="magnify"><defs/><g><!--class Alumno--><g id="elem_Alumno"><rect codeLine="2" fill="#F1F1F1" height="67.0679" id="Alumno" rx="2.5" ry="2.5" style="stroke:#181818;stroke-width:0.5;" width="83.4218" x="163" y="7"/><ellipse cx="178" cy="23" fill="#ADD1B2" rx="11" ry="11" style="stroke:#181818;stroke-width:1.0;"/><path d="M180.9688,28.6406 Q180.3906,28.9375 179.75,29.0781 Q179.1094,29.2344 178.4063,29.2344 Q175.9063,29.2344 174.5781,27.5938 Q173.2656,25.9375 173.2656,22.8125 Q173.2656,19.6875 174.5781,18.0313 Q175.9063,16.375 178.4063,16.375 Q179.1094,16.375 179.75,16.5313 Q180.4063,16.6875 180.9688,16.9844 L180.9688,19.7031 Q180.3438,19.125 179.75,18.8594 Q179.1563,18.5781 178.5313,18.5781 Q177.1875,18.5781 176.5,19.6563 Q175.8125,20.7188 175.8125,22.8125 Q175.8125,24.9063 176.5,25.9844 Q177.1875,27.0469 178.5313,27.0469 Q179.1563,27.0469 179.75,26.7813 Q180.3438,26.5 180.9688,25.9219 L180.9688,28.6406 Z " fill="#000000"/><text fill="#000000" font-family="sans-serif" font-size="14" lengthAdjust="spacing" textLength="51.4218" x="192" y="28.432">Alumno</text><line style="stroke:#181818;stroke-width:0.5;" x1="164" x2="245.4218" y1="39" y2="39"/><rect fill="none" height="6" style="stroke:#C82930;stroke-width:1.0;" width="6" x="171" y="51.034"/><text fill="#000000" font-family="sans-serif" font-size="14" lengthAdjust="spacing" textLength="39.3259" x="183" y="57.9659">grado</text><line style="stroke:#181818;stroke-width:0.5;" x1="164" x2="245.4218" y1="66.0679" y2="66.0679"/></g><!--class Candidato--><g id="elem_Candidato"><rect codeLine="6" fill="#F1F1F1" height="86.1358" id="Candidato" rx="2.5" ry="2.5" style="stroke:#181818;stroke-width:0.5;" width="124.7556" x="63" y="409"/><ellipse cx="89.3363" cy="425" fill="#ADD1B2" rx="11" ry="11" style="stroke:#181818;stroke-width:1.0;"/><path d="M92.3051,430.6406 Q91.727,430.9375 91.0863,431.0781 Q90.4457,431.2344 89.7426,431.2344 Q87.2426,431.2344 85.9145,429.5938 Q84.602,427.9375 84.602,424.8125 Q84.602,421.6875 85.9145,420.0313 Q87.2426,418.375 89.7426,418.375 Q90.4457,418.375 91.0863,418.5313 Q91.7426,418.6875 92.3051,418.9844 L92.3051,421.7031 Q91.6801,421.125 91.0863,420.8594 Q90.4926,420.5781 89.8676,420.5781 Q88.5238,420.5781 87.8363,421.6563 Q87.1488,422.7188 87.1488,424.8125 Q87.1488,426.9063 87.8363,427.9844 Q88.5238,429.0469 89.8676,429.0469 Q90.4926,429.0469 91.0863,428.7813 Q91.6801,428.5 92.3051,427.9219 L92.3051,430.6406 Z " fill="#000000"/><text fill="#000000" font-family="sans-serif" font-size="14" lengthAdjust="spacing" textLength="67.5638" x="105.8555" y="430.432">Candidato</text><line style="stroke:#181818;stroke-width:0.5;" x1="64" x2="186.7556" y1="441" y2="441"/><rect fill="none" height="6" style="stroke:#C82930;stroke-width:1.0;" width="6" x="71" y="453.034"/><text fill="#000000" font-family="sans-serif" font-size="14" lengthAdjust="spacing" textLength="52.4998" x="83" y="459.9659">nombre</text><rect fill="none" height="6" style="stroke:#C82930;stroke-width:1.0;" width="6" x="71" y="472.1019"/><text fill="#000000" font-family="sans-serif" font-size="14" lengthAdjust="spacing" textLength="98.7556" x="83" y="479.0339">votosRecibidos</text><line style="stroke:#181818;stroke-width:0.5;" x1="64" x2="186.7556" y1="487.1358" y2="487.1358"/></g><!--class Voto--><g id="elem_Voto"><rect codeLine="11" fill="#F1F1F1" height="67.0679" id="Voto" rx="2.5" ry="2.5" style="stroke:#181818;stroke-width:0.5;" width="91.4358" x="159" y="153"/><ellipse cx="187.0688" cy="169" fill="#ADD1B2" rx="11" ry="11" style="stroke:#181818;stroke-width:1.0;"/><path d="M190.0376,174.6406 Q189.4595,174.9375 188.8188,175.0781 Q188.1782,175.2344 187.4751,175.2344 Q184.9751,175.2344 183.647,173.5938 Q182.3345,171.9375 182.3345,168.8125 Q182.3345,165.6875 183.647,164.0313 Q184.9751,162.375 187.4751,162.375 Q188.1782,162.375 188.8188,162.5313 Q189.4751,162.6875 190.0376,162.9844 L190.0376,165.7031 Q189.4126,165.125 188.8188,164.8594 Q188.2251,164.5781 187.6001,164.5781 Q186.2563,164.5781 185.5688,165.6563 Q184.8813,166.7188 184.8813,168.8125 Q184.8813,170.9063 185.5688,171.9844 Q186.2563,173.0469 187.6001,173.0469 Q188.2251,173.0469 188.8188,172.7813 Q189.4126,172.5 190.0376,171.9219 L190.0376,174.6406 Z " fill="#000000"/><text fill="#000000" font-family="sans-serif" font-size="14" lengthAdjust="spacing" textLength="30.3939" x="203.973" y="174.432">Voto</text><line style="stroke:#181818;stroke-width:0.5;" x1="160" x2="249.4358" y1="185" y2="185"/><rect fill="none" height="6" style="stroke:#C82930;stroke-width:1.0;" width="6" x="167" y="197.034"/><text fill="#000000" font-family="sans-serif" font-size="14" lengthAdjust="spacing" textLength="65.4358" x="179" y="203.9659">candidato</text><line style="stroke:#181818;stroke-width:0.5;" x1="160" x2="249.4358" y1="212.0679" y2="212.0679"/></g><!--class Urna--><g id="elem_Urna"><rect codeLine="15" fill="#F1F1F1" height="67.0679" id="Urna" rx="2.5" ry="2.5" style="stroke:#181818;stroke-width:0.5;" width="64.5219" x="172" y="281"/><ellipse cx="187" cy="297" fill="#ADD1B2" rx="11" ry="11" style="stroke:#181818;stroke-width:1.0;"/><path d="M189.9688,302.6406 Q189.3906,302.9375 188.75,303.0781 Q188.1094,303.2344 187.4063,303.2344 Q184.9063,303.2344 183.5781,301.5938 Q182.2656,299.9375 182.2656,296.8125 Q182.2656,293.6875 183.5781,292.0313 Q184.9063,290.375 187.4063,290.375 Q188.1094,290.375 188.75,290.5313 Q189.4063,290.6875 189.9688,290.9844 L189.9688,293.7031 Q189.3438,293.125 188.75,292.8594 Q188.1563,292.5781 187.5313,292.5781 Q186.1875,292.5781 185.5,293.6563 Q184.8125,294.7188 184.8125,296.8125 Q184.8125,298.9063 185.5,299.9844 Q186.1875,301.0469 187.5313,301.0469 Q188.1563,301.0469 188.75,300.7813 Q189.3438,300.5 189.9688,299.9219 L189.9688,302.6406 Z " fill="#000000"/><text fill="#000000" font-family="sans-serif" font-size="14" lengthAdjust="spacing" textLength="32.5219" x="201" y="302.432">Urna</text><line style="stroke:#181818;stroke-width:0.5;" x1="173" x2="235.5219" y1="313" y2="313"/><rect fill="none" height="6" style="stroke:#C82930;stroke-width:1.0;" width="6" x="180" y="325.034"/><text fill="#000000" font-family="sans-serif" font-size="14" lengthAdjust="spacing" textLength="35.8119" x="192" y="331.9659">votos</text><line style="stroke:#181818;stroke-width:0.5;" x1="173" x2="235.5219" y1="340.0679" y2="340.0679"/></g><!--class SupervisorUrna--><g id="elem_SupervisorUrna"><rect codeLine="19" fill="#F1F1F1" height="48" id="SupervisorUrna" rx="2.5" ry="2.5" style="stroke:#181818;stroke-width:0.5;" width="134.8296" x="285" y="162.5"/><ellipse cx="300" cy="178.5" fill="#ADD1B2" rx="11" ry="11" style="stroke:#181818;stroke-width:1.0;"/><path d="M302.9688,184.1406 Q302.3906,184.4375 301.75,184.5781 Q301.1094,184.7344 300.4063,184.7344 Q297.9063,184.7344 296.5781,183.0938 Q295.2656,181.4375 295.2656,178.3125 Q295.2656,175.1875 296.5781,173.5313 Q297.9063,171.875 300.4063,171.875 Q301.1094,171.875 301.75,172.0313 Q302.4063,172.1875 302.9688,172.4844 L302.9688,175.2031 Q302.3438,174.625 301.75,174.3594 Q301.1563,174.0781 300.5313,174.0781 Q299.1875,174.0781 298.5,175.1563 Q297.8125,176.2188 297.8125,178.3125 Q297.8125,180.4063 298.5,181.4844 Q299.1875,182.5469 300.5313,182.5469 Q301.1563,182.5469 301.75,182.2813 Q302.3438,182 302.9688,181.4219 L302.9688,184.1406 Z " fill="#000000"/><text fill="#000000" font-family="sans-serif" font-size="14" lengthAdjust="spacing" textLength="102.8296" x="314" y="183.932">SupervisorUrna</text><line style="stroke:#181818;stroke-width:0.5;" x1="286" x2="418.8296" y1="194.5" y2="194.5"/><line style="stroke:#181818;stroke-width:0.5;" x1="286" x2="418.8296" y1="202.5" y2="202.5"/></g><!--class Delegado--><g id="elem_Delegado"><rect codeLine="22" fill="#F1F1F1" height="48" id="Delegado" rx="2.5" ry="2.5" style="stroke:#181818;stroke-width:0.5;" width="95.1678" x="7" y="574"/><ellipse cx="22" cy="590" fill="#ADD1B2" rx="11" ry="11" style="stroke:#181818;stroke-width:1.0;"/><path d="M24.9688,595.6406 Q24.3906,595.9375 23.75,596.0781 Q23.1094,596.2344 22.4063,596.2344 Q19.9063,596.2344 18.5781,594.5938 Q17.2656,592.9375 17.2656,589.8125 Q17.2656,586.6875 18.5781,585.0313 Q19.9063,583.375 22.4063,583.375 Q23.1094,583.375 23.75,583.5313 Q24.4063,583.6875 24.9688,583.9844 L24.9688,586.7031 Q24.3438,586.125 23.75,585.8594 Q23.1563,585.5781 22.5313,585.5781 Q21.1875,585.5781 20.5,586.6563 Q19.8125,587.7188 19.8125,589.8125 Q19.8125,591.9063 20.5,592.9844 Q21.1875,594.0469 22.5313,594.0469 Q23.1563,594.0469 23.75,593.7813 Q24.3438,593.5 24.9688,592.9219 L24.9688,595.6406 Z " fill="#000000"/><text fill="#000000" font-family="sans-serif" font-size="14" lengthAdjust="spacing" textLength="63.1678" x="36" y="595.432">Delegado</text><line style="stroke:#181818;stroke-width:0.5;" x1="8" x2="101.1678" y1="606" y2="606"/><line style="stroke:#181818;stroke-width:0.5;" x1="8" x2="101.1678" y1="614" y2="614"/></g><!--class Subdelegado--><g id="elem_Subdelegado"><rect codeLine="25" fill="#F1F1F1" height="48" id="Subdelegado" rx="2.5" ry="2.5" style="stroke:#181818;stroke-width:0.5;" width="118.5057" x="137" y="574"/><ellipse cx="152" cy="590" fill="#ADD1B2" rx="11" ry="11" style="stroke:#181818;stroke-width:1.0;"/><path d="M154.9688,595.6406 Q154.3906,595.9375 153.75,596.0781 Q153.1094,596.2344 152.4063,596.2344 Q149.9063,596.2344 148.5781,594.5938 Q147.2656,592.9375 147.2656,589.8125 Q147.2656,586.6875 148.5781,585.0313 Q149.9063,583.375 152.4063,583.375 Q153.1094,583.375 153.75,583.5313 Q154.4063,583.6875 154.9688,583.9844 L154.9688,586.7031 Q154.3438,586.125 153.75,585.8594 Q153.1563,585.5781 152.5313,585.5781 Q151.1875,585.5781 150.5,586.6563 Q149.8125,587.7188 149.8125,589.8125 Q149.8125,591.9063 150.5,592.9844 Q151.1875,594.0469 152.5313,594.0469 Q153.1563,594.0469 153.75,593.7813 Q154.3438,593.5 154.9688,592.9219 L154.9688,595.6406 Z " fill="#000000"/><text fill="#000000" font-family="sans-serif" font-size="14" lengthAdjust="spacing" textLength="86.5057" x="166" y="595.432">Subdelegado</text><line style="stroke:#181818;stroke-width:0.5;" x1="138" x2="254.5057" y1="606" y2="606"/><line style="stroke:#181818;stroke-width:0.5;" x1="138" x2="254.5057" y1="614" y2="614"/></g><!--link Alumno to Voto--><g id="link_Alumno_Voto"><path codeLine="28" d="M204.5,74.18 C204.5,97.74 204.5,123.42 204.5,146.95 " fill="none" id="Alumno-to-Voto" style="stroke:#181818;stroke-width:1.0;"/><polygon fill="#181818" points="204.5,152.95,208.5,143.95,204.5,147.95,200.5,143.95,204.5,152.95" style="stroke:#181818;stroke-width:1.0;"/></g><!--link Voto to Urna--><g id="link_Voto_Urna"><path codeLine="29" d="M204.5,220.28 C204.5,238.94 204.5,256.25 204.5,274.89 " fill="none" id="Voto-to-Urna" style="stroke:#181818;stroke-width:1.0;"/><polygon fill="#181818" points="204.5,280.89,208.5,271.89,204.5,275.89,200.5,271.89,204.5,280.89" style="stroke:#181818;stroke-width:1.0;"/></g><!--link SupervisorUrna to Urna--><g id="link_SupervisorUrna_Urna"><path codeLine="30" d="M325.35,210.61 C300.49,231.78 263.63,263.16 237.16,285.7 " fill="none" id="SupervisorUrna-Urna" style="stroke:#181818;stroke-width:1.0;"/></g><!--reverse link Alumno to SupervisorUrna--><g id="link_Alumno_SupervisorUrna"><path codeLine="31" d="M246.6827,82.5462 C274.3227,109.4262 304.19,138.5 328.73,162.37 " fill="none" id="Alumno-backto-SupervisorUrna" style="stroke:#181818;stroke-width:1.0;stroke-dasharray:7.0,7.0;"/><polygon fill="#181818" points="238.08,74.18,239.5926,81.2307,246.6827,82.5462,245.1701,75.4955,238.08,74.18" style="stroke:#181818;stroke-width:1.0;"/><text fill="#000000" font-family="sans-serif" font-size="13" lengthAdjust="spacing" textLength="7.436" x="288.5" y="118.897">1</text></g><!--link Urna to Candidato--><g id="link_Urna_Candidato"><path codeLine="33" d="M185.38,348.3 C174.78,366.47 161.49,389.26 150.13,408.75 " fill="none" id="Urna-Candidato" style="stroke:#181818;stroke-width:1.0;stroke-dasharray:7.0,7.0;"/></g><!--link Alumno to Candidato--><g id="link_Alumno_Candidato"><path codeLine="35" d="M180.58,74.33 C166.47,95.63 149.78,124.61 141.5,153 C115.81,241.03 117.99,349.79 121.79,408.53 " fill="none" id="Alumno-Candidato" style="stroke:#181818;stroke-width:1.0;"/></g><!--reverse link Candidato to Delegado--><g id="link_Candidato_Delegado"><path codeLine="36" d="M99.4621,505.8022 C86.7721,531.5322 76.33,552.72 65.88,573.93 " fill="none" id="Candidato-backto-Delegado" style="stroke:#181818;stroke-width:1.0;"/><polygon fill="#181818" points="104.77,495.04,98.5286,498.6518,99.4621,505.8022,105.7035,502.1904,104.77,495.04" style="stroke:#181818;stroke-width:1.0;"/><text fill="#000000" font-family="sans-serif" font-size="13" lengthAdjust="spacing" textLength="7.436" x="91.5" y="539.897">1</text></g><!--reverse link Candidato to Subdelegado--><g id="link_Candidato_Subdelegado"><path codeLine="37" d="M151.5379,505.8022 C164.2279,531.5322 174.67,552.72 185.12,573.93 " fill="none" id="Candidato-backto-Subdelegado" style="stroke:#181818;stroke-width:1.0;"/><polygon fill="#181818" points="146.23,495.04,145.2965,502.1904,151.5379,505.8022,152.4714,498.6518,146.23,495.04" style="stroke:#181818;stroke-width:1.0;"/><text fill="#000000" font-family="sans-serif" font-size="13" lengthAdjust="spacing" textLength="7.436" x="170.5" y="539.897">1</text></g><!--SRC=[NP0z3iCW38Ltdu8v4f6wTgXKjITerExyAK8Yk88aIzMx5oW1aisyptv-M1ZcFRcQPR98Fa089QDZ4k4B81AxCIkrPFE6BKxSgLIkEAD_AA6vbkZho0jBjzYcAtqwop9D1fKCorkvLNjqkQUGkp9g3B5QRLYutCdv5vHUKW98CU8hki71dDA_d8UwlZ-kFvCJGAe2ArTerZHYFL8Nz98sMknH6phI7m00]--></g></svg>