<svg xmlns="http://www.w3.org/2000/svg" xmlns:xlink="http://www.w3.org/1999/xlink" contentStyleType="text/css" height="386px" preserveAspectRatio="none" style="width:200px;height:386px;background:#FFFFFF;" version="1.1" viewBox="0 0 200 386" width="200px" zoomAndPan="magnify"><defs/><g><!--class Proceso--><g id="elem_Proceso"><rect codeLine="1" fill="#F1F1F1" height="48" id="Proceso" rx="2.5" ry="2.5" style="stroke:#181818;stroke-width:0.5;" width="86.9336" x="47.5" y="223"/><ellipse cx="62.5" cy="239" fill="#ADD1B2" rx="11" ry="11" style="stroke:#181818;stroke-width:1.0;"/><path d="M65.4688,244.6406 Q64.8906,244.9375 64.25,245.0781 Q63.6094,245.2344 62.9063,245.2344 Q60.4063,245.2344 59.0781,243.5938 Q57.7656,241.9375 57.7656,238.8125 Q57.7656,235.6875 59.0781,234.0313 Q60.4063,232.375 62.9063,232.375 Q63.6094,232.375 64.25,232.5313 Q64.9063,232.6875 65.4688,232.9844 L65.4688,235.7031 Q64.8438,235.125 64.25,234.8594 Q63.6563,234.5781 63.0313,234.5781 Q61.6875,234.5781 61,235.6563 Q60.3125,236.7188 60.3125,238.8125 Q60.3125,240.9063 61,241.9844 Q61.6875,243.0469 63.0313,243.0469 Q63.6563,243.0469 64.25,242.7813 Q64.8438,242.5 65.4688,241.9219 L65.4688,244.6406 Z " fill="#000000"/><text fill="#000000" font-family="sans-serif" font-size="14" lengthAdjust="spacing" textLength="54.9336" x="76.5" y="243.8467">Proceso</text><line style="stroke:#181818;stroke-width:0.5;" x1="48.5" x2="133.4336" y1="255" y2="255"/><line style="stroke:#181818;stroke-width:0.5;" x1="48.5" x2="133.4336" y1="263" y2="263"/></g><!--class Evaluacion--><g id="elem_Evaluacion"><rect codeLine="2" fill="#F1F1F1" height="48" id="Evaluacion" rx="2.5" ry="2.5" style="stroke:#181818;stroke-width:0.5;" width="108.0771" x="85" y="331"/><ellipse cx="100" cy="347" fill="#ADD1B2" rx="11" ry="11" style="stroke:#181818;stroke-width:1.0;"/><path d="M102.9688,352.6406 Q102.3906,352.9375 101.75,353.0781 Q101.1094,353.2344 100.4063,353.2344 Q97.9063,353.2344 96.5781,351.5938 Q95.2656,349.9375 95.2656,346.8125 Q95.2656,343.6875 96.5781,342.0313 Q97.9063,340.375 100.4063,340.375 Q101.1094,340.375 101.75,340.5313 Q102.4063,340.6875 102.9688,340.9844 L102.9688,343.7031 Q102.3438,343.125 101.75,342.8594 Q101.1563,342.5781 100.5313,342.5781 Q99.1875,342.5781 98.5,343.6563 Q97.8125,344.7188 97.8125,346.8125 Q97.8125,348.9063 98.5,349.9844 Q99.1875,351.0469 100.5313,351.0469 Q101.1563,351.0469 101.75,350.7813 Q102.3438,350.5 102.9688,349.9219 L102.9688,352.6406 Z " fill="#000000"/><text fill="#000000" font-family="sans-serif" font-size="14" lengthAdjust="spacing" textLength="76.0771" x="114" y="351.8467">Evaluacion</text><line style="stroke:#181818;stroke-width:0.5;" x1="86" x2="192.0771" y1="363" y2="363"/><line style="stroke:#181818;stroke-width:0.5;" x1="86" x2="192.0771" y1="371" y2="371"/></g><!--class Mejora--><g id="elem_Mejora"><rect codeLine="3" fill="#F1F1F1" height="48" id="Mejora" rx="2.5" ry="2.5" style="stroke:#181818;stroke-width:0.5;" width="79.4824" x="55.5" y="115"/><ellipse cx="70.5" cy="131" fill="#ADD1B2" rx="11" ry="11" style="stroke:#181818;stroke-width:1.0;"/><path d="M73.4688,136.6406 Q72.8906,136.9375 72.25,137.0781 Q71.6094,137.2344 70.9063,137.2344 Q68.4063,137.2344 67.0781,135.5938 Q65.7656,133.9375 65.7656,130.8125 Q65.7656,127.6875 67.0781,126.0313 Q68.4063,124.375 70.9063,124.375 Q71.6094,124.375 72.25,124.5313 Q72.9063,124.6875 73.4688,124.9844 L73.4688,127.7031 Q72.8438,127.125 72.25,126.8594 Q71.6563,126.5781 71.0313,126.5781 Q69.6875,126.5781 69,127.6563 Q68.3125,128.7188 68.3125,130.8125 Q68.3125,132.9063 69,133.9844 Q69.6875,135.0469 71.0313,135.0469 Q71.6563,135.0469 72.25,134.7813 Q72.8438,134.5 73.4688,133.9219 L73.4688,136.6406 Z " fill="#000000"/><text fill="#000000" font-family="sans-serif" font-size="14" lengthAdjust="spacing" textLength="47.4824" x="84.5" y="135.8467">Mejora</text><line style="stroke:#181818;stroke-width:0.5;" x1="56.5" x2="133.9824" y1="147" y2="147"/><line style="stroke:#181818;stroke-width:0.5;" x1="56.5" x2="133.9824" y1="155" y2="155"/></g><!--class CicloMejoraContinua--><g id="elem_CicloMejoraContinua"><rect codeLine="4" fill="#F1F1F1" height="48" id="CicloMejoraContinua" rx="2.5" ry="2.5" style="stroke:#181818;stroke-width:0.5;" width="176.2178" x="7" y="7"/><ellipse cx="22" cy="23" fill="#ADD1B2" rx="11" ry="11" style="stroke:#181818;stroke-width:1.0;"/><path d="M24.9688,28.6406 Q24.3906,28.9375 23.75,29.0781 Q23.1094,29.2344 22.4063,29.2344 Q19.9063,29.2344 18.5781,27.5938 Q17.2656,25.9375 17.2656,22.8125 Q17.2656,19.6875 18.5781,18.0313 Q19.9063,16.375 22.4063,16.375 Q23.1094,16.375 23.75,16.5313 Q24.4063,16.6875 24.9688,16.9844 L24.9688,19.7031 Q24.3438,19.125 23.75,18.8594 Q23.1563,18.5781 22.5313,18.5781 Q21.1875,18.5781 20.5,19.6563 Q19.8125,20.7188 19.8125,22.8125 Q19.8125,24.9063 20.5,25.9844 Q21.1875,27.0469 22.5313,27.0469 Q23.1563,27.0469 23.75,26.7813 Q24.3438,26.5 24.9688,25.9219 L24.9688,28.6406 Z " fill="#000000"/><text fill="#000000" font-family="sans-serif" font-size="14" lengthAdjust="spacing" textLength="144.2178" x="36" y="27.8467">CicloMejoraContinua</text><line style="stroke:#181818;stroke-width:0.5;" x1="8" x2="182.2178" y1="39" y2="39"/><line style="stroke:#181818;stroke-width:0.5;" x1="8" x2="182.2178" y1="47" y2="47"/></g><!--link Mejora to Proceso--><g id="link_Mejora_Proceso"><path codeLine="6" d="M94.13,163 C93.47,180.66 92.7764,198.9443 92.1064,216.6843 " fill="none" id="Mejora-to-Proceso" style="stroke:#181818;stroke-width:1.0;"/><polygon fill="#181818" points="91.88,222.68,96.2168,213.8374,92.0687,217.6836,88.2225,213.5354,91.88,222.68" style="stroke:#181818;stroke-width:1.0;"/></g><!--link Proceso to Evaluacion--><g id="link_Proceso_Evaluacion"><path codeLine="7" d="M101.42,271 C109.41,288.66 117.9358,307.4739 125.9658,325.2139 " fill="none" id="Proceso-to-Evaluacion" style="stroke:#181818;stroke-width:1.0;"/><polygon fill="#181818" points="128.44,330.68,128.3727,320.8314,126.3781,326.1249,121.0846,324.1303,128.44,330.68" style="stroke:#181818;stroke-width:1.0;"/></g><!--link CicloMejoraContinua to Proceso--><g id="link_CicloMejoraContinua_Proceso"><path codeLine="8" d="M73.23,55.34 C60.23,70.94 44.94,92.63 38,115 C31.68,135.37 32.02,142.52 38,163 C44.47,185.16 55.1908,202.2827 67.3408,218.0027 " fill="none" id="CicloMejoraContinua-to-Proceso" style="stroke:#181818;stroke-width:1.0;"/><polygon fill="#181818" points="71.01,222.75,68.6711,213.1829,67.9523,218.7939,62.3413,218.0752,71.01,222.75" style="stroke:#181818;stroke-width:1.0;"/></g><!--link CicloMejoraContinua to Evaluacion--><g id="link_CicloMejoraContinua_Evaluacion"><path codeLine="9" d="M116.77,55.34 C129.77,70.94 145.06,92.63 152,115 C175.65,191.2 157.9904,281.7255 146.9404,325.1255 " fill="none" id="CicloMejoraContinua-to-Evaluacion" style="stroke:#181818;stroke-width:1.0;"/><polygon fill="#181818" points="145.46,330.94,151.557,323.2052,146.6937,326.0946,143.8043,321.2313,145.46,330.94" style="stroke:#181818;stroke-width:1.0;"/></g><!--link CicloMejoraContinua to Mejora--><g id="link_CicloMejoraContinua_Mejora"><path codeLine="10" d="M95,55 C95,72.66 95,90.94 95,108.68 " fill="none" id="CicloMejoraContinua-to-Mejora" style="stroke:#181818;stroke-width:1.0;"/><polygon fill="#181818" points="95,114.68,99,105.68,95,109.68,91,105.68,95,114.68" style="stroke:#181818;stroke-width:1.0;"/></g><!--SRC=[Iyv9B2vM22ZAJqujpkTA1lDSon9pIXEJC_Fpe0A-gLdvHObGZdDcSau-HCGvFwyaCwyqaOiBmbVGrRM3cmMbmM989cBHZg8DbpmHHa240000]--></g></svg>