<?xml version="1.0" encoding="us-ascii" standalone="no"?><svg xmlns="http://www.w3.org/2000/svg" xmlns:xlink="http://www.w3.org/1999/xlink" contentStyleType="text/css" height="868px" preserveAspectRatio="none" style="width:315px;height:868px;background:#FFFFFF;" version="1.1" viewBox="0 0 315 868" width="315px" zoomAndPan="magnify"><defs/><g><!--cluster Eco--><g id="cluster_Eco"><path d="M8.5,6 L35.5,6 A3.75,3.75 0 0 1 38,8.5 L45,29.6094 L305.5,29.6094 A2.5,2.5 0 0 1 308,32.1094 L308,858.5 A2.5,2.5 0 0 1 305.5,861 L8.5,861 A2.5,2.5 0 0 1 6,858.5 L6,8.5 A2.5,2.5 0 0 1 8.5,6 " fill="none" style="stroke:#000000;stroke-width:1.5;"/><line style="stroke:#000000;stroke-width:1.5;" x1="6" x2="45" y1="29.6094" y2="29.6094"/><text fill="#000000" font-family="sans-serif" font-size="14" font-weight="bold" lengthAdjust="spacing" textLength="26" x="10" y="22.5332">Eco</text></g><!--class FuenteDeSonido--><g id="elem_FuenteDeSonido"><rect codeLine="2" fill="#F1F1F1" height="65.6094" id="FuenteDeSonido" rx="2.5" ry="2.5" style="stroke:#181818;stroke-width:0.5;" width="139" x="92.5" y="42"/><ellipse cx="107.5" cy="58" fill="#ADD1B2" rx="11" ry="11" style="stroke:#181818;stroke-width:1.0;"/><path d="M110.2656,53.875 Q110.4219,53.6563 110.6094,53.5469 Q110.7969,53.4375 111.0156,53.4375 Q111.3906,53.4375 111.625,53.7031 Q111.8594,53.9531 111.8594,54.5625 L111.8594,56.0156 Q111.8594,56.625 111.625,56.8906 Q111.3906,57.1563 111.0156,57.1563 Q110.6719,57.1563 110.4688,56.9531 Q110.2656,56.7656 110.1563,56.25 Q110.1094,55.8906 109.9219,55.7031 Q109.5938,55.3281 108.9844,55.1094 Q108.375,54.8906 107.75,54.8906 Q106.9844,54.8906 106.3438,55.2188 Q105.7188,55.5469 105.2188,56.2969 Q104.7344,57.0469 104.7344,58.0781 L104.7344,59.1719 Q104.7344,60.4063 105.625,61.2344 Q106.5156,62.0469 108.1094,62.0469 Q109.0469,62.0469 109.7031,61.7969 Q110.0938,61.6406 110.5156,61.2031 Q110.7813,60.9375 110.9219,60.8594 Q111.0781,60.7813 111.2813,60.7813 Q111.6094,60.7813 111.8594,61.0469 Q112.125,61.2969 112.125,61.6406 Q112.125,61.9844 111.7813,62.3906 Q111.2813,62.9688 110.4844,63.2969 Q109.4063,63.75 108.1094,63.75 Q106.5938,63.75 105.3906,63.125 Q104.4063,62.625 103.7188,61.5625 Q103.0313,60.4844 103.0313,59.2031 L103.0313,58.0469 Q103.0313,56.7188 103.6406,55.5781 Q104.2656,54.4219 105.3594,53.8125 Q106.4531,53.1875 107.6875,53.1875 Q108.4219,53.1875 109.0625,53.3594 Q109.7188,53.5156 110.2656,53.875 Z " fill="#000000"/><text fill="#000000" font-family="sans-serif" font-size="14" lengthAdjust="spacing" textLength="107" x="121.5" y="63.7285">FuenteDeSonido</text><line style="stroke:#181818;stroke-width:0.5;" x1="93.5" x2="230.5" y1="74" y2="74"/><ellipse cx="103.5" cy="88.3047" fill="none" rx="3" ry="3" style="stroke:#038048;stroke-width:1.0;"/><text fill="#000000" font-family="sans-serif" font-size="14" lengthAdjust="spacing" textLength="62" x="112.5" y="92.5332">string tipo</text><line style="stroke:#181818;stroke-width:0.5;" x1="93.5" x2="230.5" y1="99.6094" y2="99.6094"/></g><!--class OndaSonora--><g id="elem_OndaSonora"><rect codeLine="5" fill="#F1F1F1" height="83.2188" id="OndaSonora" rx="2.5" ry="2.5" style="stroke:#181818;stroke-width:0.5;" width="160" x="82" y="186"/><ellipse cx="118.15" cy="202" fill="#ADD1B2" rx="11" ry="11" style="stroke:#181818;stroke-width:1.0;"/><path d="M120.9156,197.875 Q121.0719,197.6563 121.2594,197.5469 Q121.4469,197.4375 121.6656,197.4375 Q122.0406,197.4375 122.275,197.7031 Q122.5094,197.9531 122.5094,198.5625 L122.5094,200.0156 Q122.5094,200.625 122.275,200.8906 Q122.0406,201.1563 121.6656,201.1563 Q121.3219,201.1563 121.1188,200.9531 Q120.9156,200.7656 120.8063,200.25 Q120.7594,199.8906 120.5719,199.7031 Q120.2438,199.3281 119.6344,199.1094 Q119.025,198.8906 118.4,198.8906 Q117.6344,198.8906 116.9938,199.2188 Q116.3688,199.5469 115.8688,200.2969 Q115.3844,201.0469 115.3844,202.0781 L115.3844,203.1719 Q115.3844,204.4063 116.275,205.2344 Q117.1656,206.0469 118.7594,206.0469 Q119.6969,206.0469 120.3531,205.7969 Q120.7438,205.6406 121.1656,205.2031 Q121.4313,204.9375 121.5719,204.8594 Q121.7281,204.7813 121.9313,204.7813 Q122.2594,204.7813 122.5094,205.0469 Q122.775,205.2969 122.775,205.6406 Q122.775,205.9844 122.4313,206.3906 Q121.9313,206.9688 121.1344,207.2969 Q120.0563,207.75 118.7594,207.75 Q117.2438,207.75 116.0406,207.125 Q115.0563,206.625 114.3688,205.5625 Q113.6813,204.4844 113.6813,203.2031 L113.6813,202.0469 Q113.6813,200.7188 114.2906,199.5781 Q114.9156,198.4219 116.0094,197.8125 Q117.1031,197.1875 118.3375,197.1875 Q119.0719,197.1875 119.7125,197.3594 Q120.3688,197.5156 120.9156,197.875 Z " fill="#000000"/><text fill="#000000" font-family="sans-serif" font-size="14" lengthAdjust="spacing" textLength="81" x="136.85" y="207.7285">OndaSonora</text><line style="stroke:#181818;stroke-width:0.5;" x1="83" x2="241" y1="218" y2="218"/><ellipse cx="93" cy="232.3047" fill="none" rx="3" ry="3" style="stroke:#038048;stroke-width:1.0;"/><text fill="#000000" font-family="sans-serif" font-size="14" lengthAdjust="spacing" textLength="97" x="102" y="236.5332">float frecuencia</text><ellipse cx="93" cy="249.9141" fill="none" rx="3" ry="3" style="stroke:#038048;stroke-width:1.0;"/><text fill="#000000" font-family="sans-serif" font-size="14" lengthAdjust="spacing" textLength="134" x="102" y="254.1426">float longitudDeOnda</text><line style="stroke:#181818;stroke-width:0.5;" x1="83" x2="241" y1="261.2188" y2="261.2188"/></g><!--class MedioDePropagaci?n--><g id="elem_MedioDePropagaci&#243;n"><rect codeLine="9" fill="#F1F1F1" height="65.6094" id="MedioDePropagaci&#243;n" rx="2.5" ry="2.5" style="stroke:#181818;stroke-width:0.5;" width="168" x="25" y="347"/><ellipse cx="40" cy="363" fill="#ADD1B2" rx="11" ry="11" style="stroke:#181818;stroke-width:1.0;"/><path d="M42.7656,358.875 Q42.9219,358.6563 43.1094,358.5469 Q43.2969,358.4375 43.5156,358.4375 Q43.8906,358.4375 44.125,358.7031 Q44.3594,358.9531 44.3594,359.5625 L44.3594,361.0156 Q44.3594,361.625 44.125,361.8906 Q43.8906,362.1563 43.5156,362.1563 Q43.1719,362.1563 42.9688,361.9531 Q42.7656,361.7656 42.6563,361.25 Q42.6094,360.8906 42.4219,360.7031 Q42.0938,360.3281 41.4844,360.1094 Q40.875,359.8906 40.25,359.8906 Q39.4844,359.8906 38.8438,360.2188 Q38.2188,360.5469 37.7188,361.2969 Q37.2344,362.0469 37.2344,363.0781 L37.2344,364.1719 Q37.2344,365.4063 38.125,366.2344 Q39.0156,367.0469 40.6094,367.0469 Q41.5469,367.0469 42.2031,366.7969 Q42.5938,366.6406 43.0156,366.2031 Q43.2813,365.9375 43.4219,365.8594 Q43.5781,365.7813 43.7813,365.7813 Q44.1094,365.7813 44.3594,366.0469 Q44.625,366.2969 44.625,366.6406 Q44.625,366.9844 44.2813,367.3906 Q43.7813,367.9688 42.9844,368.2969 Q41.9063,368.75 40.6094,368.75 Q39.0938,368.75 37.8906,368.125 Q36.9063,367.625 36.2188,366.5625 Q35.5313,365.4844 35.5313,364.2031 L35.5313,363.0469 Q35.5313,361.7188 36.1406,360.5781 Q36.7656,359.4219 37.8594,358.8125 Q38.9531,358.1875 40.1875,358.1875 Q40.9219,358.1875 41.5625,358.3594 Q42.2188,358.5156 42.7656,358.875 Z " fill="#000000"/><text fill="#000000" font-family="sans-serif" font-size="14" lengthAdjust="spacing" textLength="136" x="54" y="368.7285">MedioDePropagaci&#243;n</text><line style="stroke:#181818;stroke-width:0.5;" x1="26" x2="192" y1="379" y2="379"/><ellipse cx="36" cy="393.3047" fill="none" rx="3" ry="3" style="stroke:#038048;stroke-width:1.0;"/><text fill="#000000" font-family="sans-serif" font-size="14" lengthAdjust="spacing" textLength="62" x="45" y="397.5332">string tipo</text><line style="stroke:#181818;stroke-width:0.5;" x1="26" x2="192" y1="404.6094" y2="404.6094"/></g><!--class SuperficieReflectora--><g id="elem_SuperficieReflectora"><rect codeLine="12" fill="#F1F1F1" height="65.6094" id="SuperficieReflectora" rx="2.5" ry="2.5" style="stroke:#181818;stroke-width:0.5;" width="160" x="22" y="491"/><ellipse cx="37" cy="507" fill="#ADD1B2" rx="11" ry="11" style="stroke:#181818;stroke-width:1.0;"/><path d="M39.7656,502.875 Q39.9219,502.6563 40.1094,502.5469 Q40.2969,502.4375 40.5156,502.4375 Q40.8906,502.4375 41.125,502.7031 Q41.3594,502.9531 41.3594,503.5625 L41.3594,505.0156 Q41.3594,505.625 41.125,505.8906 Q40.8906,506.1563 40.5156,506.1563 Q40.1719,506.1563 39.9688,505.9531 Q39.7656,505.7656 39.6563,505.25 Q39.6094,504.8906 39.4219,504.7031 Q39.0938,504.3281 38.4844,504.1094 Q37.875,503.8906 37.25,503.8906 Q36.4844,503.8906 35.8438,504.2188 Q35.2188,504.5469 34.7188,505.2969 Q34.2344,506.0469 34.2344,507.0781 L34.2344,508.1719 Q34.2344,509.4063 35.125,510.2344 Q36.0156,511.0469 37.6094,511.0469 Q38.5469,511.0469 39.2031,510.7969 Q39.5938,510.6406 40.0156,510.2031 Q40.2813,509.9375 40.4219,509.8594 Q40.5781,509.7813 40.7813,509.7813 Q41.1094,509.7813 41.3594,510.0469 Q41.625,510.2969 41.625,510.6406 Q41.625,510.9844 41.2813,511.3906 Q40.7813,511.9688 39.9844,512.2969 Q38.9063,512.75 37.6094,512.75 Q36.0938,512.75 34.8906,512.125 Q33.9063,511.625 33.2188,510.5625 Q32.5313,509.4844 32.5313,508.2031 L32.5313,507.0469 Q32.5313,505.7188 33.1406,504.5781 Q33.7656,503.4219 34.8594,502.8125 Q35.9531,502.1875 37.1875,502.1875 Q37.9219,502.1875 38.5625,502.3594 Q39.2188,502.5156 39.7656,502.875 Z " fill="#000000"/><text fill="#000000" font-family="sans-serif" font-size="14" lengthAdjust="spacing" textLength="128" x="51" y="512.7285">SuperficieReflectora</text><line style="stroke:#181818;stroke-width:0.5;" x1="23" x2="181" y1="523" y2="523"/><ellipse cx="33" cy="537.3047" fill="none" rx="3" ry="3" style="stroke:#038048;stroke-width:1.0;"/><text fill="#000000" font-family="sans-serif" font-size="14" lengthAdjust="spacing" textLength="87" x="42" y="541.5332">float distancia</text><line style="stroke:#181818;stroke-width:0.5;" x1="23" x2="181" y1="548.6094" y2="548.6094"/></g><!--class Receptor--><g id="elem_Receptor"><rect codeLine="15" fill="#F1F1F1" height="65.6094" id="Receptor" rx="2.5" ry="2.5" style="stroke:#181818;stroke-width:0.5;" width="90" x="170" y="779"/><ellipse cx="185" cy="795" fill="#ADD1B2" rx="11" ry="11" style="stroke:#181818;stroke-width:1.0;"/><path d="M187.7656,790.875 Q187.9219,790.6563 188.1094,790.5469 Q188.2969,790.4375 188.5156,790.4375 Q188.8906,790.4375 189.125,790.7031 Q189.3594,790.9531 189.3594,791.5625 L189.3594,793.0156 Q189.3594,793.625 189.125,793.8906 Q188.8906,794.1563 188.5156,794.1563 Q188.1719,794.1563 187.9688,793.9531 Q187.7656,793.7656 187.6563,793.25 Q187.6094,792.8906 187.4219,792.7031 Q187.0938,792.3281 186.4844,792.1094 Q185.875,791.8906 185.25,791.8906 Q184.4844,791.8906 183.8438,792.2188 Q183.2188,792.5469 182.7188,793.2969 Q182.2344,794.0469 182.2344,795.0781 L182.2344,796.1719 Q182.2344,797.4063 183.125,798.2344 Q184.0156,799.0469 185.6094,799.0469 Q186.5469,799.0469 187.2031,798.7969 Q187.5938,798.6406 188.0156,798.2031 Q188.2813,797.9375 188.4219,797.8594 Q188.5781,797.7813 188.7813,797.7813 Q189.1094,797.7813 189.3594,798.0469 Q189.625,798.2969 189.625,798.6406 Q189.625,798.9844 189.2813,799.3906 Q188.7813,799.9688 187.9844,800.2969 Q186.9063,800.75 185.6094,800.75 Q184.0938,800.75 182.8906,800.125 Q181.9063,799.625 181.2188,798.5625 Q180.5313,797.4844 180.5313,796.2031 L180.5313,795.0469 Q180.5313,793.7188 181.1406,792.5781 Q181.7656,791.4219 182.8594,790.8125 Q183.9531,790.1875 185.1875,790.1875 Q185.9219,790.1875 186.5625,790.3594 Q187.2188,790.5156 187.7656,790.875 Z " fill="#000000"/><text fill="#000000" font-family="sans-serif" font-size="14" lengthAdjust="spacing" textLength="58" x="199" y="800.7285">Receptor</text><line style="stroke:#181818;stroke-width:0.5;" x1="171" x2="259" y1="811" y2="811"/><ellipse cx="181" cy="825.3047" fill="none" rx="3" ry="3" style="stroke:#038048;stroke-width:1.0;"/><text fill="#000000" font-family="sans-serif" font-size="14" lengthAdjust="spacing" textLength="62" x="190" y="829.5332">string tipo</text><line style="stroke:#181818;stroke-width:0.5;" x1="171" x2="259" y1="836.6094" y2="836.6094"/></g><!--class Eco--><g id="elem_Eco"><rect codeLine="18" fill="#F1F1F1" height="65.6094" id="Eco" rx="2.5" ry="2.5" style="stroke:#181818;stroke-width:0.5;" width="149" x="47.5" y="635"/><ellipse cx="105.75" cy="651" fill="#ADD1B2" rx="11" ry="11" style="stroke:#181818;stroke-width:1.0;"/><path d="M108.5156,646.875 Q108.6719,646.6563 108.8594,646.5469 Q109.0469,646.4375 109.2656,646.4375 Q109.6406,646.4375 109.875,646.7031 Q110.1094,646.9531 110.1094,647.5625 L110.1094,649.0156 Q110.1094,649.625 109.875,649.8906 Q109.6406,650.1563 109.2656,650.1563 Q108.9219,650.1563 108.7188,649.9531 Q108.5156,649.7656 108.4063,649.25 Q108.3594,648.8906 108.1719,648.7031 Q107.8438,648.3281 107.2344,648.1094 Q106.625,647.8906 106,647.8906 Q105.2344,647.8906 104.5938,648.2188 Q103.9688,648.5469 103.4688,649.2969 Q102.9844,650.0469 102.9844,651.0781 L102.9844,652.1719 Q102.9844,653.4063 103.875,654.2344 Q104.7656,655.0469 106.3594,655.0469 Q107.2969,655.0469 107.9531,654.7969 Q108.3438,654.6406 108.7656,654.2031 Q109.0313,653.9375 109.1719,653.8594 Q109.3281,653.7813 109.5313,653.7813 Q109.8594,653.7813 110.1094,654.0469 Q110.375,654.2969 110.375,654.6406 Q110.375,654.9844 110.0313,655.3906 Q109.5313,655.9688 108.7344,656.2969 Q107.6563,656.75 106.3594,656.75 Q104.8438,656.75 103.6406,656.125 Q102.6563,655.625 101.9688,654.5625 Q101.2813,653.4844 101.2813,652.2031 L101.2813,651.0469 Q101.2813,649.7188 101.8906,648.5781 Q102.5156,647.4219 103.6094,646.8125 Q104.7031,646.1875 105.9375,646.1875 Q106.6719,646.1875 107.3125,646.3594 Q107.9688,646.5156 108.5156,646.875 Z " fill="#000000"/><text fill="#000000" font-family="sans-serif" font-size="14" lengthAdjust="spacing" textLength="24" x="126.25" y="656.7285">Eco</text><line style="stroke:#181818;stroke-width:0.5;" x1="48.5" x2="195.5" y1="667" y2="667"/><ellipse cx="58.5" cy="681.3047" fill="none" rx="3" ry="3" style="stroke:#038048;stroke-width:1.0;"/><text fill="#000000" font-family="sans-serif" font-size="14" lengthAdjust="spacing" textLength="123" x="67.5" y="685.5332">float tiempoRetraso</text><line style="stroke:#181818;stroke-width:0.5;" x1="48.5" x2="195.5" y1="692.6094" y2="692.6094"/></g><!--link FuenteDeSonido to OndaSonora--><g id="link_FuenteDeSonido_OndaSonora"><path codeLine="22" d="M162,108.29 C162,131 162,161.57 162,185.93 " fill="none" id="FuenteDeSonido-OndaSonora" style="stroke:#181818;stroke-width:1.0;"/><text fill="#000000" font-family="sans-serif" font-size="13" lengthAdjust="spacing" textLength="39" x="163" y="152.4951">genera</text></g><!--link OndaSonora to MedioDePropagaci?n--><g id="link_OndaSonora_MedioDePropagaci&#243;n"><path codeLine="23" d="M125.43,269.32 C119.12,278.5 113.49,288.62 110,299 C104.91,314.14 104.2,331.82 104.95,346.71 " fill="none" id="OndaSonora-MedioDePropagaci&#243;n" style="stroke:#181818;stroke-width:1.0;"/><text fill="#000000" font-family="sans-serif" font-size="13" lengthAdjust="spacing" textLength="131" x="111" y="313.4951">se propaga a trav&#233;s de</text></g><!--link MedioDePropagaci?n to SuperficieReflectora--><g id="link_MedioDePropagaci&#243;n_SuperficieReflectora"><path codeLine="24" d="M107.41,413.22 C106.27,436.46 104.73,467.7 103.58,490.91 " fill="none" id="MedioDePropagaci&#243;n-SuperficieReflectora" style="stroke:#181818;stroke-width:1.0;"/><text fill="#000000" font-family="sans-serif" font-size="13" lengthAdjust="spacing" textLength="64" x="106" y="457.4951">impacta en</text></g><!--link OndaSonora to Receptor--><g id="link_OndaSonora_Receptor"><path codeLine="25" d="M223.91,269.12 C233.09,277.88 241.35,287.89 247,299 C263.15,330.76 252,343.38 252,379 C252,379 252,379 252,669 C252,707.72 238.96,750.52 228.36,778.91 " fill="none" id="OndaSonora-Receptor" style="stroke:#181818;stroke-width:1.0;"/><text fill="#000000" font-family="sans-serif" font-size="13" lengthAdjust="spacing" textLength="38" x="253" y="529.4951">llega a</text></g><!--link SuperficieReflectora to Eco--><g id="link_SuperficieReflectora_Eco"><path codeLine="26" d="M99.04,557.11 C98.34,571.8 98.43,589.38 101,605 C102.63,614.87 105.62,625.28 108.84,634.69 " fill="none" id="SuperficieReflectora-Eco" style="stroke:#181818;stroke-width:1.0;"/><text fill="#000000" font-family="sans-serif" font-size="13" lengthAdjust="spacing" textLength="140" x="102" y="601.4951">refleja la onda causando</text></g><!--link Eco to Receptor--><g id="link_Eco_Receptor"><path codeLine="27" d="M143.1,701.22 C158.32,724.46 178.78,755.7 193.98,778.91 " fill="none" id="Eco-Receptor" style="stroke:#181818;stroke-width:1.0;"/><text fill="#000000" font-family="sans-serif" font-size="13" lengthAdjust="spacing" textLength="42" x="175" y="745.4951">percibe</text></g><!--SRC=[XP8nJWCn44LxJZ7Q5kK2r84EWJOd6CP_LmEERTbU6fG3KNE4N8mn0R99LahZullD_-Cl9vOt7a7t4kdZXaWybqBTmuHGiSOc1dMn-xaYkYqrQnYfQeecx8xyKt1iRCpypmu-SgKXGynBbEUgZs7KEharsk2frIESnZMUSqmyikZ-ArpFtqm9UL1Hz1Wyf5vkuhHK_braDjb3a0o_dc4LdLbMnJR57ZLpES1sd5P7gnKTow4xwaO4s796pdIZ5jxTy09A1ucOBEXz_rd8eSqlJPZHKXVDIRU9fJ8XN8R_jT0uxz726hHePNZxBKRc9huoUQPeTYGy5GxsNsoq8MV6vYNwOglllW40]--></g></svg>